<?xml version="1.0" encoding="UTF-8"?><svg id="Factory_-_Back" xmlns="http://www.w3.org/2000/svg" viewBox="0 0 1160 418.25"><defs><style>.cls-1{fill:#c7c8ca;stroke-width:0px;}</style></defs><g id="tJb7if.tif"><path class="cls-1" d="m0,342.25v1.21c.14-.25.35-.45.66-.55-.17-.38-.41-.54-.66-.66Zm79.03-71.69l-.05.03s.05.05.07.08c-.01-.04-.01-.07-.02-.11Zm1.15,1.42h-.01l.05.05s-.03-.03-.04-.05Zm41.58,78.07l-.03.07s.03-.01.04-.02c-.01-.01-.01-.03-.01-.05Zm99.75-19.61h-.01l.02.02h0s-.01-.02-.01-.02Zm140.77-18.12c.07-.23.07-.58.08-1.12-.07.4-.1.77-.08,1.12Zm11.57,78.49c1.25.37,2.55-.72,3.74.46v-9.47c-.2-.06-.39-.16-.59-.17-3.81-.21-7.62,1.38-11.44-.2-1.1-.45-1.16-.08-1.54-2.48.36.26.73.38.96.74.13.21-.16,1.05.37.84.17-.07.36-.59.38-.92.08-1.3-.07-2.66-1.02-2.79-.7-.1-.71-.62-.37-.99.77-.85.26-1.27-.1-1.86-.4-.66-.52-1.49-.52-2.39,0-2.36-.03-4.71-.05-7.07-.01-1.01.17-1.8,1.13-1.75-1.44-1.4-1.4-2.74.12-4.61-.76.14-1.26.01-1.31-1.17-.06-1.44.51-.98.99-.96.1.01.28-.21.29-.35.02-.18-.09-.55-.16-.56-1.35-.2-1.22-1.91-1.27-3.26-.1-2.81-.09-5.63-.12-8.45-.02-1.47-.2-3.08,1.45-3.22-2.56-.38-.71-3.82-1.77-5.21-.28.81.28,1.79-.33,2.37q-.49-2.93,1.59-3.68c-1.45.25-1.97-.68-2.04-2.89-.07-2.03.5-2.63,1.79-2.91-2.1.37-1.8-1.66-1.7-3.39.06-.96.07-1.88-.1-2.8-.33-1.82,0-3.64.18-5.38.12-1.27,1.26-.11,1.79-.89.14-.2.37-.26.31-.81-1.38-.07-2.15-.95-2.23-2.27-.11.42-.42.45-1.29.54-.04.01-.11.08-.12.14-.32,1.75-1.24.15-1.78.78-.33.36-.81.6-1.07-.06-.26-.65-.44-1.57-.02-2.18.34-.49.48-.76.06-1.23-.38-.44-.76-1.11-.56-1.74.23-.76.88-.45,1.36-.58,1.21-.31,2.48.36,4.08-.58-2.33-1.7-4.7-.13-6.71-3,.33,1.77,1.06,1.34,1.52,2.14-1.42.29-2.65.52-3.87.79-.25.05-.52.15-.52.67,0,.13.09.38.13.38,1.19-.03,2.07.16.79,2.27,0,.02.48.7.68,1.13.25.52.6,1.3.11,1.72-.71.6-1.28,1.78-2.58,1.23,1.45,1.59,1.23,3.55,1.26,5.23.09,4.62-.23,9.28.1,13.84.4,5.5-.46,11.05.47,16.53.22,1.26.31,2.95-.19,4.31-.37.99.64.51.5,1.2-.49.59-1.23-.06-1.63.86.06.6.37.38.57.51.77.47.51,2.03,1.12,2.67-.47.94-1.08.46-1.63.37-2.29-.4-4.56-.95-6.85-1.21-1.53-.18-3.08-.43-4.62-.02-.5.13-1.22.59-1.43-.43-.27-1.36.47-1.66,1.15-1.82.18-.05.34-.21.97-.6-2.42-.44-1.67-3.1-1.77-4.76-.09-1.59-.69-4.08,1.27-4.8-1.65-.7-2.34-5.94-1.22-7.78-.65-.59-1.6.95-2.13-.72-.5-1.58-1.25-.82-1.94-.51-.83.37-.87,1.67-.77,2.5.5,4.45.05,8.96.39,13.39.16,2.01-.52,4.31.69,5.87-1.1.99-2.28.33-3.42.52-.43.07-1.11.72-1.11-.67.01-1.49-.47-4,.47-4.21,1.3-.3,1.6-1.06,1.61-2.83-.66.36-1.48.9-2.07.08-.47-.65.59-.81.49-1.76-1.25.59-1.5-.66-1.24-2.04.23-1.22-.44-1.56-.67-1.7-.64-.41-.79-1.31-1.17-2.16.09,1.99.05,3.65-1.78,2.77,1.34,2-1.21,3.82.27,5.34-1.12.51-2.43,1.41-2.12-1.72-.45,3.35-.37,3.41,1.62,3.74.71.12.85.63.79,1.52-.17,2.69-.18,5.48-.13,8.08.03,1.72-.46,2.86-.56,4.3-.37-.1-.47,2.2-1.06.28-.18-.58-.65-.46-.63.02.03,1.1-.66.95-.83,1.3.99,1.34,1.96,2.61,3.75,2.19-1.02,1.23-2.19,1.63-1.9,2.78.55,2.15-.51,1.42-.91,1.48-1.4.23-2.72-.76-4.15-.62-3.36.32-3.37.23-3.41-5.01,0-.31-.01-.63-.01-.94.02-2.6-.62-5.68,2.07-6.13-.62-1.17-2.49.01-1.68-2.91.33.39.41,1.39.96.95.15-.12.29-.52.28-.78-.03-.98-.54-.75-.9-.72-1.17.09-1.19-1-.73-2.07.64-1.51.43-3.18.65-4.76.44-3.14-1.36-5.76-.74-8.9.06-.34-.18-.91-.45-.63-.75.77-1.74.02-2.66,1.06,1.07.51,2.14.49,2.38,2.39-.54.02-1.23.61-1.53-.14-.2-.51-.25-.88-.64-.69-.49.23-.31.92-.29,1.4.08,1.96.18,3.92.31,5.88.07,1.04.01,1.48-.74.91-.32-.24-.75-.11-1.13-.13-.26,0-.56.09-.54.59.02.34.18.91.34.97,1.44.56,1.22,2.24,1.2,3.94-.04,3.38.02,6.77.02,10.15,0,.96.23,2.54-.58,2.49-.7-.03-.28-1.49-.26-2.34,0-.06-.15-.12-.38-.28-.13.88-.35,1.7-.69,2.41-.32-.06-.38-.41-.31-.81.14-.88.49-2.15-.22-2.36-.63-.18-.4,1.18-.43,1.88-.03.8-.31.82-.7.83-.5,0-.69-.24-.7-1.08-.08-5.2-.2-10.39-.26-15.59-.01-.89-.21-1.92.72-2.51.28-.18,1.52-.84,1.23-2.52-.57.41-1.12.9-1.64-.03.89-1.08-.21-1.79-.22-2.75-.02-4.61-.12-9.23-.19-13.85-.01-.63-.08-1.37.44-1.55,1.45-.51,1.18-2.08.99-3.93-.12.46-.18.66-.23.86-.15.55.28,1.73-.41,1.62-1-.15-.02-.92-.08-1.4-.03-.27-.15-.66-.29-.73-.98-.49-.84-1.85-.88-2.95-.29-10.01-.53-20.02-.84-30.02-.05-1.44.05-2.5,1.25-3.1-1.24-.04-1.17-1.19-1.2-2.23-.21-6.15-.46-12.29-.58-18.43-.04-1.94-.56-2.7-1.67-2.88-1.87-.3-3.7.03-5.51.82-.35.15-.75.24-.78.89-.06,1.09.66.29.93.91-1.1-.08-1,1.12-1.02,2.21-.12,4.44.32,8.85.32,13.3.01,2.45-.7,4.17-1.4,6.16,1.1.3,1.89.91,1.05,2.91-.07.16-.05.5,0,.69.9,2.97.27,6.06.3,9.1.01,2.07.04,4.26-1.8,5.46,1.91.56,1.95,2.43,1.9,4.38-.03,1.58.2,3.29-.11,4.7-.39,1.72.81,3,.18,5.17-.74-3.43-1.91-4.9-3.87-3.14q.42,1.21-.54,2.64c-.29-1.83-.21-4.21-2.15-3.34.25-1.14.93-.41,1.12-1.03-1.39-1.18-1.26-3.56-1.38-5.32-.1-1.49,1.27-1.39,2.08-1.53,1.9-.32,1.89-.26,1.5-2.96-.1-.66.12-1.39-.15-2.04-1.23,1.54-1.34,1.39-2.46-3.19-.3-.59-.81.57-1.06-.17.93-2.63,2.84-1.64,4.32-2.98-.8-.38-1.43-.6-2.08-.36-1.63.62-2.8-.77-2.65-3.51.19-3.52.06-7.04.12-10.56.05-3.34.41-4.06,2.47-5.13.56-.29,1.26-.27,1.71-1.06-.31-.72-.97-.43-1.24-1.3,1.23-1.06,1.06-2.85,1.04-4.57-.01-.43-.06-.78-.43-.57-.49.27,0,.56-.01.84-.01.29,0,.59,0,1.12-.82-.69-1.75-.17-2.53-.97.42-.9,1.05-.19,1.43-.79-.5-1.77-1.36-2.69-3.02-2.56,1.53-1.41,2.93-.63,4.01-1.8.17-.2.5-.09.5-.63.01-.42-.08-.94-.36-.83-.46.19-.75-1.93-1.32-.12-.15.48-.87.04-.91-.63-.08-1.65-.5-3.4.46-4.88.67-1.03,1.21-2.29,1.9-3.31.44-.66.84-1.53,1.62-1.5.43.02,1.2.48,1.21-.67.01-.91-.76-.77-1.21-1.03-.27-.16-.57-.21-.86-.27-1.28-.28-2.38-.82-2.12-3.54-.1.41-.12.98-.15.98-.87.02-1.74-.01-2.61-.03.82-1.51-.79-2.65-.3-3.94.55-1.4.1-2.83.2-4.21.21-3.13-.01-3.16.75-5.37.04-.1-.09-.34-.06-.44,1.21-3.5,2.43-7,5.19-8.01.27-.1.65.12.74-.52.08-.61-.29-.62-.51-.9-1.42-1.84-3.4-1.08-4.97-3.18-1.1-1.47-2.3-3.02-1.88-4.62.44-1.68.93-3.48,1.49-5.15.09-.27.68-.05,1-.22.67-.37,1.5.26,2.13-.79-.38-.39-.69-.71-1-1.03,1.67-1.66-.71-3.01-.07-4.71-.39.87-.57,1.92-1.39,1.55-1.25-.57-.07-2.19-.5-3.21-.37.61-.36,1.22-.33,1.84.03.43.2,1.04-.34.84-.24-.1-.49-.5-.3-.9.65-1.4.09-2.64-.19-3.89.92-.92,3.11.21,2.18-3.52-.41.27.14,1.25-.31,1.27-.46.02-.81-.59-1.06-1.18-.18-.41-.67-.45-.88,0-.5-2-.58-2.14-.95-1.71-.82.96-1.59.71-2.07-.65-.11-.33-.27-.61-.42-.92-.19.39.01,1.07-.4,1.37-.09-.75-.92-1.18-.24-2.23.2-.32.13-1.28-.54-.97-1.38.64-2.8.97-4.23,1.1-.63.06-1.27.37-1.35,1.51-.1,1.29-.58,2.52-.29,3.87.6,2.8-.61,5.71.2,8.5-1.67,1.4-.73,2.47.14,3.65.16.21.04.91.04,1.38,0,1.82,0,3.63.03,5.44.01.54.07,1.49.2,1.53,1.06.34.61.89.29,1.85-.39,1.17-.63,2.22-1.66,1.75-.2-.09-.33.2-.41.53-.44,1.63.1,3.71,1.18,4.44.29.2.62.33.55.92-.19,1.85.43,3.52.43,5.35,0,3.77-.34,7.55.12,11.33.16,1.34-.31,2.65-.22,4.08.08,1.28-.61,1.24-1.21,1.03-.07-1.11.95-.31.79-1.5-.44-.01-1.03-.51-1.16.63-.17,1.39-.23,2.95.35,4.09.56,1.09.84-.67,1.47-.93-.35,1.41.01,2.52.04,3.67.18,8.17-.47,16.35.01,24.53.04.69.25,1.62-.72,1.43-.21-.04-1.43-.4-1.34.95.07,1.07.82,1.36,1.54,1.03.26-.13.51-.03.53.5.08,2.67.31,5.56.09,7.98-.37,4.16.75,8.17-.11,12.18-.33.75-1.53-.62-1.44.87.09,1.63,1.13.4,1.77.57-.08,2.21-.21,4.41-.23,6.61-.08,5.93-.09,6.2-.66,6.03-.06-.59-.12-1.21-.22-2.12-.77,3.16-.61,3.49,1.67,4.02-.48.17-1.05.55-1.42.26-.59-.47-1.61.08-1.51-2.34.12-2.97-.16-6.03-.14-9.09.07-6.74-.14-13.47-.24-20.21-.03-1.58-.06-3.15-.15-4.72-.03-.58-.04-1.31-.58-1.45-1.37-.33-2.28.82-2.34,2.96-.02.63-.03,1.26-.07,1.89-.38,6.29.18,12.58.03,18.9-.09,3.92-.08,7.93.18,12.4-1.04-1.27-1.86-1.73-2.49-.01-.92-2.23-.99-4.74-.91-7.26.04-1.25.11-2.84,1.01-3.1,1.91-.55,1.47-2.63,1.42-4.53-.01-.46,0-1.02-.46-.95-.8.12.16.73-.12,1.14-.29.43.36,1.66-.56,1.73-.74.05-1.14-.42-1.27-1.52-.04-.31-.08-.63-.08-.94-.05-4.22-.08-8.45-.16-12.67-.02-.94.36-2.29-.47-2.7-.87-.43-1.91-.95-2.71.2-.74,1.07-1.28,1.64-1.68-.35-.06-.3-.11-.57-.39-.54-1.96.26-1.61-2.5-2.16-4.1-.11-.33-.12-.53.04-.81,1.36-2.52,2.63-5.25,5.08-5.12.35.01.56-.32.62-.84.03-.26.06-.49-.14-.76-.76-1.01-.74-1.05.25-1.82-.57-.11-1.1-.71-1.2.63-.04.55-.12.93-.52.81-.37-.11-.44-.56-.46-1.06-.01-.38.3-.96-.24-1.1-.26.52.38,1.47-.28,1.75-.49.2-.5-.55-.66-1-.15-.41-.34-.41-.37-.02-.09,1.17-.5.7-.7.33-.44-.85-1.02-1.64-.75-2.99.15-.72.03-1.67-.54-1.54-.79.18.68.94-.13,1.44-.6-1.2-1.51-1.53-2.44-1.84-.49-.16-1.09-.32-1.05-1.33.1-2.06-.59-4.65,1.59-5.42-1.17-1.05-1.23-1.64-.58-3.21.58.24-.41,1.22.28,1.4.21.06.42-.06.43-.44.08-1.8.96-1.73,1.74-1.9,1.35-.3,2.69-.6,4.04-.9-.92-.82-1.82-1.7-2.73-1.15-1.69,1.03-3.19-.26-4.7-.83-.76-.29-1.66.37-2.29-.72-.45.66-.07,1.51-.22,2.23-.25,1.2-1,1-1.53,1.08-.69.11-.48-.96-.49-1.58-.03-2.92-.05-5.84-.01-8.75.01-.81-.36-2.1.61-2.24.81-.11,1.5.02,1.93,1.57.52,1.92,1.35,3.61,1.51,5.79.09,1.27.84,1.13,1.41,1.31.29.1.68.28.72-.39.19-2.68,1.7-3.76,2.65-5.49.98-1.79,2.14-3.29,3.81-3.21.44.02.96-.69.63-1.11-.93-1.18-.66-3.33-1.61-4.39-.74,1.27.13,2.26.46,3.72-1.31-1.39-2.63-.91-3.76-1.66-.54-.36-.6-.35-.12-1.12.34-.54.09-1.05.12-1.55.02-.39-.11-.13-.23-.04-.92.62-1.16-.38-1.45-1.45-.33-1.28.11-2.2.71-2.43,2.17-.85.95-3.12,1.22-5.11-.65.5-.4,1.08-.52,1.46-.18.54.08,1.59-.68,1.46-.72-.12-.34-.96-.33-1.44.02-2.16-1.05.45-1.47-.9-.34-1.06-.49.58-.86.92-.39-.88-.52-2.02-1.58-1.9-1.07.12.02,1.64-.65,1.72-.34-.77-.65-1.56-1.01-2.29-.59-1.22-2.61-1.67-2.83-.52-.29,1.51-.85,1.05-1.36,1.03-.64-.02-1,.19-1.32,1.23-.54,1.78-.83,3.46-.17,5.26.73,1.99,1.6.23,2.42.27.93.05,1.96-.38,2.87.5-.22.63-.53.7-.81.84-.3.15-.21.47-.09.71.07.16.28.37.33.31,1.37-1.38,1.45-.35,1.26,1.52-.05.44.37.99.67,1.72h-3.3c-.24-.73,1.04-1.19.15-1.77-.78-.5-1.36-1.44-2.12-1.94-1.21-.79-2.09,0-2.01,1.8.1,2.66-.97,2.9-2.08,3.38-.28.12-.52.51-.68.4-.44-.86.45-1.94-.53-2.73,0,.96,0,1.71,0,2.46-.01,2.67.54,3.35,2.26,2.79.29-.09.59-.17.89-.21.42-.05.56.19.56.96.03,7.49.11,14.98.18,22.47.02,1.18-.2,2-1.04,2.14-.12.02-.22.18-.31.26.16.83.84-.01.95,1.05-.34.17-1.07-.03-.83,1,.34,1.43-.11,1.54-.76,1.31-.57-.2-.78.61-1.17.82-.51.27-.57.83-.51,1.47.06.74.49.68.83.69.7.02,1.4.02,2.09-.01.45-.02.81.07.8.96-.03,1.99.21,4-.13,6.08-.76-1.18-2.91-1.89-3.66-1.24-.41.34-.79.97-.78,1.65.04,4.22-.02,8.48.29,12.66.29,3.95.13,7.9.12,11.81-.01,1.79-.03,2.72,1.15,3.37-.74.27-1.46.45-1.29,1.81.38,3.03,0,6.05.04,9.04.03,1.69-.21,3.13-.35,4.69-.04.37.83.59.28,1.37-.35.51-.98.71-1.27.41-.87-.93-1.55.1-1.62.84-.11,1.22.86.72,1.28.86,1.76.59,2.27,2.17,1.3,4.54-.21.5.09,3.31.35,3.35.52.07.94.34,1.01.62.27,1.03-.49.97-.61,1.41-.44,1.62-1.31.99-1.98,1.04-1.08.06-1.5.7-1.5,2.41s.27,2.58,1.42,2.47c.3-.03.6.12.9.11,1.05-.03.54,1.4.72,2.09.16.64.44,2.1-.19,2.24-1.03.24-1.76,1.48-2.76,1.65-.6.11-1.15.35-1,1.53.12.86-.55,2.3.73,2.42.61.06.45,1.23.21,1.42-.58.46-.95.56-.29,1.65.36.61-.52.32-.58,1.02,1.3.4,2.33-.62,3.7-1.78-.92,2.48-2.27,2.34-3.42,2.67-.61.17-1.28-.22-1.93-.33-.3-.06-.64-.13-.76.43-.05.25.03.61.11.87.18.66.44.39.71.12.19-.18.44-.47.62.15-.08.83-.65.84-.97,1.29-.12.19-.35.89-.34.59.02-1.25-1.14-.78-.95-1.45.51-1.77-.41-1.74-.89-1.75-1.6-.02-3.12-1.33-4.88-.02-.64.47-2.22-.63-3.35-1.13-2.09-.92-4.27.03-6.41.11-1.11.04-1.09-.47-1.08-1.72.02-3.31.02-6.62,0-9.93-.01-.63.21-1.75-.43-1.71-1.37.08-1.68-1.21-2.13-2.87-.33-1.19-1-3.58-2.28-.99-.29.57-.6.3-.74-.44-.29-1.58.11-2.18,1.22-1.89.23.05.49-.2.74-.31-1.2-.5-.02-1.23-.07-1.85-.08-1.09.17-2.53-.19-3.21-.83-1.56-1.25-2.95-.55-4.85.13-.38.12-.98-.27-1.15-.11-.05-.31.09-.39.24-.44.83.15,5.29.8,5.94-1.2.89-1.38-.21-1.38-1.66-.01-3.39,0-6.78-.03-10.17-.01-1.26-.01-2.48.36-3.62-.59-.69-.34-1.71-.34-2.59-.05-7.09-.04-14.19-.09-21.29-.01-1.22.38-2.74-.71-3.46.45-.73-.35-1.03-.23-1.71.57-3.09.44-3.34-1.71-3.51.61-1.39.99-3.06,2.42-2.84,1.14.18.11,2.1,1,2.5.06-.96.28-1.53,1.04-1.53,1.11.01,1.69-1,1.63-2.87-.06-1.81-.02-3.62-.04-5.44,0-.52.08-1.13-.27-1.51-.4-.43-3.09.46-3.5,1.29-.71,1.46.01,2.48.63,3.35.55.77.05,1.45.03,2.15-.01.63-.42.49-.71.44-.7-.12-.49-.96-.55-1.62-.03-.34.3-.83-.13-1.06-.28.68.34,2.06-.44,2.09-.89.03-.59-1.46-.6-2.24-.03-2.59.08-5.19.13-7.79.01-.76.1-1.58-.25-2.53-.31,1.14-.14,2-.15,2.85,0,.49.26,1.24-.3,1.29-.49.04-.42-.7-.49-1.22-.14-1.01.31-2.46-.91-2.9.19,1.05-.16,1.9-.11,2.79.03.53.29,1.29-.09,1.45-.34.15-.79-.26-1.17-.53-.22-.15-.11-1.08-.57-.76-.43.31-.2.96-.23,1.48-.03.33.44.91-.17,1.02-.27-.28-.16-.72-.19-1.07-.12-1.49.63-3.52-1.06-4.04-.12-.04-.15-.75.05-.77,1.53-.17,1.22-2.24,1.16-3.4-.06-1.31.07-2.15.7-2.8,1.11-1.13,1.36-2.74,1.18-4.66-.42-.04-.58,1.07-.66.87-1.03-2.24-1.33-.07-1.78.72-.36.63-.73.39-1.1.28-.43-.12-.5-.66-.51-1.26-.02-.91.37-.97.8-1.02.31-.04.64-.22.7-.72s-.2-1.05-.48-1.04c-1.32.02-1.06-1.44-1.03-2.63.07-2.51-.05-5.02.07-7.54.04-.93.46-1.73.28-2.65-.67-3.57-.56-7.11.1-10.65.3-1.63.32-3.3-.15-4.86-.29-.97-.32-1.94-.34-2.98-.08-4.71.99-9.28.16-14.19-.51-3.01-.28-6.54.4-9.8.53-2.56-.57-4.46-1.75-5.82-1.07-1.22-2.28-.66-3.36.42-.68.67-.98,1.58-.81,2.8.14,1.01.36,1.65,1.24,1.34.34-.12.87.93.7,2.05-.21,1.39-.09,2.82.01,4.23.16,2.48-.07,4.8-.85,7.06-1.01,2.89-2.03,5.83-2.21,9.22-.09,1.77-.08,3.53.9,5.14-.3-6.63.22-10.17,1.97-12.32-.6,5.71.29,11.28-1.68,16.36-1.26,3.26-1.68,6.85-.64,10.74.81-2.22.46-4.49.62-6.64.04-.58.02-1.47.56-1.42.58.05.42.94.41,1.51-.02,1.1-.25,2.03.41,3.15.92,1.59-.6,4.04.47,5.86,0,.03-.04.11-.05.14-.35.52-.92-.03-1.17.57.25,1.43,1.57,3.12-.59,3.44-.44.07-.32.9-.31,1.41.04,1.01.1,2-.72,2.67.34.09.46.19.53.14.53-.36,1.17-1.62,1.59-.23.32,1.03.22,3-.48,3.3-.99.41-2.1-.74-2.93,1.54-.29.79-1.07.55-.93,2.28.05.68-.19,1.22-.48,1.29-.69.16.3-1.15-.36-1.17-.63,3.77-.18,4.51,2.2,3.92.33-.08,1.21-.67,1.32.55.4,4.3.3,8.65.22,12.97-.06,2.83.23,5.69-.15,8.59-.57-.51-.31-1.95-1.1-1.84-.57.08-.26.85-.35,1.3,1.02,0,1.18,1.72,1.15,2.36-.05,1.03-.95,1.09-1.6,1.06-.45-.02-.57-.48-.5-1.13.05-.59.28-.71.62-.71.28,0,.43,1.22.76.27.19-.56-.39-.77-.46-1.28-.02-.16-.03-.31-.05-.46-.66-.26-1.32-.93-2-.56-1.7.92.08-1.31-.51-1.35-.2-.02-.41-.13-.59-.06-.51.21-1.21.27-1.47.81-.69,1.42-1.13.41-1.73-.25.15,1.04.12,1.93-.48,2.75-.16-.88.01-1.94-.8-2.03-.95-.1-.11,1.57-.76,1.75-.18-.79.09-1.93-.84-2.11-.75-.15-.91.31-.99,1.29-.03.4-.32.59-.6.52-2.11-.54-4.23-.97-6.32-1.7-1.16-.4-2.25-1.49-3.3.24-.25-1.45-.49-2.83-.73-4.22-.66.41.26,1.46-.52,1.77-.46-1.25-.63-2.92-1.79-3.41-.52-.22-1.35.85-1.66-1.05-.09-.54-1.36.23-1.94,1.04-.18.24-.26.66-.38,1-.93-1.99-1.59.52-2.45.37-2.04-.34-3.09,1-3.71,4.2-.22,1.16-1.04,1.99-1.56,2.1-1,.23-.3-1.3-.49-1.88-.2-.63.17-1.85-.49-1.89-.72-.04-1.09.89-.99,1.94.2,2.35-.28,3.41-1.88,3.12-.52-.09-1.12.46-1.13,1.48,0,1.13.61.87,1.09.94.83.12,1.72.06,1.69,2.1-.06,5.13-.1,10.25-.01,15.37.03,2.13-.16,3.42-1.74,3.36-.38-.02-1.33-.48-1.14,1.05.12,1,.59,1.33,1.37,1.02.79-.32,1.53-.02,1.51,1.91-.08,7.07-.09,14.15-.07,21.23,0,1.65-.18,2.54-1.4,2.25-.48-.12-1.22-.45-1.43.68-.24,1.29.43,1.77,1.05,2.18-.06-1.48.59-.49.89-.56.36-.09.71.26.68.89-.02.77.24,1.66-.27,2.29.82,3.66.38,9.75-.78,10.84.51-1.42.44-1.21-.5-1.97-.86-.69-1.6-.3-2.39-.11-2.77.69-2.81.71-2.84,5.21-.02,1.62-.29,2.16-1.32,1.67-.35-.17-.71-.75-1.12-.29-.5.56-.51-.13-.5-.53.07-2.36.41-4.69.03-7.18.58.29.19,1.05.67,1.24.03-.55.05-1.07.08-1.59.21-3.19.26-3.42,1.4-6.62.02-.06.04-.2.03-.22-1.16-1.04.35-1.35.27-2.29-.21-2.56.82-3.44,2.33-3.34.56.03,1.16-.17,1.28-1.25.18-1.57.19-3.14-.1-4.69-.24-1.28-.9-1.09-1.48-.98-.69.13-.81.86-.63,2.07.35-1.86,1.02-1.04,1.56-1.22.06,1.45-.78,1.19-1.05,1.78.36.75,1.33-.45,1.23,1.22-.03.53-.18.98-.57.78-.63-.32-1.97-.32-1.82-.7.61-1.5-.81-3.27.57-4.39-.64-.5-1.11.45-1.61-.23,1.4-.83-.38-4.68,2.01-4.7-.69,0-.96-1.2-1.63-.84-.3.16-.43-.67-.37-.68,1.08-.16.48-1.97,1.26-3.06-.21,1.48-.8,2.86.21,3.24.83.31,1.35-.85,1.7-1.93.2-.62.18-1.45.43-1.99.94-2.05-1.15-4.82.66-6.61.13-.12.08-.26-.05-.35-1.43-.9-.59-2.86-.79-4.32-.18-1.33.12-2.06,1.09-2.04.54.02,1.36-.4.92-1.44-.49-1.13-.34-2.42-.71-3.42-.46-1.29,0-1.25.51-1.33.12-.76-1.99-.35-.35-1.91.23-.22.07-.95-.37-.76-.33.14-.52.09-.78-.32-.67-1.08-1.21-1.15-1.29.68-.03.55-.21.98-.54.94-.57-.07-.28-.84-.3-1.29-.08-1.27.58-2.48-.08-3.88.71.26.87,1.39,1.72,1.08-2.26-1.28-1.63-4.1-1.69-6.55v-.47c0-3.74,0-3.73-2.3-3.94-.39-.04-.79-.27-1.18-.28-1.69-.03-3.38-.01-5.3-.01.66.78,1.17.81,1.67.84,1.85.14,3.7.24,5.55.37.42.02.96-.26,1.03.84.14,2.51.19,5.04-.23,7.49-.31,1.84-.58,1.88-1.72.68-.35-.37-.74-.59-1.13-.48-.98.27-1.72-.16-2.16-2.25-.75,3.25-.69,5.99-.64,8.74.01.54.25,1.37-.41,1.42-.22.02-.44.65-.62.16-.17-.49-.09-1.08.12-1.57.15-.34.47-1.12.21-1.03-1.38.48-.32-1.04-.52-1.5-.45-1.05.31-2.49-.31-3.6-.34.08-.27,1.48-.47.89-.35-1.03-1.14-1.52-1.25-2.75-.1-1.14.26-2.12.72-3.35-1.4.04-1.89,1.33-2.26,2.59-.74.06-.23-1.36-.82-1.41-.44,1.13.49,3.16-.8,3.53-.81.24-1.69.8-2.68.1.68.74.38,2.05.52,2.36.7,1.55.23,2.88.19,4.43-.17,6.51-.16,13.03.07,19.55.04,1.11-.21,2.06-.92,2.52-.6.39-.65,1.3-.14,1.43,1.21.3.9,1.6.89,2.66-.01,5.68-.06,11.36-.09,17.04-.01,1.24-.11,2.51.43,3.67-.55.08-.67-.96-.78-.78-.67,1.1-1.91-.14-2.45,1.82-.32,1.13-1.09,2.01-1.57,3.21-.34.84-1.23,2.72-2.38.99-.35-.54-.9-.37-1.29-.16-1.34.69-1.93-.02-1.73-2.48-.57.7-.08,1.76-.73,2.22-.35-3.27,1.84-6.09.53-9.34-.01-.03.05-.17.08-.18,1.6-.56.37-2.47.81-3.57-.52-.4-.97,1.18-1.34-.04-.63-2.02.8.4.64-.71-.02-.14.03-.32.08-.45.31-.89-.02-1.47-.31-2.22-.52-1.35-.51.28-.82.3-1.22.1-2.54-2.58-2.55-5.25-.03-6.52.05-13.04.13-19.56.11-8.7,0-17.41-.01-26.11,0-.61-.13-1.31.26-1.76,1.19-1.38.78-3.33.58-5.01-.16-1.32-.9-2.4.23-3.61.36-.39-.23-.37-.44-.53-.77-.62-.23-1.8-.37-2.7,0-.05.13-.13.19-.19.44.18.18,1.21.67,1.35.19-.53.23-1.26.02-1.58-1.24-1.88-2.82-1.47-4.3-1.22-.85.14-.26,1.55-.41,2.35-.11.59-.21,1.27-.13,1.83.24,1.57-.66.77-.96,1.19-.14.19-.46-.67-.27-1.36.67-2.46.41-4.89.15-7.43-.22-2.23-.58-4.8.03-6.78,1.09-3.59-.16-6.01-1.14-8.7-.36-.98-1.01-1.03-1.58-1.02-.65,0-.34,1.14-.59,1.66-.64,1.33.46,2.44.27,3.92-.47-.34-.96-.23-.94-1.31.02-.81-.34-.57-.6-.34-.21.18-.51.06-.4.88.39,2.79-.03,5.63.04,8.45,0,.21-.08.43-.13.7-.2-.36-.37-.66-.58-1.03-.19,1.13.39,1.76.49,2.48.53,4.21-.18,8.51.25,12.73.09.98-.89,1.28-.52,1.58,1.27,1.01.31,2.36.25,3.36-.2,3.01.66,6.24-.69,9.05-.11.22-.02.81.09,1.14.69,2.14.64,4.41.52,6.71-.03.55-.21,1.37.42,1.46.57.07.65-.68.67-1.28.06-1.88.07-3.78.07-5.67.01-3.29,0-6.58,0-9.87.84.89.74,2.01.73,3.06-.03,4.14-.11,8.27-.13,12.41-.02,1.73-.85,2.71-1.89,2.08-.19-.11-.29-.78-.56-.25-.17.32-.18.81.06,1.06.66.69.04.75-.18,1.02h0s.01.02.01.02c.05.19.13.4.14.6.04.63.36,1.36-.19,1.83-.28.24-.59.28-.81-.17-.29-.63-.22-1.41-.09-2.03.17-.81.59-.53.94-.24-.36-.36-.72-.88-1.17-.43-.44.44-.47,1.25-.3,1.91.21.83.21,1.45-.42,1.52-.52.05-.78-.56-.81-1.38-.04-.84-.08-1.68-.14-3.06-.38,1.33-.06,2.34-.57,3.35-.44-1.51-1.51-2.04-1.64-3.79.13.92-.76.68-.62,1.35.45,2.15-.57,2.35-1.42,2.69-1.21.47-2.45.79-3.66,1.27-.16.07-.82-.2-.48.9.25.79.46.57.8.3.6-.49,1.22-1.31,1.88-1.08,1.03.36,1.99,1.18,3-.01.09,1.67.98.95,1.39.89,1.28-.17,2.48.39,3.72.54.75.09,1.01.81.92,1.95-.31,4.03.35,8.05.04,12.08-.17,2.23-.41,4.7-.29,6.65.18,2.99-.54,5.68-.41,8.52,0,.06-.28.15-.47.23.07.42.56.47.42,1.03-.16.59-.49.31-.76.18-.33-.16-.65-.35-.98-.53.23.83,1.07,1.54.65,2.43-.36.77-1.2.66-1.85.49-.33-.09-.69-.28-.96-.59-.73-.84-1.56-.8-2.38-1.08-1.65-.56-3.79.95-4.95-3.11.07,1.93-.06,2.61-1.2,2.26-1.68-.52-3.5-.06-5.14-.73-1.33-.54-3.42,1.19-3.95-3.42-.16,1.7.04,3.08-1.09,2.69-1.04-.36-1.87-.3-1.9,2.11-.02,1.33-.98.85-1.59.74-.05-.01-.09-.23-.13-.34.2-.67.95.22,1.01-.84-.32-.59-.91.1-1.16-.56.07-1,.9-.04.95-1.02-.33-.54-.95.22-1.18-.72.36-.77,1,0,1.35-.65-.27-.85-1.13.13-1.32-.99.48-.67,1.25.23,1.65-.85-.28-.9-1.13.09-1.33-.99.46-.74,1.18.1,1.63-.7-.47-.99-1.45.05-1.82-1.32.57-.13,1.09-.25,1.66-.38-.37-1.07-1.13-.16-1.51-1.33,1.18.34,1.64-.67,1.81-2.89.23,2.3.23,2.32,1.4,2.74.33.11.3.53.42.84.23.62.04,1.57.58,2.02.34-2.23.21-3.37-.67-4.8-.2-.34-.29-.58-.21-.98.16-.72.46-.49.84-.46.73.05,1.77.19,1.96-1.09.28-1.79.26-3.76.16-5.62-.05-1.04-1.18.03-1.43-1.22.22-.27.45-.56.7-.83.32-.35.57-.35,1.13-.06.06.03.19-.04.21-.12.39-1.32,1.86-.97,1.82-3.22-.73,1.64-1.92.85-2.76,1.79-.25.29-.75.57-.94.03-.31-.89.52-.76.67-1.36-1.02-1-2.17.32-3.27-.48,2.11-.27,1.44-2.59,1.49-4.25-.44-.45-.87.48-1.41-.22.53-.56,1.11-.61,1.57-.34.74.45,1.45-.37,2.18.02.06.03,1.19.04.75-1.05-.43-1.04-.01-1.58.15-2.33.31-1.4-.72-3.76-1.56-3.61.02.54,1.25.73.42,1.14-1.04.53-.55,1.27-.56,2.06-.01.44.07,1.03-.33,1.15-.16.05-.48-.1-.51-.28-.1-.47-.59-.8-.27-1.43.19-.36.42-.66.63-1,.35-.57.13-1.01-.16-1.38-.2-.25-.24-1.03-.64-.66-.19.17-.43.63-.41.91.33,4.02-.97.95-1.6.95.95.05.83-1.18,1-2-.87-.67-1.68-.23-2.58.78,0-2.14.07-4.01-.02-5.87-.09-1.81.21-2.72,1.45-2.14.93.43,1.48-.38,1.35-1.6-.19-1.79-.14-3.55-.04-5.55-.96,1.36-.55,3.18-1.01,4.78-.38-1.55.29-3.5-.13-3.91-1.33-1.27-.57-3.08-.79-4.59-.07-.46-.04-1.19.41-1.36.41-.17.61.28.78.83.13.45.33,1.26.72.76.37-.49.33-1.39-.19-1.7-.55-.33-.52-.97-.65-1.65-.23-1.23.75-2.92-.57-3.74-.04-.02-.03-.3-.02-.45.11-1.92-.31-3.7-.58-5.52-.23-1.6.93-3.13.06-4.76-.03-.06.04-.92.19-.96.69.03.4,1.81,1.08,1,.35-.43,0-1.84-.22-1.93-.5-.21-.41-.53-.26-.94.59-1.62,1.11-3.33,1.84-4.78.54-1.06.48-1.7.14-2.87-.48-1.64-1.35-2.63-1.92-3.81-.18.23-.36.68-.53.66-.95-.11-1.15-1.19-.99-2.38.24-1.63.31-3.18.19-4.89-.35-4.93,1.46-9.85.07-14.83.75-3.38-.38-7.08.75-10.45.37-1.09.22-2.52.01-3.73-.58-3.24-.5-6.48-.19-9.74.03-.38.16-.7.04-1.13-.71-2.51-3.04-3.53-4.5-1.95-2.02,2.19-2.93,7.87-1.79,11.66.6,1.99.85,3.82.12,5.92-.73,2.11-.86,4.46-.82,6.89.02,1.3.95,1.34.94,2.43-.03,2.26.09,4.5-.5,6.74-.65,2.48-1.11,5.24-.38,7.83.7,2.45.77,4.95.44,7.35-.29,2.08-.35,3.32,1.58,3.16-2.74,1.92-2.35-1.92-3.43-4.04.58,2.73-.83,1.22-1.02,2.34.51.2,1.08-.08,1.5.37-.22,1.63-.89,2.16-1.84,1.76-1.32-.55-.25-2.43-.76-3.7-.39,1.54-.2,3.4-1.45,3.96-.42.18-.34.96-.11,1.42.48.97.79,2.22,1.62,2.68-.09-.27-.2-.53-.27-.82-.11-.43-.65-.76-.23-1.31.37-.5.74-.1,1.03.36.3.49.5,1.16.98,1.3-.09-.5-.59-1.42-.01-1.38.77.04,1.96-.56,2.23,1.42.19,1.36.18,2.79.27,4.34-.66-.13-.78-1.49-1.42-1.47.34.84.72,1.65,1,2.52.28.85.33,1.67-.52,1.75.14,1.59.73,2.98.71,4.66-.09,5.88-.13,11.77-.21,17.65,0,.7.12,1.49-.39,2.39-.31-1.36-.67-2.34-.98-3.41-.54-1.88-.81-4.01-1.79-5.54-.05-2.49-1.07-4.42-1.55-6.66-.22-1.04-1.44-2.72.52-3.09-.29-.99-.56-1.96-.86-3-1.65,2.96-2.37,2.77-3.2-.59-.64-2.63-1.34-5.21-2.05-7.79-.15-.53-.28-.99-.13-1.55-.37-.44-.75-.87-1.12-1.31.5,2.49.99,5.03,1.86,7.26.83,2.14.98,4.62,1.73,6.83,1.34,3.93,2.37,8.12,3.46,12.25.38,1.42,1.39,2.78.47,4.57-.02.03.08.28.12.28,1.47-.34,1.12,1.85,1.5,2.88.59,1.6.39,3.73,1.41,5.17.68.96.81,2.64.66,3.85-.14,1.1-1.19-.11-1.75.52-.08.09-.13.22-.2.34h.01c-.74,1.18-.2,2.78-.5,4.11-.33,1.42-.01,2.32.99,2.32,1.07,0,.99.96,1.1,2.28.32,3.87-1.32,7.18-1.1,10.99.03.59-.25,1.54-1,1.26-.74-.28-.45-1.02-.37-1.65.05-.45.25-.86.29-1.31.07-.94-.08-1.85-.76-2.02-.71-.19-.72.68-.76,1.52-.04.75.27,1.72-.61,2.03-.76.27-.91,1.4-.92,2.56-.01,1.05.38,1.98.1,3.17-.15.64.04,2.12,1.04,1.71.56-.22.72.26.75,1,.03.78.05,1.56.07,2.34.14-.61.16-1.23.19-1.84.02-.55-.01-1.21.54-1.05.53.15.4.73.27,1.27-.24.93-.29,1.85-.1,2.91.79-.7.1-1.94.76-2.63.39,1.8.45,3.5.2,5.3-.84-.44.16-1.59-.71-2.13.1,1.55-.17,2.59-1.26,1.65-.03,0-.24.32-.25.5-.07,1.29-.67.63-1.02.63-.52-.01-.6-.71-.6-1.38,0-1.73,0-3.46,0-5.19-.18,1.79-.2,3.59-.18,5.38.02,1.12-.18,1.67-1,1.69-2.36.07-4.72.14-7.07.51-1.52.24-2.29-.82-2.78-2.81-.14-.59-.29-1.18-.37-1.79-.09-.63-.3-1.18-.68-1.01-1.5.66-1.57-1.42-2.21-2.56-.69-1.26-.38-2.4-.12-3.65.04.88.07,1.76.11,2.64.64-1.69,1.72-1.31,2.59-1.71,1.03-.48,1.47-1.47.63-2.83-.32-.51-.02-1.24-.48-1.56-.18.7-.05,2.04-.81,1.73-.69-.28-.13-1.09-.03-1.7.08-.49-.26-.64-.47-.73-1.59-.69-.55-2.4-.57-3.67-.02-1.61.82-1.16,1.32-1.09,1.5.22,2.17-.63,1.86-3.07-.06-.49,0-1.02,0-1.52-.19.59,0,1.24-.29,1.74-.18.31-.45.37-.7.22-.17-.11-.38-.21-.34-.64.15-1.61-.21-2.66-1.33-2.59-.6.03-.53-.4-.62-1.11-.46-3.79.6-7.52.14-11.31-.08-.69.05-1.21.64-1.2.39.01.78-.19,1.17-.34.51-.21.91-.53.9-1.58-.02-1.09-.56-.93-.94-1.13-.83-.43-1.81-.22-2.49-1.59.94-.34,1.05-1.47,1.18-2.76.11-1.19-.15-2.32-.13-3.59,1.17,1.02,2.65.43,2.79-1.14.27-2.94.88-5.83.68-8.86-.04-.57.11-1.73-.3-1.51-.38.2-1.12.68-1.1,1.77.01.93.07,1.88.6,2.53-.9.39-1.92.09-1.75-1.43.28-2.46-1.05-4.7-.19-7.1.03-.09.07-.51-.16-.43-.42.34-.07,1.31-.57,1.53-.98-1.68,1.06-4.62-.99-5.87.5-.36,1.45,0,1.36-1.48-.09-1.45-.88-1.28-1.52-1.03-.88.36-.71-.64-.7-1.63-.45,1.33-.91,2.13-1.32.43-.21-.9-.57-.64-.91-.78-1.1-.48-.11-2.16-.68-2.97-.15-.22-.07-.62.15-.77.61-.39.76.41,1.03.95.09.18.24.64.44.17.65-1.56,1.43-.11,2.14-.28.42-.1.87,1.18,1.15.22.27-.94-.25-1.85-.76-2.32-.42-.37-.97-.58-1.44-.52-1.42.19-2.62-.21-3.21-2.28-.7.43-.15,2.68-1.12,2.05-1.57-1.01-2.15.21-2.71,2.15.08-1.72-.11-3.24-.56-4.77-.66,1.7-1.04,3.91-2.63,3.49-1.95-.53-2.6.28-2.63,3.45-.02,1.79.41,3.58.02,5.37-.1.44.18,1.38-.39,1.22-.57-.16-.39-.85-.11-1.4.23-.44.06-.81-.19-.9-.39-.13-.35.42-.31.76.13,1.31-.9,3.29.84,3.73.1.02.19.52.2.81.07,1.64.33,3.37-.09,4.9-.27.99-.16,1.03.39,1.4,1.35.93,1.71,3.56.71,4.69-.32.36-.72.78-1.06.12-.27-.54-.26-1.26.16-1.63.34-.3.8-.29.03-.73-.25-.14-.39-.8-.7-1.51v1.77c.01,1.81-.62,4.14,1.45,4.26.36.02.38.67.37,1.13-.06,4.22-.12,8.44-.2,12.66-.02.92-.12,1.55-.95,1.32-.99-.27-1.15.72-.9,1.97.27.12.27-.08.34-.29.16-.49.42-.97.82-.74.36.22.2.83.18,1.25-.03.92-.5.44-.79.57-1.25.55-1.01-1.38-1.42-2.28-.46.78-.49,2.47-1.37,1.74-.55-.45.18-1.09.29-1.75-.51-.12-1.02-.25-1.56-.39.46-1.74,1.39-.72,2.1-1.24-.21-.24-.36-.56-.51-.56-1.63,0-1.56-1.68-1.51-3.51.12-5.05.17-10.1.28-15.14.17-8.2.36-16.39.54-24.59.02-1.12.1-2.02,1.04-2.04,1.45-.03,2.9-.13,4.35-.3.82-.1,1.04.42,1.02,1.62-.02,1.17-.16,2.4.24,4.21.58-2.51.29-4.45.3-6.33,0-.81-.51-.5-.83-.57-1.56-.33-3.06.58-4.61.61-1.15.02-1.57-.38-1.51-2.32.14-4.06.07-8.13.16-12.2.17-8.21.4-16.42.58-24.63.02-.81.61-1.33.22-2.39-.44-1.17.02-1.95.88-1.9,1.42.07,2.68-.94,4.03-1.3.48-.12.83-.77.5-1.3-.42-.68-.93-1.07-.3-2.04-.32-.29-.2-2.42-1.06-.56-.31.65-.93.25-1.41-.05-.11-.07-.25-.03-.37-.04-.17.74.64.64.37,1.48-.53-.26-1.4.11-1.59-.73-.29-1.35-.65-3.55-.23-4.23,1.1-1.77-.44-3.2.16-4.68-.52,1.08-.11,2.53-.76,3.55-.09-1.34-.31-3.48.28-3.74,1.42-.63.94-2.05.96-3.3.04-1.71-.05-3.4.15-5.14.19-1.57.39-3.79-.14-4.78-.9-1.71-.64-2.95-.23-4.55.33-1.27.35-2.64.13-3.96-.99-5.91-.49-11.73.48-17.5.21-1.26.22-2.44,0-3.71-.75-4.5-.51-9.07-.11-13.57.13-1.54.28-3.62,1.58-4.23,1.47-.68,1.7-2.08,1.2-4.14-.22-.94-.17-.97-.66-.42-.64.72-1.96-.03-1.86-1.14.34-3.69-.38-7.44.31-11.09.1-.55.15-.93-.17-1.45-2.38-3.78-4.55-4.03-7.34-.75-.44.51-.43.88-.42,1.86.05,2.35.84,4.92-.4,7.41.04-1.19.06-2.12.1-3.05.02-.44-.09-.96-.33-.9-.58.17-.28,2.01-1.2,1.69-.01.54-.13,1.44,0,1.55,1.1.89.68,2.66,1.01,3.97.32,1.24-.18,1.48-.79,1.59.01-.01.01-.03.02-.04l-.03.04c-.31.61-.85,1.02-1.06.25-.68-2.52-.56.48-.87.26-.1,1.31-.03,2.51.8,3.29.79.75,1.58,1.43,2.57,1.49-.31,1.23-.57,2.25-.81,3.28-.7,2.93-.92,5.88-.68,9.05.1,1.36,1.13,1.01,1.04,2.4-.18,3.16.08,6.31-.97,9.37-.92,2.67-.82,5.81-.56,8.82.06.68.18,1.83.41,1.92.88.37.52,1.33.33,1.79-.45,1.1-.09,2.08-.1,3.08.56.28.64-.84,1.39-.92-1,1.45-.83,4.17-2.28,3.97-.95-.12-2.5.45-2.65-2.31-1.16,2.36-2.46.66-3.52.15-1.34-.64-.68-2.83-.83-4.54-.4.5-.86.87-.77,1.73.13,1.36.13,1.05-.71,1.1-1.2.06-.18-1.6-.75-1.88-.5.28.25,1.45-.55,1.59-.21-.86-.05-2.56-1.25-1.83-.2.12-.59-.19-.46-.66.62-2.07-.53-1.2-.84-1.11-.68.2-1.39.53-1.76,1.63.42.65,1.2-1.4,1.52.51-1.06.24-2.02.99-3.12.6-2.3-.82-4.63-1.46-6.92-2.33-1.34-.5-1.66.3-1.62,2.22.03,1.82.2,3.73-.51,5.52-.11-.28-.21-.42-.2-.53.31-2.97.31-2.96-1.4-2-.43.23-.87.4-1.29.64-.32.18-.95-.05-.7,1.01.14.59.13,1.48.76,1.53.31.02.67-.5.81-.09.24,1.82-1.04.36-1.01,1.63.09.27.18.54.27.81.7.87,1.31-.11,1.95-.26.72-.17,1.13-.26,1.08,1.22-.29,8.5-.55,17.01-.84,25.51,0,.25.13.96-.26.7-.27-.18-.44-1.03-.65-.01-.09.42-.1,1.19.18,1.28,1.27.39.57,1.74.71,2.81-.53-.23-.14-1.43-.77-1.32-.46.4.09,1.42-.34,1.9-.7-.77-.06-2.11-.7-2.91-.38.32-.83.55-1.14,1.02-.26.41.23,1.37-.43,1.81.13-.83.02-1.63.33-2.34.11-.25.34-.64-.03-.94-.56-.46-2.41.98-2.28,1.92.41,3.04-1.2,3.06-2.14,3.12-.75.05-1.42.29-2.43.97.59-1.2.65-2.18.41-2.83-.3-.82-.8.58-1.3.21.16-4.01.45-7.94.43-11.86-.04-6.31.48-12.57.58-18.87.01-.84-.09-1.9.73-1.91.68-.01,1.43-1.1,1.97-.16.34.58-.21,1.58-.4,2.37-.17.74-.43,1.42-.61,2.15-.54,2.15-1.31,4.17-1.45,6.56,1.01-2.94,1.96-5.93,2.67-9.06.47-2.1,1.27-3.2,2.59-3.63.33-.11.96.31.93-.66-.01-.73-.15-1.89-.67-1.91-.88-.03-.64-1.27-1.04-2.19-.43,1.75-1.04,1.62-1.83,1.12-2.38-1.49-3.17-.71-3.3,3.17-.14,4.09-.25,8.19-.38,12.28-.27,8.88-.55,17.76-.83,26.54-.33.35-.41-.08-.57-.16-.48-.24-1.1-.45-1.24.49-.11.82.35,1.16.91.96.24-.09.47.06.55.56.52,3.21-.03,6.43.05,9.65.03,1.16-.69.99-.86,1.5-.19.61-.65,1.55.01,2.3l.13.09c.69.36.44,1.31.43,2-.05,2.66,0,5.33-.23,8-.12,1.31-.07,2.31-1.17,2.21-.27-.03-.83-.01-.62.87.13.58.38.94.93.71.34-.15.47-.84.6-.79,0,4.38.01,8.62,0,12.85,0,1.58.01,3.23-1.51,2.85-.59-.14-.57.52-.43,1.03.12.45.15,1.41.78.76.28-.29.57-.7.99-.41.18,4.98-.34,9.93-.35,14.92,0,.64-.19.58-.42.61-.74.1-1.47.2-2.54.35,1.05.77,1.35,2.49,2.5,1.95.36-.17.45.48.42.98-.05,1.19-.12,2.37-.21,4.21-1.18-2.61-2.07-4.61-2.97-6.61-.1.11-.2.21-.3.32.84,1.91,1.57,3.94,2.52,5.69,1.23,2.25.95,4.77.58,7.14-.17,1.12-.41,2.36-.73,3.49-.12.44.13,1.21-.44,1.23-.68.02-.49-.94-.65-1.83-.02,1.83-.62,3.95,1.34,3.28.67-.23.54.66.52,1.25-.15,5.08-.32,10.18-.48,15.26-1.04,1.22-2.37,1.03-3.69,1.5.59,1.33,1.05,2.36,1.51,3.39,1.18,2.65,2.62,5,2.06,8.84-.19,1.37-.29,1.72-1.07,1.6-1.96-.29-3.91-.57-5.87-.86v1.62c.77.22,1.55.05,2.29.33,1.15.43,2.56.62,3.88.59.22,0,.57-.66.64.29.04.58-.14.9-.46,1.02-.37.14-.76.58-1.11-.04-.13-.22-.26-.19-.3.07-.03.19.04.42.06.64.99-.44.72,2.51,1.84,1.72-.68.54-1.41,0-1.91.96.19.52.52-.01.67.25.32.54,1.31-.88,1.13.88-.16,1.57-.87.24-1.31.42-.89.38-.84-1.56-1.56-1.78-.26.74.4,1.08.21,1.86-.4,0-.92.25-1.26-.05-.82-.7-1.19.08-1.6.88-.31.58-.5,1.62-1.11,1.26-.04-.02-.07-.05-.1-.08v67.45h68.99c3.61,0,7.22-.08,10.83.04,1.2.04,1.72-.35,1.63-2.42-.12-2.74-.06-5.51-.03-8.27.01-.77-.22-1.77.43-2.21,0,2.74.18,5.51-.04,8.19-.33,4.11-.15,4.67,2.41,4.67h22.81c18.21,0,36.41-.01,54.62.03.85,0,1.51-.26,2.12-1.79-.44,1.93.27,1.9.81,1.72,1.14-.38,2.25.06,3.37.05,23.1-.02,46.2,0,69.3,0,12.64,0,25.27-.04,37.91.04,1.42.01,2.22-.33,1.96-2.87-.03-.38-.05-.99.42-.95q.12,3.78,2.56,3.78c27.38,0,54.76-.01,82.15,0,5.11,0,10.22.07,15.34.11v-18.46c-1.4-.38-2.75-1.48-4.22-.45-.74.53-.78-.47-.66-1.05.36-1.78-.11-3.42-.24-5.11-.14-1.75.32-2.68,1.38-2.37Zm-117.03-150.51c-.31.28.12,1.25-.48,1.17-.22-.15-.54-.2-.52-.67.02-.51.11-1.24.44-1.32.44-.11,1.18-.35,1.29.48.2,1.63-.47.12-.73.34Zm-160.26,75.66c.6,1.37,1.45,1.24,2.27,1.28.32.02.73-.17.92.45.16.52-.12.88-.32,1.2-.33.53-.82.52-1.06.03-.48-.98-.86-.52-1.48-.47-1.07.08-.08-1.61-.33-2.49Zm.04-29.75c.07,2.38.28,4.78-.26,7.09-.07-2.38-.26-4.77.26-7.09Zm-41.76-89.34c.17.02.34.04.51.06.04,2.67-.22,5.3-.46,7.94-.12-.01-.25-.03-.38-.04.11-2.66.22-5.31.33-7.96Zm-40.24-8.97c-2.38,1.74-2.52,1.7-3.1-.97,1.05.33,2.04.64,3.1.97Zm-7.66,145.44c-1.26-2.09-2.03-4.14-2.93-6.24,2.43-.33,3.1,1.04,2.93,6.24Zm-4.53,24.41c.13-1.27,1.12-2.63-.48-3.07-.5-.14-.35-.85-.24-1.35.15-.74.47-1.2,1.01-1.11.46.07.37.3.34.99-.06,1.07.75.85,1.2,1.21.72.56,2.05-.8,2.17,1.64.12,2.39-.21,2.87-2.27,2.97-.7.04-1.39-.2-2.09-.32-.25-.04-.56-.09-.54-.59.02-.52-.15-1.14.18-1.55.11-.13.3-.26.4-.19.4.24-.14.84.32,1.37Zm1.92,6.74q-1.8-.37-1.72-2.09c.21.72.3,1.03.39,1.35.32-.72.68-1.41.95-2.17.08-.24-.17-.51-.38-.56-.45-.08-.88-.12-1.29.33-.32.34-.74.33-.81-.39-.06-.69.38-.52.65-.56,2.14-.35,2.97.66,2.53,3.12-.06.3.3,1.1-.32.97Zm2.03-.47c-.04.56-.22,1.06-.64,1.09-.58.04-.45-.62-.44-1.15,0-.38,0-.76.04-1.14.07-.79-.43-2.09.6-2.09,1.13,0-.28,1.62.53,1.91-.64.49-.05.95-.09,1.38Zm24.47-171.82c.51.85.86,2.06,1.8,1.72.01-.02.01-.03.01-.05t.01-.02c-.36-1.55-1.27-2.44-2.06-3.92,1.2.24,2.41,0,3.1,1.29.31.56-.39,1.98-1.04,2.63,0,.02.02.04.02.06-.01.01-.03.01-.04.01-.2,1.67-1.03,2.74-1.58,4.15-.25-.45.27-1.28-.54-1.44-1.12-.21-1.77-4.19-.91-5.35.58-.78.9.37,1.23.92Zm-5.21,5.81c1.31-.32,1.83,1.15,1.65,3.28-.83.19-1.56-2.13-2.35.31.23-1.48-.37-3.33.7-3.59Zm-3.49-.79c.06-1.58.01-3.15.2-4.71.11-.9.34-1.58.95-1.45.52.11,1.88-1.89,1.25,1.66-.38,2.19-.22,5.13-.26,7.73-.01.6.45,1.65-.4,1.43-.62-.16-1.64.47-1.73-1.36-.05-1.1-.01-2.2-.01-3.3Zm.6,6.82c1.19-.19,1.55.54,1.52,2.5.27,1.83-.68,2.5-1.62,2.72-.61.15-.94-1.03-.7-1.87.33-1.11-.62-3.12.8-3.35Zm-1.94,20.68v5.46c-.14,0-.29-.01-.43-.01.07-1.84-.17-3.68.43-5.45Zm-4.16-2.83c.7-.16.75.37.76.97.01.97-.15,1.65-.87,1.81-.53.12-.82-.24-.79-.95.03-1,.5-1.57.9-1.83Zm-6.95,19.11c.66-1.71-.11-3.45.1-5.17.14-1.15.04-2.37.18-3.52.08-.7-.17-2.74,1-1.04.11.16.29.2.23-.15-.46-2.62.78-1,1.16-1.03.63-.04,1.27.43,1.91.51.92.12,1.45.73,1.58,2.22.11,1.24.42,1.76,1.17.72.77-1.09,2.09-.8,2.78.67.23-.84.44-1.6.82-2.97v9.28c-.69-1.03-1.31-1.6-1.35-2.56-.03-.83-.08-1.64-.58-1.46-.58.2-1.26.55-1.5,1.77-.16.86.44,2.9-.64,2.37-1.09-.54.37-1.7.29-2.75-.03-.38.23-.84.07-1.35-.94.07-.56,1.87-1.11,2.22-.42.25-.68,2.58-1.41.45-.12,1.1-.43,2.23-1.08,2.45-.34.12-1.04,1.46-1.44-.26-.15-.62-.44.03-.52.48-.27,1.51-.9.16-1.35.34-.47.19-.46-.83-.31-1.22Zm7.1,6.34c1.2.33,2.77,3.26,2.68,4.8-.04.73-.53.46-.62.38-.37-.36-.66-.83-1.16-.89-.45-.06-.48-.72-.27-1.28.26-.66.48-.18.7.12.17.24.35.48.53.72-.36-1.62-.98-2.77-1.86-3.85Zm-2.68,4.69c.34-.3.24-.82.25-1.24.03-1.04.11-2.17.89-2.24,1.72-.15,1.74-.06,1.77,2.21.01,1.36,0,2.72-.16,4.26.04-2.38-.67-2.67-1.87-2.27-1.17.39-2.38.46-3.83.71.96-1.27,1.76-2.33,2.49-3.3.76.47-.08,1.45.46,1.87Zm-4.62-1.64c.05-4.27.05-4.31,2.66-3.93.42.06.71-.34,1.09-.3-.33,1.15-1.12,1.76-1.29,3.03.82-.74,1.21-2.73,2.64-2.1-.82,1.84-1.79,3.18-2.97,4.15-.58,1.15-1.45-.51-2.14,1.02,0-.96,0-1.42.01-1.87Zm-1.28,43.61c.96-.42,1.04,1.42,1.75,1.11.01-.04.03-.09.05-.13l.03.03c-.13-.56-.27-1.11-.38-1.68-.12-.65-.65-1.61.23-1.75.53-.09,1.39-.38,1.43,1.25.01.46.07.95.02,1.39-.1.77.33,1.93-.33,2.24-.56.26-.55-1.07-.97-1.45,0,.02,0,.03,0,.05-.03.02-.06.04-.09.05-.68,1.55.48,2.51.74,3.57.55,2.21.31,4.29.47,6.37-.65.31-.27-1.05-.77-.82-.62,1.24.85,2.15.22,3.41-.69,1.36-1.69.11-2.44.91.73-1.25.96-2.5.4-3.88-.57-1.4-.65-2.67.11-3.93.1-.15.23-.52.23-.56-1.59-1.84.1-4.26-.71-6.18Zm.82-5.57c.65-.55,1.02-3.55,2.21-.45-.86.18-1.53.31-2.21.45Zm-1.89,37c.85.34,1.54.06,2.02-1.21.14-.38.38-.61.6-.28.19.29.61.24.6.87,0,.37.09.97-.17,1.02-.96.19-1.94.26-2.91.31-.04,0-.1-.42-.14-.71Zm1.51,20.37c-.24-.77-.11-1.71.06-2.53.03-.16.33-.26.51-.26.21,0,.42.26.27.6-.45,1,.17,1.61.39,2.42-.49.2-.99.54-1.23-.23Zm.38-4.6c-.31-.19-.69-.11-1.04-.19-.23-.06-.62-.17-.51-.62.74-2.91-.46-5.97.38-9.17,1.06,2.71,1.92,5.26,2.27,8.16.19,1.48.21,2.58-1.1,1.82Zm1.23-6.76c-.76-1.26-1.05-2.61-1.45-3.86-.32-1.02-.11-1.83.53-1.98.57-.15,1.25.12,1.23,1.45-.02,1.4.14,2.84-.31,4.39Zm.7-22.99c-.68,3.48-1.02,7.17-2.36,10.27-.13.3-.28.57-.59,1.17,0-4.49-.12-8.53.05-12.54.07-1.78,1.26-1.02,1.97-1.01.83.01,1.14,1,.93,2.11Zm.12,13.49v-6.42c.15.01.29.02.43.03-.47,2.07,1.38,4.33-.43,6.39Zm2.88-2.93c.25.82,0,1.67-.78,1.7-.85.03-.56-1.08-.5-1.51.37-3.04-.61-6.51,1.08-9.15.25-.38.39-1.38.86-.9.42.42,1.15.53,1.02,1.88-.1,1.15-.02,2.34-.02,3.81-.66-.85-.1-2.24-.84-2.17-.58.05-.69,1.03-.84,1.92-.25,1.51-.47,2.88.02,4.42Zm-.78-28.18c-.2-1.16.18-1.81,1.06-1.42.85-.21,1.64.7,2.55.5.66-.14.59.58.4,1.22-.96,3.23-1.91,6.46-2.9,9.66-.38,1.22-.85.92-1.15-.1-.16-.54-.22-1.23-.18-1.82.2-2.67.7-5.29.22-8.04Zm3.54-18.52c.39-.89.99.04,1.51-.01.31-.03.56,2.45.33,2.98-.18.41-.33.85-.57,1.47-.32-.87-.63-1.57-.84-2.34-.19-.68-.75-1.38-.43-2.1Zm-.09-2.41c.63-.94.58-2.73,1.64-2.17.57.3.36,1.48.18,2.03-.47,1.38-1.07.02-1.82.14Zm2.34,34.82c.09.67.16,1.34-.17,2.21-.42-1.31-1.25-.81-1.88-1.27-.29-.21-.76.19-.89-.51-.06-.31.12-.92.37-.8.47.23,1.16-1.04,1.28.02.27,2.51.89.05,1.29.35Zm-3.25,35.56c-.25.43-.57.79-.9.38-.31-.38-.07-.81.14-1.16.23-.38.26-.9.17-1.33-.59-3.14,1.19-4.83,1.8-7.27-.11,3.24.36,6.62-1.21,9.38Zm-.25-12.74c.1-1.11.46-.94.92-.75.58.23.5.75.28,1.39-.34,1-.66,2.02-1.06,3.27-.34-1.49-.25-2.68-.14-3.91Zm.74-6.52c-.49-.35-.96-4.1-.62-4.74.1-.18.35-.25.53-.24.4.01.7.44.7,1-.01.9.37,1.66.39,2.55.03-.81.05-1.6.08-2.4.11-.01.22-.01.34-.01v2.8c-.01,1.88-.74,1.52-1.42,1.04Zm1.24-8.3c-.9-1.73-1.28-3.36-1.67-5.04,1.93-.21,2.13-1.18,1.67,5.04Zm-.88-10.68c.63.46.81-.75,1.21-.29.09.12.1.63.03.88-.21.74-.85.68-1.04.51-1.03-.92-1.12.4-1.4,1.69-.51-1.07-.9-1.64-.6-2.65.94-3.15,1.85-6.32,2.91-9.43.3,3.29.9,6.62-1.11,9.29Zm.3,50.17c-.79-2.44-1.57-4.89-2.35-7.32,3.27.53,1.95,4.55,2.35,7.32Zm.77,16.57c-.12,0-.25.13-.39.21-.19-.69.06-.83.37-.99.31-.16.95.35.83-.76-.08-.75-.45-1.12-.98-1.18-.47-.05-.98.34-1.65-.4,1.06-.31,2.12.48,2.68-1.22.09-.25.64.24.61.29-.71,1.16.49,4.05-1.47,4.05Zm1.84-85.65c-.14.01-.27.02-.41.03.21-2.47-.78-4.98.41-7.75v7.72Zm.19-10.23c-.74-1.79-.5-3.52,0-5.85v5.85Zm-2.75-6.36c-.27-.29-.28.45-.4.71-1.01,2.11-1.14,2.11-2.31.03-.1-.17-.24-.26-.49-.53.22,2.33,1.18,4.22,1.98,5.27.96,1.27.55,2.39.55,3.46.01.93-.22,1.25.6,1.34.59.07.69,1.36.73,2.3,1.63.8.7,2.57.64,4.02-.38-1.05.04-2.64-.96-3.23-1.36,1.67-.82-.51-1.01-1.26-.12.76.2,2.08-.84,1.6-.64-.3-1.27-.21-1.93-.08-.87.17-1.87-.06-1.27,2.22.17.62-.15,1.2-.51,1.55-.26.27-.58.08-.63-.27-.09-.66-.48-1.24-.03-2.1,1.28-2.49,2.4-5.19,3.7-7.64.47-.89.53-1.41.22-2.41-.34-1.09-.71-1.6-1.44-1.07v.08s-.03.02-.05.03c-.01.24-.02.46-.02.7.01-.01.03-.01.04-.02-.01.02-.01.05-.02.07.84-.11,1.44.07.75,1.69-1.18,2.72-2.37,5.43-3.79,7.93,1.01-3.21,2.03-6.41,3.04-9.62h-.02v-.05c-1.49.68-1.59,3.09-2.23,4.75-.81,2.11-1.23,4.6-2.37,6.68,0-3.88-.03-7.56.02-11.25.02-1.22.72-.82,1.17-.8,1.14.05,2.3.67,3.43-.08v-.08s.03-.02.05-.03c-.04-.59-.04-1.21-.15-1.76-.1-.42-.4-.82-.72-.51-1.07,1.04-1.18.03-.98-1.22.08-.54.25-1.01-.14-1.17-.39-.16-.48.73-.46.94.07.81.48,1.59.14,2.42-.36.85-.83-.81-1.24.07-.12.26-.29.42-.57.19,0-1.47.44-3.08-.39-4.47-.18-.29-.19-1.35-.02-1.57.9-1.17.12-2.41.15-3.59.06-3.67,1.27-5.25,3.63-4.66.59.15,1.34-.06,1.75.43.72.87,1.25,1.78,1.98.16.38,1.01,1.05,1.75,1.23,2.97.24-.75.48-1.51,1.2-1.78.05,3.06-.91,6.32.95,9.2-1.13-.45-1.85,1.62-2.96.44Zm2.78-2.83c-.68-1.68-.21-3.35.05-5.03.33,1.69.31,3.37-.05,5.03Zm.58-15.23c-.13.01-.25.02-.38.04-.13-1.13-.25-2.27-.39-3.4-.06-.43-.07-.78.29-.82.3-.03.47.25.48.7.01,1.16,0,2.32,0,3.48Zm.23,16.58c-.13-1.16-.33-2.17.08-3.14.04-.07.53-.35.64.12.27,1.18.01,2.14-.72,3.02Zm1.78-53.03c-.41,1.26-.2,3.01-.27,4.55-.72-2.42-.08-4.77-.19-7.18,1.19-.41,2.08.85,3.12,1.06-.79,1.03-2.21.18-2.66,1.57Zm2.05,52.66c.05.26-.19.51-.42.43-.39-.13-.7-.56-.59-1.15.34-1.76-.2-3.74.58-5.37-.71-1.08-.05-2.17-.02-3.26.09-3.5.2-7,.27-10.5,0-.44-.05-.79.3-.81.24-.01.33.28.33.62-.01,4.67.16,9.37-.83,13.89,1.02,1.9-.01,4.13.38,6.15Zm-.27,7.73c-.05,1.57-.1,2.97-.16,4.45-.98-1.22-.94-2.97.16-4.45Zm-1.12,25.85c.46-2.61-.18-5.42.54-8.01-.13,2.65.61,5.55-.54,8.01Zm1.04,30.13c.07-.57.54-.58.74-.42.88.76.05,2.03.54,3.37-1.18-.7-1.45-1.68-1.28-2.95Zm1.19-15.41c-.41.39-.31-.87-.85-.82-.3,1.85.35,3.79-.46,5.53.26-2.44-.29-4.81-.13-7.19.07-1.03.97-.02,1.43-.79.16-.28.23.83.24,1.3,0,.68.21,1.56-.23,1.97Zm.61-21.45c0,2.35,0,4.7,0,7.05-.1.05-.2.09-.31.14-.22-.58-.44-1.16-.68-1.78-.38,1.98-.35,2.98.18,5.56-.61-.12-1.06-.36-1.05-1.5.03-4.82.11-9.63.41-14.7.53.83.39,1.63.39,2.36s-.19,1.61.64,1.62c.52.01.41.74.42,1.25Zm-.11-15.9c-.83.47-.93,5.31-.16,6.04.35.33.25.67.08.88-.33.39-.73.65-.97.86v-14.44c.14,0,.29.01.43.01v4.42c.41.73.77-1.48,1.03.17.13.77.46,1.58-.41,2.06Zm.96-29.41c-1.06.09-.87,1.27-.84,2.21.08,2.71-.35,5.39.06,8.18.16,1.04,1.17,1.11.78,2.63-.33,1.32-.19,2.94-.28,4.81-.33-.44-.54-.71-.77-1.02-.25.67-.19,1.27-.06,1.85.11.5.44,1.09-.22,1.15-.49.04-.51-.55-.49-1.15.17-6.51.31-13.02.54-19.52.04-.97-.24-2.06.24-3.03.47.84-.2,2.94,1.24,2.73.21-.03.26,1.12-.2,1.16Zm-1.19-14.57c.57.51,1.12.49,1.42,1.22-.16.91-.91.37-1.04,1.46.57.13,1.34.16,1.05,1.72-.1.59.29,1.56-.47,1.53-.63-.02-.73-.63-.39-1.42-1.37-1.08-.33-2.82-.57-4.51Zm2.43-19.07c-.18.9-.73,1.6-.5,2.76.19.99.15,2.14-.47,2.75-.56.55-.96-.59-1.49-.72-.28-.06-.63-.39-.26-.9.49-.69.12-.95-.17-1.34-.73-1.01-.04-2.31-.23-3.49-.09-.54.61-.54,1-.59.82-.1,1.52.69,2.31.86.1.02.27.34.26.51-.03.85-.43.02-.45.16Zm-1.21-20.25c-.21-.65-.54-1.21-.83-1.8-.02.02-.04.03-.06.03-.38,1.51.6,2.39.77,3.69-1.07-.54-1.75-2.45-1.35-3.97.16-.61.34.32.58.28,0-.03.01-.07.02-.1.01.02.02.05.04.07h.01c-.02-.16-.05-.32-.05-.47-.02-.98-.98-2.04-.1-2.87.59-.56,1.51-1.18,2.11-.41.73.92.89,2.47.45,3.88-.33,1.02-.65,1.9.38,2.38-.88.91-1.5.73-1.97-.71Zm-1.05-8.73c.78-1.73,1.69-2.89,3.11-1.79.26.2.61.19.65.77.05.57-.26.77-.51,1-1.07.96-2.13,1.12-3.25.02Zm5.27,119.94c.09-1.57.22-2.89.22-4.21,0-1.14.39-1.26.95-1.26s.9.09.99,1.22c.18,2.48-.62,3.59-2.16,4.25Zm1.04-52.15c.17,5.33.2,10.66-.31,15.95-.27-5.34-.21-10.66.31-15.95Zm3.33-32.4c-.7-.33-.69-.33-.54-1.25.04-.2.03-.52-.05-.63-.08-.11-.34-.11-.4,0-.72,1.31-1.32.43-1.99-.37-.19,1.35-.12,2.94-.6,3.72-.48.78-1.37,1.54-2.28,1.1-.05-.76.61-.35.58-.87-.04-.98-.77.09-.92-.86.15-.43,1.11-.67.29-1.72-.67-.88-.04-1.69.16-2.5.28-1.13.92-.11,1-.22.75-.97,1.55-.49,2.35-.47,2.35.05,2.59.42,2.4,4.07Zm-.07-10.17c-.43-1.2.51-3.05-.98-3.2.37-.91,1.23-1.05,1.23-.71.02,1.2.4,2.6-.25,3.91Zm.56-11.02c-.09.43-.1.9-.25,1.52.06-2.34-.84-2.11-1.74-1.89v.02s-.01-.01-.01-.02c-.7.27-1.38.76-2.13.4-.36-.56,1.11-1.45-.15-1.93-.15-.05.11-.64.28-.89.32-.47.67-.06.74.25.25,1,.82,1.47,1.26,2.17h.01c.19-.93-1.45-2.88.5-2.69.75.07,1.95.87,1.49,3.06Zm.25-8.03c-.08,1.76.07,3.57-.48,5.74-.51-4.15-2.18-.68-3.09-1.82.04-2.13.94-.98,1.88-.8-1.19-1.61-.58-2.81-.08-4.04.34-.84.81-.76,1.32-.58.57.2.47.9.45,1.5Zm5.58,7.24c-.32-1.26-.57-2.11-.52-3.12-.29.18-.14.54-.2.78-.16.67.39,2.03-.55,1.9-.62-.08-.24-1.23-.39-1.86-.08-.32.36-.97-.24-.9-.1.02-.18.46-.33.88-.15-1.55.15-2.88.86-3.3.76-.45,1.55,2.5,1.37,5.62Zm1.98,49.78c-.19.85.13,2.44-.44,2.27-1.07-.31-.82-2.08-.92-3.44-.09-1.12.23-1.22.74-1.14,1.17.19.32,1.63.62,2.31Zm-.27-53.79c-.57-1.43-1.62-2.27-2.14-3.82.33-.48.59-.11.87-.01.42.14.93.52.95-.69.03-1.11-.49-.97-.94-.93-1.04.08-2.05.32-2.83-1.33-.4-.83-.44.13-.58.58-.21.64-.64.71-1.04.63-.33-.07-.29-.56-.3-.95-.01-.81.49-.53.69-.79,1.94-2.52,3.72-.23,5.55.32.33.1.6.3.49.9-.37,2.01-.38,2,.19,3.49q.23-2.62,2.22-3.16c-.17,1.64-.18,3.33-.56,4.77-.25.92,1.41,1.77,0,2.19-.87.27-1.9.48-2.57-1.2Zm1.55,14.84c-.35-1.03.66-1.35.43-2.26.55-.01.78.57.89,1.28.17,1.13-.86,1.12-.74,2.11-.66.02-.44-.72-.58-1.13Zm1.92,106c-.43.31-.7-.14-.83-.85-.19-1-.08-1.91.22-3.09.54.94.18,1.96.7,2.57.26.32.29,1.1-.09,1.37Zm.08-5.16c-.02.36-.16.57-.4.49-.25-.09-.25-.43-.23-.73.03-.78.07-1.56.1-2.34-.17-1.59.2-3.11.22-4.67,0-.41.05-.82.38-.79.29.02.44.37.41.8-.15,2.42-.31,4.83-.48,7.24Zm.57-14.58c0,1.64-.05,3.29-.09,4.93-.01.53-.15.92-.51.95-.28.03-.29-.36-.28-.65.09-3.78.2-7.57.3-11.35h.45c.39,2.01.11,4.08.13,6.12Zm.13-10.34c-.03.38-.05.77-.08,1.15,0,.47.02.94,0,1.4-.01.44.06,1-.35,1.09-.19.03-.41-.03-.57-.18-.35-.33-.22-.78-.02-1.17.39-.75.16-1.64.23-2.46.04-.49-.12-1.25.41-1.22.63.03.43.79.38,1.39Zm.37-16.28c-.53,2.47-.23,4.95-.61,7.35h.01v.02c.27.89.47,1.81.41,2.83-.04.62-.11,1.1-.58,1-.4-.08-.44-.62-.38-1.05.15-.94.37-1.86.55-2.78t-.01-.02c-1.01-.29-.9-.25-.7-1.39.56-3.1.51-6.17-.39-9.14,1.34-.75,2.27.51,1.7,3.18Zm.11-8.99c-.01,1.72-.91.41-1.36.83.43-.7.19-2.31,1.09-2.17.52.09.27.92.27,1.34Zm.06-4.14c-.04.53-.21.87-.59.76-.41-.12-.42-.66-.35-1.08.21-1.48.47-2.94.71-4.41.61,1.61.34,3.17.23,4.73Zm.55-17.48c-.07,3.13-.27,6.26-.29,9.39-.02,1.64-.71,1.82-1.86,2.45,2.05-4,.93-8.09,1.25-11.9.06-.68-.3-1.88.44-1.86.7.02.47,1.24.46,1.92Zm.25-9.56h-.07c-.09,2.04-.18,4.09-.27,6.13-.03.57-.07,1.21-.57,1.05-.42-.13-.46-.6-.34-1.27.6-3.36.25-6.82.38-10.24.02-.62-.31-1.61.35-1.72.72-.12.51.93.52,1.56.02,1.49,0,2.99,0,4.49Zm-.75-21.11c-.64.25-1.26.65-1.57-.7-.24-1.05-.89-.85-1.37-1.15-.37-.24-.68-.57-.48-1.19.16-.49.51-.84.76-1.23.36.2.5.44.68,1.01.6,1.9,1.45,1.94,2.31.35.13-.23.27-.56.48-.33.14.16.29.51.27.74-.09,1.1-.22,2.16-1.08,2.5Zm.83-4.93c-.2-2.77-1.55-5.47-.02-8.69,1.36,3.13-.29,5.93.02,8.69Zm-.08-9.26c-.28-.01-.55-.15-.31-.67.32-.69-.22-2,.49-2.21.55-.17.37.88.44,1.25.02.9.08,1.67-.62,1.63Zm.84-13.91c0,.44-.14.95-.54.89-.28-.05-.24-.45-.24-.72-.01-2.52.2-4.99.79-7.4,0,2.41.02,4.82,0,7.23Zm.49-11.63c-.19,1.13.03,2.45-.62,3.68-.44-1.43-.44-2.63-.31-3.86.06-.53.25-.89.59-.86.42.04.42.57.34,1.04Zm-.98-6.65c.26-5.09.49-9.78.73-14.48,1,5.03.58,11.91-.73,14.48Zm1.04-24.27c-.28,1.09-1.04.93-1.57.87-.9-.11-.06-1.28-.36-1.88.44.3.64,1.09,1.18.69.54-.4.47-1.2.38-1.85-.14-1.03-.05-1.97.33-2.92.32,1.68.49,3.4.04,5.09Zm5.44,211.23c-.01.58.01,1.43-.59,1.26-.54-.15.25-1.16-.29-1.43.43-1.08.55-1.99-.11-3.13-.32-.56.57-1,1-1.54,0,1.61.02,3.23-.01,4.84Zm1.96-23.71c-1.95-1.81-.85-4.52-1.34-6.61-.76.81-.17,1.87-.65,2.77-.52-1.26-.19-3.48-1.84-3.41.4-.44.57-.79.72-.77.93.14,2.24,1.28,1.78-1.88,0-.04.52-.35.8-.37.34-.03.54.3.54.89-.01,3.02-.01,6.03-.01,9.38Zm1.13-40.95c-.12.98-.08,2.36-.95,2.46-.81.09-.35-1.15-.47-1.72-.37-1.5.29-1.71.92-1.88.35-.11.59.32.5,1.14Zm.66-10.9c.06,1.28-1.4,2.1-.41,3.79.19.32-.75,1.83-1.04,1.73-.83-.26-.14-1.6-.27-1.91,0-2.15.01-3.81,0-5.47-.01-.84.14-1.33.76-1.27.54.06,1.01.19,1.01,1.26,0,.63-.07,1.25-.05,1.87Zm.84-1.2c.18-.81-.08-2.09.85-2.25.34-.05.48.52.31.75-.59.77.65,2.48-.61,2.8-.68.17-.46-.71-.55-1.3Zm.77,93.11c-.33-3-.06-6.03-.31-9.04-.08-.92.55-1.6,1.36-1.17-1.41,3.17-.63,6.82-1.05,10.21Zm2.02,16.03v-12.7c.44,4.23.22,8.47,0,12.7Zm.74-63.68v-6.58c.51,2.21.34,4.39,0,6.58Zm.79,21.47c.63,2.18.86,4.23.8,6.3,0,.46.96,1.13-.05,1.45-.85.28-.73-.74-.74-1.44-.03-2.01-.01-4.03-.01-6.31Zm.16,47.7v-9.18c0,3.02,1.98,5.89,0,9.18Zm1.35-7.1c-.01.37-.18.57-.42.44-.26-.14-.5-.16-.49-.89.04-1.35.4-2.57.54-3.89.12-1.2.22-2.44.51-3.66.4,2.68-.07,5.33-.14,8Zm3.17-35.81c-.94-.7-.06-2.37-.56-3.42-.14-.29.02-.77.21-.61.78.64.28,2.06.72,2.7-.11.69-.02,1.59-.37,1.33Zm-1.03-22.78c.26-1.22,1.75-1.7.5-3.29-.2-.26.11-.54.28-.63.22-.1.46-.26.64.23.44,1.23-.39,3.49-1.42,3.69Zm3.7,26.16c-.59-.06-1.1-.26-1.09-1.43,0-.49.01-.89.48-.79.56.13,1.1.18,1.24,1.22.02.73-.19,1.05-.63,1Zm2.2,21.37c-.46-1.62.24-3.98-.57-4.14-.12.05-.25.07-.41.07.17-.07.3-.09.41-.07,1.52-.49-.32-4.05.76-5.54.23,3.12.03,6.08-.19,9.68Zm18.43-137.96c-.03-.6.11-1.09.54-1.19.27-.06.31.32.33.62.34,3.99.38,7.97-.39,11.87-.04.19-.19.32-.51.85-.05-4.32.29-8.24.03-12.15Zm.28-11.61c.02-.35-.06-.82.29-.91.23-.06.43.15.44.46.07,2.86.32,5.76-.53,8.47-.05.18-.23.27-.57.64.66-3.19.23-5.94.37-8.66Zm-.52,39.23c-.34-4.13.35-8.11.02-12.09-.06-.67.16-1.39.61-1.38.68.02.33.87.29,1.38-.28,3.35.49,6.7-.04,10.05-.13.83-.05,1.73-.88,2.04Zm.11,22.3c.71,8.26.02,16.32-.13,24.39-.69-2.08-.56-22.82.13-24.39Zm-1.3,33.95c.82-.53.6-1.38.55-2.31-.1-1.78-.15-3.57.42-5.82.49,3.44.06,6.26.1,9.08,0,.77-.4.82-.72.96-.11.04-.24-.11-.37-.17.62-.6-.39-1.48.02-1.74Zm-6.58-26.15c-.46-1.12-.69-2.38-.94-3.88,1.37.31,1.29,2.18,1.8,3.3.15.36-.05.95-.33,1.16-.31.23-.41-.28-.53-.58Zm5.48,20.01c-1.64-5.96-3.2-11.58-4.72-17.22-.12-.45-.61-1.22.02-1.57.72-.4.46.83.68,1.18.56.89.39,2.62,1.35,2.98.18,3.87,1.53,7.06,2.58,10.37.44,1.38.58,2.53.09,4.26Zm-.25,9.46c-.53-1.36-1.44-2.31-1.45-4.09.56.17,1.13.35,1.82.56-.52,1.09-.84,2.2-.37,3.53Zm-14.06,38.82c1.4-.57,2.85-.04,4.26-.58-1.05,1.17-2.58,1.39-4.26.58Zm4.41,22.51c-.11.72-.66.17-.67-.86,0-.37.07-.73.08-1.11.01-.37-.03-.75-.04-1.13,0-.05.06-.1.1-.17.32-.1.19.42.32.58.63.77.33,1.83.21,2.69Zm-3.65-25.52c1.3-.22,2.57-.94,3.85-.18-1.26.89-2.56.65-3.85.18Zm2.57-1.08v-.37h5.28c-.01.12-.01.24-.02.37h-5.26Zm3.65,4.12c-.51-.03-.79-.25-.69-1.06.14-1.21.55-.11.75-.07,1.34.3,2.62-1.08,3.96-.33.26.14.6,0,.84.76-1.69.04-3.24.81-4.86.7Zm11,49.36c0,1,0,1.99-.34,3.01-.02-.77-.08-1.54-.06-2.31.04-2.21-.39-3.72-1.95-3.72-.03.01-.05.03-.08.05-.01-.01-.02-.02-.02-.03.19.89.99,1.83-.26,2.52-.72.39-.83.28-.8-.87.05-1.82-.78-2.41-1.74-2.48-1.08-.08-2.18.05-3.27.07-.49,0-1.07.41-1.51-.9,2.64.4,5.28-1.19,7.57,1.64h.11c1.42-.96,2.21-.26,2.36,2.09.02.3-.01.62-.01.93Zm.44-61.26c-.25,5.3-.09,10.66-.44,15.93-.14,2.18-.04,4.21.02,6.32.03.9.38,1,.63,1.42h-2.15c.31-1.79,1.27-3.63-.39-4.91-.22-.17-.04-.59.11-.76.96-1.05.71-2.61.72-4.06.01-2.06.25-4.08.32-6.14.12-3.42.1-6.84.01-10.25-.04-1.38.32-2.58.35-3.91.01-.81.49-.44.82-.25.4.23.21.32.1.84-.38,1.85,0,3.82-.1,5.77Zm3.38,19.87c-.12,2.39-1.25,2.16-2.43,1.85.29-1.15.99-.35,1.31-.93-.18-.5-.71-.16-.87-1.16.49-.05.91-.1,1.37-.15-.34-1.31-1.17-.4-1.6-1.11.35-.91,1.07-.11,1.48-.79-.33-.9-1.12.09-1.47-.88.39-.85,1.07-.05,1.5-.66-.34-.91-1.18.08-1.5-.92.42-.82,1.31.24,1.48-.71.15-.81,1.19-2.56-.56-2.61-.39-.01-.36-.23-.09-1.16.05-.18-.27-.61-.41-.92.29-.69.87-.11,1.24-.67-.21-.78-.9.02-1.05-.81,1.68-1.03,1.77-1.04,1.8,1.7.03,3.31-.04,6.63-.2,9.93Zm10.39-8.54c-.4-.68-1.34.3-1.54-.99-.13-.79.45-.71.73-.48.56.44,1.51-.41,1.69,1,.1.78-.5.39-.88.47Zm3.61.24c-.28-.06-.96-.35-.38.83.21.43-.26.39-.28.27-.12-.9-.93.68-1.03-.85-.07-1.15.28-3.05-1-3.46.89.11,1.78.31,2.67.31.7-.01.98.35.98,1.48.01,1.12-.22,1.58-.96,1.42Zm10.74-.82c-.05.71.05,1.43-.64,1.36-1.94-.21-3.87-.41-5.81-.6-.42-.04-.47-.45-.44-.96.05-.65.31-1.02.7-.99.44.05.88.29,1.27.05,1.45.04,2.84.52,4.23.13.48-.14.76.09.69,1.01Zm2.02-14.02c-.31.14-.39-.29-.37-.72.07-1.16-.17-2.4.36-4.04.13,1.67.17,2.79.31,3.88.08.55-.15.82-.3.88Zm1.03-57.6c-.06,3.05-.52,6.1-.04,9.16.06.41.13,1.01-.35,1.04-.34.02-.74.17-1-.06-.21-.18-.22-.92.02-1.27.79-1.14.56-2.55.5-3.93-.12-2.48.05-4.93.18-7.57.79.75.71,1.73.69,2.63Zm0-5.07c0,.57,0,1.03-.48,1.24-.61.28-.49-.75-.82-1-.4-.3-.18-.66.17-.9.42-.29.42-.85.36-1.55-.24-3.25.47-6.53-.1-9.82.77.66.96,1.61.95,2.78-.05,3.09-.06,6.17-.08,9.25Zm4.53,58.58c-.13,0-.26-.01-.39-.01v-14.24c.65,4.74.51,9.49.39,14.25Zm.05-33.37c-.14.91-.56,1.1-1.38,1.45,1.51-3.43.17-7.05,1.22-9.98.31.73.44,6.82.16,8.53Zm.69-20.82c-.2-.42-.66-.84-.39-1.33.2-.36.72-.43,1.08-.38.6.09.4.95.38,1.49-.03.57-.2,1.12-.34,1.87-.3-.67-.5-1.18-.73-1.65Zm1.45,28.45c.65-1.18-.16-3,.3-4.89.71,3.91-.74,7-.68,10.37-.14-1.86-.59-3.73.38-5.48Zm.44,5v6.14c-.56-2.09-.37-4.12,0-6.14Zm-.72,13.44c.93,2.8.33,5.77.4,8.65-.55-2.12-.14-4.3-.31-6.48-.27.64.08,1.49-.37,2.19v-10.73c1.22,1.01,1.48,3.99.52,5.24-.25.32-.38.72-.24,1.13Zm.72-25.75c-.78-4.33-.71-7.17.3-9.69-.41,3.54-.23,6.61-.3,9.69Zm20.94,15.17c-.29.2-.52-.13-.52-.54,0-1.29-1.45-2.46-.12-3.93.19-.22.19-1.2-.17-1.69-.16-.22-.54-.26-.22-.77.06-.11.18-.17.27-.18.39-.04.33.43.33.79,0,.47-.03.94-.06,1.69-.21,1.18.49,2.32.57,3.68.02.37.24.73-.08.95Zm2.83-12.31c.09-.47.29-.74.52-.45.82,1.05,1.7.16,2.54.32.64.11,1.39-.31,1.55,1.42.16,1.75-.41,2.1-1.26,2.26-.25.04-.49.19-.73.28v.02c-.07.63.67.16.51.93-.13.6-.34.7-.67.4-.08-.07-.2-.11-.29-.07-.62.32-1.24.69-1.81-.16-.18-.27-.09-.61.05-.82.58-.91,1.28-.64,1.97-.48.02.01.04.02.07.03-.36-.31-.79-.34-1.2-.44-1.05-.26-1.55-1.64-1.25-3.24Zm2.52,7.82c-.84.65-1.48-.49-2.62-.53,1.3-1.29,2.12-1.78,2.62.53Zm-3.96,11.5c-.31-.71-.19-1.47.3-1.59.67-.16.48.93.58,1.52.15.84.13,1.53-.64,1.51-1.38-.03.45-1.17-.24-1.44Zm.13,38.44c-.24.29.06.97-.34,1.14-.43-.31-.4-.96-.31-1.42.15-.7.18-1.57.66-1.98.08-.07.33.07.37.21.22.82.06,1.52-.38,2.05Zm.25-6.35c-.44-2.93-.05-5.91-.45-8.82-.06-.43-.06-.98.29-1.2.23-.14.39.17.42.47.35,3.22.27,6.41-.26,9.55Zm1.21-20.54c-1.17,1.9-.67,4.08-.72,6.71-1.11-1.89-.68-3.66-.73-5.27-.05-1.39.08-2.8.13-4.2.03-.63.3-1.34.57-.69.43,1.03,1.01,3.04.75,3.45Zm15.89-21.67c-.78-1.48-1.56-2.95-2.35-4.43.87.02,1.81-.65,2.27.66.37,1.09-.06,2.48.08,3.77Zm-.99-6.49c.12.4-.99.18-1.57.43q1.12-2.95,2.49-1.84c-.09.73-1.51-.67-.92,1.41Zm-3.12-1.64c-.45-1.27.37-.39.5-.66.14-.28.2-.7.22-1.07.03-.7.01-1.41.01-2.11,0-3.82.53-4.38,2.83-2.96q.55.33.55,1.87c0,.23.02.66-.01.67-1.68.43-1.55,3.82-3.06,4.61-.49.26-.91.04-1.04-.35Zm1.61,50.66c-.1.67-.48.8-.83.71-.41-.1-.27-.73-.28-1.14-.02-1.02-.01-2.04-.01-3.06h.02c0-1.17.01-2.35,0-3.52,0-.68.15-1.01.61-.95.52.06.67.44.62,1.23-.13,1.91-.66,3.85.4,5.63.38.62-.43.58-.52,1.1Zm-.35-12.54c-.24-1.34.16-2.76-.66-3.78-.13-.16-.07-.91.04-1.3.12-.41.44-.18.67-.12.39.09.4.59.42,1.06.06,1.47-.56,2.75-.47,4.14Zm-.09-6.31c-.53,0-.73-.56-.44-1.26.52-1.24-.55-2.32-.11-3.57.74.92.95,2.21,1.12,3.51.09.69-.06,1.32-.57,1.32Zm2.16-13.47c-.27.03-.6.65-.78.54-2.2-1.29-1.83,1.19-2.04,3.17,0-1.48-.07-2.97.03-4.43.05-.82-.58-2.29.56-2.35.87-.05,1.98-.29,1.89,1.98.72.02.05-1.71.84-1.45.3.1.23.61.25.99.05.88-.06,1.5-.75,1.55Zm.99,43.16c-1.19-2.21-.07-4.03-.49-5.73h.49v5.73Zm-.33-49.79c-.97.78-2.04.64-3.08.37-.59-.16-.4-.96-.41-1.53-.05-2.08,0-4.16.33-6.67,1.24,2.25,2.37,4.28,3.49,6.33.41.76-.02,1.25-.33,1.5Zm1.63-27.09c.19-1.87,1.16-2.01,1.91-1.36.91.79.94,2.22.26,3.56-.76-1.74-1.94-1.35-3.06-1.22.1-1.05.8-.05.89-.98Zm3.85,12.4c.04,1.71-.76,3.02-1.86,3.03-.76.01-2.1-2.57-2.03-4.1.04-1.14.41-2.08,1.26-2.08,1.13-.02,2.6,1.79,2.63,3.15Zm-2.21,55.81c-.67.09-.69-.63-.69-1.38,0-2.04.03-4.08-.01-6.11-.02-1.02.25-1.4.87-1.46.78-.08.57.8.59,1.43.03,1.02.01,2.04.01,3.06h.01v3.06c.01.84-.23,1.33-.78,1.4Zm.86,11.96s-.09.03-.13.04v-3.31s.08-.01.13-.02v3.29Zm-.51-27.32c-1.33-2.49-1.35-4.15-.43-6.43.31-.78.37-1.75.33-2.7-.02-.47.07-1.01.45-.98.33.02.51.42.54.95,0,.32.08.64.05.93-.29,2.62-.59,5.22-.94,8.23Zm.87-28.37c-.13,1.16-.95.81-1.51.93,0,.48.34,1.11-.2,1.33-.4.17-.8.08-1.06-.49-.2-.47-.29-1.17-.02-1.49.42-.48.75.5,1.18.48-.29-1.34-1.66-1.7-1.32-3.63.12-.69-.2-1.81.48-1.94.81-.14,1.95-.33,2.33.7.39,1.07.26,2.76.12,4.11Zm-3.07-7.1c1.55-1.05,1.9-1.08,4.59-.5-1.61,1.65-3.02.81-4.59.5Zm6.08-16.32c-.02.49-.45.94-.64.78-1.03-.85-1.72.58-2.58.78-.15.03-.31-.26-.47-.41.35-.33.58-.74.69-1.42.1-.65-.22-1.84.54-1.84s1.54.26,2.28.6c.15.07.22,1,.18,1.51Zm.73.01c-.17-.83-.4-2.45.36-2.71,1.4-.46.35,2.22,1.15,2.86-.53-.21-1.21,1.28-1.51-.15Zm7.56,23.88c-.48-1.14.43-.93.52-1.5q-1.02-.42-1.06-2.94c.78.44.87.91,1.89,2.38.61.87-.21,2.65.98,2.87-.88.37-1.71.65-2.33-.81Zm5.02,26.3c-.64-1.9-2.08-2.59-1.87-5.24.15-1.9.96-1.32,1.5-1.41.92-.14.37.94.37,1.55-.01,1.6,0,3.19,0,5.1Zm-.74,16.88c-1.34.14-.99-1.42-1.07-2.65.2-.62-.36-1.77.45-2.06.58-.21,1.79,2.05,1.85,3.13.09,1.58-.57,1.52-1.23,1.58Zm.14-30.9c-.51.01-.93-.21-.85-1.16.08-1.01.63-.43.96-.53.7-.23.96.82,1.37,1.68-.5,0-.99-.01-1.48.01Zm-1.86-14.16c1.38.25,2.63.48,3.91.71-1.31,2.75-2.31,2.61-3.91-.71Zm3.35-7.23c-.87-.73-2.36.88-2.69-1.76-.11-.92.26-1.04.91-.82.66.76,2.02-.66,2.52,1.41.12.48-.12,1.69-.74,1.17Zm14.11-28.2c-.09.22-.27.46-.43.5-.21.05-.33-.26-.34-.6-.03-1.55-.34-3.16.39-4.97.65,1.93,1.07,3.42.38,5.07Zm3.88,50.84c-.62-.14-1.68.4-1.58-1.83.17-3.57.14-7.16.17-10.74.01-.9.43-1.24.76-.87.37.43,1.21-.67,1.17.98-.05,1.96,0,3.93,0,5.89h-.06c0,1.64.05,3.29-.03,4.92-.03.55.54,1.88-.42,1.65Zm.58-56.12c-.04-.99.77-1.09,1.2-1.16.48-.08.28.66.24,1.22-.21,2.53-1.66,4.55-1.2,7.38-.54-2.5-.16-4.98-.24-7.44Zm5.79,14.24c.35-.14.35.55.41,1,.18,1.33-.23,1.8-1.36,1.82.77-.85.03-2.45.95-2.82Zm-1.16,27.18c.56-.61,1.37.67,2.03-.52-.4,1.6-1.37,1.98-1.91,3.75-.13-1.44-.96-2.3-.12-3.23Zm.98,32.39c.28-1.02-.02-2.44-.07-3.67-.03-.69-.15-1.63.43-1.67.61-.04.52.97.53,1.64.03,1.8-.36,3.65.42,5.67-.99-.24-1.9.19-1.31-1.97Zm1.99-27.52h-.01c0,.86-.01,1.73,0,2.6.01.81-.3.85-.7.78-.2-.05-.64.28-.52-.32.39-1.86-.72-2.2-1.19-3.17-.02-.06-.09-.06-.13-.1-.33-.23-.3-.82-.09-.88,1.1-.29,1.07-2.75,2.17-2.81.47-.02.45.92.47,1.53.02.79,0,1.58,0,2.37Zm-.24-8.13c-.78.68-1.24-1.41-1.94-2.07-.56-.52-2-1.17-.05-2.06.53-.25.3-1.39.28-2.12-.04-1.55.49-2.2,1.36-2.16,1.05.04.46,1.39.55,2.13.1.76.03,1.57.03,2.44-.19,1.26.51,3.19-.23,3.84Zm6.3,45.28c.71.1.19,1.58.35,2.22,0,.73-.02,1.27,0,1.82.03.79-.34.51-.59.6-.66.26-.3-.42-.28-.75.04-.58-.35-1.14.01-1.76.35-.61-.51-2.27.51-2.13Zm-.99,22.03c1.54-.75,2.75-.7,3.97,0h-3.97Zm4.68-2.17c-.33,1.91-1.35.03-2.15,1.22.33-1.64.2-3.03,1.29-3.04.78,0,.98,1.14.86,1.82Zm1.33.88c-.8.08-.86-.94-.96-1.71-.17-1.24.51-.77.78-.89.72-.1,1.16.06,1.15,1.31-.02,1.11-.43,1.24-.97,1.29Zm4.85-.46c-.98-.19-1.97.79-2.91.1-.39-.29-.22-1.19-.15-1.74.23-1.61,1.12-.29,1.43-.8.53,0,.88.02,1.23,0,.6-.04.77.5.74,1.33-.02.46.03,1.18-.34,1.11Zm4.86-.46c-1.04-.09-2.03.36-3.05.47-.64.08-.46-.79-.47-1.35,0-.67-.11-1.64.59-1.44.57.17,1.52-.98,1.68,1.04.03.39.3.25.39-.11.64-2.3.77.12,1.14.3v-.05s.02,0,.03.01c.01-.35.01-.72.02-1.07.01-.56-.64-1.39.19-1.62.83-.24.85.7.78,1.61-.06.72.3,1.68-.22,2.1-.47.36-.36-.95-.77-1.02v.05s-.02,0-.03-.01c.02.46.07,1.12-.28,1.09Zm.6,3.5c.71-.28.75,1.78,1.57,1.1-.01.36.13.86-.19,1-.38.18-.81.12-1.13-.28-.26-.32-.44-.8-.61-1.13-.02-.54.15-.6.36-.69Zm3.33,28.61c.07.22-.02.56-.03.9-.53-.29-.02-1.3-.65-1.58.31,2.94-.38,3.98-2.53,3.19,1.49,0,2.36-.36,2.16-2.6-.07-.77-.26-2.25.65-2.15.98.1.17,1.5.4,2.24Zm7.17-75.21c-.13-.12-.25-.26-.38-.37-.7-.61.08-.96.13-1.41.22-1.88-.08-3.75.02-5.62.05-1-.13-2.04.28-3.25.1,3.14.22,6.02.28,8.9.01.58-.22,1.17-.33,1.75Zm16.32-39.33c.08.19.21.42.26.2.12-.52.02-1.53.6-1,.43.39.14,1.37.22,2.31-.59-.33-.9-.53-1.22-.68-.27-.13-.7-.18-.61-.7.11-.63.46-.77.75-.13Zm-4.28-18c.04-.16.06-.34.12-.38.45-.39,1.01-.79,1.17.33.17,1.11.09,2.3.13,3.46.01.31-.1.43-.25.37-.12-.04-.32-.27-.32-.33.11-.45.24-1.01.04-1.33-.38-.57-.38.75-.6.47-.23-.3-.42-.88-.44-1.36-.03-1.09.54-.65.92-.77-.25-.15-.51-.3-.77-.46Zm-2.75,2.44c.29-.12.5-.03.51.49,0,.43-.13.51-.43.62-1.42.5-2.86,0-4.27.35-.58.15-.71-.78-.66-1.43.05-.52.12-1.15.66-1.36.83-.33.99.43,1.1,1.92.3-2.94,2.32-3.46,4.14-1.61-.38.46-.78.55-1.23.44-.41-.11-.83-.14-1.27-.04.45.42.9.84,1.45.62Zm-2.92-2.19c-.65.07-1.32.02-1.2-1.35.1-1.11.93-1.21,1.3-.94.9.66,1.82.53,2.74.6.3.02.68-.07.68.56.01.59-.26.99-.67,1.03-.65.06-1.3.1-1.95.15v-.05c-.3,0-.61-.03-.9,0Zm-1.81-18.7c.62-.97,1.07-1.83.12-2.95-.24-.28-.1-.86.16-.93,2.28-.6.18-1.46-.09-2.42,1.6-.1,1.62-.11,1.65,1.82.04,2.59.04,5.19.07,7.79.03,2.66-.02,2.75-1.76,3.11.13-1.37.65-2.72-.28-4.03-.34-.48-.31-1.7.13-2.39Zm-.59,9.71c.39-.07.49.32.42.55-.53,1.83.74,2.11,1.09,3.17.13.36.33.12.4-.26.13-.76.21-1.46.57-.11.21.8.53.42.7-.16.75-2.48,1.95.52,2.8-.57.5,1.13.35,2.41.3,3.65-.02.58-.45.76-.7.6-.98-.66-2.22.29-3.05-1.4-.6-1.21-.64.55-.99.85-.43-1.01-.46-2.98-1.86-1.09.69-1.95.11-3.64.32-5.23Zm-1.13,24.96h.2v10.61h-.2v-10.61Zm.9,39.57c-.9-1.12-1.31-10.12-.74-13.59.88,4.4.78,8.91.74,13.59Zm-.5-42.4c2.34-.38,2.81-3.31,3.68-5.51.48-1.21,1.06-.95,1.65-1.05.63-.12.87.63,1.01,1.43.17,1.06.26,2.19,1.24,2-.21,1.11-.49.87-.74.55-.38-.48-.72.11-.68.35.52,3.26-1.16,1.11-1.71,1.71-.29.31-.79-.05-1.24.62,1.04.64,2.06.27,3.03.4,1.25.17,2.5.23,3.75.36.27.03.67-.14.65.6-.03,1.05-.4.11-.56.23-.67.49-.01,1.59-.54,2.52.25-1.17-1.26-.95-.46-2.47.09-.17-.37-.31-.61-.31-1.05,0-2.1,0-3.17,0,.02.16.02.33.06.36,1.05.82-.72.85-.17,1.64,1.09,1.57-.29,1.46-.61,1.76-.52.47-.67.81-.4,1.69.15.49.47,1.3-.06,1.63-.54.32-1.16.1-1.44-.79-.48-1.5-.55-3.18-.24-4.73.21-1.05.18-1.97.05-2.95-.75-.18-1.43.83-2.49-.04Zm6.57,17.2c.48,2-.09,1.51-.7,1.05-.41-.3-.72.76-1.07.04v.03s-.02-.02-.02-.03c-.55.34-.98-.16-1.43-.51-.03-.58,1.44-.71.16-1.61-.32-.22-.04-.99,0-1.5.03-.34.28-.36.49-.34.59.05.2.88.4,1.23.45.8-.24,2,.38,2.73.01,0,.01-.01.02-.01-.22-1.31.62-.97,1.16-1.56-.98-.03-1.06-.79-.93-1.82.21-1.6.99-1.18,1.78-1.25-1.14,1.08-.42,2.81-.24,3.55Zm-4.26,7.48c-.14-.35,0-1,.58-.55.41.32.17-.34.12-.63-.16-1.08.39-1.14.69-.83,1.14,1.22,1.57.06,1.94-1.68.42,1.1.5,2.02.75,2.82.44,1.38.31,2.91-.93,3.05-.93.1-1.67,1.73-2.75.65-.79-.8-.02-1.94-.4-2.83Zm3.18-11.53c-.53-.1-1.1.26-1.63.13-.5-.11-1.17,1.08-1.52-.44-.32-1.44.49-2.02.88-2.85.18-.37.69-.61,1.08-.14.25.8-1.05.9-.34,1.81.24.3.51.77.92.62.73-.27.45-1.21.54-1.92.15-1.14-.25-3.11.7-3.17,1.14-.07.71,2.03.89,3.18.32,1.91-.07,3.06-1.52,2.78Zm-3.3,64.07c.31.15.69,1.71.54,2-.61,1.2-.25,1.3.42,1.19,1.1-.18.52.86.56,1.77-.65-1.21-1.28-1.67-2.11-1.15-.28.18-.65.22-.76-.32-.06-.27.1-.72.23-1.02.16-.39.38-.72.58-1.07.25-.43-.23-1.78.54-1.4Zm1.83,13.37c-.25.62-.97.21-1.2,1.08-.63-.7-1.23.33-2.04.19.5-1.21,1.27-1.75,1.45-2.94.6.29.06,1.11.49,1.47.48-.15.14-2.12,1.04-1.41.42.32.45,1.13.26,1.61Zm.44-25.89c-.45.02-.64-.23-.63-.91,0-.62-.03-1.27.54-1.36.51-.07.73.29.7,1.05.03.7-.06,1.19-.61,1.22Zm2.02-10.13c-.32.69-.86.42-1.45.05.41-1.04.71-1.89,1.32-2.55.43.83.48,1.75.13,2.5Zm.94-13.49c-.11,1.13-1.66,1.17-2.35.4-.42-.48-.94-.61-1.25.36-.2.6-.52.72-.88.53-.4-.21-.46-.83-.48-1.36-.02-.47.14-1.14.49-.51.51.91.65.2.8-.34.13-.49.14-1.5-.16-1.42-1.37.38-1.18-2.05-2.25-2.42.73-.85,1.16-.31,1.59-.31.5-.01.69-.18.76-1,.06-.73-.1-1.85.78-1.82,1.02.03,2.66-.71,2.89.49.45,2.28.29,4.96.06,7.4Zm1.27-30.57c-.13-.17-.18-.93.13-.93s.92-.33.91.13c-.02.89.74,1.1.88,1.81.05-1.2.11-2.44.18-3.91.68.85,1.17,1.17,1.96.62.94-.64,1.87-.25,1.66,2.08-.16,1.73.15,3.34.92,4.65.31-.09.38-.47.45-.85.08-.43.09-1.06.53-.77.47.29.35,1.05.41,1.65.06.53-.04,1.02-.46.78-1.01-.56-1.2.95-1.75,1.58-.32.38.11,1.81-.66,1.31-.43-.28-1.09-.65-1.02-1.93-.15,2.06-1.02,2.45-2.02,1.91-1.34-.72-1.22-2.84-1.35-4.47-.14-1.78,1.02-.43,1.7-1.44h-3.12c-.02-1.02,2.55.12.65-2.22Zm5.84,73.06c0-2.55-.85-5.03,0-7.62v7.62Zm2.05-53.11c-.17.18-1.33.48-1.36-.78-.05-2.7-1.53-.8-2.09-1.77-.09-.16-.35.23-.32.59.02.34.12.56.38.49.3-.08.6-.15.9-.13.25.02.26.39.24.71-.03.35-.09.43-.37.35-.75-.21-1.53-.02-2.41-.84.16.63.17.92.27,1.03,1.29,1.45,1.28,1.44-.05,2.98-.13.15-.18.53-.2.82-.11,1.63-.69,2.66-1.68,2-.92-.61-.48-2.28-.33-3.32.11-.78.63-1.12-.01-2.08-.2-.3.15-2.99.91-3.04,1.34-.09,1.73-1.76,2.54-2.7.36-.42.66-1.09,1.17-.78.57.36.11,1.12.14,1.66.13,2.23.32,2.47,1.55,1.54.32-.25.81-.46.85.25.04,1.02.59,2.26-.13,3.02Zm17.42-103.71c.63,1.54.61,3.16.29,4.82-.7-1.54-.52-3.18-.29-4.82Zm-1.1,19.45c.48-1.33.29-3,.98-4.62.37,1.43.73,2.53.92,3.7.25,1.49-.22,2.41-1.18,2.61-.38.07-.94.14-1.13-.19-.35-.62.23-1,.41-1.5Zm-3.88,41.04h-.16v-17.29h.16v17.29Zm-.6-68.74c-.41-1.61-.31-3.15-.21-4.68,0,0-.03-.01-.04-.01,0-.02.01-.05.01-.07-.69-.65.32-1.69-.2-2.44-.07-.11.15-.79.41-.67.13.06.16.63.24,1.03.6-1.85,3.14-2.28,3.88-.71.27.56.14.67-.31.73-1.04.15-2.07.65-3.11.71-.69.04-.81.58-.91,1.35.01,0,.02.02.03.03v.05c.66.24,1.31.48,2.07.76-.66,1.35-1.96,1.79-1.86,3.92Zm1.58,43.41c1.11-.13,1.89.79,2.67,1.86.42.58.92.35,1.35-.22.21-.29.52-.21.64.17.18.6-.14.84-.44.92-1.13.3-2.27.23-3.44.1.26-.77.81.09,1.03-.48.04-2.06-1.81-.36-1.81-2.35Zm-.45,69.37h-.12v-7.61h.12v7.61Zm.44-48.86c.77-1.13,1.4-3.25,2.96-1.65.55.56.65-.69.5-1.35-.23-.95-.79-1.1-1.38-1.08-.24,0-.51-.03-.54-.58-.02-.39.2-.44.34-.64.43-.62.82-1.32,1.46-2.38-.64.26-.94.46-1.23.47-.32.01-.8.26-.89-.49-.1-.89.41-.68.72-.74,1.28-.27,1.46-1.85,1.59-3.39.09-.99.09-1.99.54-2.81.65.34.22,1.68.94,2,.53.24.3,1.07.18,1.78-.13.76-1.54,1.59-.01,2.43.21.12-.19.71-.17,1.01.27,3.3-1.06,6.16-1.01,9.38.01.81-.04,1.51.48,2.26.77,1.1.14,3.17-.93,3.36-.75.13-1.51.11-2.25.31-.77.2-1.35-.13-1.46-1.36-.14-1.65.95-.08,1.26-1.41-.68.23-1.3-.04-1.35-1.08-.07-1.35-.47-2.99.25-4.04Zm.11,93.35c-.53-3.87.16-7.85-.43-11.73.15-.03.29-.06.43-.09v11.82Zm.17-66.34c.08-1.67.12-3.35.17-5.03.16,0,.31,0,.46.01,0,1.64,0,3.29,0,4.93,0,.4-.18.52-.4.48-.13-.03-.24-.02-.22-.39Zm.65,22.95c-.01-1.35-.47-2.22-.18-3.77.47,1.4,1.21,1.68,2.37,1.93-.96.71-1.7.65-2.19,1.84Zm3.88-17.63c-.72.65-1.85.1-2.21,1.81-.38-.33-.82-.55-1.11-1.02-.39-.64-.34-1.57.07-2.13.69-.95.68-1.66-.04-2.55-.35-.44-.48-.91-.04-1.73.56-1.06.51-2.81.12-3.81-.88-2.27-.36-4.58-.39-6.84,0-.8.27-2,1.22-1.85.7.12,1.21-.61,1.05-1.74-.2-1.45-.75-.14-1.14-.18-.4-.05-.96.48-1.16-.5-.28-1.3.45-1.5.96-1.73-.07-.82-.72-.47-.68-1.25.15-.44.42-.28.65-.28,2.74.07,2.89.06,2.93,4.2.03,3.52.29,7.02,0,10.61-.19,2.26-.25,4.87.3,7.23.22.94,0,1.28-.53,1.76Zm.49-60.58c.24,2.25-.1,4.51.25,6.74.06.38-.03,1.24-.51,1.51-.5.29-1.01-.4-1.54.05-.1.09.03-.45.07-.71.46-2.9-.22-5.17-1.81-6.26-.55-.38-.86-1.11-.83-2.06.04-1.24.14-2.48.23-3.73.02-.4.1-.8.44-.66.75.3,1.48.13,2.22-.11.69-.22,1.39-.17,2.17.08-.97,1.52-.86,3.45-.69,5.15Zm5.09,139.61c-.81-.2-.16-1.52-.37-2.3-.11-.42-.12-1.58.38-1.43.75.23.19,1.46.42,2.11-.21.59.31,1.8-.43,1.62Zm9.32-86.35c-.8.03-1.56.04-1.33-1.53.2-1.31.01-3.62,1.23-3.36,1.21.27.73,2.73,1.01,4.17.29,1.46-.77.13-.91.72Zm-1.94-17.15c.47-.95.22-1.9.13-3.07.57,0,1.06.05,1.55-.02.74-.1,1,.44.93,1.52-.03.47.02.95-.03,1.41-.07.71.42,1.75-.21,2.09-.64.33-1.39.31-2.05-.17-.5-.37-.63-1.14-.32-1.76Zm2.03,27.26c.62-.14.75.49.73,1.3-.02,1.26.12,2.46.73,3.78h-.86q-2.75-.02-3.05-4.28c0-.13-.12-.35-.12-.36.81-.8,1.71-.27,2.57-.44Zm-6.6,55.96c-.72-.2-.29-1.91-.36-2.88-.41-1.46-.24-2.17.84-2.21.55-.02.88-.78.66-1.72-.2-.84-.18-1.55.3-2.08.13-.14.42-.13.56.01.54.54.29,1.4.26,2.15-.07,1.42-.31,2.78-.65,4.1-.32,1.25-.7,2.89-1.61,2.63Zm1.61,16.98c-.79-.04-.65-.92-.66-1.69,0-.76-.13-1.65.68-1.61.8.04.65.94.67,1.69.01.79.11,1.66-.69,1.61Zm.67-10.83c-.01.46.19,1.42-.51,1.3-.53-.09-.8-1.2-.76-1.41.55-2.42-.31-5.36,1.19-7.63.28,2.67.12,5.21.08,7.74Zm-1.36-17.88c-.48-.75-.71,1.61-1.29.25-.11-.26-.83,1.3-.77-.56.04-1.19.42-1.31.91-1.35,1.3-.09,2.57,0,3.33,2.15-.74-.03-1.52.55-2.18-.49Zm-1.63-15.44c.96,1.49,2.03,2.86,1.17,5.41-.38-.9.39-3.36-1.32-2.29-.04.03-.17-.31-.25-.48.96-.57-.16-1.82.4-2.64Zm.69-1.28q2.53-.78,2.15,4.67c-.9-1.01-1.54-2.4-2.15-4.67Zm4.03,59.85c1.06-.27,2.11-.5,3.13.22-1.05.36-2.1.39-3.13-.22Zm3.75-70.97c-.07.7.15,1.94-.4,1.94-.75,0-.78.44-.79,1.31,0,.23-.21.65-.33.65-1.66-.05-1.04,2.21-1.13,3.27-.12,1.52.99.65,1.52,1.02.18.13.38.2.47.95-2.53-.54-4.99-1.07-7.44-1.6,1.36-.55,2.7-.47,4.03.01.46.17.91.29.6-.94-.08-.32.22-.84.28-1.28.38-2.99.16-3.5-1.78-4.01-1.13-.29-2.28-.5-3.41-.8-.36-.09-.87.11-.94-.78-.03-.27.06-.74.18-.84.4-.31.81-.38.74.68,0,.03.08.07.13.09.71.33.79-1.16,1.48-1.2,1.07-.07-.23,1.86.75,1.87.62,0,1.18-.08,1.74-.49.04-.04.09-.09.14-.09q1.09.07.39-2.72c.74,2.32,1.97,2.02,3.2,1.86.41-.05.65.45.57,1.1Zm.4,19.76s-.11.02-.16.02v-11.14s.11-.06.16-.1v11.22Zm4.32,36.02c-.31-2.12-.44-4.24.01-6.37.2,2.12.29,4.25-.01,6.37Zm1.56-7.58c-.32-.72.21-1.2.47-1.71.63.32.47,1.67,1.15,2-.63.25-1.25.52-1.62-.29Zm5.21-23.59c.64-2.62-.64-1.57-1.27-1.76-.17-.05-.39.11-.47-.29,1.43-.74,2.68,0,2.93,1.77.06.43.28,1.23-.32,1.2-.37-.02-1.03-.28-.87-.92Zm.6,24.08c-.7-2.55-.51-5.12,0-7.68v7.68Zm7.83,23.15c.97-.85,1.94-.69,2.93,0h-2.93Zm4.65-10.4v-10.88c.57,2.4-.63,5.35.89,7.53-1.38.16-.4,2.2-.89,3.35Zm5.62-12.84c-.42-.71-.87-1.03-1.63-1.07.63.97.62,2.01.41,3.06-.17.86-.58.17-.88.24-.39.08-.84.24-.95-.64-.14-1.06-.39-2.73.04-3.07.74-.57,1.54-1.68,2.59-.85.85.67.27,1.57.42,2.33Zm17.81,1.12c.77.7.17,2.27.02,3.66-.32-.57-.65-1.14-.96-1.71-.18-1.29.45-2.4.94-1.95Zm-.97,1.93s-.01-.04-.02-.06c.01.03.03.05.04.08-.01-.01-.01-.02-.02-.02.37.93.07,2.26.84,3.02.27.27.17,1.39-.09,1.99-.19.43-.55.51-.64-.18-.04-.33.14-.72.15-1.08.01-.17-.24-.51-.25-.51-1.58,1.87-.31-3.01-1.63-1.71.41-.86.64-2.18,1.62-1.53Zm5.02,23.3c-3.93.31-7.88.55-11.81.91-.71.07-1.41.59-2.11.9.78-1.97,2.1-2.64,3.2-2.78,3.54-.46,7.11-.39,10.67-.47.39-.01,1.04-.41,1.07.68.04,1.14-.62.73-1.02.76Zm3.08-54.47c.61,2.14.39,3.77.14,5.39-.3-1.59-.5-3.17-.14-5.39Zm.45,39.56c-.5-1.99-.83-3.95.33-6.15-.13,2.36-.23,4.25-.33,6.15Zm7.97,4.34c-.88-.06-1.22.45-.85,1.83.12.43.57.89.01,1.32-.36.27.03,1.43-.64,1.29-.61-.13-.39-1.02-.48-1.52-.48-2.8-.13-3.48,1.73-3.55.54-.02,1.09-.05,1.96.64-.83,0-1.28.02-1.73-.01Z"/><path class="cls-1" d="m78.98,270.41v.18l.05-.03c-.02-.05-.03-.1-.05-.15Zm1.2,1.57h-.01l.05.05s.03-.05.05-.08c-.03,0-.06.01-.09.03Zm4.09,9.53c-.41-1.25-.8-2.52-1.16-3.81-1.04-3.74-2.1-7.47-3.09-11.25-.58-2.19-1.11-4.4-1.7-6.57-.23-.82-.09-1.77-.84-1.98.14,1.92.37,3.78,1.11,5.39.23.5.2,1.1-.16,1.44-.5.5-.57-.28-.7-.73-.8-2.88-1.58-5.78-2.38-8.67-.15-.53-.33-1.16.09-1.43.4-.26.75.14.87.87.09.55-.11,1.35.5,1.42.1,0,.27-.29.29-.47.06-.7.02-1.43-.34-1.92-.26-.34-.69-.32-.84-1.25.59.9,1.37-.16,1.85.94-.13-1.45-.55-2.7-.95-3.98-.58.63.24,1.41-.47,2.15-1.44-3.03-1.84-6.89-3.21-9.9.4-.63,2.21.71,1.06-1.92.03.69-.16,1.26-.6,1.31-.34.04-.61-.37-.64-1-.02-.52-.16-.86-.51-.92-.04.05-.08.1-.12.15-.13.62-.25,1.25-.38,1.87.04.25.08.51.12.76,1.2.77,1.26,2.73,1.75,4.24.06.17-.08.7-.21.79-.46.32-.62-.5-.95-.74-.38,3.06.91,5.59,1.52,8.08.59,2.35,1.55,4.78,2.24,7.25.83,2.95,1.57,5.95,2.56,8.78.02-1.41-.16-2.78-.52-4.07-.09-.33-.33-.71,0-.93.2-.13.68-.03.68.02.12,2.17,1.29,3.71,1.39,5.86.01.21-.16.43-.27.66.71-.21.84.75,1,1.49.73,3.35,1.76,6.49,2.68,9.73.6-.5.53-1.01.32-1.66Zm-9.32-30.16c-1.12-.25-.82-2.13-1.38-2.97,0-.04.12-.41.21-.43.23-.04.6-.13.61.32.02,1.1.84,1.79.56,3.08Z"/><path class="cls-1" d="m221.53,330.47c2.03-1,1.32-2.76.5-4.54-.39-.85-.28-1.82-.24-2.74.07-1.89.2-3.77.32-5.81.63.82.16,2.06.69,2.96.3-1.6,0-3.09,0-4.55.15-.01.3-.02.45-.03,0,1.96.06,3.92-.02,5.87-.09,2.27-.26,4.8.08,6.75.31,1.8-.34,3.04-.15,4.53.06.51-.14,1.18.29,1.43.31.18.42.47.29.84-.06.17-.34.17-.53.19-.35.03-.38-.39-.39-.79-.01-.39-.02-.79,0-1.18.06-1.52-.32-2.56-1.3-2.96,0,0,.02.03.02.03Z"/><path class="cls-1" d="m207.38,221.52c-.18-1.61-.33-2.97-.51-4.55-.63,1.36-.23,2.79-.55,4.03-.76-2.38-.3-7.8.78-9.64.29-.49.5-.67.81.01.6,1.33.34,8.39-.54,10.16Z"/><path class="cls-1" d="m109.14,309.38c-.45-.61-.3-1.03-.02-1.47,1.04-1.63,2.06-3.28,3.1-4.9.24-.37.78-.49.68-1.11-.31-1.79.8-.64,1.01-1.3.37.49,1.06-.22,1.26.89.23,1.23-.35,1.18-.8,1.67-.56.61-.76,2-1.52,2.45-.41.24-.6,2-1.28.48-.02-.04-.22.03-.24.1-.33,1.3-1,1.77-1.82,1.93-.39.08-.06.95-.35,1.26Z"/><path class="cls-1" d="m71.95,241.25c.04.25.08.51.12.76-.06,1.45.36,2.75.56,4.12-.54-.57-1.19-.23-1.86-.36,1.02-1.65.8-5-.48-5.95-.74-.55-.19-1.54-.62-1.99.7-.1-.04-2.69,1.27-1.83.13.09.44-.29.61-.54,1.15-1.69,1.54-.41,1.87,1.15-1.63-.31-.48,1.9-.96,2.63-.04.05-.08.1-.12.15-.87-.02-.31-2.81-1.68-2,.34,1.37.36,2.96,1.29,3.87Z"/><path class="cls-1" d="m118.2,349.31c-2.07-.61-3.66-2.84-5.61-3.98.87-1.22,1.66-1.7,2.69-.49,1.46,1.7,3.25,2.42,4.84,3.73.56.46,1.24.6,1.61,1.54,0,0,.03-.06.03-.06-1.65-.1-2.82-2.38-4.51-2.72.03,1.29.8,1.21.95,1.97Z"/><path class="cls-1" d="m66.03,216.67c-.59.65-.4,2.71-1.72,2.1-.35-.16-1.31-1.31-1.33.73-.63-.79-1.31.37-1.93-.12-.4-.32-.48-.95-.45-1.62.02-.59.13-1.19.53-1.24.57-.08.15.68.27.98.09.23.28.37.43.54.27-1.82,1.7-.63,2.16-2.07.21-.65.68-.92,1.17-.56.36.27.67.65.87,1.27Z"/><path class="cls-1" d="m62.02,261.84c.35-.81-.28-.75-.45-1.08-.55-1.09-.33-2.24-.09-3.35.22-1.01.8-.53,1.16-.39,1.06.41,1.14,1.59.69,2.9-.27.78-1.31.96-.72,2.38-.18.08-.36.26-.53.22-.29-.06-.48-.29-.06-.68Z"/><path class="cls-1" d="m294.41,249.28c-.22-.7-.37-1.1-.48-1.53-.4-1.57-.01-2.26,1.12-2.06.29.05.58.26.87-.03.27-.27-.07-1.04.39-1.14-.08,1.06.99.92.86,2.1-.11,1.07-.77,1-1.13,1.22-.58.34-1.41-.36-1.63,1.45Z"/><path class="cls-1" d="m223.51,275c.08,1.28-.31,1.3-.93.73-.33-.3-.68-.57-1.01-.87-.34-.3-.47-.8-.43-1.37.01-.2.11-.51.21-.55.54-.23.47.5.59.96.17.71.41.44.65.08.19-.29.23-1.01.61-.75.48.32.17,1.12.32,1.77Z"/><path class="cls-1" d="m8.37,242.97l.13.09c-.12.76.57,2.06-.43,2.18-.96.12-1.08-1.04-1-2.28.06-.89.08-1.79.12-2.86.76.84-.3,3.1,1.18,2.87Z"/><path class="cls-1" d="m18.51,191.06l.27.81c-.2.76-.67.56-1.03.73-.47.22-1.04.6-1.38-.08-.28-.55.07-1.16.41-1.57.51-.62.99-.96,1.45.11.03.07.19,0,.29,0Z"/><path class="cls-1" d="m314.94,345.69c0,2.04-.06,4.15.02,6.25.06,1.54-.18,2.19-1.02,1.77,1.61-2.27-.23-5.68,1-8.02Z"/><path class="cls-1" d="m340.95,335.4c-1.6-.07-2.86.5-4.28-.11,1.88-1.16,2.76-1.18,4.28.11Z"/><path class="cls-1" d="m111.86,321.87c.3-.31.62-.45.68-.72.47-2.45,1.29-.14,1.93-.3.35-.09.06.54-.1.76-.61.86-1.53.97-2.5.27Z"/><path class="cls-1" d="m37.27,177.64c1.26-.51,2.51-.36,3.73.37-1.26.54-2.49.05-3.73-.37Z"/><path class="cls-1" d="m221.98,317.17c-.35-2.07-.2-3.79-.02-5.62.59,1.65.62,3.37.02,5.62Z"/><path class="cls-1" d="m110.94,322.72c-.43,2.25-1.95,1.48-2.89,2.92.27-3.17,2.46-.63,2.89-2.92Z"/><path class="cls-1" d="m47.1,140.39c-.27-.49-.7-.92-.78-1.48-.08-.55-.14-1.39.34-1.83.2-.18.38-.65.61-.27.28.47.03,1.03,0,1.55-.05.69-.13,1.37-.2,2.06,0,0,.03-.04.03-.04Z"/><path class="cls-1" d="m58.36,139.19c.07-1.37.11-2.75.21-4.12.04-.49.34-.52.59-.41.25.11.21.41.16.73-.21,1.28-.4,2.57-.59,3.86l-.36-.06Z"/><path class="cls-1" d="m17.71,261.71c-.47,1.27-.68,2.86-1.1,3.96-.51,1.34-1.08,2.86-1.92,4.37.35-3.05,1.61-5.16,1.9-7.88.08-.75.75-.32,1.15-.41,0,0-.03-.05-.03-.05Z"/><path class="cls-1" d="m13.9,268.56c-1.37-1.98-2.04-4.59-2.65-7.25.88,2.42,1.77,4.83,2.65,7.25Z"/><path class="cls-1" d="m267.4,308.9c.1.95-.02,1.81-.75,1.82-.59,0-1.23-.55-.94-1.56.22-.78-.42-2.33.66-2.34.78,0,1.14.82,1.04,2.09Z"/><path class="cls-1" d="m266.99,301.91c0,1.7,1.52,1,1.05,2.71-.11.41-.97.82-1.1.62-.49-.77-.34-1.8.04-3.32Z"/><path class="cls-1" d="m288.7,244.41c.58.4.87.91.96,1.63.11.81-.3,1.27-.61,1.73-.2.29-.51.21-.68-.04-.38-.54.02-1,.17-1.4.21-.58.08-1.17.16-1.92Z"/><path class="cls-1" d="m29.61,194.39c.14-.74.34-1.15.68-1,.6.26.78,1.22,1.05,1.95.1.28-.45.62-.55.52-.44-.44-.83-1.02-1.18-1.47Z"/></g></svg>