<?xml version="1.0" encoding="UTF-8"?><svg id="Tree_01_-_Leaves_01" xmlns="http://www.w3.org/2000/svg" viewBox="0 0 1160 418.25"><defs><style>.cls-1{fill:#8fb223;stroke-width:0px;}</style></defs><path class="cls-1" d="m4.46,181.77c0,.09.06.2.14.25h0c-.09.73.67,1.5,1.16,1.9.37.31.79.56,1.14.88.62.59.62,1.22.21,1.93-.6,1.01-.99,2.06-.61,3.21.21.61.52,1.17.69,1.78.17.65.17,1.32.27,1.99-.17.17-.16.51.14.55.41.07.82.17,1.23.25.63.12,1.41.1,1.98.38.46.21.85.73,1.14,1.14.41.57.76,1.24.84,1.95.09.79-.35,1.38-.73,2.02-.31.56-.5,1.13-.57,1.76-.08.76-.06,1.52-.17,2.29-.11.77-.17,1.58-.35,2.34-.28,1.17-1.07,2.2-1.55,3.3-.27.6-.73,1.45-.08,1.96.74.59,1.76.62,2.64.37,1.11-.32,1.97-1.09,2.99-1.6.71-.35,1.36-.28,2.12-.27.54,0,1.09-.04,1.63-.12,1.46-.2,2.87-.79,4.34-.83.39-.02.93.06,1.24-.25.22-.21.26-.56.34-.84.39-1.38.54-2.76.69-4.18.14-1.31.51-2.63.42-3.96-.07-1.17-.39-2.31-.92-3.35-.61-1.22-1.5-2.17-1.11-3.63.17-.61.38-1.2.73-1.74.31-.5.74-.82,1.18-1.18.41-.35.75-.78.97-1.27.22-.47.24-1.06.52-1.49.51-.79,1.71-1,2.5-1.41.58-.3,1.07-.77,1.7-1.01.52-.21,1.1-.27,1.65-.36.6-.11,1.22-.24,1.72-.62.24-.2.43-.45.61-.71,0,.03,0,.06.02.08,0,.1.08.14.15.13,0,.06,0,.1,0,.15,0,.06.1.09.12.02.32-1.3.73-2.65.76-4,.05-1.22-.37-2.01-1.07-2.97-.84-1.12-1.01-2.48-1.49-3.76-.41-1.1-.53-2.09-1.56-2.79-.13-.08-.28.08-.2.2.04.07.09.14.14.2-.29.11-.57.41-.86.51-.89.27-1.44-.51-1.86-1.15-.77-1.17-1.87-1.44-3.21-1.42-1.44.02-2.89.15-4.34.03-.8-.06-1.55-.25-2.3-.56-.45-.19-.89-.4-1.39-.47-1.12-.15-2.12.53-2.9,1.26-.97.91-1.76,1.86-3.03,2.37-1.17.47-2.31.84-3.39,1.52-1,.63-1.89,1.44-2.39,2.53-.54,1.16-.67,2.42-.91,3.66-.14.7-.31,1.41-.63,2.05-.15.3-.49.62-.51.97Zm.56.16c.05-.06.06-.15.04-.22.07-.13.27-.36.32-.45.17-.29.29-.61.41-.92.23-.64.37-1.3.49-1.97.26-1.36.47-2.85,1.38-3.94.76-.92,1.87-1.6,2.96-2.07,1.12-.49,2.31-.75,3.3-1.52.91-.72,1.59-1.7,2.55-2.34.61-.4,1.27-.63,1.98-.44.51.14.97.39,1.47.57,1.19.43,2.49.46,3.74.39.74-.04,1.5-.07,2.25-.09.7-.02,1.42-.08,2.07.22s.95.82,1.35,1.38c.26.36.56.68.98.84.36.14.8.16,1.16,0,.29-.12.61-.53.9-.62.24.29.49.57.61.93.21.6.39,1.2.61,1.8.39,1.1.52,2.23,1.21,3.2.28.4.62.77.84,1.2.33.62.36,1.35.3,2.04-.06.89-.31,1.77-.41,2.65-.07-.04-.15-.04-.21.04-.55.61-.84,1.14-1.71,1.35-.65.17-1.33.17-1.99.29s-1.18.44-1.74.79c-.48.3-.97.51-1.5.72-.99.39-1.83.83-2.15,1.9-.2.65-.39,1.25-.89,1.74-.43.4-.91.71-1.27,1.18-.62.8-1.07,1.91-1.18,2.91-.13,1.27.59,2.18,1.21,3.2.68,1.1,1.04,2.42,1.06,3.71s-.33,2.61-.46,3.9c-.13,1.36-.27,2.71-.64,4.02-.1.39-.27.39-.67.41-.27,0-.54,0-.82.03-.65.06-1.29.23-1.92.39-1.34.33-2.65.59-4.04.51-1.14-.06-2.03.31-2.99.92-1.02.64-2.08,1.23-3.31.79-.17-.06-.53-.16-.59-.33-.04-.13.1-.4.15-.52.14-.38.31-.73.49-1.09.58-1.17,1.18-2.28,1.37-3.58.1-.67.21-1.35.3-2.03.08-.61.06-1.21.12-1.82.06-.72.32-1.3.7-1.91.29-.48.58-.96.64-1.52.13-1.01-.36-2.05-.92-2.86-.51-.74-1.07-1.45-1.97-1.66-.62-.14-1.24-.26-1.86-.33-.29-.04-.73-.04-.95-.07-.03,0-.05,0-.07,0,.13-1.23-.3-2.36-.74-3.49-.28-.72-.35-1.41-.02-2.13.25-.53.66-.99.86-1.54.35-.98-.23-1.75-.98-2.31-.42-.31-.86-.62-1.22-1.01-.2-.22-.38-.47-.47-.76-.06-.15-.08-.28-.13-.42Z"/><path class="cls-1" d="m5.06,181.7c.03.07,0,.16-.04.22.05.14.07.28.13.42.09.29.27.54.47.76.36.39.8.7,1.22,1.01.75.57,1.33,1.33.98,2.31-.2.55-.62,1.01-.86,1.54-.33.72-.26,1.41.02,2.13.44,1.13.87,2.26.74,3.49.03,0,.05,0,.07,0,.22.04.65.04.95.07.62.07,1.25.19,1.86.33.91.21,1.47.92,1.97,1.66.56.81,1.05,1.85.92,2.86-.06.56-.35,1.05-.64,1.52-.38.61-.63,1.19-.7,1.91-.06.61-.04,1.21-.12,1.82-.09.68-.2,1.36-.3,2.03-.19,1.3-.79,2.42-1.37,3.58-.17.36-.35.72-.49,1.09-.05.12-.18.39-.15.52.06.17.41.28.59.33,1.22.44,2.29-.15,3.31-.79.96-.61,1.85-.98,2.99-.92,1.39.07,2.7-.18,4.04-.51.63-.16,1.27-.33,1.92-.39.28-.03.55-.02.82-.03.4-.03.57-.03.67-.41.38-1.31.51-2.66.64-4.02.13-1.3.48-2.61.46-3.9s-.38-2.61-1.06-3.71c-.62-1.02-1.34-1.93-1.21-3.2.1-1,.55-2.11,1.18-2.91.36-.47.84-.77,1.27-1.18.51-.49.69-1.08.89-1.74.32-1.07,1.16-1.51,2.15-1.9.52-.21,1.02-.41,1.5-.72.56-.35,1.07-.67,1.74-.79s1.34-.13,1.99-.29c.86-.21,1.16-.74,1.71-1.35.06-.07.14-.07.21-.04.1-.88.35-1.76.41-2.65.06-.69.03-1.41-.3-2.04-.23-.43-.56-.8-.84-1.2-.69-.96-.83-2.09-1.21-3.2-.21-.6-.39-1.2-.61-1.8-.12-.36-.37-.63-.61-.93-.29.09-.61.51-.9.62-.36.16-.8.14-1.16,0-.42-.16-.73-.48-.98-.84-.4-.56-.71-1.07-1.35-1.38s-1.37-.24-2.07-.22c-.75.02-1.51.06-2.25.09-1.25.07-2.54.05-3.74-.39-.5-.17-.96-.43-1.47-.57-.72-.19-1.38.04-1.98.44-.96.64-1.64,1.63-2.55,2.34-.98.77-2.18,1.04-3.3,1.52-1.08.47-2.2,1.15-2.96,2.07-.91,1.09-1.12,2.58-1.38,3.94-.12.67-.26,1.33-.49,1.97-.12.31-.25.62-.41.92-.06.09-.25.32-.32.45Z"/><path class="cls-1" d="m39.52,151.04c-.02.75,0,1.51.17,2.24.14.59.41,1.45,1.05,1.67.03,0,.06,0,.07,0,.06.05.14.07.21.06.14.02.25-.06.3-.17,1.51-.73,3.12-1.52,4.83-1.06.7.19,1.36.48,2.08.58.71.1,1.42.02,2.13.08.91.07,1.76.51,2.04,1.42.17.6.16,1.23.26,1.84.12.67.37,1.35.64,1.97.23.49.55,1.12,1.01,1.46.06.17.31.3.51.15.61-.5,1.37-.96,2.13-1.18.39-.11.73-.18,1.07-.38s.61-.28,1.02-.3c.84-.02,1.68.13,2.53-.04.71-.14,1.55-.33,2.19-.68.59-.32,1.01-.87,1.4-1.41.4-.58.76-1.52,1.52-1.69.86-.2,1.79.02,2.65-.25.71-.22,1.21-.79,1.9-1.05.7-.26,1.47-.19,2.15-.49.5-.2.85-.58,1.17-1,.5-.67.97-1.17,1.84-1.23.73-.06,1.35.32,2.05.41.77.1,1.48-.19,2.25.04.71.2,1.34.61,1.95,1.01,1.22.8,2.58,1.46,3.49,2.64.36.48.69,1.07,1.22,1.39.51.3,1.11.35,1.58.74.61.51.75,1.22,1.06,1.91.24.53.71.84,1.09,1.26.45.47.86.99,1.43,1.3.6.33,1.25.51,1.85.85.65.37,1.23.75,1.7,1.35.31.39.61.87,1.14.96,1.03.16,1.91-1.02,2.32-1.8.64-1.21.85-2.51.86-3.87,0-.96.1-1.79.39-2.7.2-.63.21-1.19.06-1.84-.17-.72-.48-1.4-.47-2.15,0-.68.34-1.33.21-2.01-.12-.57-.52-.98-.89-1.42-.45-.54-.64-1.2-.92-1.85-.35-.83-.73-1.56-.91-2.44-.12-.53-.22-1.04-.62-1.42-.71-.7-1.76-.84-2.57-1.38-.41-.28-.8-.59-1.16-.92-.21-.18-.8-.62-.72-.95.03-.1-.06-.16-.14-.15,0,0,0,0,0,0-.61-.23-1.23.39-1.74.68-.61.36-1.25.3-1.86,0-.37-.17-.68-.32-1.1-.28-.45.03-.83.32-1.26.37-.45.05-.79-.66-.99-.98-.4-.63-.83-1.27-1.56-1.54s-1.56-.07-2.31.07c-.96.19-1.99.37-2.98.33-1.04-.04-2-.62-3.03-.62-.72,0-1.46.57-2.02.96-.82.57-1.47,1.22-2.5,1.39-.91.14-1.8.06-2.71.07-.86,0-1.52.3-2.21.8-.33.23-.65.49-1.01.67-.4.2-.84.27-1.29.35-.73.14-1.77-.03-2.39.47-.27.21-.35.52-.55.79-.3.37-.97.39-1.41.55-.51.18-1,.39-1.51.57-.37.13-.78.22-1.13.41-.6.35-.9,1-1.46,1.39-.95.66-1.97.2-2.76-.44-.36-.28-.73-.57-1.16-.74-.38-.15-.7-.13-1.09-.14-.54,0-1.03-.17-1.54-.34-.39-.13-.89-.18-1.25-.37-.85-.46-.83-1.63-.71-2.42.06-.33-.43-.49-.51-.14v.02c-.16.07-.28.17-.43.26-.46.28-.88.2-1.4.22-.41,0-.76.16-1.15.3-.41.17-.79.25-1.23.3-.62.06-1.18.23-1.56.78-.39.56-.5,1.29-.56,1.96-.09.83-.11,1.55-.42,2.33-.32.82-.3,1.61-.34,2.47Zm.68,1.75c-.12-.7-.07-1.41-.06-2.1,0-.41-.02-.84.06-1.24.07-.36.24-.69.37-1.03.22-.58.21-1.18.23-1.79.03-.66.06-1.4.4-1.97.44-.76,1.27-.6,2-.8.31-.09.6-.24.9-.36.46-.17.87-.15,1.35-.18.29-.02.52-.08.77-.25.1-.06.19-.16.29-.24-.14.73-.14,1.42.29,2.1.52.81,1.41.87,2.26,1.16.51.17,1,.28,1.54.29.67,0,1.14.19,1.69.58.82.56,1.53,1.1,2.58.96.77-.1,1.28-.5,1.77-1.07.28-.31.52-.62.92-.78.49-.21,1.02-.35,1.52-.54.48-.18.96-.39,1.45-.51.37-.09.72-.19.98-.47.32-.35.36-.82.88-.95.4-.1.84-.06,1.26-.11.84-.12,1.69-.27,2.41-.77.36-.25.69-.55,1.06-.79.48-.3.98-.41,1.54-.41.89,0,1.75.04,2.64-.09.96-.15,1.56-.62,2.32-1.18.43-.32.87-.61,1.35-.86.55-.3.96-.34,1.59-.17.98.26,1.86.54,2.9.48.96-.06,1.88-.23,2.83-.39,1.06-.19,1.91-.12,2.58.81.39.52.72,1.38,1.34,1.67.74.35,1.48-.53,2.29-.24.78.29,1.41.62,2.26.27.51-.2,1.22-1.05,1.75-.88.11.61,1.03,1.3,1.37,1.58.3.25.61.5.96.67.55.28,1.15.46,1.67.78.83.51.81,1.28,1.05,2.13.22.81.67,1.53.96,2.32.25.62.51,1.18.95,1.69.28.33.58.65.66,1.08.09.5-.12.97-.19,1.46-.19,1.42.84,2.73.45,4.12-.23.81-.46,1.51-.5,2.35-.03.84.02,1.69-.17,2.52-.26,1.15-.88,2.9-2.16,3.28-.67.2-1.07-.71-1.45-1.13-.42-.46-.97-.77-1.51-1.07-.63-.36-1.36-.54-1.97-.93-.6-.37-1.02-1-1.53-1.49-.35-.33-.59-.55-.76-1.02-.1-.28-.18-.58-.32-.84-.23-.46-.57-.86-.99-1.15-.5-.34-1.16-.38-1.62-.75-.51-.42-.83-1.07-1.25-1.56-.87-1-2.19-1.61-3.28-2.32-1.08-.71-2.18-1.31-3.5-1.15-.57.06-1.03.03-1.57-.14-.27-.08-.53-.17-.82-.22-.52-.08-1.07,0-1.56.2-.62.27-.92.74-1.32,1.25-.47.58-1.01.83-1.75.94-.71.1-1.36.21-1.97.59-.65.4-1.14.74-1.93.82-.72.06-1.56-.08-2.24.21-.45.19-.73.59-1.01.97-.41.6-.81,1.21-1.35,1.71-.52.5-1.19.61-1.86.8-.86.26-1.64.23-2.53.21-.59-.02-1.08,0-1.61.29-.61.34-1.3.43-1.91.74-.54.28-1.06.59-1.52.96-.17-.26-.37-.5-.52-.77-.23-.41-.4-.84-.56-1.29-.27-.76-.35-1.5-.45-2.29-.17-1.37-.96-2.24-2.36-2.42-.85-.11-1.72.02-2.56-.17-.81-.18-1.56-.57-2.39-.69-1.65-.24-3.3.57-4.76,1.23,0,0,0,0,0,0-.09-.18-.2-.36-.28-.54-.17-.35-.28-.73-.33-1.11Z"/><path class="cls-1" d="m40.14,150.7c-.02.7-.06,1.41.06,2.1.06.39.17.76.33,1.11.08.18.19.36.28.54,0,0,0,0,0,0,1.46-.66,3.1-1.47,4.76-1.23.83.12,1.58.51,2.39.69.84.19,1.71.06,2.56.17,1.41.18,2.2,1.06,2.36,2.42.1.79.18,1.52.45,2.29.16.44.33.87.56,1.29.16.28.35.51.52.77.46-.38.97-.69,1.52-.96.62-.31,1.3-.4,1.91-.74.52-.29,1.02-.31,1.61-.29.89.02,1.67.05,2.53-.21.67-.19,1.34-.3,1.86-.8.54-.5.94-1.11,1.35-1.71.28-.39.56-.78,1.01-.97.68-.29,1.52-.15,2.24-.21.79-.07,1.28-.41,1.93-.82.62-.38,1.27-.49,1.97-.59.73-.11,1.28-.36,1.75-.94.4-.51.71-.98,1.32-1.25.49-.21,1.04-.28,1.56-.2.28.05.55.14.82.22.54.17,1,.2,1.57.14,1.32-.17,2.42.44,3.5,1.15,1.09.72,2.41,1.32,3.28,2.32.42.49.74,1.14,1.25,1.56.46.38,1.12.41,1.62.75.42.28.76.69.99,1.15.14.27.22.56.32.84.17.47.41.69.76,1.02.51.49.94,1.12,1.53,1.49.62.39,1.34.57,1.97.93.53.3,1.08.62,1.51,1.07.39.42.78,1.33,1.45,1.13,1.28-.38,1.9-2.13,2.16-3.28.19-.83.15-1.67.17-2.52.04-.84.27-1.54.5-2.35.39-1.4-.64-2.7-.45-4.12.07-.49.28-.96.19-1.46-.08-.43-.38-.75-.66-1.08-.43-.51-.7-1.07-.95-1.69-.29-.79-.74-1.52-.96-2.32-.24-.85-.22-1.63-1.05-2.13-.52-.32-1.12-.51-1.67-.78-.35-.17-.65-.42-.96-.67-.34-.28-1.26-.97-1.37-1.58-.52-.17-1.24.68-1.75.88-.84.36-1.48.03-2.26-.27-.81-.29-1.54.59-2.29.24-.62-.29-.96-1.15-1.34-1.67-.67-.93-1.52-1-2.58-.81-.95.16-1.87.32-2.83.39-1.04.06-1.92-.22-2.9-.48-.62-.17-1.04-.13-1.59.17-.48.26-.92.54-1.35.86-.76.57-1.36,1.04-2.32,1.18-.89.13-1.75.09-2.64.09-.56,0-1.07.11-1.54.41-.37.24-.7.54-1.06.79-.72.51-1.56.65-2.41.77-.41.06-.85,0-1.26.11-.52.13-.56.6-.88.95-.27.28-.62.38-.98.47-.5.12-.97.32-1.45.51-.5.19-1.03.33-1.52.54-.39.17-.64.47-.92.78-.5.57-1,.96-1.77,1.07-1.05.15-1.76-.39-2.58-.96-.55-.39-1.02-.57-1.69-.58-.54,0-1.04-.13-1.54-.29-.84-.28-1.74-.35-2.26-1.16-.43-.68-.43-1.38-.29-2.1-.1.08-.19.17-.29.24-.25.17-.48.23-.77.25-.48.04-.89,0-1.35.18-.3.12-.59.27-.9.36-.73.2-1.56.04-2,.8-.35.58-.38,1.31-.4,1.97-.02.62,0,1.21-.23,1.79-.13.34-.29.67-.37,1.03-.08.4-.06.83-.06,1.24Z"/></svg>