<?xml version="1.0" encoding="UTF-8"?><svg id="Tree_01_-_Leaves_02" xmlns="http://www.w3.org/2000/svg" viewBox="0 0 1160 418.25"><defs><style>.cls-1{fill:#a2c81b;stroke-width:0px;}</style></defs><path class="cls-1" d="m8.47,211.42s-.04.02-.06.02-.03,0-.04,0c-.06,0-.1.03-.14.06-.11.1-.06.27.05.34,0,0,.02,0,.04,0,0,0-.02,0-.02.03-.11.54-.2,1.08-.23,1.64-.03.62.18,1.19.08,1.82-.16.91-.14,1.78.05,2.68.18.96.72,1.85,1.39,2.56.71.74,1.63,1.22,2.44,1.82.72.53,1.08,1.34,1.75,1.92.62.54,1.38.75,2.17.9.96.18,1.89.44,2.85.58.94.14,1.87.43,2.81.46,2.07.04,4.06-.85,6.13-.64,1.02.09,1.97.28,3,.22.99-.05,1.97-.18,2.96-.34.51-.09,1.01-.2,1.53-.19.39,0,.79.06,1.18.02.74-.08,1.29-.56,1.78-1.09.67-.73,1.18-1.52,2.18-1.84.98-.32,1.93-.14,2.92-.22.76-.06,1.39-.41,1.85-1.01.53-.69.69-1.67,1.46-2.14.66-.41,1.21-.52,1.61-1.24.23-.4.41-.93.18-1.37,0-.02.02-.04.02-.06-.06-.65-.66-1.11-1.31-1.07-.36,0-.62.28-.94.42-.52.27-1.08.4-1.61.68-1.05.56-1.99.99-3.21.94-1.13-.05-2.13-.51-3.21-.78-1.05-.26-1.99.04-3.05.06-1.13.02-2.25-.27-3.35-.47-1-.19-1.97-.41-2.94-.76-.93-.34-1.34-1.47-1.85-2.25-.28-.44-.66-.81-.91-1.26-.27-.47-.51-.95-.81-1.39-.15-.21-.32-.39-.46-.61-.16-.25-.17-.47-.24-.73-.1-.38-.65-.96-.25-1.33.24-.21-.14-.59-.35-.35-.06.07-.11.15-.16.22-.26-.09-.55-.06-.84-.07-.66-.04-1.22-.06-1.87.12-.74.21-1.48.46-2.24.62-.83.17-1.6.17-2.43.11-.68-.05-1.34-.07-1.98.17-.6.23-1.13.59-1.64.96-.53.38-1,.65-1.65.79-.54.12-1.23.03-1.74.24-.07.03-.11.08-.13.14h0c-.06.05-.12.09-.17.14-.08.09-.17.17-.26.27l-.12.12-.06.06s-.03.02-.04.02c-.02.02-.05.03-.07.05h-.02s0,0,0,0Zm.16,5.74c-.05-.43-.06-.88,0-1.31.06-.41.17-.8.13-1.21-.05-.46-.15-.85-.11-1.31.05-.47.1-.91.07-1.38,0-.06-.03-.09-.06-.13.04-.02.08-.03.11-.05.12-.07.21-.17.3-.27.08-.1.16-.2.25-.29.04-.05.08-.09.13-.13,0,0,0,0,0,0,.44.11,1.02-.02,1.45-.08.52-.09,1.06-.23,1.52-.5.52-.31.97-.73,1.51-1.04.65-.38,1.26-.51,2.01-.49.72.04,1.42.13,2.14.03.71-.1,1.41-.28,2.08-.5.74-.23,1.47-.56,2.27-.54.24,0,.47.04.71.02.14,0,.35-.06.54-.07-.03.17,0,.34.06.53.06.18.16.34.24.51.13.27.14.53.23.8.18.51.66.93.95,1.38.31.51.55,1.04.92,1.5.64.83,1.08,1.76,1.74,2.58.47.6,1.37.81,2.06,1,1.08.31,2.21.5,3.32.69,1.11.2,2.12.19,3.23.06,1.26-.15,2.29.34,3.47.65.93.24,1.94.31,2.87.09,1.11-.27,1.97-1,3.01-1.41.25-.1.49-.2.73-.35.18-.11.35-.28.58-.31.55-.06.86.35,1.07.76,0,.02-.02.03,0,.06,0,0,0,.02,0,.03-.04.08,0,.14.06.17.11.42-.22.94-.47,1.24-.28.33-.62.48-1,.65-.82.37-1.11.92-1.51,1.68-.55,1.03-1.26,1.57-2.46,1.54-.89-.03-1.75-.06-2.61.24-.73.25-1.21.67-1.71,1.23-.51.59-1.07,1.42-1.87,1.62-.73.17-1.54-.03-2.3.1-.96.15-1.92.31-2.88.39-.99.08-1.93.06-2.9-.08-.89-.13-1.73-.15-2.62-.04-.85.11-1.7.3-2.55.43-1.07.17-2.02.17-3.09-.07-1.63-.38-3.34-.45-4.96-.92-.97-.28-1.48-.91-2.07-1.68-.44-.58-.99-.98-1.6-1.39-1.6-1.07-2.79-2.44-2.99-4.43Z"/><path class="cls-1" d="m8.64,215.84c-.06.43-.06.88,0,1.31.2,1.98,1.4,3.35,2.99,4.43.61.4,1.16.81,1.6,1.39.59.77,1.09,1.4,2.07,1.68,1.62.47,3.32.54,4.96.92,1.07.24,2.01.24,3.09.07.85-.13,1.7-.32,2.55-.43.89-.11,1.73-.09,2.62.04.97.15,1.91.17,2.9.08.96-.08,1.92-.25,2.88-.39.75-.13,1.56.07,2.3-.1.8-.19,1.36-1.03,1.87-1.62.5-.56.98-.98,1.71-1.23.85-.29,1.72-.27,2.61-.24,1.2.03,1.91-.51,2.46-1.54.39-.76.69-1.31,1.51-1.68.39-.17.73-.32,1-.65.25-.3.58-.82.47-1.24-.06-.03-.1-.08-.06-.17,0,0,0-.02,0-.03,0-.03,0-.04,0-.06-.21-.41-.52-.83-1.07-.76-.23.03-.39.2-.58.31-.24.15-.48.25-.73.35-1.04.4-1.9,1.14-3.01,1.41-.94.22-1.95.15-2.87-.09-1.18-.31-2.21-.8-3.47-.65-1.11.14-2.12.15-3.23-.06-1.1-.19-2.23-.38-3.32-.69-.69-.19-1.59-.4-2.06-1-.65-.82-1.09-1.75-1.74-2.58-.37-.46-.61-.99-.92-1.5-.28-.45-.76-.87-.95-1.38-.09-.27-.1-.53-.23-.8-.08-.17-.17-.33-.24-.51-.06-.19-.08-.37-.06-.53-.19.02-.4.06-.54.07-.24.02-.47,0-.71-.02-.8-.02-1.52.31-2.27.54-.68.21-1.38.39-2.08.5-.72.1-1.42,0-2.14-.03-.75-.03-1.36.11-2.01.49-.53.3-.98.73-1.51,1.04-.47.27-1,.4-1.52.5-.43.06-1.01.19-1.45.08,0,0,0,0,0,0-.05.04-.09.08-.13.13-.09.09-.17.19-.25.29-.09.1-.18.19-.3.27-.03.02-.07.03-.11.05.04.04.06.07.06.13.03.47-.03.91-.07,1.38-.04.46.06.85.11,1.31.05.41-.07.8-.13,1.21Z"/><path class="cls-1" d="m61.23,177.35c-.15.69.21,1.31.37,1.97.2.85-.04,1.71-.25,2.53-.19.75-.18,1.46-.07,2.22.11.79.52,1.38.75,2.12.2.63.02,1.32.17,1.97.16.64.64,1.09,1.1,1.53.29.28.58.49.91.64,0,.02,0,.03,0,.04-.04.3.34.34.5.15l.17.06c.15.04.31-.17.17-.28-.07-.06-.15-.12-.22-.17.03-.2.08-.39.22-.55.21-.25.51-.4.71-.68.25-.34.39-.75.62-1.12.25-.42.53-.82.79-1.24.47-.78.73-1.66,1.14-2.48.2-.43.37-.81.77-1.1.33-.23.64-.47.96-.72.69-.56,1.44-.9,2.2-1.37.34-.21.64-.56,1.03-.69s.83-.05,1.22-.12c.89-.17,1.65.16,2.54.18.94.04,1.86.05,2.8.18.83.13,1.63.37,2.47.44.93.09,1.86.06,2.78.14,1.84.14,3.68.49,5.49.85,1.53.3,2.72,1.08,3.79,2.2,1,1.05,2.07,2.12,3.21,3,.38.29,2.54,2.06,3.25,1.72,0,0,0,.02.02.02v.27c0,.06.08.06.1,0,.02-.05.03-.09.04-.14.08,0,.17-.08.12-.17-.03-.02-.04-.05-.06-.06.11-.51.07-1.06.16-1.57.09-.58.32-1.13.45-1.7.24-1.04-.03-2.09-.32-3.1-.11-.37-.24-.77-.51-1.06-.28-.29-.67-.47-.96-.75-.48-.45-.74-.95-.95-1.57-.14-.43-.16-.88-.27-1.32-.17-.69-.73-1.1-1.35-1.37-.81-.35-2.07-.5-2.61-1.27-.24-.34-.28-.79-.46-1.17-.17-.34-.41-.64-.69-.91-.35-.32-.73-.6-1.08-.93-.34-.31-.59-.71-.91-1.04-.73-.75-1.59-.8-2.57-.98-1.11-.21-2.14-.71-3.19-1.11-.05-.02-.08-.02-.12,0-.62-.32-1.26-.55-1.95-.65-.89-.12-1.55.1-2.36.4-1.55.59-3.41-.26-4.87.65-.56.35-.97.86-1.42,1.34-.55.58-1.18,1.04-1.94,1.3-.78.28-1.56.28-2.37.4-.78.13-1.51.49-2.31.5-1.52.02-2.95-.2-4.45.23-.54.16-1.15.36-1.54.79-.43.49-.46,1.13-.55,1.75-.11.64-.52,1.16-.65,1.79Zm.87,7.63c-.34-.78-.5-1.81-.36-2.65.11-.72.33-1.4.38-2.12.03-.62-.15-1.18-.31-1.79-.14-.51-.17-.9.07-1.38.12-.23.27-.45.36-.69.22-.54.17-1.14.35-1.68.39-1.25,2.52-1.41,3.59-1.43.81,0,1.63.13,2.44.08.64-.04,1.24-.29,1.86-.44.71-.17,1.44-.15,2.16-.32.56-.14,1.11-.36,1.6-.66,1.1-.69,1.78-2.15,3.07-2.5,1.37-.36,2.8.15,4.13-.39.69-.28,1.3-.5,2.06-.42.69.07,1.37.31,2,.6.03.06.06.1.13.13,1.11.43,2.21.93,3.4,1.1.6.09,1.22.1,1.75.43.48.3.76.79,1.15,1.2.58.62,1.39,1.03,1.84,1.75.41.68.39,1.41,1.11,1.87.64.41,1.4.58,2.09.85.43.17.89.39,1.14.81.25.39.2.89.31,1.33.21.85.56,1.57,1.21,2.17.3.28.73.46.98.79.29.39.39.96.5,1.42.12.51.28,1.05.28,1.56,0,.54-.17,1.07-.3,1.59-.19.73-.28,1.49-.28,2.24-.02,0-.04.03-.05.05-.21.46-2.27-1.07-2.53-1.27-1.18-.86-2.18-1.95-3.21-2.97-1-.98-1.9-1.92-3.24-2.42-.76-.28-1.58-.39-2.38-.54-.93-.17-1.86-.33-2.79-.46-1.8-.26-3.67-.1-5.45-.5-.82-.18-1.63-.33-2.46-.39-.96-.07-1.87-.04-2.82-.23-.77-.17-1.45.03-2.23.04-.76.02-1.18.51-1.81.86-.68.39-1.35.71-1.97,1.2-.56.44-1.31.8-1.69,1.42-.39.63-.67,1.33-.96,2.02-.35.81-.87,1.5-1.32,2.25-.21.33-.34.73-.58,1.04-.2.28-.51.43-.73.69-.14.16-.22.33-.27.51-.33-.26-.64-.51-.94-.82-.26-.27-.51-.55-.6-.93-.08-.39-.04-.8-.06-1.18-.05-.7-.35-1.2-.62-1.84Z"/><path class="cls-1" d="m61.74,182.34c-.14.84.02,1.86.36,2.65.28.63.58,1.14.62,1.84.03.39-.02.8.06,1.18.09.38.34.66.6.93.29.3.61.56.94.82.05-.18.13-.36.27-.51.22-.26.52-.41.73-.69.24-.31.37-.71.58-1.04.45-.75.97-1.44,1.32-2.25.29-.69.57-1.39.96-2.02.38-.62,1.13-.98,1.69-1.42.62-.5,1.29-.82,1.97-1.2.63-.35,1.05-.84,1.81-.86.78,0,1.46-.2,2.23-.04.95.19,1.86.16,2.82.23.84.06,1.64.21,2.46.39,1.77.39,3.65.24,5.45.5.94.13,1.86.29,2.79.46.8.15,1.62.26,2.38.54,1.34.51,2.24,1.44,3.24,2.42,1.04,1.02,2.04,2.1,3.21,2.97.27.2,2.32,1.73,2.53,1.27,0-.02.03-.04.05-.05,0-.75.08-1.52.28-2.24.14-.51.31-1.05.3-1.59,0-.51-.17-1.06-.28-1.56-.1-.47-.2-1.03-.5-1.42-.25-.33-.68-.51-.98-.79-.65-.6-1-1.31-1.21-2.17-.11-.44-.06-.94-.31-1.33-.25-.41-.71-.63-1.14-.81-.7-.28-1.45-.44-2.09-.85-.73-.47-.7-1.19-1.11-1.87-.45-.73-1.26-1.14-1.84-1.75-.39-.41-.67-.9-1.15-1.2-.52-.33-1.15-.34-1.75-.43-1.18-.17-2.29-.67-3.4-1.1-.06-.03-.1-.07-.13-.13-.63-.28-1.31-.52-2-.6-.75-.07-1.37.15-2.06.42-1.33.54-2.76.04-4.13.39-1.29.35-1.97,1.81-3.07,2.5-.49.3-1.04.52-1.6.66-.72.17-1.45.15-2.16.32-.62.15-1.22.4-1.86.44-.81.05-1.63-.09-2.44-.08-1.07.02-3.2.18-3.59,1.43-.18.54-.13,1.14-.35,1.68-.09.24-.24.46-.36.69-.24.48-.21.87-.07,1.38.17.61.34,1.17.31,1.79-.05.73-.27,1.41-.38,2.12Z"/></svg>