<?xml version="1.0" encoding="UTF-8"?><svg id="Tree_01_-_Leaves_03" xmlns="http://www.w3.org/2000/svg" viewBox="0 0 1160 418.25"><defs><style>.cls-1{fill:#b6d01c;stroke-width:0px;}</style></defs><path class="cls-1" d="m4.34,163.7c-.11.13-.09.28-.03.39-.1.26.06.5.23.71.42.55.36.95.34,1.61-.04.96.08,2.02.58,2.87.47.81,1.4,1.21,1.85,2.02.29.54.12,1.08-.04,1.64-.06.24-.08.73-.27.9-.36.33.2.9.54.54.02-.02.03-.05.05-.06.34-.13.68-.24,1-.43.34-.2.65-.44.99-.64.71-.42,1.53-.59,2.32-.81.65-.17,1.47-.2,2.01-.64.21-.17.37-.4.54-.62.24-.29.55-.5.84-.72.26-.19.52-.39.73-.62.23-.25.38-.54.62-.77.41-.4.94-.46,1.49-.49.86-.05,1.47.22,2.23.55.63.27,1.17.23,1.84.15.78-.09,1.48.17,2.24.21.75.05,1.5-.06,2.26.04.41.06.75.12,1.06.44.17.18.29.42.44.63.35.52.76,1,1.25,1.41.39.33.88.75,1.42.73.51-.02.89-.38,1.27-.67,1.16-.91,2.3-1.86,3.83-1.97.84-.06,1.69.08,2.53.15.41.03.82.03,1.18-.2.69-.44.73-1.38,1.22-1.97.17.06.39-.1.27-.29-.13-.22-.03-.67-.03-.93,0-.39-.06-.74-.18-1.11-.37-1.06-.83-2.08-.86-3.22,0-.57.09-1.14.02-1.72-.07-.61-.26-1.18-.08-1.79.15-.51.39-.96.48-1.49.06-.37.03-.74.06-1.11.05-.03.07-.07.04-.14-.44-.8-1.07-1.4-1.8-1.94-.52-.39-.62-.83-.78-1.42-.13-.52-.35-1.03-.43-1.57-.13-.76.03-1.53-.46-2.2-.48-.67-1.35-1.14-2.08-1.5-.73-.35-1.53-.59-2.35-.53-.96.06-1.86.29-2.83.32-.94.02-1.87.28-2.79.4-.45.06-.84.25-1.29.36-.33.09-.68.11-1.02.17-.61.1-1.16.28-1.43.89-.17.39-.23.79-.51,1.14-.25.28-.58.48-.87.71-.54.42-.79.99-.98,1.63-.15.51-.26,1.45-.85,1.65-.39.12-.84.03-1.25.02-.41,0-.84.02-1.23.15-.6.19-1.01.6-1.25,1.17-.15.34-.23.71-.39,1.05-.21.44-.5.62-.93.78-.81.29-1.12,1.32-2,1.44-.86.11-1.54.23-2.31.69-.78.48-1.46,1-2.31,1.37-.39.17-.81.33-1.15.61-.35.28-.63.62-1.01.85-.61.4-1.53.6-1.98,1.18Zm.36.51s.06-.03.09-.06c.28-.31.76-.43,1.14-.62.41-.22.84-.45,1.2-.75.36-.31.62-.67,1.06-.9.41-.23.87-.39,1.3-.6.89-.45,1.59-1.21,2.55-1.53.44-.15.89-.1,1.33-.2.43-.09.73-.35,1.02-.65.31-.32.54-.67.97-.81.27-.07.5-.13.72-.31.54-.43.67-1.08.93-1.69.39-.88,1.18-1.01,2.07-.98.58,0,1.25.09,1.73-.31.4-.35.55-.93.7-1.42.22-.76.37-1.38,1.04-1.87.54-.39,1-.81,1.23-1.46.15-.4.21-.76.66-.93.32-.11.67-.15,1-.19.38-.06.72-.16,1.07-.28.41-.15.82-.19,1.25-.25.48-.06.93-.19,1.4-.28.46-.09.9-.09,1.36-.14.9-.07,1.78-.44,2.69-.38.96.07,1.86.53,2.65,1.05.7.46,1.18.92,1.26,1.77.03.39.03.77.11,1.16.09.44.26.85.4,1.28.23.69.28,1.23.9,1.67.73.52,1.34,1.05,1.86,1.78-.22.36-.13.85-.21,1.25-.11.55-.39,1.03-.52,1.56-.12.51,0,1.04.08,1.54.1.67-.02,1.32,0,1.99.05,1.18.49,2.21.84,3.32.14.42.14.83.14,1.27,0,.2-.02.46.06.67-.65.55-.84,1.81-1.75,1.87-.78.05-1.63-.22-2.41-.25-.79-.04-1.59.05-2.31.38-.62.27-1.15.66-1.68,1.07-.43.32-.98.89-1.49,1.08-.7.27-1.48-.65-1.9-1.14-.38-.43-.62-.96-1.01-1.39-.86-.93-2.44-.64-3.57-.62-.72,0-1.41-.26-2.13-.2-.33.03-.67.12-1.01.14-.47.02-.84-.15-1.26-.34-1-.48-2.28-.68-3.34-.23-.4.17-.69.48-.96.83-.44.57-1.03.9-1.5,1.43-.39.43-.68,1-1.26,1.18-.7.23-1.46.33-2.18.53-.65.17-1.25.37-1.82.73-.28.17-.54.38-.83.53-.17.09-.35.17-.53.22.03-.12.05-.24.06-.35.1-.5.28-1,.25-1.52-.06-1.02-.84-1.55-1.53-2.2-.89-.84-1.14-1.98-1.17-3.18-.02-.48.06-.99-.15-1.45-.09-.2-.24-.36-.39-.51-.08-.1-.15-.2-.22-.3Z"/><path class="cls-1" d="m4.79,164.15s-.06.06-.09.06c.07.1.14.2.22.3.15.16.29.31.39.51.21.46.13.97.15,1.45.03,1.19.28,2.34,1.17,3.18.69.64,1.48,1.18,1.53,2.2.03.51-.15,1.02-.25,1.52-.02.11-.04.23-.06.35.18-.06.36-.13.53-.22.28-.16.55-.36.83-.53.57-.37,1.17-.56,1.82-.73.72-.2,1.48-.3,2.18-.53.58-.18.86-.75,1.26-1.18.47-.53,1.06-.86,1.5-1.43.27-.35.55-.65.96-.83,1.07-.45,2.34-.25,3.34.23.42.19.79.36,1.26.34.34-.02.68-.11,1.01-.14.73-.06,1.41.21,2.13.2,1.13-.02,2.71-.3,3.57.62.39.42.63.96,1.01,1.39.42.49,1.2,1.41,1.9,1.14.51-.19,1.06-.76,1.49-1.08.53-.4,1.07-.8,1.68-1.07.73-.33,1.52-.41,2.31-.38.78.03,1.63.29,2.41.25.92-.06,1.1-1.32,1.75-1.87-.07-.21-.06-.47-.06-.67,0-.44,0-.84-.14-1.27-.36-1.1-.8-2.14-.84-3.32-.02-.67.1-1.32,0-1.99-.07-.51-.2-1.03-.08-1.54.13-.53.41-1.01.52-1.56.08-.39,0-.89.21-1.25-.51-.73-1.13-1.26-1.86-1.78-.62-.44-.67-.98-.9-1.67-.15-.42-.31-.84-.4-1.28-.08-.39-.08-.76-.11-1.16-.08-.85-.56-1.31-1.26-1.77-.8-.51-1.69-.97-2.65-1.05-.91-.06-1.79.3-2.69.38-.46.05-.9.05-1.36.14-.47.09-.92.22-1.4.28-.43.06-.84.1-1.25.25-.36.13-.7.22-1.07.28-.33.05-.68.08-1,.19-.45.17-.51.52-.66.93-.23.65-.69,1.07-1.23,1.46-.67.5-.82,1.11-1.04,1.87-.15.5-.29,1.07-.7,1.42-.48.4-1.15.32-1.73.31-.89-.03-1.68.1-2.07.98-.26.61-.39,1.26-.93,1.69-.22.18-.45.24-.72.31-.43.14-.66.49-.97.81-.29.3-.59.56-1.02.65-.44.1-.89.06-1.33.2-.96.32-1.66,1.08-2.55,1.53-.43.21-.89.37-1.3.6-.43.23-.7.59-1.06.9-.37.3-.79.53-1.2.75-.38.18-.85.3-1.14.62Z"/><path class="cls-1" d="m46.06,142.84c-.05.52.12,1.03.18,1.54.06.39.07.82.21,1.2.11.34.33.64.64.82.47.25.94.11,1.42.1.6,0,1.14.3,1.74.33.56.02,1.27-.24,1.64.28.26.34.45.63.87.74.44.12.92.06,1.36.11,1.08.12,1.96.02,2.87-.59.84-.57,1.54-1.34,2.56-1.61.89-.24,1.76-.08,2.53-.66.35-.26.64-.58.99-.83.47-.33.98-.39,1.53-.45.45-.06.87-.11,1.26-.37.36-.24.66-.55,1.04-.78.86-.55,2-.72,3-.8.54-.05,1.09.08,1.63.02.44-.06.88-.23,1.3-.39.9-.33,1.58-.82,2.22-1.52.87-.93,2.32-.29,3.4-.11,1.03.17,1.86-.19,2.87-.34,1.01-.16,2.17-.1,2.96.62.7.65,1.17,1.65,2.02,2.13.29.17.59.18.9.06.2-.08.38-.23.59-.29.27-.07.59-.04.86,0,.53.05,1.06.29,1.59.3.39,0,.75-.18,1.07-.39.49-.3.92-.69,1.4-.99.48-.29.94-.34,1.47-.44.48-.09.97-.26,1.36-.55.28-.21.51-.62.84-.72.02,0,.03-.02.04-.03.06,0,.13-.04.14-.13.12-1.09-.76-2-.82-3.08-.04-.68.14-1.36.35-2.01.2-.59.39-1.24.7-1.78.58-1.07,1.42-1.97,1.95-3.09.27-.56.64-1.01,1.2-1.29.17-.09.39-.14.54-.26.16-.11.22-.28.34-.42,0,0,0,0,0,0,.03-.03.05-.06.04-.11,0,0,0,0,0,0,0,0,0,0,0-.03,0-.04,0-.07,0-.11,0-.06,0-.11-.02-.17-.03-.17-.08-.34-.14-.51-.14-.43-.27-.87-.36-1.31s-.17-.88-.29-1.32c-.1-.37-.16-.76-.29-1.11-.2-.52-.65-.73-1.14-.94-.28-.12-.96-.44-1.3-.24-.5-.02-.98.15-1.49.13-.78-.03-1.57-.25-2.17-.77-.75-.65-1.38-1.79-2.49-1.78-.53,0-1.01.27-1.53.3-.72.05-1.19-.51-1.67-.96-.86-.83-2-1.33-3.14-1.65-1.36-.39-2.68-.29-4.07-.38-.51-.03-1.05-.1-1.52.09-.17.07-.31.17-.45.3-.06.06-.12.17-.18.24-.23.21-.51.24-.8.26-1.23.09-2.49.18-3.7.45-.62.14-1.13.36-1.66.71-.37.24-.73.39-.93.79-.39.77-1.07.45-1.75.3-.6-.12-1.2-.11-1.81-.15-.51-.02-1.07-.11-1.55.12-.41.18-.55.5-.64.88-.1.22-.2.44-.33.65-.16.25-.39.39-.62.58-.57.44-.97,1.11-1.62,1.46s-1.4.3-2.1.33c-.62.02-1.26.09-1.88.2-.94.16-2.09.43-2.81,1.11-.28.26-.46.51-.82.68-.25.11-.51.16-.78.22-.57.14-1.11.35-1.66.54-.42.16-.88.3-1.22.62s-.53.76-.69,1.19c-.41,1.08-.31,2.21-.41,3.34-.07.73-.21,1.45-.43,2.15-.19.62-.57.96-1.07,1.35-.68.53-1.91.97-2,1.96-.12,1.27.4,2.53-.2,3.75-.37.74-.95,1.52-.99,2.39-.02.04-.05.06-.06.1Zm.53,0s-.02-.05-.03-.07c.14-.52.33-1.02.59-1.5.27-.46.53-.94.65-1.46.12-.59.02-1.21-.02-1.81-.02-.35-.07-.71-.06-1.06,0-.55.23-.83.67-1.12.8-.54,1.78-1,2.2-1.93.45-1,.61-2.26.65-3.34.04-1.15,0-2.78.97-3.59.43-.35,1.06-.45,1.56-.66.54-.21,1.09-.35,1.63-.53.44-.15.75-.38,1.06-.73.41-.51.87-.73,1.51-.88,1.23-.28,2.5-.39,3.75-.44.52-.02,1.06-.07,1.53-.29.49-.23.84-.61,1.21-.98.37-.39.86-.7,1.18-1.13.15-.2.24-.43.31-.67.05-.02.08-.05.1-.09.2-.46.38-.82.91-.88.29-.04.6,0,.89.02.72.03,1.41.04,2.11.2.43.09.96.23,1.39.02.19-.09.3-.23.4-.42.12-.23.13-.39.36-.57.08-.06.17-.1.26-.16.53-.34.99-.66,1.63-.83.57-.15,1.16-.19,1.74-.28.75-.1,1.48-.17,2.24-.19.38-.02.63-.12.88-.41.5-.58,1.1-.53,1.81-.49.66.05,1.32,0,1.98.03,1.41.07,2.83.47,4.06,1.16.88.5,1.53,1.68,2.58,1.82.45.06.86-.1,1.29-.2.66-.16,1.14-.05,1.65.41.68.61,1.14,1.39,2.01,1.75.55.23,1.18.35,1.78.33.48-.02.94-.19,1.41-.18.05,0,.08-.02.11-.05.46,0,.91.23,1.31.42.29.15.49.34.59.65.12.39.19.79.29,1.18.13.46.18.93.29,1.39.1.44.23.86.38,1.29.05.14.06.41.16.58-.17.11-.3.26-.51.34-.25.11-.44.17-.66.33-.39.28-.7.62-.91,1.04-.29.59-.6,1.15-.97,1.68-.36.51-.77,1.01-1.07,1.56s-.5,1.19-.7,1.78c-.19.59-.36,1.19-.38,1.81-.02.57.13,1.08.37,1.59.23.5.66,1.22.51,1.8-.3.09-.53.37-.77.56-.48.38-1.09.51-1.68.6-.55.08-1,.23-1.47.54s-.9.68-1.4.95c-1.01.54-2.18-.39-3.28-.07-.18.06-.34.17-.51.25-.39.18-.64.06-.95-.22-.4-.36-.69-.81-1.04-1.2-.58-.67-1.21-1.2-2.11-1.32-.88-.11-1.75-.04-2.61.19-.6.16-1.16.28-1.78.18-.5-.07-.98-.22-1.49-.29-.8-.13-1.6-.24-2.24.34-.4.36-.72.74-1.18,1.03-.42.26-.89.43-1.37.59-.58.18-1.07.26-1.67.21-.46-.03-.91,0-1.36.06-.88.13-1.78.26-2.56.71-.37.2-.68.48-1.01.73-.48.36-.98.38-1.56.45-.84.1-1.4.42-2.03.97-.39.33-.75.62-1.29.68-.42.05-.84.05-1.25.13-.96.17-1.72.7-2.48,1.28-.35.26-.7.53-1.1.72-.57.26-1.12.26-1.74.19-.44-.05-1.08.07-1.49-.1-.32-.14-.41-.48-.65-.7-.28-.25-.68-.31-1.04-.33-.58-.03-1.07,0-1.64-.17-.51-.15-.92-.17-1.45-.12-.5.05-.84-.07-1.04-.55-.15-.37-.17-.77-.23-1.15-.07-.44-.23-.88-.21-1.33Z"/><path class="cls-1" d="m46.56,142.77s.03.05.03.07c-.02.45.14.89.21,1.33.06.38.08.78.23,1.15.19.48.54.6,1.04.55.53-.05.94-.03,1.45.12.57.17,1.07.15,1.64.17.36.02.76.08,1.04.33.24.22.33.56.65.7.4.17,1.05.06,1.49.1.62.06,1.17.06,1.74-.19.4-.18.75-.46,1.1-.72.76-.58,1.52-1.1,2.48-1.28.41-.08.83-.08,1.25-.13.53-.06.9-.35,1.29-.68.63-.55,1.18-.87,2.03-.97.58-.07,1.08-.09,1.56-.45.33-.26.64-.53,1.01-.73.78-.45,1.68-.58,2.56-.71.45-.06.9-.09,1.36-.06.61.05,1.09-.03,1.67-.21.48-.16.95-.33,1.37-.59.47-.28.78-.67,1.18-1.03.64-.58,1.44-.47,2.24-.34.51.07.99.22,1.49.29.62.09,1.18-.03,1.78-.18.85-.23,1.73-.3,2.61-.19.9.12,1.53.65,2.11,1.32.35.39.63.84,1.04,1.2.3.28.55.4.95.22.17-.08.33-.19.51-.25,1.1-.31,2.27.62,3.28.07.5-.27.93-.63,1.4-.95s.92-.46,1.47-.54c.59-.08,1.2-.22,1.68-.6.24-.19.47-.47.77-.56.15-.58-.28-1.3-.51-1.8-.24-.51-.39-1.02-.37-1.59.02-.62.18-1.22.38-1.81.2-.59.39-1.23.7-1.78s.72-1.05,1.07-1.56c.38-.53.68-1.09.97-1.68.21-.42.52-.75.91-1.04.22-.17.41-.22.66-.33.2-.08.34-.23.51-.34-.09-.17-.11-.44-.16-.58-.15-.42-.28-.84-.38-1.29-.11-.46-.17-.93-.29-1.39-.1-.39-.17-.79-.29-1.18-.1-.31-.29-.51-.59-.65-.4-.19-.85-.41-1.31-.42-.03.03-.06.06-.11.05-.48,0-.94.17-1.41.18-.6.02-1.23-.1-1.78-.33-.87-.36-1.33-1.14-2.01-1.75-.51-.46-.99-.57-1.65-.41-.42.1-.84.26-1.29.2-1.05-.14-1.7-1.32-2.58-1.82-1.23-.69-2.65-1.08-4.06-1.16-.66-.03-1.32.02-1.98-.03-.71-.05-1.31-.09-1.81.49-.25.29-.51.39-.88.41-.76.03-1.49.09-2.24.19-.58.08-1.17.13-1.74.28-.63.17-1.09.49-1.63.83-.08.06-.17.1-.26.16-.23.18-.24.34-.36.57-.1.19-.21.33-.4.42-.42.21-.96.07-1.39-.02-.71-.17-1.4-.17-2.11-.2-.29-.02-.6-.06-.89-.02-.53.06-.71.42-.91.88-.02.05-.06.07-.1.09-.07.24-.17.47-.31.67-.32.43-.82.73-1.18,1.13-.37.38-.73.75-1.21.98-.48.22-1.01.28-1.53.29-1.25.06-2.52.16-3.75.44-.63.15-1.09.38-1.51.88-.3.36-.62.59-1.06.73-.54.18-1.09.32-1.63.53-.51.21-1.13.31-1.56.66-.98.81-.94,2.44-.97,3.59-.05,1.08-.2,2.34-.65,3.34-.42.93-1.41,1.39-2.2,1.93-.44.29-.67.57-.67,1.12,0,.35.05.71.06,1.06.04.6.14,1.22.02,1.81-.12.52-.39,1-.65,1.46-.26.48-.45.97-.59,1.5Z"/><path class="cls-1" d="m46.75,215.35c-.2.28.22.56.46.36.34.39.76.76,1.16,1.09.31.28.65.49,1.07.54.52.07,1.09,0,1.63.03.69.03,1.22.22,1.85.48,1.04.42,2.18.67,3.25.97.44.13.85.17,1.3.06.37-.09.65-.27,1.04-.04.22.14.38.37.51.59.38.62.57,1.3,1.2,1.74.78.53,1.76.69,2.7.65.39,0,.78-.05,1.14-.23.42-.21.74-.58,1.21-.72.39-.1.73-.12,1.09-.31s.67-.47,1.01-.71c1.09-.74,2.11-.37,3.31-.13.51.09,1.02.14,1.52.17.19.02.41.06.6,0,.17-.06.3-.23.47-.27.05,0,.07-.04.09-.07.28-.13.66-.16.93-.32.27-.17.38-.39.49-.68.18-.51.53-.74.88-1.13.39-.42.78-.82,1.35-1.01.82-.28,1.58-.3,2.31-.83.71-.51,1.11-1.06,1.48-1.83.26-.53.61-.73,1.09-1,.27-.15.46-.34.56-.62.17-.45.28-.77.73-.99.31-.16.67-.22,1.02-.2,1.35.05,1.87,1.07,2.59,2.02.17.22.85,1.3,1.34,1.51.02.03.02.06.06.08.65.41,1.86.51,2.57.26,1.01-.39,1.63-1.3,2.34-2.05.46-.48.97-.9,1.66-.89.63,0,1.29-.07,1.92.02.6.09,1.11.16,1.71.06.68-.11,1.35.1,2.04.09.61-.02,1.14.13,1.74.21.5.06.88-.08,1.31-.3.62-.3,1.17-.19,1.82-.13.53.05.97-.04,1.49-.15.62-.13,1.19.17,1.81.11.52-.05,1.01-.21,1.52-.3.73-.12,1.7.06,2.1-.71.37-.71.43-2,1.52-1.83.9.14,1.99.82,2.63,1.46.54.54,2.13,2.48,2.73.94.16-.4.06-.84.06-1.27,0-.64.14-1.24.29-1.86.15-.55.24-1.11.17-1.68-.06-.54-.27-1.04-.45-1.54-.24-.67-.34-1.27-.05-1.95.14-.31.23-.61.15-.95-.1-.44-.42-.7-.71-1.02-.28-.32-.41-.7-.59-1.08-.28-.66-.67-1.19-1.45-1.25-1.22-.08-2.47.16-3.7.15-1.35-.02-2.72-.38-4.04-.61-.94-.17-1.88-.62-2.85-.58,0,0,0,0-.02,0,0,0,0-.03-.02-.04-.08-.16-.31-.05-.28.11.18.44-.07.97-.23,1.39-.17.44-.27.86-.34,1.33-.08.56-.15,1.14-.41,1.65-.21.42-.52.78-.8,1.16-.27.37-.49.75-.62,1.19-.14.52-.14,1.07-.27,1.59-.26,1.03-1.04,1.75-2.13,1.74-.91-.02-1.68-.36-2.59-.04-.59.21-.96.24-1.53-.04-.38-.18-.75-.38-1.14-.54-.73-.31-1.51-.58-2.31-.52-.82.06-1.59.38-2.41.4-.97.05-1.6-.62-2.38-1.08-.75-.45-1.6-.61-2.35-1.01-.92-.5-1.42-1.39-1.66-2.37-.17-.71-.21-1.57-.73-2.14-.22-.24-.5-.38-.8-.48-.43-.15-.74-.3-1.05-.66-.46-.53-.78-1.16-1.35-1.6-.68-.52-1.55-.69-2.35-.93-.95-.28-1.87-.61-2.81-.91-.84-.28-1.61-.85-2.5-1-.84-.14-1.57.3-2.39.32-1,.02-1.77-.55-2.63-.96-.62-.29-1.25-.51-1.83-.04,0,0-.02.03-.03.05-.23.1-.44.26-.64.39-.21.16-.41.32-.62.49-.4.32-.83.62-1.26.91-.32.2-.64.4-.89.68-.13.14-.24.29-.33.46-.13.23-.17.44-.17.71,0,.12.11.17.19.15.03.17.06.35.12.54.16.57.23,1.1.11,1.7-.21,1.1-1.01,1.98-1.66,2.86-.52.71-.92,1.46-1.74,1.86-.82.41-1.69.71-2.52,1.12-.55.28-1.02.47-1.64.51-.41.03-.84.04-1.25.13-.72.15-1.34.39-1.69,1.06-.4.78-1.26.96-1.97,1.39-.68.4-1.28,1.05-1.76,1.66-.51.64-.54,1.42-.7,2.2-.17.82-.37,1.55-.84,2.25Zm.64.14c.47-.59.65-1.43.8-2.14.09-.48.13-.99.28-1.46.17-.53.59-.89.96-1.29.67-.71,1.43-1.03,2.27-1.5.32-.17.58-.37.76-.69.24-.4.36-.68.84-.84.91-.31,1.9-.14,2.8-.47.97-.36,1.88-.91,2.85-1.3.62-.26,1.16-.59,1.58-1.11.6-.76,1.16-1.61,1.7-2.41.48-.72.84-1.49.88-2.37.04-.78-.31-1.46-.51-2.2.05-.09.1-.18.15-.28.08-.16.18-.28.3-.41.25-.24.54-.41.83-.61.41-.28.79-.59,1.16-.93.19-.17.39-.34.58-.51.14-.12.29-.23.44-.35.08.11.23.17.35.06.48-.37,1.26.18,1.72.44.41.23.84.46,1.3.6.93.28,1.71.06,2.62-.14,1.12-.26,2.16.62,3.19.96,1.05.35,2.13.66,3.2.94.97.26,1.78.56,2.41,1.37.42.55.8,1.22,1.45,1.52.47.21.92.24,1.19.73.2.39.24.88.33,1.3.17.84.41,1.62.98,2.29s1.24.96,2.05,1.25c.94.33,1.65.92,2.49,1.43,1.55.94,3.1-.3,4.7,0,.96.19,1.76.7,2.65,1.07.28.12.55.2.84.2.07,0,.15,0,.22-.02.46-.06.86-.34,1.33-.36.95-.05,1.8.39,2.74.05.62-.24,1.12-.71,1.42-1.3.42-.81.32-1.72.62-2.57.28-.83,1.03-1.41,1.37-2.22.37-.89.28-1.88.57-2.8.15-.44.33-.95.24-1.41.56,0,1.1.19,1.63.34.55.16,1.11.26,1.68.34,1.28.2,2.51.52,3.8.54.66,0,1.32-.03,1.98-.05.55-.02,1.38-.18,1.86.11.68.41.74,1.5,1.27,2.08.42.48.72.8.44,1.47-.17.4-.28.76-.24,1.2.08,1.07.76,1.97.68,3.08-.06.65-.32,1.26-.42,1.91-.07.44-.09.88-.07,1.33.02.36.08,1.08-.44.93-.28-.07-.54-.38-.73-.57-1.03-1.04-2.26-2.27-3.8-2.4-.73-.06-1.22.37-1.51,1.01-.16.35-.24.77-.44,1.1-.21.37-.63.31-1.02.35-.55.06-1.07.17-1.6.28-.62.13-1.08.02-1.68-.06-.45-.06-.84.08-1.28.16-.57.1-1.13-.06-1.7-.08-.49-.02-.84.09-1.27.3-.62.3-.97.19-1.61.06-.62-.13-1.25,0-1.87-.1-.39-.06-.76-.16-1.17-.1-.41.06-.76.07-1.13.06-.2,0-.4-.04-.62-.06-.46-.06-.92-.03-1.38-.02-.44.02-.89-.06-1.32.07-.39.12-.73.39-1.04.65-.75.64-1.19,1.58-2.04,2.13-.67.43-1.86.48-2.57.06-.1-.06-.18-.03-.25.04-.27-.28-.73-1.08-.82-1.21-.34-.51-.66-1.03-1.02-1.53-.68-.94-2.04-1.3-3.12-.93-.64.23-1.01.65-1.25,1.27-.21.54-.76.59-1.16.97-.25.24-.4.55-.54.86-.41.92-1.18,1.67-2.16,1.98-.81.25-1.59.37-2.26.92-.36.3-.67.66-1.02.97-.24.2-.39.42-.51.72-.1.25-.15.44-.39.57-.17.09-.37.13-.54.18-.25.09-.44.17-.6.39-.03.05-.03.09-.03.13-.06.02-.11.04-.17.04-.27.03-.58-.06-.84-.09-.62-.07-1.21-.19-1.83-.34-.99-.22-1.89-.2-2.76.39-.33.24-.64.51-1.01.71-.38.2-.77.19-1.17.34-.42.16-.73.5-1.14.7-.44.21-1,.19-1.48.17-1.07-.06-2.09-.4-2.63-1.38-.31-.57-.6-1.33-1.28-1.56-.38-.13-.71.05-1.08.12-.59.13-1.14-.12-1.69-.28-1.07-.3-2.11-.59-3.15-1-.89-.37-1.81-.28-2.76-.3-.99-.02-1.65-.93-2.4-1.51Z"/><path class="cls-1" d="m48.19,213.34c-.15.71-.33,1.55-.8,2.14.74.58,1.41,1.49,2.4,1.51.95.02,1.86-.06,2.76.3,1.04.41,2.08.7,3.15,1,.55.16,1.1.4,1.69.28.38-.07.71-.25,1.08-.12.68.23.96.99,1.28,1.56.53.97,1.55,1.32,2.63,1.38.48.03,1.04.05,1.48-.17.4-.2.72-.54,1.14-.7.39-.15.79-.14,1.17-.34.37-.19.68-.47,1.01-.71.86-.6,1.76-.62,2.76-.39.62.15,1.2.27,1.83.34.27.03.58.12.84.09.06,0,.11-.02.17-.04,0-.04,0-.08.03-.13.16-.21.35-.29.6-.39.17-.06.38-.09.54-.18.25-.13.29-.32.39-.57.12-.29.28-.51.51-.72.35-.31.66-.67,1.02-.97.67-.55,1.45-.67,2.26-.92.98-.31,1.75-1.07,2.16-1.98.14-.31.29-.62.54-.86.39-.39.95-.43,1.16-.97.24-.62.61-1.04,1.25-1.27,1.08-.38,2.44,0,3.12.93.36.51.68,1.03,1.02,1.53.09.13.55.94.82,1.21.06-.06.15-.1.25-.04.72.42,1.9.38,2.57-.06.84-.55,1.29-1.49,2.04-2.13.3-.26.65-.53,1.04-.65.43-.13.88-.06,1.32-.07.46,0,.92-.05,1.38.02.22.03.42.06.62.06l.11-2.65c-.29,0-.57-.08-.84-.2-.88-.38-1.69-.88-2.65-1.07-1.61-.31-3.15.93-4.7,0-.84-.51-1.55-1.1-2.49-1.43-.81-.28-1.48-.58-2.05-1.25s-.82-1.44-.98-2.29c-.09-.42-.13-.92-.33-1.3-.28-.5-.73-.52-1.19-.73-.65-.29-1.03-.96-1.45-1.52-.62-.81-1.43-1.11-2.41-1.37-1.07-.28-2.15-.59-3.2-.94-1.03-.34-2.07-1.22-3.19-.96-.91.2-1.69.41-2.62.14-.46-.14-.89-.37-1.3-.6-.46-.26-1.24-.81-1.72-.44-.12.1-.27.05-.35-.06-.15.12-.3.23-.44.35-.19.17-.39.35-.58.51-.37.34-.74.65-1.16.93-.28.19-.58.37-.83.61-.12.13-.22.26-.3.41-.05.09-.1.18-.15.28.2.73.55,1.41.51,2.2-.05.88-.4,1.65-.88,2.37-.54.8-1.1,1.64-1.7,2.41-.42.52-.96.85-1.58,1.11-.96.39-1.87.95-2.85,1.3-.9.33-1.89.16-2.8.47-.48.17-.6.44-.84.84-.18.32-.44.51-.76.69-.84.47-1.6.79-2.27,1.5-.38.39-.79.75-.96,1.29-.15.47-.18.98-.28,1.46Z"/><path class="cls-1" d="m97.51,208.67l-.11,2.65c.37.02.72,0,1.13-.06.4-.06.77.05,1.17.1.62.09,1.25-.03,1.87.1.63.13.99.24,1.61-.06.42-.21.78-.32,1.27-.3.57.03,1.13.18,1.7.08.43-.07.83-.21,1.28-.16.6.08,1.07.19,1.68.06.53-.12,1.05-.23,1.6-.28.39-.04.81.02,1.02-.35.2-.33.28-.75.44-1.1.28-.64.77-1.07,1.51-1.01,1.54.13,2.77,1.36,3.8,2.4.19.19.45.5.73.57.52.16.46-.57.44-.93-.02-.45,0-.89.07-1.33.1-.65.37-1.26.42-1.91.08-1.11-.6-2-.68-3.08-.04-.44.07-.8.24-1.2.28-.67-.02-.99-.44-1.47-.52-.59-.59-1.67-1.27-2.08-.49-.29-1.31-.13-1.86-.11-.66.02-1.32.06-1.98.05-1.3-.02-2.53-.34-3.8-.54-.57-.08-1.13-.18-1.68-.34-.53-.15-1.07-.34-1.63-.34.09.47-.09.97-.24,1.41-.28.92-.2,1.91-.57,2.8-.34.82-1.08,1.4-1.37,2.22-.3.85-.2,1.76-.62,2.57-.3.6-.8,1.07-1.42,1.3-.94.35-1.79-.09-2.74-.05-.47.02-.87.29-1.33.36-.07,0-.15.02-.22.02Z"/><path class="cls-1" d="m101.1,164.8c-.32.74-.73,1.59-.46,2.42.14.4.46.7.75.98.23.22.42.39.49.71.06.31-.05.58-.09.89-.1.73.31,1.38.78,1.91.49.56,1.1,1.07,1.87,1.15.96.1,1.81-.55,2.76-.62.64-.04,1.24.2,1.7.65.33.32.56.74.9,1.06.17.16.38.28.52.45.17.17.26.39.38.61.17.3.36.57.67.73.27.13.47-.07.46-.28.2-.1.37-.33.52-.48.51-.49,1.11-.62,1.8-.67.73-.04,1.46.04,2.18.17.59.1,1.16.29,1.74.36,1.24.15,2.47-.45,3.68-.59,1.07-.13,2.38.09,3.3.68h.03c.02.08.12.14.17.05.08-.17.05-.41.06-.6,0-.36,0-.72,0-1.07.04-1.14.17-2.29.49-3.37.25-.79.39-1.75-.36-2.31-.63-.49-1.51-.36-2.25-.4-1.18-.07-2.33-.45-3.49-.69-.51-.11-1.03-.13-1.41-.52-.28-.28-.45-.66-.66-.99-.42-.63-.93-.93-1.68-1-.54-.06-1.04-.05-1.52-.31-.38-.2-.7-.48-1.07-.69-.75-.44-1.66-.5-2.5-.22-.62.2-1.08.24-1.73.06-.45-.12-.89-.28-1.33-.44-.86-.29-1.8-.84-2.75-.65-.92.19-1.53.89-2.27,1.41-.33.24-.72.39-1.03.65-.31.28-.5.62-.66,1Zm1.24,3.69c-.31-.84-1.43-1.1-1.22-2.15.17-.82.59-1.91,1.3-2.37.71-.45,1.29-1.07,2-1.51,1.02-.62,1.93-.17,2.95.18.78.28,1.58.62,2.41.71.4.05.73-.06,1.11-.18.48-.17,1.04-.25,1.55-.15.82.16,1.38.84,2.14,1.14.72.28,1.58.03,2.24.47.61.41.77,1.22,1.3,1.71.58.51,1.49.51,2.2.68.91.22,1.83.45,2.76.52.73.06,1.75-.14,2.3.48.67.76-.02,1.89-.17,2.72s-.25,1.71-.22,2.54c.02.29.04.6.06.9,0,.09.04.26.05.41-.07-.05-.53-.33-.59-.36-.21-.09-.43-.17-.65-.24-.5-.15-1.01-.26-1.53-.28-1.31-.06-2.54.58-3.85.61-.73.02-1.5-.28-2.22-.4-.62-.1-1.25-.17-1.88-.16-.53.02-1.09.06-1.6.28-.24.1-.45.25-.65.42-.16.13-.31.35-.49.47-.07,0-.14.02-.19.06-.28-.24-.42-.7-.67-.95-.32-.34-.73-.56-1.04-.93-.56-.68-1.17-1.21-2.08-1.32-.93-.11-1.74.32-2.62.51-1.06.22-1.96-.58-2.48-1.42-.28-.48-.29-.82-.19-1.35.06-.37.11-.7-.02-1.07Z"/><path class="cls-1" d="m101.12,166.35c-.21,1.05.91,1.3,1.22,2.15.13.37.08.7.02,1.07-.1.53-.09.87.19,1.35.52.84,1.42,1.64,2.48,1.42.88-.19,1.69-.62,2.62-.51.92.11,1.52.64,2.08,1.32.31.37.72.59,1.04.93.25.25.39.71.67.95.06-.05.12-.06.19-.06.17-.12.33-.34.49-.47.2-.17.41-.32.65-.42.51-.22,1.07-.27,1.6-.28.63,0,1.26.06,1.88.16.73.12,1.49.42,2.22.4,1.3-.03,2.53-.66,3.85-.61.52.02,1.04.13,1.53.28.22.06.44.15.65.24.06.03.51.31.59.36,0-.16-.04-.32-.05-.41-.02-.3-.04-.61-.06-.9-.03-.84.07-1.72.22-2.54s.84-1.96.17-2.72c-.54-.62-1.57-.42-2.3-.48-.94-.07-1.86-.3-2.76-.52-.72-.17-1.63-.17-2.2-.68-.53-.49-.7-1.3-1.3-1.71-.66-.44-1.52-.18-2.24-.47-.76-.29-1.32-.98-2.14-1.14-.51-.1-1.07-.02-1.55.15-.39.13-.71.23-1.11.18-.83-.09-1.63-.43-2.41-.71-1.02-.36-1.93-.81-2.95-.18-.72.44-1.3,1.06-2,1.51-.71.46-1.13,1.55-1.3,2.37Z"/><path class="cls-1" d="m107.78,227.9c-.55.8-.5,1.88-.06,2.73.39.76,1.06,1.32,1.61,1.97.31.36.58.78.7,1.25.11.47,0,.94-.04,1.41-.09.91.04,1.66.95,2.04.69.28,1.11.5,1.46,1.18.28.56.49,1.13.62,1.74.12.53.25,1.06.53,1.52.22.37.51.68.78,1.01.81,1,.78,2.3.72,3.53-.04.84-.44,1.86-.1,2.67.17.42.51.73.8,1.08.3.38.56.77.86,1.15.64.78,1.45,1.03,2.34,1.41.51.22.88.51,1.1,1.02.13.31.22.65.39.95.35.61,1.03.85,1.69.58.28-.12.46-.31.8-.3.29,0,.57.05.87.04.41,0,.84-.06,1.2-.26.78-.42,1.24-1.3,1.63-2.06.53-1.01,1.18-1.94,1.79-2.89.68-1.04,1.23-2.15,1.73-3.28.47-1.09.84-2.21,1.28-3.32.4-1.04.76-1.91.61-3.04-.16-1.17-.49-2.23-.98-3.29-.37-.77-1.11-2.17-.79-3.04.04-.11-.08-.17-.17-.13-.05-.04-.09-.06-.17-.04-.5.2-1.03.28-1.54.47-.53.18-.98.51-1.45.82-.53.35-1.07.69-1.65.96-.3.13-.75.36-1.09.28-.32-.08-.28-.26-.27-.55.02-.87-.17-1.62-.72-2.31-.61-.78-1.3-1.54-1.99-2.25-.74-.74-1.64-1.29-2.54-1.83-.61-.37-1.43-1.17-2.2-.98-.17.04-.28.13-.44.18-.32.12-.59-.02-.85-.25-.32-.28-.56-.63-.93-.86-.62-.39-1.57-.77-2.31-.52-.68.22-.96.93-1.41,1.4-.62.64-1.49.06-2.19-.17-.03,0-.05,0-.06,0-.1-.15-.36-.2-.5,0Zm2.03,4.66c-.9-1.18-2.65-2.65-1.59-4.28l.02.02c.62.19,1.38.68,2.04.43.84-.32.97-1.61,1.95-1.72.56-.06,1.27.22,1.74.51.41.25.66.66,1.04.96.25.19.58.37.91.32.15-.02.26-.08.39-.15.31-.16.55-.15.87.02.96.5,1.92,1.13,2.79,1.75.92.65,1.6,1.54,2.35,2.37.75.84,1.19,1.55,1.14,2.71-.03.73.31,1.14,1.09,1.03,1.02-.14,1.97-.86,2.79-1.42.52-.35.99-.63,1.6-.82.35-.1.69-.19,1.02-.34-.03.28,0,.56.06.83.09.46.17.96.31,1.41.19.6.51,1.14.73,1.73.2.6.32,1.25.42,1.87.11.64.12,1.26-.08,1.89-.19.6-.48,1.17-.7,1.76-.47,1.24-.96,2.46-1.52,3.65-.51,1.03-1.08,1.99-1.73,2.93-.58.85-1.07,1.73-1.57,2.63-.23.42-.49.86-.84,1.18-.39.36-.88.41-1.41.42-.45,0-.92-.14-1.34.07-.38.19-.79.5-1.18.13-.49-.48-.48-1.3-.98-1.79-.59-.6-1.45-.7-2.17-1.07-.92-.47-1.3-1.43-2-2.14-.4-.39-.73-.7-.74-1.3,0-.42.11-.85.16-1.28.11-1.01.17-2.22-.09-3.21-.22-.85-.94-1.4-1.36-2.14-.28-.52-.37-1.13-.51-1.7-.12-.45-.29-.87-.5-1.3-.21-.44-.44-.91-.84-1.2-.32-.24-.71-.33-1.06-.5-.96-.47-.46-1.63-.47-2.46,0-.69-.31-1.28-.73-1.81Z"/><path class="cls-1" d="m108.22,228.28c-1.06,1.63.69,3.1,1.59,4.28.41.53.72,1.12.73,1.81,0,.83-.49,1.99.47,2.46.35.17.73.26,1.06.5.4.29.63.76.84,1.2.2.42.38.84.5,1.3.15.57.23,1.18.51,1.7.42.74,1.14,1.29,1.36,2.14.27.99.2,2.2.09,3.21-.05.42-.16.85-.16,1.28,0,.61.34.91.74,1.3.7.71,1.08,1.67,2,2.14.72.37,1.58.47,2.17,1.07.51.5.5,1.31.98,1.79.39.37.8.06,1.18-.13.42-.21.89-.07,1.34-.07.52,0,1.01-.06,1.41-.42.36-.32.62-.76.84-1.18.5-.9.99-1.77,1.57-2.63.64-.94,1.22-1.9,1.73-2.93.57-1.18,1.06-2.41,1.52-3.65.22-.6.51-1.17.7-1.76.2-.63.19-1.25.08-1.89-.1-.62-.22-1.28-.42-1.87-.21-.59-.53-1.13-.73-1.73-.14-.45-.22-.96-.31-1.41-.06-.27-.09-.55-.06-.83-.33.15-.67.24-1.02.34-.61.18-1.07.47-1.6.82-.82.56-1.77,1.29-2.79,1.42-.78.11-1.12-.29-1.09-1.03.06-1.16-.39-1.87-1.14-2.71-.75-.83-1.43-1.72-2.35-2.37-.87-.62-1.84-1.26-2.79-1.75-.32-.17-.56-.17-.87-.02-.13.06-.24.13-.39.15-.33.05-.66-.13-.91-.32-.38-.29-.62-.71-1.04-.96-.47-.28-1.18-.57-1.74-.51-.97.11-1.1,1.4-1.95,1.72-.66.25-1.42-.24-2.04-.43l-.02-.02Z"/></svg>