<?xml version="1.0" encoding="UTF-8"?><svg id="Tree_01_-_Leaves_04" xmlns="http://www.w3.org/2000/svg" viewBox="0 0 1160 418.25"><defs><style>.cls-1{fill:#c6d604;stroke-width:0px;}</style></defs><path class="cls-1" d="m8.89,170.64c-.21-.58-.69-.97-1.17-1.32-.62-.46-1.32-.94-1.73-1.62-.46-.76-.2-1.66-.33-2.49-.13-.87-.64-1.63-.99-2.42-.65-1.46-.62-3.41-1.89-4.55-.59-.54-1.38-.84-2.1-1.15-.23-.1-.45-.19-.68-.28v.43c.72.3,1.48.59,2.13,1.02.6.4.94.95,1.21,1.6.33.85.39,1.76.74,2.59.32.78.79,1.53,1.07,2.32.26.79.04,1.59.19,2.38.11.56.43,1.01.82,1.4.49.52,1.07.89,1.62,1.34.29.24.56.51.69.87.15.4.03.76-.02,1.15-.08.57-.11,1.02-.37,1.55-.17.34-.37.67-.55,1.01-.34.65-.54,1.31-.67,2.03-.18.86-.37,1.72-.57,2.58-.09.36-.13.76-.21,1.14-.02.01-.03.02-.04.05-.03.14-.07.29-.11.43-.04.1-.07.19-.12.29-.02.02-.01.05.01.08-.2.58-.51,1.16-1,1.47-.67.42-1.28.83-1.88,1.33-.75.61-1.49.63-2.41.73-.17.02-.35.04-.53.06v.46c.07-.02.15-.03.22-.04.75-.12,1.56-.02,2.26-.37.57-.29,1.01-.78,1.51-1.16.57-.42,1.31-.67,1.67-1.32.26-.49.43-1.05.54-1.59.25-.59.33-1.28.47-1.89.24-.96.39-1.95.65-2.92.27-1.02.96-1.74,1.36-2.7.18-.44.16-.89.23-1.35.07-.4.11-.74-.02-1.14Z"/><path class="cls-1" d="m8.45,171.91c-.08.57-.11,1.02-.37,1.55-.17.34-.37.67-.55,1.01-.34.65-.54,1.31-.67,2.03-.18.86-.37,1.72-.57,2.58-.09.36-.13.76-.21,1.14-.02.01-.03.02-.04.05-.03.14-.07.29-.11.43-.04.1-.07.19-.12.29-.02.02-.01.05.01.08-.2.58-.51,1.16-1,1.47-.67.42-1.28.83-1.88,1.33-.75.61-1.49.63-2.41.73-.17.02-.35.04-.53.06v-27.42c.72.3,1.48.59,2.13,1.02.6.4.94.95,1.21,1.6.33.85.39,1.76.74,2.59.32.78.79,1.53,1.07,2.32.26.79.04,1.59.19,2.38.11.56.43,1.01.82,1.4.49.52,1.07.89,1.62,1.34.29.24.56.51.69.87.15.4.03.76-.02,1.15Z"/><path class="cls-1" d="m13.68,195.17c-.61-.9-1.75-1.54-2.77-1.86-.58-.18-1.19-.25-1.78-.31-.7-.07-1.37-.01-2.06-.02-1.18-.03-2.22-.42-3.41-.25-.47.07-.92.2-1.35.38-.49.2-.94.47-1.35.82-.06.05-.12.1-.18.16-.32.32-.54.73-.78,1.12v.91c.36-.51.69-1.04,1.11-1.5.25-.29.54-.55.9-.77.16-.1.33-.18.51-.26.72-.3,1.56-.43,2.32-.39.6.04,1.2.2,1.81.26.56.04,1.1-.09,1.66-.08,1.22,0,2.43.2,3.51.79,1.03.55,1.76,1.25,1.97,2.44.24,1.33-.13,2.53-.5,3.78-.36,1.2-.48,2.36-.55,3.6-.05.71-.18,1.32-.5,1.95-.02.04-.04.07-.06.09-.23.35-.5.67-.67,1.06-.27.62-.55,1.24-.81,1.86-.24.56-.43,1.13-.67,1.68-.14.35-.32.69-.58.98-.2.19-.43.32-.64.51-.42.4-.58.98-1.02,1.38-.24.22-.5.41-.76.59-.26.17-.52.33-.78.5-.21.13-.43.27-.66.38-.37.19-.77.3-1.21.2-.64-.14-1.18-.55-1.79-.73-.14-.04-.28-.08-.42-.11-.4-.1-.81-.17-1.21-.19-.11,0-.22,0-.34.02-.2.01-.42.04-.62.04v.48c.17-.01.35-.04.52-.05h.01c.52-.04,1.05.01,1.56.14.19.03.37.08.55.14.62.22,1.15.64,1.81.73.33.05.65,0,.95-.09.55-.18,1.07-.53,1.55-.86.1-.07.2-.13.3-.2.47-.31.94-.67,1.28-1.13.15-.19.25-.42.38-.63.17-.27.42-.41.66-.62.95-.79,1.18-2.21,1.7-3.28.12-.29.29-.56.39-.85.09-.26.12-.53.22-.79.04-.11.09-.21.15-.31.09-.16.18-.33.27-.5.09-.14.16-.27.23-.42.05-.1.11-.19.15-.29.27-.63.31-1.24.36-1.91.05-.9.12-1.79.36-2.66.2-.77.48-1.51.66-2.3.05-.21.08-.43.11-.67.01-.04.01-.08.02-.13.1-.97.01-2.07-.51-2.83Z"/><path class="cls-1" d="m13.29,200.39c-.36,1.2-.48,2.36-.55,3.6-.05.71-.18,1.32-.5,1.95-.02.04-.04.07-.06.09-.23.35-.5.67-.67,1.06-.27.62-.55,1.24-.81,1.86-.24.56-.43,1.13-.67,1.68-.14.35-.32.69-.58.98-.2.19-.43.32-.64.51-.42.4-.58.98-1.02,1.38-.24.22-.5.41-.76.59-.26.17-.52.33-.78.5-.21.13-.43.27-.66.38-.37.19-.77.3-1.21.2-.64-.14-1.18-.55-1.79-.73-.14-.04-.28-.08-.42-.11-.4-.1-.81-.17-1.21-.19-.11,0-.22,0-.34.02-.2.01-.42.04-.62.04v-18.08c.36-.51.69-1.04,1.11-1.5.25-.29.54-.55.9-.77.16-.1.33-.18.51-.26.72-.3,1.56-.43,2.32-.39.6.04,1.2.2,1.81.26.56.04,1.1-.09,1.66-.08,1.22,0,2.43.2,3.51.79,1.03.55,1.76,1.25,1.97,2.44.24,1.33-.13,2.53-.5,3.78Z"/><path class="cls-1" d="m63.08,198.12c-.34-.98-.23-2.04-.46-3.03-.22-.94-.72-1.68-1.29-2.43-.52-.71-1.05-1.41-1.73-1.97-.6-.47-1.34-.67-1.96-1.1-.63-.41-1.07-1.05-1.69-1.49-1.43-.99-3.26-.73-4.77-1.54-.71-.38-1.38-.87-2.13-1.2-.11-.05-.22-.09-.33-.13-.54-.19-1.09-.28-1.64-.41-.12-.03-.25-.06-.37-.1-.97-.26-1.91-.83-2.82-1.26-.78-.37-1.54-.88-2.35-1.19-.73-.29-1.51-.27-2.28-.16-.5.07-1,.23-1.51.21-.49-.01-.97-.19-1.45-.29-.81-.15-1.54-.04-2.34.1-.73.13-1.46.31-2.15.61-.73.33-1.23.81-1.82,1.35-.68.63-1.42,1.05-2.34,1.23-.59.12-1.26.22-1.72.65-.47.44-.47,1.01-.35,1.6-.01.11-.02.22-.05.33-.11.48-.52.74-.87,1.03-.73.61-1.41,1.2-1.81,2.09-.37.79-.71,1.73-.85,2.6-.14.92.28,1.79.69,2.59.01.02.02.03.03.05.05.1.1.2.16.29.04.06.07.12.12.18.06.11.13.21.2.32.38.58.79,1.15,1.08,1.78.24.54.18,1.05.08,1.61-.09.53-.17,1.07-.3,1.61-.13.51-.29,1.02-.36,1.55-.06.55-.02,1.11-.01,1.66.01.24.02.48.03.73-.05.22-.09.45-.12.69-.06.45-.03.9,0,1.36-.01.02-.01.06-.01.1,0,0,.01,0,.01,0,0,.16,0,.32-.01.47-.01.1-.02.21-.04.31-.07.45-.21.88-.18,1.32.04.48.3.83.59,1.18t.02.02h0c.78,1,1.61,1.88,2.13,3.02.22.46.3,1,.54,1.45.21.4.59.69.99.89.76.34,1.61.36,2.42.38.24.01.48.02.72.04.13.01.26.02.39.03.26.02.52.05.78.09.12.01.24.03.35.06.43.07.86.16,1.28.29.05.01.09.03.14.04.64.19,1.21.34,1.84.26.18-.02.36-.06.55-.12,1.07-.36,2.3.43,3.27.8.75.29,1.55.63,2.37.73.23.03.45.04.68.02.19-.01.37-.04.56-.09.73-.16,1.43-.55,2.05-.96.67-.44,1.46-.85,2.05-1.41.69-.66.49-1.49.83-2.3.03-.07.06-.13.09-.19.2-.42.47-.8.66-1.23.16-.4.27-.82.42-1.24.14-.37.33-.69.56-.96.45-.54,1.07-.9,1.79-1.19.84-.32,1.56-.54,2.13-1.26.43-.55.76-.85,1.51-.8.47.02.91.05,1.36-.12.95-.37,1.85-.99,2.73-1.48.4-.22.88-.33,1.23-.6.29-.21.46-.52.64-.83.51-.9,1.2-1.69,1.73-2.59.23-.4.54-.82.71-1.24.06-.14.07-.29.07-.44,0-.01.02-.02.03-.04.34-.88-.21-1.54-.49-2.34Zm.12,2.15c-.02.3-.18.54-.34.79-.29.45-.54.92-.84,1.37-.32.47-.67.91-.99,1.38-.27.39-.45.88-.77,1.23-.34.35-.94.46-1.37.69-.53.28-1.06.57-1.59.85-.51.27-1.04.64-1.62.67-.51.02-1.02-.14-1.52.05-.79.3-1.07,1.2-1.81,1.59-.8.4-1.68.57-2.43,1.08-.07.05-.13.09-.19.14-.58.46-.94,1.05-1.17,1.76-.09.25-.17.51-.25.76h0c-.08.24-.17.47-.28.69-.19.38-.44.74-.61,1.14-.21.46-.18.92-.3,1.41-.1.4-.36.68-.69.93-.68.5-1.44.99-2.16,1.41-.13.08-.27.15-.4.21-.13.07-.26.12-.39.17-.08.04-.17.07-.25.09-.19.06-.38.11-.57.13-.19.03-.38.05-.57.04-.14,0-.27-.01-.41-.03-.16-.02-.31-.05-.47-.09-.03,0-.06-.01-.09-.02-.95-.29-1.87-.7-2.81-1.01-.76-.25-1.62-.55-2.39-.25h-.01c-.33.13-.67.15-1.02.1-.1-.01-.21-.02-.31-.05-.17-.03-.35-.08-.52-.13-.45-.13-.89-.3-1.32-.4-.12-.03-.25-.05-.37-.07-.11-.03-.23-.05-.34-.06-.25-.05-.51-.08-.77-.11-.12-.01-.25-.02-.37-.03-.38-.04-.77-.07-1.15-.09-.82-.03-1.98-.09-2.48-.87-.24-.36-.28-.85-.46-1.25-.2-.39-.37-.81-.62-1.16-.57-.84-1.29-1.57-1.91-2.36-.46-.59-.42-1.13-.29-1.82.06-.42.08-.81.07-1.23-.03-.81.06-1.6.07-2.4,0-.02.01-.04.01-.05.07-.48.02-.97.06-1.46.04-.62.25-1.22.39-1.82.21-.87.5-1.93.4-2.84-.09-.87-.73-1.56-1.18-2.27-.08-.12-.16-.25-.24-.38-.07-.1-.14-.21-.2-.32-.04-.07-.08-.13-.12-.2-.05-.09-.1-.18-.15-.27-.1-.17-.19-.34-.27-.52-.06-.13-.11-.27-.16-.41-.03-.08-.06-.16-.08-.24-.02-.08-.04-.15-.06-.23-.01-.06-.02-.12-.03-.18-.02-.1-.03-.2-.03-.3-.01-.48.15-.95.28-1.4.15-.53.31-1.07.56-1.57.44-.87,1.21-1.43,1.94-2.05.24-.21.49-.4.6-.71.08-.2.07-.43.07-.65,0,0,0,0,.01,0,.07-.41.08-.92.36-1.23.27-.28.71-.37,1.07-.45.76-.18,1.45-.32,2.12-.75.74-.48,1.28-1.21,2.02-1.67.66-.42,1.43-.63,2.2-.8.9-.18,1.75-.33,2.67-.13.75.17,1.38.31,2.16.19.83-.14,1.68-.35,2.52-.14.81.2,1.57.73,2.33,1.08.87.41,1.73.83,2.61,1.21.38.16.77.25,1.16.33.26.05.52.1.78.16.18.04.35.09.52.16.09.03.18.06.26.11.15.06.3.13.44.2.14.07.27.14.4.22.15.08.29.16.43.25.26.15.51.3.76.44.12.07.25.14.37.2.14.07.29.15.44.21.15.06.3.12.45.17.83.25,1.72.26,2.54.52.67.21,1.24.56,1.76,1.04.55.5.97.98,1.66,1.32.7.34,1.31.66,1.87,1.22,1.09,1.11,2.17,2.55,2.44,4.1.15.84.11,1.72.37,2.54.16.51.49.99.63,1.5-.06.22-.05.4-.06.63Z"/><path class="cls-1" d="m22.74,192.63c-.13.45-.28.92-.28,1.4.03,1.06.79,2.19,1.34,3.05.45.71,1.08,1.41,1.18,2.27.1.91-.18,1.97-.39,2.85-.15.6-.35,1.19-.39,1.82-.04.49,0,.97-.06,1.46,0,0,0,.03,0,.05-.02.8-.1,1.59-.07,2.4,0,.42,0,.82-.07,1.23-.13.7-.17,1.23.29,1.82.62.8,1.34,1.52,1.91,2.36.25.36.42.77.62,1.17.18.39.22.89.46,1.25.51.78,1.66.84,2.49.87,1,.06,2.01.14,2.99.36,1.02.24,2.14.87,3.18.48.77-.3,1.63,0,2.39.25.95.31,1.86.73,2.82,1.01,1.14.32,2.13.09,3.14-.5.73-.42,1.49-.91,2.17-1.41.33-.25.59-.52.69-.93.12-.49.09-.95.29-1.41.17-.39.42-.75.62-1.14.23-.46.36-.96.52-1.45.26-.78.68-1.41,1.37-1.89.74-.51,1.63-.68,2.42-1.08.74-.39,1.02-1.29,1.81-1.59.51-.19,1.01-.03,1.52-.06.58-.03,1.11-.39,1.62-.66.53-.28,1.06-.58,1.59-.85.43-.23,1.03-.34,1.37-.69.32-.35.51-.84.77-1.23.32-.47.67-.91.99-1.38.3-.45.55-.92.84-1.38.16-.25.31-.49.33-.79.02-.22,0-.4.06-.62-.14-.51-.47-.99-.63-1.5-.26-.83-.22-1.7-.37-2.54-.27-1.55-1.35-2.99-2.44-4.1-.55-.56-1.17-.88-1.86-1.22-.69-.34-1.11-.82-1.66-1.32-.51-.48-1.08-.83-1.75-1.04-.83-.26-1.72-.27-2.54-.52-1.45-.46-2.57-1.61-4.07-1.96-.66-.16-1.31-.23-1.94-.5-.88-.38-1.75-.8-2.62-1.2-.75-.35-1.52-.88-2.32-1.08s-1.69,0-2.53.14c-.78.13-1.41-.02-2.16-.18-.92-.2-1.77-.06-2.67.13-.76.17-1.53.38-2.2.8-.74.46-1.28,1.19-2.02,1.67-.67.43-1.36.57-2.12.74-.36.08-.8.17-1.07.46-.28.3-.29.82-.36,1.22,0,0,0,0,0,0,0,.22,0,.45-.07.65-.11.31-.36.51-.6.72-.73.62-1.51,1.18-1.95,2.05-.25.5-.4,1.04-.56,1.57Z"/><path class="cls-1" d="m55.52,161.83c-.02-.15-.06-.29-.11-.44h0c-.04-.14-.09-.27-.15-.4-.05-.12-.11-.25-.17-.38-.3-.6-.67-1.15-1.02-1.72-.44-.67-.64-1.31-.62-2.11.02-1.02.43-1.98-.63-2.62-.18-.11-.38-.2-.58-.29h-.01c-.07-.03-.12-.06-.19-.08-.33-.14-.67-.27-.99-.41-.49-.23-.92-.44-1.48-.33-.72.13-1.23.19-1.92-.07-.43-.16-.83-.35-1.28-.41-.58-.09-1.21-.02-1.82.08-.1.01-.21.03-.31.05-.36.06-.72.12-1.06.16-.9.1-1.79.42-2.4,1.11-.35.39-.52.79-.61,1.3-.1.61-.3,1.11-.58,1.65-.23.46-.43.94-.52,1.44-.1.46-.02.89.05,1.36.19,1.15-.48,2.23-.28,3.38.09.53.45.9.75,1.33.33.47.58,1.03.65,1.61.09.59-.13,1.19.04,1.77.12.4.4.75.71,1.03.19.19.4.36.62.51.58.43,1.22.76,1.87,1.09.08.04.17.09.26.13.55.28,1.13.56,1.65.9.46.3.84.64,1.35.86.39.18.81.3,1.25.19.45-.12.87-.37,1.32-.51.46-.14.92-.22,1.39-.27.44-.05.88-.07,1.33-.1.27-.02.54-.03.82-.06.78-.08,1.36-.58,1.65-1.29.02-.05.04-.1.06-.16.04-.12.08-.24.11-.37h0c.11-.42.17-.87.12-1.28h0c0-.19-.03-.34-.09-.49-.11-.3-.26-.53-.26-.87,0-.11.01-.22.02-.33.04-.21.09-.43.12-.65.11-.61.19-1.25.38-1.85,0-.03,0-.06.02-.07.04,0,.1-.02.11-.08.16-.5.35-1,.42-1.53.03-.1.04-.2.04-.3.01-.16,0-.32-.03-.48Zm-1.07,3.2c-.07.36-.18.76-.26,1.16h0c-.03.19-.06.37-.08.55h0c-.02.37,0,.73.13,1.05.05.12.09.25.12.38.03.1.04.21.06.31.03.22.03.45.01.68v.02c0,.08-.01.15-.02.23,0,.08-.03.15-.05.23-.02.09-.04.18-.07.26-.05.15-.11.29-.18.42,0,0,0,.02-.01.02-.05.11-.11.21-.19.3-.41.53-.96.59-1.6.6-.07,0-.14,0-.21.01-.43.01-.86.05-1.3.09-.05,0-.11.01-.16.01-.88.07-1.7.36-2.52.68-1.07.44-1.98-.69-2.83-1.19-.59-.36-1.22-.66-1.85-.97-.28-.14-.56-.28-.83-.43-.09-.05-.19-.1-.29-.16-.29-.16-.58-.35-.83-.57-.08-.06-.15-.13-.22-.2-.09-.09-.17-.18-.24-.28-.02-.02-.04-.05-.05-.07-.04-.05-.07-.11-.1-.16-.05-.08-.09-.16-.12-.25-.03-.06-.05-.12-.06-.18-.03-.07-.04-.15-.05-.23-.01-.08-.02-.17-.02-.25v-.11c.04-.92-.05-1.74-.52-2.55-.27-.45-.68-.83-.79-1.35-.11-.51.04-1.04.14-1.54.09-.45.2-.9.17-1.36-.03-.54-.24-1.05-.16-1.59.13-.97.81-1.73,1.05-2.67.15-.57.13-1.08.53-1.55.3-.36.68-.62,1.11-.79.32-.13.65-.21.99-.27.21-.04.41-.06.62-.09.21-.03.42-.05.62-.08.13-.01.26-.03.39-.06.03,0,.06,0,.09,0,.58-.1,1.15-.16,1.73-.01.39.1.77.29,1.16.42.37.13.75.19,1.14.15.22-.02.4-.08.6-.12.44-.1.74-.02,1.15.16.45.19.88.42,1.34.62h.01c.1.05.21.09.31.14.05.02.1.04.14.07.05.02.1.05.15.08.06.04.12.08.17.12.05.04.11.09.15.15.03.03.05.06.07.1.03.04.06.09.07.14.05.11.08.23.08.37-.01.93-.23,1.79.11,2.69.33.91,1.06,1.68,1.52,2.53.13.25.25.49.33.73.06.15.1.3.13.46h0c.04.2.05.4.03.61v.02s-.01.05-.01.08c-.01.12-.05.23-.07.35-.07.2-.14.39-.21.54-.09.2-.17.38-.24.57-.07.19-.13.38-.19.58,0,.02,0,.04,0,.05-.03.12-.06.24-.08.36Z"/><path class="cls-1" d="m39.46,161.54c-.1.5-.26,1.03-.15,1.53.11.52.52.9.79,1.35.48.82.57,1.63.52,2.55-.06,1.22,1.02,1.95,1.98,2.46.89.48,1.82.88,2.68,1.4.84.51,1.75,1.63,2.83,1.19.82-.32,1.63-.62,2.52-.68.56-.05,1.12-.1,1.67-.11.63,0,1.18-.07,1.6-.61.59-.76.68-1.99.33-2.85-.34-.84.05-1.91.21-2.76.11-.56.28-1.04.51-1.56.07-.16.15-.34.21-.54.03-.12.06-.23.07-.35.09-.7-.16-1.3-.48-1.9-.46-.85-1.19-1.62-1.52-2.53-.34-.9-.12-1.76-.11-2.69,0-.68-.6-.96-1.15-1.18-.46-.19-.89-.42-1.34-.62-.41-.18-.71-.26-1.15-.17-.2.05-.39.1-.6.12-.39.05-.77-.02-1.15-.15-.39-.13-.76-.32-1.16-.42-.58-.15-1.15-.08-1.73.02-.89.16-1.87.16-2.71.51-.43.17-.82.43-1.11.79-.4.47-.39.98-.53,1.55-.24.94-.92,1.7-1.05,2.67-.08.53.13,1.05.16,1.59.03.46-.07.91-.17,1.36Z"/><path class="cls-1" d="m79.15,198.12s-.04-.02-.06-.03c-.05-.02-.09-.03-.14-.04-.11-.03-.21-.05-.32-.06-.12-.01-.23-.02-.35-.03-.08-.01-.16-.02-.25-.03-.08-.01-.15-.03-.23-.05-.53-.16-.95-.59-1.42-.86-.39-.24-.84-.39-1.29-.49-.45-.09-.89-.12-1.33-.1-.14.01-.29.02-.43.04.09.14.19.28.28.42.14-.01.29-.02.44-.02.5,0,1.01.06,1.48.22.56.18.97.53,1.46.85.43.29.85.4,1.36.44.12.01.23.03.34.06.14.04.28.09.41.15.1-.12.2-.23.3-.35-.08-.05-.16-.09-.25-.12Zm0,0s-.04-.02-.06-.03c-.05-.02-.09-.03-.14-.04-.11-.03-.21-.05-.32-.06-.12-.01-.23-.02-.35-.03-.08-.01-.16-.02-.25-.03-.08-.01-.15-.03-.23-.05-.53-.16-.95-.59-1.42-.86-.39-.24-.84-.39-1.29-.49-.45-.09-.89-.12-1.33-.1-.14.01-.29.02-.43.04.09.14.19.28.28.42.14-.01.29-.02.44-.02.5,0,1.01.06,1.48.22.56.18.97.53,1.46.85.43.29.85.4,1.36.44.12.01.23.03.34.06.14.04.28.09.41.15.1-.12.2-.23.3-.35-.08-.05-.16-.09-.25-.12Zm27.53-5.84c-.16-1.02-.49-1.83-1.08-2.69-.49-.7-.98-1.39-1.85-1.61-1.13-.3-2.25.34-3.38-.06-1.16-.41-1.85-1.3-2.67-2.17-.23-.24-.47-.44-.73-.62-.1-.07-.2-.14-.31-.2-.07-.05-.14-.1-.21-.14-.31-.21-.57-.47-.8-.76-.08-.09-.14-.18-.21-.28-.04-.05-.08-.11-.12-.17-.49-.77-.88-1.56-1.71-2.04-.74-.42-1.59-.53-2.42-.64-1.01-.11-1.97-.34-2.98-.5-1.01-.16-2.04.02-3.05-.13-.15-.02-.29-.04-.44-.08-.05-.01-.09-.03-.14-.04-.44-.12-.85-.24-1.27-.35h-.01c-.11-.03-.23-.06-.34-.09-.52-.12-1.05-.22-1.62-.25-1.23-.05-2.46.06-3.69.02-.64-.03-1.24.04-1.72-.45-.27-.26-.51-.5-.89-.59-.75-.15-1.7.12-2.42.33-.37.11-.72.23-.97.53-.27.31-.4.7-.71.99-.35.33-.8.57-1.23.81-.12.07-.24.15-.36.22,0,0-.03.02-.04.03-.4.25-.78.52-1.16.81-.06.04-.13.09-.19.14-.03.02-.06.05-.09.07-.67.51-1.28.98-1.32,1.88-.04.76-.11,1.34-.65,1.93-.06.06-.11.12-.17.18-.1.09-.2.18-.3.27h-.01c-.17.14-.34.28-.52.41-.03.03-.06.05-.09.07-.1.08-.19.16-.28.24-.58.5-1.06,1.02-1.28,1.81-.14.52-.15,1.05-.27,1.56-.09.39-.23.81-.12,1.21.09.37.39.63.69.86.39.3.78.61,1.17.92,1.02.76,2.04,1.52,3.04,2.29.48.38.96.78,1.44,1.12.34.24.7.34,1.11.36.54.03,1.06-.08,1.58-.22l.33-.09c.46-.12.91-.24,1.38-.28h.01c.14-.01.29-.02.44-.02.5,0,1.01.06,1.48.22.56.18.97.53,1.46.85.43.29.85.4,1.36.44.12.01.23.03.34.06.14.04.28.09.41.15.22.1.43.25.65.43.22.18.42.37.6.57.12.13.24.27.35.41.3.37.58.77.88,1.17.34.44.8.68,1.17,1.08.38.39.47.93.61,1.43.13.48.31.9.58,1.26.21.29.49.53.84.73,0,0,.03.01.04.02.45.25.94.39,1.42.56.55.21.95.5,1.36.92.56.58,1.16,1.08,1.97,1.22,1.08.19,2.2.17,3.23-.15,1.39-.42,2.3.31,3.52.85.84.38,1.72.09,2.52-.26.8-.35,1.56-.07,2.33.16.13.03.26.06.39.1.15.03.31.06.46.07.16.01.3.01.44,0,.13-.02.25-.04.36-.08.34-.13.61-.38.82-.78.33-.64.52-1.39.59-2.1.05-.39-.03-.75-.03-1.14-.01-.68.38-1.11.82-1.57.33-.37.64-.76.9-1.19,0,0,.01,0,.02-.01,0-.01.01-.02.01-.03.02-.03.04-.06.06-.08.3-.5.26-.92.42-1.46.03-.11-.03-.17-.1-.2.01-.48,0-.98-.01-1.49-.02-.67.03-1.32.23-1.95.16-.55.43-1.07.56-1.63.25-1.1-.24-2.09-.43-3.17Zm-.16,3.21c-.15.55-.41,1.06-.55,1.62-.12.49-.13,1.01-.12,1.51.02.94.14,1.9-.02,2.84-.1.26-.27.5-.42.72-.3.46-.67.84-1.05,1.25-.28.32-.53.67-.63,1.09-.1.42-.01.83,0,1.26,0,.66-.18,1.36-.43,1.97-.11.28-.24.6-.5.76-.04.02-.08.04-.12.06-.02,0-.04.02-.07.03-.1.03-.21.04-.32.04-.33,0-.68-.08-.99-.17-.09-.02-.17-.05-.25-.07-.14-.04-.27-.07-.4-.11-.11-.02-.22-.05-.32-.07-.4-.08-.77-.11-1.17-.03-.09.02-.19.04-.29.08-.09.03-.19.06-.3.11-.5.22-1.03.43-1.6.35-.53-.07-.99-.44-1.46-.67-.87-.43-1.72-.66-2.68-.38-.65.19-1.19.33-1.89.29-.49-.03-1.03.01-1.51-.13-.88-.25-1.33-1.03-2.02-1.55-.08-.06-.17-.12-.26-.17-.06-.04-.12-.07-.19-.1-.11-.06-.23-.12-.35-.16-.1-.04-.19-.08-.29-.11-.38-.14-.77-.26-1.13-.44-.12-.06-.23-.13-.34-.2-.2-.13-.35-.27-.48-.43-.15-.19-.25-.39-.34-.61-.04-.1-.08-.2-.11-.3-.07-.2-.13-.41-.19-.62-.03-.09-.06-.18-.09-.27-.03-.09-.06-.19-.1-.28-.35-.86-1.28-1.25-1.8-1.99-.27-.38-.55-.76-.85-1.1-.08-.09-.16-.18-.24-.26l-.21-.21c-.12-.12-.25-.23-.38-.34-.21-.16-.42-.33-.66-.46-.08-.05-.16-.09-.25-.12-.02-.01-.04-.02-.06-.03-.05-.02-.09-.03-.14-.04-.11-.03-.21-.05-.32-.06-.12-.01-.23-.02-.35-.03-.08-.01-.16-.02-.25-.03-.08-.01-.15-.03-.23-.05-.53-.16-.95-.59-1.42-.86-.39-.24-.84-.39-1.29-.49-.45-.09-.89-.12-1.33-.1-.14.01-.29.02-.43.04-.18.02-.36.05-.53.08-.18.03-.36.07-.53.11-.12.03-.24.06-.36.09-.11.03-.22.06-.33.08-.09.02-.18.04-.27.06-.07.02-.14.03-.21.04-.07.02-.14.02-.22.03-.12.02-.25.03-.38.03-.66,0-1.02-.29-1.5-.69-1.68-1.4-3.48-2.67-5.19-4.03-.58-.46-.38-.92-.25-1.57.09-.43.09-.88.2-1.32.06-.25.15-.48.27-.68.06-.1.12-.2.19-.29.17-.23.38-.43.6-.63.09-.08.18-.15.28-.23.14-.12.28-.23.42-.35.08-.06.16-.13.23-.19.11-.1.21-.19.31-.29.18-.18.36-.38.5-.59.04-.05.07-.1.1-.15.12-.19.21-.39.27-.6.03-.1.05-.19.07-.29.08-.52-.09-1.1.26-1.54.06-.08.13-.16.22-.23.05-.05.1-.1.15-.14.02-.04.05-.06.08-.07h0c.16-.15.34-.29.51-.41h.01c.11-.09.21-.16.31-.24.19-.14.39-.28.59-.4.09-.06.19-.12.29-.18.11-.07.23-.14.35-.21.47-.29.94-.58,1.37-.93.34-.27.51-.61.75-.97.26-.39.67-.49,1.11-.61.45-.12.93-.24,1.4-.26.52-.02.78.17,1.13.52.68.67,1.53.6,2.43.62,1.15.03,2.32-.08,3.49-.02.13.01.26.02.39.04.13.01.26.03.38.06.13.02.26.05.38.08s.25.06.37.09c.12.03.23.06.34.09.22.06.45.13.67.19.22.06.45.12.68.18.04.01.07.02.11.03.13.03.27.05.4.07.45.05.9.04,1.35.03.32,0,.64-.01.97.01h.02c.15,0,.31.02.46.04.91.13,1.77.38,2.69.48.87.09,1.81.16,2.6.58.86.46,1.21,1.34,1.74,2.11.01.02.02.03.03.05.05.08.11.16.17.23.11.15.23.29.37.42.09.1.19.19.3.27.1.07.2.14.3.21.1.07.21.13.31.2.25.16.49.33.71.55.67.68,1.21,1.44,2.04,1.96.85.53,1.74.75,2.73.6.65-.08,1.29-.24,1.91.03.46.2.77.59,1.05.99.56.81,1.01,1.57,1.17,2.55.18,1.09.73,2.22.43,3.33Zm-27.37,2.63s-.04-.02-.06-.03c-.05-.02-.09-.03-.14-.04-.11-.03-.21-.05-.32-.06-.12-.01-.23-.02-.35-.03-.08-.01-.16-.02-.25-.03-.08-.01-.15-.03-.23-.05-.53-.16-.95-.59-1.42-.86-.39-.24-.84-.39-1.29-.49-.45-.09-.89-.12-1.33-.1-.14.01-.29.02-.43.04.09.14.19.28.28.42.14-.01.29-.02.44-.02.5,0,1.01.06,1.48.22.56.18.97.53,1.46.85.43.29.85.4,1.36.44.12.01.23.03.34.06.14.04.28.09.41.15.1-.12.2-.23.3-.35-.08-.05-.16-.09-.25-.12Z"/><path class="cls-1" d="m63.56,190.7c-.13.64-.33,1.1.25,1.56,1.71,1.37,3.51,2.64,5.19,4.03.48.4.84.69,1.5.69.6,0,1.19-.18,1.77-.33.93-.23,1.87-.33,2.82-.13.45.1.9.26,1.3.5.47.27.88.7,1.41.85.42.13.87.06,1.3.21.36.14.67.38.96.62.67.55,1.19,1.2,1.68,1.9.52.74,1.45,1.14,1.8,1.99.38.93.39,1.92,1.31,2.52.79.52,1.79.6,2.55,1.18.7.52,1.14,1.3,2.02,1.55.49.14,1.02.1,1.52.13.7.04,1.24-.1,1.89-.29.96-.28,1.81-.05,2.67.39.47.23.94.6,1.46.67.57.07,1.1-.14,1.61-.36.88-.39,1.57-.22,2.47.03.49.14,1.06.33,1.56.19.39-.1.56-.5.7-.84.25-.61.42-1.31.42-1.97,0-.42-.1-.84,0-1.26s.35-.77.63-1.08c.38-.41.74-.79,1.05-1.25.16-.23.32-.47.42-.73.16-.94.04-1.9.02-2.84,0-.51,0-1.02.12-1.51.14-.56.4-1.07.55-1.63.3-1.11-.25-2.24-.43-3.33-.16-.97-.61-1.74-1.17-2.54-.28-.4-.59-.79-1.06-.99-.62-.27-1.26-.11-1.9-.03-.99.15-1.88-.07-2.74-.61-.83-.51-1.37-1.28-2.04-1.96-.39-.39-.88-.62-1.31-.96-.33-.27-.61-.58-.84-.93-.55-.77-.89-1.69-1.77-2.16-.79-.41-1.73-.49-2.6-.58-.92-.1-1.78-.35-2.69-.48-1.07-.16-2.14.08-3.2-.16-1.13-.26-2.15-.69-3.32-.75-1.17-.06-2.33.05-3.49.02-.9-.02-1.75.05-2.42-.62-.35-.35-.62-.53-1.13-.51-.47.02-.95.14-1.4.26-.44.12-.85.22-1.11.62-.24.36-.41.7-.75.96-.8.65-1.76,1.1-2.6,1.72-.42.32-.95.67-1.28,1.09-.36.44-.18,1.02-.27,1.54-.15.9-.8,1.54-1.48,2.1-.76.63-1.52,1.17-1.76,2.19-.1.44-.11.89-.19,1.32Z"/><path class="cls-1" d="m136.99,223.6s-.01-.12-.01-.17c.01-.01.03-.03.02-.06-.02-.05-.03-.11-.05-.17-.02-.26-.06-.54-.1-.82,0-.11,0-.23-.03-.35-.04-.34-.15-.67-.26-1-.23-.68-.41-1.39-.67-2.06-.45-1.23-1.73-1.35-2.85-1.64-1.46-.38-2.9-.68-4.39-.78-.45-.03-.9-.06-1.33-.2-.25-.1-.49-.24-.75-.34-.5-.19-.94-.15-1.43,0-.81.24-1.44.45-2.27.13-.71-.27-1.34-.73-2.02-1.07-.63-.31-1.3-.48-1.96-.7-.71-.24-1.38-.57-2.06-.86-.6-.26-1.19-.42-1.84-.45-.76-.02-1.53-.05-2.2-.45-.5-.3-.8-.59-1.42-.55-.53.04-1.07.18-1.59.32-.77.2-1.47.32-2.26.26-.61-.05-1.22-.11-1.82-.08-.09,0-.18,0-.27.01-.38.04-.75.1-1.12.17-.27.05-.53.11-.8.18-.07.02-.13.03-.2.05-.37.09-.77.15-1.14.28-.21.07-.4.17-.57.3-.34.07-.66.06-1.08,0-.37-.06-.72-.1-1.09-.01-.4.09-.76.28-1.17.36-.42.09-.86.13-1.27.28-.38.15-.75.39-1.1.61-.72.46-1.34.99-1.85,1.67-.53.7-1.12,1.35-1.62,2.06-.49.71-.65,1.67-.91,2.48-.24.74-.3,1.39,0,2.12.24.58.55,1.12.81,1.69.13.28.24.56.33.86.07.25.12.55.16.86.12.86.25,1.81,1.16,1.98.85.15,1.79.07,2.64.06.74-.02,1.51.09,2.25-.06.85-.18,1.65-.58,2.53-.67.43-.04.86-.01,1.28.07.44.06.88.17,1.31.25.12.02.25.04.37.06.37.07.74.14,1.09.24.4.13.75.36,1.13.54.38.2.78.34,1.2.43.08.02.16.04.24.05.2.05.41.08.61.1.24.03.48.05.73.06.11.02.22.02.33.02.32,0,.64-.03.94-.11.54-.15.85-.54,1.15-.99.22-.33.39-1.01.9-.96.33.03.64.4.84.64.35.42.6.92,1.03,1.27.5.4,1.06.45,1.68.33.43-.08.83-.22,1.26-.02.29.14.51.41.73.64,1.01,1.11,2.4,1.68,3.48,2.69.73.69.91,1.47.88,2.46-.02.48-.1,1.03.16,1.47.68,1.14,2.08.19,2.9-.2,1.52-.71,2.8-1.8,4.26-2.59,1.18-.64,2.53-1.14,3.38-2.24.38-.48.67-1.04,1.09-1.5.45-.5.88-.6,1.54-.59.62,0,1.18-.07,1.57-.59.33-.43.45-1.03.48-1.56.08-1.46-.77-2.78-.96-4.21Zm.11,5.68c-.61.6-1.54.1-2.26.41-.43.19-.75.54-1.03.91-.35.46-.63.98-1.02,1.41-.51.55-1.3.89-1.95,1.22-1.3.66-2.48,1.44-3.7,2.22-.67.43-1.36.78-2.08,1.13-.55.28-1.63,1.03-1.97.06-.2-.57.02-1.35-.06-1.95-.06-.59-.25-1.08-.64-1.54-.87-1-2.12-1.52-3.13-2.35-.86-.69-1.39-1.76-2.65-1.55-.42.08-.84.25-1.28.14-.4-.11-.68-.42-.92-.74-.29-.4-.55-.81-.93-1.13-.33-.3-.77-.52-1.22-.37-.47.16-.58.65-.82,1.03-.21.34-.44.7-.81.86-.09.03-.17.06-.26.08-.13.02-.25.03-.38.03-.11.01-.23.01-.34.01h-.04c-.34,0-.69-.03-1.03-.07-.11-.02-.21-.03-.31-.05-.09-.01-.18-.03-.28-.05h-.01c-.17-.03-.34-.08-.51-.13-.71-.21-1.32-.63-2.03-.82-.35-.1-.71-.17-1.07-.24-.37-.07-.74-.13-1.11-.21-.19-.04-.37-.08-.56-.11h-.03c-.15-.03-.29-.05-.44-.06-.37-.05-.74-.06-1.11,0-.76.11-1.46.39-2.2.56-.82.21-1.68.09-2.51.11-.76.02-1.59.08-2.34-.06-.7-.13-.68-.93-.79-1.51-.02-.11-.04-.22-.07-.33-.02-.11-.05-.22-.09-.33-.04-.18-.1-.36-.16-.53,0,0-.01-.02-.01-.03,0-.02-.01-.03-.02-.04-.04-.11-.08-.22-.12-.32-.04-.12-.1-.24-.15-.36,0-.03-.02-.05-.04-.08-.32-.72-.87-1.51-.89-2.3-.02-.79.44-1.57.66-2.32.24-.78.64-1.3,1.15-1.93.44-.53.8-1.13,1.25-1.65.55-.62,1.3-1.13,2.04-1.52.66-.35,1.4-.34,2.08-.58.4-.13.72-.29,1.15-.27.41.02.79.17,1.21.16.1,0,.2-.01.3-.04.09-.02.17-.04.25-.07.18-.05.35-.13.53-.2.22-.08.45-.16.69-.18.13,0,.19-.1.21-.19.13-.03.26-.06.39-.09.18-.04.36-.08.54-.11.21-.04.42-.08.63-.11.13-.02.25-.04.38-.05.13-.02.25-.03.38-.04h.06c.29-.02.58-.02.86-.01.75.04,1.49.18,2.22.09.68-.09,1.32-.32,1.97-.47.3-.07.62-.14.93-.11.37.04.59.26.89.44.44.27.97.43,1.49.5.71.11,1.41,0,2.11.22.65.22,1.24.55,1.86.8.67.27,1.36.44,2.03.68.65.22,1.22.59,1.8.92.54.3,1.1.58,1.71.65.55.07,1.05-.1,1.57-.26.42-.14.8-.24,1.24-.11.26.08.5.22.76.32.5.21,1.04.25,1.58.28,1.53.1,3.01.44,4.5.81.57.15,1.24.23,1.75.55.56.34.67.94.85,1.53.12.42.32.82.49,1.22-.04-.04-.08-.08-.13-.11-.06-.05-.14.05-.08.1.51.43.57,1.24.64,1.86.07.56.1,1.11.25,1.65.2.77.51,1.51.65,2.29.14.76.13,1.84-.47,2.43Z"/><path class="cls-1" d="m92.39,219.88c-.22.74-.68,1.52-.66,2.31.02.83.61,1.64.93,2.38.28.62.5,1.27.62,1.95.11.58.08,1.38.79,1.51.74.14,1.58.08,2.33.06.84-.03,1.69.09,2.52-.11.73-.17,1.43-.46,2.2-.57.73-.1,1.42.03,2.14.17.73.15,1.47.25,2.19.45.71.19,1.31.61,2.02.82.7.21,1.42.29,2.15.3.33,0,.7,0,1.01-.12.38-.16.61-.52.82-.86.24-.38.35-.86.82-1.03.45-.15.89.07,1.22.37.38.32.63.73.93,1.13.24.32.52.63.92.74.44.11.86-.06,1.29-.14,1.26-.21,1.79.85,2.65,1.55,1.01.83,2.26,1.34,3.13,2.34.39.46.58.96.64,1.54.07.6-.15,1.38.06,1.95.34.97,1.42.22,1.97-.06.72-.35,1.41-.7,2.08-1.13,1.22-.78,2.4-1.56,3.7-2.22.65-.33,1.44-.67,1.95-1.22.39-.42.67-.95,1.02-1.41.28-.37.61-.73,1.04-.91.72-.31,1.64.18,2.26-.41.6-.59.61-1.67.47-2.42-.15-.78-.45-1.52-.65-2.3-.15-.54-.18-1.09-.25-1.64-.07-.62-.13-1.43-.64-1.86-.06-.05.02-.15.08-.1.05.03.08.07.13.11-.17-.4-.37-.8-.5-1.22-.17-.59-.28-1.18-.84-1.52-.51-.32-1.18-.4-1.75-.55-1.49-.38-2.97-.71-4.5-.81-.53-.04-1.07-.07-1.58-.28-.26-.1-.5-.24-.75-.32-.44-.13-.83-.03-1.24.11-.52.17-1.02.33-1.57.27-.62-.07-1.18-.36-1.71-.65-.59-.33-1.16-.7-1.8-.92-.67-.24-1.36-.41-2.03-.68-.62-.26-1.21-.59-1.86-.8-.7-.23-1.4-.12-2.11-.22-.51-.07-1.05-.23-1.49-.51-.29-.18-.52-.4-.89-.44-.31-.03-.62.05-.93.11-.65.15-1.3.38-1.97.47-.73.09-1.48-.05-2.22-.08-1.08-.06-2.18.15-3.24.4-.02.09-.08.19-.21.19-.62.05-1.14.48-1.77.49-.41,0-.8-.14-1.2-.16-.43-.02-.75.14-1.15.27-.69.24-1.42.23-2.08.58-.74.39-1.49.9-2.04,1.52-.45.51-.81,1.12-1.25,1.64-.51.63-.91,1.16-1.15,1.94Z"/><path class="cls-1" d="m126.7,146.31c-.45-.85-.91-1.47-1.74-1.96-.36-.2-.62-.38-.51-.86.05-.23.22-.46.29-.7.12-.42.11-.86,0-1.28-.29-1.06-1.26-1.7-1.65-2.71-.4-1.01-1.25-1.08-2.11-1.56-.53-.28-1.01-.69-1.31-1.21-.23-.41-.37-.85-.56-1.26-.46-.95-1.42-1.53-2.15-2.25-.83-.82-1.27-1.89-2.04-2.76-.24-.29-.5-.37-.88-.4-.62-.05-1.27-.14-1.74-.61-.69-.68-.82-1.78-1.56-2.41-.6-.52-1.54-.32-2.26-.33-.54-.01-1.05-.09-1.58.05-.63.17-1.13.38-1.8.2-.97-.26-2.1-.38-3.08-.1-.5.15-.96.4-1.42.61-.52.24-1.05.43-1.55.72-.26.15-.48.3-.57.61-.13.49-.21.83-.57,1.23-.35.4-.59.79-.88,1.23-.28.45-.65.84-.93,1.29-.53.85-.81,1.83-1.03,2.79-.26,1.07-.19,1.92.28,2.91.3.63.58,1.27.84,1.91.14.38.26.77.47,1.12.35.62.92,1.06,1.56,1.35,1.4.67,2.98.71,4.46,1.12.59.16,1.17.37,1.7.67.04.03.09.05.13.09.4.25.71.58,1.05.91.35.32.72.52,1.12.65.4.12.83.16,1.3.19.48.02.98.03,1.44.2.53.2.87.64,1.14,1.11.56.95.83,2.09,1.08,3.16.3,1.21.38,2.31-.19,3.45-.37.78-1.17,1.45-.98,2.39.16.8.87,1.37,1.55,1.74.22.12.43.26.63.42.44.32.87.68,1.33.95.23.13.46.24.71.32.27.08.51.05.78.06.49.02.7.21.93.6.2.35.38.73.6,1.07.21.33.44.65.81.81.39.16.84.13,1.26.26.48.17.94.4,1.47.39.46-.01.92-.23,1.39-.11.77.19,1.26.95,2.11.94.48,0,1.05-.04,1.51-.16.22-.06.37-.17.48-.37.37-.7.73-1.67.32-2.4,0-.02-.02-.02-.03-.03-.05-.3-.12-.58-.19-.87-.18-.64-.38-1.28-.41-1.93-.04-.66.16-1.22.42-1.81.45-1.06.91-2.12,1.02-3.27.06-.61,0-1.21.04-1.81.06-.59.21-1.17.24-1.76.04-.97-.3-1.76-.74-2.6Zm.21,3.9c-.07.49-.07.97-.06,1.47,0,1.26-.36,2.36-.85,3.49-.39.93-.76,1.73-.63,2.75.12,1.02.57,1.98.66,3,.02.2.03.51,0,.82-.1.2-.22.4-.31.6-.1.17-.12.28-.3.36-.17.08-.47.04-.67.06-.56.07-.95.14-1.44-.15-.32-.19-.61-.42-.95-.57-.81-.38-1.63.12-2.49-.13-.4-.13-.76-.3-1.18-.37-.63-.1-.94-.21-1.29-.75-.37-.59-.61-1.5-1.32-1.79-.5-.21-1.04.03-1.54-.23-.16-.08-.31-.17-.45-.27-.13-.09-.26-.18-.39-.28-.13-.1-.25-.19-.37-.29-.08-.06-.17-.13-.26-.18-.08-.06-.17-.11-.25-.16-.01-.01-.02-.01-.03-.02-.38-.23-.77-.44-1.11-.72-.08-.06-.15-.12-.22-.19-.08-.07-.15-.15-.21-.23-.08-.09-.14-.19-.2-.3-.31-.58-.07-1.04.28-1.52.3-.38.53-.79.73-1.22.37-.83.4-1.67.26-2.57-.14-.94-.4-1.91-.7-2.82-.28-.81-.65-1.69-1.29-2.28-.56-.52-1.3-.63-2.04-.66-.44-.03-.89-.03-1.32-.13t-.02-.01c-.53-.13-.89-.44-1.27-.82-.15-.15-.31-.29-.47-.41-.15-.12-.3-.22-.46-.32-.06-.04-.13-.08-.19-.11-.25-.15-.51-.27-.78-.37-.11-.05-.23-.09-.35-.13-.14-.06-.28-.1-.42-.14-.18-.06-.37-.11-.56-.15-.4-.1-.8-.18-1.21-.25-1.38-.24-3.12-.46-4.02-1.66-.55-.74-.77-1.77-1.16-2.59-.26-.53-.6-1.05-.72-1.63-.12-.61,0-1.21.15-1.79.23-.96.52-1.9,1.08-2.72.58-.85,1.2-1.68,1.82-2.49.22-.28.35-.57.41-.91.1-.51.45-.65.9-.88.46-.22.95-.4,1.42-.63.54-.26,1.06-.49,1.66-.53.57-.03,1.2-.05,1.76.08.45.1.87.27,1.35.23.45-.05.86-.27,1.3-.35.52-.09,1.06.01,1.57,0,.43-.01.92-.08,1.34.05.53.16.78.65,1.03,1.12.39.75.74,1.55,1.56,1.91.36.16.75.24,1.13.27.3.03.55.02.79.23.22.2.39.5.55.76.56.86,1.08,1.65,1.83,2.37.39.37.8.72,1.18,1.09.38.38.58.8.79,1.29.32.76.68,1.38,1.35,1.86.36.27.74.45,1.15.61.7.28,1.03.54,1.31,1.24.36.93,1.28,1.5,1.58,2.47.19.61.02,1.06-.21,1.61-.11.3-.2.61-.03.92.15.26.47.42.72.57.46.25.8.57,1.1,1.01.53.79,1.07,1.76,1.14,2.72.05.59-.07,1.17-.16,1.76Z"/><path class="cls-1" d="m95.49,134.55c-.15.58-.27,1.18-.15,1.79.12.58.46,1.1.72,1.63.39.82.62,1.85,1.17,2.58.9,1.2,2.64,1.42,4.01,1.66,1.63.29,3.23.68,4.45,1.88.39.39.74.7,1.29.83.43.1.88.1,1.32.13.73.04,1.48.15,2.04.66.64.6,1.01,1.47,1.29,2.28.3.92.56,1.88.71,2.83.14.89.11,1.74-.27,2.56-.19.43-.43.84-.73,1.22-.35.48-.59.94-.28,1.52.46.86,1.53,1.23,2.28,1.8.39.29.77.62,1.21.84.51.26,1.04.02,1.54.23.71.29.95,1.2,1.32,1.79.35.54.66.65,1.29.75.42.06.78.24,1.18.37.85.25,1.67-.25,2.49.13.34.15.62.39.95.57.49.29.88.22,1.44.15.2-.02.5.03.67-.06s.2-.19.29-.36c.09-.2.21-.4.31-.61.03-.3.02-.62,0-.82-.09-1.02-.53-1.97-.66-2.99s.24-1.83.63-2.76c.49-1.13.85-2.23.84-3.49,0-.5,0-.97.06-1.47.09-.59.21-1.17.17-1.75-.07-.96-.62-1.94-1.15-2.73-.29-.44-.63-.75-1.09-1.01-.26-.15-.57-.3-.73-.57-.17-.3-.08-.62.04-.92.22-.55.39-1,.2-1.61-.29-.97-1.21-1.54-1.58-2.47-.28-.7-.61-.96-1.3-1.24-.41-.16-.79-.34-1.15-.61-.68-.49-1.04-1.1-1.36-1.86-.2-.49-.4-.91-.79-1.29-.38-.38-.79-.73-1.18-1.09-.75-.72-1.27-1.51-1.83-2.37-.17-.26-.33-.56-.55-.76-.24-.21-.5-.2-.79-.23-.39-.03-.77-.11-1.13-.27-.82-.37-1.18-1.17-1.56-1.91-.25-.47-.5-.96-1.03-1.12-.42-.13-.91-.06-1.34-.06-.51,0-1.05-.09-1.57,0-.44.08-.85.3-1.3.35-.48.05-.89-.13-1.34-.23-.56-.13-1.19-.11-1.76-.07-.6.04-1.12.27-1.66.52-.47.23-.96.41-1.42.63-.45.23-.8.37-.9.88-.06.34-.18.62-.4.91-.62.81-1.24,1.63-1.82,2.49-.56.82-.85,1.76-1.08,2.72Z"/><path class="cls-1" d="m130.58,178.86s-.04-.02-.07-.02c-.25-.31-.54-.59-.84-.86-.45-.42-.97-.73-1.44-1.14-.54-.48-1.01-1.04-1.55-1.54-.91-.83-1.97-1.72-3.11-2.19-.46-.2-.97-.33-1.46-.24h-.01c-.63.1-1.12.54-1.74.7-.11.02-.22.05-.34.06-.06.01-.11.02-.17.03-.16.02-.31.03-.47.05h-.06c-.35.02-.7.04-1.05.07-.11.01-.21.01-.32.02-.42.03-.85.05-1.28.03-.08,0-.16,0-.24,0-1.09-.07-2.03-.7-3.12-.27-.88.34-1.78,1.06-2.41,1.74-.33.36-.6.76-.78,1.21-.18.46-.19.98-.38,1.45-.1.26-.24.49-.37.73-.11.2-.21.41-.28.64-.13.47-.15.99-.17,1.49-.04.99.21,1.54,1.15,1.92.06.02.12.05.19.08.7.28,1.55.6,2.26.21.22-.12.4-.32.56-.52.12-.15.25-.47.39-.58.2-.06.41-.13.6-.19.07.06.15.12.21.18.08.07.17.15.24.22.16.18.28.37.45.52.33.3.72.38,1.14.41.71.07,1.23.19,1.77.66.23.2.44.42.71.55.07.05.15.08.24.11.46.13.98.1,1.45.13.03,0,.06.01.09.01.64.05,1.32.09,1.95.24.65.18,1.03.66,1.43,1.16.58.75,1.4.36,2.2.17.73-.17,1.85-.17,2.36-.82.27-.35.31-.82.37-1.24.08-.62.28-1.01.86-1.32.7-.36,1.79-.6,1.88-1.56.07-.71-.27-1.83-.84-2.29Zm.28,2.66c-.18.25-.51.39-.77.52-.77.36-1.55.64-1.74,1.56-.09.47-.05,1.12-.41,1.49-.35.36-.97.37-1.43.46-.57.11-1.14.28-1.72.39-.59.11-.74-.35-1.07-.73-.6-.71-1.32-.89-2.22-1-.31-.03-.63-.06-.94-.09-.26-.02-.53-.04-.79-.05-.37-.01-.69-.03-1-.17-.12-.05-.23-.12-.34-.21-.65-.56-1.15-.95-2.04-1-.65-.05-1.02-.15-1.46-.64-.22-.26-.48-.57-.8-.71-.74-.34-1.08.58-1.49,1-.27.27-.63.36-1.01.36-.1,0-.2-.01-.3-.03-.13-.02-.25-.05-.37-.08-.12-.04-.24-.08-.35-.12s-.22-.09-.32-.15c-.14-.06-.26-.14-.37-.21-.56-.37-.44-1.01-.41-1.59.03-.32.05-.65.12-.97.02-.1.05-.21.08-.31,0-.04.02-.07.03-.11.16-.39.42-.74.54-1.17.12-.44.12-.9.28-1.34.37-1.01,1.21-1.68,2.05-2.29.43-.31.87-.6,1.42-.65.57-.05,1.07.23,1.6.36.25.06.51.1.77.13.43.04.88.04,1.32.02h.03c.28-.01.56-.04.83-.06l.36-.03c.09-.01.19-.02.28-.03h.02s.01,0,.02,0c.23-.01.45-.04.67-.07h.01s.03,0,.04-.01c.17-.02.33-.05.49-.09.12-.03.24-.06.35-.1.02-.01.03-.01.05-.02.08-.02.16-.05.24-.09.07-.03.15-.06.22-.1.63-.31,1.15-.43,1.82-.2.46.16.88.39,1.27.66.91.64,1.78,1.32,2.56,2.11.73.75,1.56,1.28,2.34,1.96.7.63,1.55,1.39,1.62,2.39,0,.04.02.06.05.08.06.33.08.64-.13.93Z"/><path class="cls-1" d="m109.51,180.52c-.04.58-.16,1.22.4,1.59.73.49,2.01.93,2.72.23.41-.41.75-1.34,1.5-1,.31.15.58.46.8.72.44.49.81.59,1.46.63.89.06,1.39.44,2.04,1,.41.34.84.36,1.34.39.58.03,1.16.07,1.73.14.9.11,1.62.29,2.22,1,.33.38.48.84,1.07.73.58-.11,1.15-.28,1.73-.39.46-.09,1.07-.1,1.42-.46.36-.37.32-1.02.41-1.5.18-.92.96-1.19,1.74-1.55.27-.13.6-.28.77-.52.21-.28.19-.6.13-.93-.03-.02-.05-.05-.05-.08-.07-1-.92-1.76-1.63-2.39-.77-.68-1.61-1.21-2.33-1.96-.78-.8-1.65-1.48-2.56-2.11-.39-.28-.81-.51-1.27-.66-.67-.23-1.19-.11-1.82.2-.88.44-1.79.46-2.76.53-.98.08-1.98.16-2.95-.08-.53-.14-1.03-.41-1.6-.36-.55.05-.99.33-1.42.64-.84.62-1.68,1.29-2.05,2.3-.16.43-.16.9-.28,1.34-.12.42-.38.77-.53,1.17-.17.44-.19.92-.23,1.39Z"/></svg>