<?xml version="1.0" encoding="UTF-8"?><svg id="Tree_02_-_Leaves_01" xmlns="http://www.w3.org/2000/svg" viewBox="0 0 1160 418.25"><defs><style>.cls-1{fill:#8fb223;stroke-width:0px;}</style></defs><path class="cls-1" d="m1156.87,181.77c0,.09-.06.2-.15.25.08.73-.68,1.5-1.17,1.9-.37.31-.79.56-1.14.88-.62.59-.62,1.22-.2,1.93.59,1.01.99,2.06.6,3.21-.2.61-.51,1.17-.68,1.78-.17.65-.17,1.32-.27,1.99.17.17.16.51-.15.55-.41.07-.82.17-1.23.25-.62.12-1.4.1-1.98.38-.45.21-.85.73-1.14,1.14-.4.57-.76,1.24-.84,1.95-.09.79.36,1.38.73,2.02.32.56.51,1.13.57,1.76.09.76.06,1.52.17,2.29.11.77.17,1.58.36,2.34.28,1.17,1.07,2.2,1.55,3.3.27.6.72,1.45.07,1.96-.74.59-1.76.62-2.63.37-1.11-.32-1.97-1.09-2.99-1.6-.72-.35-1.36-.28-2.12-.27-.55,0-1.09-.04-1.63-.12-1.46-.2-2.87-.79-4.35-.83-.39-.02-.92.06-1.23-.25-.22-.21-.27-.56-.34-.84-.39-1.38-.54-2.76-.69-4.18-.14-1.31-.51-2.63-.43-3.96.07-1.17.39-2.31.92-3.35.62-1.22,1.5-2.17,1.11-3.63-.16-.61-.38-1.2-.72-1.74-.32-.5-.75-.82-1.19-1.18-.41-.35-.74-.78-.97-1.27-.21-.47-.24-1.06-.51-1.49-.51-.79-1.72-1-2.5-1.41-.59-.3-1.08-.77-1.7-1.01-.52-.21-1.1-.27-1.65-.36-.61-.11-1.23-.24-1.72-.62-.25-.2-.43-.45-.62-.71,0,.03,0,.06,0,.08,0,.1-.08.14-.16.13,0,.06,0,.1,0,.15,0,.06-.1.09-.12.02-.32-1.3-.72-2.65-.76-4-.04-1.22.37-2.01,1.07-2.97.84-1.12,1.01-2.48,1.5-3.76.4-1.1.53-2.09,1.56-2.79.12-.08.28.08.2.2-.05.07-.1.14-.15.2.3.11.58.41.87.51.88.27,1.44-.51,1.86-1.15.78-1.17,1.88-1.44,3.22-1.42,1.44.02,2.88.15,4.33.03.81-.06,1.55-.25,2.3-.56.45-.19.9-.4,1.39-.47,1.13-.15,2.12.53,2.91,1.26.97.91,1.76,1.86,3.02,2.37,1.17.47,2.32.84,3.4,1.52.99.63,1.88,1.44,2.39,2.53.53,1.16.66,2.42.91,3.66.14.7.31,1.41.62,2.05.15.3.5.62.51.97Zm-.69.58c.05-.15.08-.28.12-.42-.05-.06-.06-.15-.04-.22-.06-.13-.27-.36-.31-.45-.17-.29-.3-.61-.41-.92-.23-.64-.37-1.3-.5-1.97-.26-1.36-.46-2.85-1.38-3.94-.76-.92-1.86-1.6-2.95-2.07-1.12-.49-2.32-.75-3.31-1.52-.9-.72-1.59-1.7-2.55-2.34-.6-.4-1.27-.63-1.98-.44-.51.14-.97.39-1.46.57-1.19.43-2.49.46-3.74.39-.75-.04-1.51-.07-2.26-.09-.69-.02-1.41-.08-2.06.22-.65.3-.96.82-1.35,1.38-.26.36-.57.68-.98.84-.36.14-.81.16-1.17,0-.28-.12-.6-.53-.9-.62-.23.29-.48.57-.61.93-.21.6-.39,1.2-.6,1.8-.39,1.1-.53,2.23-1.22,3.2-.28.4-.62.77-.84,1.2-.32.62-.35,1.35-.3,2.04.07.89.32,1.77.42,2.65.06-.04.15-.04.2.04.55.61.84,1.14,1.71,1.35.65.17,1.33.17,2,.29.65.12,1.18.44,1.74.79.48.3.97.51,1.49.72.99.39,1.83.83,2.15,1.9.2.65.39,1.25.9,1.74.42.4.9.71,1.27,1.18.62.8,1.07,1.91,1.18,2.91.12,1.27-.59,2.18-1.21,3.2-.68,1.1-1.05,2.42-1.07,3.71,0,1.3.34,2.61.46,3.9.13,1.36.28,2.71.64,4.02.11.39.27.39.67.41.28,0,.55,0,.83.03.64.06,1.29.23,1.92.39,1.34.33,2.65.59,4.04.51,1.14-.06,2.03.31,2.98.92,1.02.64,2.09,1.23,3.31.79.17-.06.53-.16.59-.33.04-.13-.1-.4-.15-.52-.13-.38-.31-.73-.49-1.09-.58-1.17-1.17-2.28-1.36-3.58-.11-.67-.21-1.35-.3-2.03-.08-.61-.06-1.21-.12-1.82-.07-.72-.33-1.3-.71-1.91-.29-.48-.57-.96-.64-1.52-.13-1.01.36-2.05.92-2.86.51-.74,1.07-1.45,1.98-1.66.61-.14,1.24-.26,1.86-.33.3-.04.73-.04.96-.07.03,0,.05,0,.06,0-.13-1.23.31-2.36.74-3.49.28-.72.36-1.41.02-2.13-.25-.53-.66-.99-.85-1.54-.36-.98.22-1.75.97-2.31.42-.31.87-.62,1.22-1.01.2-.22.39-.47.48-.76Z"/><path class="cls-1" d="m1156.3,181.92c-.04.14-.07.28-.12.42-.09.29-.28.54-.48.76-.35.39-.8.7-1.22,1.01-.75.57-1.33,1.33-.97,2.31.19.55.61,1.01.85,1.54.34.72.26,1.41-.02,2.13-.43,1.13-.87,2.26-.74,3.49-.02,0-.04,0-.06,0-.22.04-.65.04-.96.07-.62.07-1.25.19-1.86.33-.91.21-1.47.92-1.98,1.66-.56.81-1.05,1.85-.92,2.86.07.56.35,1.05.64,1.52.38.61.63,1.19.71,1.91.06.61.04,1.21.12,1.82.09.68.19,1.36.3,2.03.19,1.3.78,2.42,1.36,3.58.17.36.36.72.49,1.09.05.12.18.39.15.52-.06.17-.41.28-.59.33-1.21.44-2.29-.15-3.31-.79-.95-.61-1.84-.98-2.98-.92-1.39.07-2.7-.18-4.04-.51-.63-.16-1.28-.33-1.92-.39-.28-.03-.55-.02-.83-.03-.4-.03-.56-.03-.67-.41-.37-1.31-.51-2.66-.64-4.02-.12-1.3-.47-2.61-.46-3.9.02-1.3.39-2.61,1.07-3.71.62-1.02,1.33-1.93,1.21-3.2-.1-1-.56-2.11-1.18-2.91-.37-.47-.84-.77-1.27-1.18-.51-.49-.7-1.08-.9-1.74-.32-1.07-1.16-1.51-2.15-1.9-.51-.21-1.01-.41-1.49-.72-.56-.35-1.08-.67-1.74-.79-.67-.12-1.35-.13-2-.29-.86-.21-1.16-.74-1.71-1.35-.06-.07-.14-.07-.2-.04-.1-.88-.35-1.76-.42-2.65-.05-.69-.02-1.41.3-2.04.23-.43.57-.8.84-1.2.69-.96.83-2.09,1.22-3.2.21-.6.39-1.2.6-1.8.13-.36.38-.63.61-.93.3.09.62.51.9.62.36.16.81.14,1.17,0,.41-.16.73-.48.98-.84.39-.56.7-1.07,1.35-1.38.64-.3,1.37-.24,2.06-.22.75.02,1.51.06,2.26.09,1.25.07,2.54.05,3.74-.39.49-.17.96-.43,1.46-.57.72-.19,1.39.04,1.98.44.96.64,1.65,1.63,2.55,2.34.98.77,2.19,1.04,3.31,1.52,1.08.47,2.19,1.15,2.95,2.07.92,1.09,1.12,2.58,1.38,3.94.13.67.27,1.33.5,1.97.11.31.25.62.41.92.05.09.25.32.31.45-.02.07,0,.16.04.22Z"/><path class="cls-1" d="m1121.81,151.04c.03.75.02,1.51-.16,2.24-.14.59-.42,1.45-1.06,1.67-.03,0-.05,0-.07,0-.06.05-.13.07-.21.06-.14.02-.24-.06-.29-.17-1.52-.73-3.13-1.52-4.84-1.06-.69.19-1.35.48-2.07.58-.71.1-1.42.02-2.13.08-.91.07-1.77.51-2.05,1.42-.17.6-.16,1.23-.26,1.84-.12.67-.36,1.35-.64,1.97-.22.49-.55,1.12-1,1.46-.07.17-.32.3-.51.15-.61-.5-1.38-.96-2.13-1.18-.39-.11-.73-.18-1.08-.38-.34-.19-.61-.28-1.01-.3-.84-.02-1.69.13-2.53-.04-.71-.14-1.54-.33-2.18-.68-.6-.32-1.02-.87-1.4-1.41-.4-.58-.76-1.52-1.52-1.69-.87-.2-1.79.02-2.66-.25-.7-.22-1.21-.79-1.89-1.05-.7-.26-1.47-.19-2.16-.49-.49-.2-.85-.58-1.17-1-.5-.67-.96-1.17-1.84-1.23-.72-.06-1.35.32-2.05.41-.77.1-1.47-.19-2.24.04-.71.2-1.34.61-1.96,1.01-1.22.8-2.58,1.46-3.48,2.64-.37.48-.7,1.07-1.23,1.39-.51.3-1.11.35-1.57.74-.62.51-.75,1.22-1.07,1.91-.24.53-.7.84-1.09,1.26-.44.47-.85.99-1.43,1.3-.6.33-1.25.51-1.84.85-.66.37-1.23.75-1.71,1.35-.3.39-.6.87-1.14.96-1.02.16-1.91-1.02-2.32-1.8-.64-1.21-.85-2.51-.86-3.87,0-.96-.1-1.79-.39-2.7-.19-.63-.21-1.19-.06-1.84.17-.72.48-1.4.48-2.15,0-.68-.35-1.33-.21-2.01.11-.57.52-.98.88-1.42.46-.54.64-1.2.92-1.85.35-.83.73-1.56.92-2.44.11-.53.22-1.04.62-1.42.72-.7,1.76-.84,2.58-1.38.41-.28.79-.59,1.16-.92.21-.18.79-.62.72-.95-.03-.1.06-.16.13-.15,0,0,0,0,0,0,.62-.23,1.23.39,1.75.68.6.36,1.25.3,1.86,0,.37-.17.68-.32,1.09-.28.45.03.84.32,1.26.37.45.05.79-.66,1-.98.4-.63.83-1.27,1.56-1.54s1.56-.07,2.3.07c.96.19,1.99.37,2.98.33,1.05-.04,2-.62,3.04-.62.71,0,1.46.57,2.01.96.83.57,1.47,1.22,2.5,1.39.92.14,1.8.06,2.72.07.85,0,1.52.3,2.21.8.33.23.65.49,1.01.67.4.2.84.27,1.29.35.73.14,1.77-.03,2.39.47.27.21.34.52.55.79.29.37.97.39,1.4.55.51.18,1,.39,1.51.57.38.13.79.22,1.13.41.61.35.91,1,1.46,1.39.96.66,1.97.2,2.76-.44.36-.28.73-.57,1.17-.74.38-.15.7-.13,1.09-.14.54,0,1.03-.17,1.53-.34.39-.13.89-.18,1.25-.37.85-.46.83-1.63.71-2.42-.06-.33.44-.49.51-.14t0,.02c.15.07.28.17.42.26.47.28.88.2,1.4.22.41,0,.77.16,1.15.3.41.17.79.25,1.24.3.62.06,1.18.23,1.55.78.39.56.51,1.29.57,1.96.08.83.1,1.55.41,2.33.32.82.31,1.61.34,2.47Zm-.67,1.75c.11-.7.07-1.41.06-2.1-.02-.41.02-.84-.07-1.24-.07-.36-.24-.69-.37-1.03-.21-.58-.2-1.18-.23-1.79-.02-.66-.06-1.4-.39-1.97-.44-.76-1.28-.6-2-.8-.31-.09-.61-.24-.9-.36-.46-.17-.88-.15-1.35-.18-.3-.02-.53-.08-.78-.25-.1-.06-.19-.16-.28-.24.13.73.13,1.42-.3,2.1-.51.81-1.41.87-2.26,1.16-.51.17-1,.28-1.53.29-.67,0-1.14.19-1.69.58-.82.56-1.54,1.1-2.59.96-.76-.1-1.28-.5-1.76-1.07-.28-.31-.53-.62-.92-.78-.49-.21-1.02-.35-1.52-.54-.49-.18-.96-.39-1.46-.51-.36-.09-.72-.19-.98-.47-.32-.35-.35-.82-.87-.95-.4-.1-.84-.06-1.26-.11-.85-.12-1.69-.27-2.41-.77-.36-.25-.69-.55-1.06-.79-.48-.3-.98-.41-1.54-.41-.89,0-1.75.04-2.64-.09-.96-.15-1.56-.62-2.33-1.18-.42-.32-.87-.61-1.34-.86-.55-.3-.97-.34-1.59-.17-.98.26-1.87.54-2.9.48-.96-.06-1.89-.23-2.83-.39-1.07-.19-1.91-.12-2.58.81-.39.52-.73,1.38-1.35,1.67-.73.35-1.48-.53-2.28-.24-.79.29-1.42.62-2.27.27-.5-.2-1.21-1.05-1.75-.88-.1.61-1.02,1.3-1.37,1.58-.3.25-.61.5-.96.67-.54.28-1.15.46-1.67.78-.83.51-.81,1.28-1.05,2.13-.22.81-.67,1.53-.96,2.32-.24.62-.51,1.18-.95,1.69-.28.33-.57.65-.65,1.08-.09.5.12.97.18,1.46.2,1.42-.84,2.73-.44,4.12.23.81.46,1.51.49,2.35.04.84,0,1.69.17,2.52.27,1.15.88,2.9,2.16,3.28.68.2,1.07-.71,1.45-1.13.43-.46.97-.77,1.52-1.07.62-.36,1.36-.54,1.97-.93.61-.37,1.03-1,1.53-1.49.36-.33.59-.55.76-1.02.11-.28.19-.58.33-.84.23-.46.56-.86.98-1.15.51-.34,1.16-.38,1.63-.75.5-.42.82-1.07,1.25-1.56.87-1,2.18-1.61,3.28-2.32,1.07-.71,2.18-1.31,3.5-1.15.56.06,1.02.03,1.56-.14.28-.08.54-.17.82-.22.52-.08,1.08,0,1.57.2.62.27.92.74,1.31,1.25.47.58,1.01.83,1.75.94.71.1,1.37.21,1.98.59.65.4,1.13.74,1.93.82.71.06,1.56-.08,2.23.21.45.19.73.59,1.01.97.42.6.82,1.21,1.35,1.71s1.2.61,1.87.8c.86.26,1.64.23,2.53.21.6-.02,1.09,0,1.62.29.61.34,1.29.43,1.91.74.53.28,1.05.59,1.52.96.17-.26.37-.5.51-.77.23-.41.41-.84.57-1.29.26-.76.35-1.5.44-2.29.17-1.37.96-2.24,2.37-2.42.85-.11,1.71.02,2.55-.17.82-.18,1.57-.57,2.4-.69,1.64-.24,3.3.57,4.76,1.23,0,0,0,0,0,0,.09-.18.19-.36.28-.54.17-.35.27-.73.33-1.11Z"/><path class="cls-1" d="m1121.19,150.7c.02.7.06,1.41-.06,2.1-.06.39-.17.76-.33,1.11-.09.18-.19.36-.28.54,0,0,0,0,0,0-1.46-.66-3.11-1.47-4.76-1.23-.83.12-1.58.51-2.4.69-.84.19-1.7.06-2.55.17-1.41.18-2.2,1.06-2.37,2.42-.09.79-.18,1.52-.44,2.29-.16.44-.34.87-.57,1.29-.15.28-.34.51-.51.77-.47-.38-.98-.69-1.52-.96-.62-.31-1.3-.4-1.91-.74-.52-.29-1.02-.31-1.62-.29-.88.02-1.66.05-2.53-.21-.67-.19-1.34-.3-1.87-.8s-.93-1.11-1.35-1.71c-.28-.39-.56-.78-1.01-.97-.67-.29-1.52-.15-2.23-.21-.8-.07-1.28-.41-1.93-.82-.62-.38-1.28-.49-1.98-.59-.73-.11-1.28-.36-1.75-.94-.39-.51-.7-.98-1.31-1.25-.49-.21-1.05-.28-1.57-.2-.28.05-.54.14-.82.22-.54.17-1,.2-1.56.14-1.32-.17-2.42.44-3.5,1.15-1.1.72-2.41,1.32-3.28,2.32-.43.49-.75,1.14-1.25,1.56-.47.38-1.12.41-1.63.75-.42.28-.75.69-.98,1.15-.14.27-.22.56-.33.84-.17.47-.4.69-.76,1.02-.51.49-.93,1.12-1.53,1.49-.61.39-1.34.57-1.97.93-.54.3-1.08.62-1.52,1.07-.39.42-.77,1.33-1.45,1.13-1.28-.38-1.89-2.13-2.16-3.28-.18-.83-.14-1.67-.17-2.52-.03-.84-.26-1.54-.49-2.35-.4-1.4.64-2.7.44-4.12-.06-.49-.28-.96-.18-1.46.08-.43.38-.75.65-1.08.44-.51.71-1.07.95-1.69.29-.79.74-1.52.96-2.32.24-.85.22-1.63,1.05-2.13.52-.32,1.13-.51,1.67-.78.35-.17.65-.42.96-.67.35-.28,1.27-.97,1.37-1.58.53-.17,1.25.68,1.75.88.84.36,1.48.03,2.27-.27.8-.29,1.54.59,2.28.24.62-.29.96-1.15,1.35-1.67.67-.93,1.52-1,2.58-.81.94.16,1.87.32,2.83.39,1.03.06,1.92-.22,2.9-.48.62-.17,1.04-.13,1.59.17.47.26.92.54,1.34.86.77.57,1.37,1.04,2.33,1.18.88.13,1.75.09,2.64.09.56,0,1.07.11,1.54.41.37.24.7.54,1.06.79.72.51,1.55.65,2.41.77.41.06.85,0,1.26.11.52.13.55.6.87.95.27.28.62.38.98.47.51.12.97.32,1.46.51.5.19,1.03.33,1.52.54.39.17.64.47.92.78.49.57,1,.96,1.76,1.07,1.05.15,1.77-.39,2.59-.96.55-.39,1.02-.57,1.69-.58.53,0,1.03-.13,1.53-.29.85-.28,1.75-.35,2.26-1.16.43-.68.43-1.38.3-2.1.09.08.18.17.28.24.25.17.48.23.78.25.47.04.89,0,1.35.18.29.12.59.27.9.36.73.2,1.56.04,2,.8.34.58.38,1.31.39,1.97.03.62.02,1.21.23,1.79.13.34.29.67.37,1.03.09.4.06.83.07,1.24Z"/></svg>