<?xml version="1.0" encoding="UTF-8"?><svg id="Tree_02_-_Leaves_02" xmlns="http://www.w3.org/2000/svg" viewBox="0 0 1160 418.25"><defs><style>.cls-1{fill:#a2c81b;stroke-width:0px;}</style></defs><path class="cls-1" d="m1152.84,211.42h.02s.05.02.07.02c0,0,0,0,0,0h0c.06,0,.09.03.14.06.11.1.06.27-.05.34,0,0-.03,0-.04,0,0,0,.02,0,.02.03.11.54.2,1.08.22,1.64.04.62-.17,1.19-.07,1.82.15.91.13,1.78-.05,2.68-.19.96-.72,1.85-1.39,2.56-.71.74-1.63,1.22-2.45,1.82-.72.53-1.08,1.34-1.74,1.92-.62.54-1.38.75-2.18.9-.95.18-1.88.44-2.85.58-.93.14-1.86.43-2.81.46-2.07.04-4.05-.85-6.13-.64-1.02.09-1.97.28-3,.22-.99-.05-1.97-.18-2.95-.34-.51-.09-1.02-.2-1.53-.19-.39,0-.79.06-1.18.02-.75-.08-1.3-.56-1.78-1.09-.67-.73-1.19-1.52-2.19-1.84-.97-.32-1.92-.14-2.92-.22-.75-.06-1.38-.41-1.85-1.01-.52-.69-.68-1.67-1.45-2.14-.67-.41-1.21-.52-1.62-1.24-.22-.4-.4-.93-.18-1.37,0-.02-.02-.04-.02-.06.06-.65.67-1.11,1.32-1.07.36,0,.62.28.93.42.52.27,1.09.4,1.62.68,1.05.56,1.99.99,3.21.94,1.13-.05,2.12-.51,3.21-.78,1.06-.26,2,.04,3.06.06,1.13.02,2.24-.27,3.34-.47,1-.19,1.98-.41,2.94-.76.94-.34,1.35-1.47,1.85-2.25.28-.44.66-.81.92-1.26.27-.47.51-.95.81-1.39.14-.21.32-.39.45-.61.17-.25.17-.47.24-.73.11-.38.65-.96.25-1.33-.24-.21.14-.59.36-.35.06.07.11.15.15.22.27-.09.55-.06.84-.07.66-.04,1.23-.06,1.87.12.75.21,1.49.46,2.25.62.82.17,1.6.17,2.43.11.68-.05,1.33-.07,1.98.17.6.23,1.13.59,1.64.96.52.38,1,.65,1.64.79.54.12,1.23.03,1.75.24.06.03.1.08.13.14.06.05.12.09.17.14.09.09.17.17.26.27.05.04.08.08.13.12.02.03.05.05.06.06,0,0,.02.02.03.02.03.02.05.03.07.05,0,0,0,0,.02,0Zm-.15,5.74c.05-.43.06-.88,0-1.31-.06-.41-.18-.8-.14-1.21.06-.46.15-.85.11-1.31-.04-.47-.09-.91-.06-1.38,0-.06.03-.09.06-.13-.04-.02-.07-.03-.11-.05-.11-.07-.21-.17-.29-.27s-.17-.2-.25-.29c-.05-.05-.09-.09-.14-.13h0c-.45.1-1.02-.03-1.46-.09-.52-.09-1.06-.23-1.52-.5-.52-.31-.98-.73-1.52-1.04-.64-.38-1.26-.51-2-.49-.72.04-1.42.13-2.14.03-.71-.1-1.41-.28-2.09-.5-.74-.23-1.47-.56-2.26-.54-.24,0-.47.04-.71.02-.15,0-.35-.06-.54-.07.03.17,0,.34-.06.53-.06.18-.16.34-.24.51-.12.27-.13.53-.23.8-.18.51-.66.93-.94,1.38-.31.51-.55,1.04-.92,1.5-.64.83-1.09,1.76-1.74,2.58-.47.6-1.37.81-2.07,1-1.07.31-2.2.5-3.32.69-1.1.2-2.11.19-3.22.06-1.26-.15-2.3.34-3.48.65-.93.24-1.94.31-2.87.09-1.1-.27-1.97-1-3-1.41-.25-.1-.5-.2-.73-.35-.18-.11-.35-.28-.58-.31-.55-.06-.86.35-1.08.76,0,.02.02.03.02.06,0,0,0,.02,0,.03.04.08,0,.14-.07.17-.1.42.22.94.48,1.24.28.33.62.48,1,.65.82.37,1.1.92,1.51,1.68.54,1.03,1.25,1.57,2.46,1.54.89-.03,1.75-.06,2.61.24.72.25,1.21.67,1.71,1.23.51.59,1.07,1.42,1.86,1.62.73.17,1.54-.03,2.31.1.96.15,1.91.31,2.88.39.98.08,1.92.06,2.9-.08.88-.13,1.73-.15,2.62-.04.85.11,1.7.3,2.54.43,1.08.17,2.03.17,3.09-.07,1.63-.38,3.35-.45,4.96-.92.98-.28,1.48-.91,2.07-1.68.45-.58.99-.98,1.6-1.39,1.61-1.07,2.8-2.44,2.99-4.43Z"/><path class="cls-1" d="m1152.7,215.84c.06.43.05.88,0,1.31-.19,1.98-1.39,3.35-2.99,4.43-.61.4-1.15.81-1.6,1.39-.59.77-1.08,1.4-2.07,1.68-1.61.47-3.32.54-4.96.92-1.06.24-2,.24-3.09.07-.84-.13-1.69-.32-2.54-.43-.89-.11-1.74-.09-2.62.04-.98.15-1.92.17-2.9.08-.97-.08-1.93-.25-2.88-.39-.76-.13-1.57.07-2.31-.1-.8-.19-1.36-1.03-1.86-1.62-.5-.56-.99-.98-1.71-1.23-.86-.29-1.72-.27-2.61-.24-1.21.03-1.92-.51-2.46-1.54-.4-.76-.69-1.31-1.51-1.68-.39-.17-.73-.32-1-.65-.26-.3-.58-.82-.48-1.24.06-.03.11-.08.07-.17,0,0,0-.02,0-.03,0-.03,0-.04-.02-.06.22-.41.53-.83,1.08-.76.23.03.39.2.58.31.23.15.48.25.73.35,1.04.4,1.9,1.14,3,1.41.94.22,1.95.15,2.87-.09,1.18-.31,2.22-.8,3.48-.65,1.11.14,2.12.15,3.22-.06,1.11-.19,2.24-.38,3.32-.69.7-.19,1.6-.4,2.07-1,.64-.82,1.09-1.75,1.74-2.58.37-.46.61-.99.92-1.5.28-.45.75-.87.94-1.38.1-.27.11-.53.23-.8.08-.17.18-.33.24-.51.06-.19.09-.37.06-.53.19.02.39.06.54.07.24.02.47,0,.71-.02.79-.02,1.52.31,2.26.54.69.21,1.39.39,2.09.5.72.1,1.42,0,2.14-.03.74-.03,1.36.11,2,.49.53.3.99.73,1.52,1.04.46.27.99.4,1.52.5.44.06,1.01.19,1.46.08h0l.14.14c.08.09.17.19.25.29s.18.19.29.27c.04.02.07.03.11.05-.03.04-.06.07-.06.13-.03.47.03.91.06,1.38.04.46-.06.85-.11,1.31-.05.41.07.8.14,1.21Z"/><path class="cls-1" d="m1100.1,177.35c.15.69-.22,1.31-.37,1.97-.2.85.03,1.71.25,2.53.19.75.17,1.46.06,2.22-.11.79-.51,1.38-.74,2.12-.2.63-.03,1.32-.17,1.97-.16.64-.65,1.09-1.1,1.53-.29.28-.59.49-.91.64v.04c.05.3-.33.34-.5.15-.06.02-.1.04-.17.06-.15.04-.3-.17-.17-.28.08-.06.16-.12.23-.17-.04-.2-.09-.39-.23-.55-.21-.25-.51-.4-.7-.68-.26-.34-.4-.75-.62-1.12-.25-.42-.53-.82-.78-1.24-.48-.78-.74-1.66-1.14-2.48-.21-.43-.37-.81-.77-1.1-.33-.23-.64-.47-.96-.72-.7-.56-1.45-.9-2.2-1.37-.35-.21-.64-.56-1.04-.69-.38-.13-.82-.05-1.21-.12-.9-.17-1.66.16-2.54.18-.95.04-1.87.05-2.81.18-.83.13-1.63.37-2.47.44-.92.09-1.86.06-2.78.14-1.84.14-3.68.49-5.49.85-1.53.3-2.72,1.08-3.78,2.2-1,1.05-2.08,2.12-3.21,3-.38.29-2.55,2.06-3.26,1.72,0,0,0,.02,0,.02,0,.09,0,.17,0,.27,0,.06-.08.06-.1,0-.02-.05-.02-.09-.04-.14-.08,0-.17-.08-.11-.17.02-.02.04-.05.05-.06-.1-.51-.06-1.06-.15-1.57-.09-.58-.33-1.13-.46-1.7-.23-1.04.03-2.09.33-3.1.1-.37.24-.77.51-1.06.28-.29.67-.47.97-.75.48-.45.74-.95.94-1.57.14-.43.17-.88.27-1.32.17-.69.73-1.1,1.35-1.37.82-.35,2.08-.5,2.61-1.27.25-.34.28-.79.46-1.17.17-.34.42-.64.7-.91.34-.32.73-.6,1.08-.93.33-.31.58-.71.9-1.04.73-.75,1.6-.8,2.57-.98,1.11-.21,2.15-.71,3.2-1.11.04-.02.07-.02.11,0,.62-.32,1.27-.55,1.96-.65.88-.12,1.54.1,2.36.4,1.54.59,3.4-.26,4.87.65.56.35.97.86,1.42,1.34.55.58,1.18,1.04,1.94,1.3.77.28,1.56.28,2.36.4.79.13,1.52.49,2.32.5,1.52.02,2.95-.2,4.44.23.54.16,1.16.36,1.54.79.44.49.46,1.13.56,1.75.1.64.51,1.16.65,1.79Zm-.88,7.63c.34-.78.5-1.81.37-2.65-.12-.72-.34-1.4-.38-2.12-.04-.62.15-1.18.31-1.79.14-.51.17-.9-.08-1.38-.12-.23-.26-.45-.36-.69-.21-.54-.17-1.14-.34-1.68-.4-1.25-2.52-1.41-3.59-1.43-.82,0-1.63.13-2.44.08-.65-.04-1.24-.29-1.86-.44-.71-.17-1.45-.15-2.16-.32-.57-.14-1.11-.36-1.61-.66-1.1-.69-1.78-2.15-3.07-2.5-1.36-.36-2.8.15-4.13-.39-.69-.28-1.3-.5-2.05-.42-.69.07-1.37.31-2,.6-.03.06-.07.1-.14.13-1.11.43-2.2.93-3.4,1.1-.59.09-1.21.1-1.74.43-.49.3-.77.79-1.15,1.2-.59.62-1.39,1.03-1.84,1.75-.42.68-.39,1.41-1.12,1.87-.64.41-1.39.58-2.09.85-.43.17-.89.39-1.14.81-.24.39-.19.89-.3,1.33-.21.85-.57,1.57-1.22,2.17-.3.28-.73.46-.97.79-.3.39-.4.96-.51,1.42-.11.51-.28,1.05-.28,1.56,0,.54.17,1.07.31,1.59.19.73.28,1.49.28,2.24.02,0,.04.03.05.05.2.46,2.27-1.07,2.53-1.27,1.18-.86,2.19-1.95,3.22-2.97.99-.98,1.9-1.92,3.24-2.42.76-.28,1.57-.39,2.37-.54.93-.17,1.86-.33,2.79-.46,1.8-.26,3.67-.1,5.46-.5.82-.18,1.63-.33,2.45-.39.96-.07,1.88-.04,2.82-.23.78-.17,1.45.03,2.23.04.76.02,1.18.51,1.81.86.69.39,1.35.71,1.97,1.2.55.44,1.3.8,1.69,1.42.39.63.67,1.33.96,2.02.35.81.88,1.5,1.33,2.25.2.33.34.73.57,1.04.2.28.51.43.73.69.14.16.21.33.27.51.32-.26.64-.51.94-.82.26-.27.51-.55.59-.93.09-.39.04-.8.06-1.18.05-.7.36-1.2.62-1.84Z"/><path class="cls-1" d="m1099.59,182.34c.13.84-.03,1.86-.37,2.65-.27.63-.58,1.14-.62,1.84-.03.39.03.8-.06,1.18-.08.38-.33.66-.59.93-.29.3-.62.56-.94.82-.06-.18-.13-.36-.27-.51-.22-.26-.53-.41-.73-.69-.23-.31-.37-.71-.57-1.04-.45-.75-.98-1.44-1.33-2.25-.28-.69-.57-1.39-.96-2.02-.39-.62-1.14-.98-1.69-1.42-.62-.5-1.29-.82-1.97-1.2-.63-.35-1.05-.84-1.81-.86-.78,0-1.45-.2-2.23-.04-.94.19-1.86.16-2.82.23-.83.06-1.63.21-2.45.39-1.78.39-3.66.24-5.46.5-.94.13-1.86.29-2.79.46-.8.15-1.61.26-2.37.54-1.34.51-2.25,1.44-3.24,2.42-1.04,1.02-2.04,2.1-3.22,2.97-.26.2-2.32,1.73-2.53,1.27,0-.02-.03-.04-.05-.05,0-.75-.08-1.52-.28-2.24-.15-.51-.31-1.05-.31-1.59,0-.51.17-1.06.28-1.56.1-.47.2-1.03.51-1.42.25-.33.67-.51.97-.79.65-.6,1.01-1.31,1.22-2.17.11-.44.06-.94.3-1.33.25-.41.71-.63,1.14-.81.71-.28,1.45-.44,2.09-.85.73-.47.7-1.19,1.12-1.87.45-.73,1.25-1.14,1.84-1.75.38-.41.66-.9,1.15-1.2.52-.33,1.15-.34,1.74-.43,1.19-.17,2.29-.67,3.4-1.1.06-.03.11-.07.14-.13.63-.28,1.31-.52,2-.6.75-.07,1.36.15,2.05.42,1.33.54,2.77.04,4.13.39,1.29.35,1.97,1.81,3.07,2.5.5.3,1.04.52,1.61.66.71.17,1.45.15,2.16.32.62.15,1.21.4,1.86.44.81.05,1.63-.09,2.44-.08,1.07.02,3.19.18,3.59,1.43.17.54.13,1.14.34,1.68.1.24.24.46.36.69.25.48.22.87.08,1.38-.17.61-.35,1.17-.31,1.79.04.73.26,1.41.38,2.12Z"/></svg>