<?xml version="1.0" encoding="UTF-8"?><svg id="Tree_02_-_Leaves_03" xmlns="http://www.w3.org/2000/svg" viewBox="0 0 1160 418.25"><defs><style>.cls-1{fill:#b6d01c;stroke-width:0px;}</style></defs><path class="cls-1" d="m1156.99,163.7c.1.13.09.28.02.39.1.26-.06.5-.22.71-.42.55-.36.95-.34,1.61.03.96-.08,2.02-.58,2.87-.47.81-1.41,1.21-1.85,2.02-.3.54-.12,1.08.03,1.64.06.24.08.73.27.9.37.33-.19.9-.54.54-.02-.02-.03-.05-.04-.06-.35-.13-.69-.24-1.01-.43-.34-.2-.65-.44-.99-.64-.71-.42-1.53-.59-2.31-.81-.66-.17-1.47-.2-2.02-.64-.21-.17-.37-.4-.53-.62-.25-.29-.55-.5-.85-.72-.26-.19-.51-.39-.73-.62-.22-.25-.38-.54-.62-.77-.4-.4-.94-.46-1.49-.49-.86-.05-1.46.22-2.23.55-.63.27-1.16.23-1.84.15-.77-.09-1.47.17-2.24.21-.75.05-1.5-.06-2.25.04-.42.06-.76.12-1.06.44-.17.18-.3.42-.44.63-.35.52-.76,1-1.25,1.41-.39.33-.88.75-1.42.73-.51-.02-.89-.38-1.27-.67-1.16-.91-2.31-1.86-3.83-1.97-.85-.06-1.7.08-2.54.15-.4.03-.81.03-1.17-.2-.7-.44-.73-1.38-1.23-1.97-.16.06-.38-.1-.27-.29.13-.22.03-.67.03-.93,0-.39.06-.74.19-1.11.36-1.06.83-2.08.85-3.22.02-.57-.08-1.14,0-1.72.07-.61.26-1.18.07-1.79-.15-.51-.39-.96-.48-1.49-.06-.37-.02-.74-.06-1.11-.05-.03-.07-.07-.05-.14.45-.8,1.07-1.4,1.81-1.94.52-.39.62-.83.77-1.42.14-.52.35-1.03.44-1.57.13-.76-.04-1.53.45-2.2s1.35-1.14,2.08-1.5c.73-.35,1.53-.59,2.35-.53.96.06,1.87.29,2.84.32.93.02,1.86.28,2.79.4.45.06.84.25,1.29.36.33.09.67.11,1.01.17.62.1,1.17.28,1.43.89.18.39.23.79.52,1.14.25.28.58.48.87.71.53.42.79.99.97,1.63.16.51.26,1.45.85,1.65.39.12.85.03,1.25.02.41,0,.84.02,1.23.15.6.19,1.01.6,1.26,1.17.15.34.23.71.39,1.05.2.44.49.62.92.78.82.29,1.13,1.32,2.01,1.44.85.11,1.54.23,2.3.69.79.48,1.46,1,2.31,1.37.4.17.82.33,1.16.61.35.28.62.62,1,.85.61.4,1.53.6,1.99,1.18Zm-.37.51s-.06-.03-.08-.06c-.29-.31-.76-.43-1.14-.62-.42-.22-.84-.45-1.2-.75-.37-.31-.63-.67-1.06-.9s-.88-.39-1.3-.6c-.9-.45-1.6-1.21-2.56-1.53-.44-.15-.89-.1-1.33-.2-.42-.09-.73-.35-1.02-.65-.3-.32-.53-.67-.97-.81-.26-.07-.49-.13-.71-.31-.55-.43-.67-1.08-.94-1.69-.38-.88-1.18-1.01-2.07-.98-.58,0-1.24.09-1.72-.31-.41-.35-.56-.93-.71-1.42-.22-.76-.37-1.38-1.04-1.87-.54-.39-.99-.81-1.23-1.46-.15-.4-.2-.76-.66-.93-.31-.11-.66-.15-.99-.19-.38-.06-.72-.16-1.08-.28-.4-.15-.82-.19-1.25-.25-.47-.06-.93-.19-1.4-.28-.45-.09-.89-.09-1.35-.14-.9-.07-1.78-.44-2.7-.38-.96.07-1.86.53-2.65,1.05-.7.46-1.18.92-1.26,1.77-.04.39-.03.77-.11,1.16-.09.44-.27.85-.4,1.28-.23.69-.28,1.23-.91,1.67-.73.52-1.33,1.05-1.85,1.78.22.36.13.85.2,1.25.11.55.4,1.03.52,1.56.13.51,0,1.04-.08,1.54-.09.67.03,1.32,0,1.99-.04,1.18-.48,2.21-.84,3.32-.14.42-.15.83-.14,1.27,0,.2.02.46-.06.67.64.55.83,1.81,1.75,1.87.78.05,1.62-.22,2.4-.25.8-.04,1.59.05,2.32.38.62.27,1.15.66,1.68,1.07.42.32.98.89,1.48,1.08.7.27,1.49-.65,1.91-1.14.38-.43.62-.96,1-1.39.87-.93,2.44-.64,3.57-.62.72,0,1.41-.26,2.13-.2.34.03.67.12,1.01.14.47.02.84-.15,1.26-.34,1.01-.48,2.28-.68,3.34-.23.41.17.7.48.96.83.44.57,1.03.9,1.51,1.43.39.43.67,1,1.26,1.18.7.23,1.46.33,2.17.53.66.17,1.25.37,1.83.73.28.17.54.38.83.53.17.09.35.17.53.22-.03-.12-.05-.24-.07-.35-.1-.5-.28-1-.25-1.52.06-1.02.85-1.55,1.53-2.2.9-.84,1.14-1.98,1.18-3.18,0-.48-.07-.99.14-1.45.1-.2.24-.36.39-.51.09-.1.16-.2.22-.3Z"/><path class="cls-1" d="m1156.54,164.15s.06.06.08.06c-.06.1-.13.2-.22.3-.15.16-.28.31-.39.51-.21.46-.13.97-.14,1.45-.04,1.19-.28,2.34-1.18,3.18-.68.64-1.47,1.18-1.53,2.2-.03.51.15,1.02.25,1.52.03.11.05.23.07.35-.18-.06-.37-.13-.53-.22-.28-.16-.55-.36-.83-.53-.58-.37-1.17-.56-1.83-.73-.71-.2-1.47-.3-2.17-.53-.59-.18-.87-.75-1.26-1.18-.48-.53-1.07-.86-1.51-1.43-.26-.35-.54-.65-.96-.83-1.07-.45-2.33-.25-3.34.23-.41.19-.79.36-1.26.34-.34-.02-.67-.11-1.01-.14-.72-.06-1.41.21-2.13.2-1.13-.02-2.7-.3-3.57.62-.39.42-.62.96-1,1.39-.42.49-1.21,1.41-1.91,1.14-.5-.19-1.06-.76-1.48-1.08-.53-.4-1.07-.8-1.68-1.07-.73-.33-1.52-.41-2.32-.38-.78.03-1.62.29-2.4.25-.93-.06-1.11-1.32-1.75-1.87.07-.21.06-.47.06-.67,0-.44,0-.84.14-1.27.36-1.1.8-2.14.84-3.32.03-.67-.09-1.32,0-1.99.07-.51.21-1.03.08-1.54-.12-.53-.41-1.01-.52-1.56-.07-.39.02-.89-.2-1.25.51-.73,1.12-1.26,1.85-1.78.62-.44.68-.98.91-1.67.14-.42.31-.84.4-1.28.08-.39.07-.76.11-1.16.07-.85.56-1.31,1.26-1.77.79-.51,1.68-.97,2.65-1.05.92-.06,1.8.3,2.7.38.46.05.9.05,1.35.14.47.09.93.22,1.4.28.43.06.84.1,1.25.25.37.13.71.22,1.08.28.33.05.68.08.99.19.46.17.51.52.66.93.24.65.69,1.07,1.23,1.46.67.5.82,1.11,1.04,1.87.15.5.29,1.07.71,1.42.48.4,1.14.32,1.72.31.89-.03,1.69.1,2.07.98.27.61.39,1.26.94,1.69.22.18.45.24.71.31.44.14.67.49.97.81.29.3.6.56,1.02.65.44.1.89.06,1.33.2.96.32,1.66,1.08,2.56,1.53.42.21.88.37,1.3.6s.69.59,1.06.9c.36.3.78.53,1.2.75.38.18.84.3,1.14.62Z"/><path class="cls-1" d="m1115.27,142.84c.06.52-.12,1.03-.18,1.54-.05.39-.07.82-.2,1.2-.12.34-.33.64-.65.82-.46.25-.93.11-1.42.1-.6,0-1.14.3-1.74.33-.55.02-1.26-.24-1.64.28-.25.34-.44.63-.87.74-.43.12-.91.06-1.36.11-1.07.12-1.95.02-2.87-.59-.85-.57-1.55-1.34-2.57-1.61-.88-.24-1.75-.08-2.53-.66-.35-.26-.64-.58-1-.83-.46-.33-.98-.39-1.53-.45-.45-.06-.87-.11-1.25-.37-.37-.24-.67-.55-1.04-.78-.86-.55-2-.72-3-.8-.55-.05-1.09.08-1.63.02-.44-.06-.88-.23-1.3-.39-.89-.33-1.57-.82-2.22-1.52-.87-.93-2.31-.29-3.39-.11-1.04.17-1.86-.19-2.87-.34-1.02-.16-2.18-.1-2.96.62-.71.65-1.17,1.65-2.03,2.13-.29.17-.58.18-.89.06-.2-.08-.38-.23-.59-.29-.28-.07-.6-.04-.87,0-.53.05-1.05.29-1.58.3-.39,0-.75-.18-1.08-.39-.49-.3-.91-.69-1.4-.99-.47-.29-.94-.34-1.46-.44-.48-.09-.98-.26-1.37-.55-.27-.21-.5-.62-.84-.72-.02,0-.02-.02-.04-.03-.06,0-.12-.04-.14-.13-.11-1.09.77-2,.83-3.08.03-.68-.14-1.36-.36-2.01-.2-.59-.39-1.24-.69-1.78-.59-1.07-1.42-1.97-1.95-3.09-.27-.56-.64-1.01-1.21-1.29-.17-.09-.39-.14-.54-.26-.16-.11-.21-.28-.34-.42h0s-.05-.07-.04-.12t0,0s0,0,0-.03v-.11c0-.06.02-.11.03-.17.02-.17.07-.34.13-.51.15-.43.27-.87.36-1.31.1-.44.17-.88.29-1.32.1-.37.16-.76.29-1.11.2-.52.66-.73,1.15-.94.28-.12.96-.44,1.3-.24.5-.02.98.15,1.48.13.78-.03,1.58-.25,2.18-.77.74-.65,1.37-1.79,2.49-1.78.52,0,1,.27,1.52.3.73.05,1.2-.51,1.67-.96.86-.83,2-1.33,3.15-1.65,1.35-.39,2.68-.29,4.06-.38.51-.03,1.05-.1,1.53.09.17.07.31.17.44.3.07.06.12.17.19.24.23.21.51.24.8.26,1.23.09,2.48.18,3.69.45.62.14,1.14.36,1.67.71.36.24.73.39.93.79.39.77,1.07.45,1.75.3.6-.12,1.2-.11,1.81-.15.51-.02,1.07-.11,1.54.12.41.18.55.5.65.88.1.22.19.44.32.65.16.25.39.39.62.58.57.44.97,1.11,1.62,1.46.63.35,1.4.3,2.09.33.63.02,1.27.09,1.88.2.95.16,2.09.43,2.81,1.11.28.26.46.51.82.68.26.11.51.16.78.22.57.14,1.12.35,1.66.54.42.16.88.3,1.22.62.35.31.54.76.7,1.19.4,1.08.3,2.21.41,3.34.06.73.2,1.45.42,2.15.19.62.57.96,1.07,1.35.68.53,1.92.97,2.01,1.96.12,1.27-.41,2.53.19,3.75.38.74.96,1.52.99,2.39.02.04.06.06.06.1Zm-.53,0s.03-.05.03-.07c-.13-.52-.32-1.02-.59-1.5-.26-.46-.53-.94-.64-1.46-.13-.59-.03-1.21,0-1.81.03-.35.07-.71.07-1.06,0-.55-.24-.83-.67-1.12-.8-.54-1.79-1-2.2-1.93-.46-1-.62-2.26-.65-3.34-.05-1.15,0-2.78-.98-3.59-.42-.35-1.05-.45-1.56-.66-.53-.21-1.08-.35-1.63-.53-.44-.15-.76-.38-1.06-.73-.41-.51-.87-.73-1.52-.88-1.23-.28-2.49-.39-3.75-.44-.52-.02-1.06-.07-1.53-.29-.48-.23-.84-.61-1.2-.98-.38-.39-.86-.7-1.18-1.13-.16-.2-.24-.43-.32-.67-.04-.02-.07-.05-.1-.09-.19-.46-.37-.82-.9-.88-.29-.04-.6,0-.89.02-.72.03-1.41.04-2.12.2-.42.09-.96.23-1.39.02-.18-.09-.3-.23-.39-.42-.12-.23-.14-.39-.37-.57-.07-.06-.17-.1-.26-.16-.53-.34-.99-.66-1.63-.83-.57-.15-1.16-.19-1.74-.28-.75-.1-1.48-.17-2.23-.19-.38-.02-.63-.12-.88-.41-.5-.58-1.11-.53-1.82-.49-.65.05-1.31,0-1.97.03-1.41.07-2.83.47-4.07,1.16-.87.5-1.53,1.68-2.58,1.82-.44.06-.85-.1-1.28-.2-.66-.16-1.14-.05-1.66.41-.67.61-1.14,1.39-2.01,1.75-.54.23-1.18.35-1.78.33-.47-.02-.94-.19-1.41-.18-.05,0-.08-.02-.11-.05-.45,0-.91.23-1.3.42-.29.15-.5.34-.6.65-.12.39-.18.79-.29,1.18-.12.46-.18.93-.29,1.39-.1.44-.22.86-.38,1.29-.05.14-.06.41-.16.58.17.11.31.26.51.34.26.11.44.17.67.33.38.28.69.62.91,1.04.29.59.6,1.15.97,1.68.36.51.76,1.01,1.07,1.56.3.55.49,1.19.69,1.78s.37,1.19.39,1.81c.02.57-.14,1.08-.38,1.59-.23.5-.65,1.22-.51,1.8.31.09.53.37.78.56.47.38,1.09.51,1.68.6.55.08,1,.23,1.46.54.47.31.9.68,1.41.95,1.01.54,2.17-.39,3.27-.07.19.06.34.17.51.25.4.18.64.06.96-.22.39-.36.68-.81,1.03-1.2.59-.67,1.21-1.2,2.12-1.32.88-.11,1.75-.04,2.61.19.6.16,1.16.28,1.77.18.51-.07.99-.22,1.49-.29.8-.13,1.61-.24,2.25.34.39.36.72.74,1.18,1.03.43.26.9.43,1.38.59.58.18,1.07.26,1.67.21.46-.03.9,0,1.36.06.88.13,1.77.26,2.56.71.37.2.67.48,1,.73.49.36.99.38,1.57.45.84.1,1.4.42,2.02.97.39.33.76.62,1.29.68.42.05.84.05,1.26.13.96.17,1.71.7,2.47,1.28.35.26.71.53,1.11.72.57.26,1.12.26,1.73.19.45-.05,1.08.07,1.5-.1.31-.14.4-.48.65-.7.28-.25.67-.31,1.03-.33.59-.03,1.07,0,1.65-.17.51-.15.92-.17,1.44-.12.51.05.84-.07,1.05-.55.15-.37.16-.77.22-1.15.07-.44.24-.88.21-1.33Z"/><path class="cls-1" d="m1114.76,142.77s-.03.05-.03.07c.03.45-.14.89-.21,1.33-.06.38-.07.78-.22,1.15-.2.48-.54.6-1.05.55-.52-.05-.94-.03-1.44.12-.58.17-1.07.15-1.65.17-.36.02-.75.08-1.03.33-.25.22-.34.56-.65.7-.41.17-1.05.06-1.5.1-.61.06-1.16.06-1.73-.19-.4-.18-.76-.46-1.11-.72-.76-.58-1.52-1.1-2.47-1.28-.41-.08-.84-.08-1.26-.13-.52-.06-.9-.35-1.29-.68-.62-.55-1.18-.87-2.02-.97-.58-.07-1.08-.09-1.57-.45-.33-.26-.63-.53-1-.73-.79-.45-1.68-.58-2.56-.71-.46-.06-.9-.09-1.36-.06-.61.05-1.09-.03-1.67-.21-.48-.16-.95-.33-1.38-.59-.46-.28-.78-.67-1.18-1.03-.64-.58-1.45-.47-2.25-.34-.5.07-.98.22-1.49.29-.62.09-1.18-.03-1.77-.18-.86-.23-1.73-.3-2.61-.19-.91.12-1.53.65-2.12,1.32-.35.39-.63.84-1.03,1.2-.31.28-.55.4-.96.22-.17-.08-.32-.19-.51-.25-1.1-.31-2.26.62-3.27.07-.51-.27-.94-.63-1.41-.95-.46-.31-.91-.46-1.46-.54-.59-.08-1.21-.22-1.68-.6-.25-.19-.47-.47-.78-.56-.14-.58.28-1.3.51-1.8.24-.51.39-1.02.38-1.59-.02-.62-.18-1.22-.39-1.81s-.39-1.23-.69-1.78c-.31-.55-.72-1.05-1.07-1.56-.38-.53-.68-1.09-.97-1.68-.22-.42-.53-.75-.91-1.04-.23-.17-.41-.22-.67-.33-.19-.08-.34-.23-.51-.34.09-.17.11-.44.16-.58.16-.42.28-.84.38-1.29.11-.46.17-.93.29-1.39.11-.39.17-.79.29-1.18.1-.31.3-.51.6-.65.39-.19.85-.41,1.3-.42.03.03.06.06.11.05.48,0,.95.17,1.41.18.6.02,1.24-.1,1.78-.33.87-.36,1.34-1.14,2.01-1.75.52-.46,1-.57,1.66-.41.42.1.84.26,1.28.2,1.05-.14,1.71-1.32,2.58-1.82,1.24-.69,2.65-1.08,4.07-1.16.66-.03,1.32.02,1.97-.03.71-.05,1.32-.09,1.82.49.25.29.51.39.88.41.75.03,1.48.09,2.23.19.58.08,1.17.13,1.74.28.63.17,1.09.49,1.63.83.08.06.18.1.26.16.23.18.25.34.37.57.09.19.21.33.39.42.42.21.96.07,1.39-.02.71-.17,1.41-.17,2.12-.2.29-.02.6-.06.89-.02.53.06.71.42.9.88.03.05.06.07.1.09.08.24.17.47.32.67.32.43.81.73,1.18,1.13.36.38.73.75,1.2.98.48.22,1.01.28,1.53.29,1.26.06,2.52.16,3.75.44.64.15,1.1.38,1.52.88.29.36.62.59,1.06.73.54.18,1.09.32,1.63.53.51.21,1.14.31,1.56.66.99.81.94,2.44.98,3.59.04,1.08.19,2.34.65,3.34.41.93,1.41,1.39,2.2,1.93.43.29.66.57.67,1.12,0,.35-.05.71-.07,1.06-.04.6-.14,1.22,0,1.81.11.52.39,1,.64,1.46.27.48.46.97.59,1.5Z"/><path class="cls-1" d="m1114.58,215.35c.2.28-.22.56-.46.36-.34.39-.76.76-1.15,1.09-.32.28-.66.49-1.07.54-.53.07-1.1,0-1.63.03-.69.03-1.22.22-1.86.48-1.04.42-2.17.67-3.25.97-.43.13-.85.17-1.3.06-.38-.09-.66-.27-1.05-.04-.21.14-.38.37-.51.59-.38.62-.58,1.3-1.2,1.74-.79.53-1.77.69-2.7.65-.39,0-.79-.05-1.14-.23-.43-.21-.74-.58-1.22-.72-.38-.1-.73-.12-1.08-.31-.37-.19-.68-.47-1.02-.71-1.09-.74-2.11-.37-3.3-.13-.51.09-1.02.14-1.53.17-.18.02-.4.06-.6,0-.16-.06-.3-.23-.47-.27-.05,0-.06-.04-.08-.07-.29-.13-.66-.16-.93-.32-.28-.17-.39-.39-.49-.68-.19-.51-.53-.74-.89-1.13-.39-.42-.78-.82-1.34-1.01-.82-.28-1.58-.3-2.31-.83-.72-.51-1.11-1.06-1.49-1.83-.25-.53-.6-.73-1.08-1-.27-.15-.46-.34-.57-.62-.16-.45-.28-.77-.73-.99-.31-.16-.67-.22-1.02-.2-1.35.05-1.86,1.07-2.59,2.02-.17.22-.84,1.3-1.33,1.51-.02.03-.03.06-.06.08-.64.41-1.86.51-2.56.26-1.01-.39-1.63-1.3-2.34-2.05-.46-.48-.97-.9-1.66-.89-.64,0-1.3-.07-1.93.02-.6.09-1.1.16-1.7.06-.69-.11-1.35.1-2.05.09-.61-.02-1.14.13-1.73.21-.5.06-.88-.08-1.32-.3-.61-.3-1.16-.19-1.81-.13-.53.05-.98-.04-1.5-.15-.61-.13-1.18.17-1.8.11-.52-.05-1.02-.21-1.53-.3-.73-.12-1.7.06-2.09-.71-.38-.71-.44-2-1.52-1.83-.89.14-1.98.82-2.63,1.46-.53.54-2.13,2.48-2.73.94-.16-.4-.06-.84-.06-1.27,0-.64-.14-1.24-.29-1.86-.14-.55-.23-1.11-.17-1.68.06-.54.27-1.04.45-1.54.25-.67.34-1.27.06-1.95-.14-.31-.23-.61-.15-.95.1-.44.42-.7.7-1.02.28-.32.42-.7.59-1.08.29-.66.68-1.19,1.45-1.25,1.23-.08,2.47.16,3.7.15,1.35-.02,2.72-.38,4.05-.61.94-.17,1.88-.62,2.85-.58,0,0,0,0,.02,0,0,0,0-.03,0-.04.09-.16.31-.05.28.11-.17.44.07.97.23,1.39.17.44.28.86.34,1.33.09.56.16,1.14.41,1.65.21.42.52.78.8,1.16.28.37.5.75.62,1.19.15.52.14,1.07.28,1.59.26,1.03,1.04,1.75,2.12,1.74.92-.02,1.69-.36,2.59-.04.6.21.96.24,1.53-.04.39-.18.75-.38,1.14-.54.73-.31,1.51-.58,2.31-.52s1.59.38,2.4.4c.98.05,1.61-.62,2.39-1.08.74-.45,1.6-.61,2.35-1.01.91-.5,1.42-1.39,1.65-2.37.17-.71.21-1.57.73-2.14.22-.24.49-.38.8-.48.43-.15.73-.3,1.05-.66.46-.53.78-1.16,1.35-1.6.67-.52,1.55-.69,2.35-.93.94-.28,1.87-.61,2.8-.91.84-.28,1.62-.85,2.5-1,.84-.14,1.57.3,2.4.32.99.02,1.76-.55,2.63-.96.62-.29,1.24-.51,1.82-.04.02,0,.03.03.04.05.23.1.44.26.63.39.21.16.42.32.62.49.41.32.83.62,1.27.91.31.2.63.4.89.68.13.14.24.29.32.46.13.23.17.44.17.71,0,.12-.1.17-.19.15-.02.17-.06.35-.11.54-.16.57-.23,1.1-.12,1.7.21,1.1,1.02,1.98,1.67,2.86.52.71.92,1.46,1.74,1.86.82.41,1.69.71,2.51,1.12.55.28,1.02.47,1.64.51.42.03.84.04,1.26.13.72.15,1.33.39,1.68,1.06.4.78,1.27.96,1.98,1.39.67.4,1.28,1.05,1.76,1.66.5.64.53,1.42.69,2.2.17.82.37,1.55.84,2.25Zm-.64.14c-.47-.59-.64-1.43-.79-2.14-.1-.48-.13-.99-.28-1.46-.17-.53-.59-.89-.96-1.29-.67-.71-1.42-1.03-2.27-1.5-.32-.17-.58-.37-.76-.69-.23-.4-.36-.68-.84-.84-.91-.31-1.9-.14-2.8-.47-.96-.36-1.88-.91-2.84-1.3-.62-.26-1.16-.59-1.58-1.11-.61-.76-1.16-1.61-1.7-2.41-.49-.72-.84-1.49-.88-2.37-.04-.78.31-1.46.51-2.2-.06-.09-.1-.18-.16-.28-.08-.16-.18-.28-.3-.41-.24-.24-.53-.41-.82-.61-.41-.28-.8-.59-1.17-.93-.19-.17-.39-.34-.58-.51-.14-.12-.28-.23-.43-.35-.09.11-.23.17-.36.06-.48-.37-1.26.18-1.71.44-.42.23-.84.46-1.3.6-.93.28-1.72.06-2.63-.14-1.12-.26-2.15.62-3.18.96-1.05.35-2.13.66-3.21.94-.96.26-1.78.56-2.41,1.37-.41.55-.8,1.22-1.45,1.52-.46.21-.92.24-1.18.73-.21.39-.25.88-.33,1.3-.17.84-.42,1.62-.99,2.29-.56.67-1.23.96-2.04,1.25-.94.33-1.66.92-2.5,1.43-1.55.94-3.1-.3-4.7,0-.95.19-1.76.7-2.64,1.07-.28.12-.56.2-.85.2-.07,0-.15,0-.22-.02-.46-.06-.85-.34-1.33-.36-.95-.05-1.79.39-2.73.05-.63-.24-1.12-.71-1.43-1.3-.42-.81-.32-1.72-.62-2.57-.29-.83-1.04-1.41-1.38-2.22-.37-.89-.28-1.88-.57-2.8-.14-.44-.32-.95-.24-1.41-.55,0-1.09.19-1.63.34-.56.16-1.12.26-1.69.34-1.27.2-2.51.52-3.8.54-.66,0-1.32-.03-1.98-.05-.54-.02-1.37-.18-1.86.11-.68.41-.75,1.5-1.27,2.08-.43.48-.73.8-.44,1.47.17.4.28.76.24,1.2-.09,1.07-.77,1.97-.68,3.08.06.65.31,1.26.42,1.91.07.44.08.88.06,1.33-.02.36-.08,1.08.45.93.28-.07.53-.38.73-.57,1.03-1.04,2.25-2.27,3.8-2.4.73-.06,1.21.37,1.5,1.01.17.35.25.77.44,1.1.22.37.63.31,1.03.35.54.06,1.07.17,1.6.28.61.13,1.07.02,1.67-.06.46-.06.84.08,1.29.16.57.1,1.13-.06,1.7-.08.48-.02.84.09,1.26.3.62.3.98.19,1.62.06.62-.13,1.24,0,1.86-.1.4-.06.76-.16,1.18-.1s.75.07,1.12.06c.2,0,.4-.04.62-.06.47-.06.92-.03,1.39-.02.43.02.89-.06,1.31.07.39.12.73.39,1.05.65.75.64,1.19,1.58,2.04,2.13.66.43,1.86.48,2.56.06.1-.06.19-.03.26.04.27-.28.73-1.08.81-1.21.34-.51.66-1.03,1.02-1.53.68-.94,2.04-1.3,3.13-.93.64.23,1,.65,1.24,1.27.21.54.77.59,1.16.97.25.24.4.55.55.86.41.92,1.17,1.67,2.16,1.98.81.25,1.58.37,2.26.92.36.3.66.66,1.01.97.24.2.39.42.51.72.1.25.15.44.4.57.17.09.37.13.54.18.25.09.44.17.59.39.04.05.04.09.04.13.05.02.1.04.17.04.27.03.58-.06.84-.09.62-.07,1.21-.19,1.82-.34,1-.22,1.89-.2,2.76.39.34.24.65.51,1.02.71.37.2.77.19,1.16.34.43.16.73.5,1.15.7.43.21,1,.19,1.48.17,1.07-.06,2.09-.4,2.62-1.38.31-.57.6-1.33,1.28-1.56.39-.13.72.05,1.08.12.59.13,1.14-.12,1.7-.28,1.07-.3,2.11-.59,3.14-1,.9-.37,1.82-.28,2.76-.3.99-.02,1.65-.93,2.39-1.51Z"/><path class="cls-1" d="m1113.15,213.34c.15.71.32,1.55.79,2.14-.73.58-1.4,1.49-2.39,1.51-.95.02-1.86-.06-2.76.3-1.03.41-2.08.7-3.14,1-.56.16-1.11.4-1.7.28-.37-.07-.7-.25-1.08-.12-.68.23-.96.99-1.28,1.56-.52.97-1.55,1.32-2.62,1.38-.48.03-1.05.05-1.48-.17-.41-.2-.72-.54-1.15-.7-.39-.15-.79-.14-1.16-.34-.37-.19-.68-.47-1.02-.71-.86-.6-1.75-.62-2.76-.39-.61.15-1.19.27-1.82.34-.27.03-.58.12-.84.09-.06,0-.12-.02-.17-.04,0-.04,0-.08-.04-.13-.15-.21-.34-.29-.59-.39-.17-.06-.38-.09-.54-.18-.26-.13-.3-.32-.4-.57-.12-.29-.28-.51-.51-.72-.35-.31-.65-.67-1.01-.97-.68-.55-1.45-.67-2.26-.92-.99-.31-1.75-1.07-2.16-1.98-.15-.31-.3-.62-.55-.86-.39-.39-.95-.43-1.16-.97-.24-.62-.6-1.04-1.24-1.27-1.09-.38-2.45,0-3.13.93-.36.51-.68,1.03-1.02,1.53-.08.13-.54.94-.81,1.21-.06-.06-.16-.1-.26-.04-.71.42-1.9.38-2.56-.06-.84-.55-1.29-1.49-2.04-2.13-.31-.26-.66-.53-1.05-.65-.42-.13-.88-.06-1.31-.07-.47,0-.92-.05-1.39.02-.22.03-.42.06-.62.06l-.11-2.65c.29,0,.58-.08.85-.2.87-.38,1.69-.88,2.64-1.07,1.61-.31,3.15.93,4.7,0,.84-.51,1.56-1.1,2.5-1.43.81-.28,1.48-.58,2.04-1.25.57-.67.82-1.44.99-2.29.08-.42.12-.92.33-1.3.27-.5.73-.52,1.18-.73.65-.29,1.04-.96,1.45-1.52.62-.81,1.44-1.11,2.41-1.37,1.07-.28,2.16-.59,3.21-.94,1.03-.34,2.06-1.22,3.18-.96.91.2,1.7.41,2.63.14.46-.14.88-.37,1.3-.6.45-.26,1.23-.81,1.71-.44.13.1.27.05.36-.06.15.12.29.23.43.35.19.17.39.35.58.51.37.34.75.65,1.17.93.28.19.58.37.82.61.12.13.22.26.3.41.06.09.1.18.16.28-.2.73-.55,1.41-.51,2.2.05.88.39,1.65.88,2.37.54.8,1.09,1.64,1.7,2.41.42.52.96.85,1.58,1.11.96.39,1.87.95,2.84,1.3.9.33,1.89.16,2.8.47.48.17.61.44.84.84.18.32.44.51.76.69.84.47,1.6.79,2.27,1.5.38.39.8.75.96,1.29.16.47.18.98.28,1.46Z"/><path class="cls-1" d="m1063.82,208.67l.11,2.65c-.37.02-.71,0-1.12-.06s-.77.05-1.18.1c-.62.09-1.24-.03-1.86.1-.63.13-1,.24-1.62-.06-.42-.21-.78-.32-1.26-.3-.57.03-1.13.18-1.7.08-.44-.07-.83-.21-1.29-.16-.6.08-1.07.19-1.67.06-.53-.12-1.06-.23-1.6-.28-.39-.04-.81.02-1.03-.35-.19-.33-.28-.75-.44-1.1-.28-.64-.76-1.07-1.5-1.01-1.55.13-2.77,1.36-3.8,2.4-.2.19-.46.5-.73.57-.53.16-.47-.57-.45-.93.02-.45,0-.89-.06-1.33-.11-.65-.37-1.26-.42-1.91-.09-1.11.59-2,.68-3.08.04-.44-.07-.8-.24-1.2-.28-.67,0-.99.44-1.47.51-.59.59-1.67,1.27-2.08.49-.29,1.31-.13,1.86-.11.66.02,1.32.06,1.98.05,1.3-.02,2.53-.34,3.8-.54.57-.08,1.13-.18,1.69-.34.53-.15,1.07-.34,1.63-.34-.08.47.1.97.24,1.41.28.92.2,1.91.57,2.8.34.82,1.08,1.4,1.38,2.22.29.85.19,1.76.62,2.57.31.6.8,1.07,1.43,1.3.94.35,1.78-.09,2.73-.05.48.02.87.29,1.33.36.07,0,.15.02.22.02Z"/><path class="cls-1" d="m1060.23,164.8c.32.74.73,1.59.45,2.42-.14.4-.45.7-.75.98-.22.22-.41.39-.48.71-.06.31.04.58.08.89.11.73-.3,1.38-.77,1.91-.5.56-1.11,1.07-1.88,1.15-.96.1-1.8-.55-2.75-.62-.64-.04-1.24.2-1.7.65-.33.32-.56.74-.91,1.06-.17.16-.37.28-.52.45-.17.17-.25.39-.37.61-.17.3-.36.57-.68.73-.27.13-.46-.07-.46-.28-.2-.1-.36-.33-.52-.48-.51-.49-1.11-.62-1.8-.67-.73-.04-1.46.04-2.18.17-.58.1-1.15.29-1.74.36-1.24.15-2.46-.45-3.68-.59-1.07-.13-2.38.09-3.29.68h-.04c0,.08-.12.14-.17.05-.08-.17-.06-.41-.06-.6,0-.36,0-.72,0-1.07-.04-1.14-.17-2.29-.5-3.37-.24-.79-.39-1.75.36-2.31.63-.49,1.51-.36,2.25-.4,1.19-.07,2.33-.45,3.5-.69.51-.11,1.02-.13,1.41-.52.28-.28.44-.66.66-.99.41-.63.92-.93,1.67-1,.54-.06,1.04-.05,1.53-.31.37-.2.7-.48,1.06-.69.76-.44,1.67-.5,2.5-.22.62.2,1.08.24,1.73.06.45-.12.89-.28,1.34-.44.86-.29,1.8-.84,2.75-.65.91.19,1.53.89,2.26,1.41.33.24.73.39,1.04.65.31.28.5.62.66,1Zm-1.24,3.69c.31-.84,1.43-1.1,1.22-2.15-.17-.82-.59-1.91-1.3-2.37-.71-.45-1.29-1.07-1.99-1.51-1.03-.62-1.94-.17-2.96.18-.78.28-1.58.62-2.41.71-.4.05-.73-.06-1.1-.18-.49-.17-1.05-.25-1.55-.15-.82.16-1.39.84-2.14,1.14-.72.28-1.59.03-2.24.47-.61.41-.77,1.22-1.31,1.71-.57.51-1.49.51-2.2.68-.91.22-1.82.45-2.76.52-.73.06-1.76-.14-2.31.48-.66.76.03,1.89.17,2.72.14.83.25,1.71.21,2.54,0,.29-.04.6-.06.9,0,.09-.03.26-.04.41.06-.05.52-.33.58-.36.21-.09.43-.17.66-.24.49-.15,1.01-.26,1.52-.28,1.32-.06,2.54.58,3.85.61.74.02,1.5-.28,2.23-.4.62-.1,1.25-.17,1.87-.16.54.02,1.1.06,1.6.28.25.1.46.25.66.42.15.13.3.35.48.47.08,0,.15.02.19.06.28-.24.43-.7.67-.95.33-.34.73-.56,1.04-.93.57-.68,1.18-1.21,2.08-1.32.94-.11,1.74.32,2.63.51,1.05.22,1.96-.58,2.47-1.42.29-.48.3-.82.2-1.35-.07-.37-.12-.7.02-1.07Z"/><path class="cls-1" d="m1060.22,166.35c.21,1.05-.91,1.3-1.22,2.15-.14.37-.09.7-.02,1.07.1.53.09.87-.2,1.35-.51.84-1.42,1.64-2.47,1.42-.89-.19-1.69-.62-2.63-.51-.91.11-1.52.64-2.08,1.32-.3.37-.71.59-1.04.93-.24.25-.39.71-.67.95-.05-.05-.11-.06-.19-.06-.17-.12-.33-.34-.48-.47-.2-.17-.41-.32-.66-.42-.5-.22-1.06-.27-1.6-.28-.62,0-1.26.06-1.87.16-.73.12-1.49.42-2.23.4-1.3-.03-2.53-.66-3.85-.61-.51.02-1.04.13-1.52.28-.23.06-.45.15-.66.24-.06.03-.51.31-.58.36,0-.16.04-.32.04-.41.02-.3.05-.61.06-.9.04-.84-.07-1.72-.21-2.54-.15-.83-.84-1.96-.17-2.72.54-.62,1.58-.42,2.31-.48.94-.07,1.85-.3,2.76-.52.72-.17,1.63-.17,2.2-.68.54-.49.71-1.3,1.31-1.71.65-.44,1.52-.18,2.24-.47.75-.29,1.32-.98,2.14-1.14.51-.1,1.07-.02,1.55.15.38.13.7.23,1.1.18.83-.09,1.63-.43,2.41-.71,1.02-.36,1.93-.81,2.96-.18.71.44,1.29,1.06,1.99,1.51.72.46,1.14,1.55,1.3,2.37Z"/><path class="cls-1" d="m1053.55,227.9c.55.8.5,1.88.07,2.73-.39.76-1.07,1.32-1.61,1.97-.31.36-.59.78-.7,1.25-.12.47-.02.94.03,1.41.09.91-.04,1.66-.95,2.04-.68.28-1.1.5-1.45,1.18-.28.56-.49,1.13-.62,1.74-.12.53-.26,1.06-.53,1.52-.23.37-.51.68-.78,1.01-.81,1-.78,2.3-.73,3.53.04.84.45,1.86.11,2.67-.18.42-.51.73-.81,1.08-.29.38-.56.77-.86,1.15-.64.78-1.45,1.03-2.34,1.41-.51.22-.88.51-1.1,1.02-.13.31-.22.65-.39.95-.36.61-1.03.85-1.69.58-.29-.12-.47-.31-.8-.3-.29,0-.58.05-.87.04-.41,0-.84-.06-1.21-.26-.78-.42-1.23-1.3-1.63-2.06-.52-1.01-1.17-1.94-1.79-2.89-.67-1.04-1.23-2.15-1.72-3.28-.47-1.09-.84-2.21-1.29-3.32-.4-1.04-.76-1.91-.61-3.04.17-1.17.5-2.23.99-3.29.36-.77,1.11-2.17.79-3.04-.05-.11.07-.17.16-.13.05-.04.1-.06.17-.04.51.2,1.04.28,1.54.47.53.18.98.51,1.46.82.53.35,1.07.69,1.65.96.3.13.74.36,1.08.28.32-.08.28-.26.28-.55-.03-.87.17-1.62.72-2.31.6-.78,1.3-1.54,1.99-2.25.73-.74,1.63-1.29,2.53-1.83.61-.37,1.44-1.17,2.21-.98.17.04.28.13.43.18.33.12.6-.02.85-.25.32-.28.56-.63.93-.86.62-.39,1.58-.77,2.31-.52.68.22.96.93,1.41,1.4.62.64,1.48.06,2.18-.17.03,0,.05,0,.07,0,.1-.15.35-.2.49,0Zm-2.03,4.66c.91-1.18,2.65-2.65,1.6-4.28,0,0,0,0-.02.02-.62.19-1.38.68-2.04.43-.85-.32-.97-1.61-1.95-1.72-.57-.06-1.28.22-1.75.51-.4.25-.66.66-1.04.96-.25.19-.58.37-.91.32-.14-.02-.25-.08-.38-.15-.32-.16-.56-.15-.88.02-.95.5-1.92,1.13-2.79,1.75-.92.65-1.59,1.54-2.34,2.37-.76.84-1.2,1.55-1.15,2.71.04.73-.3,1.14-1.09,1.03-1.02-.14-1.97-.86-2.79-1.42-.51-.35-.99-.63-1.59-.82-.35-.1-.7-.19-1.03-.34.04.28,0,.56-.06.83-.09.46-.17.96-.32,1.41-.18.6-.51,1.14-.72,1.73-.21.6-.33,1.25-.43,1.87-.11.64-.12,1.26.09,1.89.19.6.48,1.17.7,1.76.46,1.24.95,2.46,1.52,3.65.5,1.03,1.08,1.99,1.73,2.93.58.85,1.07,1.73,1.57,2.63.23.42.48.86.84,1.18.39.36.88.41,1.4.42.45,0,.93-.14,1.35.07.38.19.79.5,1.17.13.5-.48.49-1.3.98-1.79.6-.6,1.45-.7,2.18-1.07.92-.47,1.3-1.43,2-2.14.39-.39.73-.7.73-1.3,0-.42-.1-.85-.16-1.28-.11-1.01-.17-2.22.09-3.21.23-.85.95-1.4,1.36-2.14.29-.52.37-1.13.52-1.7.11-.45.29-.87.49-1.3.22-.44.44-.91.85-1.2.32-.24.7-.33,1.06-.5.96-.47.45-1.63.47-2.46,0-.69.31-1.28.72-1.81Z"/><path class="cls-1" d="m1053.12,228.28c1.05,1.63-.69,3.1-1.6,4.28-.4.53-.71,1.12-.72,1.81-.02.83.49,1.99-.47,2.46-.36.17-.73.26-1.06.5-.41.29-.63.76-.85,1.2-.19.42-.38.84-.49,1.3-.16.57-.23,1.18-.52,1.7-.41.74-1.13,1.29-1.36,2.14-.26.99-.2,2.2-.09,3.21.06.42.17.85.16,1.28,0,.61-.34.91-.73,1.3-.7.71-1.08,1.67-2,2.14-.73.37-1.58.47-2.18,1.07-.5.5-.49,1.31-.98,1.79-.38.37-.79.06-1.17-.13-.42-.21-.9-.07-1.35-.07-.51,0-1-.06-1.4-.42-.37-.32-.62-.76-.84-1.18-.51-.9-.99-1.77-1.57-2.63-.64-.94-1.23-1.9-1.73-2.93-.58-1.18-1.07-2.41-1.52-3.65-.22-.6-.51-1.17-.7-1.76-.21-.63-.2-1.25-.09-1.89.1-.62.22-1.28.43-1.87.2-.59.53-1.13.72-1.73.15-.45.23-.96.32-1.41.05-.27.09-.55.06-.83.33.15.68.24,1.03.34.6.18,1.07.47,1.59.82.83.56,1.77,1.29,2.79,1.42.79.11,1.13-.29,1.09-1.03-.06-1.16.39-1.87,1.15-2.71.75-.83,1.42-1.72,2.34-2.37.87-.62,1.85-1.26,2.79-1.75.32-.17.56-.17.88-.02.13.06.24.13.38.15.33.05.66-.13.91-.32.38-.29.63-.71,1.04-.96.47-.28,1.18-.57,1.75-.51.97.11,1.09,1.4,1.95,1.72.66.25,1.41-.24,2.04-.43,0,0,0-.02.02-.02Z"/></svg>