<?xml version="1.0" encoding="UTF-8"?><svg id="Tree_02_-_Leaves_04" xmlns="http://www.w3.org/2000/svg" viewBox="0 0 1160 418.25"><defs><style>.cls-1{fill:#c6d604;stroke-width:0px;}</style></defs><path class="cls-1" d="m1157.25,162.45c.34-.83.41-1.74.74-2.59.26-.65.61-1.2,1.21-1.6.25-.17.52-.31.8-.44v-.45c-.52.23-1.03.49-1.45.87-1.26,1.14-1.23,3.09-1.89,4.55-.35.79-.86,1.55-1,2.42-.13.83.14,1.73-.32,2.49-.41.68-1.1,1.16-1.73,1.62-.48.35-.97.74-1.17,1.32-.14.4-.08.74-.02,1.14.07.46.05.91.23,1.35.39.96,1.09,1.68,1.36,2.7.27.97.4,1.96.64,2.92.16.61.22,1.3.49,1.89.11.54.26,1.1.53,1.59.35.65,1.1.9,1.67,1.32.51.38.94.87,1.51,1.16.36.18.75.24,1.15.27v-.47c-.57-.08-1.09-.22-1.6-.64-.62-.5-1.21-.91-1.88-1.33-.5-.31-.8-.89-1-1.47,0-.03.01-.06,0-.08-.05-.1-.08-.19-.12-.29-.04-.14-.08-.29-.11-.43,0-.03-.02-.04-.03-.05-.08-.38-.13-.78-.22-1.14-.2-.86-.4-1.72-.56-2.58-.15-.72-.34-1.38-.68-2.03-.18-.34-.38-.67-.54-1.01-.26-.53-.31-.98-.38-1.55-.06-.39-.17-.75-.02-1.15.13-.36.4-.63.69-.87.55-.45,1.12-.82,1.62-1.34.38-.39.71-.84.82-1.4.16-.79-.08-1.59.2-2.38.26-.79.74-1.54,1.06-2.32Z"/><path class="cls-1" d="m1160,157.82v26.69c-.57-.08-1.09-.22-1.6-.64-.62-.5-1.21-.91-1.88-1.33-.5-.31-.8-.89-1-1.47,0-.03.01-.06,0-.08-.05-.1-.08-.19-.12-.29-.04-.14-.08-.29-.11-.43,0-.03-.02-.04-.03-.05-.08-.38-.13-.78-.22-1.14-.2-.86-.4-1.72-.56-2.58-.15-.72-.34-1.38-.68-2.03-.18-.34-.38-.67-.54-1.01-.26-.53-.31-.98-.38-1.55-.06-.39-.17-.75-.02-1.15.13-.36.4-.63.69-.87.55-.45,1.12-.82,1.62-1.34.38-.39.71-.84.82-1.4.16-.79-.08-1.59.2-2.38.26-.79.74-1.54,1.06-2.32.34-.83.41-1.74.74-2.59.26-.65.61-1.2,1.21-1.6.25-.17.52-.31.8-.44Z"/><path class="cls-1" d="m1149.51,194.17c1.08-.59,2.29-.79,3.52-.79.55-.01,1.09.12,1.65.08.61-.06,1.2-.22,1.82-.26.39-.02.81,0,1.22.07.52.1,1.03.26,1.47.51.05.02.1.04.14.07.25.16.47.33.67.53v-.74c-.18-.13-.37-.25-.57-.34-.47-.25-.97-.42-1.49-.52-.09-.02-.18-.04-.27-.05-1.18-.17-2.23.22-3.4.25-.7.01-1.36-.05-2.06.02-.61.06-1.21.13-1.79.31-1.01.32-2.15.96-2.77,1.86-.68.98-.62,2.52-.37,3.63.16.79.46,1.53.66,2.3.23.87.3,1.76.36,2.66.03.67.08,1.28.34,1.91.05.1.12.19.16.29.07.15.15.28.22.42.1.17.19.34.29.5.05.1.1.2.14.31.1.26.13.53.22.79.1.29.27.56.4.85.5,1.07.73,2.49,1.7,3.28.24.21.48.35.65.62.14.21.23.44.39.63.06.08.12.16.19.24.31.35.69.64,1.07.89.13.08.26.17.39.27.72.49,1.55,1.02,2.42.88.44-.06.82-.26,1.2-.46.2-.1.39-.2.6-.27.29-.09.59-.17.9-.21.14-.03.28-.05.42-.06v-.46c-.17.01-.34.04-.51.07-.25.05-.5.12-.74.19-.25.07-.5.19-.74.3-.34.17-.68.35-1.05.43-.71.16-1.32-.22-1.89-.58-.23-.15-.47-.3-.7-.45-.3-.19-.58-.4-.83-.64-.27-.25-.44-.57-.63-.87h0c-.12-.19-.25-.36-.4-.51-.2-.19-.44-.32-.62-.51-.27-.29-.44-.63-.6-.98-.23-.55-.42-1.12-.66-1.68-.27-.62-.54-1.24-.81-1.86-.17-.39-.45-.71-.68-1.06-.02-.02-.04-.05-.04-.09-.34-.63-.46-1.24-.5-1.95-.08-1.24-.19-2.4-.55-3.6-.38-1.25-.75-2.45-.52-3.78.21-1.19.95-1.89,1.98-2.44Z"/><path class="cls-1" d="m1160,194.38v19.8c-.17.01-.34.04-.51.07-.25.05-.5.12-.74.19-.25.07-.5.19-.74.3-.34.17-.68.35-1.05.43-.71.16-1.32-.22-1.89-.58-.23-.15-.47-.3-.7-.45-.3-.19-.58-.4-.83-.64-.27-.25-.44-.57-.63-.87,0-.01,0-.01,0-.01-.12-.18-.25-.35-.4-.5-.2-.19-.44-.32-.62-.51-.27-.29-.44-.63-.6-.98-.23-.55-.42-1.12-.66-1.68-.27-.62-.54-1.24-.81-1.86-.17-.39-.45-.71-.68-1.06-.02-.02-.04-.05-.04-.09-.34-.63-.46-1.24-.5-1.95-.08-1.24-.19-2.4-.55-3.6-.38-1.25-.75-2.45-.52-3.78.21-1.19.95-1.89,1.98-2.44,1.08-.59,2.29-.79,3.52-.79.55-.01,1.09.12,1.65.08.61-.06,1.2-.22,1.82-.26.39-.02.81,0,1.22.07.52.1,1.03.26,1.47.51.05.02.1.04.14.07.25.16.47.33.67.53Z"/><path class="cls-1" d="m1137.63,203.6c-.01-.06-.01-.12-.03-.17-.07-.47-.22-.93-.33-1.38-.12-.54-.21-1.08-.31-1.61-.09-.56-.14-1.07.09-1.61.16-.35.35-.68.56-1-.11-.13-.22-.26-.34-.38-.13.19-.26.38-.39.58-.03.05-.06.1-.09.15-.15.25-.28.51-.36.78-.03.13-.06.26-.08.39-.1.91.19,1.97.39,2.84.15.6.35,1.2.41,1.82.02.27,0,.55,0,.82v.02c0,.21.01.42.04.62v.05l.03.63c.04-.27.09-.55.12-.81.03-.26.06-.53.1-.79.01-.07.02-.14.02-.21.02-.07.05-.14.08-.21.03-.06.07-.1.1-.16h0c0-.13,0-.25-.02-.37Zm0,0c-.01-.06-.01-.12-.03-.17-.07-.47-.22-.93-.33-1.38-.12-.54-.21-1.08-.31-1.61-.09-.56-.14-1.07.09-1.61.16-.35.35-.68.56-1-.11-.13-.22-.26-.34-.38-.13.19-.26.38-.39.58-.03.05-.06.1-.09.15-.15.25-.28.51-.36.78-.03.13-.06.26-.08.39-.1.91.19,1.97.39,2.84.15.6.35,1.2.41,1.82.02.27,0,.55,0,.82v.02c0,.21.01.42.04.62v.05l.03.63c.04-.27.09-.55.12-.81.03-.26.06-.53.1-.79.01-.07.02-.14.02-.21.02-.07.05-.14.08-.21.03-.06.07-.1.1-.16h0c0-.13,0-.25-.02-.37Zm1.69-9.98c-.13-.87-.47-1.81-.83-2.6-.41-.89-1.09-1.48-1.82-2.09-.36-.29-.76-.55-.87-1.03-.02-.11-.03-.22-.04-.33.1-.59.11-1.16-.37-1.6-.45-.43-1.13-.53-1.71-.65-.92-.18-1.66-.6-2.35-1.23-.58-.54-1.08-1.02-1.82-1.35-.68-.3-1.41-.48-2.15-.61-.79-.14-1.53-.25-2.33-.1-.49.1-.95.28-1.45.29-.51.02-1.01-.14-1.52-.21-.76-.11-1.54-.13-2.27.16-.81.31-1.56.82-2.35,1.19-.91.43-1.84,1-2.81,1.26-.55.16-1.11.24-1.65.39-.24.07-.48.15-.71.25-.3.13-.59.29-.87.46-.42.25-.82.51-1.25.74-1.51.81-3.34.55-4.77,1.54-.62.44-1.06,1.08-1.68,1.49-.64.43-1.36.63-1.96,1.1-.7.56-1.21,1.26-1.75,1.97-.57.75-1.05,1.49-1.27,2.43-.23.99-.13,2.05-.47,3.03-.28.8-.84,1.46-.5,2.34.01.02.03.03.05.04-.01.15,0,.3.06.44.17.42.48.84.71,1.24.52.9,1.21,1.69,1.74,2.59.16.31.35.62.63.83.36.27.84.38,1.22.6.89.49,1.78,1.11,2.74,1.48.46.17.88.14,1.37.12.74-.05,1.07.25,1.49.8.57.72,1.31.94,2.13,1.26.16.06.31.13.46.2.55.26,1.02.59,1.38,1.04.21.26.39.56.52.91.15.42.25.84.43,1.24.21.49.53.92.73,1.42.35.81.15,1.64.85,2.3.59.56,1.37.97,2.05,1.41.32.21.67.42,1.03.59.33.17.68.3,1.04.38.18.04.35.07.53.08,1.05.07,2.09-.39,3.04-.75.75-.28,1.63-.8,2.48-.87.27-.04.54-.02.8.07.48.16.92.17,1.37.1.38-.05.76-.16,1.17-.28.02-.01.05-.01.07-.02.12-.04.23-.07.35-.1.26-.06.52-.12.78-.16.12-.03.24-.05.37-.06.64-.1,1.29-.14,1.94-.17.81-.02,1.66-.04,2.41-.38.42-.2.79-.49,1-.89.23-.45.32-.99.54-1.45.13-.29.29-.56.45-.82.01,0,.01,0,.01,0,.17-.26.35-.51.54-.76.14-.19.29-.38.44-.57h.01c.17-.21.32-.4.49-.61.07-.09.14-.18.21-.27.29-.35.56-.7.59-1.18.05-.54-.18-1.08-.22-1.63-.01-.07-.02-.14-.02-.21,0-.09,0-.17.01-.26v-.11c.01-.46.06-.91-.01-1.36,0-.02-.01-.05-.01-.07h0c-.03-.23-.07-.42-.11-.62,0-.25.02-.49.02-.73.01-.43.05-.85.02-1.29h0c0-.13,0-.25-.02-.37-.01-.06-.01-.12-.03-.17-.07-.47-.22-.93-.33-1.38-.12-.54-.21-1.08-.31-1.61-.09-.56-.14-1.07.09-1.61.16-.35.35-.68.56-1,.07-.11.15-.22.22-.33.04-.06.09-.13.13-.19.06-.09.12-.18.18-.27.17-.27.34-.55.49-.83.43-.8.83-1.67.69-2.59Zm-.57,1.09c-.02.08-.04.15-.07.23-.05.17-.12.33-.2.49-.04.09-.08.18-.13.26-.11.23-.24.45-.38.67-.06.1-.13.2-.19.3-.06.1-.12.19-.17.28-.03.05-.06.1-.09.14-.01.02-.02.03-.04.05-.06.11-.13.21-.21.32-.13.19-.26.38-.39.58-.03.05-.06.1-.09.15-.15.25-.28.51-.36.78-.03.13-.06.26-.08.39-.1.91.19,1.97.39,2.84.15.6.35,1.2.41,1.82.02.27,0,.55,0,.82v.02c0,.21.01.42.04.62v.05l.03.63v.03h0c.03.58.07,1.16.05,1.74,0,.18,0,.35.01.53,0,.08.01.16.02.24v.02s-.01,0,0,.01c0,0-.01,0,0,.01h-.01v.02h.01c.01.13.03.26.05.4.12.69.15,1.23-.3,1.82-.06.08-.12.16-.19.23-.12.16-.25.31-.38.46-.18.22-.37.43-.55.65-.28.33-.55.66-.79,1.02-.25.35-.43.77-.61,1.16-.19.4-.23.89-.46,1.25-.51.78-1.67.84-2.49.87-.32.02-.65.04-.97.07s-.64.06-.96.11c-.14.02-.28.04-.42.06-.12.01-.24.04-.37.07-.09.01-.19.03-.28.05-.16.04-.32.08-.48.13-.11.04-.22.08-.33.11-.51.17-1.03.34-1.55.35-.09.02-.18.01-.28,0-.05,0-.11,0-.16-.02-.12-.01-.25-.04-.37-.09-.32-.12-.66-.15-1-.11-.09.01-.18.02-.26.04h-.03s-.03.01-.04.01c-.37.08-.72.19-1.06.31-.95.31-1.87.72-2.82,1.01-.5.14-.97.17-1.42.12-.1,0-.2-.03-.3-.05-.1-.02-.2-.05-.3-.08-.03,0-.06-.01-.09-.03-.08-.02-.16-.05-.24-.08-.09-.03-.18-.07-.27-.11-.17-.08-.35-.17-.52-.27-.74-.42-1.5-.91-2.17-1.41-.33-.25-.6-.53-.69-.93-.12-.49-.1-.95-.29-1.41-.18-.4-.42-.76-.63-1.14-.23-.46-.35-.97-.51-1.45-.05-.15-.11-.29-.17-.43,0-.01-.01-.02-.02-.03-.06-.14-.13-.27-.21-.4-.08-.14-.17-.27-.27-.39h0c-.06-.07-.11-.14-.18-.2-.05-.06-.1-.11-.16-.16l-.03-.03c-.1-.09-.21-.18-.33-.26-.18-.12-.37-.23-.57-.32h-.01c-.17-.09-.36-.16-.54-.23-.01-.01-.03-.01-.04-.02-.42-.16-.86-.31-1.26-.51-.75-.39-1.03-1.29-1.82-1.59-.5-.19-1-.03-1.52-.05-.59-.03-1.12-.4-1.61-.67-.54-.28-1.06-.57-1.59-.85-.44-.23-1.04-.34-1.37-.69-.33-.35-.51-.84-.78-1.23-.32-.47-.67-.91-.99-1.38-.3-.45-.56-.92-.84-1.37-.17-.25-.32-.49-.34-.79-.01-.23.01-.41-.06-.63.13-.51.47-.99.63-1.5.27-.82.22-1.7.37-2.54.26-1.55,1.35-2.99,2.44-4.1.56-.56,1.17-.88,1.87-1.22.68-.34,1.11-.82,1.66-1.32.51-.48,1.09-.83,1.75-1.04.84-.26,1.72-.27,2.54-.52.75-.24,1.41-.65,2.08-1.05.01,0,.01-.01.02-.01.21-.13.42-.25.64-.36.1-.06.21-.12.32-.17.12-.06.24-.11.37-.16.05-.03.11-.05.16-.06.16-.06.32-.11.49-.15.65-.15,1.32-.23,1.94-.49.88-.38,1.75-.8,2.62-1.21.75-.35,1.51-.88,2.31-1.08.85-.21,1.7,0,2.54.14.77.12,1.39-.02,2.16-.19.91-.2,1.77-.05,2.67.13.76.17,1.52.38,2.19.8.75.46,1.28,1.19,2.02,1.67.67.43,1.35.57,2.13.75.35.08.79.17,1.05.45.29.31.3.82.37,1.23h.01c0,.23-.01.46.06.66.12.31.36.5.61.71.73.62,1.5,1.18,1.94,2.05.25.5.4,1.04.56,1.57.13.45.29.92.27,1.4,0,.23-.04.45-.11.68Zm-1.12,8.89c-.01-.06-.01-.12-.03-.17-.07-.47-.22-.93-.33-1.38-.12-.54-.21-1.08-.31-1.61-.09-.56-.14-1.07.09-1.61.16-.35.35-.68.56-1-.11-.13-.22-.26-.34-.38-.13.19-.26.38-.39.58-.03.05-.06.1-.09.15-.15.25-.28.51-.36.78-.03.13-.06.26-.08.39-.1.91.19,1.97.39,2.84.15.6.35,1.2.41,1.82.02.27,0,.55,0,.82v.02c0,.21.01.42.04.62v.05l.03.63c.04-.27.09-.55.12-.81.03-.26.06-.53.1-.79.01-.07.02-.14.02-.21.02-.07.05-.14.08-.21.03-.06.07-.1.1-.16h0c0-.13,0-.25-.02-.37Z"/><path class="cls-1" d="m1138.59,192.63c.13.45.29.92.28,1.4-.03,1.06-.79,2.19-1.34,3.05-.45.71-1.07,1.41-1.18,2.27-.1.91.19,1.97.39,2.85.15.6.35,1.19.4,1.82.04.49-.02.97.06,1.46v.05c.02.8.11,1.59.08,2.4-.02.42,0,.82.07,1.23.12.7.16,1.23-.29,1.82-.62.8-1.35,1.52-1.91,2.36-.25.36-.43.77-.62,1.17s-.23.89-.46,1.25c-.51.78-1.67.84-2.49.87-1.01.06-2.01.14-3,.36-1.01.24-2.14.87-3.17.48-.78-.3-1.63,0-2.39.25-.95.31-1.86.73-2.82,1.01-1.15.32-2.13.09-3.14-.5-.73-.42-1.5-.91-2.17-1.41-.33-.25-.6-.52-.69-.93-.12-.49-.1-.95-.29-1.41-.17-.39-.42-.75-.62-1.14-.23-.46-.36-.96-.51-1.45-.27-.78-.68-1.41-1.37-1.89-.74-.51-1.63-.68-2.42-1.08-.74-.39-1.03-1.29-1.82-1.59-.5-.19-1-.03-1.52-.06-.59-.03-1.12-.39-1.62-.66-.53-.28-1.06-.58-1.59-.85-.44-.23-1.04-.34-1.37-.69s-.51-.84-.78-1.23c-.32-.47-.67-.91-.98-1.38-.3-.45-.56-.92-.84-1.38-.17-.25-.32-.49-.34-.79,0-.22,0-.4-.06-.62.14-.51.48-.99.63-1.5.27-.83.22-1.7.37-2.54.27-1.55,1.35-2.99,2.44-4.1.56-.56,1.18-.88,1.87-1.22.68-.34,1.11-.82,1.65-1.32.51-.48,1.09-.83,1.75-1.04.84-.26,1.72-.27,2.54-.52,1.46-.46,2.57-1.61,4.08-1.96.65-.16,1.31-.23,1.94-.5.88-.38,1.75-.8,2.62-1.2.75-.35,1.52-.88,2.31-1.08.84-.21,1.7,0,2.53.14.77.13,1.4-.02,2.16-.18.91-.2,1.77-.06,2.67.13.76.17,1.52.38,2.2.8.74.46,1.28,1.19,2.01,1.67.67.43,1.36.57,2.13.74.36.08.79.17,1.06.46.28.3.29.82.37,1.22h0c0,.23,0,.46.06.66.12.31.36.51.61.72.73.62,1.5,1.18,1.94,2.05.26.5.4,1.04.56,1.57Z"/><path class="cls-1" d="m1122.2,159.72c.08-.47.16-.9.07-1.36-.1-.5-.31-.98-.54-1.44-.27-.54-.46-1.04-.57-1.65-.09-.51-.25-.91-.6-1.3-.62-.69-1.51-1.01-2.41-1.11-.72-.08-1.49-.27-2.25-.32-.1,0-.19-.01-.29-.01h-.01c-.22,0-.43.01-.64.04-.45.06-.85.25-1.27.41-.7.26-1.21.2-1.93.07-.56-.11-.99.1-1.49.33-.57.26-1.21.46-1.75.78-.17.1-.3.21-.4.33-.55.61-.25,1.43-.24,2.29.01.45-.05.85-.19,1.23-.09.3-.24.59-.42.88-.36.57-.74,1.12-1.03,1.72-.27.54-.5,1.09-.46,1.7.03.64.28,1.24.46,1.83.02.06.06.08.11.08.01.01.02.04.03.07.03.1.05.2.07.31.06.2.1.4.13.6h0c.06.3.1.58.16.86,0,.03,0,.05.01.08.06.33.13.66.13.98v.06c-.01.31-.14.53-.25.81-.25.66-.06,1.66.21,2.3.22.57.64,1,1.19,1.18.14.06.29.09.45.11.3.03.59.05.89.06.89.06,1.77.11,2.66.37.45.14.87.39,1.32.51.42.11.85-.01,1.24-.19.5-.22.9-.56,1.35-.86.16-.11.33-.21.5-.3.37-.21.76-.41,1.14-.6.27-.13.54-.27.81-.41.7-.36,1.39-.77,1.96-1.32.3-.28.58-.63.7-1.03.17-.58-.05-1.18.03-1.77.08-.58.32-1.14.66-1.61.31-.43.66-.8.76-1.33.19-1.15-.47-2.23-.3-3.38Zm-.19,3.36c-.11.52-.52.9-.79,1.35-.48.81-.56,1.63-.51,2.55.05,1.22-1.02,1.95-2,2.46-.08.04-.16.09-.24.13-.62.32-1.25.62-1.87.95-.19.1-.38.21-.57.32-.84.5-1.74,1.63-2.83,1.19-.81-.32-1.63-.61-2.52-.68-.22-.02-.43-.03-.65-.05-.22-.01-.44-.03-.66-.04-.03-.01-.07-.01-.1-.01-.09-.01-.17-.01-.26-.01-.21,0-.41-.01-.6-.04-.06-.01-.13-.03-.19-.05-.09-.02-.18-.05-.27-.09-.05-.02-.09-.04-.14-.07-.05-.03-.1-.06-.14-.1-.09-.06-.17-.15-.25-.25-.58-.77-.68-1.99-.34-2.84h0c.09-.23.13-.46.14-.7h0v-.09c0-.09-.01-.19-.02-.29-.01-.12-.02-.24-.04-.36h0c-.08-.47-.21-.92-.29-1.33-.01-.05-.02-.09-.03-.14-.02-.13-.05-.25-.09-.37-.03-.11-.07-.23-.11-.35-.08-.23-.17-.46-.28-.7-.07-.15-.14-.34-.21-.54-.02-.12-.06-.23-.08-.35-.08-.7.16-1.29.49-1.9.04-.08.09-.16.14-.24.04-.08.1-.15.15-.23.2-.31.42-.62.63-.94.09-.12.17-.25.24-.38.02-.03.04-.06.06-.09.12-.21.23-.43.31-.65.33-.9.11-1.76.11-2.69,0-.09.01-.17.03-.25.04-.17.13-.31.24-.42.04-.04.09-.08.13-.11.21-.17.48-.29.73-.39.46-.2.9-.43,1.35-.62.41-.18.71-.26,1.14-.16.21.04.4.1.6.12.4.04.78-.02,1.16-.15.38-.13.75-.32,1.16-.42.11-.03.22-.05.32-.06.1-.01.2-.02.31-.02.13-.01.25-.01.38.01h.01c.23.01.46.04.69.08.89.16,1.88.16,2.72.51.42.17.81.43,1.11.79.41.47.39.98.53,1.55.24.94.91,1.7,1.05,2.67.08.54-.13,1.05-.16,1.59-.02.46.08.91.17,1.36.1.5.25,1.03.14,1.54Z"/><path class="cls-1" d="m1121.87,161.54c.1.5.25,1.03.14,1.53-.11.52-.52.9-.79,1.35-.48.82-.56,1.63-.51,2.55.06,1.22-1.02,1.95-1.99,2.46-.89.48-1.81.88-2.68,1.4-.84.51-1.75,1.63-2.83,1.19-.81-.32-1.63-.62-2.52-.68-.55-.05-1.11-.1-1.67-.11-.62,0-1.18-.07-1.59-.61-.59-.76-.68-1.99-.34-2.85.34-.84-.05-1.91-.21-2.76-.1-.56-.28-1.04-.51-1.56-.06-.16-.14-.34-.21-.54-.02-.12-.06-.23-.07-.35-.08-.7.16-1.3.49-1.9.46-.85,1.18-1.62,1.52-2.53.33-.9.12-1.76.11-2.69,0-.68.6-.96,1.14-1.18.46-.19.9-.42,1.35-.62.4-.18.71-.26,1.14-.17.2.05.39.1.6.12.39.05.78-.02,1.16-.15.39-.13.75-.32,1.16-.42.57-.15,1.14-.08,1.72.02.89.16,1.87.16,2.72.51.42.17.81.43,1.11.79.4.47.39.98.52,1.55.25.94.92,1.7,1.06,2.67.07.53-.13,1.05-.17,1.59-.02.46.08.91.17,1.36Z"/><path class="cls-1" d="m1086.24,196.53c-.45.1-.9.25-1.29.49-.48.27-.89.7-1.42.86-.43.13-.88.05-1.29.21-.31.12-.58.31-.84.51.1.11.21.22.31.32.38-.3.76-.49,1.27-.54.52-.04.92-.15,1.36-.44.48-.32.9-.67,1.45-.85.05-.02.09-.03.14-.04.1-.18.21-.35.34-.52h-.03Zm0,0c-.45.1-.9.25-1.29.49-.48.27-.89.7-1.42.86-.43.13-.88.05-1.29.21-.31.12-.58.31-.84.51.1.11.21.22.31.32.38-.3.76-.49,1.27-.54.52-.04.92-.15,1.36-.44.48-.32.9-.67,1.45-.85.05-.02.09-.03.14-.04.1-.18.21-.35.34-.52h-.03Zm12.11-5.81c-.12-.51-.14-1.04-.28-1.56-.25-.95-.9-1.52-1.65-2.12-.12-.09-.24-.19-.36-.29-.09-.07-.18-.14-.27-.22h-.01c-.13-.12-.24-.22-.35-.35-.07-.08-.13-.15-.19-.23-.08-.11-.14-.23-.19-.34-.2-.41-.25-.84-.26-1.36-.05-.94-.72-1.41-1.43-1.95-.37-.29-.76-.56-1.15-.83-.07-.04-.14-.09-.21-.14-.01,0-.01,0-.02,0-.37-.23-.78-.44-1.15-.69-.14-.09-.26-.19-.38-.29-.02-.02-.04-.03-.06-.05-.32-.29-.43-.68-.71-.99-.26-.3-.61-.42-.96-.53-.73-.21-1.68-.48-2.44-.33-.37.09-.61.33-.87.59-.49.49-1.09.42-1.74.45-1.23.04-2.45-.07-3.68-.02-1.01.05-1.91.32-2.86.59-.12.03-.23.06-.35.09-.06.02-.11.04-.17.05-.37.09-.75.13-1.13.14-.18.01-.36.01-.54.01-.61-.01-1.21-.03-1.82.06-1,.16-1.97.39-2.99.5-.82.11-1.67.22-2.4.64-.84.48-1.23,1.27-1.73,2.04-.17.26-.35.51-.56.74-.08.08-.16.16-.25.25-.1.07-.2.15-.31.22-.3.19-.58.37-.84.58-.09.07-.18.15-.27.24-.05.04-.1.09-.15.14-.81.87-1.5,1.76-2.66,2.17-1.13.4-2.24-.24-3.37.06-.88.22-1.38.91-1.87,1.61-.58.86-.91,1.67-1.08,2.69-.17,1.08-.67,2.07-.42,3.17.13.56.39,1.08.57,1.63.19.63.24,1.28.23,1.95-.01.51-.04,1.01-.02,1.49-.08.03-.13.09-.09.2.14.54.12.96.41,1.46.02.02.04.05.05.08.01.01.01.02.02.03,0,.01.01.01.02.01.27.43.56.82.9,1.19.44.46.83.89.82,1.57-.01.39-.07.75-.04,1.14.08.65.24,1.34.53,1.94.02.06.04.11.07.16.05.1.1.18.16.26.18.26.41.43.68.52.11.04.22.07.35.08.14.01.28.01.44,0,1.08-.11,2.09-.81,3.17-.33.8.35,1.67.64,2.53.26,1.21-.54,2.12-1.27,3.52-.85,1.03.32,2.15.34,3.21.15.82-.14,1.42-.64,1.98-1.22.41-.42.8-.71,1.36-.92.2-.07.41-.14.62-.22.28-.09.55-.2.8-.34.11-.06.22-.13.32-.2.61-.44.93-1.06,1.14-1.81.15-.5.24-1.04.61-1.43.25-.27.55-.47.81-.7.13-.12.24-.24.35-.38.21-.28.41-.55.61-.82.34-.44.69-.86,1.12-1.23.03-.04.07-.07.11-.1.04-.04.09-.07.13-.1.38-.3.76-.49,1.27-.54.52-.04.92-.15,1.36-.44.48-.32.9-.67,1.45-.85.05-.02.09-.03.14-.04.17-.05.34-.09.52-.12.42-.07.85-.07,1.27-.04.11,0,.22.02.33.04.12.02.24.04.35.07.87.19,1.72.53,2.61.48.41-.02.78-.12,1.11-.36.5-.34.97-.74,1.44-1.12,1.01-.77,2.03-1.53,3.04-2.29.4-.31.79-.62,1.18-.92.29-.23.6-.49.7-.86.1-.4-.05-.82-.13-1.21Zm-.84,1.55c-1.7,1.36-3.5,2.63-5.18,4.03-.48.4-.84.69-1.49.69-.61,0-1.21-.19-1.79-.33-.12-.03-.23-.05-.35-.08-.11-.02-.23-.05-.35-.06-.15-.03-.3-.05-.45-.06-.03-.01-.06-.01-.09-.01-.34-.03-.68-.03-1.02,0h-.01c-.13.01-.26.03-.39.06-.04,0-.08.01-.12.02h-.03c-.45.1-.9.25-1.29.49-.48.27-.89.7-1.42.86-.43.13-.88.05-1.29.21-.31.12-.58.31-.84.51-.04.03-.09.07-.13.1s-.07.06-.1.1c-.11.08-.21.17-.3.27-.07.06-.12.12-.18.18-.12.11-.22.23-.32.35-.11.12-.21.24-.31.37v.02c-.08.1-.16.2-.24.31-.08.1-.16.21-.23.31-.06.08-.12.16-.2.23t0,.01c-.13.15-.28.29-.43.41-.08.07-.15.13-.23.2-.08.08-.16.15-.24.22-.08.07-.16.15-.23.23-.06.06-.11.12-.16.18-.13.15-.23.32-.31.51-.38.93-.39,1.92-1.31,2.51-.02.01-.04.03-.06.03-.35.23-.75.37-1.14.5-.25.1-.51.18-.75.3-.21.09-.42.21-.61.35-.7.52-1.13,1.3-2.02,1.55-.49.14-1.01.1-1.52.13-.69.04-1.23-.1-1.89-.29-.95-.28-1.81-.05-2.67.38-.47.23-.94.6-1.46.67-.57.08-1.1-.13-1.61-.35-.87-.39-1.57-.23-2.47.02-.27.08-.57.17-.87.21-.08.02-.16.02-.24.02-.02.01-.04.01-.06.01-.13,0-.26-.01-.39-.04-.01,0-.02-.01-.03-.01-.07-.02-.13-.05-.18-.09-.07-.05-.13-.11-.18-.18-.03-.03-.06-.07-.08-.11-.04-.05-.07-.11-.09-.17-.05-.1-.09-.19-.13-.29-.02-.04-.04-.09-.05-.14-.06-.14-.11-.28-.15-.43-.07-.23-.13-.48-.16-.72-.02-.07-.03-.15-.04-.22-.01-.12-.02-.25-.02-.37v-.09c0-.43.1-.84,0-1.26-.11-.42-.36-.77-.65-1.09-.36-.41-.73-.79-1.04-1.25-.15-.22-.32-.46-.43-.72-.15-.94-.02-1.9,0-2.84,0-.5,0-1.02-.12-1.51-.14-.56-.41-1.07-.56-1.62-.3-1.11.25-2.24.43-3.33.16-.98.6-1.74,1.16-2.55.29-.4.59-.79,1.06-.99.62-.27,1.26-.11,1.9-.03,1,.15,1.88-.07,2.74-.6.82-.52,1.37-1.28,2.04-1.96.02-.02.03-.03.05-.04.1-.11.21-.19.32-.27.15-.11.31-.22.46-.32.17-.11.33-.21.49-.33.08-.06.15-.12.22-.19.07-.07.15-.15.22-.23,0,0,.02,0,.02-.02.14-.15.26-.31.38-.48.55-.78.89-1.69,1.77-2.16.8-.42,1.72-.49,2.61-.58.91-.1,1.78-.35,2.68-.48.52-.07,1.04-.06,1.56-.05.16.01.33.01.49.01.38,0,.77-.03,1.15-.11.07-.02.13-.03.2-.05.12-.03.23-.06.35-.09.14-.04.29-.08.43-.12.18-.05.35-.1.53-.15.12-.04.24-.07.37-.1.12-.04.25-.06.38-.09.11-.03.23-.05.35-.07.24-.05.47-.08.72-.09,1.16-.06,2.32.05,3.49.02.9-.02,1.74.05,2.41-.62.36-.35.63-.54,1.14-.52.47.02.94.14,1.39.26.44.12.85.22,1.12.61.23.36.4.7.74.97.07.06.15.12.22.16.07.06.13.11.2.15.06.05.13.1.2.15.38.24.79.48,1.18.72.08.05.16.1.23.15.2.12.39.25.57.39.44.32.95.67,1.29,1.09.35.44.18,1.02.27,1.54.02.11.04.22.08.33.06.21.16.4.27.59.07.11.14.21.23.31.16.21.34.4.54.58.09.07.18.15.27.23.03.03.05.05.08.07.76.63,1.52,1.16,1.76,2.18.1.44.12.89.2,1.32.12.65.33,1.11-.26,1.57Zm-11.27,4.26c-.45.1-.9.25-1.29.49-.48.27-.89.7-1.42.86-.43.13-.88.05-1.29.21-.31.12-.58.31-.84.51.1.11.21.22.31.32.38-.3.76-.49,1.27-.54.52-.04.92-.15,1.36-.44.48-.32.9-.67,1.45-.85.05-.02.09-.03.14-.04.1-.18.21-.35.34-.52h-.03Z"/><path class="cls-1" d="m1097.77,190.7c.12.64.33,1.1-.26,1.56-1.7,1.37-3.51,2.64-5.18,4.03-.49.4-.84.69-1.5.69-.61,0-1.2-.18-1.78-.33-.93-.23-1.87-.33-2.82-.13-.45.1-.89.26-1.29.5-.48.27-.89.7-1.42.85-.42.13-.87.06-1.29.21-.36.14-.68.38-.97.62-.66.55-1.18,1.2-1.68,1.9-.52.74-1.44,1.14-1.79,1.99-.39.93-.39,1.92-1.31,2.52-.8.52-1.8.6-2.56,1.18-.7.52-1.13,1.3-2.02,1.55-.49.14-1.01.1-1.52.13-.69.04-1.23-.1-1.89-.29-.95-.28-1.81-.05-2.67.39-.47.23-.94.6-1.46.67-.57.07-1.09-.14-1.61-.36-.87-.39-1.57-.22-2.47.03-.49.14-1.06.33-1.56.19-.39-.1-.55-.5-.69-.84-.25-.61-.43-1.31-.42-1.97,0-.42.1-.84,0-1.26-.11-.42-.36-.77-.64-1.08-.37-.41-.73-.79-1.05-1.25-.15-.23-.32-.47-.42-.73-.16-.94-.03-1.9,0-2.84,0-.51,0-1.02-.12-1.51-.14-.56-.4-1.07-.56-1.63-.29-1.11.26-2.24.43-3.33.17-.97.61-1.74,1.17-2.54.28-.4.59-.79,1.06-.99.62-.27,1.26-.11,1.9-.03,1,.15,1.88-.07,2.74-.61.83-.51,1.37-1.28,2.04-1.96.39-.39.88-.62,1.32-.96.33-.27.6-.58.84-.93.54-.77.88-1.69,1.76-2.16.8-.41,1.73-.49,2.61-.58.91-.1,1.78-.35,2.68-.48,1.07-.16,2.14.08,3.21-.16,1.13-.26,2.15-.69,3.32-.75,1.16-.06,2.32.05,3.49.02.9-.02,1.75.05,2.42-.62.36-.35.62-.53,1.14-.51.47.02.94.14,1.39.26.44.12.85.22,1.12.62.23.36.4.7.74.96.8.65,1.77,1.1,2.6,1.72.43.32.95.67,1.29,1.09.35.44.18,1.02.27,1.54.15.9.8,1.54,1.47,2.1.76.63,1.52,1.17,1.76,2.19.1.44.12.89.2,1.32Z"/><path class="cls-1" d="m1069.82,221c-.26-.81-.42-1.77-.91-2.48-.49-.71-1.09-1.36-1.61-2.06-.53-.68-1.14-1.21-1.87-1.67-.35-.22-.71-.46-1.09-.61-.41-.15-.85-.19-1.27-.28-.41-.08-.77-.27-1.17-.36-.36-.09-.73-.05-1.09.01-.42.06-.73.07-1.07,0-.49-.37-1.14-.44-1.72-.58h-.01c-.45-.12-.91-.22-1.37-.29-.24-.05-.49-.09-.74-.11-.05-.01-.11-.01-.16-.01-.45-.03-.89-.01-1.33.03-.2.02-.4.03-.6.05-.8.06-1.49-.06-2.27-.26-.51-.14-1.04-.28-1.58-.32-.62-.04-.91.25-1.43.55-.67.4-1.43.43-2.18.45-.66.03-1.24.19-1.85.45-.69.29-1.35.62-2.06.86-.66.22-1.34.39-1.96.7-.68.34-1.31.8-2.02,1.07-.83.32-1.46.11-2.26-.13-.51-.15-.95-.19-1.44,0-.26.1-.49.24-.76.34-.42.14-.87.17-1.32.2-1.49.1-2.94.4-4.38.78-1.12.29-2.41.41-2.87,1.64-.25.67-.43,1.38-.66,2.06-.11.33-.22.66-.26,1-.01.12-.02.24-.02.35-.06.28-.09.56-.11.82-.02.06-.03.12-.05.17-.02.03,0,.05.02.06,0,.05,0,.12-.02.17-.18,1.43-1.03,2.75-.95,4.21.02.53.15,1.13.48,1.56.39.52.96.59,1.57.59.66-.01,1.09.09,1.54.59.42.46.71,1.02,1.09,1.5.84,1.1,2.19,1.6,3.37,2.24,1.47.79,2.75,1.88,4.26,2.59.83.39,2.22,1.34,2.9.2.27-.44.2-.99.18-1.47-.05-.99.14-1.77.87-2.46,1.08-1.01,2.46-1.58,3.48-2.69.21-.23.44-.5.74-.64.42-.2.82-.06,1.25.02.62.12,1.18.07,1.69-.33.42-.35.68-.85,1.03-1.27.19-.24.49-.61.83-.64.06-.01.12,0,.16.02.14.03.25.12.34.24.16.21.27.51.4.7.18.28.38.53.62.73h.01c.15.11.29.19.48.24h.01s.03.02.04.02c.42.11.89.12,1.34.09.12,0,.23-.01.34-.03.11-.01.21-.02.31-.03.71-.08,1.42-.25,2.06-.58.34-.16.64-.36.99-.49.05-.02.09-.03.14-.05.47-.14.96-.22,1.45-.3.03-.01.06-.01.09-.02.82-.16,1.67-.39,2.5-.3.87.09,1.67.49,2.53.67.74.15,1.5.04,2.25.06.86,0,1.8.09,2.64-.06.43-.08.68-.33.85-.67.3-.63.28-1.56.46-2.17h0c.27-.91.78-1.69,1.15-2.55.31-.73.23-1.38,0-2.12Zm-1.15,3.58c-.11.25-.21.5-.29.76-.07.18-.13.36-.18.55,0,0-.01.02-.01.04-.05.19-.1.39-.14.59-.06.27-.08.59-.16.86-.02.07-.04.13-.07.19-.02.05-.05.11-.09.15-.02.05-.05.08-.09.12-.03.03-.07.06-.11.08-.08.05-.17.09-.28.11-.74.14-1.57.08-2.33.06-.84-.02-1.69.1-2.51-.11-.73-.17-1.44-.45-2.19-.56-.73-.11-1.44.02-2.14.17-.22.05-.45.09-.67.13-.34.06-.69.12-1.03.2-.16.03-.33.07-.49.12-.05.01-.1.03-.15.05-.16.05-.32.11-.48.18-.04.02-.09.04-.14.06-.15.07-.3.14-.44.2-.26.13-.53.25-.81.33-.31.09-.62.16-.93.2-.09.01-.19.03-.28.04-.16.02-.31.03-.47.04-.09,0-.19,0-.28,0-.06.01-.13.01-.19.01-.33,0-.71.01-1.01-.12-.07-.03-.14-.06-.2-.12-.01.01-.01,0-.02-.01-.04-.02-.08-.05-.11-.09-.11-.09-.21-.21-.3-.34-.02-.03-.04-.06-.05-.08-.05-.08-.1-.15-.14-.22-.07-.11-.13-.22-.19-.34-.04-.07-.07-.14-.12-.21-.03-.07-.07-.13-.11-.18-.1-.13-.23-.24-.4-.3-.13-.04-.26-.06-.38-.04-.07,0-.13.02-.18.03-.07.02-.14.04-.21.07-.02.01-.04.02-.05.03-.14.07-.28.17-.4.28-.37.32-.63.73-.93,1.13-.23.32-.52.63-.92.74-.43.11-.87-.06-1.29-.14-1.26-.21-1.79.86-2.64,1.55-1.01.83-2.26,1.35-3.13,2.35-.39.46-.58.95-.65,1.54-.07.6.15,1.38-.05,1.95-.34.97-1.42.22-1.98-.06-.71-.35-1.4-.7-2.06-1.13-1.24-.78-2.4-1.56-3.71-2.22-.66-.33-1.44-.67-1.94-1.22-.4-.43-.68-.95-1.03-1.41-.28-.37-.61-.72-1.03-.91-.73-.31-1.65.19-2.26-.41-.61-.59-.61-1.67-.47-2.43.15-.78.45-1.52.65-2.29.14-.54.18-1.09.24-1.65.08-.62.13-1.43.65-1.86.06-.05-.02-.15-.09-.1-.04.03-.08.07-.12.11.18-.4.36-.8.49-1.22.18-.59.28-1.19.84-1.53.53-.32,1.19-.4,1.77-.55,1.49-.37,2.96-.71,4.49-.81.54-.03,1.08-.07,1.59-.28.25-.1.49-.24.75-.32.43-.13.82-.03,1.23.11.54.16,1.02.33,1.58.26.62-.07,1.17-.35,1.7-.65.59-.33,1.17-.7,1.8-.92.68-.24,1.37-.41,2.03-.68.63-.25,1.22-.58,1.87-.8.7-.22,1.39-.11,2.12-.22.5-.07,1.04-.23,1.49-.5.29-.18.51-.4.89-.44.3-.03.62.04.91.11.67.15,1.3.38,1.97.47.17.02.35.03.52.03.2,0,.4-.01.61-.03.24-.02.48-.04.72-.06.13-.01.25-.02.38-.03.34-.02.68-.01,1.02.02.06.01.11.01.17.02.17.01.34.03.5.06.2.03.4.07.6.11.26.04.51.1.76.16.06.01.13.02.19.04.02.09.09.19.21.19.63.05,1.14.48,1.78.49.4.01.8-.14,1.2-.16.43-.02.75.14,1.14.27.7.24,1.43.23,2.09.58.74.39,1.48.9,2.03,1.52.46.52.81,1.12,1.25,1.65.53.63.92,1.15,1.15,1.93.22.75.69,1.53.67,2.32-.02.82-.6,1.64-.93,2.38Z"/><path class="cls-1" d="m1068.93,219.88c.22.74.69,1.52.67,2.31-.02.83-.61,1.64-.94,2.38-.27.62-.49,1.27-.62,1.95-.12.58-.08,1.38-.8,1.51-.74.14-1.57.08-2.33.06-.84-.03-1.69.09-2.51-.11-.73-.17-1.44-.46-2.2-.57-.73-.1-1.43.03-2.14.17-.73.15-1.47.25-2.19.45-.71.19-1.32.61-2.02.82-.71.21-1.42.29-2.15.3-.33,0-.71,0-1.01-.12-.39-.16-.61-.52-.82-.86-.25-.38-.36-.86-.83-1.03-.44-.15-.88.07-1.21.37-.38.32-.63.73-.93,1.13-.24.32-.52.63-.93.74-.43.11-.86-.06-1.29-.14-1.26-.21-1.79.85-2.65,1.55-1.01.83-2.26,1.34-3.12,2.34-.39.46-.58.96-.65,1.54-.07.6.15,1.38-.06,1.95-.34.97-1.41.22-1.97-.06-.71-.35-1.41-.7-2.07-1.13-1.23-.78-2.4-1.56-3.7-2.22-.66-.33-1.44-.67-1.95-1.22-.39-.42-.68-.95-1.03-1.41-.28-.37-.61-.73-1.03-.91-.73-.31-1.65.18-2.26-.41-.61-.59-.61-1.67-.47-2.42.15-.78.45-1.52.65-2.3.14-.54.17-1.09.24-1.64.08-.62.13-1.43.64-1.86.06-.05-.02-.15-.08-.1-.05.03-.08.07-.12.11.17-.4.36-.8.49-1.22.18-.59.28-1.18.84-1.52.52-.32,1.18-.4,1.76-.55,1.49-.38,2.96-.71,4.49-.81.54-.04,1.08-.07,1.59-.28.25-.1.49-.24.75-.32.43-.13.82-.03,1.23.11.53.17,1.02.33,1.58.27.62-.07,1.17-.36,1.7-.65.59-.33,1.17-.7,1.8-.92.68-.24,1.37-.41,2.03-.68.62-.26,1.22-.59,1.86-.8.71-.23,1.4-.12,2.12-.22.51-.07,1.05-.23,1.49-.51.29-.18.51-.4.89-.44.3-.03.62.05.92.11.66.15,1.3.38,1.97.47.74.09,1.49-.05,2.23-.08,1.08-.06,2.17.15,3.24.4.02.09.08.19.2.19.63.05,1.15.48,1.78.49.4,0,.8-.14,1.2-.16.43-.02.75.14,1.14.27.7.24,1.43.23,2.09.58.73.39,1.48.9,2.03,1.52.46.51.81,1.12,1.25,1.64.52.63.92,1.16,1.15,1.94Z"/><path class="cls-1" d="m1066.27,134.64c-.22-.96-.52-1.94-1.04-2.79-.28-.45-.65-.84-.94-1.29-.27-.44-.53-.83-.88-1.23-.36-.4-.42-.74-.56-1.23-.09-.31-.3-.46-.57-.61-.49-.29-1.04-.48-1.55-.72-.47-.21-.92-.46-1.41-.61-.99-.28-2.12-.16-3.09.1-.66.18-1.17-.03-1.8-.2-.52-.14-1.04-.06-1.57-.05-.74.01-1.66-.19-2.27.33-.74.63-.87,1.73-1.55,2.41-.47.47-1.12.56-1.75.61-.37.03-.63.11-.89.4-.76.87-1.2,1.94-2.03,2.76-.72.72-1.69,1.3-2.15,2.25-.2.41-.34.85-.57,1.26-.29.52-.78.93-1.3,1.21-.86.48-1.71.55-2.1,1.56-.4,1.01-1.36,1.65-1.66,2.71-.12.42-.13.86-.01,1.28.08.24.24.47.3.7.12.48-.16.66-.51.86-.83.49-1.29,1.11-1.73,1.96-.44.84-.79,1.63-.75,2.6.03.59.18,1.17.23,1.76.07.6-.01,1.2.05,1.81.12,1.15.58,2.21,1.03,3.27.24.59.46,1.15.42,1.81-.04.65-.25,1.29-.41,1.93-.09.29-.15.57-.2.87-.01.01-.03.01-.03.03-.41.73-.05,1.7.33,2.4.11.2.25.31.46.37.46.12,1.04.16,1.51.16.86,0,1.34-.75,2.12-.94.47-.12.92.1,1.39.11.53.01.99-.22,1.48-.39.4-.13.85-.1,1.25-.26.37-.16.6-.48.81-.81.23-.34.4-.72.6-1.07.22-.39.43-.58.94-.6h.35c.14,0,.27-.02.41-.06.39-.12.74-.32,1.08-.56.53-.37,1.03-.82,1.59-1.13.69-.37,1.4-.94,1.57-1.74.19-.94-.61-1.61-1-2.39-.57-1.14-.47-2.24-.18-3.45.26-1.07.52-2.21,1.07-3.16.28-.47.63-.91,1.14-1.11.46-.17.97-.18,1.45-.2.06,0,.12-.01.17-.01.84-.06,1.55-.21,2.2-.8.01-.01.03-.02.04-.03.39-.36.73-.73,1.19-1,.53-.3,1.12-.51,1.69-.67,1.48-.41,3.07-.45,4.48-1.12.63-.29,1.19-.73,1.55-1.35.21-.35.32-.74.48-1.12.25-.64.53-1.28.82-1.91.48-.99.55-1.84.3-2.91Zm-.28,1.7c-.12.58-.47,1.1-.71,1.63-.4.82-.62,1.85-1.17,2.59-.9,1.2-2.65,1.42-4.02,1.66-1.63.29-3.24.68-4.45,1.88h-.01v.02c-.09.09-.19.18-.28.27-.19.17-.38.31-.61.41-.12.05-.24.1-.38.13-.37.09-.76.1-1.14.12-.06,0-.12.01-.18.01-.73.03-1.48.14-2.04.66-.64.59-1.02,1.47-1.28,2.28-.31.91-.57,1.88-.72,2.82-.14.9-.1,1.74.27,2.57.2.43.44.84.72,1.22.36.48.6.94.29,1.52-.45.87-1.53,1.23-2.28,1.8-.16.12-.31.25-.47.37-.24.17-.47.34-.73.47-.24.12-.47.13-.71.13h-.02c-.11,0-.23,0-.34.01-.04-.01-.09,0-.13.01-.06,0-.12.01-.18.03-.06.01-.12.03-.18.05-.7.29-.93,1.2-1.32,1.79-.35.54-.66.65-1.28.75-.42.07-.78.24-1.19.37-.84.25-1.66-.25-2.49.13-.34.15-.62.38-.93.57-.5.29-.9.22-1.45.15-.2-.02-.49.02-.68-.06-.17-.08-.2-.19-.28-.36-.1-.2-.22-.4-.31-.6-.03-.31-.02-.62,0-.82.08-1.02.52-1.98.65-3,.13-1.02-.23-1.82-.63-2.75-.48-1.13-.85-2.23-.84-3.49,0-.5,0-.98-.07-1.47-.09-.59-.21-1.17-.16-1.76.06-.96.61-1.93,1.14-2.72.29-.44.63-.76,1.1-1.01.26-.15.56-.31.72-.57.17-.31.09-.62-.03-.92-.22-.55-.4-1-.21-1.61.29-.97,1.21-1.54,1.59-2.47.27-.7.6-.96,1.3-1.24.41-.16.79-.34,1.15-.61.67-.48,1.03-1.1,1.35-1.86.2-.49.41-.91.79-1.29.39-.37.79-.72,1.17-1.09.76-.72,1.28-1.51,1.84-2.37.16-.26.32-.56.54-.76.24-.21.5-.2.8-.23.39-.03.77-.11,1.13-.27.82-.36,1.17-1.16,1.56-1.91.24-.47.49-.96,1.03-1.12.43-.13.9-.06,1.33-.05.53.01,1.06-.09,1.57,0,.45.08.86.3,1.32.35.47.04.88-.13,1.33-.23.56-.13,1.19-.11,1.76-.08.61.04,1.12.27,1.67.53.46.23.95.41,1.42.63.46.23.81.37.9.88.06.34.19.63.4.91.64.81,1.25,1.64,1.83,2.49.55.82.85,1.76,1.09,2.72.13.58.26,1.18.14,1.79Z"/><path class="cls-1" d="m1065.85,134.55c.14.58.27,1.18.15,1.79-.12.58-.47,1.1-.72,1.63-.39.82-.62,1.85-1.17,2.58-.9,1.2-2.65,1.42-4.02,1.66-1.63.29-3.23.68-4.45,1.88-.38.39-.73.7-1.28.83-.43.1-.88.1-1.32.13-.73.04-1.48.15-2.04.66-.64.6-1.02,1.47-1.29,2.28-.3.92-.57,1.88-.72,2.83-.14.89-.1,1.74.27,2.56.2.43.44.84.73,1.22.36.48.6.94.28,1.52-.45.86-1.52,1.23-2.28,1.8-.39.29-.77.62-1.2.84-.51.26-1.04.02-1.55.23-.71.29-.94,1.2-1.32,1.79-.35.54-.66.65-1.28.75-.42.06-.79.24-1.19.37-.84.25-1.66-.25-2.49.13-.34.15-.62.39-.94.57-.5.29-.89.22-1.44.15-.2-.02-.5.03-.68-.06-.17-.08-.2-.19-.28-.36-.1-.2-.22-.4-.31-.61-.03-.3-.02-.62,0-.82.08-1.02.52-1.97.65-2.99s-.23-1.83-.62-2.76c-.49-1.13-.85-2.23-.84-3.49,0-.5,0-.97-.07-1.47-.08-.59-.2-1.17-.16-1.75.06-.96.62-1.94,1.14-2.73.29-.44.63-.75,1.1-1.01.26-.15.56-.3.72-.57.17-.3.09-.62-.03-.92-.22-.55-.39-1-.21-1.61.29-.97,1.21-1.54,1.59-2.47.28-.7.61-.96,1.3-1.24.4-.16.79-.34,1.15-.61.67-.49,1.03-1.1,1.35-1.86.2-.49.41-.91.79-1.29.39-.38.79-.73,1.18-1.09.75-.72,1.28-1.51,1.84-2.37.16-.26.32-.56.54-.76.24-.21.5-.2.8-.23.39-.03.77-.11,1.13-.27.82-.37,1.17-1.17,1.56-1.91.24-.47.49-.96,1.03-1.12.42-.13.9-.06,1.33-.06.52,0,1.06-.09,1.57,0,.45.08.85.3,1.31.35.47.05.88-.13,1.33-.23.56-.13,1.19-.11,1.76-.07.61.04,1.12.27,1.66.52.47.23.96.41,1.42.63.46.23.81.37.9.88.06.34.19.62.4.91.63.81,1.25,1.63,1.83,2.49.55.82.84,1.76,1.08,2.72Z"/><path class="cls-1" d="m1052.41,180.81c-.02-.5-.04-1.02-.18-1.49-.02-.09-.05-.18-.09-.26-.15-.39-.39-.72-.55-1.11-.14-.34-.18-.71-.26-1.06-.03-.13-.07-.26-.12-.39-.18-.45-.46-.85-.78-1.21-.63-.68-1.54-1.4-2.4-1.74-1.1-.43-2.03.2-3.13.27-.47.03-.95,0-1.42-.01-.14-.01-.28-.02-.42-.03-.21-.02-.41-.03-.63-.05h-.01c-.38-.02-.76-.04-1.13-.11h-.02c-.1-.01-.21-.03-.31-.05-.18-.05-.35-.12-.51-.19-.4-.2-.78-.44-1.23-.51-.25-.05-.51-.03-.76.01-.11.02-.22.05-.33.09-.12.04-.25.09-.37.14-1.14.47-2.21,1.36-3.11,2.19-.54.5-1.01,1.06-1.56,1.54-.46.41-.98.72-1.44,1.14-.28.27-.58.55-.83.86-.02,0-.05,0-.08.02-.57.46-.91,1.58-.83,2.29.1.96,1.18,1.2,1.89,1.56.57.31.76.7.85,1.32.06.42.1.89.38,1.24.5.65,1.62.65,2.36.82.8.19,1.61.58,2.19-.17.39-.5.78-.98,1.43-1.16.25-.06.51-.1.77-.13.42-.06.86-.08,1.28-.12.18-.01.38-.01.57-.02.3-.01.6-.03.87-.11.38-.12.65-.4.94-.66.56-.47,1.06-.59,1.78-.66.43-.03.81-.11,1.14-.41.17-.15.3-.34.45-.52.08-.07.15-.15.23-.22.08-.06.15-.12.22-.18.2.06.39.13.59.19.15.11.28.43.4.58.15.2.34.4.57.52.32.18.67.21,1.02.16.46-.06.92-.25,1.33-.42.03-.01.05-.02.08-.03.95-.38,1.2-.93,1.16-1.92Zm-.99,1.3c-.06.04-.13.08-.19.11-.09.05-.19.11-.3.16-.12.06-.24.11-.37.15-.12.04-.24.07-.36.1-.12.03-.25.05-.37.06-.42.03-.83-.05-1.13-.35-.42-.42-.76-1.34-1.5-1-.32.14-.58.45-.81.71-.43.49-.81.59-1.45.64-.89.05-1.39.44-2.05,1-.4.34-.82.36-1.34.38-.05,0-.09,0-.14,0-.53.03-1.06.07-1.58.13-.08.01-.16.02-.24.04-.03,0-.06,0-.09.01-.14.02-.28.05-.42.08-.23.05-.45.13-.65.23-.11.05-.21.11-.3.17-.1.07-.2.15-.29.23-.08.07-.16.15-.24.24-.32.38-.47.84-1.05.73-.59-.11-1.16-.28-1.74-.39-.45-.09-1.06-.1-1.41-.46-.37-.37-.33-1.02-.42-1.49-.19-.92-.96-1.2-1.73-1.56-.27-.13-.6-.27-.77-.52-.22-.29-.21-.6-.13-.93.02-.02.04-.04.04-.08.07-1,.91-1.76,1.63-2.39.77-.68,1.61-1.21,2.33-1.96.77-.79,1.65-1.47,2.56-2.11.4-.27.81-.5,1.26-.66.12-.04.24-.07.35-.09h.01c.52-.09.96.04,1.46.29.03.01.05.03.08.04.01,0,.01.01.02,0t.02.01c.08.05.18.08.26.11.12.05.23.08.35.11.07.02.14.04.21.05.1.03.21.05.31.06h.02s.05.01.08.02c.18.03.36.05.54.07.25.02.51.04.78.06h.01s.06.01.09.01c.97.08,1.98.15,2.93-.09.54-.13,1.04-.41,1.61-.36.54.05.99.34,1.43.65.82.61,1.67,1.28,2.03,2.29.05.12.08.24.11.36.02.09.03.19.05.28.01.09.02.18.04.27l.06.3s.02.09.03.13c.13.43.38.78.54,1.17.04.11.08.22.1.34.05.19.07.38.09.58v.02c.01.15.02.3.03.45.05.58.16,1.22-.39,1.59Z"/><path class="cls-1" d="m1051.81,180.52c.05.58.16,1.22-.39,1.59-.73.49-2.01.93-2.72.23-.42-.41-.76-1.34-1.5-1-.32.15-.58.46-.81.72-.43.49-.81.59-1.45.63-.89.06-1.39.44-2.05,1-.4.34-.83.36-1.34.39-.58.03-1.15.07-1.73.14-.9.11-1.61.29-2.22,1-.32.38-.47.84-1.06.73s-1.16-.28-1.74-.39c-.45-.09-1.07-.1-1.41-.46-.37-.37-.32-1.02-.41-1.5-.19-.92-.96-1.19-1.74-1.55-.27-.13-.6-.28-.77-.52-.21-.28-.2-.6-.13-.93.02-.02.05-.05.05-.08.06-1,.91-1.76,1.63-2.39.77-.68,1.61-1.21,2.33-1.96.77-.8,1.64-1.48,2.56-2.11.39-.28.81-.51,1.26-.66.68-.23,1.2-.11,1.82.2.89.44,1.79.46,2.76.53.97.08,1.98.16,2.94-.08.53-.14,1.04-.41,1.61-.36.54.05.99.33,1.42.64.83.62,1.67,1.29,2.04,2.3.17.43.16.9.28,1.34.13.42.39.77.54,1.17.17.44.19.92.22,1.39Z"/></svg>