<?xml version="1.0" encoding="UTF-8"?><svg id="Tree_03_-_Leaves_01" xmlns="http://www.w3.org/2000/svg" viewBox="0 0 1160 418.25"><defs><style>.cls-1{fill:#8fb223;stroke-width:0px;}</style></defs><path class="cls-1" d="m129.5,203.94c-.32.49-.23,1.19-.17,1.75.08.82.12,1.65.32,2.46s.49,1.49.81,2.22c.39.9.7,1.85.96,2.8.12.43.21.87.31,1.31.02.05.03.1.04.15-.05.03-.08.08-.09.15-.11.56.28,1.03.63,1.43.56.63,1.1,1.3,1.48,2.05.46.91.15,1.78-.05,2.7-.09.44-.14.87-.32,1.29-.15.37-.36.71-.54,1.07-.29.59-.56,1.26-.4,1.92.12.53.49.92.84,1.3.23.25.47.49.66.77.19.29.28.63.42.93.27.58.89,1.07,1.47,1.38,0,.03.02.07.04.09.33.33.49.63.51,1.1.02.3,0,.59,0,.89,0,.51-.02,1.07.22,1.54.25.49.73.73,1.27.8.65.08,1-.12,1.41-.59.24-.29.59-.63,1-.46.22.09.39.3.58.45.25.19.53.29.84.3.44,0,.85-.14,1.27.02.59.23,1,.75,1.66.81.76.06,1.36-.46,2.04-.68.83-.27,1.72-.03,2.53-.38.73-.32,1.31-.86,2.09-1.08.63-.18,1.05-.39,1.41-.96.47-.76.83-1.42,1.69-1.82.56-.25,1.34-.28,1.82-.7.32-.29.3-.69.23-1.08-.07-.36-.2-.74.07-1.07.22-.26.58-.37.91-.43.89-.17,1.81-.15,2.7-.33,1.39-.29,2.3-1.16,2.73-2.51.22-.69.29-1.41.25-2.13-.02-.38-.05-.76-.12-1.13-.05-.29-.12-.62-.08-.92.08-.05.12-.16.05-.25v-.03c.03-.09-.08-.12-.13-.06-.21-.11-.43-.19-.63-.3-.36-.19-.52-.51-.7-.85-.31-.57-.61-1.15-1.07-1.62-.88-.9-2.16-1.42-3.35-1.8-1.27-.42-2.42-.37-3.68.06-1.1.38-2.92.87-3.76-.3-.29-.41-.42-.94-.63-1.39-.27-.56-.59-1.09-.85-1.65-.46-1.02-.8-2.49-.53-3.6.25-1.04,1.34-1.52,2.22-1.92,1.1-.49,2.08-1.05,3.04-1.76.53-.39,1.07-.76,1.62-1.13.36-.23.71-.49.93-.85.26-.44.27-.95.11-1.42-.11-.32-.22-.59-.25-.93-.03-.25-.06-.46-.17-.69-.06-.12-.21-.16-.32-.14-1.11.22-2.24.4-3.35.1-.99-.27-1.92-.89-2.7-1.55-.43-.39-1.03-.93-1.67-.81-.46.08-.75.53-.93.92-.46.93-.55,1.99-.98,2.92-.39.86-1.48,2.96-2.69,2.25-.56-.34-.98-.87-1.58-1.17-.68-.35-1.45-.53-2.22-.49-.7.02-1.48.07-2.12.36-.56.26-.7.81-1.15,1.17-.36.29-.95.15-1.38.13-.37-.02-.73.02-1.08.15-.69.27-1.17.73-1.95.72-.56-.02-1.18,0-1.53.53Zm.39,2.97c-.08-.73-.29-1.66-.13-2.4.18-.87,1.1-.56,1.74-.64.7-.08,1.19-.65,1.86-.8.71-.16,1.55.22,2.22-.16.48-.28.62-.87,1.07-1.16.63-.39,1.65-.44,2.37-.42.8.02,1.65.28,2.28.8.42.35.83.86,1.38,1.01.45.12.93-.11,1.28-.37.87-.66,1.45-1.76,1.82-2.77.33-.9.38-1.97.95-2.77.47-.66,1.1-.22,1.6.21.56.49,1.12.97,1.77,1.35,1.44.83,3.03.83,4.62.56.07.29.05.59.14.87.12.38.33.73.22,1.14-.16.62-.88.9-1.38,1.22-1.19.76-2.3,1.65-3.61,2.23-.89.39-1.92.76-2.54,1.56-.63.78-.53,1.89-.39,2.82.1.63.22,1.27.47,1.85.22.54.53,1.04.8,1.56.42.8.62,1.88,1.45,2.38,1.05.63,2.34.41,3.43.04.67-.23,1.33-.46,2.05-.45.7,0,1.38.19,2.03.43,1.22.45,2.48,1.01,3.23,2.13.34.5.56,1.14.97,1.59.31.34.73.42,1.12.6-.18.56.05,1.28.08,1.82.05.85-.02,1.69-.34,2.49-.31.78-.85,1.46-1.65,1.77-.4.15-.82.24-1.24.3,0-.02,0-.04-.03-.04-.03,0-.03.02-.02.05-.53.07-1.08.1-1.61.16-.56.06-1.17.14-1.6.55-.4.38-.41.85-.31,1.37.05.21.15.53.04.73-.13.25-.52.32-.76.39-.66.19-1.31.41-1.85.84-.56.46-.8,1.12-1.21,1.69-.4.56-1.25.56-1.84.88-.36.19-.67.44-1.03.64-.42.24-.85.32-1.34.34-.42.02-.86,0-1.27.11-.32.08-.62.23-.9.37-.39.19-.81.4-1.25.3-.29-.07-.55-.25-.8-.4-.28-.17-.56-.34-.89-.39-.33-.06-.66.02-1,.02-.68,0-.95-.59-1.55-.75-.49-.13-.95.18-1.27.52-.16.17-.29.39-.53.48-.29.12-.71.05-1-.06-.51-.2-.66-.7-.69-1.21-.03-.49.02-1-.02-1.5s-.19-.85-.5-1.2c0-.08-.05-.15-.14-.18-.03,0-.05-.02-.08-.03s-.06,0-.09,0c-.27-.27-.58-.49-.85-.75-.25-.25-.37-.56-.5-.88-.22-.54-.52-.97-.91-1.38-.42-.44-.87-.88-.87-1.53,0-.78.52-1.47.84-2.14.32-.66.42-1.38.59-2.09.19-.73.37-1.48.09-2.22-.25-.7-.74-1.32-1.19-1.9-.22-.29-.75-.72-.97-1.14.18-.02.33-.2.2-.39-.19-.29-.23-.74-.3-1.07-.12-.49-.25-.98-.39-1.47-.29-.93-.66-1.82-1.06-2.7-.42-.9-.7-1.82-.8-2.82Z"/><path class="cls-1" d="m129.76,204.5c-.15.74.05,1.67.13,2.4.1,1,.39,1.92.8,2.82.4.88.77,1.77,1.06,2.7.14.49.27.97.39,1.47.07.33.11.78.3,1.07.13.19-.02.36-.2.39.22.42.74.84.97,1.14.45.58.93,1.21,1.19,1.9.28.73.09,1.48-.09,2.22-.18.71-.27,1.42-.59,2.09-.32.67-.84,1.36-.84,2.14,0,.65.46,1.09.87,1.53.39.42.7.84.91,1.38.13.32.25.63.5.88.27.26.58.48.85.75.03,0,.06-.02.09,0s.05.02.08.03c.09.03.13.1.14.18.31.35.47.7.5,1.2s-.02,1,.02,1.5c.03.51.18,1.01.69,1.21.29.12.7.19,1,.06.23-.08.36-.31.53-.48.32-.34.79-.65,1.27-.52.6.16.87.76,1.55.75.33,0,.66-.08,1-.02.32.05.61.22.89.39.25.15.51.33.8.4.44.1.86-.12,1.25-.3.29-.14.59-.29.9-.37.42-.11.85-.09,1.27-.11.49-.02.92-.1,1.34-.34.36-.2.67-.45,1.03-.64.59-.32,1.44-.32,1.84-.88.41-.57.64-1.24,1.21-1.69.54-.43,1.19-.65,1.85-.84.25-.07.63-.13.76-.39.12-.2,0-.52-.04-.73-.1-.52-.09-.99.31-1.37.43-.41,1.04-.49,1.6-.55.53-.06,1.08-.09,1.61-.16,0-.02,0-.05.02-.05.02,0,.03.02.03.04.42-.06.84-.15,1.24-.3.8-.31,1.34-.99,1.65-1.77.32-.8.39-1.64.34-2.49-.02-.54-.25-1.27-.08-1.82-.39-.19-.81-.26-1.12-.6-.41-.46-.63-1.09-.97-1.59-.75-1.12-2.01-1.68-3.23-2.13-.66-.24-1.34-.42-2.03-.43-.73-.02-1.38.22-2.05.45-1.09.37-2.38.59-3.43-.04-.83-.49-1.04-1.58-1.45-2.38-.27-.52-.57-1.02-.8-1.56-.25-.59-.37-1.22-.47-1.85-.14-.93-.24-2.04.39-2.82.63-.8,1.65-1.17,2.54-1.56,1.31-.58,2.42-1.47,3.61-2.23.49-.32,1.21-.6,1.38-1.22.12-.42-.1-.76-.22-1.14-.08-.28-.07-.59-.14-.87-1.59.28-3.18.28-4.62-.56-.65-.38-1.21-.86-1.77-1.35-.49-.42-1.13-.87-1.6-.21-.57.8-.62,1.87-.95,2.77-.36,1-.94,2.11-1.82,2.77-.35.26-.83.49-1.28.37-.54-.15-.96-.66-1.38-1.01-.63-.52-1.48-.77-2.28-.8-.73-.02-1.75.03-2.37.42-.46.29-.59.88-1.07,1.16-.66.38-1.51,0-2.22.16-.67.15-1.17.72-1.86.8-.63.08-1.56-.23-1.74.64Z"/><path class="cls-1" d="m207.04,149.76c-.27,1.42-.34,3.01.25,4.36.58,1.33,1.87,2.16,2.46,3.47.32.72.41,1.51.53,2.27.12.85.35,1.64.66,2.43.47,1.2,1.21,2.77.9,4.09-.03.12.04.25.17.29.76.2.94,1.32,1.41,1.87.25.31.62.46.92.72.39.33.62.83.99,1.19,1.22,1.22,2.99.94,4.51,1.45.42.14.77.35,1.09.66.27.28.53.54.87.73.76.42,1.72.35,2.57.35,1.14,0,2.2.05,3.28.44.86.3,1.71.74,2.64.46.46-.15.82-.54,1.27-.65.46-.12.97.22,1.38.39.73.32,1.45.73,2.22.97-.06.06-.11.15-.08.25.02.08.03.15.05.22.08.26.44.25.52,0,.25-.75.29-1.95.95-2.48.28-.23.65-.32.98-.47.35-.15.66-.36.95-.6.5-.46,1.12-1.21.98-1.94-.15-.76-.93-1.42-1.45-1.95-.7-.72-1.14-1.48-1.53-2.41-.32-.76-.73-1.42-1.25-2.05-.55-.65-1.16-1.24-1.72-1.86-.57-.63-1.16-1.18-1.87-1.65-.66-.44-1.4-.87-2.14-1.16-.4-.16-.86-.21-1.23-.42s-.6-.57-.78-.94c-.31-.62-.5-1.24-1.02-1.72-.48-.46-1.08-.76-1.68-1.02-.64-.29-1.3-.54-1.87-.94-.64-.46-1.06-1.1-1.53-1.71-.97-1.27-2.53-2.18-3.97-2.84-1.51-.7-3.15-1.04-4.81-.84-1.8.21-3.54.97-5.38.89-.1,0-.22.08-.23.18Zm1.07,4.9c-.91-1.34-.93-3.04-.63-4.59,1.91.06,3.69-.76,5.59-.89,1.94-.13,3.75.51,5.4,1.48.73.44,1.48.9,2.08,1.5.53.52.89,1.16,1.38,1.7.92,1.02,2.22,1.35,3.38,1.98.62.34,1.13.77,1.43,1.42.28.61.5,1.27,1.04,1.71.57.49,1.4.56,2.05.89.76.38,1.51.8,2.19,1.33.63.5,1.14,1.13,1.7,1.71.59.62,1.19,1.23,1.68,1.92.49.71.73,1.52,1.12,2.28.38.75.95,1.3,1.51,1.91.28.29.6.61.81.97.25.42.14.76-.12,1.16-.47.72-1.09,1.04-1.85,1.36-1.08.46-1.28,1.49-1.55,2.51-.96-.29-1.84-.9-2.77-1.29-.34-.14-.7-.28-1.07-.18-.52.13-.89.56-1.42.68-1.03.24-2.09-.54-3.05-.79-1.01-.25-2.05-.22-3.08-.23-.52-.02-1.07,0-1.56-.17-.42-.15-.73-.43-1.03-.75-.53-.55-1.17-.83-1.92-.99-.81-.18-1.65-.21-2.46-.44-.49-.15-.93-.37-1.28-.73-.32-.31-.52-.7-.82-1.02-.29-.3-.66-.46-.96-.73-.25-.23-.4-.56-.55-.85-.25-.48-.52-.97-1-1.2.2-1.15-.31-2.47-.72-3.51-.32-.8-.66-1.58-.82-2.43-.13-.73-.19-1.48-.39-2.2-.39-1.45-1.5-2.31-2.3-3.51Z"/><path class="cls-1" d="m207.48,150.07c-.3,1.55-.28,3.24.63,4.59.8,1.2,1.92,2.05,2.3,3.51.19.73.25,1.48.39,2.2.16.85.5,1.64.82,2.43.41,1.04.92,2.36.72,3.51.48.23.75.72,1,1.2.15.29.3.62.55.85.29.28.67.43.96.73.3.32.5.71.82,1.02.36.36.8.59,1.28.73.8.23,1.65.26,2.46.44.74.15,1.39.44,1.92.99.3.32.61.6,1.03.75.49.17,1.04.15,1.56.17,1.04.02,2.07-.02,3.08.23.97.25,2.02,1.03,3.05.79.53-.12.9-.55,1.42-.68.37-.1.73.04,1.07.18.93.39,1.81,1,2.77,1.29.27-1.02.47-2.05,1.55-2.51.76-.32,1.38-.64,1.85-1.36.26-.39.38-.73.12-1.16-.21-.36-.53-.67-.81-.97-.56-.61-1.14-1.16-1.51-1.91-.39-.76-.63-1.57-1.12-2.28-.49-.7-1.09-1.31-1.68-1.92-.56-.58-1.07-1.21-1.7-1.71-.67-.53-1.42-.95-2.19-1.33-.66-.33-1.48-.4-2.05-.89-.53-.45-.76-1.1-1.04-1.71-.3-.65-.81-1.08-1.43-1.42-1.17-.63-2.46-.96-3.38-1.98-.49-.54-.85-1.18-1.38-1.7-.6-.59-1.34-1.06-2.08-1.5-1.65-.97-3.46-1.61-5.4-1.48-1.89.12-3.68.95-5.59.89Z"/></svg>