<?xml version="1.0" encoding="UTF-8"?><svg id="Tree_03_-_Leaves_02" xmlns="http://www.w3.org/2000/svg" viewBox="0 0 1160 418.25"><defs><style>.cls-1{fill:#a2c81b;stroke-width:0px;}</style></defs><path class="cls-1" d="m90.13,169.28c-.42.56-.82,1.08-.74,1.82.07.7.51,1.17.91,1.69.5.65.77,1.42,1.31,2.05.51.62,1.28,1.07,1.59,1.84.25.6.18,1.26.61,1.79.43.55,1.14.77,1.78.92.77.17,1.86.17,2.36.85.38.51.99.65,1.6.54.78-.15,1.34-.73,1.83-1.32.56-.68,1.09-1.35,1.76-1.93.74-.64,1.55-1.14,2.44-1.55.8-.38,1.51-.75,2.19-1.31,1.24-1.02,2.44-2.02,3.07-3.53.31-.74.44-1.55.52-2.35.09-.91-.08-1.78-.12-2.69.15-.08.09-.34-.09-.34-.69-.02-1.52.02-2.16.32-.62.3-1.1.83-1.6,1.31-.53.51-1.14.93-1.81,1.26-.66.33-1.36.75-2.1.87-1.48.23-2.8-.7-4.02-1.4-.6-.36-1.4-.66-1.75-1.31-.16-.29-.21-.63-.32-.94-.09-.26-.23-.52-.36-.77-.33-.65-.75-1.22-1.13-1.83-.26-.42-.39-.93-.6-1.38.21-.36.42-.72.72-.99.16-.15-.02-.42-.22-.36-.41.12-.66.41-.87.74-.06-.02-.12-.04-.19-.04-.24,0-.37.25-.26.46l.09.16c-.09.15-.19.3-.31.43-.58.64-1.39,1.03-1.88,1.76-.53.8-.48,1.66-.67,2.56-.23,1.04-.99,1.85-1.61,2.67Zm.15,2.74c-.48-.66-.54-1.36-.07-2.04.45-.63.94-1.23,1.34-1.89.41-.7.63-1.41.76-2.2.12-.77.34-1.48.93-2.02.55-.49,1.21-.82,1.67-1.39l.02-.02c.06.12.12.23.18.35.18.36.36.7.61,1.02.53.68,1.06,1.53,1.31,2.36.19.59.34,1.07.83,1.48.54.45,1.19.75,1.78,1.12,1.16.73,2.51,1.44,3.92,1.24.72-.11,1.36-.49,2-.79.66-.32,1.29-.69,1.85-1.17.54-.46.99-1.02,1.59-1.4.61-.37,1.31-.41,1.99-.52-.02.97.09,1.89-.08,2.86-.16.9-.32,1.75-.78,2.55-.41.71-.97,1.32-1.58,1.85-.7.59-1.41,1.24-2.22,1.68-.73.39-1.51.68-2.22,1.12-.63.39-1.22.87-1.75,1.38-.59.56-1.04,1.25-1.58,1.86-.51.57-1.47,1.31-2.27.78-.25-.17-.36-.49-.62-.66-.23-.15-.52-.23-.78-.31-.78-.22-1.64-.28-2.37-.64-.61-.31-.84-.83-.95-1.48s-.4-1.12-.86-1.57c-.59-.58-1.17-1.1-1.59-1.82-.19-.32-.32-.69-.53-1-.16-.25-.37-.49-.56-.73Z"/><path class="cls-1" d="m90.21,169.98c-.47.68-.41,1.38.07,2.04.19.24.39.47.56.73.2.32.33.68.53,1,.42.72,1,1.24,1.59,1.82.46.45.75.93.86,1.57s.34,1.17.95,1.48c.73.36,1.59.42,2.37.64.26.08.55.15.78.31.26.17.36.49.62.66.8.53,1.76-.21,2.27-.78.54-.61.99-1.3,1.58-1.86.53-.51,1.12-.98,1.75-1.38.71-.44,1.49-.73,2.22-1.12.8-.43,1.52-1.09,2.22-1.68.62-.53,1.17-1.14,1.58-1.85.46-.8.62-1.65.78-2.55.17-.97.06-1.89.08-2.86-.68.11-1.38.15-1.99.52-.6.38-1.05.94-1.59,1.4-.56.48-1.19.85-1.85,1.17-.64.3-1.28.68-2,.79-1.41.2-2.77-.52-3.92-1.24-.59-.37-1.24-.67-1.78-1.12-.49-.41-.64-.89-.83-1.48-.25-.83-.79-1.68-1.31-2.36-.25-.32-.43-.66-.61-1.02-.05-.12-.12-.23-.18-.35l-.02.02c-.46.57-1.12.9-1.67,1.39-.59.54-.81,1.24-.93,2.02-.14.79-.36,1.51-.76,2.2-.39.66-.89,1.26-1.34,1.89Z"/><path class="cls-1" d="m118.33,142.68c-.13-.02-.27.09-.19.23.19.33.39.66.53,1.02.12.36.22.75.35,1.11.29.74.73,1.27,1.25,1.86.53.63,1,1.14,1.76,1.47.76.32,1.42.59,1.58,1.48.11.63.28,1.19.93,1.46.62.25,1.24.04,1.88-.02,1.58-.15,1.42,1.63,2.08,2.6-.19.18-.04.57.28.5,1.73-.38,3.57.28,5.22-.48.38-.17.77-.38,1.08-.66.3-.26.45-.61.67-.93.55-.82,1.5-1.16,2.44-1.24.64-.05,1.39-.06,1.94-.44.46-.32.63-.93,1.1-1.24.67-.45,1.64-.05,2.28.27.63.3,1.21.72,1.85.99.7.29,1.45.32,2.12.72.56.32,1.09.61,1.75.53.79-.09,1.67-.63,2.19.27.25.45.39.96.88,1.21.52.25,1.14.12,1.65-.1.56-.23,1.12-.51,1.59-.9.52-.42.64-.93.82-1.55.12-.44.36-.74.8-.9.25-.09.52-.13.76-.25,1.2-.53.89-2.08.63-3.08-.19-.72-.37-1.39-.32-2.14.04-.83.29-1.65.56-2.43.07,0,.12-.07.12-.15,0-.04,0-.08,0-.12,0-.09-.08-.14-.15-.13-.2-.28-.27-.65-.46-.94-.25-.39-.63-.72-.98-1-.77-.6-1.65-.75-2.58-.46-.93.29-1.72.89-2.68,1.09-.93.19-1.88,0-2.77.4-.7.31-1.59,1.2-2.41.81-.88-.41-.86-1.72-1.02-2.53-.2-1.01-.8-2.03-.04-2.95.47-.56,1.02-1.05,1.18-1.79.22-.96.02-2.03.06-3.01.05-1.07.22-2.14.25-3.22,0-.32-.39-.37-.54-.18-.4-.07-.81-.35-1.17-.48-.73-.29-1.5-.36-2.26-.51-1.48-.29-2.99-.9-4.5-.49-1.19.32-2.25,1.32-3.53,1.1-.66-.11-1.31-.34-1.98-.19-.55.12-.97.48-1.42.79-.6.42-1.31.76-2.03.93-.68.15-1.31-.05-1.98.02-.56.05-1,.41-1.46.71-.49.32-1.02.59-1.52.91-.51.32-1.02.66-1.44,1.08s-.73.94-1.06,1.44c-.36.54-.83.97-1.2,1.49-.36.52-.65,1.12-.91,1.69s-.46,1.17-.5,1.79c-.05.66.08,1.27-.15,1.9-.2.57-.56,1.1-.88,1.61-.19.3-.38.63-.43.99Zm.8.16c-.05-.22.25-.71.34-.9.13-.3.29-.58.43-.87.23-.5.4-1.04.43-1.59.02-.32-.05-.64-.05-.97,0-.4.08-.8.2-1.19.22-.69.5-1.41.83-2.05.29-.56.72-.99,1.07-1.49.37-.52.66-1.1,1.09-1.58.8-.9,1.93-1.39,2.95-2,.56-.33,1.07-.8,1.75-.75.62.03,1.18.12,1.79,0,.63-.12,1.26-.38,1.82-.68.46-.25.85-.62,1.33-.83.72-.32,1.45,0,2.18.1.48.08.93.05,1.38-.14,1.21-.5,2.26-1.25,3.65-1.1.73.08,1.45.29,2.17.45.62.14,1.24.21,1.87.31.54.09,1.07.23,1.59.42.23.08.47.18.72.22-.02,1.21-.22,2.41-.24,3.62,0,.66.05,1.32.02,1.98-.03.52-.23.91-.55,1.31-.53.66-1.01,1.3-.93,2.19.08.87.44,1.71.58,2.57.12.76.32,1.69,1.08,2.09.66.34,1.41,0,2-.32.44-.25.84-.52,1.34-.62.51-.11,1.04-.08,1.55-.1.97-.05,1.78-.47,2.63-.9.51-.25,1.05-.48,1.64-.46.6.02,1.08.31,1.53.69.38.32.66.66.87,1.11.1.2.19.39.33.55-.37.76-.65,1.56-.73,2.4-.08.78.06,1.49.25,2.23.18.7.46,1.58.14,2.28-.31.67-1.19.55-1.72.96-.51.39-.55.97-.74,1.54-.24.71-.95,1.07-1.58,1.38-.64.32-1.58.72-2.09-.02-.27-.39-.35-.87-.76-1.15-.56-.4-1.17-.21-1.78-.05-.87.23-1.41-.17-2.15-.53-.69-.35-1.47-.33-2.16-.64-.63-.28-1.17-.69-1.78-.98-1.06-.52-2.17-.67-2.98.3-.19.22-.36.5-.62.66-.34.21-.79.24-1.18.28-.65.06-1.3.14-1.91.4-.58.25-1.09.68-1.44,1.21-.26.4-.48.73-.91.98-.36.21-.75.39-1.16.49-1.46.36-2.97-.15-4.44.17-.08-.21-.18-.41-.25-.62-.11-.35-.19-.7-.32-1.04-.2-.51-.53-1.07-1.07-1.27-.59-.21-1.24.03-1.84.04-.46,0-.9-.14-1.07-.6-.12-.32-.11-.69-.22-1.01-.19-.59-.68-.9-1.21-1.16-.36-.18-.77-.29-1.11-.53-.39-.26-.7-.66-1-1.01-.62-.72-1.1-1.34-1.35-2.29-.1-.37-.18-.75-.36-1.07.12-.09.19-.23.15-.41Z"/><path class="cls-1" d="m119.47,141.94c-.08.19-.39.69-.34.9.04.18-.04.32-.15.41.18.32.25.7.36,1.07.25.94.73,1.57,1.35,2.29.31.35.61.75,1,1.01.34.23.75.35,1.11.53.53.26,1.02.57,1.21,1.16.12.32.11.69.22,1.01.18.46.62.6,1.07.6.6,0,1.24-.25,1.84-.04.55.19.87.76,1.07,1.27.13.34.22.69.32,1.04.07.21.16.41.25.62,1.48-.32,2.98.19,4.44-.17.41-.1.8-.28,1.16-.49.43-.25.65-.58.91-.98.36-.53.87-.95,1.44-1.21.61-.26,1.26-.34,1.91-.4.39-.04.84-.07,1.18-.28.25-.15.42-.43.62-.66.81-.97,1.92-.82,2.98-.3.61.29,1.16.7,1.78.98.7.31,1.48.29,2.16.64.74.36,1.27.76,2.15.53.6-.16,1.21-.36,1.78.05.41.29.49.76.76,1.15.51.74,1.44.34,2.09.02.63-.32,1.34-.67,1.58-1.38.19-.56.23-1.14.74-1.54.53-.41,1.41-.29,1.72-.96.32-.7.04-1.58-.14-2.28-.19-.74-.33-1.45-.25-2.23.08-.84.36-1.65.73-2.4-.15-.15-.23-.35-.33-.55-.21-.45-.49-.79-.87-1.11-.45-.38-.93-.67-1.53-.69-.59-.02-1.13.21-1.64.46-.85.42-1.66.85-2.63.9-.51.02-1.04,0-1.55.1-.5.1-.9.37-1.34.62-.59.32-1.34.66-2,.32-.76-.39-.97-1.32-1.08-2.09-.14-.87-.49-1.71-.58-2.57-.08-.89.41-1.53.93-2.19.32-.4.52-.8.55-1.31.03-.66-.02-1.32-.02-1.98.02-1.21.22-2.41.24-3.62-.25-.05-.49-.15-.72-.22-.52-.19-1.05-.33-1.59-.42-.63-.1-1.25-.17-1.87-.31-.72-.15-1.44-.36-2.17-.45-1.38-.15-2.43.6-3.65,1.1-.46.19-.9.22-1.38.14-.73-.1-1.46-.42-2.18-.1-.48.21-.87.58-1.33.83-.56.3-1.2.56-1.82.68-.61.13-1.17.04-1.79,0-.69-.05-1.2.42-1.75.75-1.02.61-2.15,1.1-2.95,2-.42.49-.72,1.07-1.09,1.58-.36.5-.79.93-1.07,1.49-.33.64-.62,1.37-.83,2.05-.12.39-.21.79-.2,1.19,0,.32.08.64.05.97-.03.56-.2,1.09-.43,1.59-.14.29-.3.57-.43.87Z"/><path class="cls-1" d="m244.98,205.13c-.04.24-.02.47.04.7,0,.02,0,.04.02.06.06.21.13.42.21.62.25.66.39,1.32.56,2,.32,1.36,1,2.47,1.6,3.72.29.59.42,1.24.71,1.82.28.55.66,1.03,1.01,1.53.39.57.78,1.22.76,1.94-.02.62-.32,1.2-.46,1.79-.15.62-.08,1.22-.05,1.85.04.69-.12,1.24-.43,1.85-.36.68-.59,1.41-.08,2.09.36.46.87.72,1.4.95.59.26,1.07.62,1.55,1.07.42.41.84.84,1.46.91.47.06.9-.11,1.31-.32.88-.46,1.86-1.09,2.45-1.92.36-.52.53-1.16.97-1.62.4-.41.96-.63,1.4-1,.93-.76,1.63-1.76,1.85-2.96.21-1.16.08-2.33.65-3.41.27-.5.65-.93.98-1.39.2-.29.35-.65.23-1-.14-.42-.55-.64-.9-.87-.5-.35-.83-.8-1.04-1.38-.24-.69-.27-1.39-.04-2.09.2-.62.52-1.17.67-1.82.29-1.19.21-2.43-.08-3.61-.15-.59-.37-1.17-.51-1.76-.14-.55-.23-1.11-.43-1.65-.39-1.01-1.24-1.73-2.08-2.37-.44-.34-.91-.8-1.44-.99-.51-.19-1.05-.13-1.58-.17-1.27-.08-2.12-1.07-3.18-1.65-.88-.81-2.22,2.64-2.39,3.1-.12.32-.22.63-.31.96-.09.4-.16.82-.34,1.19-.17.37-.46.63-.75.9-.59.54-1.24,1.03-1.75,1.67-.25.32-.42.7-.69,1.01-.23.25-.49.36-.79.45,0-.05,0-.09,0-.13.03-.29-.47-.36-.52-.07Zm.8,1.29c-.05-.12-.09-.26-.15-.4.56-.24.97-.52,1.31-1.04.46-.7.92-1.27,1.55-1.82.53-.47,1.15-.92,1.46-1.58.25-.53.32-1.11.48-1.66.13-.45,1.29-3.58,1.87-3.62.02.02.02.04.04.05.98.63,1.77,1.61,2.98,1.81.63.1,1.31-.04,1.89.26.53.29,1.05.78,1.52,1.16.49.39.97.82,1.31,1.35.32.52.44,1.13.57,1.72.29,1.31.81,2.53.85,3.89.02.65-.06,1.29-.24,1.91-.16.56-.46,1.08-.62,1.65-.27.98-.08,2.12.47,2.98.25.38.57.67.95.92.5.32.83.6.42,1.17-.59.83-1.22,1.56-1.42,2.59-.21,1.11-.02,2.27-.5,3.34-.26.59-.71,1.1-1.18,1.55-.42.39-.93.63-1.37.98-.82.63-1,1.73-1.78,2.42-.42.37-.94.63-1.42.91-.53.29-1.13.59-1.73.35-.56-.22-1.01-.75-1.49-1.12-.45-.36-.97-.56-1.45-.85-.39-.22-.9-.57-.93-1.07-.02-.33.17-.72.29-1.02.22-.53.41-.99.42-1.57.02-.56-.09-1.12-.06-1.68.06-1.01.7-1.91.52-2.95-.19-1-.91-1.78-1.46-2.61-.59-.9-.81-1.98-1.31-2.94-.27-.52-.57-1.03-.8-1.56-.25-.58-.4-1.18-.54-1.79-.13-.58-.26-1.14-.46-1.71Z"/><path class="cls-1" d="m245.63,206.02c.05.14.1.28.15.4.19.56.32,1.13.46,1.71.14.61.29,1.21.54,1.79.23.53.53,1.04.8,1.56.5.96.72,2.03,1.31,2.94.55.83,1.27,1.61,1.46,2.61.19,1.04-.46,1.94-.52,2.95-.03.56.08,1.12.06,1.68-.02.58-.21,1.04-.42,1.57-.12.3-.31.69-.29,1.02.02.5.54.85.93,1.07.49.29,1,.49,1.45.85.48.37.93.9,1.49,1.12.6.25,1.21-.05,1.73-.35.48-.28,1-.54,1.42-.91.77-.69.96-1.78,1.78-2.42.44-.35.95-.59,1.37-.98.47-.44.92-.96,1.18-1.55.48-1.07.29-2.22.5-3.34.2-1.03.83-1.76,1.42-2.59.4-.57.08-.85-.42-1.17-.38-.25-.7-.54-.95-.92-.56-.86-.74-2-.47-2.98.15-.56.46-1.08.62-1.65.18-.62.26-1.26.24-1.91-.04-1.36-.56-2.58-.85-3.89-.13-.59-.25-1.21-.57-1.72-.33-.53-.82-.96-1.31-1.35-.47-.38-.99-.87-1.52-1.16-.58-.3-1.27-.16-1.89-.26-1.21-.19-2-1.17-2.98-1.81-.02,0-.02-.03-.04-.05-.58.03-1.74,3.17-1.87,3.62-.16.55-.22,1.14-.48,1.66-.31.66-.93,1.1-1.46,1.58-.63.55-1.09,1.13-1.55,1.82-.34.53-.76.8-1.31,1.04Z"/><path class="cls-1" d="m233.39,180.88c-.2.1-.11.46.12.43.11,0,.22-.02.33-.02,0,.12,0,.24.02.36.06.31.47.19.5-.07.02-.09.02-.19.02-.28.83.07,1.63.29,2.47.26.58-.02,1.16-.09,1.74-.19.53-.09,1.22-.36,1.74-.12.42.19.64.63,1.03.88.35.22.78.29,1.18.34.59.08,1.14.15,1.64.5.39.26.73.6,1.06.95.56.61,1.05,1.32,1.71,1.83.63.49,1.39.62,2.09.97.83.42,1.25,1.17,1.43,2.06.17.87.38,1.47,1.06,2.06.62.54,1.29,1.05,1.44,1.91.09.51.08,1.04-.02,1.54-.03.16-.05.32-.07.49-.02.02-.05.03-.07.05-.26.36.46.49.65.53.83.21,1.55.35,2.41.22.76-.11,1.59-.27,2.27-.63.59-.31.9-.86,1.1-1.48.24-.72.4-1.45.64-2.16.27-.78.62-1.55.86-2.33.46-1.55-.41-3.04-.48-4.57-.03-.72.02-1.45-.16-2.16-.18-.72-.65-1.28-1.02-1.91-.39-.66-.59-1.41-1.04-2.03-.37-.52-.85-.8-1.45-.98-.68-.21-1.3-.35-1.88-.77-.59-.42-1.13-.87-1.81-1.15-.66-.29-1.35-.47-2.05-.62-.72-.15-1.34-.31-1.88-.83-.96-.92-1.38-2.22-2.29-3.18-1.04-1.1-2.55-1.24-3.81-1.96-.19-.11-.37.04-.4.21-.17.12-.32.28-.52.41-.39.25-.84.26-1.3.2-.45-.06-.87-.19-1.31-.3-.19-.05-.36-.08-.54.02-.23.13-.42.39-.63.55-.29.25-.62.48-.95.67-.54.31-1.18.35-1.71.69-.83.56-.9,1.56-.8,2.48.08.73.25,1.44.18,2.18-.08.77-.58,1.3-.9,1.98-.26.56-.46,1.21-.39,1.82.04.35.17.66.22,1.01-.15.02-.29.06-.44.13Zm.96-.22c-.07-.4-.26-.76-.25-1.18,0-.8.44-1.47.85-2.12.72-1.17.45-2.37.3-3.65-.05-.47-.09-1,.12-1.45.27-.57.84-.69,1.39-.87.57-.18,1.06-.51,1.54-.87.22-.17.47-.5.72-.61.19-.08.45.05.67.12.59.15,1.26.29,1.86.13.52-.13.8-.49,1.19-.77,1.27.68,2.77.89,3.72,2.07.82,1.02,1.24,2.31,2.29,3.14.98.77,2.25.73,3.4,1.09.7.22,1.31.56,1.88,1,.39.31.79.61,1.25.8.6.25,1.3.28,1.85.63.61.39.89,1.17,1.16,1.81.26.63.66,1.15.99,1.73.37.65.43,1.34.44,2.06,0,.7.04,1.35.19,2.03.15.66.36,1.31.4,1.99.06.83-.26,1.54-.55,2.3-.25.66-.49,1.32-.7,1.99-.19.62-.29,1.31-.62,1.88-.34.59-.95.78-1.58.95-.73.2-1.51.4-2.28.32-.35-.03-.68-.13-1.02-.21-.05,0-.27-.03-.38-.06.05-.33.22-.67.25-1.01.06-.53.05-1.14-.13-1.65-.29-.87-1.07-1.36-1.7-1.97-.71-.68-.58-1.72-.97-2.56-.34-.73-.93-1.24-1.67-1.55-.83-.34-1.58-.58-2.22-1.25-.68-.71-1.25-1.53-2.03-2.15-.39-.31-.8-.55-1.29-.66-.48-.12-.99-.11-1.47-.25-.53-.17-.74-.6-1.17-.91-.33-.24-.71-.32-1.11-.28-1.14.1-2.23.49-3.4.38-.63-.05-1.3-.3-1.95-.33,0-.02,0-.04,0-.05Z"/><path class="cls-1" d="m234.09,179.47c0,.42.19.78.25,1.18,0,.02,0,.04,0,.05.65.03,1.31.28,1.95.33,1.17.11,2.26-.28,3.4-.38.4-.04.78.04,1.11.28.42.31.64.74,1.17.91.48.15.99.14,1.47.25.49.11.9.35,1.29.66.78.62,1.35,1.44,2.03,2.15.64.67,1.38.91,2.22,1.25.73.3,1.33.82,1.67,1.55.39.84.25,1.88.97,2.56.63.61,1.41,1.1,1.7,1.97.18.51.19,1.12.13,1.65-.03.34-.2.68-.25,1.01.11.03.32.05.38.06.34.08.67.18,1.02.21.77.08,1.55-.12,2.28-.32.63-.17,1.24-.36,1.58-.95.32-.56.43-1.26.62-1.88.21-.67.44-1.34.7-1.99.29-.76.61-1.47.55-2.3-.05-.68-.25-1.33-.4-1.99-.15-.68-.19-1.34-.19-2.03,0-.73-.07-1.41-.44-2.06-.33-.58-.73-1.1-.99-1.73-.27-.64-.55-1.42-1.16-1.81-.56-.36-1.25-.39-1.85-.63-.46-.19-.86-.49-1.25-.8-.58-.44-1.18-.79-1.88-1-1.15-.36-2.42-.32-3.4-1.09-1.06-.83-1.48-2.12-2.29-3.14-.95-1.18-2.44-1.39-3.72-2.07-.39.29-.67.64-1.19.77-.6.16-1.27.02-1.86-.13-.22-.06-.49-.2-.67-.12-.25.11-.49.44-.72.61-.48.36-.97.7-1.54.87-.55.18-1.12.29-1.39.87-.21.45-.17.98-.12,1.45.15,1.28.42,2.49-.3,3.65-.41.66-.85,1.33-.85,2.12Z"/><path class="cls-1" d="m191.52,162.38c-.21.02-.32.32-.11.47.34.24.74.39,1.06.66.25.22.44.49.61.77.32.53.59,1.08.97,1.57.31.41.69.77,1.17.95.69.26,1.42.02,2.13,0,.84-.02,1.48.39,2.25.66.68.24,1.38.19,2.06-.02.43-.14.83-.38,1.28-.46.42-.08.82.05,1.22.18.74.22,1.46,0,2.22.07.8.08,1.46.53,2.23.69.7.15,1.41.12,2.11.04,1-.12,2.17-.22,2.39-1.41.21-1.1-.38-2.22-.61-3.27-.19-.85-.29-1.71-.49-2.56-.21-.87-.33-1.68-.31-2.58.02-.63-.05-1.27-.49-1.77-.43-.49-1.1-.66-1.55-1.15-1-1.11-.76-2.75-1.21-4.09.07-.04.12-.1.08-.19-.29-.72-1.01-.93-1.74-.97-.53-.04-1.07-.02-1.61-.05-.53-.02-1.07-.05-1.58.08-.91.23-1.63.9-2.54,1.12-.54.14-1.1.19-1.64.31-.49.11-.98.25-1.48.38-.69.18-1.48.14-2.12.42-.74.32-.84,1.22-1,1.93-.23,1.03-.36,2.07-.61,3.09-.27,1.05-.79,1.85-1.46,2.68-.35.44-.65.93-.9,1.43-.15.29-.36.66-.35,1.01Zm.59-.02c-.08-.12.15-.5.19-.61.14-.29.3-.58.47-.85.36-.57.81-1.07,1.17-1.63.96-1.51,1.03-3.35,1.41-5.06.08-.39.15-1.02.41-1.33.19-.22.52-.29.79-.33.7-.12,1.36-.22,2.05-.42.9-.26,1.85-.35,2.75-.61.78-.22,1.41-.76,2.16-1.04.87-.32,1.85-.12,2.77-.13.65,0,1.5-.02,1.89.59-.03.03-.05.07-.04.13.49,1.39.19,3.04,1.14,4.26.42.54,1.04.73,1.53,1.19.7.66.4,1.68.46,2.53.05.76.25,1.48.4,2.22.15.8.25,1.6.43,2.39.2.9.89,2.19.39,3.11-.29.53-1.02.54-1.55.6-.7.08-1.42.13-2.11,0-.68-.13-1.29-.52-1.98-.65-.72-.14-1.41.05-2.12-.02-.41-.04-.79-.24-1.19-.29-.31-.04-.62-.02-.91.06-.8.21-1.48.68-2.34.59-.73-.07-1.33-.54-2.04-.7-.67-.15-1.34-.02-2.01.04-1.22.12-1.81-.8-2.36-1.75-.24-.41-.47-.83-.77-1.21-.28-.34-.64-.56-1.01-.77.05-.08.08-.19,0-.3Z"/><path class="cls-1" d="m192.31,161.75c-.05.11-.27.49-.19.61.07.11.05.22,0,.3.37.21.73.43,1.01.77.3.38.53.8.77,1.21.55.95,1.14,1.87,2.36,1.75.67-.06,1.34-.19,2.01-.04.71.16,1.31.63,2.04.7.87.08,1.55-.39,2.34-.59.29-.08.6-.1.91-.06.4.05.78.25,1.19.29.71.07,1.41-.12,2.12.02.69.13,1.3.52,1.98.65.69.14,1.41.08,2.11,0,.53-.06,1.25-.07,1.55-.6.49-.91-.19-2.21-.39-3.11-.19-.79-.28-1.59-.43-2.39-.15-.74-.36-1.47-.4-2.22-.05-.86.24-1.87-.46-2.53-.49-.46-1.11-.65-1.53-1.19-.96-1.23-.65-2.87-1.14-4.26-.02-.06,0-.1.04-.13-.39-.6-1.24-.59-1.89-.59-.91,0-1.89-.19-2.77.13-.76.28-1.38.81-2.16,1.04-.9.26-1.85.35-2.75.61-.7.2-1.35.3-2.05.42-.27.05-.6.11-.79.33-.26.31-.32.94-.41,1.33-.38,1.71-.45,3.55-1.41,5.06-.36.56-.81,1.06-1.17,1.63-.17.27-.33.56-.47.85Z"/></svg>