<?xml version="1.0" encoding="UTF-8"?><svg id="Tree_03_-_Leaves_03" xmlns="http://www.w3.org/2000/svg" viewBox="0 0 1160 418.25"><defs><style>.cls-1{fill:#b6d01c;stroke-width:0px;}</style></defs><path class="cls-1" d="m143.02,185.46c-.07.15.13.26.22.13,0,0,0-.02,0-.02.05.34.15.69.25.99.19.61.34,1.23.55,1.82.4,1.14,1.08,2.03,1.83,2.96.42.53.93,1.07,1.24,1.68.33.63.2,1.31.04,1.96-.14.56-.25,1.13-.36,1.7-.06.32-.21.73-.08,1.05.07.19.29.19.37.05.3.18.62.32.93.49.44.25.84.53,1.23.86.53.46.99,1.08,1.62,1.42.59.32,1.26.27,1.92.23.46-.02.9-.03,1.36.06.21.05.46.16.67.12.24-.05.41-.28.56-.45.27-.29.55-.57.84-.83.46-.42.79-.7,1.04-1.28.12-.31.28-.83.65-.93.31-.08.67.12.93.26.58.32,1.01.82,1.56,1.18,1.18.77,2.44,1.52,3.05,2.86.02.02.04.03.05.05-.02.06.07.12.12.06.02-.02.03-.02.05-.04.05-.02.08-.05.11-.08.6-.47,1.53-.44,2.24-.53.55-.07,1.07-.25,1.58-.43.57-.21,1.16-.38,1.73-.59.92-.32,1.86-.61,2.64-1.21.74-.56,1.37-1.31,2.06-1.92.49-.43.98-.72,1.6-.93.44-.15.85-.31,1.27-.53.43-.23.88-.31,1.32-.49.36-.15.56-.39.74-.73.25-.43.42-.91.76-1.29.39-.43.9-.66,1.47-.72.46-.05.95-.02,1.41-.16.36-.12.67-.32,1-.51.4-.23.87-.5,1.35-.49.53.02.83.44.97.9.22.67.18,1.48.76,1.96.05.04.1.04.15.03.19.22.4.41.65.55.73.41,1.58.34,2.33.02.75-.31,1.29-.87,1.95-1.31.35-.23.73-.36,1.11-.52.43-.19.87-.39,1.32-.51,1.21-.34,2.61-.33,3.51-1.34.5-.57.8-1.29,1.29-1.88.49-.58,1.04-1.13,1.51-1.74.49-.66.73-1.25.66-2.09-.04-.42-.08-.83-.07-1.25.07-.02.12-.08.09-.17-.05-.15-.06-.3-.08-.46,0-.15,0-.31-.03-.46,0-.06,0-.12,0-.18-.04-.4-.1-.8-.13-1.21-.04-.65.11-1.36-.07-1.99-.15-.55-.62-.9-1.02-1.27-.49-.46-.95-1.02-1.59-1.27-.24-.08-.47-.1-.73-.1-.49,0-.88,0-1.31-.26-.56-.32-1.01-.75-1.66-.88-.7-.14-1.45-.1-2.16-.08-.72.02-1.48-.02-2.19.11-.44.07-.71.29-1.03.59-.47.46-1.02.67-1.65.83-1.17.31-2.6.63-3.81.26-.63-.19-.87-.95-1.15-1.47-.22-.42-.49-.83-.78-1.2-.28-.34-.63-.58-1.08-.63-.5-.06-.88.15-1.31.39-1.1.59-1.78-.36-2.7-.85-1.02-.55-2.36-.67-3.48-.44-.55.12-.94.33-1.29.77-.36.46-.71.87-1.24,1.14-.65.32-1.35.15-2.04.25-.66.11-1.31.41-1.93.66-.3.12-.62.29-.95.31-.4.03-.74-.13-1.1-.31-.49-.25-.97-.43-1.52-.47-.7-.05-1.41.11-2.08.34-.56.19-1.07.48-1.65.59-1.17.22-2.19.11-3.09,1-.52.53-.93.89-1.66,1.1-.63.19-1.3.26-1.94.45-.66.19-1.31.42-1.99.53s-1.34-.05-2.02-.03c-.42,0-.85.05-1.27,0-.3-.03-.59-.14-.89-.21-.39-.09-.86-.17-1.24.04-.36.19-.49.6-.59.97-.16.56-.37,1.05-.66,1.56-.28.52-.46,1.01-.58,1.58-.12.62-.22,1.27-.49,1.85Zm.8.68c-.08-.33-.08-.76-.3-1.04.17-.39.26-.8.36-1.24.15-.7.39-1.27.74-1.88.28-.5.41-.98.57-1.53.11-.35.25-.63.65-.67.36-.04.71.11,1.05.19.64.16,1.29.1,1.95.09.69,0,1.34.12,2.03.02.73-.12,1.44-.37,2.16-.57.69-.19,1.41-.26,2.08-.5.54-.2.93-.49,1.33-.9.44-.46.86-.8,1.5-.92.58-.12,1.17-.09,1.75-.22.59-.12,1.11-.43,1.68-.61.7-.22,1.44-.36,2.17-.2.59.13,1.07.53,1.64.7,1.11.31,2.24-.56,3.28-.84.66-.17,1.34,0,2-.18.49-.13.93-.43,1.3-.78.36-.34.59-.88,1.04-1.1.59-.29,1.41-.31,2.05-.23.65.08,1.34.25,1.89.61.36.25.7.54,1.09.75.36.19.76.29,1.17.21.46-.1.81-.45,1.26-.57,1.21-.32,1.82,1.51,2.29,2.29.21.36.46.73.86.91.36.17.83.18,1.22.2,1.23.08,2.47-.17,3.62-.59.49-.18.9-.42,1.27-.8.47-.46.89-.5,1.52-.55.7-.05,1.38-.07,2.07-.09.64-.02,1.34-.08,1.94.2.52.24.94.68,1.5.86.63.21,1.27-.06,1.88.26.57.32,1,.85,1.46,1.31.51.5.76.96.74,1.7,0,.7,0,1.37.09,2.06.05.44.05.9.17,1.33-.03.55-.04,1.1-.02,1.65.02.94-.54,1.6-1.14,2.26-.47.52-.97,1-1.4,1.56-.39.51-.63,1.14-1.12,1.57-.93.8-2.34.66-3.46,1.03-.67.22-1.41.47-2.02.83-.58.33-1.03.83-1.58,1.2-.62.42-1.47.71-2.19.43-.7-.27-1.03-.9-1.38-1.51-.02-.04-.05-.05-.08-.07-.11-.52-.19-1.04-.54-1.46-.64-.74-1.58-.45-2.32-.05-.42.22-.83.53-1.3.64-.52.14-1.07.06-1.59.18-.93.21-1.5.93-1.93,1.73-.14.26-.28.57-.51.76-.19.15-.42.19-.65.24-.47.1-.87.29-1.31.49-.53.25-1.1.38-1.63.64-.45.22-.83.55-1.19.88-.42.39-.85.78-1.24,1.21-.32.33-.63.69-1.01.93-1,.65-2.27.94-3.38,1.33-.53.19-1.07.41-1.62.52-.39.08-.8.08-1.19.15-.41.08-1.04.2-1.37.53-.61-1.39-1.97-2.12-3.19-2.91-.72-.47-1.89-1.89-2.9-1.36-.49.26-.6.9-.83,1.34-.19.35-.52.53-.81.79s-.58.53-.85.8c-.17.17-.29.36-.56.34-.17,0-.37-.09-.54-.12-.36-.07-.71-.07-1.07-.05-.4.02-.81.06-1.21.02-.42-.05-.75-.27-1.07-.54-1.11-.94-2.14-1.99-3.57-2.44.02-.4.19-.9.25-1.24.12-.56.29-1.12.36-1.69.17-1.22-.5-2.05-1.22-2.97-.86-1.08-1.69-2.09-2.12-3.42-.19-.62-.4-1.26-.56-1.89Z"/><path class="cls-1" d="m143.52,185.1c.22.28.22.7.3,1.04.16.63.37,1.27.56,1.89.42,1.34,1.26,2.34,2.12,3.42.72.92,1.39,1.75,1.22,2.97-.08.57-.25,1.13-.36,1.69-.07.34-.23.83-.25,1.24,1.43.45,2.46,1.5,3.57,2.44.32.27.65.49,1.07.54.4.05.81,0,1.21-.02.36-.02.72-.02,1.07.05.17.02.37.11.54.12.26.02.39-.17.56-.34.27-.28.56-.55.85-.8s.63-.44.81-.79c.23-.45.34-1.08.83-1.34,1-.53,2.18.89,2.9,1.36,1.22.8,2.58,1.52,3.19,2.91.33-.33.96-.46,1.37-.53.39-.07.8-.07,1.19-.15.56-.11,1.09-.33,1.62-.52,1.11-.39,2.39-.68,3.38-1.33.39-.25.7-.6,1.01-.93.39-.42.82-.82,1.24-1.21.36-.33.74-.66,1.19-.88.53-.26,1.1-.39,1.63-.64.43-.2.83-.39,1.31-.49.23-.05.46-.09.65-.24.23-.19.37-.49.51-.76.43-.8,1-1.52,1.93-1.73.52-.12,1.07-.04,1.59-.18.47-.12.87-.42,1.3-.64.74-.4,1.68-.7,2.32.05.36.42.43.94.54,1.46.03.02.05.03.08.07.35.61.67,1.24,1.38,1.51.73.28,1.58-.02,2.19-.43.56-.36,1-.87,1.58-1.2.61-.36,1.34-.62,2.02-.83,1.12-.36,2.53-.23,3.46-1.03.49-.42.73-1.06,1.12-1.57.42-.56.93-1.04,1.4-1.56.6-.66,1.17-1.31,1.14-2.26-.02-.56,0-1.1.02-1.65-.12-.43-.12-.89-.17-1.33-.08-.7-.1-1.37-.09-2.06.02-.74-.23-1.2-.74-1.7-.46-.46-.89-.99-1.46-1.31-.6-.32-1.25-.05-1.88-.26-.56-.18-.98-.62-1.5-.86-.6-.28-1.3-.22-1.94-.2-.69.02-1.38.05-2.07.09-.63.05-1.05.09-1.52.55-.37.37-.77.62-1.27.8-1.15.42-2.39.66-3.62.59-.39-.02-.86-.03-1.22-.2-.39-.19-.65-.55-.86-.91-.46-.79-1.07-2.62-2.29-2.29-.45.12-.8.47-1.26.57-.41.08-.8-.02-1.17-.21-.39-.21-.73-.5-1.09-.75-.56-.36-1.24-.53-1.89-.61-.64-.08-1.46-.06-2.05.23-.46.22-.68.76-1.04,1.1-.36.35-.81.65-1.3.78-.66.18-1.34,0-2,.18-1.04.28-2.17,1.15-3.28.84-.57-.16-1.04-.56-1.64-.7-.73-.15-1.47-.02-2.17.2-.56.18-1.09.49-1.68.61-.58.13-1.17.11-1.75.22-.64.12-1.06.46-1.5.92-.39.41-.79.7-1.33.9-.67.24-1.39.31-2.08.5-.72.2-1.43.46-2.16.57-.69.11-1.34-.02-2.03-.02-.66,0-1.31.07-1.95-.09-.34-.08-.7-.23-1.05-.19-.4.05-.54.32-.65.67-.16.55-.29,1.03-.57,1.53-.35.62-.59,1.19-.74,1.88-.09.43-.19.85-.36,1.24Z"/><path class="cls-1" d="m226.88,191.35c-.21.24.15.58.34.36.15.33.3.66.43,1.01.18.48.33.96.6,1.4.24.4.53.76.85,1.1.31.32.7.54,1,.87.74.76.56,2.05,1.18,2.91.33.46.59.87.71,1.43.08.36.05.77.09,1.15h0c.02.16.05.32.1.46.06.15.24.15.3,0,.02-.05.02-.11.04-.16.22.09.43.18.66.25.29.1.59.19.8.44.42.53.2,1.34.6,1.89.3.42.81.56,1.16.92.4.4.63.93,1.04,1.34.65.65,1.53,1.26,2.5,1.14,1.03-.12,1.61-1.25,2.58-1.56,1.12-.36,2.25.44,3.37.43.87,0,1.57-.44,2.09-1.11.32-.42.53-.91.88-1.31.33-.38.73-.73,1.12-1.04.36-.27.76-.51,1.04-.88.29-.41.39-.95.52-1.43.35-1.27.86-2.47,1.42-3.65.4-.85.76-1.7,1.13-2.56.02,0,.04,0,.05-.02.83-.9.54-2.67,0-3.66-.37-.67-1.14-.92-1.56-1.52-.42-.62-.25-1.56-.52-2.27-.41-1.1-1.34-1.59-2.37-2-.75-.3-1.41-.71-1.95-1.31-.49-.55-.91-1.17-1.52-1.59-.58-.39-1.28-.67-1.98-.76-.46-.05-.89.04-1.3-.22-.32-.19-.59-.48-.88-.72-.47-.39-.97-.74-1.61-.76-.82-.02-1.54.43-2.37.37-1.44-.1-2.8-.87-4.16-.04-1.05.65-1.71,1.75-2.68,2.5-.51.4-1,.79-1.23,1.43-.27.76-.32,1.61-.49,2.41-.19.89-.42,1.7-.83,2.52-.22.42-.44.85-.64,1.28-.08.17-.15.36-.24.53-.1,0-.2.1-.16.2,0,.02.02.04.02.05l-.12.16Zm.59-.05c.08-.16.16-.32.24-.5.19-.43.42-.85.63-1.28.39-.78.67-1.54.83-2.39.15-.83.24-1.69.45-2.52.22-.87.84-1.24,1.48-1.78.88-.76,1.52-1.86,2.6-2.38,1.4-.66,2.92.39,4.38.2.79-.1,1.53-.59,2.32-.22.59.28,1.03.83,1.55,1.21.59.43,1.17.26,1.85.41.76.16,1.5.53,2.05,1.09.51.51.9,1.13,1.47,1.6.46.39.99.66,1.55.89,1.18.48,2.09,1.04,2.35,2.38.11.56.05,1.21.38,1.71s.95.76,1.35,1.21c.42.46.58,1.14.67,1.75.06.42.07.88-.02,1.31t-.02,0c-.37.51-.56,1.1-.8,1.68-.27.66-.63,1.28-.93,1.93-.27.59-.54,1.18-.79,1.78-.27.63-.43,1.29-.63,1.95-.19.64-.42,1.04-.97,1.43-.34.25-.67.5-.99.79-.39.35-.72.7-1,1.15-.22.36-.45.73-.76,1.03-.88.85-1.95.57-3.01.26-1-.29-1.88-.32-2.77.28-.41.28-.75.65-1.17.92-.53.35-1.1.27-1.64,0-.49-.25-.94-.66-1.3-1.08-.31-.36-.49-.81-.86-1.13-.33-.29-.83-.43-1.08-.82-.3-.46-.22-1.07-.47-1.55-.18-.36-.48-.56-.84-.71-.32-.13-.66-.27-1-.35,0-.33-.05-.68-.1-.98-.08-.53-.26-1.03-.57-1.46-.35-.49-.59-.9-.73-1.5-.12-.49-.22-.99-.46-1.42-.23-.41-.59-.63-.94-.92-.43-.36-.8-.81-1.1-1.28-.52-.83-.7-1.83-1.21-2.66Z"/><path class="cls-1" d="m227.71,190.81c-.08.18-.15.34-.24.5.51.83.69,1.83,1.21,2.66.29.47.66.93,1.1,1.28.35.29.71.51.94.92.25.43.35.93.46,1.42.14.59.39,1,.73,1.5.31.43.49.93.57,1.46.05.3.11.65.1.98.34.08.68.22,1,.35.36.15.66.36.84.71.25.48.17,1.09.47,1.55.25.39.75.53,1.08.82.36.32.55.77.86,1.13.36.42.8.83,1.3,1.08.54.27,1.11.35,1.64,0,.42-.27.76-.64,1.17-.92.89-.6,1.78-.57,2.77-.28,1.06.31,2.12.59,3.01-.26.31-.3.53-.66.76-1.03.28-.45.61-.8,1-1.15.32-.29.65-.54.99-.79.55-.39.77-.79.97-1.43.19-.66.36-1.32.63-1.95.25-.59.52-1.19.79-1.78.29-.65.66-1.27.93-1.93.24-.58.42-1.17.8-1.68t.02,0c.09-.42.08-.89.02-1.31-.09-.6-.25-1.29-.67-1.75-.4-.45-1.03-.7-1.35-1.21s-.27-1.15-.38-1.71c-.25-1.34-1.17-1.9-2.35-2.38-.56-.22-1.09-.5-1.55-.89-.56-.47-.96-1.09-1.47-1.6-.55-.56-1.28-.93-2.05-1.09-.68-.15-1.26.02-1.85-.41-.53-.38-.96-.93-1.55-1.21-.79-.36-1.53.12-2.32.22-1.46.19-2.98-.87-4.38-.2-1.08.52-1.72,1.62-2.6,2.38-.63.55-1.26.92-1.48,1.78-.21.83-.29,1.68-.45,2.52-.16.86-.44,1.61-.83,2.39-.21.43-.43.85-.63,1.28Z"/><path class="cls-1" d="m146.96,116.63c-.22.72-.3,1.45-.25,2.2.06.79.36,1.52.46,2.3.08.72.08,1.44.43,2.08.28.52.73.86,1.24,1.12-.21.28.14.77.49.54.52-.36.81-.9,1.27-1.31.55-.49,1.25-.76,1.98-.81.65-.04,1.29.09,1.93.03.57-.06.97-.32,1.41-.64,1.03-.76,2.38-.42,3.58-.42,1.13,0,2.45-.02,3.19.98.29.39.56.72.94,1.01.47.36.41.93.57,1.45.23.75.62,1.53,1.38,1.85,1.06.44,1.9-.26,2.82-.67,1.13-.51,2.51-.4,3.66-.03.63.19,1.24.5,1.71.97.41.41.73.86,1.16,1.24.99.87,1.68,1.79,2.02,3.07-.07.03-.15.05-.22.08-.15.06-.04.31.11.26,1.55-.46,3.56-.77,4.99.18.51.34.93.8,1.47,1.1.57.32,1.11.32,1.75.31.51,0,.87.11,1.3.37.25.15.51.3.78.41.72.29,1.63.46,2.4.39.82-.08,1.56-.34,2.4-.29.29.02.57.06.87.07.17,0,.63-.04.78.07,0,.03-.02.05-.03.08-.08.26.31.36.39.12.41-1.17,1.88-1.61,2.87-2.15,1.34-.72,2.3-1.91,3.89-2.05.8-.08,1.6-.08,2.39-.2.95-.15,1.9-.28,2.85-.4.85-.11,1.71-.21,2.56-.26.42-.02.85-.02,1.27-.02.33,0,.7.05,1.04.02.05.04.13.04.19-.03.02,0,.04,0,.06,0,.06-.02.08-.11.02-.14.22-.44.25-.96.39-1.44.21-.7.56-1.38.73-2.09.34-1.45-.3-2.71-.55-4.11-.09-.53-.08-1-.42-1.45-.42-.56-.67-.97-.55-1.69.17-1.02.85-1.92.28-2.93-.5-.89-1.51-1.61-2.32-2.2-.54-.39-1.14-.64-1.73-.94-.56-.29-1.01-.72-1.48-1.14-.64-.57-1.16-1.49-2.16-1.1-.54.22-.93.7-1.5.86-.26.08-.53.06-.8,0-.3-.06-.32-.18-.43-.45-.46-1.17-.56-2.48-1.27-3.55-.32-.49-.77-.84-1.3-1.11-.53-.28-1.07-.5-1.47-.96-.02-.02-.03,0-.05-.02-.24-.76-1.01-1.33-1.69-1.68-.84-.43-1.78-.67-2.71-.83-.91-.15-1.81-.17-2.67.22-.54.25-.97.63-1.46.95-.51.32-1.11.45-1.71.43-.56-.02-1.07-.17-1.64-.1-.56.07-1.08.25-1.63.35-1.21.2-2.22-.11-3.04-1.04-.65-.75-1-1.72-1.81-2.33-.75-.56-1.68-.75-2.56-.4-1.04.42-1.8,1.29-2.98,1.31-.66,0-1.26-.17-1.93-.08-.51.07-1.01.15-1.46.42-.05.03-.08.08-.08.13-.66.27-1.34.56-2.05.64-.78.09-1.56-.06-2.34.08-1.5.27-1.96,1.61-2.26,2.93-.12.56-.18,1.31-.63,1.71-.44.38-1.08.36-1.6.19-.63-.21-1-.63-1.3-1.2-.25-.49-.54-.89-1.08-1.1-1.17-.46-2.42-.11-3.23.83-.48.56-.79,1.26-1.18,1.88-.43.69-.89,1.21-1.61,1.57-.56.29-1.17.51-1.68.87-.23.16-.45.35-.61.59-.19.29-.24.63-.36.96-.29.8-.89,1.48-1.33,2.19-.38.61-.7,1.27-.9,1.96Zm.26,3.06c-.44-1.75.22-3.55,1.21-4.98.42-.6.87-1.21,1.17-1.88.15-.35.19-.74.4-1.06.19-.27.47-.47.75-.65.52-.32,1.08-.53,1.61-.82.54-.3.91-.73,1.26-1.23.76-1.14,1.33-2.94,2.94-3.05.66-.05,1.4.09,1.78.68.3.45.45.95.89,1.3.65.53,1.62.78,2.41.42.97-.44,1-1.6,1.24-2.5.15-.62.35-1.23.8-1.7.53-.56,1.31-.66,2.05-.66.67,0,1.33.02,1.99-.16.6-.16,1.17-.43,1.74-.69.59,0,1.15-.22,1.75-.23.62-.02,1.2.18,1.82.08.56-.09,1.07-.32,1.55-.64.49-.33.99-.76,1.59-.87,1.15-.23,2.06.62,2.62,1.51.46.74.95,1.47,1.69,1.96.81.53,1.71.57,2.65.41.58-.1,1.15-.31,1.74-.35.53-.03,1.05.13,1.58.12.46-.02.93-.08,1.36-.27.48-.22.87-.58,1.31-.87.93-.6,1.92-.64,2.99-.45.82.14,1.64.32,2.4.65.42.19.83.43,1.17.75.22.21.42.46.62.7-.04.05-.05.11-.02.16.34.51.87.75,1.4,1.01.68.35,1.2.78,1.54,1.48.36.73.49,1.51.71,2.29.08.3.21.59.32.89.05.13.1.29.2.39.22.24.7.25,1,.24.42-.02.79-.19,1.13-.42.53-.36,1.05-.95,1.7-.47.39.29.7.73,1.05,1.07.45.41.89.8,1.44,1.09.49.25,1,.45,1.45.76.57.38,1.1.84,1.61,1.31.34.31.7.63.9,1.05.32.66-.02,1.23-.22,1.86-.15.47-.28,1-.2,1.5.08.54.44.85.72,1.29.29.43.23.98.35,1.47.31,1.3.83,2.56.45,3.91-.18.63-.47,1.22-.65,1.85-.13.46-.14.98-.32,1.43-.27-.06-.56-.06-.84-.08-.48-.03-.97-.02-1.45,0-.98.05-1.95.16-2.93.29-.93.12-1.85.25-2.77.39-.9.13-1.83.05-2.73.23-1.46.29-2.52,1.57-3.82,2.21-.9.45-2.09.87-2.58,1.82-.26-.14-.74-.12-.99-.15-.63-.06-1.24-.19-1.87-.12-.8.09-1.48.35-2.31.21-.69-.11-1.31-.26-1.91-.62-.55-.33-.99-.46-1.63-.45-.63.02-1.15-.02-1.7-.37-.45-.29-.83-.66-1.28-.95-.48-.31-1.02-.49-1.58-.59-1.04-.2-2.1-.1-3.09.23-.31-1.34-1.07-2.34-2.09-3.24-.54-.47-.92-1.08-1.48-1.52-.47-.36-1.02-.62-1.58-.8-1.1-.36-2.38-.46-3.5-.12-1.07.32-2.27,1.55-3.35.56-.4-.36-.59-.9-.72-1.41-.11-.44-.05-.94-.33-1.32-.18-.24-.44-.36-.65-.56-.23-.21-.39-.49-.58-.73-.27-.36-.59-.62-1.01-.79-1.01-.42-2.15-.32-3.21-.36-.7-.02-1.48-.14-2.17,0-.51.09-.9.41-1.31.7-.56.42-1.22.39-1.89.33-.56-.05-1.09-.07-1.64.06-.56.12-1.08.39-1.53.74-.4.32-.71.73-1.11,1.04-.32-.23-.65-.44-.91-.73-.32-.34-.46-.79-.56-1.23-.08-.39-.12-.8-.19-1.19-.08-.42-.22-.82-.32-1.23Z"/><path class="cls-1" d="m148.42,114.71c-.98,1.43-1.65,3.22-1.21,4.98.1.41.23.81.32,1.23.08.39.11.8.19,1.19.09.44.24.89.56,1.23.26.29.59.49.91.73.4-.31.71-.73,1.11-1.04.45-.36.97-.62,1.53-.74.55-.13,1.08-.12,1.64-.06.67.06,1.33.09,1.89-.33.41-.29.8-.61,1.31-.7.7-.14,1.47-.02,2.17,0,1.07.03,2.2-.07,3.21.36.42.17.74.42,1.01.79.19.25.35.53.58.73.21.19.47.32.65.56.28.38.22.88.33,1.32.13.51.32,1.04.72,1.41,1.07.99,2.28-.24,3.35-.56,1.12-.35,2.39-.24,3.5.12.56.19,1.11.44,1.58.8.56.44.93,1.05,1.48,1.52,1.02.9,1.78,1.89,2.09,3.24.99-.33,2.05-.43,3.09-.23.56.11,1.1.29,1.58.59.45.29.83.66,1.28.95.55.36,1.07.39,1.7.37.64-.02,1.08.12,1.63.45.6.36,1.22.51,1.91.62.83.14,1.51-.12,2.31-.21.63-.07,1.24.05,1.87.12.25.02.73,0,.99.15.49-.95,1.68-1.38,2.58-1.82,1.31-.64,2.36-1.92,3.82-2.21.9-.18,1.83-.1,2.73-.23.92-.14,1.84-.27,2.77-.39.97-.13,1.95-.25,2.93-.29.49-.02.97-.03,1.45,0,.28.02.57.02.84.08.19-.45.19-.97.32-1.43.18-.63.47-1.23.65-1.85.38-1.34-.14-2.61-.45-3.91-.12-.49-.06-1.04-.35-1.47-.28-.44-.63-.75-.72-1.29-.08-.49.05-1.03.2-1.5.2-.63.53-1.2.22-1.86-.2-.42-.56-.74-.9-1.05-.51-.46-1.04-.93-1.61-1.31-.46-.31-.97-.51-1.45-.76-.55-.29-.99-.68-1.44-1.09-.36-.34-.66-.77-1.05-1.07-.65-.48-1.17.12-1.7.47-.34.23-.71.4-1.13.42-.3.02-.78,0-1-.24-.1-.1-.15-.26-.2-.39-.12-.29-.24-.59-.32-.89-.22-.78-.35-1.56-.71-2.29-.34-.7-.86-1.13-1.54-1.48-.53-.26-1.06-.5-1.4-1.01-.04-.05-.02-.12.02-.16-.2-.24-.39-.49-.62-.7-.35-.32-.75-.56-1.17-.75-.76-.33-1.58-.51-2.4-.65-1.07-.19-2.05-.15-2.99.45-.44.29-.83.65-1.31.87-.42.19-.9.25-1.36.27-.53,0-1.05-.15-1.58-.12-.59.04-1.16.25-1.74.35-.93.16-1.84.12-2.65-.41-.74-.49-1.23-1.22-1.69-1.96-.56-.9-1.47-1.75-2.62-1.51-.6.12-1.1.54-1.59.87-.47.32-.98.55-1.55.64-.62.09-1.2-.1-1.82-.08-.59.02-1.16.23-1.75.23-.57.25-1.14.53-1.74.69-.66.19-1.31.16-1.99.16-.73,0-1.51.11-2.05.66-.45.47-.64,1.08-.8,1.7-.23.9-.26,2.06-1.24,2.5-.79.36-1.76.1-2.41-.42-.44-.35-.59-.85-.89-1.3-.39-.59-1.13-.73-1.78-.68-1.61.11-2.18,1.92-2.94,3.05-.35.5-.72.93-1.26,1.23-.53.29-1.1.5-1.61.82-.28.18-.56.38-.75.65-.21.32-.25.71-.4,1.06-.3.66-.75,1.27-1.17,1.88Z"/><path class="cls-1" d="m166.05,152.78c-.09,1.13.18,2.48.8,3.45.5.79,1.34,1.27,1.89,2.02.43.59.59,1.36,1.21,1.81.36.26.79.36,1.19.52.46.19.91.41,1.34.67.87.53,1.7,1.21,2.29,2.05.46.66.71,1.5,1.38,1.99.75.56,1.57.28,2.36,0,.49-.17,1.01-.27,1.48.05.34.24.5.66.64,1.04.25.69.5,1.41,1.12,1.86.63.46,1.41.45,2.15.41.98-.06,2.01-.17,2.83-.76.8-.57,1.36-1.41,2.12-2.02.82-.66,1.74-1.13,2.67-1.61.86-.45,1.45-.97,1.9-1.83.5-.99.87-2.05,1.29-3.07.41-1.01,1.03-1.96,1.31-3.02.27-1.03.15-2.12.19-3.18.03-.03.05-.08.04-.13-.1-.78-1.44-.63-1.97-.63-.63-.02-1.21-.26-1.78-.46-.61-.21-1.27-.39-1.85-.7-.45-.24-.69-.61-.87-1.07-.27-.67-.56-1.36-.76-2.05-.36-1.27-.12-2.6-.93-3.73-.15-.21-.47-.09-.5.1-.48-.48-1.15-.8-1.78-1.04-.84-.33-1.71-.47-2.6-.67-1.03-.24-2.02-.62-2.96-1.1-.49-.25-.98-.55-1.49-.79-.37-.17-.8-.41-1.21-.4-.38-.2-1.13.53-1.34.73-.62.59-1.14,1.32-1.92,1.71-.73.38-1.64.42-2.44.34-.42-.04-.86-.13-1.25-.31-.26-.12-.6-.51-.9-.48-.07,0-.17.05-.18.13-.02.11.02.21.06.3-.36.42-.68.88-.99,1.34-.35.52-.74,1-1.1,1.5-.69.95-1.14,1.96-1.13,3.15,0,.63.06,1.27,0,1.9-.07.66-.23,1.31-.29,1.96Zm.48.36c0-.55.12-1.09.22-1.63.08-.53.15-1.05.13-1.58,0-.49-.05-.99,0-1.48.12-1.09.78-1.98,1.44-2.81.32-.41.63-.82.9-1.25.23-.37.43-.75.66-1.11.43.28,1.08.43,1.39.49.81.14,1.66.13,2.46-.08.97-.25,1.66-.93,2.32-1.65.23-.26.46-.53.72-.77.15-.15.32-.29.52-.4.05-.03.12-.06.19-.09.35.3.88.43,1.29.63.45.22.87.49,1.32.71.83.42,1.69.74,2.6.96.89.21,1.8.26,2.67.56.85.29,1.56.75,2.33,1.19.71,1.11.47,2.52.88,3.75.22.65.46,1.31.73,1.94.16.39.37.74.71,1,.36.28.8.43,1.23.58.73.25,1.44.52,2.19.66.45.08.87.07,1.31.05.32,0,1.1-.09,1.17.34,0,.02.02.03.03.05-.19,1.12-.03,2.29-.42,3.38-.2.57-.51,1.09-.77,1.63-.25.51-.46,1.04-.67,1.56-.22.57-.44,1.14-.7,1.71-.24.53-.5,1.13-.9,1.56-.7.73-1.79,1.06-2.65,1.56-.82.48-1.58,1.05-2.24,1.74-.7.74-1.31,1.41-2.35,1.65-.8.18-1.88.32-2.68.09-.86-.24-1.15-1.06-1.43-1.81-.22-.59-.5-1.18-1.1-1.47-.79-.38-1.51-.02-2.27.21-1.03.3-1.62-.3-2.12-1.13-.44-.74-.93-1.41-1.57-1.99-.66-.59-1.43-1.09-2.23-1.48-.74-.36-1.63-.48-2.05-1.24-.19-.34-.33-.71-.55-1.04-.22-.33-.51-.63-.8-.9-.7-.66-1.29-1.24-1.58-2.2-.19-.6-.32-1.24-.32-1.87Z"/><path class="cls-1" d="m166.74,151.51c-.09.54-.21,1.08-.22,1.63,0,.63.13,1.27.32,1.87.29.96.88,1.54,1.58,2.2.29.28.58.57.8.9.22.32.36.7.55,1.04.42.76,1.31.89,2.05,1.24.8.39,1.57.89,2.23,1.48.64.58,1.13,1.24,1.57,1.99.49.83,1.09,1.43,2.12,1.13.76-.23,1.48-.59,2.27-.21.59.29.87.88,1.1,1.47.28.75.57,1.57,1.43,1.81.8.23,1.88.08,2.68-.09,1.04-.24,1.65-.91,2.35-1.65.66-.69,1.42-1.26,2.24-1.74.86-.5,1.95-.83,2.65-1.56.4-.43.66-1.03.9-1.56.26-.56.48-1.14.7-1.71.21-.53.42-1.05.67-1.56.26-.54.57-1.06.77-1.63.39-1.08.23-2.26.42-3.38,0-.02-.02-.02-.03-.05-.08-.43-.85-.35-1.17-.34-.45.02-.87.03-1.31-.05-.75-.15-1.46-.41-2.19-.66-.42-.15-.87-.3-1.23-.58-.34-.26-.55-.62-.71-1-.27-.63-.52-1.29-.73-1.94-.41-1.24-.17-2.64-.88-3.75-.76-.44-1.48-.9-2.33-1.19-.87-.29-1.78-.35-2.67-.56-.9-.22-1.77-.53-2.6-.96-.45-.22-.87-.49-1.32-.71-.41-.19-.94-.32-1.29-.63-.06.03-.13.06-.19.09-.19.11-.36.25-.52.4-.25.24-.49.51-.72.77-.66.72-1.34,1.41-2.32,1.65-.8.21-1.65.22-2.46.08-.31-.05-.96-.21-1.39-.49-.23.36-.43.74-.66,1.11-.27.43-.59.84-.9,1.25-.66.83-1.33,1.72-1.44,2.81-.06.49-.02.99,0,1.48.02.53-.05,1.06-.13,1.58Z"/><path class="cls-1" d="m89.76,152.7c-1.07.91-1.45,2.32-.96,3.63.56,1.46,1.75,2.62,2.96,3.55.67.52,1.39.98,2.12,1.41.52.3,1.06.54,1.65.53.06.1.2.16.3.12,0,0,.02,0,.02,0,.14-.05.22-.18.19-.32-.24-.84-.12-1.75.31-2.52.31-.55.76-1,1.02-1.58.13-.28.19-.56.19-.87.02-.47.06-.79.34-1.19.41-.59.95-1.07,1.32-1.69.63-1.03.41-2.33,1.1-3.34.6-.88,1.95-1.07,2.93-1.14.91-.07,1.95-.15,2.81.17.33.12.62.32.82.62.16.23.25.51.44.73.29.33.68.46,1.1.53.74.14,1.57.29,2,.97.24.39.38.83.76,1.1.81.61,1.92.46,2.82.22.49-.13.9-.22,1.41-.08.25.07.49.18.75.24.64.15,1.31.15,1.95.29.65.15,1.32.47,1.78.98.47.52.63,1.35.58,2.04,0,.06.03.1.08.12,0,0,.02.02.04.04,1.07.42,1.7,1.67,2.87,1.85,1.1.16,2.06-.7,2.82-1.37.48-.42.95-.83,1.51-1.16.48-.29,1-.54,1.42-.92.62-.58.93-1.58.4-2.32-.32-.46-.79-.72-.91-1.31-.08-.43-.12-.83-.38-1.21-.39-.56-1-.68-1.64-.63-.53.04-1.27.29-1.74-.08-.36-.28-.29-.9-.41-1.29-.25-.82-1-1.08-1.74-1.35-1.01-.38-1.8-1.07-2.3-2.03-.23-.45-.36-.93-.58-1.39-.22-.45-.53-.82-.85-1.2-.72-.86-1.07-1.92-1.74-2.8-.59-.76-1.31-1.46-2.21-1.81-1-.39-2.1-.32-3.15-.24-.54.04-1.15.08-1.65.29-.34.15-.59.41-.87.65-.85.73-1.89.96-2.94,1.24-.59.15-1.11.49-1.71.63-.48.12-.97.03-1.45.1-.42.05-.78.2-1.06.52-.19.22-.32.43-.57.59-.23.15-.5.24-.77.29-.6.12-1.2.03-1.76-.19-.44-.17-.88-.36-1.36-.35-.52.02-1,.21-1.48.39-.47.18-.94.33-1.39.56-.49.25-.9.62-1.34.93-.4.29-.85.46-1.22.78-.06.05-.06.12-.05.19-.5.25-.93.9-1.18,1.31-.46.73-.6,1.64-.81,2.46-.2.81-.12,1.49.07,2.3.1.43.26.94,0,1.34-.17.25-.43.43-.66.63Zm-.79,2.59c-.07-.69.27-1.47.7-1.99.31-.37.76-.6,1.04-1,.32-.46.23-.98.12-1.51-.09-.44-.23-.88-.24-1.33,0-.41.1-.8.21-1.19.19-.69.3-1.43.66-2.05.36-.61.89-1.02,1.34-1.55.4-.25.84-.44,1.23-.74.46-.35.9-.69,1.44-.92.51-.22,1.07-.42,1.61-.6.66-.22,1.21-.15,1.84.09.9.35,1.85.45,2.75.04.22-.1.42-.23.59-.39.19-.19.3-.44.52-.59.49-.36,1.16-.21,1.73-.26.43-.05.82-.21,1.21-.39.49-.21.97-.34,1.49-.48.86-.22,1.69-.53,2.39-1.1.42-.34.73-.66,1.27-.78.56-.13,1.14-.15,1.71-.19,1.09-.05,2.17,0,3.11.63.91.62,1.55,1.54,2.04,2.5.22.42.43.86.73,1.24.29.38.63.71.89,1.1.52.77.68,1.7,1.24,2.46.47.63,1.11,1.14,1.84,1.44.45.19.94.29,1.34.59s.48.74.54,1.21c.11.75.56,1.15,1.34,1.16.72,0,1.71-.4,2.29.25.37.42.31.94.46,1.44.1.35.33.6.56.87.36.43.58.87.36,1.44-.19.49-.61.78-1.04,1.05-.42.26-.87.49-1.28.77-.37.27-.71.59-1.05.89-.83.74-2.01,1.71-3.17,1.05-.7-.39-1.24-1-1.99-1.33.19-1.39-.7-2.54-1.94-3.06-.73-.3-1.51-.31-2.27-.43-.69-.12-1.31-.49-2.02-.37-.78.13-1.47.42-2.28.26-.73-.14-1.1-.5-1.44-1.14-.28-.51-.64-.84-1.18-1.07-.63-.26-1.52-.18-2.02-.66-.39-.39-.5-.92-.98-1.24-.4-.27-.9-.39-1.38-.44-1-.11-2.09-.04-3.08.16-1.01.2-1.93.62-2.37,1.61-.28.63-.32,1.27-.48,1.92-.17.72-.59,1.27-1.07,1.82-.39.46-.92.97-1.05,1.58-.08.34,0,.7-.11,1.04-.1.32-.31.62-.5.9-.39.54-.75,1.05-.94,1.69-.18.59-.19,1.19-.15,1.8-1.55-.33-2.92-1.46-4.09-2.46-1.12-.94-2.3-2.19-2.45-3.73Z"/><path class="cls-1" d="m89.67,153.3c-.43.52-.77,1.3-.7,1.99.15,1.54,1.33,2.79,2.45,3.73,1.17,1,2.54,2.13,4.09,2.46-.04-.61-.03-1.21.15-1.8.19-.64.56-1.15.94-1.69.19-.28.4-.57.5-.9.1-.34.03-.7.11-1.04.13-.61.66-1.12,1.05-1.58.47-.55.9-1.1,1.07-1.82.15-.65.2-1.3.48-1.92.44-.99,1.36-1.41,2.37-1.61.99-.2,2.09-.27,3.08-.16.49.05.98.17,1.38.44.48.32.59.86.98,1.24.49.49,1.38.4,2.02.66.54.22.9.56,1.18,1.07.34.64.71,1,1.44,1.14.81.15,1.5-.13,2.28-.26.7-.12,1.33.25,2.02.37.76.12,1.55.13,2.27.43,1.24.52,2.13,1.67,1.94,3.06.75.32,1.28.93,1.99,1.33,1.16.66,2.33-.31,3.17-1.05.34-.3.68-.62,1.05-.89.41-.29.86-.51,1.28-.77.43-.27.85-.56,1.04-1.05.22-.56,0-1-.36-1.44-.23-.27-.46-.53-.56-.87-.15-.49-.08-1.02-.46-1.44-.57-.65-1.57-.24-2.29-.25-.79,0-1.24-.41-1.34-1.16-.06-.46-.15-.91-.54-1.21s-.89-.4-1.34-.59c-.73-.3-1.37-.8-1.84-1.44-.56-.76-.72-1.68-1.24-2.46-.26-.39-.6-.73-.89-1.1-.29-.39-.51-.82-.73-1.24-.49-.97-1.13-1.88-2.04-2.5-.93-.63-2.02-.68-3.11-.63-.57.03-1.15.05-1.71.19-.54.12-.85.44-1.27.78-.7.56-1.53.87-2.39,1.1-.52.14-1,.27-1.49.48-.39.18-.78.34-1.21.39-.57.05-1.24-.09-1.73.26-.22.15-.33.41-.52.59-.17.16-.38.29-.59.39-.9.41-1.85.31-2.75-.04-.63-.25-1.18-.31-1.84-.09-.54.18-1.1.38-1.61.6-.54.23-.98.57-1.44.92-.39.3-.83.49-1.23.74-.46.53-.98.93-1.34,1.55-.36.63-.48,1.37-.66,2.05-.11.39-.22.78-.21,1.19,0,.45.15.89.24,1.33.12.53.21,1.04-.12,1.51-.28.39-.73.63-1.04,1Z"/><path class="cls-1" d="m97.11,187.13c-.08.46-.08.91.15,1.32.25.44.66.79.97,1.18.39.49.54,1.12.93,1.61.29.37.73.5,1.06.82.34.33.42.78.88,1.02.17.08.36.15.53.25.36.22.44.59.49.97.11.66.18,1.36.19,2.03,0,.59-.09,1.19-.07,1.78.04.7,0,1.72.84,1.93.51.12.97,0,1.44.29.33.19.63.45.97.61.34.16.7.22,1.07.07.42-.18.7-.58,1.11-.78.66-.32,1.21-.07,1.76.32.31.22.59.4.95.46.06.05.15.06.22.02.02,0,.02,0,.04,0,.2,0,.25-.22.17-.35.05-.25.12-.48.2-.72.21-.6.46-1.19.67-1.78.2-.59.3-1.25.63-1.78.31-.52.73-.97,1.12-1.43.68-.81,1.28-1.63,2.16-2.22.45-.3,1.18-.72,1.08-1.36,0-.05-.03-.08-.06-.09-.25-.69-.32-1.41-.46-2.12-.08-.39-.19-.75-.54-.98-.32-.19-.69-.24-1.04-.34-.21-.06-.42-.13-.58-.29-.25-.25-.14-.58-.2-.89-.13-.6-.64-1.04-.76-1.65-.13-.69-.02-1.4-.18-2.09-.23-.97-1.02-1.17-1.9-1.23-.48-.03-1.17,0-1.55-.32-.38-.34-.34-.87-.51-1.31-.22-.54-.71-.91-1.27-1.07-1.03-.29-2.51.02-2.77,1.22-.12.58.02,1.08-.65,1.34-.17.06-.33.12-.48.22-.25.19-.39.49-.66.63-.53.29-1.27-.08-1.81-.18-.42-.07-.83-.06-1.25.02-.93.19-1.8.64-2.26,1.51-.25.5-.36,1.04-.39,1.6-.03.61-.17,1.15-.29,1.75Zm1.01,1.85c-.66-.53-.97-1.16-.67-1.99.16-.46.33-.87.4-1.37.09-.67.14-1.28.53-1.87.25-.38.63-.66,1.04-.84.55-.25,1.17-.36,1.77-.27.45.07.88.25,1.33.28.39.02.75-.07,1.04-.34.19-.19.32-.42.56-.56.19-.11.41-.15.59-.26.68-.42.31-1.24.65-1.82.63-1.11,2.64-.91,3.21.16.35.66.22,1.49,1.06,1.82.73.28,1.6.03,2.31.36,1.06.5.55,2.22.86,3.14.17.52.63.92.69,1.47.04.37,0,.65.29.93.46.46,1.17.34,1.68.69.42.29.42,1,.49,1.46.08.54.21,1.06.42,1.57-.07.32-.53.57-.76.73-.29.19-.6.36-.87.57-.8.64-1.37,1.61-1.99,2.4-.32.4-.63.79-.84,1.25-.22.48-.34,1.01-.51,1.51-.2.57-.46,1.12-.66,1.69-.1.25-.29.55-.38.83-.46-.15-.83-.56-1.27-.76-.41-.19-.87-.22-1.3-.08-.52.17-.83.56-1.27.83-.44.28-.87,0-1.25-.25-.36-.22-.72-.45-1.13-.53-.26-.05-.53,0-.78-.06-.39-.08-.51-.31-.59-.67-.12-.53-.14-1.07-.12-1.61.02-.66-.03-1.28-.11-1.94-.09-.76.02-1.89-.76-2.34-.2-.12-.43-.19-.63-.32-.27-.2-.33-.44-.49-.71-.18-.32-.46-.49-.73-.7-.51-.39-.66-.92-.97-1.46-.22-.38-.47-.66-.81-.93Z"/><path class="cls-1" d="m97.45,186.99c-.3.83,0,1.46.67,1.99.34.28.59.56.81.93.3.54.46,1.07.97,1.46.28.22.56.39.73.7.15.27.22.51.49.71.19.14.42.21.63.32.77.45.66,1.58.76,2.34.08.66.13,1.28.11,1.94-.02.53,0,1.08.12,1.61.08.36.21.59.59.67.25.05.52.02.78.06.41.08.77.32,1.13.53.38.24.81.53,1.25.25.44-.27.75-.66,1.27-.83.43-.14.89-.11,1.3.08.45.2.81.62,1.27.76.08-.29.28-.58.38-.83.2-.57.46-1.12.66-1.69.17-.5.29-1.04.51-1.51.21-.46.53-.85.84-1.25.63-.8,1.19-1.76,1.99-2.4.27-.22.58-.39.87-.57.23-.15.7-.41.76-.73-.22-.51-.34-1.03-.42-1.57-.07-.46-.06-1.17-.49-1.46-.51-.35-1.22-.22-1.68-.69-.29-.29-.25-.56-.29-.93-.05-.55-.52-.95-.69-1.47-.31-.92.2-2.64-.86-3.14-.71-.33-1.58-.08-2.31-.36-.84-.32-.71-1.15-1.06-1.82-.56-1.07-2.57-1.27-3.21-.16-.34.59.03,1.4-.65,1.82-.18.12-.39.15-.59.26-.25.13-.37.36-.56.56-.29.27-.65.36-1.04.34-.45-.03-.88-.21-1.33-.28-.59-.08-1.22.02-1.77.27-.4.19-.78.46-1.04.84-.39.59-.43,1.2-.53,1.87-.07.49-.24.91-.4,1.37Z"/><path class="cls-1" d="m202.33,225.4c-.28.69-.15,1.45.02,2.15.13.51.31,1,.34,1.53.02.4-.02.81-.05,1.21-.05.75-.02,1.49.32,2.18.72,1.46,2.68,1.53,3.28,3.08.25.67.4,1.4.84,1.98.42.56,1.03.9,1.67,1.15,1.58.61,3.18,1.12,4.33,2.43.58.66.92,1.36,1.1,2.21.15.73.51,1.39,1.07,1.88.47.4,1.07.79,1.7.85.7.08,1.24-.36,1.8-.72.79-.51,1.68-.64,2.45-.04.48.38.95.74,1.6.65,1.17-.17,1.58-1.24,1.95-2.22.22-.56.45-1.15.96-1.5.72-.49,1.59-.7,2.32-1.17.7-.46,1.29-1.05,1.98-1.51.7-.46,1.48-.64,2.27-.88,1.56-.47,2.82-1.44,3.56-2.9.22-.41.42-.81.7-1.18.2-.29.41-.56.54-.89.29-.72.05-1.44-.13-2.16-.41-1.58-.87-3.96.78-5.04.54-.36,1.24-.49,1.69-.99.47-.53.5-1.31.7-1.96.22-.74.64-1.51.69-2.3.02-.29-.05-.56-.17-.83-.17-.42-.19-.8-.26-1.24-.26-1.72-2.44-1.13-3.59-1.04-.88.06-1.78-.08-2.67-.06-.8.02-1.65.12-2.43-.14-.87-.28-1.48-1.03-2.04-1.71-.52-.63-.99-1.31-1.48-1.98.1-.08,0-.29-.13-.24-.02,0-.02,0-.04.02,0-.02-.02-.02-.02-.03-.1-.13-.3-.02-.25.11-1.5.46-3.16.88-4.38,1.88-.56.46-.98,1.07-1.52,1.55-.59.53-1.34.9-2.04,1.26-1.44.73-3.06.77-4.62.51-.76-.13-1.55-.28-2.33-.19-.83.09-1.62.36-2.47.25-.77-.1-1.47-.49-2.05-.99-.42-.36-.81-.76-1.27-1.07.06-.1.12-.2.18-.3.15-.26-.25-.49-.41-.24l-.16.3c-.27-.12-.5.29-.23.41h0c-.3.56-.58,1.14-.84,1.71-.33.75-.66,1.5-.91,2.28-.25.79-.49,1.62-1.02,2.27-.45.56-1.05.99-1.33,1.66Zm.56,2.44c-.29-.87-.61-1.8-.08-2.63.39-.59.98-1.01,1.37-1.61.39-.6.62-1.29.84-1.95.46-1.37,1.1-2.68,1.8-3.94.6.37,1.11.89,1.68,1.31.63.48,1.34.77,2.13.83.87.06,1.69-.26,2.56-.28.86-.02,1.7.22,2.55.33,1.45.19,2.99-.02,4.3-.68.7-.36,1.41-.73,2.01-1.24.58-.49,1-1.13,1.58-1.62,1.19-1.01,2.85-1.38,4.28-1.98.39.56.79,1.13,1.21,1.67.47.61.98,1.27,1.61,1.74.54.39,1.17.55,1.83.59.77.05,1.55,0,2.33.02.83.03,1.63.15,2.46.05.75-.1,1.88-.32,2.45.33.3.35.22.83.32,1.25.08.36.31.65.35,1.01.05.4-.14.8-.26,1.17-.14.39-.29.76-.42,1.16-.24.73-.25,1.67-.97,2.11-.54.33-1.17.46-1.65.9-.53.47-.84,1.19-.97,1.88-.13.72-.06,1.45.06,2.17.13.82.53,1.67.54,2.5s-.69,1.44-1.04,2.13c-.4.76-.73,1.48-1.4,2.05-.68.59-1.46.96-2.33,1.2-.7.2-1.41.37-2.05.76-.68.41-1.25.96-1.89,1.42-.68.49-1.45.76-2.2,1.14-1.06.53-1.33,1.47-1.75,2.5-.21.49-.48,1.01-1,1.24-.85.38-1.3-.31-1.95-.7-.55-.32-1.24-.32-1.85-.15-.66.2-1.14.71-1.76.96-.73.29-1.56-.25-2.05-.77-.63-.65-.63-1.39-.87-2.19-.42-1.39-1.62-2.49-2.87-3.16-.66-.36-1.35-.64-2.05-.9-.73-.26-1.49-.49-2.03-1.08-.54-.59-.61-1.38-.9-2.09-.25-.6-.64-1.06-1.19-1.42-.6-.41-1.39-.66-1.86-1.24-.54-.66-.55-1.5-.52-2.3.03-.87-.03-1.62-.31-2.45Z"/><path class="cls-1" d="m202.82,225.21c-.53.83-.21,1.77.08,2.63.28.83.34,1.58.31,2.45-.03.8-.02,1.65.52,2.3.47.58,1.26.83,1.86,1.24.55.36.94.82,1.19,1.42.29.71.36,1.5.9,2.09.54.59,1.31.82,2.03,1.08.7.26,1.4.55,2.05.9,1.24.67,2.45,1.77,2.87,3.16.25.8.25,1.55.87,2.19.49.52,1.32,1.06,2.05.77.63-.25,1.1-.76,1.76-.96.6-.18,1.3-.18,1.85.15.66.39,1.1,1.07,1.95.7.53-.23.8-.75,1-1.24.42-1.03.7-1.96,1.75-2.5.75-.37,1.52-.64,2.2-1.14.64-.46,1.21-1.01,1.89-1.42.64-.39,1.34-.56,2.05-.76.87-.24,1.65-.6,2.33-1.2.66-.58,1-1.29,1.4-2.05.36-.69,1.05-1.31,1.04-2.13s-.41-1.68-.54-2.5c-.12-.72-.19-1.45-.06-2.17.12-.69.44-1.41.97-1.88.48-.43,1.11-.56,1.65-.9.72-.44.73-1.38.97-2.11.13-.39.28-.77.42-1.16.12-.36.31-.76.26-1.17-.04-.36-.27-.66-.35-1.01-.1-.42-.02-.9-.32-1.25-.57-.66-1.7-.43-2.45-.33-.83.11-1.63-.02-2.46-.05-.77-.02-1.55.04-2.33-.02-.66-.05-1.29-.2-1.83-.59-.63-.46-1.14-1.13-1.61-1.74-.42-.54-.82-1.1-1.21-1.67-1.43.59-3.09.97-4.28,1.98-.57.49-1,1.14-1.58,1.62-.6.5-1.31.88-2.01,1.24-1.31.66-2.84.87-4.3.68-.85-.12-1.69-.35-2.55-.33-.87.02-1.68.34-2.56.28-.8-.05-1.5-.35-2.13-.83-.56-.42-1.07-.93-1.68-1.31-.7,1.26-1.34,2.57-1.8,3.94-.22.66-.46,1.35-.84,1.95-.39.59-.98,1.01-1.37,1.61Z"/></svg>