<?xml version="1.0" encoding="UTF-8"?><svg id="Tree_03_-_Leaves_04" xmlns="http://www.w3.org/2000/svg" viewBox="0 0 1160 418.25"><defs><style>.cls-1{fill:#c6d604;stroke-width:0px;}</style></defs><path class="cls-1" d="m146.58,206.55c-.36.49-.33,1-.25,1.58.07.49.15.98.17,1.48.02.42-.02.84,0,1.26.04.72.3,1.4.62,2.03.38.76.9,1.42,1.35,2.12.34.53.58,1.15,1.03,1.6,1.05,1.04,2.16-.15,3.24-.48.85-.25,1.73-.35,2.61-.43.86-.08,1.75-.11,2.53.29.78.39,1.38,1.09,1.85,1.81.35.55.64,1.14,1.1,1.6.39.38.87.66,1.42.53.6-.13,1.17-.56,1.69-.87.34-.2.7-.42,1.09-.5.44-.09.86.12,1.24.3.59.29,1.15.53,1.82.59.56.05,1.19.04,1.71-.19.53-.23,1-.78,1.28-1.27.16-.29.27-.59.3-.9.04-.4-.03-.8.06-1.19.02-.06.05-.13.06-.2.12-.31.29-.59.35-.93.05-.34.04-.68.08-1.01.22-.97.45-2.04-.05-2.88-.35-.59-1.18-.83-1.38-1.48-.11-.37-.12-.76-.25-1.13-.09-.31-.22-.61-.39-.88-.68-1.14-1.78-1.47-2.97-1.85-1.24-.41-2.52-1.24-2.86-2.57-.16-.66-.15-1.35-.36-2.02-.19-.57-.47-1.11-.88-1.55-.53-.56-1.24-.94-1.82-1.44-.56-.47-1.04-1.04-1.62-1.48-.48-.36-1.08-.73-1.71-.68-.53.05-1,.45-1.21.93-.28.61-.13,1.35-.49,1.92-.35.55-.97.92-1.37,1.44-.45.59-.76,1.29-1.27,1.82-.52.53-1.16.9-1.82,1.2-.66.29-1.36.49-2,.83-.59.31-1.14.7-1.63,1.16-.47.42-.95.92-1.32,1.44Zm.13,1.54c-.04-.38-.08-.75.09-1.1.12-.22.3-.4.47-.59.96-1.07,1.99-1.95,3.35-2.45,1.14-.42,2.29-.9,3.13-1.82.42-.46.67-1.04,1.01-1.56.37-.58.89-.94,1.34-1.44.34-.39.45-.83.51-1.32.09-.78.42-1.8,1.43-1.58.71.15,1.31.71,1.82,1.19.51.49,1,.97,1.57,1.38.59.44,1.18.83,1.56,1.48.36.61.52,1.31.59,2,.12,1.08.49,1.95,1.34,2.63.92.74,1.95.98,3.03,1.4.68.26,1.22.66,1.59,1.3.38.64.41,1.31.62,1.99.18.59.73.75,1.14,1.16.48.48.57,1.09.51,1.75-.08.88-.21,1.78-.4,2.67-.07.13-.14.27-.21.42-.15.29-.18.59-.19.91,0,.1,0,.19-.02.29v.02h0c-.04.31-.12.59-.27.87-.32.56-.84,1.1-1.49,1.24-.59.12-1.28.08-1.85-.11-.64-.22-1.22-.66-1.9-.73-1.25-.14-2.13,1.14-3.26,1.41-.74.19-1.29-.64-1.65-1.17-.36-.55-.73-1.08-1.17-1.57-.96-1.05-2.12-1.51-3.54-1.42-1.35.08-2.9.19-4.09.88-.63.36-1.31.84-1.98.23-.46-.42-.69-1.06-1.02-1.57-.9-1.39-2.01-2.58-1.97-4.35.02-.83,0-1.61-.08-2.43Z"/><path class="cls-1" d="m146.8,206.99c-.18.35-.13.72-.09,1.1.08.82.1,1.61.08,2.43-.04,1.77,1.07,2.96,1.97,4.35.33.51.56,1.15,1.02,1.57.66.61,1.34.13,1.98-.23,1.19-.69,2.74-.8,4.09-.88,1.41-.08,2.58.37,3.54,1.42.44.49.8,1.02,1.17,1.57.36.53.9,1.37,1.65,1.17,1.13-.28,2.01-1.55,3.26-1.41.68.08,1.26.52,1.9.73.56.19,1.26.22,1.85.11.65-.13,1.17-.67,1.49-1.24.15-.29.23-.56.27-.87h0v-.02c.02-.09.02-.19.02-.29.02-.32.04-.62.19-.91.07-.15.14-.29.21-.42.19-.89.32-1.79.4-2.67.06-.66-.03-1.27-.51-1.75-.4-.41-.96-.57-1.14-1.16-.21-.69-.24-1.35-.62-1.99-.37-.63-.91-1.04-1.59-1.3-1.07-.42-2.11-.66-3.03-1.4-.86-.69-1.23-1.55-1.34-2.63-.08-.7-.24-1.39-.59-2-.38-.66-.97-1.04-1.56-1.48-.56-.42-1.06-.89-1.57-1.38-.5-.48-1.1-1.04-1.82-1.19-1.01-.22-1.34.8-1.43,1.58-.06.49-.17.93-.51,1.32-.45.5-.97.87-1.34,1.44-.34.53-.59,1.1-1.01,1.56-.83.92-1.99,1.4-3.13,1.82-1.36.5-2.39,1.38-3.35,2.45-.17.19-.36.36-.47.59Z"/><path class="cls-1" d="m197.75,208.11c-.15.78.14,1.4.63,2,.29.36.65.73.67,1.21.02.51-.28,1.04-.48,1.49-.39.87-.59,1.67-.34,2.6.12.46.31.9.39,1.38.07.35.09.7.15,1.06.08.46.23.92.6,1.18.02.02.04.04.05.06.09.15.14.32.23.47.26.46.68.6,1.19.56.69-.06,1.38-.29,1.99-.62.68-.39,1.28-1.12,2.02-1.34,1.38-.41,2.52,1.11,3.58,1.72,1.28.74,2.8.33,4.22.33,1.59,0,3.14.44,4.73.45.66,0,1.32-.12,1.93-.38.38-.16.74-.33,1.14-.45.36-.11.73-.18,1.08-.32.62-.25,1.16-.63,1.58-1.14.44-.55.73-1.22,1.22-1.73.54-.57,1.28-.67,1.99-.91.67-.23,1.31-.55,1.93-.87.69-.36,1.37-.76,2.1-1,.63-.22,1.33-.25,1.95-.49.53-.22.93-.63,1.24-1.11.16-.27.31-.57.42-.87.12-.33.14-.69.31-1,.04-.07,0-.13-.04-.16.03-.29.03-.59-.02-.83-.17-.93-1.07-1.57-1.36-2.47-.32-1.05-.05-2.18.17-3.22.19-.97.3-1.79,0-2.75-.32-.99-.61-1.99-.84-3.01-.11-.49-.05-.98-.15-1.46-.08-.39-.33-.73-.62-1.01-.59-.58-1.3-.99-1.68-1.77-.19-.4-.29-.83-.49-1.24-.18-.36-.41-.7-.66-1-.46-.56-.97-1.21-1.71-1.36-.36-.07-.72-.07-1.08-.05-.19-.03-.38-.06-.56-.07-.28-.02-.55.02-.83.02-.63,0-1.24-.22-1.82-.46-.47-.19-.96-.47-1.47-.54s-.99.09-1.45.28c-1.04.4-1.99.55-2.9-.24-.46-.4-.87-1-1.53-1.08-.68-.08-1.28.42-1.77.82-.4.32-.8.64-1.29.8-.51.15-1.05.15-1.58.2-.84.09-1.62.39-2.22,1.01-.63.64-.75,1.5-1.27,2.19-.57.78-1.58,1.2-2.04,2.09-.15.29-.22.6-.22.93,0,.35.05.68-.19.91-.76.45-1.48,1.04-2.12,1.64-.7.67-1.05,1.36-1.34,2.27-.16.49-.36.97-.66,1.4-.25.39-.59.7-.81,1.1-.43.76-.54,1.66-.94,2.44-.39.76-.91,1.51-1.07,2.36Zm.8,1.48c-1.11-1.51.55-3.15.95-4.63.12-.45.22-.9.44-1.31.2-.39.5-.69.76-1.03.53-.66.78-1.43,1.05-2.22.27-.8.88-1.42,1.51-1.95.45-.39.96-.74,1.38-1.17,0,0,0,0,.02,0,.77-.19.55-1,.63-1.6.16-1.17,1.5-1.65,2.13-2.51.51-.7.7-1.55,1.32-2.17.4-.39.89-.65,1.43-.76.53-.11,1.08-.08,1.61-.15.79-.12,1.38-.57,1.97-1.07.34-.28.73-.63,1.17-.73s.78.16,1.08.44c.56.51,1.04,1.04,1.82,1.2.89.18,1.61-.25,2.43-.5,1.09-.33,2.05.42,3.07.72.44.13.89.2,1.35.15,0,0,.02,0,.03,0,.02.05.05.11.13.11.75,0,1.68-.23,2.37.15.37.19.69.61.96.93.3.36.57.74.77,1.17.33.71.45,1.42.97,2.02.51.59,1.42,1.01,1.68,1.78.15.45.05.97.16,1.43.09.43.22.86.33,1.28.12.47.24.94.39,1.41.15.46.34.93.37,1.41.06.93-.3,1.91-.44,2.84-.11.78-.12,1.62.19,2.37.31.76,1.05,1.33,1.29,2.12.15.49.07,1.04-.07,1.56-.03.09-.05.19-.09.29-.14.39-.36.76-.6,1.07-.53.68-1.14.8-1.95.97-1.48.32-2.72,1.14-4.08,1.77-1.14.52-2.46.59-3.27,1.63-.41.53-.7,1.16-1.16,1.65-.52.56-1.2.87-1.92,1.06-.66.17-1.25.49-1.89.73-.7.24-1.43.25-2.16.19-1.48-.14-2.9-.42-4.4-.39-.79.02-1.58.12-2.37.07-.67-.04-1.23-.33-1.77-.72-.87-.63-1.75-1.52-2.9-1.51-1.29.02-2.21,1.3-3.41,1.66-.45.14-1.13.38-1.58.14-.19-.09-.28-.25-.37-.42,0-.04-.02-.08-.06-.1t0,0c-.03-.05-.05-.1-.09-.15-.1-.14-.32-.31-.4-.49,0,0,0-.02-.02-.02-.02-.06-.04-.12-.03-.19.02-.06-.02-.11-.05-.14-.07-.39-.07-.8-.12-1.15-.15-1.02-.73-1.92-.43-2.97.23-.83.87-1.62.84-2.51-.02-.73-.58-1.2-.97-1.74Z"/><path class="cls-1" d="m199.5,204.96c-.4,1.48-2.06,3.11-.95,4.63.39.54.95,1.01.97,1.74.03.89-.61,1.68-.84,2.51-.3,1.06.28,1.95.43,2.97.05.35.05.76.12,1.15.03.03.06.08.05.14,0,.06,0,.12.03.19,0,0,0,.02.02.02.08.18.3.35.4.49.04.05.06.1.09.15t0,0s.06.06.06.1c.09.17.19.33.37.42.45.24,1.13,0,1.58-.14,1.2-.36,2.12-1.65,3.41-1.66,1.16-.02,2.03.88,2.9,1.51.54.39,1.1.68,1.77.72.79.05,1.58-.05,2.37-.07,1.5-.03,2.92.25,4.4.39.73.07,1.46.05,2.16-.19.64-.23,1.23-.56,1.89-.73.73-.19,1.41-.49,1.92-1.06.46-.49.75-1.12,1.16-1.65.81-1.04,2.13-1.11,3.27-1.63,1.36-.63,2.6-1.45,4.08-1.77.8-.18,1.41-.29,1.95-.97.25-.32.46-.69.6-1.07.04-.09.06-.19.09-.29.14-.52.22-1.07.07-1.56-.24-.8-.98-1.36-1.29-2.12-.31-.75-.3-1.59-.19-2.37.14-.93.5-1.9.44-2.84-.03-.49-.22-.96-.37-1.41-.15-.46-.27-.93-.39-1.41-.12-.42-.24-.85-.33-1.28-.11-.46-.02-.98-.16-1.43-.25-.76-1.17-1.19-1.68-1.78-.53-.6-.64-1.31-.97-2.02-.2-.42-.47-.81-.77-1.17-.27-.32-.59-.74-.96-.93-.7-.38-1.62-.15-2.37-.15-.08,0-.12-.05-.13-.11,0,0-.02,0-.03,0-.46.05-.91-.02-1.35-.15-1.02-.3-1.99-1.05-3.07-.72-.82.25-1.54.68-2.43.5-.78-.16-1.26-.69-1.82-1.2-.3-.28-.64-.53-1.08-.44s-.83.45-1.17.73c-.59.49-1.18.95-1.97,1.07-.53.08-1.08.05-1.61.15-.54.11-1.03.37-1.43.76-.63.62-.81,1.48-1.32,2.17-.63.87-1.97,1.34-2.13,2.51-.08.59.15,1.41-.63,1.6,0,0-.02,0-.02,0-.42.43-.93.79-1.38,1.17-.63.53-1.24,1.15-1.51,1.95-.27.8-.52,1.56-1.05,2.22-.26.34-.56.64-.76,1.03-.22.41-.32.86-.44,1.31Z"/><path class="cls-1" d="m187.37,144.11c-.36,1.24.53,2.26.52,3.45,0,.63-.12,1.27.02,1.89.12.56.42,1.09.71,1.58.56.95,1.28,1.77,2.34,2.17.62.24,1.27.38,1.95.38s1.38-.25,2.09-.2c.69.04,1.33.15,2.01,0,.71-.16,1.4-.42,2.12-.6.66-.16,1.32-.26,1.96-.53.66-.28,1.32-.54,2.01-.75.36-.12.74-.22,1.1-.35.29-.11.56-.34.87-.39.02,0,.04,0,.05,0,.38.08.76.15,1.14.22.22.07.44.13.66.15.04,0,.07-.02.09-.03.37.06.74.12,1.11.15.53.05,1.06.05,1.58-.02.56-.08,1.09-.3,1.65-.32.51-.02.94.19,1.41.35.48.17.98.25,1.48.32,1.08.14,2.2.25,3.24.63.87.31,1.45,1.01,1.98,1.75.43.6.91,1.03,1.6,1.33s1.44.49,2.07.92c.73.5.74,1.27,1.04,2.02.24.59.64,1.07,1.24,1.32.87.37,1.82.18,2.73.36.86.18,1.41.85,2.09,1.33.78.56,1.62,1.04,2.4,1.59.78.56,1.58,1.19,1.82,2.17.2.83.23,1.61.8,2.28.53.63,1.3,1,1.91,1.54.65.56,1.22,1.24,2.01,1.62,1.47.7,3.18.32,4.46-.62.67-.49,1.18-1.14,1.65-1.82.22-.32.41-.7.63-1.07.02.05.09.09.14.04.74-.87,1.86-1.76,1.99-2.97.08-.8-.29-1.52-.53-2.26-.32-.97-.13-1.91-.22-2.9-.14-1.49-1-2.79-1.83-3.99-.47-.68-.89-1.39-1.24-2.14-.36-.76-.71-1.57-.74-2.43-.03-.84-.1-1.67-.16-2.5-.06-.85-.03-1.69-.03-2.54,0-1.2-.15-2.55-.57-3.68-.15-.42-.38-.83-.75-1.11-.46-.36-1.04-.36-1.6-.44-.87-.11-1.8-.21-2.5-.8-.53-.44-.93-.99-1.49-1.39-1.14-.83-2.54-1.04-3.91-1.19-.86-.09-1.48-.36-1.87-1.19-.3-.65-.58-1.36-.79-2.05,0-.44.05-.89.06-1.36.03-.81.08-1.72-.48-2.39-.48-.58-1.32-.56-1.81-1.13-.44-.53-.76-1.14-1.14-1.71-.6-.91-1.44-1.99-2.63-2.02-.76-.03-1.42.41-2.09.7-.8.36-1.68.47-2.53.65-.9.19-1.81.4-2.72.54-.75.12-1.57.08-2.29.34-.65.23-1.1.7-1.57,1.17-.29.28-.59.53-1.01.56-.44.05-.91-.05-1.35-.13-.82-.17-1.65-.41-2.5-.34-.81.07-1.49.49-2.27.65-.95.19-1.96-.11-2.93-.05-.76.05-1.51.18-2.24.38-.74.2-1.46.48-2.12.86-.66.39-.98.98-1.5,1.51-.87.9-3.06.49-3.31,2.05,0,.05,0,.08.02.12-.49,1.24-.53,2.65-1.27,3.82-.39.63-1.02,1.04-1.48,1.61-.46.6-.67,1.35-1.07,1.99-.66,1.05-1.88,1.7-2.25,2.94Zm.75,2.25c-.22-.56-.46-1.14-.4-1.76.06-.67.47-1.22.92-1.69.42-.43.87-.83,1.23-1.32.39-.53.6-1.16.93-1.73.32-.56.82-.93,1.26-1.4.39-.41.67-.87.89-1.38.44-1.07.56-2.21.86-3.31,0-.02,0-.02.02-.02.23-.89,1.39-.97,2.12-1.18.77-.21,1.18-.68,1.67-1.28.56-.7,1.37-1.05,2.2-1.34.82-.29,1.69-.48,2.56-.55.89-.08,1.75.08,2.63.08.8,0,1.45-.36,2.2-.58.87-.25,1.75-.05,2.61.14.69.15,1.51.36,2.21.16.58-.17.97-.64,1.39-1.05.55-.53,1.14-.76,1.89-.83,1.71-.17,3.38-.55,5.08-.9.7-.14,1.37-.36,2.01-.67.73-.36,1.44-.66,2.19-.2,1.01.61,1.51,1.85,2.14,2.8.29.45.61.89,1.1,1.12.28.14.59.2.87.37.39.24.52.71.56,1.15.12,1.05-.1,2.32.36,3.3.15.46.33.9.53,1.31.3.63.77,1.14,1.46,1.33.76.21,1.57.19,2.33.35.8.16,1.57.43,2.22.91.58.42,1,1,1.57,1.44.55.42,1.2.57,1.88.68.65.11,1.52.03,2.08.42.42.3.63.84.76,1.33.37,1.36.43,2.74.42,4.14,0,.85.06,1.69.15,2.54.07.73.02,1.48.15,2.2.29,1.47,1.16,2.94,2.01,4.14.92,1.31,1.76,2.7,1.75,4.35,0,.8-.05,1.53.19,2.3.22.7.63,1.41.56,2.17-.07.81-.64,1.4-1.15,2.02-.59.25-.97.93-1.33,1.43-.64.86-1.23,1.71-2.17,2.27-.87.53-1.92.8-2.94.57-1.07-.23-1.74-1.03-2.51-1.72-.6-.55-1.38-.92-1.92-1.54-.65-.74-.53-1.71-.89-2.56-.3-.73-.92-1.27-1.54-1.72-.73-.55-1.51-1.02-2.28-1.51-.7-.45-1.33-1.06-2.09-1.41-.73-.34-1.51-.29-2.3-.36-1.02-.1-1.73-.54-2.05-1.52-.23-.68-.33-1.31-.89-1.8-1.13-1-2.77-1.06-3.68-2.33-.45-.62-.9-1.24-1.55-1.66-.73-.49-1.65-.65-2.5-.79-.91-.16-1.86-.19-2.76-.45-.76-.22-1.4-.54-2.22-.4-.56.09-1.08.27-1.65.3-.47.02-.95,0-1.42-.05-.59-.07-1.19-.16-1.78-.26-.33-.14-.68-.25-1.06-.2-.05,0-.08.02-.13.03-.02,0-.02,0-.04,0-.07,0-.13.02-.17.08-.15.06-.29.15-.44.22-.32.18-.7.26-1.04.38-.73.24-1.45.51-2.16.81-.7.29-1.41.41-2.13.59-.71.18-1.4.46-2.11.63-.67.15-1.29,0-1.97-.02-.67-.03-1.32.21-2,.21-.7,0-1.42-.19-2.05-.5-1.01-.52-1.73-1.6-2.19-2.6-.53-1.19.02-2.47-.46-3.66Z"/><path class="cls-1" d="m187.72,144.6c-.06.62.18,1.2.4,1.76.49,1.19-.07,2.47.46,3.66.46,1,1.17,2.09,2.19,2.6.63.31,1.35.49,2.05.5.68,0,1.33-.24,2-.21.68.02,1.3.18,1.97.02.71-.17,1.4-.45,2.11-.63.73-.19,1.43-.3,2.13-.59.71-.3,1.43-.57,2.16-.81.35-.12.72-.2,1.04-.38.15-.08.29-.16.44-.22.04-.05.1-.08.17-.08.02,0,.02,0,.04,0,.05-.02.08-.02.13-.03.38-.05.73.06,1.06.2.59.1,1.18.19,1.78.26.47.05.95.08,1.42.05.57-.03,1.1-.21,1.65-.3.82-.14,1.45.18,2.22.4.9.25,1.85.29,2.76.45.85.14,1.78.3,2.5.79.64.42,1.1,1.04,1.55,1.66.91,1.27,2.55,1.32,3.68,2.33.56.49.66,1.12.89,1.8.32.98,1.04,1.42,2.05,1.52.79.08,1.58.02,2.3.36.76.36,1.38.97,2.09,1.41.77.49,1.55.96,2.28,1.51.62.46,1.24,1,1.54,1.72.36.86.24,1.82.89,2.56.54.62,1.31.99,1.92,1.54.77.7,1.44,1.49,2.51,1.72,1.01.22,2.06-.05,2.94-.57.94-.56,1.53-1.41,2.17-2.27.36-.49.74-1.17,1.33-1.43.51-.62,1.08-1.21,1.15-2.02.06-.76-.34-1.47-.56-2.17-.24-.77-.19-1.5-.19-2.3,0-1.65-.83-3.04-1.75-4.35-.85-1.21-1.72-2.67-2.01-4.14-.14-.72-.08-1.48-.15-2.2-.08-.85-.15-1.69-.15-2.54.02-1.4-.05-2.78-.42-4.14-.14-.49-.34-1.03-.76-1.33-.56-.39-1.43-.32-2.08-.42-.68-.11-1.33-.25-1.88-.68-.56-.44-.99-1.03-1.57-1.44-.66-.48-1.43-.75-2.22-.91-.76-.15-1.58-.14-2.33-.35-.69-.19-1.16-.7-1.46-1.33-.2-.42-.38-.86-.53-1.31-.46-.98-.24-2.25-.36-3.3-.05-.44-.17-.91-.56-1.15-.27-.17-.59-.23-.87-.37-.49-.23-.81-.67-1.1-1.12-.63-.95-1.13-2.19-2.14-2.8-.74-.46-1.46-.16-2.19.2-.64.32-1.31.53-2.01.67-1.69.35-3.36.73-5.08.9-.76.08-1.34.3-1.89.83-.42.41-.81.88-1.39,1.05-.7.2-1.52-.02-2.21-.16-.87-.19-1.74-.39-2.61-.14-.75.22-1.41.57-2.2.58-.88,0-1.74-.16-2.63-.08-.87.07-1.74.26-2.56.55-.83.29-1.65.64-2.2,1.34-.49.6-.9,1.07-1.67,1.28-.73.21-1.89.29-2.12,1.18,0,0-.02,0-.02.02-.3,1.1-.42,2.23-.86,3.31-.22.51-.5.97-.89,1.38-.44.46-.93.83-1.26,1.4-.32.57-.54,1.2-.93,1.73-.36.49-.81.89-1.23,1.32-.45.47-.86,1.02-.92,1.69Z"/><path class="cls-1" d="m144.14,136.37c-.23,1.07.6,1.89.73,2.9.1.83.05,1.75.53,2.49.36.55.95.76,1.59.73.86-.04,1.55-.4,2.31-.76.52-.25,1.02-.4,1.6-.32.45.07.85.13,1.31.07,1.04-.16,1.92-.6,2.84-1.1.53-.29,1.11-.55,1.61-.04.28.27.46.64.73.93.6.63,1.36,1.22,2.23,1.41.81.17,1.43-.25,2.17-.49.95-.3,1.42.32,2.08.87.64.53,1.36.53,2.16.57.66.03,1.23.17,1.82.47.41.22.8.45,1.22.63.44.18.9.28,1.38.22.4-.05.78-.19,1.17-.25.98-.18,1.99.41,2.95,0,.76-.31,1.14-1.07,1.66-1.65,1.16-1.29,2.71-2.67,3.12-4.43.29-.57.51-1.17.57-1.83.1-1.1-.23-2-.83-2.9-.34-.51-.63-1.01-.83-1.6-.18-.54-.28-1.1-.46-1.65-.34-.93-.93-1.64-1.74-2.19-.39-.26-.8-.52-1.07-.9-.24-.33-.38-.73-.6-1.08-.46-.7-1.03-1.12-1.86-1.25-.53-.08-1.07-.08-1.6-.08-.52,0-.97-.13-1.47-.22-.9-.16-1.35.42-2.09.8-.46.24-1.12.22-1.5-.17-.27-.29-.29-.75-.36-1.11-.06-.39-.15-.78-.34-1.12-.19-.32-.51-.46-.73-.73-.2-.25-.17-.64-.29-.93-.09-.24-.23-.46-.41-.66-.41-.43-1-.66-1.57-.77-1.4-.29-2.82.03-4.22-.2-.85-.15-1.63-.12-2.27.51-.28.27-.49.6-.79.85-.43.35-.96.39-1.48.29-.9-.18-1.66-.42-2.54.02-.83.42-1.48,1.15-2.05,1.87-.56.71-1.32,1.28-1.82,2.05-.23.36-.39.77-.46,1.21-.02.12-.03.23-.05.34h0c-.14.26-.22.53-.29.81-.02.05-.03.08-.03.12-.05.24-.12.47-.22.7-.19.43-.32.83-.25,1.31.08.66.22,1.25.19,1.92-.04.55-.08,1.14-.27,1.65-.34.98-1.24,1.7-1.46,2.73Zm.67,1.44c-.23-.49-.39-.95-.22-1.48.15-.44.43-.84.7-1.22.49-.73.82-1.41.99-2.29.18-.9.17-1.75,0-2.65-.11-.61.13-1,.34-1.55.07-.2.1-.4.12-.6.18-.27.26-.53.31-.87.06-.52.2-.97.51-1.39.3-.41.71-.71,1.06-1.08.36-.38.66-.81,1-1.21.7-.82,1.63-1.65,2.78-1.45.89.15,1.76.47,2.6-.08.6-.39.9-1.19,1.6-1.44.54-.19,1.14-.02,1.69.05.35.05.68.05,1.03.02,1.18-.09,2.63-.26,3.7.37.62.36.73.87.89,1.51.06.25.19.38.39.53.38.3.61.58.71,1.07.14.62.05,1.36.56,1.83.47.45,1.24.53,1.81.27.37-.17.66-.46,1-.68.49-.32.91-.23,1.45-.12.96.21,1.95-.04,2.9.21,1.02.26,1.29,1.07,1.74,1.91.36.69,1.02,1.03,1.61,1.48.8.63,1.19,1.51,1.44,2.48.23.92.52,1.75,1.05,2.54.57.87.93,1.66.87,2.73-.05,1-.49,1.92-.94,2.8-.02.04-.02.08,0,.11-.31.5-.65.99-1.04,1.44-.64.75-1.4,1.4-2.02,2.16-.28.33-.56.71-.94.92-.59.31-1.24.12-1.86.02-.49-.07-.94-.05-1.42.06-.51.12-.98.28-1.51.17-.93-.2-1.7-.88-2.63-1.12-.86-.22-1.92.05-2.69-.42-.55-.33-.9-.9-1.51-1.14-.7-.27-1.34.02-1.99.29-.44.18-.86.28-1.32.14-.46-.14-.87-.4-1.23-.71-.35-.29-.68-.61-.94-.97-.19-.25-.38-.53-.65-.7-.71-.47-1.41-.15-2.07.22-.92.51-1.95,1.04-3.04,1-.5-.02-.97-.18-1.48-.11-.34.05-.66.16-.97.3-.79.36-1.51.82-2.41.8-.97-.02-1.25-.9-1.35-1.73-.05-.45-.08-.9-.19-1.34-.09-.39-.29-.73-.46-1.08Z"/><path class="cls-1" d="m144.6,136.34c-.17.53-.02,1,.22,1.48.17.36.36.7.46,1.08.12.44.14.89.19,1.34.1.83.38,1.71,1.35,1.73.9.02,1.62-.44,2.41-.8.31-.14.63-.25.97-.3.51-.07.97.09,1.48.11,1.09.04,2.12-.49,3.04-1,.66-.36,1.36-.69,2.07-.22.27.18.46.45.65.7.26.36.59.69.94.97.36.31.77.57,1.23.71.46.14.88.04,1.32-.14.65-.26,1.29-.56,1.99-.29.61.23.96.8,1.51,1.14.76.47,1.83.2,2.69.42.93.24,1.69.92,2.63,1.12.53.11,1-.05,1.51-.17.48-.11.93-.13,1.42-.06.62.09,1.27.29,1.86-.02.39-.21.66-.59.94-.92.62-.76,1.38-1.41,2.02-2.16.39-.46.73-.94,1.04-1.44-.02-.03-.03-.07,0-.11.45-.89.89-1.8.94-2.8.05-1.07-.3-1.86-.87-2.73-.53-.8-.82-1.62-1.05-2.54-.25-.97-.63-1.85-1.44-2.48-.59-.46-1.25-.8-1.61-1.48-.45-.83-.72-1.65-1.74-1.91-.96-.25-1.95,0-2.9-.21-.54-.12-.96-.21-1.45.12-.34.22-.63.51-1,.68-.57.26-1.34.18-1.81-.27-.5-.47-.42-1.21-.56-1.83-.1-.49-.33-.76-.71-1.07-.2-.15-.33-.29-.39-.53-.16-.64-.27-1.14-.89-1.51-1.07-.63-2.52-.46-3.7-.37-.35.02-.68.02-1.03-.02-.55-.07-1.15-.25-1.69-.05-.7.25-1,1.05-1.6,1.44-.83.56-1.71.24-2.6.08-1.15-.19-2.08.63-2.78,1.45-.34.4-.64.83-1,1.21-.35.37-.76.67-1.06,1.08-.31.42-.45.87-.51,1.39-.05.34-.13.6-.31.87-.02.2-.05.4-.12.6-.21.55-.45.94-.34,1.55.16.9.17,1.75,0,2.65-.17.88-.49,1.55-.99,2.29-.26.38-.55.78-.7,1.22Z"/><path class="cls-1" d="m94.7,159.46c-.02.72.05,1.44.03,2.17-.02.64,0,1.31.25,1.91.27.63.8,1.09,1.1,1.7.33.65.33,1.41.66,2.07.28.56.78.95,1.32,1.24.61.33,1.25.56,1.84.94.56.37,1.08.73,1.75.9,1.22.33,2.55.15,3.62-.53.64-.4,1.23-.88,1.86-1.28.59-.37,1.04-1,1.7-1.24.7-.26,1.48-.11,2.13-.52.53-.33.8-.88,1.05-1.43.58-1.23,1.24-2.42,2.62-2.87.72-.24,1.41-.39,2.07-.8.62-.39,1.24-.86,1.77-1.35.46-.42.87-.9,1.27-1.38.08.02.19,0,.2-.11,0-.07.03-.14.06-.2,0,0,0-.02.02-.02.2-.25.4-.49.57-.76.18-.19.35-.39.44-.61.43-1.03,0-2.37-.84-3.07-.38-.32-.83-.53-1.31-.7-.68-.23-1.34-.24-2.05-.33-.66-.08-1.19-.59-1.87-.57-.56,0-1.09.26-1.61.42-.76.22-1.27.11-1.67-.63-.32-.59-.61-1.09-1.23-1.39-.55-.28-1.16-.23-1.72-.45-.51-.19-.78-.64-1.07-1.08-.64-.97-1.51-1.35-2.68-1.31-1.22.04-2.49.32-3.68.56-1.06.21-2.03.75-2.36,1.85-.11.38-.08.77-.13,1.16-.05.45-.25.82-.49,1.18-.41.63-.9,1.19-1.33,1.81-.39.56-.41,1.07-.42,1.72-.02.79-.63.97-1.17,1.39-.49.39-.71.96-.73,1.58Zm.63,2.09c.03-.7-.06-1.4-.03-2.09.03-.8.47-1.08,1.07-1.49.43-.29.75-.64.81-1.17.07-.64-.04-1.15.36-1.72.39-.56.83-1.09,1.23-1.65.41-.6.64-1.16.69-1.88.04-.68.19-1.31.78-1.71.83-.58,2.05-.63,3.01-.81,1.11-.22,2.69-.59,3.59.32.61.62.89,1.46,1.78,1.77.57.19,1.19.14,1.73.44.66.38.78,1.06,1.24,1.6.7.84,1.69.44,2.56.15.29-.09.59-.19.89-.19.35,0,.65.19.95.32.59.28,1.18.25,1.82.32,1.13.13,2.39.69,2.79,1.82.16.43.22.9.12,1.34-.34.58-.88,1.08-1.31,1.61-.92,1.11-1.95,2.07-3.18,2.84-.64.4-1.35.5-2.04.78-.51.2-.97.52-1.35.92-.38.41-.67.89-.93,1.38-.27.52-.47,1.11-.83,1.58-.5.65-1.29.57-2.02.72-.59.12-1.04.45-1.48.83-.53.46-1.14.81-1.7,1.23-.56.41-1.12.83-1.79,1.04-1.34.41-2.57.08-3.7-.67-.53-.36-1.07-.63-1.65-.89-.59-.27-1.21-.63-1.5-1.24-.29-.61-.3-1.32-.59-1.94-.25-.56-.68-.98-.99-1.51-.36-.6-.34-1.34-.32-2.02Z"/><path class="cls-1" d="m95.31,159.46c-.03.7.06,1.39.03,2.09-.02.68-.05,1.42.32,2.02.31.53.73.95.99,1.51.29.62.29,1.33.59,1.94.29.62.9.97,1.5,1.24.57.26,1.12.53,1.65.89,1.13.75,2.36,1.08,3.7.67.67-.21,1.23-.63,1.79-1.04.56-.42,1.17-.76,1.7-1.23.44-.39.88-.72,1.48-.83.73-.15,1.51-.07,2.02-.72.36-.46.56-1.06.83-1.58.26-.49.56-.97.93-1.38.38-.4.84-.72,1.35-.92.69-.28,1.4-.38,2.04-.78,1.23-.76,2.26-1.72,3.18-2.84.43-.53.97-1.03,1.31-1.61.09-.44.04-.91-.12-1.34-.4-1.14-1.66-1.69-2.79-1.82-.63-.07-1.23-.04-1.82-.32-.3-.14-.6-.32-.95-.32-.3,0-.6.09-.89.19-.87.29-1.86.7-2.56-.15-.46-.54-.57-1.22-1.24-1.6-.54-.3-1.16-.25-1.73-.44-.89-.31-1.17-1.15-1.78-1.77-.9-.9-2.48-.53-3.59-.32-.97.19-2.19.23-3.01.81-.59.4-.74,1.03-.78,1.71-.05.73-.28,1.28-.69,1.88-.39.56-.84,1.09-1.23,1.65-.39.57-.29,1.08-.36,1.72-.06.53-.38.88-.81,1.17-.59.41-1.04.69-1.07,1.49Z"/><path class="cls-1" d="m99.28,205.41c-.9,1.28-.31,2.52.49,3.65.97,1.39,1.75,2.93,2.09,4.6.15.7.24,1.38.83,1.86.55.44,1.24.63,1.84.98.66.39,1.32.94,2.1,1.05.87.12,1.61-.35,2.44-.4.56-.03.77.3.87.81.09.53.1,1.08.19,1.62.11.69.25,1.38.59,2,.35.63.89.87,1.38,1.34.47.44.49,1.16.58,1.75s.32,1.03.84,1.34c.53.33,1.15.47,1.74.68.72.25,1.19.64,1.58,1.29.49.79,1.16,1.98,2.19,2.08,1.44.15,1.68-1.74,2.43-2.54,1.07-1.14,2.31-2.05,3.45-3.11.49-.46.95-.98,1.21-1.61.27-.62.32-1.31.4-1.97.11-.85.31-1.58.89-2.24.22-.25.46-.49.66-.76.22-.29.36-.62.53-.94.34-.66.81-.99,1.55-.87.52.08,1.04.26,1.56.26,1.3,0,1.32-1.27,1.21-2.26-.08-.68-.11-1.33-.38-1.96-.35-.84-.65-1.68-.97-2.53-.31-.79-.81-1.48-1.07-2.29-.18-.55-.28-1.15-.3-1.72-.02-.44.02-1.04.46-1.27.6-.31,1.17.22,1.78.12.34-.05.55-.32.86-.44.39-.15.8-.15,1.21-.15.62,0,1.3.11,1.85-.22.56-.33.63-.95,1.04-1.39.53-.55,1.51-.35,2.13-.14.7.22,1.36.59,1.94,1.04.44.36.87.76,1.41.97,1.33.52,1.88-.98,2.51-1.82.48-.64,1.03-1.23,1.48-1.89.42-.62.63-1.25.73-1.99.11-.85.19-1.67.43-2.5.22-.76.47-1.55.44-2.36-.02-.22-.06-.42-.12-.63.05-.08.05-.19-.04-.26-.05-.05-.1-.11-.15-.15-.12-.19-.25-.36-.42-.53-.19-.17-.39-.32-.59-.48-.16-.17-.32-.35-.48-.53-.51-.59-.84-1.29-1.22-1.97-.42-.74-.85-1.53-.93-2.39-.05-.6,0-1.19-.31-1.73-.54-.91-1.68-.87-2.57-.63-.79.21-1.53.68-2.36.58-.35-.04-.63,0-.93.17-.28.16-.49.32-.81.36-.6.1-1.25.16-1.69-.32-.38-.42-.63-.93-1.1-1.26-1.19-.8-2.73.02-3.75.72-.58.4-1.08.84-1.48,1.43-.29.43-.56,1.3-1.08,1.49-.25.09-.59.05-.87.05-.41,0-.81.02-1.22.06-.84.09-1.67.26-2.51.38-1.61.23-3.55-.14-5.01.76-1.07.67-1.62,1.91-2.6,2.7-1.21.97-2.55,1.68-3.47,2.96-.81,1.13-1.54,2.49-1.78,3.88-.23,1.33-.77,2.39-2.01,3.04-.59.31-1.37.69-2.04.72-.62.02-1.07-.62-1.65-.79-1.1-.31-2.52.03-3.39.75-.56.46-.81,1.15-1.16,1.77-.38.66-.99,1.14-1.43,1.76Zm.21,1.99c-.28-.83.11-1.54.66-2.14.49-.53.92-1.03,1.24-1.68.33-.66.65-1.23,1.33-1.58.57-.29,1.25-.43,1.89-.39.32.02.63.09.91.27.25.16.47.37.76.5.54.24,1.13.08,1.67-.11.59-.19,1.2-.42,1.72-.76,1-.63,1.58-1.65,1.82-2.79.14-.67.26-1.31.53-1.93.29-.67.66-1.31,1.08-1.91.9-1.3,2.21-2.02,3.43-2.96.51-.39.93-.83,1.33-1.34.37-.48.74-.99,1.25-1.33.69-.46,1.57-.53,2.37-.57.87-.05,1.74-.06,2.6-.19.83-.12,1.66-.29,2.5-.37.63-.05,1.32.05,1.93-.11.48-.12.76-.5,1-.91.38-.64.72-1.29,1.3-1.77.93-.77,2.76-2,3.85-.87.38.39.61.9,1.05,1.22.45.32,1.03.3,1.55.25.24-.02.49-.05.73-.12.28-.1.49-.32.76-.42.34-.12.76.04,1.13-.03.39-.06.76-.21,1.13-.35.9-.33,2.45-.83,2.8.46.19.68.07,1.39.29,2.07.23.7.6,1.33.96,1.97s.68,1.26,1.16,1.82c.44.51.95.92,1.45,1.34.19.33.27.69.25,1.14-.04.84-.36,1.64-.57,2.44-.2.76-.19,1.55-.33,2.32-.27,1.59-1.63,2.61-2.46,3.92-.32.51-.69,1.35-1.44,1.12-.55-.17-1-.64-1.44-.98-.95-.73-2.28-1.4-3.51-1.29-.52.05-1,.25-1.3.7-.16.24-.25.53-.42.76-.26.36-.63.49-1.07.5-.66.02-1.34-.1-2,.08-.32.08-.53.24-.81.4-.35.2-.68-.02-1.04-.08-2.61-.53-1.78,3.26-1.2,4.52.37.79.74,1.54,1.02,2.36.25.76.7,1.49.88,2.27.14.64.21,1.43.19,2.09-.02.65-.4.84-1,.77-1.03-.12-2.05-.62-2.87.29-.46.5-.63,1.17-1.07,1.69-.43.5-.9.94-1.16,1.57-.56,1.35-.21,2.9-1.2,4.08-.88,1.05-2.1,1.83-3.12,2.73-.58.52-1.23,1.04-1.58,1.75-.26.53-.47,1.45-1.14,1.59-.51.11-.97-.42-1.27-.76-.36-.41-.63-.88-.97-1.31-.82-1.06-2.06-1.07-3.16-1.66-.73-.39-.73-.99-.86-1.71-.09-.49-.22-.96-.56-1.33-.24-.26-.56-.42-.8-.67s-.43-.53-.57-.83c-.3-.64-.41-1.38-.49-2.08-.08-.76,0-1.93-.83-2.33-.49-.24-1.07-.08-1.55.05-.46.12-.93.29-1.41.24-.46-.05-.86-.29-1.24-.53-.63-.39-1.25-.72-1.91-1.05-.34-.17-.7-.37-.9-.72-.19-.32-.22-.72-.29-1.07-.27-1.59-1-3.14-1.89-4.47-.39-.57-.88-1.12-1.1-1.78Z"/><path class="cls-1" d="m100.14,205.26c-.55.6-.93,1.31-.66,2.14.22.66.71,1.21,1.1,1.78.89,1.33,1.62,2.88,1.89,4.47.07.36.1.75.29,1.07.2.35.56.55.9.72.66.33,1.28.66,1.91,1.05.38.24.78.49,1.24.53.48.05.95-.12,1.41-.24.49-.13,1.07-.29,1.55-.05.83.39.74,1.57.83,2.33.08.7.19,1.44.49,2.08.14.31.33.59.57.83s.56.41.8.67c.35.37.47.83.56,1.33.13.73.13,1.32.86,1.71,1.1.59,2.34.6,3.16,1.66.33.43.61.9.97,1.31.29.34.76.87,1.27.76.67-.14.88-1.07,1.14-1.59.35-.7,1-1.23,1.58-1.75,1.02-.9,2.24-1.68,3.12-2.73.99-1.18.64-2.73,1.2-4.08.26-.63.73-1.07,1.16-1.57.44-.52.61-1.19,1.07-1.69.83-.91,1.85-.42,2.87-.29.6.07.98-.12,1-.77.02-.66-.05-1.44-.19-2.09-.18-.78-.63-1.51-.88-2.27-.28-.83-.65-1.58-1.02-2.36-.59-1.26-1.41-5.05,1.2-4.52.36.07.7.29,1.04.08.28-.16.49-.32.81-.4.66-.18,1.34-.06,2-.08.43-.02.8-.14,1.07-.5.17-.24.26-.53.42-.76.29-.45.78-.65,1.3-.7,1.24-.11,2.56.56,3.51,1.29.45.34.9.81,1.44.98.75.23,1.11-.61,1.44-1.12.83-1.31,2.19-2.33,2.46-3.92.14-.77.13-1.55.33-2.32.21-.8.53-1.6.57-2.44.02-.46-.06-.81-.25-1.14-.5-.42-1.01-.83-1.45-1.34-.48-.56-.8-1.17-1.16-1.82s-.73-1.27-.96-1.97c-.22-.68-.11-1.39-.29-2.07-.36-1.29-1.91-.8-2.8-.46-.37.14-.74.29-1.13.35-.37.07-.79-.09-1.13.03-.28.1-.49.32-.76.42-.24.08-.49.1-.73.12-.53.05-1.1.08-1.55-.25-.44-.32-.67-.83-1.05-1.22-1.09-1.14-2.91.09-3.85.87-.58.48-.92,1.13-1.3,1.77-.24.41-.52.79-1,.91-.61.16-1.31.05-1.93.11-.84.08-1.67.25-2.5.37-.86.13-1.72.15-2.6.19-.8.05-1.68.12-2.37.57-.51.34-.88.85-1.25,1.33-.4.5-.82.94-1.33,1.34-1.22.94-2.53,1.66-3.43,2.96-.42.59-.79,1.24-1.08,1.91-.27.63-.39,1.26-.53,1.93-.23,1.14-.81,2.16-1.82,2.79-.53.33-1.14.56-1.72.76-.54.19-1.13.35-1.67.11-.29-.13-.5-.34-.76-.5-.28-.18-.59-.25-.91-.27-.64-.04-1.32.11-1.89.39-.68.35-1,.92-1.33,1.58-.32.65-.76,1.14-1.24,1.68Z"/></svg>