<?xml version="1.0" encoding="UTF-8"?><svg id="Tree_04_-_Leaves_01" xmlns="http://www.w3.org/2000/svg" viewBox="0 0 1160 418.25"><defs><style>.cls-1{fill:#8fb223;stroke-width:0px;}</style></defs><path class="cls-1" d="m982.21,135.07c.38.27.93.72.72,1.26-.24.61-1.15,1.09-1.7,1.39-1.37.76-2.88,1.41-3.72,2.81-.44.74-.57,1.62-1.03,2.35-.42.67-1.05,1.15-1.67,1.64-1.12.91-2.55,1.6-3.41,2.79-.55.77-.51,1.54-.46,2.44.05.8.14,1.59.21,2.37.12.07.19.21.13.38-.03.05-.05.11-.07.16,0,.03,0,.06,0,.09-.16.37-.7.38-1.04.39-.52.03-1.05-.02-1.58-.06-.58-.05-1.15-.15-1.7-.31-.57-.17-1.09-.46-1.66-.63-.98-.31-2.08-.05-3.02-.45-.86-.37-1.1-1.22-1.61-1.91-.13,0-.22-.1-.19-.22,0,0-.02-.03-.03-.04-.05-.05,0-.11.06-.09,0,0,.02.02.04.03t0-.02c.49-.32.89-.75,1.41-1.04.52-.29,1.04-.57,1.54-.9.98-.68,1.92-1.44,2.85-2.18.98-.78,1.61-1.61,1.67-2.91.03-.54-.02-1.08,0-1.61,0-.57,0-1.14-.05-1.7-.04-.04-.08-.07-.09-.15,0-.04,0-.07,0-.11s0-.06,0-.1c.43-1.29.82-2.65,1.42-3.88.5-1.03,1.53-2.39,2.8-2.46.6-.03.83.49,1.29.73.8.41,1.65-.21,2.45-.22.36,0,.56.17.87.3.45.18.82-.05,1.18-.32.51-.37,1.02-.85,1.7-.67.66.17.99.77,1.26,1.34.15.31.29.62.54.86.27.26.6.41.91.62Zm-.66,1.8c.3-.2.98-.56.74-.99-.12-.22-.49-.4-.71-.53-.51-.32-.91-.66-1.19-1.21-.33-.66-.7-1.72-1.65-1.2-.59.32-1.03.91-1.75.96-.22.02-.4-.03-.6-.14-.16-.08-.3-.21-.49-.26-.23-.04-.42.05-.62.11-.64.17-1.43.36-2.08.11-.51-.19-.78-.85-1.38-.67-1.16.35-1.84,1.61-2.25,2.66-.39,1.01-.58,2.08-.96,3.08,0,.04.03.05.03.08.05.68,0,1.35-.05,2.03-.04.63-.03,1.26-.1,1.89-.14,1.1-.64,1.95-1.48,2.65-.95.79-1.98,1.52-3,2.23-.58.4-1.18.73-1.81,1.06-.51.27-.93.65-1.41.96.16.16.31.35.45.55.33.46.67.85,1.22,1.04.44.15.92.13,1.37.13.49,0,.97.06,1.44.2.54.16,1.04.42,1.59.6.56.18,1.14.26,1.73.28.47.02.94.05,1.41.02.15,0,.3-.04.46-.06-.05-.93-.11-1.85-.16-2.79-.05-.8-.07-1.55.32-2.27.71-1.28,2.07-2.02,3.22-2.84.62-.45,1.29-.93,1.81-1.51.57-.61.75-1.38,1.07-2.14.54-1.26,1.57-2.16,2.73-2.84.7-.41,1.45-.72,2.11-1.18Z"/><path class="cls-1" d="m982.3,135.88c.24.43-.44.79-.74.99-.66.46-1.41.77-2.11,1.18-1.16.68-2.19,1.58-2.73,2.84-.32.75-.5,1.52-1.07,2.14-.51.58-1.18,1.06-1.81,1.51-1.15.82-2.51,1.56-3.22,2.84-.39.72-.37,1.48-.32,2.27.05.93.12,1.86.16,2.79-.16.03-.31.05-.46.06-.47.03-.94,0-1.41-.02-.6-.03-1.17-.1-1.73-.28-.54-.17-1.04-.44-1.59-.6-.47-.14-.95-.21-1.44-.2-.46,0-.93.02-1.37-.13-.55-.18-.89-.58-1.22-1.04-.14-.2-.28-.38-.45-.55.48-.31.9-.69,1.41-.96.62-.33,1.23-.66,1.81-1.06,1.02-.71,2.04-1.44,3-2.23.84-.7,1.35-1.55,1.48-2.65.07-.62.06-1.26.1-1.89.05-.68.1-1.35.05-2.03,0-.03-.02-.05-.03-.08.38-1,.57-2.07.96-3.08.41-1.04,1.09-2.31,2.25-2.66.6-.18.87.48,1.38.67.65.25,1.44.06,2.08-.11.2-.06.39-.15.62-.11.18.05.32.17.49.26.19.11.38.16.6.14.72-.05,1.16-.64,1.75-.96.95-.52,1.32.54,1.65,1.2.28.55.68.89,1.19,1.21.21.13.59.31.71.53Z"/><path class="cls-1" d="m1028.36,147.53c.37,1.3-.74,2.6-1.73,3.35-.36.27-.72.51-1.03.86-.26.29-.41.63-.63.95-.38.52-.94.76-1.48,1.07-.59.34-1.03.87-1.7,1.04-.78.2-1.61.29-2.4.46-1.51.32-2.73,1.37-4.33,1.37-.77,0-1.52-.16-2.25-.37-.74-.2-1.48-.38-2.22-.61-1.33-.43-2.75-.21-4.11-.6-.53-.16-1.19-.39-1.57-.83-.32-.38-.27-.98-.67-1.29-.37-.27-.94-.34-1.37-.5-.27-.1-.52-.26-.78-.38-.7-.36-1.47-.52-2.2-.78-1.67-.6-3.32-.73-5.08-.49-.66.08-1.33.2-2,.26-.23.02-.46.02-.7.05-.05,0-.15,0-.25,0-.06.04-.15.05-.22.02-.1.02-.19.04-.23.07-.05.05-.13,0-.12-.06.03-.08.08-.15.15-.2-.18-.27-.23-.66-.28-.97-.09-.55-.06-1.06.08-1.6.18-.68.42-1.33.38-2.05-.05-.73-.47-1.21-.86-1.78-.71-1.04-.82-2.05-.7-3.28.08-.73.22-1.47.27-2.2.05-.53-.04-1.04-.06-1.57-.03-.05-.04-.13,0-.19,0-.12,0-.24,0-.37,0-.05.05-.07.09-.04.04.05.06.11.1.16.11-.12.19-.19.44-.27.43-.12.86-.22,1.3-.35.91-.27,1.64-.66,2.36-1.28,1.15-.98,2.85-1.67,4.38-1.44.63.1,1.15.33,1.63.76.33.3.6.63,1.08.41.3-.14.56-.34.84-.51.65-.39,1.36-.43,2.11-.41.65.02,1.34,0,1.93.31,1.05.55,1.65,1.77,2.33,2.69.46.61.53,1.48,1.06,2.02.48.5,1.23.7,1.81,1.07.71.48,1.54.8,2.24,1.29.55.4.85,1.07,1.42,1.44.39.26.88.27,1.33.38.33.08.63.22.93.38.69.38,1.26.71,2.05.83.72.11,1.46.23,2.15.46.69.23,1.21.6,1.78,1.03.61.45,1.3.62,1.99.9.69.28,1.31.65,2.03.79.05-.02.09-.03.15-.03.12-.22.46-.2.53.05Zm-1.23,1.58c.19-.27.32-.52.42-.79-.76-.18-1.44-.57-2.15-.87-.71-.31-1.45-.49-2.09-.94-.7-.5-1.28-.9-2.13-1.11-.79-.2-1.64-.22-2.41-.47-.71-.22-1.25-.72-1.92-.99-.69-.27-1.42-.24-2.01-.72-.55-.46-.86-1.13-1.5-1.49-.72-.39-1.42-.81-2.13-1.23-.54-.34-1.15-.56-1.63-.99-.56-.49-.68-1.24-1.02-1.87-.28-.54-.71-1.04-1.06-1.55-.36-.51-.77-1.06-1.37-1.33-.69-.29-1.72-.25-2.45-.16-.73.08-1.22.63-1.87.9-.55.21-.98.02-1.39-.36-.27-.24-.49-.51-.83-.67-.35-.16-.74-.25-1.13-.26-.83-.05-1.71.23-2.45.6-.69.34-1.18.88-1.81,1.29-.59.39-1.26.63-1.93.82-.56.16-1.11.22-1.58.52.32.93.13,2.18.05,3.06-.13,1.3-.23,2.47.54,3.59.32.49.71.91.88,1.48.16.54.13,1.12.04,1.67-.12.67-.45,1.32-.46,2.01,0,.29.03,1.07.24,1.3.04.05.05.08.07.13,0,0,.02,0,.03,0,.59-.1,1.17-.17,1.76-.27,1.7-.27,3.45-.42,5.15.02.74.19,1.47.48,2.2.71.71.22,1.31.6,2.01.85.54.19,1.23.28,1.61.77.36.44.28.96.81,1.28,1.23.78,2.76.52,4.11.69.77.1,1.48.42,2.25.54.72.12,1.43.29,2.14.41.79.14,1.6.12,2.37-.13.68-.22,1.26-.66,1.95-.87.82-.27,1.71-.42,2.56-.57.4-.07.74-.12,1.09-.34.25-.16.47-.35.71-.51.53-.36,1.15-.6,1.51-1.14.38-.57.68-1.06,1.21-1.5.6-.48,1.15-.88,1.6-1.51Z"/><path class="cls-1" d="m1027.55,148.31c-.1.27-.23.52-.42.79-.45.63-1.01,1.04-1.6,1.51-.53.44-.83.93-1.21,1.5-.37.54-.98.78-1.51,1.14-.24.16-.46.36-.71.51-.35.22-.69.27-1.09.34-.84.15-1.74.3-2.56.57-.69.21-1.27.65-1.95.87-.77.25-1.59.27-2.37.13-.71-.12-1.42-.29-2.14-.41-.76-.12-1.48-.44-2.25-.54-1.36-.16-2.89.09-4.11-.69-.52-.32-.45-.84-.81-1.28-.38-.49-1.07-.58-1.61-.77-.7-.25-1.3-.63-2.01-.85-.73-.23-1.46-.51-2.2-.71-1.7-.44-3.45-.29-5.15-.02-.59.09-1.17.16-1.76.27,0,0-.02,0-.03,0-.02-.05-.04-.08-.07-.13-.21-.23-.25-1.01-.24-1.3,0-.69.34-1.34.46-2.01.09-.55.12-1.13-.04-1.67-.16-.57-.56-.99-.88-1.48-.77-1.13-.67-2.29-.54-3.59.08-.88.27-2.13-.05-3.06.47-.3,1.02-.37,1.58-.52.67-.19,1.35-.43,1.93-.82.63-.41,1.13-.95,1.81-1.29.73-.38,1.61-.65,2.45-.6.38,0,.78.1,1.13.26.34.16.56.43.83.67.41.38.84.57,1.39.36.65-.27,1.14-.82,1.87-.9.72-.08,1.76-.13,2.45.16.6.27,1.01.82,1.37,1.33.35.5.78,1.01,1.06,1.55.34.63.46,1.37,1.02,1.87.48.43,1.09.65,1.63.99.71.42,1.4.83,2.13,1.23.64.37.95,1.04,1.5,1.49.59.49,1.32.46,2.01.72.67.27,1.21.77,1.92.99.77.25,1.62.27,2.41.47.84.21,1.43.6,2.13,1.11.64.46,1.37.63,2.09.94.71.3,1.39.69,2.15.87Z"/><path class="cls-1" d="m953.91,148c.6.46.23,1.33.04,1.92-.25.79-.61,1.53-1.11,2.19-.5.69-1.16,1.2-1.75,1.81-.66.67-1.22,1.42-1.88,2.09-.49.49-1.05,1.01-1.71,1.24-.81.28-1.71.03-2.47.44-.72.39-1.46,1.05-2.02,1.67-.46.49-.77,1.13-1.31,1.56-.52.4-1.15.51-1.76.7-.8.25-1.12.84-1.63,1.44-1.15,1.33-2.89,1.68-4.44,2.33-.81.33-1.49.76-2.37.88-.7.1-1.42.25-2.14.15-.88-.13-1.62-.68-2.51-.29-.76.32-1.45.72-2.29.8-.76.06-1.41-.24-2.09-.54-.71-.31-1.53-.47-2.14-.99-1.04-.88-1.07-2.47-1.26-3.71,0-.03,0-.05,0-.06-.03-.05-.05-.1-.04-.16,0-.02,0-.04,0-.06.02-.06.07-.12.14-.14.54-.64,1.03-1.3,1.26-2.13.25-.89.49-1.76.81-2.63.52-1.44,1.15-3.16,2.46-4.07,1.37-.96,2.96-1.52,4.41-2.34.66-.38,1.37-.71,2.01-1.13.7-.47.95-.99,1.24-1.75.41-1.09,1.22-1.77,2.43-1.45.6.16,1.16.5,1.66.88.44.33.79.73,1.32.91,1.12.35,2.47.14,3.57-.17,1.39-.38,2.58-1.04,4-.36,1.51.72,3.02.98,4.68.98.83,0,1.66-.04,2.48-.09.65-.05,1.29-.16,1.94-.21.25-.03.39.11.45.28,0,0,.03,0,.04.02Zm-.48.71s-.09,0-.15-.02c-.34-.12-.71-.03-1.07,0-.43.02-.87.05-1.3.06-.82.04-1.66.05-2.49,0-.84-.05-1.7-.17-2.51-.41-.72-.21-1.35-.58-2.03-.88-1.35-.6-2.82.39-4.17.64-1.07.19-2.32.31-3.35-.11-.51-.22-.88-.63-1.32-.96-.46-.34-.98-.67-1.55-.78-1.65-.31-1.56,1.72-2.39,2.59-.5.53-1.18.83-1.82,1.18-.66.37-1.3.76-1.99,1.07-.79.35-1.54.74-2.3,1.16-.65.38-1.3.72-1.77,1.34-.97,1.31-1.49,2.97-1.99,4.5-.22.69-.32,1.41-.68,2.05-.32.57-.67.99-1.1,1.45,0,0-.02,0-.02.02l-.05.05s0,0-.02,0c.29.56.34,1.24.49,1.84.26.97.75,1.56,1.7,1.91.71.27,1.45.64,2.18.82,1.04.25,1.91-.28,2.82-.69.63-.28,1.21-.26,1.86-.05.77.25,1.38.35,2.21.24.4-.05.82-.08,1.21-.17.39-.1.74-.3,1.11-.48.71-.34,1.45-.6,2.19-.86.8-.3,1.64-.57,2.28-1.15.51-.47.83-1.12,1.37-1.56.46-.38,1.02-.49,1.58-.64.57-.16,1-.41,1.37-.88.89-1.1,1.85-2.35,3.18-2.96.65-.3,1.36-.18,2.04-.32.76-.15,1.37-.76,1.89-1.31.54-.57,1.03-1.2,1.55-1.78.45-.5.94-.94,1.36-1.47.46-.58.85-1.16,1.15-1.84.15-.33.27-.69.36-1.04.03-.09.13-.36.17-.57Z"/><path class="cls-1" d="m953.29,148.7c.05.02.1,0,.15.02-.05.21-.15.48-.17.57-.09.35-.21.71-.36,1.04-.29.68-.69,1.26-1.15,1.84-.41.52-.91.96-1.36,1.47-.52.58-1.01,1.21-1.55,1.78-.51.55-1.13,1.16-1.89,1.31-.69.14-1.39.02-2.04.32-1.33.61-2.29,1.86-3.18,2.96-.38.47-.81.71-1.37.88-.56.16-1.12.27-1.58.64-.53.44-.85,1.09-1.37,1.56-.64.59-1.48.85-2.28,1.15-.74.27-1.48.52-2.19.86-.37.17-.71.38-1.11.48-.39.09-.81.13-1.21.17-.82.11-1.44,0-2.21-.24-.65-.21-1.23-.24-1.86.05-.92.4-1.78.93-2.82.69-.73-.17-1.48-.55-2.18-.82-.95-.35-1.45-.93-1.7-1.91-.16-.6-.2-1.28-.49-1.84,0,0,.02,0,.02,0l.05-.05s0,0,.02-.02c.43-.46.78-.88,1.1-1.45.36-.64.46-1.37.68-2.05.49-1.53,1.02-3.19,1.99-4.5.47-.61,1.12-.96,1.77-1.34.76-.42,1.51-.82,2.3-1.16.69-.31,1.33-.71,1.99-1.07.64-.35,1.32-.65,1.82-1.18.83-.87.74-2.91,2.39-2.59.57.11,1.09.44,1.55.78.44.33.81.74,1.32.96,1.04.42,2.28.3,3.35.11,1.35-.25,2.82-1.24,4.17-.64.69.3,1.31.67,2.03.88.82.24,1.67.36,2.51.41.83.05,1.67.04,2.49,0,.43-.02.87-.05,1.3-.06.36-.02.73-.11,1.07,0Z"/><path class="cls-1" d="m1016.16,177.93c.09.12.1.27-.02.4-.3.35-.59.72-.94,1.02-.34.27-.7.47-.97.81-.54.65-1.22,1.38-1.53,2.17-.33.87-.27,1.86-.59,2.74-.27.72-.71,1.34-1.06,2.02-.49.94-.46,1.8-.23,2.8.14.6.27,1.21.27,1.82,0,.31-.04.64-.17.93-.13.28-.48.45-.27.75.18.27.56.47.81.67.23.18.46.38.67.6,1.31,1.31,2.3,5.08-.34,5.46-1.21.18-2.41-.18-3.52-.65-1.56-.65-3.08-1.38-4.65-2.01-.74-.3-1.67-.65-2.48-.64-.4,0-.71.2-1.1.3-.3.07-.6.05-.92.03-.53-.05-1.06-.16-1.6-.22-.44-.05-1.21-.23-1.6.07-.06.05-.14.06-.21.05-.24,0-.47-.21-.6-.38-.15-.21-.25-.45-.34-.68-.11-.27-.19-.55-.27-.83-.05-.25-.11-.5-.16-.75-.03-.16-.05-.3-.05-.46,0-.04.02-.05.05-.07-.12-.71.49-1.39.87-1.93.59-.82.97-1.8,1.37-2.73.31-.75.56-1.54,1.08-2.19.45-.57,1.07-.99,1.75-1.25.85-.31,1.81-.32,2.68-.59.86-.26,1.29-.72,1.42-1.62.13-.88-.33-1.58-.55-2.39-.24-.85-.11-1.77-.16-2.64-.05-.99-.29-1.92-.43-2.9-.13-.85.32-1.33.62-2.08.05-.11.14-.18.26-.18.39-.42.66-.83,1.25-1.11.61-.29,1.29-.48,1.97-.44.73.05,1.33.35,1.94.71.67.39,1.41.59,2.16.73,1.28.26,2.72.45,3.6,1.53.46.57.67,1.3,1.18,1.83.42.44.64.73.82,1.3Zm-.63.18v-.04c-.06-.22-.12-.43-.27-.61-.18-.23-.42-.4-.6-.63-.38-.48-.58-1.05-.93-1.54-.77-1.06-2.24-1.22-3.43-1.48-.58-.13-1.15-.28-1.7-.54-.63-.3-1.15-.76-1.85-.91-.77-.16-1.61.03-2.3.39-.39.21-.65.56-.97.84,0,.03.02.05.02.09,0,.12-.07.17-.16.21-.16.33-.38.64-.49.99-.16.57.11,1.18.22,1.74.17.94.24,1.92.23,2.89,0,.54-.02,1.06.15,1.59.11.36.27.71.38,1.06.22.65.24,1.32.05,1.99-.44,1.49-2.09,1.65-3.42,1.83-.93.13-1.76.47-2.39,1.17-.59.65-.84,1.52-1.18,2.31-.34.8-.68,1.63-1.15,2.36-.48.74-1.03,1.31-1.15,2.23,0,0,0,0-.02,0,.04.07.06.15.1.22.21.49.38.95.6,1.4.05.11.11.22.17.32.03.05.05.1.09.15,0,.03.03.05.04.06t0,.02s.06.06.09.09c0,0,0,0,0,0,0,0,0,0,.02.02,0,0,0,0,.02,0,.04,0,.06,0,.1,0,.03,0,.05.04.06.05.78-.4,1.99-.08,2.77.02.39.05.82.12,1.2.03.38-.08.7-.27,1.08-.31.79-.06,1.65.24,2.38.49.79.27,1.53.65,2.28.99.67.31,1.36.56,2.03.85,1.26.55,2.63,1.14,4.05.96.53-.06,1.05-.31,1.2-.86.2-.73-.09-1.78-.39-2.45-.31-.7-.87-1.22-1.44-1.7-.36-.29-1.1-.71-1.11-1.24,0-.25.16-.37.3-.53.25-.28.3-.6.32-.97.02-.78-.21-1.54-.36-2.3-.13-.69-.16-1.35.09-2.02s.69-1.25,1.02-1.87c.74-1.4.45-3.09,1.4-4.39.41-.56.82-1.21,1.33-1.69.27-.25.59-.41.86-.65.23-.2.42-.45.62-.69Z"/><path class="cls-1" d="m1015.53,178.08v.04c-.2.24-.39.49-.62.69-.27.24-.6.4-.86.65-.5.48-.92,1.13-1.33,1.69-.95,1.3-.66,2.99-1.4,4.39-.33.62-.77,1.2-1.02,1.87s-.22,1.33-.09,2.02c.15.76.38,1.52.36,2.3-.02.37-.07.69-.32.97-.15.16-.31.28-.3.53,0,.53.75.94,1.11,1.24.57.48,1.13,1,1.44,1.7.3.67.6,1.71.39,2.45-.15.55-.67.8-1.2.86-1.42.17-2.79-.41-4.05-.96-.68-.29-1.37-.54-2.03-.85-.75-.34-1.49-.71-2.28-.99-.73-.25-1.59-.55-2.38-.49-.38.04-.71.23-1.08.31-.38.09-.81.02-1.2-.03-.78-.1-1.99-.42-2.77-.02-.02,0-.04-.04-.06-.05-.04,0-.06,0-.1,0,0,0,0,0-.02,0,0,0-.02,0-.02-.02,0,0,0,0,0,0-.03-.03-.05-.06-.09-.09t0-.02s-.03-.04-.04-.06c-.04-.05-.06-.09-.09-.15-.06-.1-.12-.21-.17-.32-.21-.45-.38-.91-.6-1.4-.04-.07-.06-.15-.1-.22,0,0,.02,0,.02,0,.13-.92.68-1.48,1.15-2.23.48-.73.82-1.57,1.15-2.36.34-.79.6-1.66,1.18-2.31.63-.71,1.47-1.04,2.39-1.17,1.33-.18,2.98-.34,3.42-1.83.19-.67.17-1.34-.05-1.99-.12-.36-.27-.71-.38-1.06-.16-.52-.15-1.04-.15-1.59,0-.96-.05-1.94-.23-2.89-.11-.56-.38-1.17-.22-1.74.1-.35.32-.66.49-.99.08-.04.16-.09.16-.21,0-.04-.02-.06-.02-.09.32-.28.58-.63.97-.84.69-.37,1.53-.56,2.3-.39.71.15,1.22.6,1.85.91.54.26,1.12.41,1.7.54,1.19.26,2.66.41,3.43,1.48.36.49.56,1.06.93,1.54.17.23.41.4.6.63.15.18.2.39.27.61Z"/><path class="cls-1" d="m1059.71,182.4c.12.76-.1,1.34-.58,1.93-.26.31-.56.59-.83.87-.3.31-.5.67-.75,1.03-.48.7-1.15,1.25-1.58,1.99-.26.45-.18.92-.14,1.41.04.44.04.89.04,1.34,0,.84.05,1.7-.1,2.53-.16.78-.49,1.46-1,2.05-.44.53-1.04,1.36-1.15,2.05-.07.47-.7.53-.99.26-.02-.02-.04-.04-.06-.05-.24-.21-.22-.49-.08-.69-.25-.8-1.16-1.04-1.87-1.3-.75-.27-1.26-.65-1.73-1.3-.52-.71-.96-1.58-1.59-2.19-.6-.58-1.25-1.15-1.88-1.7-.77-.65-1.59-1.1-2.62-1.15-.51-.03-.98.05-1.48.15-.27.05-.48,0-.67-.21-.22-.26-.27-.6-.36-.92-.12-.45-.25-.89-.34-1.35-.13-.71-.08-1.49-.53-2.07-.12,0-.23-.12-.16-.26.41-.79.65-1.58,1.28-2.23.6-.63,1.09-1.36,1.81-1.84.7-.47,1.48-.76,2.18-1.18.91-.53,1.35-1.26,1.78-2.18.38-.79.86-1.51,1.4-2.19.48-.6.98-1.23,1.62-1.64.6-.37,1.45-.54,2.14-.49.72.05,1.13.5,1.59,1.01.25.27.46.62.73.87.3.27.74.29,1.11.41.74.24,1.5.61,2.15,1.02.63.39,1.05.93,1.44,1.55.19.32.4.67.49,1.04.09.34.06.7.14,1.04.16.82.46,1.57.59,2.4Zm-.72,1.03c.25-.49.12-.96.03-1.48-.13-.73-.46-1.41-.55-2.14-.05-.44-.07-.77-.28-1.17-.16-.33-.36-.64-.58-.93-.4-.56-.98-.88-1.58-1.18-.44-.22-.89-.45-1.35-.6-.28-.09-.58-.15-.84-.27-.56-.26-.87-.87-1.26-1.32-.37-.43-.69-.73-1.29-.74-.38,0-.85.08-1.22.2-.73.23-1.26.89-1.74,1.46-.56.66-1.07,1.37-1.47,2.15-.31.63-.57,1.29-1.07,1.81-.95.98-2.34,1.27-3.41,2.08-.65.49-1.2,1.21-1.73,1.81-.44.49-.66,1.11-.97,1.68.46.19.6.81.7,1.26.08.45.16.91.27,1.36.11.42.21.98.42,1.37.12.22.03.18.31.12.25-.05.5-.08.74-.1.52-.04,1.07,0,1.58.14.82.2,1.54.7,2.17,1.26.32.29.63.6.94.92.32.33.7.6.99.95.62.73,1.04,1.63,1.64,2.37.62.78,1.49.9,2.34,1.3.37.17.78.42,1.05.74.25-.38.58-.7.93-.98.77-.6,1.24-1.37,1.41-2.34.18-.97.1-2.03.05-3.02-.05-.81-.22-1.57.24-2.3.38-.61.91-1.11,1.36-1.67.46-.59.81-1.17,1.34-1.7.32-.32.61-.63.82-1.04Z"/><path class="cls-1" d="m1059.01,181.94c.09.52.22,1-.03,1.48-.21.4-.5.71-.82,1.04-.53.52-.88,1.11-1.34,1.7-.45.56-.98,1.05-1.36,1.67-.46.73-.28,1.49-.24,2.3.05.99.13,2.04-.05,3.02-.17.97-.64,1.73-1.41,2.34-.35.28-.68.6-.93.98-.27-.32-.69-.57-1.05-.74-.84-.4-1.71-.52-2.34-1.3-.6-.74-1.02-1.64-1.64-2.37-.29-.35-.67-.62-.99-.95-.31-.31-.62-.62-.94-.92-.63-.57-1.35-1.06-2.17-1.26-.5-.13-1.05-.17-1.58-.14-.24.02-.49.05-.74.1-.28.06-.19.1-.31-.12-.21-.38-.31-.94-.42-1.37-.12-.45-.19-.91-.27-1.36-.09-.46-.24-1.07-.7-1.26.31-.57.53-1.18.97-1.68.53-.6,1.08-1.33,1.73-1.81,1.07-.81,2.46-1.1,3.41-2.08.5-.52.76-1.18,1.07-1.81.39-.78.91-1.49,1.47-2.15.49-.57,1.01-1.23,1.74-1.46.37-.12.83-.21,1.22-.2.6,0,.93.31,1.29.74.38.45.7,1.06,1.26,1.32.27.13.56.18.84.27.46.16.91.38,1.35.6.6.3,1.17.62,1.58,1.18.22.29.41.6.58.93.21.4.23.73.28,1.17.09.73.42,1.41.55,2.14Z"/><path class="cls-1" d="m932.96,182.33c.43.13.3.6.04.74-.05.71-.39,1.46-.62,2.11-.37,1.07-.71,2.12-1,3.21-.28,1.04-.79,2.01-.79,3.12,0,.55-.05,1.32.2,1.81.06.14.15.25.21.36.12-.22.53-.18.53.13,0,.5-.35.93-.68,1.28-.22.23-.49.46-.6.78-.07.25-.06.53-.12.78-.11.47-.38.78-.71,1.1-.5.49-.99,1.01-1.26,1.66-.25.61-.23,1.33-.06,1.97.07.3.19.49.41.71.13.13.28.21.37.38.22.43-.12.93-.26,1.35-.22.66-.38,1.33-.5,2.02-.12.71-.1,1.41-.16,2.14-.03.45-.16.82-.45,1.16-.37.44-.84.79-1.24,1.21-.4.42-.82.82-1.26,1.21-.93.8-2.13,1.35-2.86,2.34-.78,1.04-.8,2.44-.73,3.69.06,1.15.43,2.32,0,3.44-.21.56-.61,1.02-.9,1.54-.34.62-.56,1.26-.66,1.95,0,.1-.13.21-.22.23-.83.16-1.74.58-2.59.44-.8-.12-1.5-.6-2.14-1.04-.69-.49-1.41-.92-2.09-1.43-.18-.14-.55-.34-.74-.59-.06.02-.13,0-.15-.09-.05-.49-.06-.97-.19-1.47-.11-.43-.18-.83-.22-1.28-.05-.67-.06-1.34-.13-2.01-.06-.61-.25-1.21-.31-1.81-.06-.65.03-1.29-.05-1.95-.06-.57-.14-1.14.02-1.7.16-.6.6-1.38,1.19-1.77.27-.41.63-.78.9-1.07.98-1.08,2.03-2.12,3.04-3.16.82-.84,1.92-1.7,2.23-2.87.17-.65.18-1.46.26-2.14.06-.6.16-1.17.33-1.75.3-1.02.78-1.96,1.64-2.61.55-.4,1.18-.69,1.74-1.08.5-.34.97-.74,1.45-1.11.94-.71,1.15-2.01,1.71-3,.32-.59.63-1.09,1.14-1.53.44-.37.29-1.08.47-1.61.11-.35.27-.69.31-1.06.04-.38-.05-.77-.11-1.15-.1-.61-.22-1.19-.43-1.78-.21-.6-.43-1.19-.49-1.82-.05-.38-.09-.76.17-1.04,0-.02.02-.03.03-.05,0,0,0-.02.02-.02.02-.02.04-.02.05-.03,0,0,0,0,.02,0h0s.05-.03.06-.03c.22-.08.43-.17.65-.25.27-.09.53-.11.82-.1.59,0,1.19.02,1.78.12.54.09,1.05.3,1.54.55.25.14.49.28.73.44.22.14.44.34.69.44Zm-.3.73s-.1-.07-.16-.15c-.16-.21-.43-.37-.65-.52-.2-.14-.41-.27-.63-.4-.42-.26-.88-.46-1.37-.55-.53-.1-1.08-.12-1.62-.14-.29,0-.55.04-.82.11-.1.03-.19.05-.28.06-.02.05-.04.09-.08.13-.25.22-.03.91.05,1.18.08.34.2.67.32,1,.24.67.38,1.31.47,2.01.08.63.16,1.25-.03,1.86-.13.4-.29.75-.33,1.17-.03.27,0,.55-.11.81-.17.47-.72.73-1,1.15-.33.5-.62,1.05-.85,1.6-.39.93-.71,1.76-1.55,2.39-.51.38-.98.82-1.52,1.17s-1.15.64-1.67,1.06c-.92.76-1.3,2-1.51,3.13-.23,1.2-.06,2.55-.64,3.65-.53,1-1.46,1.77-2.23,2.57-.89.91-1.8,1.77-2.69,2.67-.71.71-1.49,1.48-1.8,2.47-.02.05-.09.05-.1,0-.04-.1-.04-.2-.04-.3,0,0-.03.02-.04.04-.32.51-.41,1.07-.38,1.68.05.62.15,1.22.12,1.85-.04.63.1,1.23.21,1.85.22,1.15.08,2.35.34,3.48.1.42.44,1.27.24,1.79.13.09.39.19.47.24.21.12.4.23.6.36.6.4,1.24.75,1.83,1.17.55.39,1.16.82,1.84.96.71.14,1.53-.22,2.24-.43.08-.58.3-1.13.59-1.65.34-.63.89-1.21,1.09-1.91.18-.67.08-1.37,0-2.05-.09-.71-.13-1.41-.1-2.13.05-1.11.25-2.14.96-3.02.75-.92,1.85-1.46,2.75-2.2.49-.42.97-.86,1.42-1.33.36-.38.79-.68,1.13-1.06.49-.57.33-1.34.38-2.03.05-.61.15-1.23.28-1.82.08-.37.17-.74.29-1.1.08-.28.29-.62.32-.91.04-.4-.57-.76-.72-1.15-.38-.94-.33-2.11.15-3,.27-.49.63-.92,1.02-1.3.34-.35.67-.6.78-1.09.1-.47.09-.84.38-1.25.17-.23.47-.47.69-.72-.04-.04-.06-.09-.08-.16-.11-.45-.47-.74-.55-1.22-.09-.52-.12-1.06-.11-1.59.03-1.04.44-1.92.75-2.89.37-1.14.68-2.25,1.12-3.37.27-.7.68-1.45.86-2.18Z"/><path class="cls-1" d="m932.5,182.92c.05.07.11.11.16.15-.18.73-.59,1.48-.86,2.18-.44,1.12-.75,2.24-1.12,3.37-.31.97-.72,1.85-.75,2.89,0,.53.02,1.07.11,1.59.08.48.44.77.55,1.22.02.06.05.12.08.16-.22.26-.51.49-.69.72-.29.4-.28.78-.38,1.25-.11.49-.44.74-.78,1.09-.38.38-.75.82-1.02,1.3-.48.89-.53,2.05-.15,3,.16.38.76.74.72,1.15-.03.28-.24.62-.32.91-.12.36-.21.73-.29,1.1-.14.6-.24,1.21-.28,1.82-.05.69.11,1.46-.38,2.03-.34.38-.77.69-1.13,1.06-.45.47-.93.91-1.42,1.33-.9.74-2,1.28-2.75,2.2-.71.88-.91,1.91-.96,3.02-.03.71,0,1.42.1,2.13.09.68.19,1.38,0,2.05-.2.7-.75,1.27-1.09,1.91-.28.52-.5,1.07-.59,1.65-.71.21-1.53.57-2.24.43-.68-.14-1.29-.57-1.84-.96-.6-.42-1.23-.77-1.83-1.17-.19-.13-.38-.24-.6-.36-.07-.05-.34-.15-.47-.24.2-.51-.14-1.37-.24-1.79-.26-1.14-.12-2.34-.34-3.48-.11-.62-.25-1.22-.21-1.85.03-.63-.07-1.23-.12-1.85-.04-.6.05-1.16.38-1.68,0-.02.03-.03.04-.04,0,.1,0,.2.04.3,0,.05.08.05.1,0,.3-.99,1.08-1.76,1.8-2.47.9-.9,1.81-1.76,2.69-2.67.77-.8,1.7-1.57,2.23-2.57.58-1.1.41-2.45.64-3.65.21-1.14.6-2.37,1.51-3.13.51-.42,1.13-.71,1.67-1.06s1.01-.79,1.52-1.17c.84-.63,1.15-1.46,1.55-2.39.23-.55.52-1.1.85-1.6.27-.41.82-.68,1-1.15.1-.26.08-.54.11-.81.04-.42.2-.77.33-1.17.18-.61.11-1.23.03-1.86-.09-.7-.23-1.34-.47-2.01-.12-.33-.24-.66-.32-1-.07-.27-.29-.96-.05-1.18.05-.04.06-.08.08-.13.09-.02.18-.04.28-.06.27-.07.53-.11.82-.11.54.02,1.09.04,1.62.14.49.09.95.29,1.37.55.22.13.43.27.63.4.22.16.49.31.65.52Z"/></svg>