<?xml version="1.0" encoding="UTF-8"?><svg id="Tree_04_-_Leaves_02" xmlns="http://www.w3.org/2000/svg" viewBox="0 0 1160 418.25"><defs><style>.cls-1{fill:#b6d01c;stroke-width:0px;}</style></defs><path class="cls-1" d="m933.48,145.98c.09.19-.07.4-.27.45-.55.49-1.1,1.45-1.14,2.17-.03.6.09,1.08-.46,1.5-.48.37-1.07.41-1.63.57-.82.22-1.55.68-2.28,1.08-1.36.72-2.76,1.44-3.86,2.54-1.14,1.15-1.68,2.64-1.67,4.25,0,.72.26,1.54-.07,2.23-.2.42-.6.68-1.02.85-.6.26-1.24.44-1.85.68-.68.27-1.36.56-2.06.76-.69.2-1.36.22-2.07.2-.67-.02-1.39.09-2.04-.13-.28-.09-.51-.27-.74-.45-.33-.27-.65-.47-1.04-.66-.45-.22-.96-.43-1.33-.8-.45-.45-.56-1.1-.64-1.7-.1-.68-.14-1.34-.05-2.02.05-.38.13-.79.11-1.18-.03-.36-.16-.67-.3-.99-.25-.61-.36-1.14-.24-1.79.15-.74.49-1.42.7-2.14.19-.66.39-1.28.68-1.91.36-.81.52-1.66.83-2.48.25-.67.51-1.32.75-1.99.32-.86.63-1.7.48-2.63-.12-.76-.49-1.43-.85-2.1-.59-1.06-1.07-2.19-.64-3.41.38-1.09,1.21-2.09,2.19-2.69.67-.4,1.64-.6,2.17-1.18.4-.45.55-1.08.91-1.57.75-1.03,1.88-1.57,2.82-2.39.74-.64,1.27-1.59,2.28-1.86,1.06-.27,2.18.25,2.93.99.49.49.71,1.08,1.37,1.37.47.21.96.36,1.44.54.05,0,.11,0,.16.05h0c.05.03.1.04.15.05.12.05.12.18.06.28.18.4.18.87.38,1.28.33.7.95,1.17,1.56,1.6.98.7,2.02,1.43,2.41,2.61.28.83.28,1.74.41,2.6s.36,1.71.48,2.58c.13.85.16,1.71.3,2.56.13.78.38,1.5.68,2.24Zm-1.48.99c.2-.36.48-.64.78-.89-.66-1.31-.69-2.84-.85-4.26-.12-.93-.32-1.81-.49-2.71-.16-.84-.16-1.7-.35-2.54-.33-1.42-1.58-2.1-2.65-2.94-.53-.42-1.02-.91-1.3-1.54-.22-.49-.13-1.13-.4-1.58-.51-.17-1.02-.31-1.51-.53-.63-.27-.82-.7-1.26-1.2-.93-1.07-2.51-1.53-3.62-.48-.41.4-.76.87-1.21,1.24-.46.38-.96.69-1.42,1.04-.6.46-1.16.97-1.51,1.65-.27.52-.47,1.05-.95,1.42-.55.41-1.26.6-1.87.94-.57.31-1.05.77-1.44,1.29-.42.55-.77,1.22-.8,1.92-.02.68.27,1.3.58,1.9.61,1.14,1.27,2.25,1.15,3.6-.11,1.36-.82,2.7-1.27,3.97-.24.66-.35,1.35-.61,1.99-.27.68-.57,1.31-.77,2.01-.19.71-.48,1.37-.68,2.07-.22.75-.05,1.29.23,1.99.27.68.26,1.26.16,1.98-.07.65-.09,1.27,0,1.93.09.75.2,1.41.9,1.81.5.3,1.09.49,1.56.84.28.2.51.49.85.61.35.12.72.09,1.08.09.7-.02,1.42.07,2.11-.06,1.34-.27,2.59-1.01,3.89-1.44.72-.23,1.23-.43,1.22-1.29,0-.69-.12-1.35-.05-2.04.11-1.2.5-2.28,1.25-3.24.67-.85,1.52-1.53,2.43-2.11,1.16-.73,2.44-1.39,3.67-1.99.55-.27,1.12-.4,1.7-.57.24-.07.55-.16.72-.33.27-.28.16-.6.16-.94.02-.56.32-1.15.6-1.63Z"/><path class="cls-1" d="m932.78,146.08c-.3.25-.58.53-.78.89-.27.48-.58,1.07-.6,1.63,0,.34.11.66-.16.94-.17.17-.49.26-.72.33-.59.16-1.15.3-1.7.57-1.24.6-2.51,1.26-3.67,1.99-.91.58-1.76,1.26-2.43,2.11-.74.95-1.14,2.03-1.25,3.24-.06.7.05,1.36.05,2.04,0,.86-.49,1.06-1.22,1.29-1.29.43-2.55,1.16-3.89,1.44-.69.14-1.41.05-2.11.06-.36,0-.73.03-1.08-.09-.34-.13-.57-.41-.85-.61-.47-.36-1.05-.54-1.56-.84-.7-.4-.81-1.06-.9-1.81-.08-.66-.06-1.28,0-1.93.09-.71.1-1.3-.16-1.98-.28-.7-.45-1.24-.23-1.99.2-.7.49-1.37.68-2.07.2-.7.49-1.33.77-2.01.27-.64.38-1.33.61-1.99.45-1.26,1.16-2.61,1.27-3.97.12-1.35-.54-2.47-1.15-3.6-.31-.6-.6-1.22-.58-1.9.03-.71.38-1.37.8-1.92.38-.52.87-.98,1.44-1.29.6-.34,1.32-.53,1.87-.94.49-.37.69-.9.95-1.42.35-.68.91-1.19,1.51-1.65.46-.36.96-.67,1.42-1.04.45-.37.8-.83,1.21-1.24,1.11-1.05,2.69-.6,3.62.48.44.5.63.93,1.26,1.2.49.22,1,.36,1.51.53.27.45.18,1.08.4,1.58.28.63.77,1.12,1.3,1.54,1.07.84,2.32,1.52,2.65,2.94.19.83.19,1.7.35,2.54.17.91.38,1.79.49,2.71.16,1.42.19,2.95.85,4.26Z"/><path class="cls-1" d="m911.17,176.42c.05.16-.12.24-.24.18-.1.05-.22.05-.32.09-.21.11-.45.41-.64.56-.44.35-.91.66-1.32,1.04-.95.87-1.15,2.04-1.66,3.18-.49,1.13-1.29,2.08-1.85,3.16-.44.85-.8,1.76-1.09,2.67-.33,1.04-.68,2.43-1.62,3.09-1.34.93-2.71-.91-3.59-1.69-.71-.62-1.5-1.15-2.05-1.93s-.71-1.82-.81-2.75c-.12-1.09-.27-2.23-.17-3.32.09-1.07.57-2.12.53-3.18-.03-.92,0-1.78.45-2.6.44-.84,1.17-1.54,1.82-2.22,1.15-1.22,2.3-3.18,4.21-3.21,1.02-.02,1.64.76,2.52,1.1,1.04.4,1.9.9,2.81,1.53.74.5,1.59.95,2.15,1.69.59.75.61,1.72.87,2.61Zm-.62-.31c.05-.05.09-.09.16-.1-.09-.34-.17-.68-.28-1.02-.17-.55-.48-.94-.92-1.31-.82-.68-1.81-1.25-2.72-1.81-.89-.53-1.88-.77-2.73-1.37-1.03-.71-2.03-.45-2.95.31-.71.57-1.21,1.33-1.82,1.99-.64.68-1.36,1.34-1.87,2.14s-.55,1.64-.51,2.58c.03.93-.35,1.77-.49,2.69-.15,1.04,0,2.03.06,3.07.06.97.14,2.12.66,2.97.49.8,1.27,1.31,1.99,1.89.68.57,1.36,1.46,2.19,1.78,1.03.4,1.57-1.37,1.81-2.05.46-1.31.87-2.63,1.55-3.85.49-.86,1.1-1.64,1.54-2.52.4-.81.6-1.7,1.04-2.48.42-.74,1.06-1.29,1.74-1.8.39-.28.75-.6,1.13-.91.16-.14.28-.15.43-.19Z"/><path class="cls-1" d="m910.71,176.01c-.07,0-.12.05-.16.1-.15.05-.27.05-.43.19-.38.31-.73.62-1.13.91-.68.5-1.32,1.05-1.74,1.8-.44.79-.63,1.68-1.04,2.48-.44.88-1.05,1.66-1.54,2.52-.68,1.22-1.09,2.54-1.55,3.85-.24.68-.78,2.46-1.81,2.05-.83-.32-1.51-1.21-2.19-1.78-.71-.58-1.5-1.09-1.99-1.89-.52-.85-.6-2-.66-2.97-.07-1.04-.21-2.03-.06-3.07.14-.92.51-1.75.49-2.69-.04-.93,0-1.78.51-2.58s1.23-1.46,1.87-2.14c.61-.66,1.12-1.42,1.82-1.99.92-.76,1.92-1.02,2.95-.31.85.6,1.84.83,2.73,1.37.91.56,1.9,1.13,2.72,1.81.44.37.74.76.92,1.31.11.34.19.68.28,1.02Z"/><path class="cls-1" d="m959.6,185.97c.31,1.06,0,2.28-.41,3.27-.4.94-1.21,1.52-1.84,2.29-.36.43-.6.93-1.01,1.33-.35.34-.74.62-1.12.93-.45.37-.81.77-1.1,1.26-.23.39-.45.77-.81,1.05-.2.16-.55.05-.59-.19-.03-.03-.05-.06-.06-.1-1.71-.99-3.36.7-4.71,1.66-1.7,1.22-3.67.27-5.42-.36-.98-.36-1.98-.71-3.01-.88-1.11-.19-2.23-.13-3.34-.28-1.01-.14-1.92-.63-2.92-.75-.46-.05-.91-.02-1.37-.05-.27-.02-.55-.04-.82,0,.02.12-.12.23-.23.13l-.05-.05s-.05,0-.07.03c-.18.07-.29-.18-.18-.31-.63-.7-.99-1.53-1.11-2.49-.07-.59-.07-1.18-.05-1.78.02-.59,0-1.18.22-1.75.18-.48.48-.91.71-1.37.32-.62.43-1.31.6-1.98.16-.57.36-1.1.71-1.57.47-.63.85-1.07.98-1.88.16-1.07.49-1.81,1.3-2.54.77-.68,1.4-1.53,2.3-2.03.49-.28.99-.51,1.45-.83.49-.35.94-.71,1.47-1.02,1.15-.67,2.25-1.43,3.39-2.12,1.01-.6,2.03-1.32,3.13-1.72,1.18-.43,2.5-.18,3.72-.12.63.04,1.27.06,1.9.17.68.11,1.35.28,2.03.33.93.06,1.76.06,2.15,1.05.45,1.1,1.2,2.08,1.5,3.24.31,1.18-.2,2.22-.32,3.37-.13,1.29.33,2.5,1.15,3.47.7.81,1.5,1.52,1.81,2.58Zm-.82,2.24c.21-.67.35-1.37.15-2.05-.18-.63-.59-1.14-1.02-1.61-.66-.73-1.29-1.44-1.65-2.37-.34-.92-.39-1.92-.19-2.87.13-.58.35-1.15.38-1.75.04-.58-.16-1.15-.39-1.69-.25-.53-.55-1.04-.82-1.57-.2-.39-.3-1.03-.69-1.28-.46-.29-1.24-.16-1.77-.24-.52-.07-1.04-.19-1.57-.28-1.25-.21-2.56-.22-3.83-.28-1.21-.05-2.11.41-3.13,1.01-1.09.64-2.19,1.26-3.24,1.95-.94.63-1.93,1.16-2.84,1.84-.82.6-1.9.93-2.61,1.7-.35.37-.66.72-1.04,1.06-.34.28-.68.58-.93.94-.6.89-.35,2.04-1,2.93-.35.47-.73.87-.95,1.42-.19.46-.28.95-.4,1.44-.13.49-.27.94-.51,1.39-.23.43-.52.84-.68,1.32-.29.88-.23,2.07-.16,2.99.06.93.36,1.81.92,2.56.45-.23,1.06-.13,1.54-.14.94,0,1.75.13,2.65.44,1.65.57,3.42.3,5.11.66,1.73.37,3.35,1.16,5.06,1.59.95.23,1.78.11,2.56-.49.6-.44,1.13-.93,1.77-1.31,1.11-.65,2.52-1.04,3.66-.28.22-.28.39-.61.6-.92.28-.41.64-.76,1.04-1.08s.82-.62,1.16-.99c.39-.41.63-.93,1.01-1.35.3-.35.66-.66.96-1.01.45-.49.68-1.05.87-1.69Z"/><path class="cls-1" d="m958.93,186.15c.2.69.06,1.38-.15,2.05-.19.63-.42,1.19-.87,1.69-.3.35-.66.66-.96,1.01-.38.42-.61.93-1.01,1.35-.35.37-.77.67-1.16.99s-.75.67-1.04,1.08c-.21.3-.38.63-.6.92-1.14-.76-2.55-.37-3.66.28-.64.38-1.17.87-1.77,1.31-.78.6-1.6.71-2.56.49-1.71-.43-3.33-1.23-5.06-1.59-1.7-.36-3.46-.09-5.11-.66-.9-.31-1.7-.45-2.65-.44-.48,0-1.09-.09-1.54.14-.56-.74-.85-1.62-.92-2.56-.07-.92-.14-2.11.16-2.99.16-.48.45-.89.68-1.32.24-.45.38-.91.51-1.39.12-.49.21-.98.4-1.44.22-.55.6-.95.95-1.42.65-.89.39-2.04,1-2.93.26-.37.6-.66.93-.94.38-.34.7-.7,1.04-1.06.71-.76,1.79-1.09,2.61-1.7.91-.68,1.9-1.21,2.84-1.84,1.05-.7,2.15-1.31,3.24-1.95,1.02-.6,1.92-1.06,3.13-1.01,1.27.06,2.58.07,3.83.28.52.09,1.04.21,1.57.28.53.07,1.31-.05,1.77.24.38.26.49.89.69,1.28.27.52.58,1.04.82,1.57.24.53.43,1.11.39,1.69-.04.6-.26,1.17-.38,1.75-.2.94-.15,1.95.19,2.87.36.93.99,1.64,1.65,2.37.43.48.83.98,1.02,1.61Z"/><path class="cls-1" d="m1028.27,121.59c.08.55.51,1.15.43,1.7,0,0,0,.02,0,.02.03.1,0,.2-.09.29-.73.66-1.83.02-2.49-.47-.91-.66-1.67-1.45-2.7-1.93-.59-.28-1.22-.45-1.87-.37-.66.08-1.26.43-1.89.67-.59.22-1.18.27-1.8.34-.64.07-1.27.2-1.91.26-.99.08-1.92-.04-2.76-.58s-1.51-1.31-2.45-1.7c-.81-.33-1.8-.5-2.42-1.16-.34-.37-.46-.87-.63-1.31-.17-.43-.21-.94-.45-1.34-.47-.78-1.51-.99-2.34-1.14-1.21-.22-2.41-.61-3.63-.75-.54-.06-.98-.23-1.48-.4-.5-.16-1.06-.17-1.59-.17-1.25,0-2.04.67-2.84,1.56-.68.76-1.31,1.6-2.25,2.07-.82.4-1.8.58-2.7.53-.6-.03-1.13-.04-1.71.16-.51.18-1,.42-1.49.65-1.05.47-2.16.9-3.09,1.6-.89.68-1.79,1.39-2.65,2.11-.88.74-1.59,1.6-1.86,2.74-.29,1.17-.38,2.46-.34,3.67.02.6.08,1.18.1,1.77.03.62.03,1.24.16,1.84.02.08,0,.15-.03.2-.05.22-.3.36-.49.49-.37.26-.53.67-.87.95-.3.26-.67.41-1.07.42-.43,0-.84-.17-1.28-.17-.49,0-.95.26-1.44.32-.38.05-.73-.04-1.08-.18-.38-.16-.72-.38-1.08-.57-.39-.2-.72-.26-1.15-.28-.17-.02-.36-.17-.27-.37.52-1.26,1.07-2.71.61-4.08-.39-1.17-1.43-1.96-2.43-2.6-.93-.6-1.99-1.08-2.44-2.18-.21-.51-.28-1.1-.25-1.65.02-.39.12-.79.1-1.19,0-.37-.16-.71-.16-1.07,0-.1.1-.16.18-.15.47-.52.9-.96,1.16-1.63.24-.6.53-1.1.9-1.62.4-.59.84-1.16,1.25-1.75.31-.47.55-1,.91-1.44.19-.23.49-.38.62-.64.11-.23.07-.49.16-.73.16-.45.51-.81.84-1.15.41-.42.8-.82.97-1.39.16-.53.26-.99.64-1.41.41-.47.93-.83,1.36-1.27.44-.44.78-.93,1.15-1.43.6-.82,1.43-1.08,2.43-1.02,1.34.09,2.51-.13,3.78-.6.6-.23,1.2-.47,1.77-.78.49-.27.91-.64,1.38-.94,1.05-.67,2.28-1.03,3.41-1.56,1.11-.51,2.17-1.25,3.38-1.51.34-.07.68-.12.97-.32.19-.14.34-.32.51-.47.29-.26.61-.4,1.01-.41,1.14-.02,2.32.27,3.43.45.71.12,1.42.2,2.14.2.4,0,.8,0,1.19.05.94.15,1.49.74,1.98,1.53.66,1.07,1.66,1.97,2.7,2.68.53.37,1.1.71,1.71.95.49.2.93.37,1.38,0,.59-.49.86-1.34,1.59-1.65.43-.18.91-.11,1.37-.08.6.04,1.19.05,1.79,0,1.14-.07,2.37-.41,3.49-.08.8.23,1.81.37,2.2,1.19.05.08.05.16.03.24.25.3.49.6.73.91.55.72.78,1.64.97,2.52.12.51.17.99.43,1.46.16.31.32.59.43.92.32.89.6,1.66,1.42,2.2.69.46,1.52.66,2.19,1.15.58.42,1.04,1.04,1.41,1.65.81,1.3,1.21,3.07,1.05,4.59-.09.89-.49,1.74-.37,2.65Zm-.53-.43c.07-.96.52-1.83.51-2.8,0-1.66-.59-3.3-1.66-4.57-1-1.19-2.73-1.36-3.66-2.62-.39-.54-.53-1.18-.75-1.8-.15-.38-.4-.7-.57-1.06-.16-.36-.22-.73-.31-1.11-.2-.86-.5-1.68-1.08-2.36-.23-.27-.49-.55-.66-.86-.03-.05-.05-.11-.06-.16-.06-.03-.11-.07-.15-.15-.25-.57-.83-.61-1.37-.8-.62-.2-1.13-.25-1.79-.19-1.39.12-2.72.22-4.11.14-.62-.03-.93.17-1.31.64-.27.33-.5.69-.83.96-.76.64-1.6.33-2.41-.07-1-.51-1.92-1.22-2.72-2-.4-.38-.83-.79-1.16-1.25-.3-.43-.51-.94-.88-1.33-.78-.79-1.94-.55-2.94-.62-1.21-.07-2.38-.38-3.58-.5-.59-.05-1.34-.27-1.85.08-.32.24-.55.57-.93.74-.5.24-1.1.25-1.62.47-.55.23-1.09.54-1.63.82-1.1.55-2.25.95-3.36,1.48-1.04.49-1.86,1.28-2.91,1.77-1.03.48-2.11.89-3.23,1.1-.56.1-1.09.12-1.65.08-.64-.05-1.3-.1-1.85.29-.45.33-.72.89-1.07,1.32-.32.41-.69.78-1.08,1.13-.48.42-1.03.83-1.23,1.48-.13.42-.2.84-.45,1.23-.49.78-1.45,1.26-1.56,2.24-.04.41-.1.55-.43.82-.49.38-.7.84-1.02,1.35-.64,1.03-1.48,1.93-2.06,3-.27.49-.41,1.04-.76,1.48-.27.36-.63.64-.95.96.49,1.25-.16,2.67.6,3.85.37.57.95.88,1.52,1.23.51.32,1.02.64,1.49,1.03.92.72,1.65,1.67,1.82,2.85.18,1.18-.18,2.48-.65,3.58.49-.04,1.04.26,1.44.47.33.16.67.37,1.04.43.44.07.84-.12,1.26-.23s.81-.09,1.23,0c.42.09.82.17,1.22-.05.4-.23.54-.67.89-.95.16-.13.34-.26.52-.38-.15-.59-.19-1.18-.22-1.79-.02-.69-.1-1.38-.11-2.08-.03-1.27.06-2.67.43-3.89.33-1.11,1.06-1.99,1.93-2.72.9-.76,1.83-1.51,2.78-2.21.95-.72,2.09-1.17,3.18-1.66.9-.4,1.82-.91,2.83-.89,1.15.02,2.25.04,3.27-.59.92-.56,1.52-1.54,2.27-2.29.72-.73,1.52-1.22,2.57-1.26.49-.02,1.03,0,1.52.07.5.08.96.35,1.47.44.59.1,1.15.16,1.74.31.6.15,1.18.29,1.77.42.87.19,1.79.29,2.56.79.87.56.93,1.37,1.28,2.26.23.58.37,1.05.94,1.38.45.25.95.38,1.44.56.89.33,1.55.89,2.29,1.47.98.78,1.95,1,3.2.87,1.16-.13,2.47-.2,3.56-.63,1.07-.43,1.92-.74,3.09-.5.95.2,1.75.62,2.5,1.24.46.37.88.79,1.37,1.12.31.21,1.11.75,1.48.42,0,0,0,0,0,0-.05-.25-.2-.53-.27-.77-.11-.38-.17-.79-.15-1.19Z"/><path class="cls-1" d="m1028.25,118.36c0,.97-.44,1.84-.51,2.8-.03.4.04.81.15,1.19.06.24.22.52.27.77,0,0,0,0,0,0-.38.33-1.17-.21-1.48-.42-.49-.33-.91-.75-1.37-1.12-.75-.61-1.55-1.04-2.5-1.24-1.16-.24-2.02.07-3.09.5-1.09.43-2.39.5-3.56.63-1.25.13-2.22-.09-3.2-.87-.74-.58-1.4-1.14-2.29-1.47-.49-.17-.99-.31-1.44-.56-.58-.33-.71-.81-.94-1.38-.36-.89-.41-1.7-1.28-2.26-.77-.49-1.69-.6-2.56-.79-.59-.13-1.17-.27-1.77-.42-.59-.15-1.15-.21-1.74-.31-.5-.09-.96-.36-1.47-.44-.49-.07-1.03-.09-1.52-.07-1.04.05-1.84.53-2.57,1.26-.75.75-1.36,1.73-2.27,2.29-1.02.62-2.13.6-3.27.59-1.01-.02-1.93.49-2.83.89-1.09.49-2.23.93-3.18,1.66-.94.7-1.88,1.45-2.78,2.21-.87.73-1.6,1.61-1.93,2.72-.37,1.23-.46,2.62-.43,3.89,0,.7.09,1.39.11,2.08.03.6.07,1.2.22,1.79-.18.12-.37.25-.52.38-.35.28-.49.72-.89.95-.39.22-.8.14-1.22.05-.42-.08-.81-.1-1.23,0s-.82.3-1.26.23c-.38-.06-.71-.27-1.04-.43-.39-.21-.95-.5-1.44-.47.47-1.1.83-2.4.65-3.58-.17-1.18-.91-2.13-1.82-2.85-.48-.38-.98-.71-1.49-1.03-.57-.35-1.15-.66-1.52-1.23-.76-1.18-.12-2.6-.6-3.85.32-.32.68-.6.95-.96.35-.45.49-1,.76-1.48.58-1.06,1.42-1.97,2.06-3,.32-.5.53-.97,1.02-1.35.33-.27.39-.4.43-.82.11-.97,1.06-1.46,1.56-2.24.25-.38.32-.81.45-1.23.2-.64.75-1.05,1.23-1.48.39-.35.76-.71,1.08-1.13.35-.43.62-.99,1.07-1.32.55-.39,1.21-.34,1.85-.29.56.04,1.09.02,1.65-.08,1.12-.21,2.2-.62,3.23-1.1,1.04-.49,1.87-1.27,2.91-1.77,1.11-.53,2.26-.93,3.36-1.48.54-.27,1.08-.59,1.63-.82.52-.22,1.12-.23,1.62-.47.38-.17.6-.5.93-.74.51-.36,1.26-.14,1.85-.08,1.2.12,2.37.43,3.58.5,1,.07,2.16-.16,2.94.62.37.38.58.9.88,1.33.33.46.76.86,1.16,1.25.81.78,1.72,1.48,2.72,2,.81.4,1.65.71,2.41.07.33-.27.57-.63.83-.96.38-.47.69-.67,1.31-.64,1.39.08,2.72-.02,4.11-.14.66-.05,1.16,0,1.79.19.53.18,1.12.23,1.37.8.04.07.08.12.15.15.02.05.04.12.06.16.17.31.43.6.66.86.58.68.88,1.49,1.08,2.36.09.38.16.75.31,1.11.16.37.42.68.57,1.06.22.61.36,1.26.75,1.8.93,1.26,2.66,1.43,3.66,2.62,1.07,1.27,1.65,2.91,1.66,4.57Z"/><path class="cls-1" d="m992.54,144.6c.6,1.38.23,2.67-.1,4.06-.15.64-.18,1.24-.16,1.89.02.49.04,1.01-.08,1.5-.25,1.09-1.23,1.37-2.22,1.55-.7.14-1.4.16-2.12.14-.75-.03-1.37.05-2.09.31-.65.24-.87.18-1.51,0-.88-.27-1.35.29-1.45,1.09-.06.5-.05.91-.39,1.29-.4.47-.65.96-.92,1.52-.99,2.07-3.24,4.11-5.65,4.18-.6.02-1.11-.15-1.62-.46-.61-.38-1.33-.96-2.1-.81-.55.12-.74.08-1.16-.33-.4-.39-.84-.76-1.16-1.24-.16-.27-.25-.53-.34-.82-.12-.39-.29-.66-.49-1.02-.24-.45-.26-.93-.18-1.43.09-.67.29-1.29.31-1.97,0-.63.11-1.17.31-1.77.25-.73.36-1.43.28-2.2-.06-.61-.17-1.23-.07-1.85.2-1.17,1.1-2.16,1.94-2.94.44-.4.88-.82,1.37-1.16.47-.32.96-.6,1.39-.96.99-.82,1.16-2.2,1.76-3.28.61-1.11,1.58-1.87,2.69-2.41,1.22-.59,2.36-1.03,3.3-2.05.08-.09.18-.07.24,0,.79.03,1.56.06,2.34,0,.76-.05,1.52-.17,2.28-.16.66,0,1.34.11,1.95.38.3.13.57.3.84.47.37.22.71.24,1.12.32,0,0,0,0,.02,0,.24.03.46.23.39.56-.05.21.1.5.14.71l.14.93c.11.71.15,1.4-.1,2.1-.3.84-.67,1.56-.03,2.35.41.5.86.88,1.13,1.49Zm-.25,1.76c.02-.7-.16-1.52-.58-2.1-.27-.38-.66-.69-.92-1.08-.75-1.15.18-2.07.27-3.24.05-.62-.11-1.36-.38-1.92-.17-.34-.37-.74-.33-1.14-.22-.04-.44-.06-.65-.17-.28-.15-.53-.35-.82-.49-.67-.35-1.43-.45-2.17-.45-1.48,0-2.98.34-4.44-.05-.86,1.05-1.92,1.6-3.13,2.19-1.33.65-2.27,1.56-2.86,2.92-.27.61-.46,1.28-.79,1.86-.26.46-.64.82-1.06,1.13-.49.37-1.04.66-1.52,1.05-.49.41-.98.85-1.43,1.31-.47.49-.89,1.04-1.15,1.67-.27.66-.16,1.34-.08,2.03.07.62.07,1.21-.06,1.82-.16.66-.46,1.26-.5,1.95-.05.58-.05,1.1-.17,1.67-.14.59-.34,1.22-.06,1.8.14.28.35.52.46.82.12.33.16.66.34.97.27.47.73.82,1.11,1.21.32.33.48.21.87.18.25-.02.51.04.75.12.56.17,1.02.48,1.51.78,1.23.74,2.63.13,3.74-.57,1.12-.71,2.05-1.69,2.64-2.87.25-.5.46-1.03.81-1.47.15-.18.36-.34.43-.57.09-.26.05-.57.1-.83.15-.83.71-1.53,1.61-1.54.38,0,.68.2,1.04.26.27.05.49-.05.75-.16.53-.19,1.07-.35,1.64-.36.69,0,1.36.02,2.04-.07.58-.07,1.55-.16,1.98-.6.58-.57.29-1.71.31-2.44.02-1.26.66-2.4.71-3.65Z"/><path class="cls-1" d="m991.72,144.26c.41.58.6,1.4.58,2.1-.05,1.25-.69,2.39-.71,3.65-.02.72.27,1.87-.31,2.44-.43.43-1.4.52-1.98.6-.69.09-1.36.06-2.04.07-.57,0-1.11.16-1.64.36-.26.1-.48.21-.75.16-.36-.05-.65-.27-1.04-.26-.9,0-1.47.71-1.61,1.54-.05.27,0,.58-.1.83-.07.23-.28.38-.43.57-.35.44-.56.96-.81,1.47-.59,1.18-1.52,2.16-2.64,2.87-1.11.7-2.51,1.31-3.74.57-.49-.3-.95-.6-1.51-.78-.24-.08-.5-.14-.75-.12-.39.03-.55.15-.87-.18-.38-.39-.83-.74-1.11-1.21-.18-.31-.22-.64-.34-.97-.11-.3-.32-.54-.46-.82-.27-.58-.07-1.21.06-1.8.13-.57.13-1.09.17-1.67.05-.7.35-1.29.5-1.95.14-.61.14-1.2.06-1.82-.07-.69-.18-1.37.08-2.03.26-.63.68-1.18,1.15-1.67.45-.46.93-.9,1.43-1.31.48-.39,1.03-.69,1.52-1.05.42-.31.81-.67,1.06-1.13.33-.58.52-1.25.79-1.86.59-1.37,1.53-2.27,2.86-2.92,1.21-.59,2.26-1.14,3.13-2.19,1.47.38,2.97.05,4.44.05.74,0,1.5.1,2.17.45.28.15.53.35.82.49.21.11.43.14.65.17-.04.39.16.8.33,1.14.27.56.44,1.29.38,1.92-.09,1.16-1.03,2.09-.27,3.24.26.39.64.7.92,1.08Z"/><path class="cls-1" d="m1024.85,248.88c.14.08.21.26.11.4-.43.67-.88,1.28-.7,2.11.14.62.26,1.04,0,1.65-.34.79-.51,1.53-.72,2.36-.13.53-.28,1.18-.69,1.59-.7.71-1.94.38-2.78.18-.79-.2-1.53-.15-2.34-.1-.66.04-1.27-.03-1.92-.16-.78-.16-1.55-.14-2.33-.25-.74-.1-1.48-.31-2.23-.44-1.1-.2-2.23-.13-2.91-1.19-.49-.76-.71-1.93-.45-2.8.16-.51.47-.95.77-1.39.33-.49.59-1.02.9-1.52.66-1.06,1.16-2.3,2.14-3.12.71-.58,1.74-1.25,2.7-1.37.02-.05.05-.09.11-.08.07,0,.14.04.21.06h.02s.07.02.1.04h0c.32.19.61.54.84.77.38.38.74.75,1.06,1.17.38.49.75.96,1.38,1.11.67.16,1.37,0,2.04.05,1.02.05,2.02.33,2.98.64.29.1.81.21,1.15.44.05-.22.36-.36.53-.15Zm-.71.78s-.03-.05-.04-.09c0,.06-.02,0-.06-.03-.05-.05-.14-.08-.21-.12-.16-.08-.33-.15-.49-.21-.33-.13-.66-.23-1-.33-.5-.15-1.02-.28-1.55-.36-.62-.08-1.24-.04-1.87-.04-1.07,0-1.79-.38-2.43-1.22-.32-.41-.65-.81-1.01-1.19-.2-.22-.41-.44-.62-.65-.09-.09-.19-.18-.28-.28-.6.11-1.21.44-1.72.73-.61.35-1.24.82-1.64,1.42-.33.5-.57,1.06-.89,1.58-.33.54-.63,1.08-.94,1.63-.52.94-1.26,1.69-1.09,2.85.16,1.04.57,1.98,1.69,2.21.6.12,1.24.14,1.85.25.67.11,1.35.3,2.03.36.57.05,1.14.03,1.7.13.66.12,1.28.25,1.97.23.6-.03,1.22-.11,1.83-.05.56.05,1.08.25,1.63.34.46.07,1.1.16,1.48-.19.39-.37.51-1.03.66-1.52.16-.56.31-1.14.54-1.67.27-.67.46-1.03.27-1.74-.11-.38-.2-.74-.12-1.15.06-.3.19-.6.33-.88Z"/><path class="cls-1" d="m1024.1,249.56s.02.06.04.09c-.14.28-.27.58-.33.88-.08.4,0,.76.12,1.15.19.71,0,1.07-.27,1.74-.23.53-.38,1.11-.54,1.67-.15.49-.27,1.15-.66,1.52-.38.35-1.02.27-1.48.19-.55-.09-1.07-.28-1.63-.34-.61-.05-1.23.03-1.83.05-.69.02-1.31-.11-1.97-.23-.57-.1-1.14-.08-1.7-.13-.68-.05-1.36-.25-2.03-.36-.61-.11-1.25-.13-1.85-.25-1.12-.23-1.53-1.17-1.69-2.21-.17-1.16.57-1.91,1.09-2.85.31-.55.61-1.09.94-1.63.32-.51.56-1.07.89-1.58.4-.6,1.03-1.07,1.64-1.42.51-.29,1.13-.62,1.72-.73.09.1.19.19.28.28.21.21.42.43.62.65.36.38.69.78,1.01,1.19.64.84,1.36,1.22,2.43,1.22.63,0,1.25-.05,1.87.04.53.07,1.04.21,1.55.36.34.1.67.2,1,.33.16.06.34.13.49.21.07.04.16.07.21.12.05.03.07.09.06.03Z"/><path class="cls-1" d="m1075.52,218.27c.88,1.47-1.18,3.31-2.02,4.28-.42.49-.71.98-.92,1.58-.14.38-.26.78-.44,1.15-.17.36-.42.71-.77.93-.38.21-.83.23-1.22.42-.8.41-1.46,1.05-2.4.7-.61-.22-1.06-.28-1.71-.17-.45.07-.89.16-1.34.09-1.53-.21-2.69-1.58-4.18-1.82-.04.03-.07.07-.13.08-.69.1-1.55-.11-2.15.27-.52.34-.86.89-1.4,1.22-1.09.69-2.47.56-3.71.59-.61,0-1.23.13-1.84.05-.52-.06-.93-.32-1.35-.63-.86-.67-1.83-1.12-2.47-2.04-.41-.61-.68-1.17-1.43-1.38-.47-.13-.87-.24-1.18-.63-.25-.31-.42-.62-.73-.89-.21-.18-.4-.36-.58-.59-.38-.51-.58-1.16-.99-1.65-.82-.99-2.56-1.21-3.72-1.53-.73-.21-1.48-.4-2.21-.6-.55-.15-.97-.36-1.41-.72-.92-.8-1.75-1.73-2.81-2.35-.61-.35-1.24-.64-1.83-1.04-.53-.35-1.04-.72-1.59-1.04-.12-.07-.05-.22.05-.24.44-.75,1.35-.98,2.13-1.23,1.12-.36,2.27-.77,3.35-1.24,1.09-.48,2.21-.93,3.26-1.48.9-.47,1.87-.93,2.64-1.59.47-.39.67-.86.94-1.38.22-.41.5-.78.79-1.15.62-.82.98-1.64,1.07-2.68.1-1.17.06-2.36-.21-3.51-.13-.56-.31-1.12-.45-1.69-.13-.53-.16-1.08-.26-1.62-.19-1.14-.5-2.37-1.01-3.41-.33-.67-.96-1.36-1.12-2.1-.04-.15.05-.27.16-.32l.03-.03c1.17-.53,2.66-.82,3.88-.31.82.36,1.62.92,2.32,1.48.6.48,1.3.98,1.77,1.59.44.58.6,1.29.86,1.95.19.47.39.84.89,1.02.33.12.61.2.91.4.7.47,1.36,1.01,2.1,1.41.79.43,1.67.67,2.47,1.05.73.35,1.42.82,2.02,1.37.62.56,1.03,1.26,1.47,1.97.49.8,1.09,1.23,1.88,1.7.81.49,1.55.63,2.47.72.9.08,1.79.08,2.69.12.71.02,1.4.19,1.98.62,1.08.8,1.73,2.16,2.09,3.43.49,1.71.33,3.51.65,5.26.23,1.26.72,2.44,1.18,3.63.1.14.19.28.3.42.38.49.7.68,1.32.74.71.08,1.5.13,1.92.81Zm-.63,1.54c.22-.42.4-1,0-1.38-.27-.27-.72-.28-1.08-.31-.48-.05-.91-.11-1.29-.32-.02.1-.14.17-.22.11-.43-.32-.7-.82-.93-1.33-.14-.21-.24-.43-.3-.67-.03-.07-.05-.15-.09-.22-.41-.91-.8-1.81-.97-2.8-.32-1.85-.21-3.74-.77-5.54-.4-1.28-1.05-2.89-2.52-3.22-.82-.18-1.76-.1-2.6-.17-.77-.06-1.59-.11-2.33-.33-.71-.21-1.37-.67-1.97-1.09-.6-.43-1-.94-1.38-1.58-.47-.78-.94-1.48-1.67-2.04-.71-.56-1.51-.94-2.36-1.26-.76-.27-1.47-.61-2.14-1.07s-1.32-1.12-2.09-1.4c-.6-.22-.98-.43-1.27-1.03-.31-.61-.43-1.32-.77-1.92-.37-.65-1.04-1.11-1.6-1.59-.66-.57-1.41-1.11-2.17-1.54-1.08-.61-2.46-.45-3.61-.02h0c.08.42.41.82.62,1.18.32.54.6,1.09.8,1.68.19.6.37,1.22.51,1.83.16.68.19,1.37.31,2.05.2,1.11.61,2.15.74,3.28.12,1.04.11,2.15-.07,3.19-.16.87-.58,1.66-1.15,2.34-.39.46-.68.91-.95,1.45-.19.4-.44.74-.77,1.04-.77.7-1.73,1.15-2.65,1.63-1.05.56-2.17,1-3.26,1.48-1.02.46-2.11.8-3.15,1.19-.79.28-1.7.41-2.29,1.04.57.31,1.12.66,1.68,1,.6.35,1.26.59,1.84.96.5.31.95.71,1.4,1.11.56.5,1.14,1.15,1.85,1.45.65.26,1.37.34,2.04.54.63.18,1.26.35,1.91.52.99.27,2.24.59,2.9,1.45.43.55.61,1.26,1.08,1.79.2.23.48.38.69.61.17.18.28.41.44.62.42.55,1.16.43,1.7.82.39.28.64.71.91,1.1.63.98,1.67,1.51,2.6,2.16.67.46,1.3.4,2.06.34.55-.05,1.09-.05,1.64-.07.63-.02,1.26-.09,1.86-.31.56-.2.93-.59,1.37-.98.9-.81,1.84-.96,3.02-.74.09.02.15.06.19.14,1.48.12,2.66,1.5,4.15,1.75.89.14,1.77-.36,2.67-.08.25.07.48.23.73.27.33.05.61-.06.9-.22.36-.21.71-.45,1.08-.61.5-.21,1.02-.2,1.37-.68.26-.37.38-.81.52-1.24.27-.82.65-1.48,1.22-2.14.61-.69,1.24-1.37,1.66-2.21Z"/><path class="cls-1" d="m1074.88,218.42c.4.38.22.96,0,1.38-.42.83-1.04,1.52-1.66,2.21-.57.65-.94,1.32-1.22,2.14-.14.43-.27.87-.52,1.24-.35.48-.86.47-1.37.68-.38.16-.72.4-1.08.61-.28.16-.57.27-.9.22-.26-.05-.49-.2-.73-.27-.9-.27-1.78.22-2.67.08-1.49-.25-2.67-1.63-4.15-1.75-.05-.07-.1-.12-.19-.14-1.17-.22-2.12-.06-3.02.74-.43.39-.81.78-1.37.98-.6.22-1.23.29-1.86.31-.55.02-1.09.02-1.64.07-.76.06-1.39.12-2.06-.34-.93-.65-1.97-1.18-2.6-2.16-.27-.39-.51-.82-.91-1.1-.53-.38-1.27-.27-1.7-.82-.16-.21-.27-.44-.44-.62-.21-.23-.49-.38-.69-.61-.47-.53-.65-1.24-1.08-1.79-.66-.86-1.91-1.17-2.9-1.45-.64-.17-1.27-.34-1.91-.52-.67-.2-1.39-.28-2.04-.54-.71-.29-1.29-.94-1.85-1.45-.45-.39-.9-.8-1.4-1.11-.59-.38-1.25-.61-1.84-.96-.56-.34-1.11-.69-1.68-1,.59-.63,1.5-.76,2.29-1.04,1.04-.39,2.14-.73,3.15-1.19,1.09-.49,2.21-.93,3.26-1.48.92-.48,1.88-.93,2.65-1.63.33-.29.58-.63.77-1.04.27-.54.56-.99.95-1.45.58-.68,1-1.47,1.15-2.34.18-1.04.19-2.14.07-3.19-.13-1.13-.54-2.17-.74-3.28-.12-.69-.16-1.37-.31-2.05-.15-.61-.32-1.23-.51-1.83-.2-.59-.48-1.14-.8-1.68-.21-.37-.54-.76-.62-1.17h0c1.15-.44,2.53-.6,3.61,0,.76.43,1.51.97,2.17,1.54.56.49,1.24.94,1.6,1.59.34.6.46,1.31.77,1.92.29.6.68.81,1.27,1.03.77.28,1.42.94,2.09,1.4s1.37.8,2.14,1.07c.85.32,1.65.71,2.36,1.26.72.57,1.2,1.26,1.67,2.04.38.63.78,1.15,1.38,1.58.6.42,1.26.88,1.97,1.09.74.22,1.56.27,2.33.33.84.07,1.78,0,2.6.17,1.47.33,2.12,1.93,2.52,3.22.56,1.81.45,3.69.77,5.54.17.98.56,1.89.97,2.8.04.07.06.15.09.22.06.24.16.46.3.67.23.51.49,1.01.93,1.33.08.06.2,0,.22-.11.38.21.82.27,1.29.32.36.03.81.05,1.08.31Z"/><path class="cls-1" d="m1066.86,160.41c.45,1.64,1.23,3.35.87,5.1-.21,1.04-.5,2.05-.72,3.09-.17.86-.27,1.8-.63,2.61-.56,1.25-1.81,1.94-3.13,2.08-1.84.2-3.45-.71-5.18-1.16-.59-.16-1.25-.19-1.75-.57-.6-.46-.85-1.3-1.18-1.95-.4-.8-.72-1.62-1.13-2.42-.45-.88-1.07-1.37-1.9-1.88-1.65-1.03-3.49-1.64-5.21-2.55-.74-.4-1.51-.82-2.05-1.48-.49-.6-.88-1.29-1.3-1.93-.24-.38-.38-.77-.54-1.18-.19-.52-.48-.92-.82-1.35-.6-.72-1.27-1.38-1.96-2.03-.71-.68-1.48-1.31-2.17-2.02-.34-.36-.61-.79-.99-1.11-.27-.25-.6-.39-.84-.67-.09-.1-.1-.21-.07-.31,0-.02,0-.04-.02-.05-.19-.85.65-1.84,1.07-2.48.8-1.21,1.23-2.74,1.37-4.17.19-1.81-.46-3.68-.81-5.43-.16-.79-.28-1.58-.18-2.37s.27-1.55.21-2.36c0-.1.15-.14.19-.05v.02c.74-.48,1.5-.9,2.31-1.24.89-.37,1.81-.54,2.73-.77.83-.21,1.75-.67,2.62-.6.71.06,1.09.59,1.66.93.75.46,1.91.05,2.7-.14.82-.19,1.71-.49,2.57-.27.7.17,1.14.68,1.59,1.2,1.25,1.41,3.03,1.45,4.77,1.75.82.15,1.77.85,2.6.65.71-.18,1.14-.16,1.76.27.62.44.99,1.11,1.37,1.75.49.81,1.09,1.36,1.78,1.98.58.51,1.09,1.11,1.17,1.91.05.43-.04.86-.06,1.29-.04.49-.05.97-.1,1.46-.11.94-.43,1.79-.72,2.68-.33,1.04-.32,1.9,0,2.91.28.9.63,1.8.85,2.7.19.79.1,1.56-.07,2.35-.42,1.92-1.18,3.84-.64,5.81Zm.32,4.66c.1-.88-.11-1.77-.35-2.61-.23-.82-.55-1.64-.71-2.48-.16-.86-.09-1.72.08-2.58.32-1.64,1.17-3.47.69-5.15-.44-1.54-1.34-3.16-1.05-4.8.16-.91.57-1.74.79-2.63.23-.93.22-1.9.3-2.84.05-.47.05-.92-.19-1.34-.21-.36-.53-.65-.83-.93-.59-.51-1.15-1-1.59-1.67-.44-.69-.79-1.5-1.49-1.97-.42-.28-.65-.25-1.13-.13-.3.07-.6.06-.91,0-.8-.16-1.49-.57-2.31-.7-.78-.13-1.58-.2-2.35-.4-.72-.2-1.41-.52-1.97-1.01-.52-.45-.86-1.14-1.5-1.42-.88-.39-1.96.05-2.84.26-.71.16-1.54.37-2.25.22-.65-.14-1.01-.69-1.57-.97-.79-.39-1.92.21-2.71.4-.89.21-1.81.34-2.68.62-.88.29-1.71.71-2.52,1.16.14.52.05,1.11-.02,1.62-.11.89-.04,1.7.16,2.58.37,1.67.97,3.37,1.01,5.09.02.85-.16,1.7-.38,2.52-.16.63-.32,1.31-.62,1.9-.25.49-.58.93-.86,1.38-.15.23-.7.96-.56,1.26.05.08.05.16.05.23.22.18.46.33.67.51.31.29.56.65.84.97,1.24,1.35,2.69,2.47,3.9,3.84.54.62,1.03,1.23,1.31,2.01.3.84.82,1.54,1.29,2.3.94,1.5,2.73,2.18,4.29,2.88,1.51.68,3.29,1.3,4.54,2.44.54.49.87,1.16,1.15,1.82.36.81.74,1.58,1.14,2.36.33.66.52,1.22,1.28,1.42.77.2,1.54.36,2.3.6,1.55.51,3.24.98,4.81.27,1.6-.71,1.7-2.63,2.08-4.13.24-.94.59-1.93.71-2.91Z"/><path class="cls-1" d="m1066.83,162.46c.24.84.45,1.73.35,2.61-.12.97-.47,1.96-.71,2.91-.38,1.5-.48,3.43-2.08,4.13-1.57.71-3.26.24-4.81-.27-.76-.25-1.53-.4-2.3-.6-.76-.2-.95-.76-1.28-1.42-.39-.79-.78-1.56-1.14-2.36-.28-.66-.61-1.33-1.15-1.82-1.25-1.14-3.02-1.76-4.54-2.44-1.56-.7-3.35-1.37-4.29-2.88-.48-.76-.99-1.46-1.29-2.3-.28-.78-.77-1.38-1.31-2.01-1.21-1.37-2.67-2.49-3.9-3.84-.28-.32-.53-.68-.84-.97-.21-.18-.45-.33-.67-.51,0-.07,0-.15-.05-.23-.14-.29.41-1.03.56-1.26.28-.46.61-.9.86-1.38.3-.59.46-1.26.62-1.9.22-.82.39-1.67.38-2.52-.04-1.71-.64-3.42-1.01-5.09-.19-.88-.27-1.69-.16-2.58.06-.51.16-1.1.02-1.62.81-.46,1.64-.87,2.52-1.16.87-.28,1.79-.41,2.68-.62.79-.19,1.92-.8,2.71-.4.56.28.92.83,1.57.97.71.15,1.55-.06,2.25-.22.88-.2,1.96-.65,2.84-.26.64.28.98.97,1.5,1.42.56.49,1.25.81,1.97,1.01.77.2,1.57.27,2.35.4.82.13,1.51.53,2.31.7.31.06.6.07.91,0,.48-.12.71-.16,1.13.13.71.47,1.05,1.28,1.49,1.97.44.67,1,1.15,1.59,1.67.3.27.62.57.83.93.25.42.24.87.19,1.34-.08.94-.07,1.92-.3,2.84-.22.89-.63,1.72-.79,2.63-.28,1.64.61,3.26,1.05,4.8.49,1.68-.37,3.51-.69,5.15-.17.86-.24,1.72-.08,2.58.16.84.48,1.66.71,2.48Z"/></svg>