<?xml version="1.0" encoding="UTF-8"?><svg id="Tree_04_-_Leaves_03" xmlns="http://www.w3.org/2000/svg" viewBox="0 0 1160 418.25"><defs><style>.cls-1{fill:#c6d604;stroke-width:0px;}</style></defs><path class="cls-1" d="m1043.74,196.22c.58,2.35,1.19,4.61.57,7.03-.27,1.04-.93,1.72-1.67,2.47-.79.79-1.37,1.76-2.18,2.53-.86.83-1.83,1.09-2.96,1.4-.35.1-.66.23-.95.38,0,.05,0,.1-.03.14-.2.19-.43.28-.67.42-.27.16-.5.38-.8.53-.62.31-1.32.44-1.99.63-1.39.4-3,.74-4.24,1.52-1.06.66-1.5,1.76-2.31,2.66-.81.91-1.89,1.39-3,1.83-1.2.48-2.3,1.16-2.71,2.44-.44,1.34-.32,2.78-.59,4.14-.42,2.18-3.12,2.95-4.99,3.45-.73.19-1.45.42-2.18.6-.5.13-1.01.27-1.53.18-1.1-.18-1.9-1.18-3.06-1.1-.62.04-1.22.27-1.85.21-.51-.05-.98-.31-1.39-.6-.82-.59-1.38-1.39-1.68-2.35-.2-.67-.28-1.45-.69-2.03-.29-.42-.72-.76-1.06-1.14-.76-.85-1.33-1.77-1.73-2.83-.49-1.29-1.16-2.2-2.31-2.97-.99-.66-1.78-1.52-2.58-2.4-.79-.87-1.74-1.48-2.91-1.69-1.24-.23-2.52-.17-3.78-.32-.74-.08-1.83-.16-2.36-.79-.07-.09-.13-.19-.16-.29-.07-.02-.13-.08-.11-.18.13-.46-.04-1.01-.11-1.46-.06-.42-.09-.84-.11-1.26-.05-1.12.02-2.19.74-3.09.67-.83,1.52-1.2,2.5-1.53,1.32-.45,1.88-1.57,2.65-2.63.56-.75,1.34-1.19,1.96-1.87.6-.67.83-1.59,1.57-2.16.71-.55,1.48-.53,2.31-.29.59.16,1.15.34,1.75.17.44-.13.83-.36,1.26-.51,2.08-.8,3.87.76,5.56,1.71.99.56,2.02,1.03,3.13,1.26.7.14,2.01.85,2.61.25.81-.81.22-2.03-.39-2.69-.59-.65-1.44-1.26-1.76-2.11-.29-.78.16-1.55.16-2.34,0-1.06-.6-2-.5-3.07.08-1.03.58-1.81,1.15-2.62.53-.77.89-1.57.8-2.52-.05-.6-.32-1.41.04-1.97.05-.1.13-.16.21-.22.26-.7.76-1.17,1.41-1.69,1.01-.8,1.86-1.81,3.08-2.3,1.18-.49,2.48-.35,3.67.05.69.23,1.36.67,2.06.8.72.13,1.48-.05,2.2-.1,1.13-.06,2.38-.16,3.42.41.76.42,1.14,1.18,1.4,1.98.18.53.36,1.01.9,1.26.38.17.8.24,1.2.35,1.09.3,2.02,1.02,3.12,1.31,1.98.51,4.48,0,6.22,1.33.76.57.79,1.44.75,2.32-.02.6-.02,1.18.27,1.73.22.43.57.78.89,1.15.68.76,1.14,1.5,1.26,2.54.08.64.06,1.29.13,1.93.06.67.22,1.33.38,1.99Zm.32,5.09c.16-2.36-.92-4.55-1.16-6.86-.13-1.19.07-2.46-.55-3.54-.45-.77-1.22-1.28-1.65-2.06-.47-.82-.31-1.66-.32-2.55-.02-1.24-.9-1.69-1.97-1.96-.98-.26-1.98-.32-2.99-.38-1.1-.06-2.06-.25-3.04-.74-.54-.27-1.07-.56-1.66-.74-.35-.1-.71-.16-1.06-.28-.7-.22-1.15-.65-1.41-1.35-.37-1.02-.67-1.91-1.81-2.25-1.12-.34-2.4-.16-3.54-.05-.54.05-1.1.1-1.63-.05-.55-.15-1.05-.46-1.59-.65-1.21-.45-2.53-.67-3.75-.11-1.02.47-1.82,1.3-2.7,1.98-.73.58-1.37,1.1-1.61,2h0s0,0,0,0c-.02.07-.05.13-.06.2-.07.35.05.82.09,1.12.12.86,0,1.68-.4,2.45-.54,1.02-1.37,1.81-1.5,3.02-.13,1.13.54,2.14.45,3.26-.04.45-.18.87-.25,1.31-.07.55.15.94.5,1.36.6.68,1.38,1.24,1.84,2.04.61,1.08.15,2.96-1.3,2.9-.8-.04-1.63-.38-2.4-.58-.98-.24-1.9-.68-2.77-1.17-.95-.53-1.87-1.26-2.91-1.63-.51-.19-1.08-.31-1.63-.26-.54.05-1.01.31-1.5.51-.86.37-1.55.3-2.43.05-.65-.18-1.27-.29-1.88.1-.38.26-.65.64-.88,1.02-.22.36-.39.75-.67,1.07-.29.34-.65.6-1,.87-.82.65-1.33,1.53-1.94,2.36-.52.7-1.07,1.15-1.9,1.45-1.06.38-2.02.76-2.63,1.79-.55.93-.47,2.16-.38,3.2.59.63-.18,1.81.62,2.26.94.52,2.29.5,3.35.57,1.26.06,2.55.07,3.71.62s1.89,1.56,2.78,2.46c.46.47.95.9,1.5,1.26.42.28.84.53,1.2.9.76.79,1.11,1.76,1.52,2.75.47,1.15,1.26,2.05,2.11,2.92.84.86.89,1.9,1.29,2.98.39,1.02,1.46,2.23,2.64,2.25.62,0,1.23-.22,1.85-.22.45,0,.87.12,1.27.31.49.23.94.57,1.47.72.64.19,1.3-.04,1.92-.2,1.32-.35,2.72-.62,3.96-1.2.92-.43,2.13-1.05,2.46-2.08.4-1.26.22-2.67.53-3.95.25-1.04.79-1.85,1.68-2.47.91-.62,2.01-.85,2.91-1.46,1.01-.67,1.47-1.64,2.18-2.57.57-.74,1.26-1.27,2.14-1.61,1.25-.49,2.56-.87,3.84-1.24.61-.17,1.21-.38,1.81-.6.11-.04.24-.07.36-.11.19-.14.38-.28.58-.41.5-.35,1.06-.6,1.64-.79.64-.23,1.3-.4,1.89-.77.52-.32.93-.77,1.33-1.23.37-.41.69-.86,1.07-1.26.4-.42.85-.81,1.24-1.26.82-.96,1.07-2.2,1.15-3.43Z"/><path class="cls-1" d="m1042.9,194.44c.25,2.32,1.32,4.5,1.16,6.86-.07,1.23-.33,2.47-1.15,3.43-.38.45-.83.83-1.24,1.26-.38.39-.71.84-1.07,1.26-.39.46-.81.91-1.33,1.23-.59.37-1.25.54-1.89.77-.58.19-1.14.44-1.64.79-.19.13-.38.27-.58.41-.12.04-.25.07-.36.11-.6.22-1.2.42-1.81.6-1.28.37-2.59.75-3.84,1.24-.87.34-1.57.87-2.14,1.61-.71.93-1.17,1.9-2.18,2.57-.91.6-2.01.83-2.91,1.46-.89.61-1.43,1.42-1.68,2.47-.31,1.28-.13,2.69-.53,3.95-.33,1.03-1.54,1.65-2.46,2.08-1.24.58-2.64.85-3.96,1.2-.62.16-1.28.39-1.92.2-.52-.16-.97-.49-1.47-.72-.4-.19-.82-.31-1.27-.31-.62,0-1.23.23-1.85.22-1.18-.02-2.25-1.23-2.64-2.25-.4-1.08-.45-2.12-1.29-2.98-.85-.87-1.64-1.78-2.11-2.92-.41-.99-.76-1.96-1.52-2.75-.36-.37-.78-.61-1.2-.9-.55-.37-1.04-.8-1.5-1.26-.89-.9-1.61-1.91-2.78-2.46s-2.46-.56-3.71-.62c-1.05-.06-2.4-.05-3.35-.57-.81-.45-.04-1.63-.62-2.26-.09-1.04-.17-2.27.38-3.2.61-1.03,1.57-1.41,2.63-1.79.82-.29,1.37-.75,1.9-1.45.61-.83,1.12-1.71,1.94-2.36.35-.27.71-.53,1-.87.27-.32.45-.71.67-1.07.23-.38.5-.76.88-1.02.6-.39,1.23-.28,1.88-.1.88.26,1.57.32,2.43-.05.49-.2.96-.46,1.5-.51.55-.05,1.12.06,1.63.26,1.04.37,1.95,1.1,2.91,1.63.87.49,1.79.93,2.77,1.17.77.19,1.6.54,2.4.58,1.45.06,1.92-1.81,1.3-2.9-.46-.81-1.24-1.37-1.84-2.04-.36-.41-.58-.81-.5-1.36.06-.44.21-.86.25-1.31.09-1.12-.58-2.14-.45-3.26.14-1.21.96-2,1.5-3.02.41-.77.52-1.59.4-2.45-.05-.29-.16-.77-.09-1.12.02-.07.05-.13.06-.2h0c.25-.91.88-1.43,1.61-2.01.88-.68,1.69-1.51,2.7-1.98,1.22-.56,2.54-.34,3.75.11.53.19,1.04.5,1.59.65.53.15,1.09.1,1.63.05,1.14-.11,2.42-.28,3.54.05,1.14.35,1.44,1.24,1.81,2.25.26.7.71,1.13,1.41,1.35.35.12.71.18,1.06.28.59.18,1.12.47,1.66.74.98.49,1.94.68,3.04.74,1.01.06,2.01.13,2.99.38,1.07.27,1.95.72,1.97,1.96,0,.89-.15,1.73.32,2.55.43.78,1.2,1.29,1.65,2.06.62,1.08.42,2.35.55,3.54Z"/><path class="cls-1" d="m1042.26,238.65c.52,1.29.3,2.42-.24,3.67-.59,1.36-1.8,2.24-2.25,3.67-.23.71-.17,1.48-.54,2.15-.31.55-.77.97-1.02,1.58-.23.59-.44,1.1-.94,1.51-.44.37-.93.71-1.46.95-.61.27-1.26.46-1.92.49-.76.05-1.46.05-2.19.29-.58.19-1.21.38-1.81.19-.43-.14-.71-.48-1-.81-.58-.63-1.22-.8-2.05-.85-.65-.04-.99-.16-1.56-.49-.71-.41-1.55-.79-2.32-1.06-.6-.21-1.21-.35-1.8-.6-.8-.36-1.47-.54-2.35-.48-.61.05-1.3.25-1.9.03-.46-.16-.78-.52-1.06-.9-.37-.47-.85-.82-1.2-1.29-.38-.53-.5-1.17-.6-1.8-.11-.63-.28-1.21-.14-1.85,0-.05.05-.07.08-.09.38-1.52,1.82-2.81,3.32-3.35.75-.27,1.56-.38,2.26-.79.73-.42,1.31-1.05,2.02-1.5,1.37-.86,3.02-1.26,4.46-1.95,2.68-1.3,5.3-3.01,8.29-3.46,1.24-.18,2.49-.08,3.61.5,1.08.57,1.79,1.55,2.44,2.56.73,1.15,1.37,2.41,1.87,3.67Zm-.32,2.28c.34-1.31-.32-2.44-.85-3.59-.55-1.2-1.23-2.44-2.08-3.45-1.86-2.2-4.8-1.79-7.2-.83-2.5,1-4.77,2.49-7.27,3.48-1.28.5-2.47.92-3.56,1.81-.49.38-.97.79-1.54,1.05-.55.26-1.14.37-1.7.54-1.07.32-2.09.96-2.75,1.88-.44.61-.65,1.27-.69,1.96.13.56.37,1.13.51,1.64.19.7.52,1.1,1.02,1.6.39.39.69,1.02,1.19,1.27.61.3,1.54,0,2.21.02.64,0,1.17.18,1.75.46.68.32,1.37.55,2.08.82.68.26,1.34.58,1.99.88.28.14.54.31.82.47.42.22.87.17,1.33.22.48.05.99.13,1.41.38.38.22.63.57.96.85.6.51,1.32.29,1.99.05.58-.2,1.15-.29,1.75-.31,1.35-.03,2.58-.33,3.65-1.2.55-.45.7-1.03.97-1.65.23-.5.62-.89.89-1.37.34-.62.28-1.37.51-2.03.17-.51.41-1.03.7-1.48.34-.54.82-.97,1.15-1.51.37-.58.61-1.28.78-1.94Z"/><path class="cls-1" d="m1041.09,237.34c.53,1.15,1.19,2.28.85,3.59-.16.66-.41,1.37-.78,1.94-.33.54-.81.97-1.15,1.51-.28.46-.52.97-.7,1.48-.23.66-.17,1.41-.51,2.03-.27.48-.66.86-.89,1.37-.27.62-.42,1.2-.97,1.65-1.07.87-2.3,1.17-3.65,1.2-.6.02-1.17.11-1.75.31-.67.24-1.38.46-1.99-.05-.33-.28-.58-.63-.96-.85-.42-.25-.93-.32-1.41-.38-.46-.05-.91,0-1.33-.22-.27-.16-.53-.33-.82-.47-.65-.3-1.31-.62-1.99-.88-.71-.27-1.4-.49-2.08-.82-.58-.27-1.11-.45-1.75-.46-.67,0-1.59.28-2.21-.02-.5-.26-.8-.88-1.19-1.27-.49-.5-.82-.91-1.02-1.6-.15-.51-.38-1.08-.51-1.64.04-.69.25-1.35.69-1.96.66-.92,1.68-1.56,2.75-1.88.57-.17,1.15-.28,1.7-.54.57-.27,1.05-.67,1.54-1.05,1.09-.89,2.28-1.3,3.56-1.81,2.5-.99,4.77-2.48,7.27-3.48,2.4-.95,5.34-1.37,7.2.83.85,1.02,1.53,2.25,2.08,3.45Z"/><path class="cls-1" d="m1004.36,182.05c0,1.05.26,2.17-.18,3.18-.36.82-1.09,1.15-1.94,1.26-.99.12-1.98.06-2.89.57-.49.27-.94.68-1.25,1.16-.28.45-.44.99-.7,1.46-.28.51-.55,1.03-.73,1.58-.15.44-.29.82-.6,1.17-.05.07-.13.1-.19.1h0c-.32.79-.72,1.46-1.33,2.04-.59.58-1.3,1.04-2.05,1.37-.71.32-1.49.35-2.26.4-1.7.12-3.21-.03-4.77-.72-1.21-.53-1.78-1.39-2.31-2.57-.57-1.26-1.33-2.3-2.63-2.87-.71-.31-1.48-.43-2.25-.6-.74-.16-1.35-.46-2.01-.82-.67-.37-1.33-.6-2.08-.73-.48-.07-.96-.14-1.42-.29-1.21-.4-1.65-1.33-1.71-2.56-.04-.86.12-1.71.17-2.57.05-.9-.07-1.78-.22-2.67-.16-.91-.33-1.81-.44-2.73-.05-.41-.05-.82-.05-1.24-.02-.03-.04-.05-.04-.08-.09-.93-.24-2.34.48-3.07.6-.6,1.55-.62,2.3-.87.52-.16,1.26-.36,1.58-.83.33-.49.48-1.18.75-1.73.56-1.12,1.56-1.58,2.62-2.14.96-.5,1.77-.6,2.82-.45,1.34.19,2.75.41,4.09.11.61-.13,1.19-.37,1.81-.51.51-.13.97-.04,1.49,0,.55.05,1.11,0,1.65.16.39.13.75.35,1.07.6.82.68,1.41,1.6,2.31,2.2,1.1.71,2.36.79,3.61,1.05,1.22.26,2.41.66,3.56,1.11.93.36,2.08.69,2.82,1.39.63.6.38,1.39.16,2.12-.38,1.26.16,2.32.38,3.55.19,1.16.38,2.27.39,3.46Zm-.63,1.94c.09-1,.05-2.08,0-3.09-.06-1.17-.33-2.42-.65-3.55-.28-.96-.27-1.72.02-2.69.14-.46.3-.96-.04-1.38-.31-.38-.91-.6-1.34-.8-1.05-.48-2.16-.86-3.27-1.19-1.15-.35-2.33-.53-3.49-.82-.91-.21-1.7-.58-2.41-1.19-.74-.64-1.29-1.5-2.14-2.03-.59-.36-1.15-.35-1.8-.4-.58-.04-1.1-.17-1.67-.03-1.03.26-1.97.66-3.04.67-1.21,0-2.38-.26-3.58-.35-1.12-.09-2.07.58-3.01,1.09-1.12.6-1.45,1.6-1.91,2.72-.33.81-.98,1.04-1.74,1.32-.69.26-1.51.27-2.14.65-.73.43-.74,1.59-.75,2.47.14.61.16,1.26.27,1.89.14.83.29,1.67.45,2.51.16.85.3,1.7.27,2.58-.03.86-.19,1.71-.18,2.57,0,.76.12,1.59.82,2.03.38.24.84.32,1.28.39.52.1,1.05.16,1.57.32.61.2,1.15.55,1.71.85,1.19.65,2.6.61,3.84,1.16,1.05.46,1.84,1.25,2.37,2.26.52,1.01.84,2.25,1.87,2.89,1.33.82,3.01,1.05,4.53.96.83-.05,1.77,0,2.56-.29.64-.23,1.26-.62,1.79-1.04.65-.53,1.13-1.16,1.47-1.93.05-.12.11-.23.16-.35,0-.05,0-.1.03-.16.25-.48.35-1.04.56-1.53.23-.54.55-1.02.83-1.52.27-.47.43-.96.78-1.38.3-.38.68-.71,1.09-.97.8-.52,1.71-.67,2.65-.74.49-.04,1.03-.07,1.46-.32.57-.34.73-.95.79-1.58Z"/><path class="cls-1" d="m1003.72,180.9c.05,1.01.09,2.09,0,3.09-.05.62-.22,1.24-.79,1.58-.43.25-.97.28-1.46.32-.93.07-1.85.22-2.65.74-.41.27-.79.6-1.09.97-.35.42-.51.92-.78,1.38-.28.5-.6.98-.83,1.52-.21.49-.31,1.05-.56,1.53-.03.05-.04.1-.03.16-.05.12-.11.23-.16.35-.34.77-.82,1.4-1.47,1.93-.52.42-1.15.82-1.79,1.04-.79.29-1.72.25-2.56.29-1.52.09-3.2-.14-4.53-.96-1.03-.63-1.35-1.88-1.87-2.89-.53-1.02-1.32-1.81-2.37-2.26-1.24-.55-2.65-.51-3.84-1.16-.56-.3-1.1-.65-1.71-.85-.51-.16-1.04-.22-1.57-.32-.44-.07-.9-.16-1.28-.39-.7-.43-.81-1.26-.82-2.03,0-.85.16-1.7.18-2.57.03-.87-.12-1.72-.27-2.58-.16-.84-.31-1.68-.45-2.51-.11-.63-.14-1.27-.27-1.89,0-.88.02-2.03.75-2.47.63-.38,1.46-.39,2.14-.65.76-.28,1.41-.51,1.74-1.32.46-1.12.79-2.12,1.91-2.72.93-.51,1.89-1.18,3.01-1.09,1.2.09,2.37.36,3.58.35,1.07,0,2.02-.41,3.04-.67.57-.15,1.09,0,1.67.03.65.05,1.21.05,1.8.4.85.52,1.4,1.38,2.14,2.03.71.61,1.5.98,2.41,1.19,1.16.28,2.34.47,3.49.82,1.11.33,2.22.71,3.27,1.19.43.2,1.03.42,1.34.8.34.42.17.93.04,1.38-.29.96-.3,1.72-.02,2.69.32,1.13.59,2.37.65,3.55Z"/><path class="cls-1" d="m957.44,203.55c.18.68.18,1.39.15,2.09-.08,1.48-.08,3.02-.34,4.49-.27,1.44-.77,2.81-1.28,4.17-.28.77-.66,1.56-.74,2.38-.06.62.03,1.24.08,1.85.08,1.19-.13,2.27-.89,3.23-.41.5-.93.85-1.45,1.25-.54.41-1.02.85-1.48,1.37-.43.49-.88.89-1.52,1.07-.58.17-1.19.16-1.78.18-1.47.07-2.58.86-3.09,2.25-.22.61-.28,1.27-.43,1.92-.16.72-.37,1.45-.59,2.16-.46,1.48-.95,2.94-1.17,4.49-.19,1.37-.42,2.82-1.27,3.97-.68.92-1.74,1.56-2.87,1.75-.68.11-1.28.03-1.92-.2-.61-.22-1.22-.34-1.84-.5-.63-.17-1.02-.5-1.43-.98-.16-.19-.34-.4-.58-.51-.46-.21-.98-.02-1.45.05-.56.09-1.04.04-1.54-.23-.67-.36-1.15-.67-1.94-.72-.93-.06-1.75-.19-2.44-.88-.6-.6-.94-1.43-1.19-2.24-.29-.92-.47-1.87-.77-2.79-.18-.58-.44-1.07-.94-1.43-.47-.35-1.03-.56-1.55-.8-.92-.42-1.59-1.04-2.17-1.81-.04,0-.07-.02-.12-.04-.83-.55-1.23-1.32-1.07-2.32,0-.09.05-.17.06-.26s.05-.16.06-.25c.25-.83.71-1.6.94-2.45.16-.62.14-1.26.38-1.87.25-.6.74-1.04.99-1.63.33-.76.23-1.65.18-2.46-.04-.7-.06-1.4-.04-2.11.05-1.23.35-2.39,1.33-3.21.86-.72,1.92-1.26,2.85-1.88.56-.37,1.15-.75,1.57-1.27.5-.62.55-1.44.65-2.2.19-1.43.99-2.77.9-4.23-.09-1.27-.97-2.3-.48-3.6.45-1.18,1.51-2,2.02-3.15.39-.91,1.03-1.72,2.03-1.95,1.35-.3,2.68.37,4,.49,1.5.14,2.95-.38,4.47-.16,1.43.21,2.65.92,3.92,1.56,1.05.53,2.26,1.04,3.39.45,1.48-.78,2.43-2.64,4.23-2.77.9-.06,1.77.34,2.35,1.02.4.48.95.9,1.25,1.45.16.29.18.61.28.93.1.29.31.49.45.75.15.28.13.56.14.86.02.41.15.81.26,1.19.17.63.38,1.24.69,1.82.27.55.57,1.09.72,1.69Zm-.47,2.52c.05-.75.08-1.53-.12-2.26-.16-.6-.47-1.13-.76-1.68-.52-1.01-1.03-2.22-1.06-3.36,0-.42-.19-.58-.38-.91-.15-.26-.18-.53-.27-.8-.19-.66-.74-1.04-1.16-1.56-.58-.7-1.43-1.12-2.34-.81-.76.26-1.36.91-1.93,1.44-.6.54-1.22,1.08-2,1.35-.99.33-2.02.06-2.93-.37-1.21-.58-2.28-1.37-3.6-1.73-.7-.19-1.42-.27-2.14-.23-.75.04-1.49.21-2.25.25-1.38.05-2.67-.59-4.04-.58-1.3,0-1.81.93-2.3,1.98-.51,1.09-1.7,1.87-1.96,3.08-.16.69.16,1.35.38,1.99.18.57.27,1.13.22,1.72-.11,1.38-.75,2.65-.93,4.02-.15,1.18-.46,2.06-1.4,2.83-.82.67-1.75,1.26-2.65,1.8-.53.31-1.07.62-1.49,1.07-.48.52-.69,1.2-.76,1.89-.16,1.37.12,2.74.04,4.11-.04.63-.18,1.23-.54,1.77-.36.55-.74,1.01-.88,1.68-.12.56-.13,1.09-.33,1.63-.16.46-.38.9-.56,1.35-.16.36-.27.72-.35,1.08.03.26.1.52.27.78.3.48.64.97.99,1.41.77.96,1.77,1.32,2.81,1.88.91.49,1.44,1.15,1.75,2.13.5,1.57.61,3.65,1.9,4.82.84.76,1.89.49,2.88.81.59.18,1.04.65,1.62.82.66.2,1.34-.17,2.01-.13.49.04.83.27,1.16.61.45.48.72.85,1.41,1.02.67.16,1.28.34,1.93.55s1.28.2,1.93,0c3.11-.93,2.91-4.31,3.56-6.87.36-1.42.88-2.8,1.26-4.22.3-1.16.36-2.42.95-3.49.51-.9,1.4-1.6,2.43-1.81,1.31-.25,2.59.09,3.58-1.02.39-.45.74-.9,1.22-1.28.5-.39,1.08-.71,1.56-1.15,1.04-.97,1.15-2.17,1.03-3.52-.05-.58-.1-1.15-.02-1.74.1-.66.36-1.28.59-1.91.49-1.3,1-2.61,1.31-3.97.34-1.48.32-2.99.4-4.49Z"/><path class="cls-1" d="m956.86,203.8c.2.73.16,1.51.12,2.26-.08,1.5-.06,3.02-.4,4.49-.31,1.36-.82,2.67-1.31,3.97-.23.62-.49,1.25-.59,1.91-.08.59-.04,1.16.02,1.74.12,1.35,0,2.55-1.03,3.52-.48.44-1.05.75-1.56,1.15-.48.38-.82.83-1.22,1.28-.99,1.11-2.27.77-3.58,1.02-1.03.2-1.92.91-2.43,1.81-.6,1.07-.65,2.33-.95,3.49-.38,1.42-.9,2.8-1.26,4.22-.64,2.57-.45,5.94-3.56,6.87-.65.19-1.28.2-1.93,0s-1.26-.38-1.93-.55c-.69-.16-.96-.54-1.41-1.02-.33-.35-.68-.58-1.16-.61-.67-.05-1.35.33-2.01.13-.58-.17-1.04-.64-1.62-.82-.99-.32-2.03-.05-2.88-.81-1.28-1.17-1.39-3.25-1.9-4.82-.31-.97-.84-1.64-1.75-2.13-1.04-.56-2.04-.92-2.81-1.88-.35-.44-.69-.93-.99-1.41-.16-.26-.24-.52-.27-.78.07-.36.19-.72.35-1.08.18-.45.39-.89.56-1.35.2-.54.21-1.07.33-1.63.14-.67.52-1.13.88-1.68.36-.54.5-1.14.54-1.77.08-1.37-.19-2.74-.04-4.11.07-.69.28-1.37.76-1.89.42-.45.96-.76,1.49-1.07.9-.54,1.83-1.13,2.65-1.8.94-.77,1.26-1.65,1.4-2.83.18-1.37.82-2.64.93-4.02.05-.6-.04-1.15-.22-1.72-.21-.64-.53-1.3-.38-1.99.27-1.21,1.45-1.99,1.96-3.08.49-1.04,1-1.98,2.3-1.98,1.37,0,2.66.63,4.04.58.76-.04,1.5-.21,2.25-.25.72-.04,1.45.04,2.14.23,1.32.36,2.39,1.15,3.6,1.73.92.43,1.94.7,2.93.37.78-.27,1.4-.81,2-1.35.58-.53,1.17-1.18,1.93-1.44.91-.31,1.76.11,2.34.81.42.51.97.9,1.16,1.56.08.27.12.54.27.8.19.33.38.49.38.91.04,1.15.54,2.36,1.06,3.36.29.55.6,1.08.76,1.68Z"/><path class="cls-1" d="m928.58,185.24c.17.49.2,1,.13,1.5-.1.65-.41,1.25-.47,1.91-.05.6,0,1.18-.32,1.72-.25.42-.65.63-1.03.91-1.02.76-1.11,2.22-1.8,3.24-.61.92-1.47,1.54-2.39,2.09-.56.34-1.15.66-1.59,1.15-.46.49-.71,1.14-.87,1.79-.29,1.24-.18,2.48-.68,3.67-.5,1.22-1.36,1.98-2.28,2.86-.92.87-1.44,2.03-2.38,2.88-.98.86-2.06,1.57-2.54,2.85-.46,1.26-.38,2.65-.22,3.96.08.65.17,1.31.26,1.96.08.66.27,1.28.4,1.92.23,1.14,0,2.43-.3,3.53-.27.97-.89,1.78-1.88,2.08-.89.27-1.8.04-2.42-.66-.91-1.03-2.35-1.79-3.76-1.49-.62.13-1.23.36-1.88.29-.46-.05-.93-.22-1.35-.41-.93-.44-1.57-1.19-2.06-2.08-.49-.87-1.22-1.56-1.92-2.27-.69-.7-1.41-1.43-1.84-2.33-.46-.94-.37-1.79-.21-2.8.13-.88.15-1.63,0-2.51-.11-.6-.12-1.23-.07-1.84.05-.6.11-1.2.27-1.78.1-.48.23-.94.32-1.42.28-1.52-.25-2.9-.4-4.39-.09-.81-.05-1.61-.06-2.42,0-.63-.12-1.29-.02-1.92.14-.92.86-1.38,1.44-2.03.86-.95,1.04-2.31,1.83-3.33.82-1.04,1.96-1.75,2.89-2.69,1.01-1.01,1.28-2.35,1.69-3.67.18-.61.38-1.22.65-1.81.27-.6.68-1.11,1.01-1.68.6-1.04.7-2.25,1.22-3.3.85-1.7,2.91-2.25,4.49-3.02.92-.44,1.7-1.09,2.74-1.23.66-.09,1.32,0,1.98-.03.68-.03,1.35-.16,2.01-.29,2.25-.49,4.84-1.28,7.06-.24.85.4,1.47,1.01,1.5,1.99.02.45-.05.9-.03,1.36.03.59.25,1.05.58,1.53.3.44.62.85.81,1.35.22.56.18,1.11.13,1.7-.05.43-.08.83.13,1.23.13.26.31.49.48.72.31.45.6.93.78,1.46Zm-.54,1.72c.16-.64.1-1.26-.18-1.87-.46-.99-1.37-1.72-1.33-2.9.04-.69.2-1.3-.09-1.96-.19-.43-.5-.8-.76-1.18-.58-.85-.63-1.66-.58-2.66.03-.41.06-.86-.18-1.23-.32-.49-.97-.77-1.51-.94-1.18-.37-2.47-.24-3.67-.03-1.17.21-2.33.53-3.5.71s-2.45-.11-3.58.27c-.52.17-.96.51-1.45.78-.36.19-.74.37-1.12.53-.85.38-1.75.72-2.52,1.26-.9.63-1.21,1.41-1.5,2.43-.16.54-.33,1.07-.57,1.59-.26.55-.6,1.02-.92,1.53-.67,1.08-.96,2.36-1.32,3.56-.36,1.17-.84,2.14-1.75,2.98-.89.82-1.97,1.51-2.69,2.52-.69.97-.9,2.2-1.68,3.13-.65.78-1.42,1.17-1.39,2.31.04,1.49-.05,3.04.22,4.52.18.99.34,1.96.27,2.96.08,0,.16.06.13.17-.09.34-.21.68-.32,1.02-.13.48-.27.94-.35,1.43-.03.2-.05.4-.06.6,0,.2.02.42.04.64.1,1.37.46,2.66.27,4.03-.14,1.09-.36,2,.21,3,.92,1.63,2.59,2.66,3.55,4.27.56.95,1.21,1.73,2.28,2.12,1.16.41,2.22-.22,3.37-.02,1.04.17,2.22.69,2.99,1.42.44.42.75.81,1.41.83.51.02,1.03-.17,1.42-.49.9-.74.97-2.25,1.11-3.32.09-.71-.11-1.38-.27-2.07-.13-.51-.19-1.03-.26-1.56-.3-2.31-.78-4.88.73-6.9.64-.86,1.59-1.42,2.36-2.16.87-.83,1.37-1.95,2.25-2.79.97-.92,1.74-1.81,2.1-3.13.32-1.15.21-2.38.6-3.53.36-1.04,1.02-1.78,1.93-2.36,1-.64,2.04-1.15,2.76-2.14.64-.89.78-2.03,1.42-2.9.31-.44.75-.67,1.15-1.01.6-.48.52-1.12.57-1.8.04-.6.27-1.12.4-1.69Z"/><path class="cls-1" d="m927.86,185.09c.28.6.34,1.23.18,1.87-.14.57-.37,1.09-.4,1.69-.05.68.03,1.32-.57,1.8-.4.34-.84.57-1.15,1.01-.64.87-.78,2.01-1.42,2.9-.71.98-1.76,1.49-2.76,2.14-.92.58-1.58,1.32-1.93,2.36-.39,1.15-.28,2.37-.6,3.53-.36,1.32-1.13,2.22-2.1,3.13-.88.83-1.38,1.95-2.25,2.79-.77.74-1.71,1.3-2.36,2.16-1.51,2.02-1.04,4.59-.73,6.9.06.53.13,1.04.26,1.56.16.69.37,1.36.27,2.07-.14,1.07-.21,2.58-1.11,3.32-.39.32-.91.51-1.42.49-.66-.03-.97-.41-1.41-.83-.77-.73-1.95-1.25-2.99-1.42-1.15-.2-2.21.43-3.37.02-1.07-.38-1.72-1.16-2.28-2.12-.95-1.61-2.63-2.64-3.55-4.27-.57-1-.35-1.91-.21-3,.18-1.37-.17-2.67-.27-4.03-.02-.22-.03-.44-.04-.64.02-.2.04-.4.06-.6.07-.49.22-.95.35-1.43.11-.34.23-.68.32-1.02.03-.11-.05-.17-.13-.17.06-1-.09-1.97-.27-2.96-.27-1.48-.18-3.02-.22-4.52-.03-1.14.74-1.53,1.39-2.31.78-.93.99-2.15,1.68-3.13.71-1.01,1.8-1.7,2.69-2.52.91-.84,1.39-1.81,1.75-2.98.36-1.21.65-2.48,1.32-3.56.31-.51.66-.98.92-1.53.24-.51.41-1.04.57-1.59.29-1.02.6-1.8,1.5-2.43.77-.54,1.67-.89,2.52-1.26.38-.16.76-.34,1.12-.53.49-.27.93-.6,1.45-.78,1.14-.38,2.41-.08,3.58-.27s2.33-.5,3.5-.71c1.2-.21,2.49-.34,3.67.03.54.17,1.19.46,1.51.94.25.37.21.82.18,1.23-.05,1,0,1.81.58,2.66.26.38.57.75.76,1.18.29.66.13,1.27.09,1.96-.05,1.17.87,1.91,1.33,2.9Z"/><path class="cls-1" d="m972.39,128.92c.32,2.02-.44,4.03-1.44,5.76-.67,1.15-1.14,2.31-1.49,3.58-.21.74-.38,1.48-.39,2.25-.02.67.04,1.35.07,2.02.05.99-.12,1.98-.64,2.84-.53.87-1.44,1.28-2.35,1.66-1.1.46-1.96,1.12-2.91,1.84-.93.71-1.92,1.19-3.09,1.44-2.49.51-5.12,0-7.58-.51-1.33-.27-2.58-.5-3.95-.49-1.14.03-2.27.09-3.4-.15-1.12-.23-2.08-1.06-3.26-.87-1,.16-1.9.73-2.84,1.08-2.04.77-3.99,0-5.57-1.37-.76-.66-1.48-1.48-1.93-2.37-.52-1.03-.49-2.21-.47-3.33.05-1.28.03-2.52-.48-3.72-.45-1.06-.61-2.28-1.22-3.26-.34-.54-.85-.82-1.37-1.09,0,0,0,.02,0,.03.05.14-.17.23-.24.1-.06-.15-.16-.27-.24-.39-.23-.14-.44-.29-.63-.49-.45-.47-.69-1.05-.75-1.67-.22-.83-.1-1.75.43-2.45.64-.82,1.64-1.07,2.57-1.45,1.26-.51,1.7-1.48,2.29-2.63.47-.93,1.04-1.81,1.73-2.58,1.4-1.58,3.31-2.8,5.38-3.24,1.21-.25,2.45-.31,3.67-.53,1.29-.24,2.54-.64,3.85-.82,1.3-.18,2.52-.09,3.8.22,1.36.33,2.74.73,4.15.64,1.36-.09,2.49-.83,3.79-1.14,1.18-.27,2.46-.18,3.65-.17,1.64.02,3.54.19,4.78,1.37.69.64,1.03,1.53,1.04,2.46.02.53-.32,1.35-.06,1.83.2.39.78.66,1.13.91.49.36.98.66,1.41,1.1.38.4.73.84,1.13,1.23.74.73,1.24,1.31,1.41,2.36Zm-1.26,3.23c.24-.88.41-1.79.31-2.69-.05-.42-.12-.89-.31-1.26-.25-.47-.71-.82-1.03-1.22-.68-.86-1.34-1.58-2.18-2.27-.72-.6-1.42-.97-1.32-2.03.1-1.04.19-2.02-.53-2.88-.55-.65-1.35-1-2.16-1.19s-1.65-.24-2.48-.24c-1.22-.02-2.53-.13-3.71.22-1.11.33-2.12.89-3.28,1.02-1.21.13-2.42-.11-3.58-.39-1.33-.32-2.59-.65-3.98-.54-1.27.1-2.51.45-3.75.73-2.26.52-4.62.38-6.7,1.55-1.79,1.01-3.21,2.46-4.2,4.25-.46.84-.79,1.81-1.5,2.49-.78.72-1.84.86-2.76,1.34-.77.39-1.26,1.09-1.35,1.89.08,1.11.6,2.09,1.59,2.65.83.47,1.53.87,1.97,1.76.49.96.68,2.04,1.1,3.04.41.99.57,2.01.6,3.08.04,1.12-.13,2.31.22,3.39.31.98,1.1,1.85,1.86,2.52.8.71,1.76,1.34,2.82,1.55,1.96.41,3.51-1.19,5.4-1.33,1.08-.08,1.87.57,2.86.85,1.11.31,2.26.23,3.4.2,2.4-.07,4.72.54,7.08.88,2.33.34,4.87.39,6.88-1,.9-.61,1.7-1.38,2.69-1.84.9-.41,2.03-.65,2.7-1.43.74-.87.72-2.08.63-3.14-.1-1.27-.1-2.47.21-3.71.27-1.12.63-2.25,1.15-3.28.49-.97,1.04-1.89,1.33-2.95Z"/><path class="cls-1" d="m971.44,129.45c.1.91-.07,1.81-.31,2.69-.28,1.06-.83,1.98-1.33,2.95-.52,1.04-.88,2.16-1.15,3.28-.31,1.24-.31,2.44-.21,3.71.09,1.06.11,2.27-.63,3.14-.67.78-1.81,1.02-2.7,1.43-1,.46-1.8,1.23-2.69,1.84-2.02,1.39-4.55,1.34-6.88,1-2.36-.34-4.68-.95-7.08-.88-1.14.03-2.29.11-3.4-.2-.99-.28-1.78-.93-2.86-.85-1.89.14-3.44,1.74-5.4,1.33-1.06-.21-2.03-.83-2.82-1.55-.76-.67-1.55-1.54-1.86-2.52-.35-1.08-.18-2.27-.22-3.39-.04-1.07-.19-2.09-.6-3.08-.42-1-.61-2.08-1.1-3.04-.44-.89-1.14-1.29-1.97-1.76-.98-.56-1.5-1.54-1.59-2.65.09-.8.58-1.49,1.35-1.89.92-.48,1.98-.61,2.76-1.34.71-.68,1.04-1.65,1.5-2.49.99-1.8,2.41-3.24,4.2-4.25,2.08-1.16,4.44-1.03,6.7-1.55,1.24-.28,2.47-.63,3.75-.73,1.38-.11,2.65.22,3.98.54,1.16.28,2.37.52,3.58.39,1.16-.13,2.17-.69,3.28-1.02,1.18-.35,2.49-.24,3.71-.22.83,0,1.67.05,2.48.24s1.61.54,2.16,1.19c.72.86.63,1.83.53,2.88-.1,1.06.6,1.43,1.32,2.03.84.7,1.5,1.41,2.18,2.27.31.4.78.75,1.03,1.22.19.38.27.84.31,1.26Z"/><path class="cls-1" d="m1039.98,141.75c.5,1.26.57,2.69.21,4-.37,1.33-1.22,2.37-1.92,3.53-.55.91-.93,1.92-1.64,2.73-.62.72-1.5,1.14-2.45,1.21-.95.08-1.9-.17-2.77-.53-.84-.34-1.69-.74-2.2-1.53-.27-.41-.44-.89-.71-1.31-.34-.53-.85-.84-1.43-1.07-1.1-.43-2.2-.65-3.23-1.26-1.09-.64-2.03-1.44-3.31-1.62-1.23-.17-2.35-.35-3.5-.82-1.12-.45-2.12-1.05-3.01-1.87-.47-.42-.91-.88-1.39-1.29-.43-.37-.93-.56-1.47-.75-.99-.37-1.7-.87-2.27-1.78-.52-.85-.89-1.81-1.26-2.72-.16-.4-.34-.8-.7-1.05-.44-.33-1.06-.49-1.59-.6-.76-.17-1.47-.08-2.18.24-.48.21-.94.47-1.46.61-.48.14-1.04.18-1.49-.03-.38-.17-.56-.57-.91-.77-.48-.27-1.15,0-1.66-.02-.18,0-.38-.05-.56-.09-.6.04-1.05.21-1.56.56-.82.57-1.59,1.16-2.51,1.59-1.48.7-3.22,1.07-4.61,0-.33-.26-.64-.55-1.03-.71-.54-.22-1.18-.14-1.74-.06-.93.13-1.81.29-2.74.16-2.07-.3-3.55-2-4.17-3.95-.27-.54-.41-1.11-.49-1.72-.21-1.61.03-3.32.04-4.94,0-1.27.64-2.46,1.41-3.44.85-1.09,1.95-2.03,3.15-2.72.68-.38,1.39-.68,2.07-1.07.75-.44,1.48-.92,2.24-1.34.67-.37,1.31-.57,2.08-.6.82-.04,1.67.06,2.45-.24,1.07-.39,1.82-1.33,2.55-2.16.66-.77,1.37-1.58,2.31-1.99,1.24-.55,2.58-.23,3.81.18.81.27,1.6.58,2.45.74.92.19,1.8.23,2.73.26,1.27.04,2.36.68,2.89,1.85.26.56.32,1.2.6,1.74s.87.83,1.4,1.09c.54.26,1.1.49,1.58.86.53.41.96.93,1.54,1.28,1.35.84,2.98.52,4.41.05,1.54-.5,2.98-.93,4.62-.72,1.37.18,2.94.86,3.92,1.86.2.2.34.44.51.66.27.34.58.34.99.34.76,0,1.51,0,2.25.11.77.13,1.45.43,2.14.77.58.28,1.16.56,1.66.97,1.14.93,1.01,2.36,1.64,3.58.35.65.76,1.26,1.07,1.94.34.74.47,1.55.77,2.3.28.71.9,1.2,1.21,1.9.17.39.29.8.31,1.21.3.83.27,1.72.24,2.63-.02.59-.06,1.18,0,1.78.08.72.42,1.37.69,2.04Zm-.27,3.22c.12-.75.1-1.58-.08-2.31-.14-.54-.38-1.04-.58-1.55-.39-.99-.42-1.95-.37-3.01.04-.62.11-1.33.07-2-.13,0-.26-.08-.26-.24,0-.8-.48-1.6-.93-2.22-.52-.7-.76-1.39-1-2.22-.26-.86-.63-1.63-1.08-2.41-.35-.6-.7-1.22-.9-1.9-.24-.8-.22-1.53-.88-2.14-.53-.49-1.24-.8-1.89-1.12-.84-.42-1.69-.64-2.63-.69-.66-.03-1.48.13-2.11-.13-.52-.21-.72-.76-1.11-1.14-.53-.51-1.26-.86-1.92-1.17-1.42-.65-3.07-.58-4.54-.13-1.49.46-2.94,1.11-4.55.93-1.18-.13-2.08-.76-2.92-1.56-.88-.83-2.03-1.1-2.96-1.83-.93-.72-.85-1.88-1.4-2.83-.86-1.48-2.65-1.07-4.07-1.31-1.58-.27-3.01-.93-4.55-1.28-1.28-.28-2.37-.05-3.35.83-.74.68-1.33,1.51-2.05,2.22-.8.79-1.71,1.33-2.84,1.42-.82.07-1.69-.06-2.5.16-.71.19-1.37.67-2,1.05-.75.46-1.49.93-2.29,1.3-.57.27-1.12.56-1.63.92-1.17.81-2.25,1.87-2.95,3.12-.34.6-.59,1.27-.62,1.97-.04.75,0,1.51-.05,2.27-.05,1.01-.09,2,.03,2.98.48,1.25.88,2.52,1.82,3.52,1.13,1.2,2.61,1.48,4.2,1.24.89-.14,1.87-.38,2.75-.06.68.25,1.13.83,1.76,1.15,1.59.77,3.71-.42,4.99-1.33.53-.38,1.04-.81,1.64-1.04.02,0,.02-.03.04-.04.2-.08.39-.11.58-.11.52-.07,1.05-.04,1.59.03.31-.04.62-.09.93-.05.45.05.75.27,1.04.6.51.53,1.12.45,1.77.19.62-.24,1.19-.6,1.84-.76.57-.13,1.15-.11,1.71,0,.97.2,2.02.54,2.54,1.45.46.77.71,1.68,1.1,2.48.25.52.53,1.04.93,1.47.38.38.85.59,1.35.77.49.18.99.35,1.42.65.41.29.77.65,1.13.99.93.88,1.85,1.6,3.01,2.15,1.2.57,2.36.82,3.67.99,1.13.16,1.96.69,2.91,1.29.54.35,1.08.69,1.67.94.49.21,1.03.34,1.55.5.92.29,1.79.71,2.31,1.54.27.42.43.9.71,1.32.29.43.68.68,1.13.92.91.47,1.92.82,2.94.81,2.48-.02,3.14-2.54,4.32-4.25.71-1.04,1.39-2.11,1.59-3.36Z"/><path class="cls-1" d="m1039.63,142.66c.18.73.2,1.56.08,2.31-.2,1.26-.89,2.33-1.59,3.36-1.17,1.71-1.83,4.23-4.32,4.25-1.03,0-2.03-.34-2.94-.81-.45-.24-.83-.49-1.13-.92-.27-.42-.44-.9-.71-1.32-.52-.83-1.39-1.25-2.31-1.54-.52-.16-1.05-.29-1.55-.5-.59-.26-1.13-.6-1.67-.94-.94-.6-1.78-1.13-2.91-1.29-1.3-.17-2.47-.42-3.67-.99-1.15-.55-2.08-1.27-3.01-2.15-.36-.34-.71-.7-1.13-.99-.43-.3-.93-.47-1.42-.65-.49-.18-.97-.38-1.35-.77-.4-.42-.69-.94-.93-1.47-.39-.81-.64-1.71-1.1-2.48-.52-.91-1.57-1.25-2.54-1.45-.57-.12-1.15-.14-1.71,0-.65.16-1.22.52-1.84.76-.65.26-1.26.34-1.77-.19-.29-.32-.6-.54-1.04-.6-.31-.04-.62.02-.93.05-.53-.06-1.06-.1-1.59-.03-.18,0-.38.03-.58.11-.02,0-.02.03-.04.04-.6.24-1.11.67-1.64,1.04-1.27.91-3.39,2.1-4.99,1.33-.63-.31-1.08-.9-1.76-1.15-.88-.31-1.86-.07-2.75.06-1.59.24-3.07-.04-4.2-1.24-.94-1-1.35-2.27-1.82-3.52-.12-.98-.08-1.97-.03-2.98.05-.76.02-1.52.05-2.27.04-.7.28-1.37.62-1.97.71-1.25,1.78-2.31,2.95-3.12.51-.36,1.06-.65,1.63-.92.8-.38,1.54-.84,2.29-1.3.62-.38,1.28-.86,2-1.05.82-.23,1.68-.09,2.5-.16,1.13-.09,2.04-.63,2.84-1.42.72-.71,1.31-1.54,2.05-2.22.97-.88,2.06-1.12,3.35-.83,1.55.35,2.98,1.02,4.55,1.28,1.42.24,3.21-.16,4.07,1.31.55.95.48,2.11,1.4,2.83.93.73,2.08,1,2.96,1.83.84.8,1.74,1.43,2.92,1.56,1.61.17,3.06-.48,4.55-.93,1.47-.45,3.12-.52,4.54.13.66.31,1.38.66,1.92,1.17.38.38.59.93,1.11,1.14.62.26,1.45.1,2.11.13.94.05,1.79.27,2.63.69.65.32,1.36.62,1.89,1.12.66.6.64,1.34.88,2.14.2.68.55,1.29.9,1.9.45.78.82,1.55,1.08,2.41.24.82.48,1.52,1,2.22.46.61.93,1.42.93,2.22,0,.16.13.23.26.24.04.67-.04,1.37-.07,2-.05,1.05-.03,2.02.37,3.01.2.51.44,1.01.58,1.55Z"/></svg>