<?xml version="1.0" encoding="UTF-8"?><svg id="Tree_05_-_Leaves_01" xmlns="http://www.w3.org/2000/svg" viewBox="0 0 1160 418.25"><defs><style>.cls-1{fill:#8fb223;stroke-width:0px;}</style></defs><path class="cls-1" d="m382.88,128.34c.21,1.13.66,2.35.37,3.51-.33,1.32-1.33,2.39-2.25,3.33-.52.54-1.07,1.08-1.46,1.72-.36.61-.51,1.28-.68,1.96-.38,1.47-1.1,2.59-2.37,3.45-1.16.79-2.53,1.45-3.81,2.04-2.76,1.27-5.79,1.9-8.75,2.49-1.66.34-3.33.66-4.94,1.2-1.31.45-2.76.82-3.92,1.59-1.13.73-1.3,2.13-2.17,3.09-.81.88-2.06,1.25-3.21,1.4-2.55.32-4.92-.47-7.4-.87-1.58-.25-3.18-.25-4.74-.53-1.5-.25-2.81-.88-4.15-1.55-1.14-.56-2.3-1.1-3.59-1.18-1.21-.09-2.4.16-3.6.28-2.08.21-5.05-.16-5.56-2.67-.27-1.33.85-2.26.99-3.51.13-1.15-.85-2.02-1.26-3.02-1.16-2.79.84-5.55,2.51-7.62.85-1.06,1.63-2.17,2.25-3.38.56-1.11.92-2.28,1.33-3.45.41-1.12,1.01-2.31,1.89-3.14.31-.3.65-.52,1.01-.7-.18-.39.02-1.01.6-1.06.79-.08,1.52-.5,2.24-.81.67-.29,1.36-.5,2.07-.66,1.61-.38,3.27-.56,4.83-1.13,1.3-.48,2.48-1.22,3.73-1.81,1.21-.58,2.45-1,3.79-1.13,1.53-.16,3.3.31,4.68-.54,1.11-.69,1.82-1.82,3.06-2.31,1.35-.54,2.83-.44,4.21-.03,1.45.43,2.77,1.18,4.18,1.73,1.5.58,3.07.95,4.61,1.41,1.5.44,2.99.97,4.34,1.78,1.29.76,2.42,1.82,3.88,2.24,1.33.39,2.75.45,3.9,1.3,1.04.77,1.86,1.77,2.38,2.96.52,1.15.78,2.38,1.01,3.62Zm-.88,2.79c.03-.5-.13-.99-.23-1.47-.13-.62-.24-1.24-.36-1.85-.5-2.4-1.55-4.9-4.15-5.56-1.35-.35-2.64-.53-3.87-1.26-1.25-.74-2.35-1.65-3.68-2.25-2.7-1.22-5.69-1.62-8.4-2.82-1.33-.59-2.66-1.29-4.1-1.51-1.42-.22-2.61.17-3.64,1.13-.96.9-1.88,1.69-3.23,1.91-1.47.24-2.96-.07-4.43.24-2.61.54-4.73,2.33-7.28,3.05-1.45.41-2.96.58-4.41.97-1.45.37-2.74,1.25-4.24,1.41-.57.33-1.07.77-1.46,1.31-.76,1.07-.91,2.37-1.27,3.6-.32,1.08-.7,2.14-1.19,3.14-1.17,2.38-3.41,4.13-4.33,6.64-.5,1.36-.29,2.53.48,3.74.63.98.97,1.84.76,3.03-.19,1.01-1.38,2.16-.78,3.17.53.88,1.59,1.16,2.54,1.23,2.29.15,4.49-.63,6.75.02,1.17.34,2.25.94,3.33,1.47,1.43.69,2.83,1.06,4.4,1.21,1.42.14,2.86.2,4.26.52,1.13.26,2.25.54,3.41.66,1.14.12,2.34.17,3.46-.12.56-.15,1.14-.37,1.56-.78.41-.39.63-.94.88-1.44.57-1.15,1.35-1.89,2.51-2.44,1.28-.6,2.68-1.06,4.04-1.47,2.94-.89,6.02-1.3,8.99-2.09,1.37-.37,2.72-.81,3.99-1.43,1.18-.57,2.44-1.18,3.52-1.92.62-.43,1.15-.99,1.44-1.7.25-.59.35-1.24.53-1.85.39-1.34,1.23-2.33,2.19-3.32.82-.84,1.95-1.91,2.01-3.17Z"/><path class="cls-1" d="m381.77,129.66c.1.48.26.97.23,1.47-.06,1.26-1.19,2.33-2.01,3.17-.96.99-1.8,1.98-2.19,3.32-.18.61-.28,1.26-.53,1.85-.29.71-.82,1.27-1.44,1.7-1.08.74-2.34,1.35-3.52,1.92-1.27.62-2.62,1.06-3.99,1.43-2.97.79-6.05,1.2-8.99,2.09-1.36.41-2.76.87-4.04,1.47-1.16.55-1.94,1.29-2.51,2.44-.25.5-.47,1.05-.88,1.44-.42.41-1,.63-1.56.78-1.12.29-2.32.24-3.46.12-1.16-.12-2.28-.4-3.41-.66-1.4-.32-2.84-.38-4.26-.52-1.57-.15-2.97-.52-4.4-1.21-1.08-.53-2.16-1.13-3.33-1.47-2.26-.65-4.46.13-6.75-.02-.95-.07-2.01-.35-2.54-1.23-.6-1.01.59-2.16.78-3.17.21-1.19-.13-2.05-.76-3.03-.77-1.21-.98-2.38-.48-3.74.92-2.51,3.16-4.26,4.33-6.64.49-1,.87-2.06,1.19-3.14.36-1.23.51-2.53,1.27-3.6.39-.54.89-.98,1.46-1.31,1.5-.16,2.79-1.04,4.24-1.41,1.45-.39,2.96-.56,4.41-.97,2.55-.72,4.67-2.51,7.28-3.05,1.47-.31,2.96,0,4.43-.24,1.35-.22,2.27-1.01,3.23-1.91,1.03-.96,2.22-1.35,3.64-1.13,1.44.22,2.77.92,4.1,1.51,2.71,1.2,5.7,1.6,8.4,2.82,1.33.6,2.43,1.51,3.68,2.25,1.23.73,2.52.91,3.87,1.26,2.6.66,3.65,3.16,4.15,5.56.12.61.23,1.23.36,1.85Z"/><path class="cls-1" d="m292.31,142.65c.42,1.93.31,3.93-.44,5.76-.77,1.89-2.05,3.31-3.5,4.71-1.38,1.32-2.78,2.79-2.61,4.85.09,1,.42,1.97.56,2.96.14,1.07.08,2.13-.05,3.19-.13,1-.41,2.06-.25,3.07.15.89.53,1.73.78,2.6.25.85.42,1.8.15,2.66-.22.71-.69,1.31-1.21,1.82-.6.6-1.28,1.11-1.93,1.65-.66.55-1.2,1.2-1.82,1.79-1.37,1.31-3.01,2.29-4.76,3.01-1.94.8-4.1,1.31-6.2,1.36-1.1.02-2.21-.08-3.31.06-.95.13-1.77.5-2.55,1.05-.6.43-1.16.89-1.84,1.19-.85.36-1.76.44-2.67.37-1.05-.09-2.06-.36-3.08-.59-1.06-.24-2.12-.35-3.2-.44-2.16-.17-4.34-.28-6.45-.8-.93-.22-1.81-.53-2.65-.98-.8-.43-1.56-.95-2.44-1.18-1.96-.5-3.93.58-5.91.45-1.55-.1-3.21-.63-4.35-1.73-1.12-1.08-1.45-2.68-.53-3.99.4-.58.94-1.06,1.33-1.65.44-.67.63-1.47.72-2.26.21-1.86-.01-3.73.03-5.6.04-1.63.53-3.25.11-4.86-.37-1.38-1.32-2.42-2.38-3.31-1.1-.92-2.13-1.67-3.58-1.8-2.33-.21-5.55.38-6.64-2.32-1.37-3.34,1.52-6.32,2.93-9.08.43-.84.73-1.63.7-2.6-.02-.99-.21-1.99.09-2.96.37-1.17,1.25-2.16,2.23-2.98-.37-.3-.23-1.1.41-1.17.83-.09,1.61-.68,2.4-.92.96-.28,2.02-.27,3.01-.3,2.32-.07,4.66.04,6.95-.38,2.08-.39,4.13-.75,6.25-.74,2.04,0,4.02.44,6.06.25,1.91-.18,3.79-.71,5.61-1.28,3.68-1.16,7.43-2.57,11.36-2.32,2.16.14,4.21,1.01,6.37,1.08,1.97.06,3.66-1.31,5.62-1.27,1.35.03,2.52.81,3.5,1.68,1.14,1.01,2.09,2.24,2.97,3.49,1.76,2.51,3.56,5.44,4.21,8.46Zm-1.73,5.3c1.38-3.4.05-6.73-1.66-9.72-1.39-2.45-2.98-5.14-5.25-6.88-.42-.33-.91-.64-1.43-.79-.77-.23-1.57-.01-2.31.24-.91.29-1.78.67-2.72.83-.99.17-1.97.06-2.95-.11-2.03-.36-3.94-.96-6.03-.9-1.88.06-3.73.47-5.53.98-3.53.98-7.01,2.4-10.71,2.58-1.98.1-3.93-.34-5.91-.31-2.07.03-4.04.5-6.08.8-2.18.31-4.39.24-6.59.31-1.05.03-2.13.02-3.12.41-.53.2-1.02.46-1.54.63-1.32,1.04-2.61,2.47-2.56,4.21.03.99.3,1.96.16,2.96-.11.78-.41,1.52-.76,2.21-.76,1.47-1.79,2.79-2.45,4.31-.52,1.2-.87,2.95.09,4.04.71.81,2.03.77,3,.78,1.24.02,2.54-.01,3.73.39,1.35.46,2.59,1.54,3.6,2.53.97.95,1.75,2.1,2.07,3.43.37,1.58,0,3.06-.07,4.64-.16,3.27.75,7.04-1.53,9.77-.38.46-.91.92-1.09,1.51-.19.65.23,1.31.69,1.74,1.04.96,2.68,1.35,4.06,1.27,2.02-.11,3.94-.96,5.95-.23.8.29,1.51.74,2.24,1.14.86.48,1.78.76,2.73.98,2.04.45,4.14.54,6.21.72,1.02.09,2.02.2,3.01.43,1.01.22,2.01.51,3.05.58.86.05,1.65-.07,2.39-.52.61-.37,1.15-.85,1.76-1.22,1.79-1.06,3.77-.91,5.77-.93,3.82-.04,7.92-1.57,10.61-4.33.56-.59,1.1-1.15,1.73-1.67.63-.51,1.28-1.01,1.84-1.61.54-.58.83-1.18.76-1.99-.09-.89-.48-1.74-.75-2.59-.26-.84-.41-1.67-.32-2.54.12-1.04.3-2.08.36-3.12.07-1.08-.08-2.1-.32-3.15-.19-.86-.38-1.74-.31-2.62.14-1.89,1.36-3.37,2.65-4.65,1.4-1.38,2.78-2.68,3.53-4.54Z"/><path class="cls-1" d="m288.92,138.23c1.71,2.99,3.04,6.32,1.66,9.72-.75,1.86-2.13,3.16-3.53,4.54-1.29,1.28-2.51,2.76-2.65,4.65-.07.88.12,1.76.31,2.62.24,1.05.39,2.07.32,3.15-.06,1.04-.24,2.08-.36,3.12-.09.87.06,1.7.32,2.54.27.85.66,1.7.75,2.59.07.81-.22,1.41-.76,1.99-.56.6-1.21,1.1-1.84,1.61-.63.52-1.17,1.08-1.73,1.67-2.69,2.76-6.79,4.29-10.61,4.33-2,.02-3.98-.13-5.77.93-.61.37-1.15.85-1.76,1.22-.74.45-1.53.57-2.39.52-1.04-.07-2.04-.36-3.05-.58-.99-.23-1.99-.34-3.01-.43-2.07-.18-4.17-.27-6.21-.72-.95-.22-1.87-.5-2.73-.98-.73-.4-1.44-.85-2.24-1.14-2.01-.73-3.93.12-5.95.23-1.38.08-3.02-.31-4.06-1.27-.46-.43-.88-1.09-.69-1.74.18-.59.71-1.05,1.09-1.51,2.28-2.73,1.37-6.5,1.53-9.77.07-1.58.44-3.06.07-4.64-.32-1.33-1.1-2.48-2.07-3.43-1.01-.99-2.25-2.07-3.6-2.53-1.19-.4-2.49-.37-3.73-.39-.97-.01-2.29.03-3-.78-.96-1.09-.61-2.84-.09-4.04.66-1.52,1.69-2.84,2.45-4.31.35-.69.65-1.43.76-2.21.14-1-.13-1.97-.16-2.96-.05-1.74,1.24-3.17,2.56-4.21.52-.17,1.01-.43,1.54-.63.99-.39,2.07-.38,3.12-.41,2.2-.07,4.41,0,6.59-.31,2.04-.3,4.01-.77,6.08-.8,1.98-.03,3.93.41,5.91.31,3.7-.18,7.18-1.6,10.71-2.58,1.8-.51,3.65-.92,5.53-.98,2.09-.06,4,.54,6.03.9.98.17,1.96.28,2.95.11.94-.16,1.81-.54,2.72-.83.74-.25,1.54-.47,2.31-.24.52.15,1.01.46,1.43.79,2.27,1.74,3.86,4.43,5.25,6.88Z"/><path class="cls-1" d="m430.19,190.46c1.02,2.4,1.59,5.83.28,8.23-1.1,2-3.46,2.59-4.93,4.21-1.01,1.12-.85,2.65-1.47,3.95-.62,1.33-1.78,2.26-3.06,2.92-1.34.68-2.76,1.27-4.17,1.78-1.42.52-2.93.97-4.46.98-1.69.01-3.38-.43-4.99-.9-1.68-.49-3.35-1.19-5.09-1.44-1.89-.28-3.82.04-5.7.26-1.76.21-3.53.28-5.3.09-3.02-.33-5.84-1.43-7.6-4.02-.74-1.1-1.28-2.33-2.07-3.4-.79-1.08-1.81-1.71-3.08-2.09-1.09-.33-2.23-.5-3.26-1-1.09-.52-1.82-1.46-2.19-2.6-.51-1.63-.55-3.41-.3-5.09.15-.93.37-1.9.71-2.79.08-.21.25-.47.4-.73,0-.4.06-.78.24-1.12-.02-.04-.03-.09-.07-.13-.26-.32-.08-.68.21-.77-.11-.36-.23-.73-.36-1.09-.9-.06-1.6-.82-2.11-1.49-.54-.72-1.03-1.47-1.56-2.2-.61-.85-1.25-1.69-1.8-2.59-.47-.77-.88-1.58-.59-2.51.17-.53.5-.98.74-1.48.29-.59.22-1.21.16-1.85-.11-1.13-.05-2.23.26-3.33.59-2.07,1.97-3.46,4-4.13.39-.13.72-.25.98-.6.32-.44.3-1,.39-1.51.18-1.03.82-1.84,1.67-2.41,1.67-1.11,3.9-.97,5.66-.15,1.04.49,1.85,1.37,2.89,1.86.88.41,1.9.48,2.72,1.04.66.44,1.11,1.19,1.24,1.96.1.55-.04,1.25.26,1.74.5.81,1.95,1.13,2.82,1.13,1.09.01,2.13-.43,3.2-.62,1.17-.21,2.33-.15,3.51-.07.69-.14,1.37-.29,2.05-.44,1.76-.39,3.56-.79,5.37-.64,1.74.14,3.44.64,5.19.66,2.42.02,4.9-.32,6.91,1.35,1.02.85,1.61,2.04,2.06,3.25.58,1.55,1.46,2.96,2.13,4.47.62,1.41,1.14,2.95,1.02,4.51-.05.73-.28,1.54-.09,2.26.17.66.71.99,1.29,1.27,1.17.58,2.42.88,3.42,1.75,1.1.95,1.91,2.19,2.47,3.52Zm-1.2,8.09c.77-.96.9-2.21.89-3.41-.03-2.71-1.04-6.03-3.42-7.61-1.03-.68-2.3-.9-3.33-1.57-1.21-.78-1.51-1.99-1.36-3.36.08-.79.17-1.53.04-2.32-.11-.72-.34-1.43-.61-2.11-.58-1.44-1.4-2.77-2.03-4.19-.52-1.2-.87-2.47-1.84-3.41-.75-.75-1.75-1.11-2.79-1.26-1.33-.18-2.66.04-4-.03-1.67-.09-3.3-.56-4.97-.67-.86-.05-1.73.02-2.59.16-.01.05-.04.09-.09.13-1.32,1.05-2.94.97-4.58.84-1.08.23-2.16.43-3.26.58-3.05.41-6.14.82-8.94,2.17-.46.23-1.07.5-1.34.96-.24.42-.16.49.17.71.87.58,1.14,1.51.74,2.49-.41,1.01-1.4,1.45-2.23,2.03-1.2.84-1.38,2.41-1.66,3.74-.4,1.86-.67,3.96-2.76,4.6-1.11.34-2.3.17-3.42.47-.13.03-.23.08-.33.13.31.91-.44,1.95-.7,2.9-.47,1.64-.74,3.34-.5,5.05.17,1.24.5,2.52,1.66,3.17.92.51,2.02.64,3.03.92,1.19.34,2.31.87,3.2,1.76,1.87,1.88,2.44,4.76,4.73,6.27,2.56,1.69,5.99,1.79,8.95,1.52,1.81-.16,3.61-.5,5.42-.46,1.73.04,3.34.56,4.98,1.07,1.6.51,3.22,1.03,4.89,1.27,1.56.23,3,0,4.49-.46,1.45-.45,2.85-1.05,4.23-1.68,1.27-.59,2.53-1.29,3.18-2.59.64-1.27.49-2.75,1.38-3.92.66-.88,1.53-1.52,2.45-2.11.81-.52,1.69-1.01,2.32-1.78Zm-39.52-28.52c.06-.01.12-.02.18-.04-.43-.16-.84-.37-1.19-.63-.57-.43-.88-.99-.96-1.7-.07-.56-.01-1.14-.28-1.66-.44-.87-1.42-1.03-2.27-1.3-.98-.3-1.76-.84-2.58-1.44-1.54-1.13-3.71-1.79-5.49-.76-.44.26-.88.64-1.12,1.09-.23.44-.24.98-.32,1.46-.15.86-.66,1.61-1.46,1.99-.83.38-1.7.52-2.41,1.16-.72.65-1.17,1.53-1.43,2.46-.31,1.15-.23,2.2-.16,3.37.04.57,0,1.14-.22,1.67-.2.46-.49.87-.7,1.33-.34.76.09,1.37.49,2.03.45.75.97,1.46,1.47,2.18.44.62.79,1.27,1.18,1.92.41.66,1.1,1.83,1.99,1.84.16,0,.3.11.34.26.16.56.31,1.13.41,1.7,1.69-.87,4.38.15,5.27-2,.43-1.04.49-2.29.7-3.38.26-1.36.58-2.87,1.74-3.75.71-.53,2.17-1.06,2.04-2.17-.06-.43-.46-.51-.75-.76-.3-.26-.49-.58-.49-.98,0-1.25,1.13-2.01,2.13-2.49,1.23-.59,2.57-1.06,3.89-1.4Z"/><path class="cls-1" d="m429.88,195.14c.01,1.2-.12,2.45-.89,3.41-.63.77-1.51,1.26-2.32,1.78-.92.59-1.79,1.23-2.45,2.11-.89,1.17-.74,2.65-1.38,3.92-.65,1.3-1.91,2-3.18,2.59-1.38.63-2.78,1.23-4.23,1.68-1.49.46-2.93.69-4.49.46-1.67-.24-3.29-.76-4.89-1.27-1.64-.51-3.25-1.03-4.98-1.07-1.81-.04-3.61.3-5.42.46-2.96.27-6.39.17-8.95-1.52-2.29-1.51-2.86-4.39-4.73-6.27-.89-.89-2.01-1.42-3.2-1.76-1.01-.28-2.11-.41-3.03-.92-1.16-.65-1.49-1.93-1.66-3.17-.24-1.71.03-3.41.5-5.05.26-.95,1.01-1.99.7-2.9.1-.05.2-.1.33-.13,1.12-.3,2.31-.13,3.42-.47,2.09-.64,2.36-2.74,2.76-4.6.28-1.33.46-2.9,1.66-3.74.83-.58,1.82-1.02,2.23-2.03.4-.98.13-1.91-.74-2.49-.33-.22-.41-.29-.17-.71.27-.46.88-.73,1.34-.96,2.8-1.35,5.89-1.76,8.94-2.17,1.1-.15,2.18-.35,3.26-.58,1.64.13,3.26.21,4.58-.84.05-.04.08-.08.09-.13.86-.14,1.73-.21,2.59-.16,1.67.11,3.3.58,4.97.67,1.34.07,2.67-.15,4,.03,1.04.15,2.04.51,2.79,1.26.97.94,1.32,2.21,1.84,3.41.63,1.42,1.45,2.75,2.03,4.19.27.68.5,1.39.61,2.11.13.79.04,1.53-.04,2.32-.15,1.37.15,2.58,1.36,3.36,1.03.67,2.3.89,3.33,1.57,2.38,1.58,3.39,4.9,3.42,7.61Z"/><path class="cls-1" d="m420.8,142.94c.15,1.38-.01,2.9-.95,3.99-1.21,1.41-3.1,1.29-4.79,1.4-1.3.09-2.6.21-3.9.15s-2.46-.45-3.72-.73c-2.48-.56-4.98.07-7.48.02-4.78-.1-10.05-1.43-13.64-4.74-1.99-1.84-3.56-4-5.87-5.46-.74-.47-1.69-.87-1.98-1.77-.18-.55-.23-2.14-1.09-1.97-.46.08-.76-.29-.78-.65-.22-.12-.43-.25-.6-.45-.66-.74-.37-1.9-.18-2.77.29-1.35.7-2.65.41-4.04-.19-.87-.33-1.67.2-2.46.73-1.09,1.96-1.66,2.91-2.53.83-.77,1.46-1.72,2.17-2.6.73-.88,1.56-1.58,2.61-2.05,1.16-.52,2.31-1.12,3.3-1.92.98-.78,1.64-1.79,2.47-2.7.66-.73,1.45-1.36,2.39-1.71,1.02-.39,2.03-.31,3.09-.14.86.15,1.96.17,2.62.85.42.43.26,1.15.78,1.46.46.27.98.35,1.43.68.81.59,1.13,1.48,1.35,2.43.12.51.24,1.04.49,1.51.28.53.71.98,1.07,1.46.82,1.08,1.56,2.22,2.51,3.21.94.99,2.07,1.75,3.18,2.54,1.02.72,2.04,1.46,2.89,2.38.43.47.84.92,1.31,1.35.45.41.9.83,1.23,1.35.32.47.49,1.03.44,1.6-.04.51-.25.99-.27,1.5-.06,1.19,1.06,1.58,1.9,2.13,1.48.97,2.42,2.49,3.15,4.07.66,1.46,1.17,3.01,1.35,4.61Zm-1.52,2.56c.53-1.19.3-2.65.01-3.86-.35-1.38-.89-2.73-1.6-3.96-.43-.75-.93-1.48-1.6-2.02-.78-.62-1.77-.95-2.4-1.75-.64-.8-.64-1.8-.41-2.76.15-.6.2-1.02-.19-1.56-.33-.46-.8-.84-1.21-1.22-.87-.8-1.59-1.72-2.52-2.45-.99-.78-2.05-1.45-3.05-2.22-2.05-1.57-3.44-3.72-4.99-5.75-.61-.8-.8-1.73-1.03-2.69-.1-.41-.21-.85-.48-1.19-.32-.41-.79-.57-1.25-.77-.5-.21-.93-.5-1.15-1-.21-.5-.08-.86-.65-1.07-.47-.17-.99-.22-1.49-.29-.45-.07-.88-.16-1.34-.16-2.36.02-3.37,2.1-4.82,3.58-.82.84-1.79,1.53-2.82,2.1-1,.56-2.16.91-3.03,1.67-.76.67-1.34,1.53-1.97,2.32-.73.93-1.56,1.65-2.51,2.34-.8.57-1.78,1.23-1.59,2.33.19,1.14.25,2.14-.02,3.29-.15.68-.36,1.34-.51,2.01-.12.49-.3,1.1-.11,1.59.09.25.29.44.53.6.95-.17,1.68.23,2.1,1.11.2.43.31.89.41,1.36.06.24.07.4.24.58.38.39.99.63,1.44.92.47.3.92.62,1.35.96,1.98,1.56,3.41,3.7,5.4,5.25,3.67,2.86,8.82,3.9,13.38,3.71,1.18-.04,2.35-.23,3.53-.25,1.17-.03,2.34.13,3.47.44,1.21.33,2.31.55,3.58.54,1.22,0,2.45-.12,3.67-.2,1.39-.08,2.98-.06,3.63-1.53Z"/><path class="cls-1" d="m419.29,141.64c.29,1.21.52,2.67-.01,3.86-.65,1.47-2.24,1.45-3.63,1.53-1.22.08-2.45.2-3.67.2-1.27.01-2.37-.21-3.58-.54-1.13-.31-2.3-.47-3.47-.44-1.18.02-2.35.21-3.53.25-4.56.19-9.71-.85-13.38-3.71-1.99-1.55-3.42-3.69-5.4-5.25-.43-.34-.88-.66-1.35-.96-.45-.29-1.06-.53-1.44-.92-.17-.18-.18-.34-.24-.58-.1-.47-.21-.93-.41-1.36-.42-.88-1.15-1.28-2.1-1.11-.24-.16-.44-.35-.53-.6-.19-.49-.01-1.1.11-1.59.15-.67.36-1.33.51-2.01.27-1.15.21-2.15.02-3.29-.19-1.1.79-1.76,1.59-2.33.95-.69,1.78-1.41,2.51-2.34.63-.79,1.21-1.65,1.97-2.32.87-.76,2.03-1.11,3.03-1.67,1.03-.57,2-1.26,2.82-2.1,1.45-1.48,2.46-3.56,4.82-3.58.46,0,.89.09,1.34.16.5.07,1.02.12,1.49.29.57.21.44.57.65,1.07.22.5.65.79,1.15,1,.46.2.93.36,1.25.77.27.34.38.78.48,1.19.23.96.42,1.89,1.03,2.69,1.55,2.03,2.94,4.18,4.99,5.75,1,.77,2.06,1.44,3.05,2.22.93.73,1.65,1.65,2.52,2.45.41.38.88.76,1.21,1.22.39.54.34.96.19,1.56-.23.96-.23,1.96.41,2.76.63.8,1.62,1.13,2.4,1.75.67.54,1.17,1.27,1.6,2.02.71,1.23,1.25,2.58,1.6,3.96Z"/><path class="cls-1" d="m389.65,169.99c-.06.02-.12.03-.18.04-1.32.34-2.66.81-3.89,1.4-1,.48-2.14,1.24-2.13,2.49,0,.4.19.72.49.98.29.25.69.33.75.76.13,1.11-1.33,1.64-2.04,2.17-1.16.88-1.48,2.39-1.74,3.75-.21,1.09-.27,2.34-.7,3.38-.89,2.15-3.58,1.13-5.27,2-.1-.57-.25-1.14-.41-1.7-.04-.15-.18-.26-.34-.26-.89-.01-1.58-1.18-1.99-1.84-.39-.65-.74-1.3-1.18-1.92-.5-.72-1.02-1.43-1.47-2.18-.4-.66-.83-1.27-.49-2.03.21-.46.5-.87.7-1.33.22-.53.26-1.1.22-1.67-.07-1.17-.15-2.22.16-3.37.26-.93.71-1.81,1.43-2.46.71-.64,1.58-.78,2.41-1.16.8-.38,1.31-1.13,1.46-1.99.08-.48.09-1.02.32-1.46.24-.45.68-.83,1.12-1.09,1.78-1.03,3.95-.37,5.49.76.82.6,1.6,1.14,2.58,1.44.85.27,1.83.43,2.27,1.3.27.52.21,1.1.28,1.66.08.71.39,1.27.96,1.7.35.26.76.47,1.19.63Z"/><path class="cls-1" d="m318.26,122.3c.77,1.72,1.57,3.65,1.41,5.58-.16,1.96-1.58,3.79-3.52,4.33-1.39.38-2.85-.07-4.26.26-1.62.39-3.12,1.13-4.73,1.53-1.52.37-3.08.53-4.64.38-1.59-.14-3.13-.43-4.73-.41-1.61.02-3.1.43-4.67.68-1.07.17-2.11,0-3.07-.49-.86-.45-1.59-1.12-2.39-1.67-.97-.67-2.01-1.08-3.2-1.12-2.74-.08-5.74,1.02-8.27-.48-1.04-.61-1.77-1.51-2.39-2.51l-1.68-1.47c-.81-.7-1.61-1.53-1.87-2.6-.25-1.03.01-2.11.27-3.12.34-1.31.98-2.47,1.62-3.66.57-1.03,1.44-2.38,1.04-3.61-.36-1.11-1.29-2-1.92-2.96-.67-1.04-1-2.19-1.07-3.43-.13-2.48.98-4.82,2.76-6.51,3.37-3.2,10.56-5.82,13.68-.97.48.75.75,1.6,1.17,2.37.51.94,1.29,1.52,2.31,1.85,1.4.45,2.77.87,4.13,1.44,1.34.57,2.65,1.19,3.98,1.77,1.38.6,2.79,1.13,4.26,1.49,1.61.39,3.14.46,4.78.29,1.46-.15,2.9-.27,4.31.23,1.08.38,2.04,1.01,2.72,1.94.63.86.96,1.91,1.16,2.95.17.89.18,1.82.44,2.69.55,1.83,1.59,3.5,2.37,5.23Zm-.73,7.46c1.14-1.28.89-3.08.43-4.58-.56-1.84-1.49-3.54-2.31-5.26-.37-.78-.74-1.58-1-2.4-.26-.84-.28-1.71-.43-2.56-.16-.97-.41-1.95-.98-2.76-.63-.88-1.62-1.39-2.65-1.64-1.45-.35-2.98.02-4.43.1-1.46.09-2.92-.15-4.33-.51-2.68-.71-5.16-1.98-7.7-3.09-1.29-.57-2.61-1.05-3.97-1.45-1.04-.3-2.05-.75-2.77-1.58-1.17-1.34-1.33-3.25-2.76-4.4-2.24-1.82-5.42-.94-7.79.18-2.07.98-3.99,2.52-4.97,4.64-.49,1.08-.67,2.27-.55,3.44.13,1.31.7,2.31,1.47,3.35.6.81,1.29,1.65,1.51,2.67.24,1.15-.26,2.28-.77,3.29-.59,1.18-1.36,2.3-1.78,3.56-.32.95-.69,2.14-.51,3.15.13.72.58,1.27,1.08,1.78-.09-.17-.18-.33-.27-.49-.31-.53.42-1.08.86-.65.8.79,1.33,1.67,1.89,2.63.55.94,1.17,1.89,2.12,2.45,1.11.66,2.42.65,3.66.56,2.54-.17,5.02-.63,7.31.79,1.55.96,2.86,2.62,4.88,2.35.78-.1,1.53-.35,2.31-.47.69-.11,1.39-.19,2.09-.22,1.42-.07,2.84.05,4.25.25,1.59.22,3.15.28,4.73-.04,1.49-.3,2.88-.88,4.31-1.36.75-.25,1.53-.45,2.32-.52.66-.05,1.31.04,1.96.05,1.11.01,2.06-.44,2.79-1.26Z"/><path class="cls-1" d="m317.96,125.18c.46,1.5.71,3.3-.43,4.58-.73.82-1.68,1.27-2.79,1.26-.65-.01-1.3-.1-1.96-.05-.79.07-1.57.27-2.32.52-1.43.48-2.82,1.06-4.31,1.36-1.58.32-3.14.26-4.73.04-1.41-.2-2.83-.32-4.25-.25-.7.03-1.4.11-2.09.22-.78.12-1.53.37-2.31.47-2.02.27-3.33-1.39-4.88-2.35-2.29-1.42-4.77-.96-7.31-.79-1.24.09-2.55.1-3.66-.56-.95-.56-1.57-1.51-2.12-2.45-.56-.96-1.09-1.84-1.89-2.63-.44-.43-1.17.12-.86.65.09.16.18.32.27.49-.5-.51-.95-1.06-1.08-1.78-.18-1.01.19-2.2.51-3.15.42-1.26,1.19-2.38,1.78-3.56.51-1.01,1.01-2.14.77-3.29-.22-1.02-.91-1.86-1.51-2.67-.77-1.04-1.34-2.04-1.47-3.35-.12-1.17.06-2.36.55-3.44.98-2.12,2.9-3.66,4.97-4.64,2.37-1.12,5.55-2,7.79-.18,1.43,1.15,1.59,3.06,2.76,4.4.72.83,1.73,1.28,2.77,1.58,1.36.4,2.68.88,3.97,1.45,2.54,1.11,5.02,2.38,7.7,3.09,1.41.36,2.87.6,4.33.51,1.45-.08,2.98-.45,4.43-.1,1.03.25,2.02.76,2.65,1.64.57.81.82,1.79.98,2.76.15.85.17,1.72.43,2.56.26.82.63,1.62,1,2.4.82,1.72,1.75,3.42,2.31,5.26Z"/><path class="cls-1" d="m284.21,186.23c.42,1.74-.03,3.47-.84,5.03-.43.83-.95,1.63-1.24,2.53-.32.97-.23,1.87-.14,2.87.07.77.08,1.57-.17,2.32-.26.81-.75,1.53-1.27,2.21-1.13,1.47-2.52,2.8-4.3,3.42-.93.33-1.89.39-2.85.21-.97-.19-1.87-.62-2.82-.92-1.77-.55-3.79-.34-5.63-.4-1.87-.07-3.77-.22-5.58-.75-.88-.25-1.74-.61-2.53-1.07-.81-.49-1.53-1.11-2.33-1.61-.79-.51-1.59-.98-2.33-1.57-.79-.62-1.33-1.43-2.05-2.12-1.29-1.26-3.05-1.95-3.91-3.61-.15-.28-.01-.57.21-.7-.51-.69-.9-1.44-.94-2.34-.03-.91.26-1.7.67-2.48.29-.54.49-1.02.33-1.63-.1-.43-.29-.83-.4-1.25-.43-1.69.65-3.37,1.93-4.39,1.58-1.25,3.66-1.8,5.64-1.99,1.1-.1,2.22-.08,3.32-.01s2.24.29,3.34.24c1.03-.05,2.03-.45,2.99-.79,1.03-.37,2.06-.66,3.15-.8,1.96-.25,4.14-.16,5.92.77.74.39,1.42.89,2.22,1.15.82.28,1.69.38,2.53.56,1.83.41,3.13,1.55,4.4,2.87,1.17,1.2,2.28,2.59,2.68,4.25Zm-1.54,3.39c.53-1.43.53-2.91-.19-4.28-.77-1.49-2.06-2.77-3.32-3.86-1.26-1.08-2.79-1.16-4.33-1.54s-2.72-1.5-4.24-1.9c-1.94-.5-4.14-.32-6.04.28-.91.29-1.8.66-2.73.9-.95.23-1.84.23-2.81.14-2.01-.2-4.06-.41-6.07-.11-1.81.26-3.74.9-4.98,2.3-.54.61-.98,1.44-.98,2.27,0,.83.52,1.55.44,2.4-.08.86-.71,1.51-.99,2.3-.29.86-.25,1.78.17,2.59.31.61.74,1.15,1.14,1.69.38.32.77.63,1.16.91.68.49,1.37.96,1.99,1.52.66.6,1.14,1.35,1.81,1.94.64.57,1.37,1.01,2.09,1.47.76.47,1.46,1,2.19,1.51,2.85,1.98,6.56,1.96,9.89,2.03.84.02,1.7.01,2.54.09.89.08,1.73.37,2.57.68.82.31,1.67.65,2.56.63.88-.02,1.73-.37,2.47-.83,1.37-.86,2.7-2.33,3.38-3.81.66-1.44-.02-3.04.21-4.55.27-1.77,1.46-3.14,2.07-4.77Z"/><path class="cls-1" d="m282.48,185.34c.72,1.37.72,2.85.19,4.28-.61,1.63-1.8,3-2.07,4.77-.23,1.51.45,3.11-.21,4.55-.68,1.48-2.01,2.95-3.38,3.81-.74.46-1.59.81-2.47.83-.89.02-1.74-.32-2.56-.63-.84-.31-1.68-.6-2.57-.68-.84-.08-1.7-.07-2.54-.09-3.33-.07-7.04-.05-9.89-2.03-.73-.51-1.43-1.04-2.19-1.51-.72-.46-1.45-.9-2.09-1.47-.67-.59-1.15-1.34-1.81-1.94-.62-.56-1.31-1.03-1.99-1.52-.39-.28-.78-.59-1.16-.91-.4-.54-.83-1.08-1.14-1.69-.42-.81-.46-1.73-.17-2.59.28-.79.91-1.44.99-2.3.08-.85-.43-1.57-.44-2.4,0-.83.44-1.66.98-2.27,1.24-1.4,3.17-2.04,4.98-2.3,2.01-.3,4.06-.09,6.07.11.97.09,1.86.09,2.81-.14.93-.24,1.82-.61,2.73-.9,1.9-.6,4.1-.78,6.04-.28,1.52.4,2.7,1.52,4.24,1.9s3.07.46,4.33,1.54c1.26,1.09,2.55,2.37,3.32,3.86Z"/></svg>