<?xml version="1.0" encoding="UTF-8"?><svg id="Tree_05_-_Leaves_02" xmlns="http://www.w3.org/2000/svg" viewBox="0 0 1160 418.25"><defs><style>.cls-1{fill:#a2c81b;stroke-width:0px;}</style></defs><path class="cls-1" d="m406.96,248.22c.14,1.35-.31,2.66-1.48,3.42-1.4.9-3.2.76-4.78.64-1.34-.1-3.76-.46-4.65.88-.4.6-.29,1.41-.48,2.08-.2.7-.65,1.33-1.3,1.69-1.31.72-3.15.64-4.58.4-1.82-.32-3.23-1.59-4.99-2.04-1.27-.33-2.55.11-3.83-.05-.05-.01-.08-.02-.12-.03-.15.01-.3.02-.44.01-1.09-.07-1.07-1.47-1.77-2.06-1.04-.89-2.67-.56-3.54-1.76-.7-.96-.46-2.55-.47-3.66,0-1.43-.18-2.86.06-4.28.28-1.66,1.09-3.21,2.55-4.1,1.37-.84,3.04-1.01,4.61-1.14.78-.07,1.57-.11,2.34-.22.97-.13,1.91-.41,2.88-.56,2.19-.31,4.39-.22,6.55.19,3.15.59,6.51,1.68,9.18,3.48,1.18.8,2.03,1.81,2.75,3.03.73,1.24,1.36,2.63,1.51,4.08Zm-1.47,1.7c.59-1.06.15-2.47-.27-3.51-.44-1.09-1.07-2.23-1.85-3.12-.92-1.04-2.23-1.73-3.47-2.31-2.87-1.34-6.13-2.28-9.31-2.43-.99-.05-1.99-.02-2.98.1-.92.11-1.8.36-2.7.54-1.44.27-2.9.27-4.35.46-1.34.17-2.76.54-3.66,1.62-1.02,1.22-1.22,3.02-1.11,4.55.08,1.14.05,2.28.08,3.42.01.38-.04.94.14,1.29.24.47.94.59,1.4.72,1.32.37,2.28.88,2.93,2.14.08.17.16.34.23.52.02.04.03.05.04.07h.03c.09.01.19.04.29.05.31.03.61.04.91.07.25.02.42.24.45.45.43-.05.86-.12,1.22-.13,1.47-.02,2.8.58,4.13,1.14,1.44.62,2.89.89,4.46.77.66-.05,1.47-.16,1.95-.68s.47-1.25.57-1.9c.52-3.44,4.77-2.71,7.24-2.62,1.22.05,2.94.02,3.63-1.21Z"/><path class="cls-1" d="m405.22,246.41c.42,1.04.86,2.45.27,3.51-.69,1.23-2.41,1.26-3.63,1.21-2.47-.09-6.72-.82-7.24,2.62-.1.65-.09,1.38-.57,1.9s-1.29.63-1.95.68c-1.57.12-3.02-.15-4.46-.77-1.33-.56-2.66-1.16-4.13-1.14-.36.01-.79.08-1.22.13-.03-.21-.2-.43-.45-.45-.3-.03-.6-.04-.91-.07-.1-.01-.2-.04-.29-.05h-.03s-.02-.03-.04-.07c-.07-.18-.15-.35-.23-.52-.65-1.26-1.61-1.77-2.93-2.14-.46-.13-1.16-.25-1.4-.72-.18-.35-.13-.91-.14-1.29-.03-1.14,0-2.28-.08-3.42-.11-1.53.09-3.33,1.11-4.55.9-1.08,2.32-1.45,3.66-1.62,1.45-.19,2.91-.19,4.35-.46.9-.18,1.78-.43,2.7-.54.99-.12,1.99-.15,2.98-.1,3.18.15,6.44,1.09,9.31,2.43,1.24.58,2.55,1.27,3.47,2.31.78.89,1.41,2.03,1.85,3.12Z"/><path class="cls-1" d="m396.35,144.24c.28,1,.44,2.08.33,3.11-.1.95-.44,1.88-1.21,2.48-1.11.87-2.43.43-3.69.77-1.15.31-1.93,1.23-2.83,1.95-1.02.79-2.34,1.15-3.28,2.02-.99.91-1.29,2.31-2.37,3.17-.83.65-1.75.52-2.7.81-1.12.35-1.79,1.47-2.69,2.16-.84.64-1.79,1.04-2.84,1.16-1.2.14-2.41-.03-3.6-.14-.7-.07-1.42-.12-2.07.2-.44.22-.72.62-1.02,1.01-1.18,1.55-2.98,1.94-4.85,2.01-2.01.09-4.1-.2-6.03-.78-.78-.24-1.57-.53-2.26-.97-.34-.21-.52-.45-.73-.73-.4-.21-.79-.45-1.16-.7-.05-.03-.1-.07-.14-.11-.15-.04-.28-.08-.41-.13-.18-.07-.27-.23-.28-.39-.53-.44-1.01-.95-1.27-1.56-.39-.95-.11-1.87.23-2.78.18-.48.38-.97.36-1.49-.02-.59-.3-1.2-.51-1.75-.47-1.26-1-2.5-1.14-3.86-.13-1.3.22-2.32.97-3.36.33-.47.72-.96.8-1.55.07-.43-.04-.84-.05-1.26-.03-1.01.67-1.66,1.43-2.21.94-.7,2-1.2,3.01-1.78.96-.55,1.94-1.18,2.58-2.1.72-1.04-.09-2.1.15-3.25.46-2.18,3.51-2.7,5.35-2.59,2.35.15,4.47,1.24,6.76,1.67,2.47.48,4.73-.59,7.09-1.16,2.4-.58,5.05-.92,7.4.06,1.16.48,1.91,1.31,2.85,2.1s2.2.93,3.23,1.54c.93.55,1.78,1.36,2.21,2.36.46,1.05.44,2.22,1.02,3.22.54.93,1.06,1.8,1.36,2.85Zm-1.21,3.8c.33-.84.24-1.84.06-2.7-.2-1.03-.58-1.93-1.13-2.83-.28-.44-.54-.88-.72-1.37-.19-.51-.25-1.06-.37-1.59-.24-1.01-.74-1.75-1.6-2.35-.95-.67-2.14-.81-3.12-1.42-.92-.59-1.56-1.52-2.52-2.06-1.02-.58-2.21-.79-3.38-.79-2.4-.01-4.73.77-7.01,1.43-1.08.32-2.16.51-3.28.42-1.11-.09-2.18-.36-3.23-.69-2.07-.64-4.21-1.47-6.4-.95-.84.2-1.99.58-2.05,1.59-.03.49.17.97.23,1.46.05.53-.03,1.03-.27,1.51-.96,1.97-3.23,2.93-5.04,3.95-.63.36-2,.95-2.09,1.77-.04.35.07.72.07,1.07-.01.51-.13,1-.35,1.45-.5,1.03-1.44,1.74-1.53,2.94-.09,1.31.4,2.58.83,3.79.38,1.04.88,2.12.68,3.26-.16.91-.8,1.72-.86,2.65-.06.85.58,1.57,1.2,2.14.41-.02.83-.06,1.23.07.49.16.77.5,1.05.92.38.56,1.22.82,1.85,1.04.84.29,1.72.5,2.61.65,1.78.3,3.75.44,5.51-.04.81-.22,1.36-.6,1.88-1.27.7-.92,1.48-1.55,2.67-1.69,2.15-.27,4.42.81,6.46-.34.94-.53,1.56-1.41,2.4-2.07.84-.67,1.76-.79,2.78-.95,1.15-.19,1.63-1.39,2.17-2.29.67-1.1,1.63-1.75,2.74-2.34,1.06-.56,1.87-1.3,2.79-2.04.88-.71,1.84-1.15,2.98-1.24,1.07-.08,2.28.11,2.76-1.09Z"/><path class="cls-1" d="m395.2,145.34c.18.86.27,1.86-.06,2.7-.48,1.2-1.69,1.01-2.76,1.09-1.14.09-2.1.53-2.98,1.24-.92.74-1.73,1.48-2.79,2.04-1.11.59-2.07,1.24-2.74,2.34-.54.9-1.02,2.1-2.17,2.29-1.02.16-1.94.28-2.78.95-.84.66-1.46,1.54-2.4,2.07-2.04,1.15-4.31.07-6.46.34-1.19.14-1.97.77-2.67,1.69-.52.67-1.07,1.05-1.88,1.27-1.76.48-3.73.34-5.51.04-.89-.15-1.77-.36-2.61-.65-.63-.22-1.47-.48-1.85-1.04-.28-.42-.56-.76-1.05-.92-.4-.13-.82-.09-1.23-.07-.62-.57-1.26-1.29-1.2-2.14.06-.93.7-1.74.86-2.65.2-1.14-.3-2.22-.68-3.26-.43-1.21-.92-2.48-.83-3.79.09-1.2,1.03-1.91,1.53-2.94.22-.45.34-.94.35-1.45,0-.35-.11-.72-.07-1.07.09-.82,1.46-1.41,2.09-1.77,1.81-1.02,4.08-1.98,5.04-3.95.24-.48.32-.98.27-1.51-.06-.49-.26-.97-.23-1.46.06-1.01,1.21-1.39,2.05-1.59,2.19-.52,4.33.31,6.4.95,1.05.33,2.12.6,3.23.69,1.12.09,2.2-.1,3.28-.42,2.28-.66,4.61-1.44,7.01-1.43,1.17,0,2.36.21,3.38.79.96.54,1.6,1.47,2.52,2.06.98.61,2.17.75,3.12,1.42.86.6,1.36,1.34,1.6,2.35.12.53.18,1.08.37,1.59.18.49.44.93.72,1.37.55.9.93,1.8,1.13,2.83Z"/><path class="cls-1" d="m383.48,193.65c2.06,1.27,1.99,3.79,1.84,5.92-.14,2.07-.6,4.24-1.88,5.92-3.02,3.99-8.24,2.7-12.46,2.06-3-.45-6.16-.81-9.13-.01-1.55.42-2.99,1.14-4.54,1.56-1.49.4-2.99.77-4.43,1.34-2.58,1.01-5.03,2.54-7.78,3.02-1.96.35-4,.3-5.93-.18-1.79-.45-3.58-1.32-4.8-2.73-1.32-1.55-1.89-3.62-1.56-5.63.24-1.51,1.12-2.8.95-4.39-.15-1.36-.5-2.59-.27-3.98.2-1.19.75-2.35,1.58-3.23.17-.19.36-.34.55-.49.33-.35.7-.66,1.11-.86,1.04-.52,2.19-.41,3.31-.3,1.34.13,2.54-.05,3.72-.73,1.15-.66,2.14-1.61,3.33-2.21,1-.5,2.1-.72,3.13-1.16.47-.21,1-.48,1.26-.95.21-.4.11-.73.04-1.14-.38-2.4,2.79-3.39,4.57-3.89,2.78-.78,5.65-.07,8.26.93,1.41.54,2.84,1.04,4.3,1.46,1.32.38,2.64.61,3.76,1.47,1.99,1.51,2.84,4.01,4.74,5.6,1.84,1.53,4.36,1.38,6.33,2.6Zm.32,6.12c.09-1.03.2-2.16-.02-3.18-.47-2.22-3.15-2.32-4.93-2.95-2.14-.76-3.56-2.15-4.83-4-.64-.92-1.25-1.87-2.07-2.65-.97-.9-2.1-1.13-3.34-1.47-1.33-.37-2.64-.81-3.94-1.3-1.26-.47-2.49-.97-3.81-1.24-2.37-.47-4.74-.15-6.87.99-.38.2-.96.53-1.05.99-.06.33.13.72.14,1.05.04,1-.58,1.86-1.38,2.41-.85.57-1.9.83-2.86,1.15-1.09.37-1.96.97-2.89,1.63-.94.66-1.9,1.3-3,1.65-1.15.35-2.32.26-3.48.1-.3-.04-.59-.08-.87-.09,0,0,0,.01-.01.01-.96.43-1.9,1.11-2.53,1.96-.29.37-.49.79-.64,1.22.07.39.23.77.51,1.14.12.16-.12.4-.28.28-.18-.14-.34-.29-.48-.45-.04.28-.06.57-.05.86.03,1.26.5,2.46.39,3.73-.13,1.38-.93,2.59-1.03,3.96-.06.85.04,1.73.37,2.52,1.33,3.16,5.41,4.05,8.48,3.89,2.23-.11,4.23-.99,6.24-1.89,1.35-.59,2.7-1.19,4.1-1.64,1.34-.42,2.72-.7,4.06-1.1,1.38-.42,2.66-1.08,4.06-1.41,1.3-.31,2.66-.43,4-.43,2.84.02,5.64.56,8.43.99,1.95.29,4.06.53,5.93-.28,1.49-.65,2.52-1.95,3.05-3.46.34-.96.52-1.97.6-2.99Z"/><path class="cls-1" d="m383.78,196.59c.22,1.02.11,2.15.02,3.18-.08,1.02-.26,2.03-.6,2.99-.53,1.51-1.56,2.81-3.05,3.46-1.87.81-3.98.57-5.93.28-2.79-.43-5.59-.97-8.43-.99-1.34,0-2.7.12-4,.43-1.4.33-2.68.99-4.06,1.41-1.34.4-2.72.68-4.06,1.1-1.4.45-2.75,1.05-4.1,1.64-2.01.9-4.01,1.78-6.24,1.89-3.07.16-7.15-.73-8.48-3.89-.33-.79-.43-1.67-.37-2.52.1-1.37.9-2.58,1.03-3.96.11-1.27-.36-2.47-.39-3.73-.01-.29.01-.58.05-.86.14.16.3.31.48.45.16.12.4-.12.28-.28-.28-.37-.44-.75-.51-1.14.15-.43.35-.85.64-1.22.63-.85,1.57-1.53,2.53-1.96.01,0,.01-.01.01-.01.28.01.57.05.87.09,1.16.16,2.33.25,3.48-.1,1.1-.35,2.06-.99,3-1.65.93-.66,1.8-1.26,2.89-1.63.96-.32,2.01-.58,2.86-1.15.8-.55,1.42-1.41,1.38-2.41-.01-.33-.2-.72-.14-1.05.09-.46.67-.79,1.05-.99,2.13-1.14,4.5-1.46,6.87-.99,1.32.27,2.55.77,3.81,1.24,1.3.49,2.61.93,3.94,1.3,1.24.34,2.37.57,3.34,1.47.82.78,1.43,1.73,2.07,2.65,1.27,1.85,2.69,3.24,4.83,4,1.78.63,4.46.73,4.93,2.95Z"/><path class="cls-1" d="m314.84,182.11c.54.8.79,1.76.65,2.72-.15,1.01-.76,1.96-1.32,2.79-1.15,1.71-2.57,3.37-4.36,4.42-1.34.79-3.22,1.47-2.58,3.37.22.64.32,1.12-.08,1.74-.56.87-1.48,1.55-2.38,2.04-1.86,1.02-4.04,1-6.08.7-2.2-.33-4.32-1.05-6.43-1.73-1.1-.35-2.19-.6-3.35-.64-1.08-.04-2.16.13-3.23-.03-1.81-.29-2.48-1.72-3.38-3.1-1.04-1.58-2.71-1.61-4.41-1.46-1.79.15-3.56.32-5.25-.44-1.5-.68-2.65-1.64-2.76-3.37-.05-.9.07-1.8.02-2.71-.06-1.02-.16-2.05.14-3.05.66-2.26,2.72-3.8,3.97-5.72.69-1.06,1.25-2.18,2.01-3.11-.46-.05-.82-.67-.39-1.02.83-.69,1.64-1.36,2.59-1.9.92-.52,1.94-.9,3-.94,1.12-.05,2.19.33,3.23.66,1.18.37,2.19.5,3.4.23,1-.22,1.97-.52,2.98-.65,2.34-.3,4.62.74,6.67,1.77,1.08.54,2.14,1.16,3.1,1.91.86.68,1.62,1.47,2.41,2.22.85.8,1.77,1.52,2.87,1.94,1.14.43,2.35.5,3.55.63,2.11.23,4.17.89,5.41,2.73Zm-.79,2.77c.53-1.87-1.41-3.39-3-3.83-1.07-.29-2.17-.32-3.26-.46-1.16-.14-2.26-.42-3.29-.96-1.79-.93-3.03-2.55-4.57-3.81-1.75-1.44-3.97-2.48-6.11-3.2-1-.34-2.01-.48-3.06-.31-.96.16-1.9.47-2.85.66-1.09.22-2.09.18-3.16-.11-.98-.26-1.93-.69-2.95-.79-1.26-.12-2.36.41-3.41,1.06.05.11.05.24-.05.32-.76.63-1.42,1.44-1.9,2.31-.49.89-.9,1.84-1.45,2.7-.57.91-1.27,1.73-1.95,2.56-.68.86-1.43,1.81-1.68,2.9-.21.91-.02,1.86.02,2.78.05,1.24-.46,2.89.67,3.77,1.35,1.06,2.96,1.23,4.6,1.1,1.54-.11,3.17-.4,4.65.17.81.32,1.47.85,1.99,1.54.5.64.8,1.42,1.34,2.04,1.1,1.27,3.12.67,4.59.75,2.1.13,4.04.91,6.04,1.51,1.96.58,3.99,1.11,6.04,1.03.95-.03,1.9-.22,2.74-.67.45-.25.89-.54,1.27-.88.22-.2.59-.51.68-.8,0-.02,0-.07-.02-.11-.04-.12-.09-.24-.13-.35-.12-.36-.18-.74-.19-1.12-.02-.8.26-1.54.8-2.13,1.09-1.21,2.8-1.66,4-2.76.77-.69,1.47-1.48,2.08-2.31.58-.77,1.25-1.66,1.52-2.6Z"/><path class="cls-1" d="m311.05,181.05c1.59.44,3.53,1.96,3,3.83-.27.94-.94,1.83-1.52,2.6-.61.83-1.31,1.62-2.08,2.31-1.2,1.1-2.91,1.55-4,2.76-.54.59-.82,1.33-.8,2.13,0,.38.07.76.19,1.12.04.11.09.23.13.35.02.04.02.09.02.11-.09.29-.46.6-.68.8-.38.34-.82.63-1.27.88-.84.45-1.79.64-2.74.67-2.05.08-4.08-.45-6.04-1.03-2-.6-3.94-1.38-6.04-1.51-1.47-.08-3.49.52-4.59-.75-.54-.62-.84-1.4-1.34-2.04-.52-.69-1.18-1.22-1.99-1.54-1.48-.57-3.11-.28-4.65-.17-1.64.13-3.25-.04-4.6-1.1-1.13-.88-.62-2.53-.67-3.77-.04-.92-.23-1.87-.02-2.78.25-1.09,1-2.04,1.68-2.9.68-.83,1.38-1.65,1.95-2.56.55-.86.96-1.81,1.45-2.7.48-.87,1.14-1.68,1.9-2.31.1-.08.1-.21.05-.32,1.05-.65,2.15-1.18,3.41-1.06,1.02.1,1.97.53,2.95.79,1.07.29,2.07.33,3.16.11.95-.19,1.89-.5,2.85-.66,1.05-.17,2.06-.03,3.06.31,2.14.72,4.36,1.76,6.11,3.2,1.54,1.26,2.78,2.88,4.57,3.81,1.03.54,2.13.82,3.29.96,1.09.14,2.19.17,3.26.46Z"/><path class="cls-1" d="m305.07,227.16c1.13,1.25,1.67,3.23.84,4.77-.74,1.35-2.28,2.09-3.67,2.58-1.48.53-3.05.8-4.61.99-2.51.3-4.57,2.05-7.12,2.2-1.35.08-2.71-.21-4.04-.45-1.32-.25-2.51-.52-3.72-1.12-1.1-.54-2.15-1.13-3.37-1.38-1.22-.24-2.47-.33-3.71-.24-1.23.08-2.48.38-3.46,1.17-.87.71-1.47,1.68-2.13,2.57-.7.96-1.48,1.96-2.58,2.47-1.14.53-2.41.51-3.6.17-1.04-.3-2.35-.81-3.09-1.62-.53-.58-.27-1.16-.48-1.81-.34-1-1.69-1.23-2.41-1.9-.88-.84-1.25-2.07-1.34-3.25-.04-.62,0-1.23.08-1.85.07-.48.11-.58.12-.99.03-.6,0-1.22-.02-1.82-.03-1.48-.1-3.13.51-4.51.43-.98,1.2-1.53,2.14-1.59.06-.1.13-.21.2-.32.32-.48.68-.89,1.14-1.25,1.07-.84,2.35-1.45,3.51-2.15s2.34-1.36,3.58-1.89c2.3-.97,4.83-1.67,7.27-2.2,2.3-.5,4.89-.85,7.16-.02,2.12.78,3.88,2.18,5.74,3.4.9.59,1.84,1.13,2.87,1.47,1.16.39,2.27.41,3.47.41,2.45-.01,4.62.81,6.41,2.49.49.46.93.96,1.23,1.58.26.52.43,1.07.66,1.61.27.61.61,1.05,1.15,1.45.43.32.9.63,1.27,1.03Zm-5.68,6.64c2.09-.41,6.36-1.42,5.35-4.41-.35-1.02-1.04-1.56-1.87-2.2-.94-.71-1.38-1.6-1.8-2.69-.82-2.12-2.88-3.57-5.1-3.96-1.14-.21-2.29-.04-3.43-.15-1.04-.11-2.02-.38-2.97-.79-1.85-.8-3.41-2.1-5.1-3.17-.91-.57-1.87-1.13-2.9-1.45s-2.11-.36-3.18-.3c-2.39.14-4.72.83-6.99,1.53-1.12.35-2.25.67-3.31,1.15-1.15.51-2.23,1.14-3.31,1.78-1.07.65-2.31,1.2-3.28,2.01-.88.74-1.21,1.88-2.26,2.45-.38.2-.8-.11-.84-.46-.48.95-.42,2.32-.4,3.29.02,1.2.21,2.43.06,3.62-.14,1.08-.25,2.21.08,3.27.17.54.48,1.07.94,1.41.4.28.87.45,1.27.71.78.51,1.37,1.3,1.44,2.25.01.2-.01.54.02.58.15.26.66.48.94.62,1.03.53,2.26,1,3.43.78s1.95-1.16,2.62-2.07c1.29-1.74,2.44-3.45,4.62-4.13,2.15-.67,4.83-.56,6.99.07,1.08.32,2.05.88,3.05,1.37,1.1.53,2.2.75,3.39.97,1.3.24,2.65.53,3.98.37,1.23-.15,2.34-.74,3.45-1.23,1.05-.46,2.07-.79,3.21-.93.64-.07,1.27-.17,1.9-.29Z"/><path class="cls-1" d="m304.74,229.39c1.01,2.99-3.26,4-5.35,4.41-.63.12-1.26.22-1.9.29-1.14.14-2.16.47-3.21.93-1.11.49-2.22,1.08-3.45,1.23-1.33.16-2.68-.13-3.98-.37-1.19-.22-2.29-.44-3.39-.97-1-.49-1.97-1.05-3.05-1.37-2.16-.63-4.84-.74-6.99-.07-2.18.68-3.33,2.39-4.62,4.13-.67.91-1.45,1.85-2.62,2.07s-2.4-.25-3.43-.78c-.28-.14-.79-.36-.94-.62-.03-.04-.01-.38-.02-.58-.07-.95-.66-1.74-1.44-2.25-.4-.26-.87-.43-1.27-.71-.46-.34-.77-.87-.94-1.41-.33-1.06-.22-2.19-.08-3.27.15-1.19-.04-2.42-.06-3.62-.02-.97-.08-2.34.4-3.29.04.35.46.66.84.46,1.05-.57,1.38-1.71,2.26-2.45.97-.81,2.21-1.36,3.28-2.01,1.08-.64,2.16-1.27,3.31-1.78,1.06-.48,2.19-.8,3.31-1.15,2.27-.7,4.6-1.39,6.99-1.53,1.07-.06,2.15-.02,3.18.3s1.99.88,2.9,1.45c1.69,1.07,3.25,2.37,5.1,3.17.95.41,1.93.68,2.97.79,1.14.11,2.29-.06,3.43.15,2.22.39,4.28,1.84,5.1,3.96.42,1.09.86,1.98,1.8,2.69.83.64,1.52,1.18,1.87,2.2Z"/><path class="cls-1" d="m276.13,117.49c.02.74,0,1.48-.1,2.21-.12.87-.57,1.42-1.05,2.12-.58.86-.52,1.98-.95,2.91-.33.68-.81,1.28-1.44,1.7-1.37.89-3,.52-4.47.17-3.08-.72-6.35-2.06-7.7-5.12-.37-.82-.6-1.69-.95-2.52-.4-.94-1.02-1.73-1.74-2.45-1.25-1.24-2.8-1.97-4.27-2.89-1.43-.89-2.81-2.14-3.71-3.57-.63-.97-.84-2.18-.85-3.37-.16-.17-.32-.35-.44-.56-.7-1.15-.91-2.71-.42-3.98.6-1.57,2.16-2.03,3.66-2.36,1.93-.42,3.78-1.33,5.23-2.68,1.03-.97,1.84-2.17,2.9-3.11,1.03-.92,2.26-1.46,3.65-1.25.73.1,1.46.35,2.16.58.67.22,1.34.5,1.89.95,1.36,1.12,1.1,2.81.7,4.33-.25.96-.43,1.86.06,2.77.48.89,1.17,1.65,1.8,2.43.6.75,1.07,1.53,1.53,2.36.48.86,1.08,1.47,1.8,2.12,1.23,1.1,1.67,2.51,2.03,4.07.39,1.68.63,3.42.68,5.14Zm-1.46,2.11c.22-1.38.09-2.86-.08-4.24-.17-1.46-.46-2.93-.93-4.32-.23-.71-.59-1.23-1.14-1.74-.6-.54-1.19-1.06-1.65-1.74-.5-.74-.84-1.57-1.37-2.3-.52-.73-1.13-1.39-1.67-2.11-.5-.67-.98-1.43-1.12-2.28-.14-.82.02-1.63.24-2.42.22-.76.54-1.6.34-2.39-.15-.6-.63-.97-1.16-1.24-.57-.29-1.21-.45-1.83-.63-.62-.19-1.23-.38-1.89-.27-1.2.2-2.09,1.2-2.85,2.06-.91,1.03-1.78,2.03-2.92,2.82-1.53,1.05-3.16,1.57-4.97,1.89-.81.15-1.7.33-2.32.91-.48.44-.77,1.08-.89,1.72-.15.89.01,1.85.45,2.65.02-.36.05-.72.09-1.06.05-.37.66-.54.72-.09.12.8.18,1.62.3,2.42.12.79.33,1.53.79,2.19.45.66,1.02,1.24,1.61,1.78,1.22,1.1,2.64,1.8,4.02,2.67,1.37.86,2.64,1.96,3.54,3.31.92,1.39,1.15,3.1,2,4.52,1.45,2.44,4.82,3.32,7.41,3.83,1.43.28,2.71.1,3.42-1.31.44-.86.37-1.86.8-2.72.32-.66.94-1.15,1.06-1.91Z"/><path class="cls-1" d="m274.59,115.36c.17,1.38.3,2.86.08,4.24-.12.76-.74,1.25-1.06,1.91-.43.86-.36,1.86-.8,2.72-.71,1.41-1.99,1.59-3.42,1.31-2.59-.51-5.96-1.39-7.41-3.83-.85-1.42-1.08-3.13-2-4.52-.9-1.35-2.17-2.45-3.54-3.31-1.38-.87-2.8-1.57-4.02-2.67-.59-.54-1.16-1.12-1.61-1.78-.46-.66-.67-1.4-.79-2.19-.12-.8-.18-1.62-.3-2.42-.06-.45-.67-.28-.72.09-.04.34-.07.7-.09,1.06-.44-.8-.6-1.76-.45-2.65.12-.64.41-1.28.89-1.72.62-.58,1.51-.76,2.32-.91,1.81-.32,3.44-.84,4.97-1.89,1.14-.79,2.01-1.79,2.92-2.82.76-.86,1.65-1.86,2.85-2.06.66-.11,1.27.08,1.89.27.62.18,1.26.34,1.83.63.53.27,1.01.64,1.16,1.24.2.79-.12,1.63-.34,2.39-.22.79-.38,1.6-.24,2.42.14.85.62,1.61,1.12,2.28.54.72,1.15,1.38,1.67,2.11.53.73.87,1.56,1.37,2.3.46.68,1.05,1.2,1.65,1.74.55.51.91,1.03,1.14,1.74.47,1.39.76,2.86.93,4.32Z"/><path class="cls-1" d="m262.86,163.1c.18.2.24.5.09.75-.97,1.6-2.4,2.88-3.79,4.12-.69.62-1.4,1.23-2.08,1.86-.66.61-1.24,1.33-1.95,1.89-1.08.85-2.29.89-3.58.53-.92-.26-1.77-.42-2.73-.46-.87-.04-1.84-.04-2.64-.42-.64-.31-.99-1.04-1.78-.87-.78.16-1.45.54-2.26.56-1.44.03-3-.48-4.12-1.41-1.14-.96-1.97-2.3-2.18-3.78-.21-1.46.11-2.92.53-4.31.27-.89.6-1.74.72-2.68.1-.81.14-1.63.31-2.44.14-.64.45-1.19.97-1.6.06-.04.13-.07.2-.11,0-.04,0-.07.01-.1.61-1.11,1.29-2.36,2.4-3.04,1.3-.8,2.48-.02,3.7.49.77.33,1.63.16,2.45.15.77,0,1.54.06,2.29.23,1.03.25,2.03.74,2.72,1.55.7.84,1.06,1.88,1.23,2.94.1.62.13,1.24.21,1.86.05.34.1.75.37,1,.39.35,1.11.35,1.6.35.57,0,1.24-.09,1.64-.54.33-.36,0-.88.1-1.32.14-.54.62-.86,1.15-.94,1.27-.21,1.56,1.08,2.08,1.92.79,1.25,1.34,2.71,2.34,3.82Zm-1.19.46c-.88-1.13-1.46-2.45-2.22-3.65-.15-.24-.46-1.25-.73-1.32-.05-.02-.14.02-.2.04-.01.02-.01.06,0,.11.07.23.09.5.08.73-.07,1.18-1.46,1.78-2.46,1.89-.99.12-2.3.05-3.06-.68-.7-.66-.71-1.71-.79-2.6-.09-1-.25-2.05-.8-2.91-.57-.91-1.54-1.37-2.55-1.61-1.45-.34-3.03.07-4.43-.48-1.09-.43-2.03-1.4-3.24-.7-.79.45-1.32,1.25-1.9,1.96.26-.12.49-.26.63-.48.16-.28.55-.09.49.21-.14.67-.65.87-1.21,1.17-.7.36-.97.91-1.08,1.66-.15.94-.11,1.89-.23,2.83-.1.86-.4,1.66-.62,2.49-.35,1.28-.62,2.67-.28,3.97.36,1.38,1.41,2.61,2.7,3.2.68.32,1.45.5,2.2.52.7.01,1.28-.29,1.94-.48.66-.18,1.32-.18,1.91.22.22.15.39.35.6.51.34.26.77.34,1.19.4.88.11,1.78.06,2.67.18.71.1,1.37.36,2.07.51.56.12,1.12.14,1.64-.11.6-.3,1.03-.83,1.49-1.29,2.07-2.1,4.56-3.8,6.19-6.29Z"/><path class="cls-1" d="m259.45,159.91c.76,1.2,1.34,2.52,2.22,3.65-1.63,2.49-4.12,4.19-6.19,6.29-.46.46-.89.99-1.49,1.29-.52.25-1.08.23-1.64.11-.7-.15-1.36-.41-2.07-.51-.89-.12-1.79-.07-2.67-.18-.42-.06-.85-.14-1.19-.4-.21-.16-.38-.36-.6-.51-.59-.4-1.25-.4-1.91-.22-.66.19-1.24.49-1.94.48-.75-.02-1.52-.2-2.2-.52-1.29-.59-2.34-1.82-2.7-3.2-.34-1.3-.07-2.69.28-3.97.22-.83.52-1.63.62-2.49.12-.94.08-1.89.23-2.83.11-.75.38-1.3,1.08-1.66.56-.3,1.07-.5,1.21-1.17.06-.3-.33-.49-.49-.21-.14.22-.37.36-.63.48.58-.71,1.11-1.51,1.9-1.96,1.21-.7,2.15.27,3.24.7,1.4.55,2.98.14,4.43.48,1.01.24,1.98.7,2.55,1.61.55.86.71,1.91.8,2.91.08.89.09,1.94.79,2.6.76.73,2.07.8,3.06.68,1-.11,2.39-.71,2.46-1.89,0-.23-.01-.5-.08-.73-.01-.05-.01-.09,0-.11.06-.02.15-.06.2-.04.27.07.58,1.08.73,1.32Z"/><path class="cls-1" d="m240.09,192.99c.48.67.69,1.43.53,2.25-.19,1.06-.89,1.93-1.32,2.9-.76,1.66-1.31,3.84-3.01,4.81-.99.57-2.31.65-3.42.65-1.3,0-2.6-.2-3.88-.43-2.74-.49-5.35-1.1-8.15-.74-1.34.18-2.71.42-4.07.23-1.12-.16-2.16-.71-3.29-.82-2.38-.21-2.82,2.48-3.76,4.04-1.04,1.72-3.26,2.23-5.11,2.58-.92.17-1.8.2-2.51-.5-.74-.73-.9-1.8-1.38-2.68-.87-1.59-2.92-1.18-4.28-2.05-.92-.6-1.52-1.66-1.72-2.73-.24-1.24.13-2.42.51-3.59s.45-2.38.77-3.57c.24-.91.67-1.74,1.24-2.49.64-.85,1.39-1.6,2.03-2.45.73-.97,1.3-2.06,1.77-3.17.49-1.13.87-2.3.97-3.53.08-.99.07-2.02.5-2.93.46-1.01,1.38-1.66,2.4-2.03.87-.32,1.81-.39,2.71-.61-.52-.57.34-1.42.89-.86.28.29.91-.35,1.21-.5.53-.27,1.11-.34,1.7-.38.76-.04,1.47-.05,2.22-.27.63-.19,1.24-.44,1.88-.63,1.36-.39,2.77-.37,4.15-.12s2.7.76,4.01,1.23c1.3.47,2.64.81,3.99,1.11,2.62.59,5.32,1.06,7.77,2.21,2.16,1.02,4.17,2.94,4.34,5.45.07.95-.24,1.85-.73,2.65-.45.72-1.06,1.38-1.37,2.17-.74,1.93,1.42,3.44,2.41,4.8Zm-1.58,4.09c.4-.81,1.17-1.68,1.05-2.65-.1-.73-.78-1.3-1.25-1.81-.66-.74-1.31-1.55-1.67-2.49-.66-1.78.43-3.09,1.34-4.49.54-.83.85-1.69.62-2.68-.26-1.18-1.08-2.2-2.02-2.93-1.96-1.52-4.68-2.09-7.05-2.62-1.33-.29-2.65-.56-3.96-.91-1.27-.33-2.47-.79-3.71-1.21-1.29-.45-2.62-.83-4-.85-1.4-.01-2.58.49-3.89.89-.66.19-1.31.27-1.99.29-.6.02-1.23.01-1.77.31-.66.36-1.29.81-1.93.64-.79.32-1.63.48-2.44.72-1.15.34-2.15,1.06-2.49,2.25-.28.97-.15,2.03-.28,3.03-.28,2.23-1.3,4.51-2.58,6.34-1.08,1.53-2.66,2.77-3.2,4.63-.31,1.1-.34,2.24-.69,3.34-.36,1.15-.9,2.36-.57,3.58.25.92.79,1.65,1.71,1.96.71.24,1.47.31,2.17.59.85.34,1.54.94,1.95,1.77.37.72.54,1.89,1.22,2.39.64.47,1.89-.05,2.56-.24.88-.25,1.87-.43,2.55-1.09.58-.55.85-1.34,1.17-2.05.41-.92.95-1.79,1.75-2.42,1.95-1.53,3.93-.07,6.03.14,1.31.14,2.63-.13,3.93-.29,1.28-.16,2.52-.15,3.8.02,2.54.33,5.03,1.09,7.59,1.18,1.07.03,2.49.05,3.41-.59.71-.5,1.13-1.35,1.49-2.12.4-.87.71-1.78,1.15-2.63Z"/><path class="cls-1" d="m239.56,194.43c.12.97-.65,1.84-1.05,2.65-.44.85-.75,1.76-1.15,2.63-.36.77-.78,1.62-1.49,2.12-.92.64-2.34.62-3.41.59-2.56-.09-5.05-.85-7.59-1.18-1.28-.17-2.52-.18-3.8-.02-1.3.16-2.62.43-3.93.29-2.1-.21-4.08-1.67-6.03-.14-.8.63-1.34,1.5-1.75,2.42-.32.71-.59,1.5-1.17,2.05-.68.66-1.67.84-2.55,1.09-.67.19-1.92.71-2.56.24-.68-.5-.85-1.67-1.22-2.39-.41-.83-1.1-1.43-1.95-1.77-.7-.28-1.46-.35-2.17-.59-.92-.31-1.46-1.04-1.71-1.96-.33-1.22.21-2.43.57-3.58.35-1.1.38-2.24.69-3.34.54-1.86,2.12-3.1,3.2-4.63,1.28-1.83,2.3-4.11,2.58-6.34.13-1,0-2.06.28-3.03.34-1.19,1.34-1.91,2.49-2.25.81-.24,1.65-.4,2.44-.72.64.17,1.27-.28,1.93-.64.54-.3,1.17-.29,1.77-.31.68-.02,1.33-.1,1.99-.29,1.31-.4,2.49-.9,3.89-.89,1.38.02,2.71.4,4,.85,1.24.42,2.44.88,3.71,1.21,1.31.35,2.63.62,3.96.91,2.37.53,5.09,1.1,7.05,2.62.94.73,1.76,1.75,2.02,2.93.23.99-.08,1.85-.62,2.68-.91,1.4-2,2.71-1.34,4.49.36.94,1.01,1.75,1.67,2.49.47.51,1.15,1.08,1.25,1.81Z"/></svg>