<?xml version="1.0" encoding="UTF-8"?><svg id="Tree_05_-_Leaves_03" xmlns="http://www.w3.org/2000/svg" viewBox="0 0 1160 418.25"><defs><style>.cls-1{fill:#c6d604;stroke-width:0px;}</style></defs><path class="cls-1" d="m422.68,151.24c.16.91.31,1.86.21,2.79-.05.44-.13.93-.34,1.33-.21.39-.54.72-.81,1.06-.58.73-1.39,1.49-1.64,2.41-.23.84.1,1.75-.53,2.48-.56.64-1.45.79-2.25.86-1.03.09-2.06.21-3.09.25-1.19.05-2.4,0-3.59,0-1.08.01-2.34.02-3.35-.41-.75-.32-1.03-.83-1.36-1.52-.45-.94-1.15-1.4-2.18-1.5-.9-.08-1.83.03-2.73.1-1.3.1-2.58.31-3.84.57-1.05.21-2.11.55-3.18.52-.95-.04-1.89-.33-2.84-.29-.65.03-1.22.25-1.7.69-.31.28-.59.54-.97.73-.8.41-1.7.49-2.58.48-.87,0-1.99-.02-2.75-.48-.4-.26-.74-.6-1.2-.75-.58-.19-1.1,0-1.66.15-1.23.32-2.33.06-2.39-1.37-.02-.63.04-1.25.07-1.87.06-1.05-.29-2.06-.71-3.01-.21-.46-.42-.91-.4-1.44.03-.5.17-.97.36-1.44.21-.52.45-1.02.53-1.58.05-.32.11-.62.21-.92.09-.49.24-.97.54-1.41,1.02-1.53,2.76-2.27,4.5-2.65,1.08-.24,2.16-.42,3.23-.7,1.13-.3,2.26-.58,3.41-.8,2.34-.45,4.69.25,6.87,1.08,1.14.44,2.27,1.02,3.5,1.04,1.2.03,2.35-.35,3.45-.75,2.03-.75,4.13-1.75,6.33-1.7,1.07.03,1.94.41,2.85.95,1.05.63,2.19.86,3.39,1.08,1.55.29,3.28.43,4.6,1.38,1.4,1,1.75,3.05,2.04,4.64Zm-.91,3.12c.43-1.77-.03-3.74-.58-5.43-.25-.78-.57-1.37-1.28-1.8-.64-.4-1.39-.59-2.13-.75-1.83-.39-3.7-.54-5.38-1.41-.96-.49-1.8-.84-2.9-.77-1.03.07-2.03.38-3,.73-1.98.71-3.91,1.78-6.04,1.94-2.18.16-4.21-1.03-6.22-1.7-1.09-.36-2.21-.65-3.36-.66-1.14-.02-2.19.15-3.29.42-1.05.25-2.1.54-3.17.71-.87.15-1.74.28-2.57.56-.85.29-1.66.72-2.28,1.38-.28.3-.47.62-.62.96.07.1.1.22.07.36-.14.52.02,1.05-.08,1.58-.09.47-.3.9-.47,1.34-.36.88-.53,1.92-.28,2.86.24.88.5,1.71.38,2.63-.1.77-.72,2.94.63,2.95.93,0,1.68-.66,2.64-.53.81.1,1.55.61,2.32.85.86.28,1.75.5,2.66.48.48-.02.96-.09,1.41-.28.44-.19.75-.5,1.13-.79,1.48-1.11,3.17-.35,4.83-.36,1.09-.01,2.21-.41,3.29-.62,1.05-.21,2.11-.39,3.18-.49,1.5-.14,3.37-.48,4.74.34.65.39,1,.97,1.36,1.61.45.78,1.61.78,2.42.84,1.13.08,2.26.26,3.39.31,1.1.04,2.18,0,3.27-.11.82-.09,1.68-.01,2.47-.26,1.15-.37.91-1.38,1.06-2.34.13-.84.66-1.54,1.17-2.19.58-.74,1-1.43,1.23-2.36Z"/><path class="cls-1" d="m421.19,148.93c.55,1.69,1.01,3.66.58,5.43-.23.93-.65,1.62-1.23,2.36-.51.65-1.04,1.35-1.17,2.19-.15.96.09,1.97-1.06,2.34-.79.25-1.65.17-2.47.26-1.09.11-2.17.15-3.27.11-1.13-.05-2.26-.23-3.39-.31-.81-.06-1.97-.06-2.42-.84-.36-.64-.71-1.22-1.36-1.61-1.37-.82-3.24-.48-4.74-.34-1.07.1-2.13.28-3.18.49-1.08.21-2.2.61-3.29.62-1.66.01-3.35-.75-4.83.36-.38.29-.69.6-1.13.79-.45.19-.93.26-1.41.28-.91.02-1.8-.2-2.66-.48-.77-.24-1.51-.75-2.32-.85-.96-.13-1.71.53-2.64.53-1.35-.01-.73-2.18-.63-2.95.12-.92-.14-1.75-.38-2.63-.25-.94-.08-1.98.28-2.86.17-.44.38-.87.47-1.34.1-.53-.06-1.06.08-1.58.03-.14,0-.26-.07-.36.15-.34.34-.66.62-.96.62-.66,1.43-1.09,2.28-1.38.83-.28,1.7-.41,2.57-.56,1.07-.17,2.12-.46,3.17-.71,1.1-.27,2.15-.44,3.29-.42,1.15.01,2.27.3,3.36.66,2.01.67,4.04,1.86,6.22,1.7,2.13-.16,4.06-1.23,6.04-1.94.97-.35,1.97-.66,3-.73,1.1-.07,1.94.28,2.9.77,1.68.87,3.55,1.02,5.38,1.41.74.16,1.49.35,2.13.75.71.43,1.03,1.02,1.28,1.8Z"/><path class="cls-1" d="m402.08,236.61c.05,1.3-.23,2.9-1.25,3.8-.95.82-2.27.93-3.47.92-1.64-.02-3.24-.25-4.86.14-.92.23-1.82.54-2.77.64-.71.07-1.39-.03-2.09-.17-1.64-.32-3.31-.45-4.83.36-1.39.73-2.29,2.05-2.54,3.58-.29,1.73-.25,3.77.77,5.26.42.62.97.98,1.62,1.3.48.23.91.48,1.15.98.63,1.31-.2,2.78-1.02,3.78-.9,1.1-2.17,2.13-3.68,2.02-1.44-.09-2.38-1.24-3.55-1.92-1.7-.98-3.74-.5-5.6-.5-3.8-.01-7.45-.78-11.04-1.99-1.55-.52-3.39-1.09-4.68-2.13-.69-.54-.99-1.28-1.98-1.21-.44.04-.87.13-1.31.08-.37-.04-.73-.15-1.09-.26-.83-.26-1.64-.57-2.46-.84-.46-.16-.97-.3-1.38-.57-.61-.41-.79-1.2-.95-1.93-.69-.83-1.37-1.67-2.18-2.39-1.71-1.53-4.94-2.42-4.46-5.34.19-1.15,1.03-2.17,1.78-3.01.95-1.07,2.03-2.03,3.15-2.93.43-.34.86-.68,1.32-.98.61-.41,1.32-.61,2.01-.84.77-.25,1.69-.6,1.92-1.48.16-.64-.09-1.33.07-1.99.68-2.78,4.17-3.76,6.48-4.66,1.37-.53,2.49-1.18,3.6-2.14.94-.81,1.83-1.77,2.94-2.36,1.14-.59,2.4-.64,3.65-.47.75.11,1.46.27,2.22.31.75.03,1.51.04,2.25.16,1.18.19,2.28,1.05,2.14,2.34-.07.63-.22,1.22-.01,1.84.18.52.55.91,1.02,1.19,1.09.64,2.48.71,3.72.7,1.38-.02,2.75-.21,4.1-.46,1.59-.3,3.2-.74,4.83-.65,1.86.09,3.57.84,5.15,1.77.85.5,1.67,1.05,2.53,1.54.78.44,1.59.66,2.39,1.02.65.29,1,.74,1.06,1.46.04.48.02.6.38.92.24.22.49.41.75.59.92.63,1.98,1.06,2.85,1.77.87.69,1.31,1.65,1.35,2.75Zm-.9.3c.02-1.13-.43-1.97-1.36-2.59-.91-.62-1.92-1.06-2.8-1.73-.42-.32-1.01-.7-1.13-1.25-.08-.33.04-.74-.14-1.05-.18-.33-.66-.43-.99-.54-1.69-.57-3.11-1.62-4.65-2.5-1.56-.91-3.26-1.57-5.08-1.51-1.67.04-3.29.54-4.92.8-1.18.2-2.38.33-3.57.33-2.13.01-5.13-.43-5.62-2.95-.12-.61-.01-1.16.06-1.76.08-.62-.3-1.05-.89-1.26-1.22-.44-2.66-.15-3.94-.4-1.26-.25-2.64-.46-3.85.13-1.08.53-1.94,1.48-2.83,2.27-1.01.91-2,1.61-3.25,2.14-1.27.53-2.6.94-3.83,1.56-1.09.55-2.4,1.39-2.69,2.67-.15.64.09,1.28-.06,1.92-.16.69-.64,1.29-1.23,1.68-.64.41-1.39.59-2.1.83-.58.2-1.06.48-1.55.84-1.03.76-2,1.6-2.91,2.49-.87.85-1.88,1.84-2.3,3.01-.41,1.15.27,2.12,1.15,2.79.96.74,2.12,1.27,2.97,2.14.54.54.93,1.26,1.35,1.9.17-.13.46-.13.59.09.28.5.55,1,.79,1.52.14.3.14.38.39.52.53.28,1.14.43,1.7.65.76.29,1.54.64,2.34.82.79.17,1.59-.21,2.36.04.71.23,1.07.81,1.59,1.28.57.52,1.39.84,2.09,1.15.85.38,1.73.7,2.61.99,1.59.54,3.23,1.02,4.88,1.33,1.88.36,3.79.52,5.7.52,1.8-.01,3.68-.39,5.4.33.66.28,1.22.69,1.79,1.12.5.37,1.02.79,1.64.93,1.48.31,2.83-1.07,3.57-2.19.36-.57.68-1.24.51-1.94-.12-.49-.6-.64-1.01-.86-1.3-.68-2.11-1.93-2.45-3.33-.67-2.77-.14-6.21,2.36-7.9,1.17-.8,2.62-1.13,4.02-1.04.77.05,1.51.22,2.26.35.82.14,1.6.09,2.4-.11.89-.21,1.75-.52,2.65-.67.78-.13,1.57-.12,2.36-.09,1.25.04,2.63.21,3.84-.19,1.39-.47,1.75-1.95,1.78-3.28Z"/><path class="cls-1" d="m399.82,234.32c.93.62,1.38,1.46,1.36,2.59-.03,1.33-.39,2.81-1.78,3.28-1.21.4-2.59.23-3.84.19-.79-.03-1.58-.04-2.36.09-.9.15-1.76.46-2.65.67-.8.2-1.58.25-2.4.11-.75-.13-1.49-.3-2.26-.35-1.4-.09-2.85.24-4.02,1.04-2.5,1.69-3.03,5.13-2.36,7.9.34,1.4,1.15,2.65,2.45,3.33.41.22.89.37,1.01.86.17.7-.15,1.37-.51,1.94-.74,1.12-2.09,2.5-3.57,2.19-.62-.14-1.14-.56-1.64-.93-.57-.43-1.13-.84-1.79-1.12-1.72-.72-3.6-.34-5.4-.33-1.91,0-3.82-.16-5.7-.52-1.65-.31-3.29-.79-4.88-1.33-.88-.29-1.76-.61-2.61-.99-.7-.31-1.52-.63-2.09-1.15-.52-.47-.88-1.05-1.59-1.28-.77-.25-1.57.13-2.36-.04-.8-.18-1.58-.53-2.34-.82-.56-.22-1.17-.37-1.7-.65-.25-.14-.25-.22-.39-.52-.24-.52-.51-1.02-.79-1.52-.13-.22-.42-.22-.59-.09-.42-.64-.81-1.36-1.35-1.9-.85-.87-2.01-1.4-2.97-2.14-.88-.67-1.56-1.64-1.15-2.79.42-1.17,1.43-2.16,2.3-3.01.91-.89,1.88-1.73,2.91-2.49.49-.36.97-.64,1.55-.84.71-.24,1.46-.42,2.1-.83.59-.39,1.07-.99,1.23-1.68.15-.64-.09-1.28.06-1.92.29-1.28,1.6-2.12,2.69-2.67,1.23-.62,2.56-1.03,3.83-1.56,1.25-.53,2.24-1.23,3.25-2.14.89-.79,1.75-1.74,2.83-2.27,1.21-.59,2.59-.38,3.85-.13,1.28.25,2.72-.04,3.94.4.59.21.97.64.89,1.26-.07.6-.18,1.15-.06,1.76.49,2.52,3.49,2.96,5.62,2.95,1.19,0,2.39-.13,3.57-.33,1.63-.26,3.25-.76,4.92-.8,1.82-.06,3.52.6,5.08,1.51,1.54.88,2.96,1.93,4.65,2.5.33.11.81.21.99.54.18.31.06.72.14,1.05.12.55.71.93,1.13,1.25.88.67,1.89,1.11,2.8,1.73Z"/><path class="cls-1" d="m390.46,109.42c1.1,2.44-.02,4.84-1.74,6.66-.9.94-1.92,1.75-2.81,2.69-.54.56-.97,1.19-1.36,1.86-.34.58-.73,1.18-.95,1.82-.4,1.16-.39,2.57-1.32,3.49-.71.69-1.73.99-2.68,1.13-1.01.15-2.03.16-3.04.06-1.16-.11-2.07-.64-2.95-1.38-.91-.78-1.69-1.71-2.61-2.47-1.13-.94-2.32-1.04-3.73-.95-1.45.1-2.69.02-4.05-.52-1.48-.58-2.94-1.2-4.46-1.64-1.42-.41-2.89-.66-4.37-.51-1.38.14-2.66.66-3.88,1.3-2.8,1.48-5.87,1.58-8.93,2.1-3.28.56-6.52,1.35-9.76,2.11-2.1.5-4.81,1.19-6.73-.19-1.05-.76-1.59-2.15-2.15-3.27-.68-1.4-1.11-2.91-1.81-4.3-1.01-1.99-3.16-1.94-5.11-1.72-2.1.23-4.33.71-6.43.26-1.02-.21-1.69-.76-2.19-1.67-.31-.56-.55-1.16-1.04-1.6-.45-.41-.98-.64-1.56-.8-2.91-.8-5.92-1.29-8.8-2.22-.8-.26-1.56-.55-2.42-.61-.75-.06-1.51.03-2.25.17-1.53.3-3,.82-4.54,1.07-1.44.23-2.89.26-4.34.31-1.26.05-2.64.06-3.76-.6-1.78-1.04-.8-3.57-.18-5.03.58-1.39,1.4-2.67,1.73-4.16.2-.91.2-1.82-.56-2.46-.62-.53-1.39-.86-2.02-1.41-.76-.67-1.21-1.58-1.44-2.56-.3-1.23-.32-2.5-.04-3.73.31-1.34,1.34-2.43,1.53-3.79.09-.61-.01-1.23.11-1.85.08-.37.24-.72.43-1.04.12-.6.35-1.17.75-1.67.57-.71,1.32-1.23,1.86-1.97.6-.84.57-1.94,1.24-2.72.78-.9,2.17-1.48,3.27-1.85.68-.23,1.35-.28,2.06-.19.7.1,1.42.34,2.12.17.97-.22,1.68-.99,2.69-1.13.63-.08,1.27.11,1.9-.02.41-.09.72-.36,1.03-.63.52-.44,1.04-.89,1.64-1.2.57-.29,1.17-.47,1.77-.67.67-.22,1.28-.49,1.86-.9.44-.33.86-.7,1.35-.95,1.01-.51,2.11-.45,3.19-.25.92.16,2.02.48,2.66,1.21.3.34.48.78.57,1.22.05.28-.02.36.21.47.59.29,1.5.09,2.09-.11.69-.23,1.32-.61,1.93-1.01,1-.64,1.94-1.43,3.05-1.89,1.26-.53,2.66-.47,3.97-.83,1.36-.37,2.65-.95,4.03-1.26,2.26-.49,4.39.13,6.09,1.67s2.75,3.62,4.23,5.34c.7.82,1.55,1.74,2.61,2.06,1.27.37,2.42-.59,3.68-.59.63-.01,1.17.2,1.69.53.65.4,1.09.45,1.78.08.54-.28,1.05-.57,1.68-.62.72-.05,1.46.11,2.15.29.78.2,1.52.51,2.3.73.69.2,1.44.28,2.15.4,1.43.24,2.77.78,3.99,1.57,2.02,1.29,3.23,3.23,4.12,5.41.95,2.34,1.55,4.76,3.53,6.48,1.95,1.7,4.55,2.43,6.92,3.35,1.46.56,2.88,1.22,4.29,1.89,1.48.68,2.96,1.3,4.49,1.87,1.27.46,2.44,1.06,3.48,1.95,1.13.96,1.61,2.41,2.63,3.47,1.77,1.8,4.09,3.38,5.16,5.75Zm-3.53,6.69c1.74-1.64,3.58-3.89,2.28-6.36-1.2-2.31-3.59-3.7-5.26-5.62-.93-1.07-1.39-2.4-2.57-3.25-1.09-.8-2.34-1.39-3.54-2.01-1.38-.71-2.82-1.35-4.22-2.03-1.42-.7-2.84-1.36-4.31-1.93-2.17-.85-4.33-1.72-6.16-3.18-.9-.72-1.67-1.6-2.22-2.61-.57-1.03-.96-2.17-1.4-3.26-.89-2.2-1.98-4.33-4.05-5.62-1.23-.77-2.68-1.04-4.02-1.53-1.4-.52-2.79-1.14-4.23-1.55-.77-.23-1.74-.39-2.51-.05-.49.21-.89.58-1.39.78-1.3.51-2.11-.63-3.33-.72-1.18-.08-2.26.67-3.45.48-.95-.16-1.77-.79-2.45-1.43-3.03-2.88-4.85-8.58-10-7.66-1.37.25-2.66.85-3.99,1.27-.73.23-1.46.41-2.22.5-.58.07-1.15.14-1.71.34-1.09.38-2.01,1.18-2.96,1.83-1.11.75-2.32,1.47-3.69,1.58-.79.07-2,0-2.32-.89-.11-.29-.11-.61-.24-.89-.18-.4-.53-.6-.92-.77-.87-.36-2.03-.6-2.98-.46-1.15.18-1.96,1.26-2.98,1.74-1.27.59-2.58.78-3.7,1.69-.74.61-1.37,1.22-2.37,1.32-.59.05-1.19-.12-1.77,0-.43.1-.79.37-1.17.58-.49.27-1.01.49-1.57.57-.67.09-1.33-.06-1.99-.17-1.4-.24-2.66.36-3.84,1.07-.48.29-.82.59-.98,1.13-.13.46-.23.92-.46,1.35-.45.89-1.19,1.55-1.89,2.23-.75.74-1.04,1.51-1.03,2.57,0,.46-.44.64-.78.54.01.41.07.82.04,1.23-.09,1.34-.95,2.43-1.23,3.72-.24,1.13-.23,2.47.03,3.6.23.98.71,1.72,1.52,2.32.6.45,1.3.8,1.78,1.39,1.47,1.78,0,4.38-.73,6.15-.48,1.14-.9,2.33-1.03,3.57-.07.75.06,1.11.82,1.33,1.31.38,2.8.76,4.17.77,1.54,0,3.06-.18,4.55-.53,1.35-.32,2.67-.75,4.05-.87,1.51-.13,2.8.34,4.22.76,2.78.81,5.67,1.21,8.45,2.01,1.08.32,1.96.96,2.53,1.93.32.55.56,1.26,1.08,1.65.3.22.68.32,1.03.39,2.06.42,4.29-.13,6.33-.37,1.79-.21,3.86-.23,5.2,1.17.87.91,1.25,2.17,1.77,3.29.65,1.38,1.32,2.83,2.16,4.11,1.22,1.83,4.35,1.13,6.12.8,3.16-.58,6.25-1.47,9.4-2.07,2.97-.57,6.17-.6,8.9-2.02,1.21-.63,2.41-1.21,3.76-1.46,1.29-.24,2.59-.21,3.88,0,1.51.26,2.96.76,4.38,1.32,1.33.51,2.66,1.23,4.12,1.25,1.25.02,2.49-.25,3.73.01,1.22.25,2.18,1.04,3.05,1.88.85.81,1.65,1.75,2.66,2.36.84.51,1.79.52,2.74.51s1.99-.07,2.85-.5c1.09-.55,1.13-1.83,1.43-2.88.37-1.3,1.19-2.58,1.98-3.67.76-1.03,1.73-1.86,2.65-2.73Z"/><path class="cls-1" d="m389.21,109.75c1.3,2.47-.54,4.72-2.28,6.36-.92.87-1.89,1.7-2.65,2.73-.79,1.09-1.61,2.37-1.98,3.67-.3,1.05-.34,2.33-1.43,2.88-.86.43-1.9.49-2.85.5s-1.9,0-2.74-.51c-1.01-.61-1.81-1.55-2.66-2.36-.87-.84-1.83-1.63-3.05-1.88-1.24-.26-2.48.01-3.73-.01-1.46-.02-2.79-.74-4.12-1.25-1.42-.56-2.87-1.06-4.38-1.32-1.29-.21-2.59-.24-3.88,0-1.35.25-2.55.83-3.76,1.46-2.73,1.42-5.93,1.45-8.9,2.02-3.15.6-6.24,1.49-9.4,2.07-1.77.33-4.9,1.03-6.12-.8-.84-1.28-1.51-2.73-2.16-4.11-.52-1.12-.9-2.38-1.77-3.29-1.34-1.4-3.41-1.38-5.2-1.17-2.04.24-4.27.79-6.33.37-.35-.07-.73-.17-1.03-.39-.52-.39-.76-1.1-1.08-1.65-.57-.97-1.45-1.61-2.53-1.93-2.78-.8-5.67-1.2-8.45-2.01-1.42-.42-2.71-.89-4.22-.76-1.38.12-2.7.55-4.05.87-1.49.35-3.01.53-4.55.53-1.37-.01-2.86-.39-4.17-.77-.76-.22-.89-.58-.82-1.33.13-1.24.55-2.43,1.03-3.57.74-1.77,2.2-4.37.73-6.15-.48-.59-1.18-.94-1.78-1.39-.81-.6-1.29-1.34-1.52-2.32-.26-1.13-.27-2.47-.03-3.6.28-1.29,1.14-2.38,1.23-3.72.03-.41-.03-.82-.04-1.23.34.1.78-.08.78-.54,0-1.06.28-1.83,1.03-2.57.7-.68,1.44-1.34,1.89-2.23.23-.43.33-.89.46-1.35.16-.54.5-.84.98-1.13,1.18-.71,2.44-1.31,3.84-1.07.66.11,1.32.26,1.99.17.56-.08,1.08-.3,1.57-.57.38-.21.74-.48,1.17-.58.58-.12,1.18.05,1.77,0,1-.1,1.63-.71,2.37-1.32,1.12-.91,2.43-1.1,3.7-1.69,1.02-.48,1.83-1.56,2.98-1.74.95-.14,2.11.1,2.98.46.39.17.74.37.92.77.13.28.13.6.24.89.32.89,1.53.96,2.32.89,1.37-.11,2.58-.83,3.69-1.58.95-.65,1.87-1.45,2.96-1.83.56-.2,1.13-.27,1.71-.34.76-.09,1.49-.27,2.22-.5,1.33-.42,2.62-1.02,3.99-1.27,5.15-.92,6.97,4.78,10,7.66.68.64,1.5,1.27,2.45,1.43,1.19.19,2.27-.56,3.45-.48,1.22.09,2.03,1.23,3.33.72.5-.2.9-.57,1.39-.78.77-.34,1.74-.18,2.51.05,1.44.41,2.83,1.03,4.23,1.55,1.34.49,2.79.76,4.02,1.53,2.07,1.29,3.16,3.42,4.05,5.62.44,1.09.83,2.23,1.4,3.26.55,1.01,1.32,1.89,2.22,2.61,1.83,1.46,3.99,2.33,6.16,3.18,1.47.57,2.89,1.23,4.31,1.93,1.4.68,2.84,1.32,4.22,2.03,1.2.62,2.45,1.21,3.54,2.01,1.18.85,1.64,2.18,2.57,3.25,1.67,1.92,4.06,3.31,5.26,5.62Z"/><path class="cls-1" d="m374.46,169.37c.31.83,0,1.76-.32,2.54-.75,1.78-2.07,2.89-3.96,3.29-.96.21-1.93.28-2.89.45-1.37.24-2.64.75-3.94,1.19-1.28.43-2.58.71-3.93.62-1.38-.09-2.73-.44-4.06-.8-1.4-.38-2.79-.74-4.24-.79-1.4-.04-2.78.14-4.12.5-2.65.71-5.29,1.87-7.6,3.35-1.11.71-2.14,1.54-3.03,2.51-.74.81-1.34,1.71-2.01,2.57-.55.72-1.18,1.39-2,1.81-.99.5-2.14.66-3.24.64-2.4-.05-4.6-1.07-6.92-1.51-1.12-.21-2.27-.23-3.36.11-1.22.38-2.33,1.13-3.45,1.72-2.04,1.07-4.24,1.96-6.58,1.43-1.29-.29-2.54-.96-3.51-1.85-.96-.88-1.68-2.03-2.83-2.69-1.09-.63-2.34-.91-3.35-1.67-.86-.66-1.47-1.56-2.07-2.45-.61-.91-1.23-1.72-2.24-2.21-.84-.41-1.78-.56-2.7-.44-1.83.25-3.45,1.31-5.16,1.95-1.79.66-3.65.7-5.35-.28-.95-.54-1.71-1.33-2.58-1.98-.83-.63-1.73-.97-2.74-1.22-1.67-.41-3.65-.77-4.87-2.09-1.41-1.5-.99-3.61.48-4.9,1.56-1.35,3.7-1.72,5.22-3.11.85-.77,1.35-1.78,1.77-2.84.31-.78.58-1.64.73-2.5-.03-.19-.06-.38-.1-.57-.29-1.33-.83-2.5-1.41-3.72-.5-1.07-.86-2.19-.62-3.37.22-1.06.81-2.06,1.35-2.99.52-.88,1.01-1.81,1.64-2.62,1.36-1.75,3.51-2.76,5.74-2.48,1.11.14,2.08.65,3.1,1.07,1.13.48,2.28.56,3.5.54.55-.01,1.22-.11,1.58-.6.22-.28.21-.65.27-.99.2-1.03.9-1.92,1.71-2.55,1.83-1.42,4.46-1.91,6.72-2.04,2.83-.16,5.66.26,8.48.45,2.82.2,5.66.04,8.46.55,2.53.46,5.13,2.31,7.77,1.67,1.01-.25,1.84-.85,2.76-1.3.95-.47,2.01-.8,3.08-.66,2.01.27,3.03,2.13,3.12,4.01.11,2.51-1.51,4.69-1.57,7.16-.07,2.4,2.01,4.01,3.82,5.23,1.83,1.23,3.84,2.36,6.1,2.39,2.55.04,5.05-.8,7.6-.56,1.3.12,2.45.53,3.57,1.19.54.31,1.06.49,1.65.17.42-.22.71-.65,1-1.02.63-.79,1.34-1.28,2.37-1.33,1.06-.05,2.11.32,3.05.76.93.43,1.83,1,2.57,1.71.88.83,1.49,1.89,2.07,2.94.56,1.04,1.09,2.22,1.98,3.02.62.56,1.4.86,2.12,1.24.58.31,1.14.71,1.37,1.35Zm-1.42,2.53c.31-.63.83-1.73.34-2.41-.36-.5-1.12-.73-1.65-.99-.77-.39-1.46-.87-2-1.54-.74-.92-1.26-1.99-1.84-3.02-.57-1.02-1.21-2.02-2.14-2.75-.85-.67-1.85-1.22-2.89-1.53-.93-.29-2.02-.44-2.76.34-.67.72-1.1,1.58-2.1,1.9-1.11.35-1.9-.18-2.85-.68-1.17-.61-2.53-.76-3.84-.71-2.46.09-4.9.86-7.37.54-2.09-.27-4.07-1.45-5.78-2.63-1.65-1.14-3.51-2.6-4.04-4.63-.64-2.44.72-4.72,1.24-7.03.37-1.65.14-4.29-2.03-4.45-2.06-.15-3.65,1.72-5.63,2.03-2.65.42-4.96-1.07-7.45-1.64-2.78-.64-5.65-.42-8.47-.6-2.69-.17-5.37-.56-8.06-.49-1.3.03-2.55.21-3.8.55-1.03.29-2.1.65-2.93,1.35-.44.38-.85.86-1.04,1.41-.13.35-.12.73-.21,1.08-.25.94-1.2,1.58-2.12,1.74-1.06.18-2.35.12-3.4-.11-1.06-.23-1.99-.79-3-1.15-2.13-.77-4.39-.07-5.77,1.7-.64.81-1.13,1.78-1.65,2.67-.5.86-1.09,1.83-1.18,2.84-.1,1.24.66,2.37,1.14,3.46.23.51.41,1.04.56,1.58.1.06.18.16.19.31.04.3.06.6.07.9.03.22.07.45.09.68.22,2.03-.92,3.91-1.77,5.67-.08.15-.34.04-.29-.12-1.22,1.53-2.96,2.13-4.63,3.06-.79.44-1.66,1.02-2.04,1.87-.36.81-.1,1.69.54,2.26,1.23,1.12,3.13,1.31,4.67,1.73,1,.27,1.88.73,2.7,1.36.84.65,1.6,1.42,2.54,1.93,1.68.9,3.41.44,5.06-.28,1.63-.71,3.24-1.58,5.05-1.68,2.01-.1,3.84.88,5.03,2.47.63.84,1.14,1.78,1.89,2.53.86.86,2.05,1.19,3.13,1.7,1.17.56,2,1.44,2.86,2.39.9,1,1.95,1.78,3.26,2.18,2.32.72,4.51-.34,6.53-1.42,1.07-.58,2.14-1.25,3.31-1.62,1.08-.33,2.22-.37,3.34-.22,2.22.3,4.29,1.28,6.52,1.52,1.11.12,2.35.11,3.38-.39.77-.38,1.34-1.04,1.86-1.71.67-.89,1.31-1.79,2.08-2.59.86-.89,1.84-1.68,2.88-2.36,2.16-1.42,4.65-2.5,7.11-3.29,2.53-.8,5.17-1.04,7.78-.48,2.7.57,5.39,1.78,8.19,1.16,1.33-.29,2.57-.85,3.87-1.24,1.05-.31,2.12-.44,3.2-.6,1.86-.27,3.43-.75,4.32-2.55Z"/><path class="cls-1" d="m373.38,169.49c.49.68-.03,1.78-.34,2.41-.89,1.8-2.46,2.28-4.32,2.55-1.08.16-2.15.29-3.2.6-1.3.39-2.54.95-3.87,1.24-2.8.62-5.49-.59-8.19-1.16-2.61-.56-5.25-.32-7.78.48-2.46.79-4.95,1.87-7.11,3.29-1.04.68-2.02,1.47-2.88,2.36-.77.8-1.41,1.7-2.08,2.59-.52.67-1.09,1.33-1.86,1.71-1.03.5-2.27.51-3.38.39-2.23-.24-4.3-1.22-6.52-1.52-1.12-.15-2.26-.11-3.34.22-1.17.37-2.24,1.04-3.31,1.62-2.02,1.08-4.21,2.14-6.53,1.42-1.31-.4-2.36-1.18-3.26-2.18-.86-.95-1.69-1.83-2.86-2.39-1.08-.51-2.27-.84-3.13-1.7-.75-.75-1.26-1.69-1.89-2.53-1.19-1.59-3.02-2.57-5.03-2.47-1.81.1-3.42.97-5.05,1.68-1.65.72-3.38,1.18-5.06.28-.94-.51-1.7-1.28-2.54-1.93-.82-.63-1.7-1.09-2.7-1.36-1.54-.42-3.44-.61-4.67-1.73-.64-.57-.9-1.45-.54-2.26.38-.85,1.25-1.43,2.04-1.87,1.67-.93,3.41-1.53,4.63-3.06-.05.16.21.27.29.12.85-1.76,1.99-3.64,1.77-5.67-.02-.23-.06-.46-.09-.68-.01-.3-.03-.6-.07-.9-.01-.15-.09-.25-.19-.31-.15-.54-.33-1.07-.56-1.58-.48-1.09-1.24-2.22-1.14-3.46.09-1.01.68-1.98,1.18-2.84.52-.89,1.01-1.86,1.65-2.67,1.38-1.77,3.64-2.47,5.77-1.7,1.01.36,1.94.92,3,1.15,1.05.23,2.34.29,3.4.11.92-.16,1.87-.8,2.12-1.74.09-.35.08-.73.21-1.08.19-.55.6-1.03,1.04-1.41.83-.7,1.9-1.06,2.93-1.35,1.25-.34,2.5-.52,3.8-.55,2.69-.07,5.37.32,8.06.49,2.82.18,5.69-.04,8.47.6,2.49.57,4.8,2.06,7.45,1.64,1.98-.31,3.57-2.18,5.63-2.03,2.17.16,2.4,2.8,2.03,4.45-.52,2.31-1.88,4.59-1.24,7.03.53,2.03,2.39,3.49,4.04,4.63,1.71,1.18,3.69,2.36,5.78,2.63,2.47.32,4.91-.45,7.37-.54,1.31-.05,2.67.1,3.84.71.95.5,1.74,1.03,2.85.68,1-.32,1.43-1.18,2.1-1.9.74-.78,1.83-.63,2.76-.34,1.04.31,2.04.86,2.89,1.53.93.73,1.57,1.73,2.14,2.75.58,1.03,1.1,2.1,1.84,3.02.54.67,1.23,1.15,2,1.54.53.26,1.29.49,1.65.99Z"/><path class="cls-1" d="m291.25,260.13c.69.67.99,1.47.58,2.4-.38.84-1.27,1.32-2.06,1.69-.97.47-1.99.81-2.98,1.24-1.16.5-2.17,1.31-3.22,1.98-1.26.81-2.6,1.63-4.04,2.09-.99.31-1.98.27-2.86-.32-.95-.62-1.79-1.4-2.74-2.02-.85-.56-1.76-1.16-2.27-2.06-.35-.6-.39-1.24-.22-1.85,0-.05,0-.1,0-.16.06-1.12.71-2.1,1.43-2.92.86-.97,1.88-1.8,2.95-2.53.96-.65,1.87-1.14,3.05-1.13,1.1.02,2.33.39,3.41.07.8-.23,1.1-.94,1.46-1.61.78-1.43,2.65-3.05,4.32-1.94,1.4.91,1.83,3.06,2.06,4.6.07.53.09,1.02.33,1.52.19.4.49.65.8.95Zm-3.53,3.71c.89-.34,4.19-1.37,2.88-2.8-.6-.66-1.12-1.13-1.37-2.02-.21-.75-.21-1.56-.39-2.32-.25-1.03-.8-3.24-2.27-2.89-1.66.4-1.8,2.17-2.87,3.19-1.4,1.32-3.45.51-5.14.58-.93.04-1.76.54-2.51,1.05-.81.56-1.62,1.15-2.33,1.83-.49.47-.99,1.03-1.34,1.65.16.05.27.19.19.39-.93,2.38,1.82,3.43,3.35,4.61.68.52,1.42,1.39,2.34,1.42.66.03,1.33-.28,1.91-.55.66-.3,1.31-.66,1.94-1.05,1.12-.67,2.18-1.45,3.31-2.11.71-.42,1.52-.68,2.3-.98Z"/><path class="cls-1" d="m290.6,261.04c1.31,1.43-1.99,2.46-2.88,2.8-.78.3-1.59.56-2.3.98-1.13.66-2.19,1.44-3.31,2.11-.63.39-1.28.75-1.94,1.05-.58.27-1.25.58-1.91.55-.92-.03-1.66-.9-2.34-1.42-1.53-1.18-4.28-2.23-3.35-4.61.08-.2-.03-.34-.19-.39.35-.62.85-1.18,1.34-1.65.71-.68,1.52-1.27,2.33-1.83.75-.51,1.58-1.01,2.51-1.05,1.69-.07,3.74.74,5.14-.58,1.07-1.02,1.21-2.79,2.87-3.19,1.47-.35,2.02,1.86,2.27,2.89.18.76.18,1.57.39,2.32.25.89.77,1.36,1.37,2.02Z"/><path class="cls-1" d="m289.02,208.52c.35.84.43,1.82.08,2.68-.66,1.64-2.53,2.45-4.09,2.97-2.08.7-4.26,1.04-6.4,1.45-1.92.36-4,.62-5.36,2.17-.86.98-1.35,2.22-2.15,3.25-.92,1.2-2.19,1.79-3.66,2.08-1.78.35-3.6.27-5.41.35-1.96.09-3.85.65-5.79.91-1.88.25-3.65,0-5.49-.38-.91-.19-1.82-.37-2.76-.42-.93-.05-1.84.07-2.76.17-.84.09-1.7.11-2.53.25-.33.06-.69.21-1.02.12-.35-.1-.53-.41-.7-.7-.38-.61-.78-1.21-1.16-1.83-.14-.24-.29-.47-.44-.71-.38-.41-.76-.82-1.15-1.21-.7-.68-1.43-1.34-2.16-2-.45-.24-.9-.47-1.32-.76-.62-.42-1.07-.99-1.41-1.65-.88-.79-1.76-1.6-2.46-2.53-.81-1.07-1.25-2.32-1.06-3.66.22-1.46,1-2.96,1.92-4.09.85-1.03,2.07-1.65,3.14-2.42.42-.29.95-.64,1.16-1.13.18-.41.1-.91.03-1.34-.36-2.28-1.33-4.97.25-7.01,1.84-2.38,5.62-3.2,8.42-2.42.77.22,1.51.58,2.17,1.04.55.39,1.03.87,1.59,1.26,1.44,1.01,3.22.53,4.81.23,2.63-.49,5.93-.92,8.07,1.05.55.5.93,1.13,1.42,1.68.43.47.91.89,1.45,1.25,1.06.72,2.25,1.22,3.45,1.67,2.34.88,4.85,1.63,6.71,3.39.47.44.88.95,1.24,1.49.38.6.65,1.27,1.04,1.87.69,1.05,1.66,1.83,2.88,2.13,1.27.31,2.63.16,3.89-.14,1.04-.25,2.12-.62,3.21-.59,1.05.03,1.93.55,2.35,1.53Zm-2.52,4.09c1.45-.8,2.59-2.32,1.56-3.97-.55-.89-1.68-.76-2.56-.56-1.04.23-2,.64-3.07.78-2.56.33-4.94-.3-6.49-2.46-.78-1.1-1.2-2.35-2.19-3.31-.87-.85-1.95-1.45-3.06-1.95-2.21-.98-4.61-1.55-6.68-2.84-1.09-.68-1.91-1.54-2.69-2.55-.81-1.05-1.87-1.71-3.2-1.84-1.48-.15-3.07.04-4.52.3-1.57.29-3.29.73-4.83.1-1.18-.49-1.99-1.58-3.1-2.2-1.47-.82-3.29-.91-4.9-.52-1.36.32-2.92,1.02-3.75,2.2-.61.85-.64,1.89-.54,2.9.13,1.28.52,2.53.63,3.81.09,1.01-.29,1.76-1.06,2.4-.97.81-2.15,1.36-3.08,2.21-1.05.95-1.87,2.46-2.18,3.83-.34,1.48.32,2.76,1.29,3.84,1.05,1.16,2.27,2.16,3.43,3.21.25.22.5.45.75.68.39.2.79.4,1.18.63,1.34.78,2.25,1.84,3.07,3.14.43.68.87,1.35,1.29,2.03.09.14.19.29.27.44.05,0,.11-.02.15-.03.26-.05.52-.09.78-.12.85-.1,1.7-.15,2.55-.23,1.83-.18,3.5-.03,5.3.35,1.75.38,3.45.67,5.25.46,1.88-.22,3.72-.71,5.62-.75,3-.06,7.01.42,8.94-2.38.71-1.04,1.23-2.21,2.1-3.14.69-.74,1.55-1.25,2.51-1.55,1.78-.56,3.66-.79,5.48-1.16,1.94-.39,4-.79,5.75-1.75Z"/><path class="cls-1" d="m288.06,208.64c1.03,1.65-.11,3.17-1.56,3.97-1.75.96-3.81,1.36-5.75,1.75-1.82.37-3.7.6-5.48,1.16-.96.3-1.82.81-2.51,1.55-.87.93-1.39,2.1-2.1,3.14-1.93,2.8-5.94,2.32-8.94,2.38-1.9.04-3.74.53-5.62.75-1.8.21-3.5-.08-5.25-.46-1.8-.38-3.47-.53-5.3-.35-.85.08-1.7.13-2.55.23-.26.03-.52.07-.78.12-.04.01-.1.02-.15.03-.08-.15-.18-.3-.27-.44-.42-.68-.86-1.35-1.29-2.03-.82-1.3-1.73-2.36-3.07-3.14-.39-.23-.79-.43-1.18-.63-.25-.23-.5-.46-.75-.68-1.16-1.05-2.38-2.05-3.43-3.21-.97-1.08-1.63-2.36-1.29-3.84.31-1.37,1.13-2.88,2.18-3.83.93-.85,2.11-1.4,3.08-2.21.77-.64,1.15-1.39,1.06-2.4-.11-1.28-.5-2.53-.63-3.81-.1-1.01-.07-2.05.54-2.9.83-1.18,2.39-1.88,3.75-2.2,1.61-.39,3.43-.3,4.9.52,1.11.62,1.92,1.71,3.1,2.2,1.54.63,3.26.19,4.83-.1,1.45-.26,3.04-.45,4.52-.3,1.33.13,2.39.79,3.2,1.84.78,1.01,1.6,1.87,2.69,2.55,2.07,1.29,4.47,1.86,6.68,2.84,1.11.5,2.19,1.1,3.06,1.95.99.96,1.41,2.21,2.19,3.31,1.55,2.16,3.93,2.79,6.49,2.46,1.07-.14,2.03-.55,3.07-.78.88-.2,2.01-.33,2.56.56Z"/><path class="cls-1" d="m285.39,130.37c.17,1.32-.15,3.06-1.03,4.1-.71.85-1.8,1.03-2.86.98-1.49-.07-2.96-.42-4.45-.52-1.08-.06-2.19-.07-3.25.15-1.03.21-1.83.76-2.69,1.35-1.69,1.15-3.66,1.5-5.66,1.73-1.08.12-2.17.21-3.25.35-1.16.14-2.27.42-3.4.72-.83.22-1.68.39-2.54.28-.96-.12-1.85-.55-2.67-1.04-.76-.45-1.5-.98-2.36-1.22-1.08-.3-2.22-.07-3.3.15-1.06.22-2.12.43-3.21.33-1.04-.1-2.04-.38-3.03-.71-1.06-.35-2.1-.7-3.22-.83-1-.11-2-.05-2.99.13-1.97.36-3.86,1.04-5.85,1.29-2.03.25-4.06,0-6-.63-.93-.3-1.84-.66-2.75-1.02-.76-.3-1.55-.69-2.36-.84-1.23-.22-2.5-.09-3.74-.21-1.11-.11-2.42-.33-3.12-1.31-.62-.87-.55-2.2.07-3.05,1.29-1.78,3.93-1.44,5.75-2.22.7-.29,1.47-1.18.57-1.74-.55-.34-1.04-.71-.99-1.43.06-.84.77-1.4,1.06-2.15.47-1.17.17-2.48,1.45-3.18.74-.4,1.57-.56,2.4-.41.53.09,1.05.31,1.57.38.17-.04.32-.11.44-.24.53-.59.4-1.61.54-2.34.32-1.58,1.94-2.1,2.55-3.48.85-1.92-.17-4.1-.46-6.01-.18-1.22-.24-2.42.89-3.16,1.61-1.06,3.68-1.47,5.49-2,1.14-.34,2.27-.72,3.39-1.11,1.05-.37,2.12-.73,3.02-1.39.61-.45,1.19-1.03,1.95-1.23.68-.18,1.4.02,1.96.43,1.25.9,1.66,2.49,2.4,3.76.92,1.58,2.43,2.64,4.15,3.19,1.87.6,3.76,1.03,5.58,1.8,1.74.74,3.79,1.67,5.03,3.16.6.72,1.01,1.6,1.64,2.31.54.6,1.22,1.07,1.83,1.6,1.07.92,1.37,2.04,1.51,3.4.3,2.88.91,6.61,4.3,7.27,1.93.37,3.83-.84,5.74-.96,1.59-.1,2.8.94,4.19,1.53,2.13.89,5.33,1.24,5.71,4.04Zm-1.18,3.23c.63-1.2.94-3.14.1-4.31-.72-1-2.07-1.37-3.18-1.73-.63-.21-1.26-.41-1.88-.68-.72-.31-1.39-.74-2.11-1.07-1.69-.76-3.46.12-5.14.52-1.56.37-3.16.22-4.48-.77-1.08-.8-1.73-2.02-2.12-3.28-.43-1.39-.53-2.82-.72-4.25-.09-.67-.25-1.34-.68-1.87-.38-.47-.91-.83-1.37-1.22-.7-.58-1.28-1.19-1.78-1.94-.56-.85-1.07-1.63-1.91-2.23-1.62-1.19-3.49-2.03-5.38-2.7-1.68-.59-3.48-.89-5.09-1.65-1.43-.66-2.65-1.8-3.4-3.18-.68-1.23-1.15-3.07-2.56-3.67-.9-.38-1.61.18-2.3.71-.69.54-1.38.95-2.19,1.28-2.15.86-4.37,1.5-6.57,2.23-.96.32-1.9.68-2.81,1.13-.47.24-1.06.49-1.22,1.02-.21.68,0,1.56.14,2.22.21,1.01.52,2.01.62,3.04.15,1.45-.08,2.89-1.11,3.97-.53.55-1.29,1.03-1.6,1.75-.31.75-.18,1.6-.44,2.36-.05.17-.12.33-.22.48.28.17.31.69-.1.83-.79.27-1.5.18-2.3-.03-.83-.23-1.6-.29-2.38.19-.48.3-.53.74-.61,1.26-.1.69-.22,1.36-.56,1.97-.18.33-.57.75-.63,1.13-.04.28.11.3.35.46.56.35,1,.73,1.03,1.43.12,2.31-2.52,2.71-4.23,3.07-.85.18-1.96.35-2.57,1.03-.57.62-.54,1.7.21,2.15.96.58,2.33.51,3.41.54,1.27.03,2.41.11,3.61.57,1.8.69,3.57,1.52,5.47,1.93,2.03.44,4.06.27,6.06-.2,1.82-.43,3.62-1,5.49-1.04,2.11-.06,3.91.82,5.87,1.42,1.06.33,2.14.5,3.25.38,1.07-.12,2.1-.42,3.17-.53.9-.09,1.78.01,2.62.37.76.34,1.42.85,2.13,1.27.88.51,1.84.92,2.88.89.99-.03,1.94-.4,2.89-.63,2.01-.48,4.08-.54,6.12-.8,1.05-.14,2.1-.32,3.11-.67.97-.33,1.73-.95,2.59-1.48,1.6-.99,3.52-1.06,5.36-.95,1.45.1,2.88.43,4.33.52,1.16.07,2.25-.13,2.83-1.24Z"/><path class="cls-1" d="m284.31,129.29c.84,1.17.53,3.11-.1,4.31-.58,1.11-1.67,1.31-2.83,1.24-1.45-.09-2.88-.42-4.33-.52-1.84-.11-3.76-.04-5.36.95-.86.53-1.62,1.15-2.59,1.48-1.01.35-2.06.53-3.11.67-2.04.26-4.11.32-6.12.8-.95.23-1.9.6-2.89.63-1.04.03-2-.38-2.88-.89-.71-.42-1.37-.93-2.13-1.27-.84-.36-1.72-.46-2.62-.37-1.07.11-2.1.41-3.17.53-1.11.12-2.19-.05-3.25-.38-1.96-.6-3.76-1.48-5.87-1.42-1.87.04-3.67.61-5.49,1.04-2,.47-4.03.64-6.06.2-1.9-.41-3.67-1.24-5.47-1.93-1.2-.46-2.34-.54-3.61-.57-1.08-.03-2.45.04-3.41-.54-.75-.45-.78-1.53-.21-2.15.61-.68,1.72-.85,2.57-1.03,1.71-.36,4.35-.76,4.23-3.07-.03-.7-.47-1.08-1.03-1.43-.24-.16-.39-.18-.35-.46.06-.38.45-.8.63-1.13.34-.61.46-1.28.56-1.97.08-.52.13-.96.61-1.26.78-.48,1.55-.42,2.38-.19.8.21,1.51.3,2.3.03.41-.14.38-.66.1-.83.1-.15.17-.31.22-.48.26-.76.13-1.61.44-2.36.31-.72,1.07-1.2,1.6-1.75,1.03-1.08,1.26-2.52,1.11-3.97-.1-1.03-.41-2.03-.62-3.04-.14-.66-.35-1.54-.14-2.22.16-.53.75-.78,1.22-1.02.91-.45,1.85-.81,2.81-1.13,2.2-.73,4.42-1.37,6.57-2.23.81-.33,1.5-.74,2.19-1.28.69-.53,1.4-1.09,2.3-.71,1.41.6,1.88,2.44,2.56,3.67.75,1.38,1.97,2.52,3.4,3.18,1.61.76,3.41,1.06,5.09,1.65,1.89.67,3.76,1.51,5.38,2.7.84.6,1.35,1.38,1.91,2.23.5.75,1.08,1.36,1.78,1.94.46.39.99.75,1.37,1.22.43.53.59,1.2.68,1.87.19,1.43.29,2.86.72,4.25.39,1.26,1.04,2.48,2.12,3.28,1.32.99,2.92,1.14,4.48.77,1.68-.4,3.45-1.28,5.14-.52.72.33,1.39.76,2.11,1.07.62.27,1.25.47,1.88.68,1.11.36,2.46.73,3.18,1.73Z"/><path class="cls-1" d="m243.09,161.63c.14.77.3,1.41-.08,2.14-.5.97-1.26,1.64-2.18,2.19-.67.4-1.8.92-1.81,1.83-.01.76.59,1.51.93,2.15.35.64.64,1.35.54,2.09-.24,1.69-2.05,1.76-3.4,1.56-.8-.12-1.6-.38-2.42-.39-1.12-.01-2.18.42-3.23.75-1.17.37-2.31.5-3.53.5-1.38,0-2.76-.08-4.13-.01-1.26.08-2.51.25-3.77.31-1.33.06-2.51.28-3.68.95-1.87,1.08-3.96,2.54-6.24,2.23-1.93-.27-3.42-1.98-3.82-3.83-.16-.72-.08-1.43.46-1.96.44-.42,1.03-.62,1.51-.99.8-.62.77-1.51.64-2.43-.07-.51-.13-1.01-.18-1.52-.03-.24-.04-.51-.17-.73-.16-.27-.5-.47-.74-.67-.38-.31-.74-.62-1.05-1-.47-.58-.74-1.24-.75-1.98,0-.89.26-1.77.42-2.63.2-1.09-.31-2.02-.51-3.06-.19-.98-.01-1.91.6-2.71.28-.37.63-.7.97-1.03-.07-.12-.09-.27.01-.43.56-.88,1.48-1.44,2.36-1.98,1-.62,2.14-1.07,3.31-1.28,1.08-.2,2.16-.13,3.25-.11,1.18.03,2.36.07,3.53.25,1.04.16,2.02.53,3,.91,2.11.82,4.26,1.78,6.54,2.01,1.04.11,2.12.06,3.11-.33,1-.39,1.89-1.03,2.93-1.31.86-.23,1.98-.22,2.65.46.62.63.44,1.62.87,2.35.55.95,1.51,1.6,2.2,2.43.61.72,1.05,1.5,1.32,2.4.28.93.36,1.91.54,2.87Zm-.54,1.48c.08-.3.02-.6-.04-.9-.18-.93-.29-1.88-.51-2.81-.21-.86-.62-1.62-1.18-2.3-.68-.81-1.56-1.43-2.21-2.27-.29-.38-.53-.79-.65-1.25-.1-.34-.11-.71-.22-1.05-.36-1.07-1.83-.64-2.56-.29-.86.41-1.64.99-2.56,1.3-1.98.67-4.21.2-6.14-.41-2-.63-3.89-1.64-5.92-2.16-1.04-.27-2.12-.33-3.19-.38-1.08-.05-2.2-.16-3.28-.08-1.12.08-2.26.39-3.26.9-.9.46-2,1.15-2.56,2.01-.07.11-.16.16-.25.19-.18.21-.35.42-.53.63-.72.85-1.04,1.7-.75,2.8.24.93.68,1.83.62,2.82-.1,1.53-1,3.14.2,4.46.51.57,1.27.94,1.71,1.57.4.57.35,1.34.42,2,.1.91.37,1.88.02,2.77-.27.68-.78,1.16-1.4,1.51-.41.24-1.03.42-1.21.9-.3.74.21,1.86.58,2.49.52.89,1.32,1.53,2.35,1.73,1.12.21,2.28-.16,3.29-.63,1.03-.48,1.98-1.09,2.96-1.64.96-.53,1.98-.76,3.06-.84,1.23-.09,2.45-.15,3.68-.28,1.24-.13,2.5-.09,3.76-.06,1.25.02,2.51.06,3.74-.25,1.02-.26,1.99-.69,3.02-.88.85-.16,1.66-.09,2.5.07.73.15,1.48.31,2.24.3.7-.01,1.41-.24,1.59-1,.19-.79-.31-1.56-.7-2.22-.34-.58-.75-1.19-.82-1.89-.08-.79.38-1.39.97-1.86.75-.58,1.67-.93,2.35-1.62.35-.36.74-.88.88-1.38Z"/><path class="cls-1" d="m242.51,162.21c.06.3.12.6.04.9-.14.5-.53,1.02-.88,1.38-.68.69-1.6,1.04-2.35,1.62-.59.47-1.05,1.07-.97,1.86.07.7.48,1.31.82,1.89.39.66.89,1.43.7,2.22-.18.76-.89.99-1.59,1-.76.01-1.51-.15-2.24-.3-.84-.16-1.65-.23-2.5-.07-1.03.19-2,.62-3.02.88-1.23.31-2.49.27-3.74.25-1.26-.03-2.52-.07-3.76.06-1.23.13-2.45.19-3.68.28-1.08.08-2.1.31-3.06.84-.98.55-1.93,1.16-2.96,1.64-1.01.47-2.17.84-3.29.63-1.03-.2-1.83-.84-2.35-1.73-.37-.63-.88-1.75-.58-2.49.18-.48.8-.66,1.21-.9.62-.35,1.13-.83,1.4-1.51.35-.89.08-1.86-.02-2.77-.07-.66-.02-1.43-.42-2-.44-.63-1.2-1-1.71-1.57-1.2-1.32-.3-2.93-.2-4.46.06-.99-.38-1.89-.62-2.82-.29-1.1.03-1.95.75-2.8.18-.21.35-.42.53-.63.09-.03.18-.08.25-.19.56-.86,1.66-1.55,2.56-2.01,1-.51,2.14-.82,3.26-.9,1.08-.08,2.2.03,3.28.08,1.07.05,2.15.11,3.19.38,2.03.52,3.92,1.53,5.92,2.16,1.93.61,4.16,1.08,6.14.41.92-.31,1.7-.89,2.56-1.3.73-.35,2.2-.78,2.56.29.11.34.12.71.22,1.05.12.46.36.87.65,1.25.65.84,1.53,1.46,2.21,2.27.56.68.97,1.44,1.18,2.3.22.93.33,1.88.51,2.81Z"/></svg>