<?xml version="1.0" encoding="UTF-8"?><svg id="Tree_06_-_Leaves_01" xmlns="http://www.w3.org/2000/svg" viewBox="0 0 1160 418.25"><defs><style>.cls-1{fill:#8fb223;stroke-width:0px;}</style></defs><path class="cls-1" d="m809.07,184.62c-.35.53-.24,1.28-.18,1.88.09.89.13,1.8.34,2.66s.53,1.61.88,2.4c.43.99.76,2,1.04,3.03.13.47.23.94.34,1.42,0,.05.03.11.04.16-.05.03-.09.08-.11.16-.12.62.3,1.12.68,1.55.61.68,1.19,1.4,1.6,2.22.5.99.17,1.91-.05,2.92-.11.48-.16.94-.35,1.39-.18.4-.4.77-.59,1.15-.31.63-.59,1.36-.43,2.08.13.56.52.99.9,1.4.26.26.52.52.71.84.2.32.31.68.46,1.01.29.63.96,1.16,1.6,1.49,0,.03.02.07.04.1.35.36.53.68.54,1.19.02.33,0,.64,0,.96,0,.55-.02,1.15.23,1.65.27.53.79.79,1.37.87.7.09,1.08-.13,1.52-.63.27-.32.65-.68,1.09-.5.24.1.43.33.63.48.27.2.57.32.9.33.48.02.92-.15,1.39.03.63.25,1.08.81,1.79.88.82.07,1.47-.49,2.21-.74.89-.29,1.85-.03,2.73-.41.79-.34,1.41-.93,2.26-1.17.68-.19,1.14-.43,1.52-1.04.52-.84.89-1.55,1.83-1.96.61-.28,1.45-.3,1.96-.76.35-.31.33-.74.25-1.17-.07-.39-.22-.81.08-1.15.24-.28.63-.4.99-.47.96-.19,1.95-.16,2.92-.36,1.5-.32,2.49-1.25,2.97-2.71.24-.74.31-1.53.28-2.31-.02-.41-.06-.82-.13-1.23-.06-.31-.13-.66-.1-.99.1-.05.13-.17.06-.26,0-.02,0-.03,0-.04.03-.09-.1-.13-.15-.06-.23-.12-.46-.2-.68-.33-.38-.21-.55-.55-.75-.92-.34-.62-.67-1.24-1.17-1.75-.95-.97-2.34-1.55-3.61-1.95-1.39-.44-2.61-.39-3.98.08-1.19.41-3.16.94-4.07-.33-.32-.44-.45-1.02-.68-1.5-.29-.6-.63-1.18-.91-1.79-.5-1.11-.87-2.69-.58-3.89.28-1.12,1.45-1.65,2.41-2.07,1.19-.53,2.25-1.14,3.29-1.9.58-.42,1.16-.83,1.76-1.22.38-.25.76-.53,1-.93.28-.47.28-1.02.12-1.53-.12-.35-.24-.64-.28-1.01-.03-.28-.07-.5-.18-.75-.06-.13-.23-.17-.35-.14-1.2.24-2.42.43-3.63.1-1.06-.28-2.08-.95-2.91-1.67-.48-.42-1.12-1.01-1.8-.88-.5.09-.82.57-1.02.99-.48,1.01-.59,2.15-1.05,3.16-.42.92-1.61,3.2-2.91,2.43-.62-.37-1.07-.94-1.71-1.27-.74-.38-1.57-.58-2.39-.54-.75.03-1.61.08-2.3.4-.62.28-.76.88-1.24,1.27-.4.32-1.04.16-1.5.14-.4-.02-.79,0-1.17.16-.74.29-1.26.79-2.1.78-.61-.02-1.28,0-1.65.57Zm.43,3.21c-.08-.8-.3-1.8-.14-2.6.19-.94,1.19-.61,1.88-.69.75-.09,1.29-.71,2.01-.87.77-.18,1.69.23,2.41-.18.51-.29.66-.94,1.15-1.24.68-.43,1.79-.48,2.56-.46.87.02,1.79.3,2.46.86.45.38.9.93,1.49,1.09.48.13,1.01-.12,1.39-.4.95-.72,1.57-1.9,1.97-3,.35-.97.41-2.13,1.02-2.99.51-.72,1.2-.23,1.73.23.61.53,1.22,1.04,1.92,1.45,1.55.91,3.27.91,4.99.61.08.3.06.64.15.94.13.41.36.79.24,1.24-.18.67-.96.98-1.49,1.31-1.29.83-2.49,1.8-3.9,2.42-.97.43-2.08.83-2.76,1.69-.67.84-.57,2.05-.42,3.05.11.68.24,1.36.51,2,.25.58.57,1.13.86,1.69.46.87.68,2.04,1.58,2.57,1.14.68,2.52.44,3.7.04.74-.25,1.44-.5,2.22-.48.76,0,1.5.21,2.2.47,1.33.48,2.68,1.09,3.49,2.3.37.55.6,1.24,1.05,1.73.33.37.79.45,1.2.65-.19.6.06,1.38.09,1.97.04.91-.03,1.83-.38,2.68-.33.84-.92,1.59-1.78,1.92-.43.17-.89.26-1.35.32,0-.02,0-.04-.03-.04s-.03.03-.02.06c-.58.08-1.18.11-1.75.18-.6.07-1.26.15-1.72.58-.44.42-.44.93-.33,1.48.04.23.16.58.04.79-.15.28-.57.33-.83.42-.72.2-1.42.44-2,.91-.6.49-.85,1.21-1.29,1.82-.44.62-1.36.62-2,.96-.38.21-.73.48-1.1.69-.46.26-.93.34-1.45.37-.46.02-.94,0-1.39.12-.34.08-.66.25-.98.4-.43.2-.87.43-1.35.33-.32-.08-.59-.27-.86-.43-.3-.18-.62-.38-.97-.43-.36-.06-.71.03-1.07.03-.74,0-1.04-.63-1.68-.81-.53-.14-1.04.19-1.39.56-.18.18-.32.42-.57.52-.32.13-.76.06-1.08-.07-.55-.23-.7-.76-.74-1.31-.03-.54.02-1.09-.02-1.62-.03-.54-.21-.92-.53-1.29,0-.08-.06-.16-.16-.19-.03,0-.06-.02-.08-.03-.04-.02-.08,0-.11,0-.28-.29-.62-.53-.92-.82-.28-.27-.4-.59-.54-.94-.23-.58-.55-1.04-.98-1.5-.45-.48-.94-.95-.94-1.65,0-.84.55-1.59.9-2.31.36-.72.45-1.49.65-2.26.2-.79.39-1.61.09-2.41-.28-.74-.79-1.43-1.29-2.05-.24-.32-.81-.78-1.04-1.24.19-.02.36-.21.23-.41-.22-.32-.25-.8-.33-1.16-.13-.53-.26-1.06-.42-1.59-.3-1-.71-1.96-1.14-2.92-.45-.98-.76-1.97-.87-3.05Z"/><path class="cls-1" d="m809.35,185.23c-.16.8.06,1.8.14,2.6.11,1.08.42,2.07.87,3.05.43.95.84,1.91,1.14,2.92.16.53.29,1.05.42,1.59.08.36.12.84.33,1.16.13.2-.03.39-.23.41.23.46.8.92,1.04,1.24.49.62,1.01,1.3,1.29,2.05.3.79.11,1.61-.09,2.41-.2.77-.29,1.54-.65,2.26-.35.73-.9,1.47-.9,2.31,0,.7.49,1.17.94,1.65.43.45.74.91.98,1.5.14.35.27.68.54.94.3.29.63.53.92.82.03,0,.07-.02.11,0,.03.02.06.03.08.03.1.03.15.11.16.19.33.38.5.75.53,1.29.03.53-.02,1.08.02,1.62.04.55.19,1.09.74,1.31.32.13.76.2,1.08.07.25-.1.39-.33.57-.52.35-.37.86-.7,1.39-.56.64.18.94.82,1.68.81.36,0,.71-.09,1.07-.03.35.06.67.25.97.43.27.17.54.36.86.43.48.11.93-.13,1.35-.33.32-.15.63-.32.98-.4.45-.12.93-.1,1.39-.12.52-.03.99-.11,1.45-.37.38-.22.72-.48,1.1-.69.63-.34,1.55-.34,2-.96.44-.61.69-1.33,1.29-1.82.58-.47,1.29-.71,2-.91.26-.08.68-.14.83-.42.12-.22,0-.56-.04-.79-.11-.55-.11-1.06.33-1.48.46-.43,1.12-.52,1.72-.58.58-.07,1.17-.1,1.75-.18-.02-.03-.02-.06.02-.06s.04.03.03.04c.46-.06.92-.15,1.35-.32.86-.33,1.45-1.08,1.78-1.92.34-.85.42-1.77.38-2.68-.03-.59-.28-1.37-.09-1.97-.42-.2-.88-.28-1.2-.65-.45-.49-.68-1.18-1.05-1.73-.81-1.2-2.16-1.81-3.49-2.3-.7-.26-1.44-.46-2.2-.47-.79-.02-1.49.23-2.22.48-1.18.4-2.56.63-3.7-.04-.9-.53-1.12-1.7-1.58-2.57-.29-.56-.61-1.1-.86-1.69-.27-.64-.4-1.32-.51-2-.15-1-.25-2.21.42-3.05.68-.86,1.79-1.26,2.76-1.69,1.41-.63,2.61-1.6,3.9-2.42.53-.33,1.3-.64,1.49-1.31.12-.45-.12-.83-.24-1.24-.09-.3-.08-.64-.15-.94-1.71.3-3.43.3-4.99-.61-.7-.41-1.31-.92-1.92-1.45-.53-.46-1.22-.94-1.73-.23-.61.86-.67,2.02-1.02,2.99-.4,1.09-1.02,2.28-1.97,3-.38.28-.9.53-1.39.4-.58-.17-1.04-.72-1.49-1.09-.68-.56-1.6-.84-2.46-.86-.78-.02-1.89.03-2.56.46-.49.31-.64.95-1.15,1.24-.72.41-1.64,0-2.41.18-.73.16-1.26.78-2.01.87-.68.08-1.69-.25-1.88.69Z"/><path class="cls-1" d="m892.91,126.04c-.29,1.54-.36,3.24.28,4.71.63,1.43,2.02,2.33,2.66,3.75.34.78.44,1.63.57,2.46.14.92.38,1.76.72,2.63.51,1.29,1.31,3,.98,4.42-.03.14.04.28.18.33.84.22,1.02,1.42,1.52,2.02.28.33.67.5.99.77.43.37.68.89,1.07,1.29,1.32,1.31,3.24,1.02,4.88,1.56.46.16.84.38,1.18.73.29.29.57.58.94.79.84.46,1.86.38,2.78.38,1.23,0,2.38.06,3.56.47.93.33,1.85.81,2.85.5.49-.16.89-.58,1.38-.71s1.04.24,1.49.43c.79.33,1.57.79,2.41,1.04-.08.06-.12.16-.09.28.02.08.04.16.07.23.08.28.47.27.55,0,.27-.81.32-2.1,1.03-2.68.31-.25.71-.36,1.06-.51.38-.16.73-.38,1.03-.66.54-.48,1.21-1.3,1.06-2.09-.16-.82-1.01-1.54-1.56-2.1-.77-.79-1.24-1.6-1.65-2.61-.35-.82-.79-1.54-1.36-2.22-.58-.7-1.24-1.34-1.86-2.01s-1.25-1.28-2.02-1.79c-.72-.48-1.51-.94-2.31-1.25-.43-.18-.93-.23-1.33-.46-.39-.23-.64-.62-.84-1.02-.33-.67-.54-1.34-1.09-1.87-.53-.49-1.18-.81-1.83-1.1-.68-.3-1.39-.58-2.01-1.02-.69-.48-1.14-1.19-1.65-1.85-1.06-1.37-2.75-2.36-4.3-3.07-1.63-.75-3.41-1.12-5.2-.91-1.95.23-3.83,1.04-5.81.96-.11,0-.23.08-.26.19Zm1.16,5.3c-.99-1.46-1.01-3.28-.68-4.96,2.06.07,3.99-.83,6.04-.96,2.1-.14,4.07.54,5.85,1.6.79.47,1.59.98,2.24,1.62.57.55.96,1.25,1.5,1.84.99,1.1,2.39,1.46,3.65,2.14.67.36,1.23.83,1.55,1.54.3.66.54,1.37,1.12,1.85.62.53,1.51.6,2.23.95.82.42,1.64.87,2.36,1.45.68.53,1.23,1.22,1.83,1.85.63.67,1.29,1.32,1.81,2.08.53.77.79,1.65,1.21,2.46.42.81,1.03,1.4,1.64,2.06.3.32.65.66.88,1.04.28.47.16.83-.13,1.26-.51.78-1.19,1.12-2.01,1.47-1.17.5-1.39,1.61-1.68,2.71-1.04-.33-1.99-.97-2.99-1.39-.37-.15-.76-.3-1.16-.19-.56.14-.96.6-1.54.74-1.11.25-2.25-.59-3.29-.85-1.09-.28-2.22-.23-3.34-.26-.56,0-1.15,0-1.69-.18-.45-.16-.79-.47-1.11-.81-.57-.59-1.27-.9-2.06-1.07-.89-.19-1.8-.23-2.66-.48-.52-.16-.99-.41-1.39-.79-.33-.33-.56-.76-.89-1.11-.3-.32-.72-.49-1.04-.79-.27-.25-.43-.6-.59-.92-.27-.52-.55-1.04-1.08-1.3.22-1.24-.33-2.66-.78-3.79-.34-.86-.71-1.71-.88-2.63-.15-.79-.21-1.6-.42-2.38-.43-1.57-1.63-2.5-2.5-3.79Z"/><path class="cls-1" d="m893.39,126.37c-.33,1.68-.3,3.5.68,4.96.87,1.29,2.07,2.22,2.5,3.79.21.78.27,1.59.42,2.38.17.92.53,1.77.88,2.63.44,1.13.99,2.56.78,3.79.53.26.81.79,1.08,1.3.17.32.33.67.59.92.32.29.74.47,1.04.79.33.35.55.78.89,1.11.39.38.87.63,1.39.79.87.25,1.78.28,2.66.48.79.17,1.5.48,2.06,1.07.33.34.66.65,1.11.81.53.18,1.13.17,1.69.18,1.12.03,2.25-.02,3.34.26,1.04.26,2.18,1.1,3.29.85.58-.13.98-.59,1.54-.74.4-.11.79.04,1.16.19,1,.43,1.95,1.07,2.99,1.39.29-1.1.51-2.21,1.68-2.71.83-.35,1.5-.69,2.01-1.47.28-.43.41-.79.13-1.26-.23-.38-.58-.72-.88-1.04-.61-.66-1.22-1.25-1.64-2.06-.42-.82-.68-1.7-1.21-2.46-.52-.76-1.18-1.41-1.81-2.08-.6-.63-1.14-1.31-1.83-1.85-.73-.58-1.55-1.03-2.36-1.45-.72-.35-1.61-.43-2.23-.95-.58-.48-.82-1.19-1.12-1.85-.32-.71-.88-1.18-1.55-1.54-1.26-.68-2.66-1.04-3.65-2.14-.53-.58-.93-1.29-1.5-1.84-.65-.64-1.45-1.15-2.24-1.62-1.78-1.06-3.75-1.75-5.85-1.6-2.05.13-3.98,1.03-6.04.96Z"/></svg>