<?xml version="1.0" encoding="UTF-8"?><svg id="Tree_06_-_Leaves_02" xmlns="http://www.w3.org/2000/svg" viewBox="0 0 1160 418.25"><defs><style>.cls-1{fill:#a2c81b;stroke-width:0px;}</style></defs><path class="cls-1" d="m766.5,147.14c-.46.59-.88,1.17-.8,1.96.08.75.55,1.26.99,1.83.53.69.83,1.54,1.4,2.22.56.67,1.39,1.16,1.73,1.99.27.65.18,1.36.65,1.94.47.58,1.23.84,1.94.99.83.18,2,.18,2.55.92.41.55,1.07.7,1.73.58.84-.16,1.46-.79,1.99-1.43.6-.74,1.17-1.47,1.9-2.1.8-.68,1.69-1.22,2.64-1.67.86-.41,1.64-.82,2.37-1.42,1.34-1.1,2.64-2.19,3.32-3.82.34-.8.48-1.68.57-2.54.09-.99-.1-1.93-.13-2.91.17-.08.11-.37-.09-.37-.75-.02-1.65.02-2.33.35-.68.33-1.2.89-1.73,1.4-.58.56-1.24,1.01-1.96,1.37-.72.35-1.47.81-2.26.94-1.6.25-3.03-.76-4.34-1.52-.66-.38-1.52-.71-1.9-1.4-.18-.32-.23-.68-.35-1.02-.11-.29-.25-.56-.39-.84-.36-.7-.8-1.32-1.22-1.98-.28-.46-.43-1-.65-1.5.23-.38.45-.78.78-1.07.18-.16,0-.46-.23-.39-.44.13-.71.44-.94.8-.07-.03-.13-.04-.2-.04-.26,0-.39.28-.28.49.03.07.07.13.1.18-.1.17-.21.33-.33.47-.63.69-1.5,1.11-2.03,1.9-.58.86-.52,1.8-.73,2.77-.24,1.13-1.07,2-1.75,2.89Zm.17,2.96c-.53-.71-.59-1.46-.08-2.2.48-.68,1.02-1.33,1.45-2.05.43-.75.68-1.53.82-2.39.14-.83.37-1.59,1.02-2.17.58-.53,1.29-.89,1.8-1.5,0,0,0-.02.02-.03.07.13.13.24.2.38.18.39.39.75.66,1.09.56.74,1.14,1.66,1.42,2.56.19.63.36,1.15.89,1.6.58.48,1.29.81,1.93,1.21,1.25.78,2.72,1.56,4.25,1.34.77-.12,1.46-.53,2.16-.86.72-.33,1.39-.74,2-1.25.58-.49,1.07-1.11,1.73-1.51.65-.41,1.41-.44,2.16-.56-.03,1.04.1,2.04-.09,3.09-.17.97-.34,1.89-.84,2.76-.44.77-1.04,1.43-1.71,2-.74.63-1.53,1.35-2.39,1.82-.79.43-1.64.74-2.41,1.21-.68.43-1.32.94-1.9,1.49-.64.61-1.12,1.35-1.7,2-.56.63-1.6,1.43-2.46.85-.28-.18-.38-.53-.66-.71-.26-.17-.56-.26-.84-.33-.84-.24-1.77-.3-2.56-.7-.66-.33-.92-.89-1.04-1.59-.11-.69-.43-1.21-.93-1.7-.63-.63-1.25-1.19-1.72-1.97-.21-.36-.34-.74-.57-1.09-.18-.28-.4-.53-.59-.79Z"/><path class="cls-1" d="m766.59,147.9c-.52.74-.45,1.49.08,2.2.19.27.42.51.59.79.23.34.36.73.57,1.09.47.78,1.09,1.34,1.72,1.97.49.48.82,1,.93,1.7.12.69.38,1.26,1.04,1.59.79.4,1.72.46,2.56.7.28.08.58.17.84.33.28.18.38.53.66.71.87.58,1.9-.23,2.46-.85.58-.65,1.06-1.39,1.7-2,.58-.55,1.21-1.06,1.9-1.49.77-.48,1.61-.79,2.41-1.21.86-.47,1.65-1.19,2.39-1.82.68-.57,1.27-1.23,1.71-2,.5-.87.68-1.79.84-2.76.19-1.05.07-2.05.09-3.09-.74.12-1.5.15-2.16.56-.66.4-1.14,1.02-1.73,1.51-.61.52-1.29.92-2,1.25-.69.33-1.39.74-2.16.86-1.53.22-3-.57-4.25-1.34-.63-.4-1.34-.73-1.93-1.21-.53-.44-.69-.96-.89-1.6-.28-.89-.86-1.81-1.42-2.56-.27-.34-.48-.7-.66-1.09-.07-.13-.13-.25-.2-.38,0,0,0,.02-.02.03-.51.62-1.22.98-1.8,1.5-.65.58-.88,1.34-1.02,2.17-.14.86-.38,1.64-.82,2.39-.43.72-.97,1.36-1.45,2.05Z"/><path class="cls-1" d="m796.99,118.38c-.14-.03-.29.1-.2.25.22.35.43.71.57,1.1.14.39.23.8.38,1.2.3.8.79,1.37,1.34,2.01.58.67,1.09,1.24,1.91,1.59.82.35,1.53.63,1.7,1.6.13.68.31,1.29,1,1.59.67.28,1.34.04,2.03-.03,1.71-.17,1.54,1.75,2.26,2.81-.22.19-.05.62.29.54,1.87-.41,3.86.3,5.65-.52.4-.18.83-.42,1.16-.71.33-.28.49-.66.73-1.01.59-.89,1.62-1.25,2.65-1.34.69-.07,1.5-.07,2.09-.48.5-.35.68-1.01,1.19-1.34.74-.48,1.77-.06,2.46.28.68.33,1.3.78,2,1.07.76.33,1.57.36,2.31.79.59.34,1.17.65,1.88.58.85-.1,1.81-.68,2.37.29.28.48.42,1.04.96,1.3.56.28,1.23.13,1.77-.1.6-.25,1.22-.56,1.72-.97.56-.46.7-1,.89-1.68.13-.48.39-.8.87-.97.28-.1.57-.14.84-.27,1.29-.58.95-2.25.68-3.34-.2-.77-.39-1.5-.35-2.31.05-.9.31-1.78.6-2.63.08-.02.13-.08.14-.16v-.13c-.02-.1-.09-.15-.17-.14-.22-.31-.3-.71-.5-1.02-.27-.42-.67-.78-1.06-1.08-.83-.65-1.78-.81-2.78-.49s-1.86.96-2.91,1.18c-1,.21-2.03,0-3,.43-.75.33-1.71,1.29-2.61.88-.94-.44-.93-1.86-1.09-2.73-.22-1.09-.87-2.2-.04-3.19.5-.6,1.09-1.14,1.27-1.94.23-1.04.03-2.21.08-3.26.05-1.17.23-2.32.26-3.48,0-.34-.42-.4-.58-.19-.43-.08-.88-.38-1.26-.53-.79-.3-1.62-.38-2.44-.54-1.6-.32-3.23-.98-4.86-.53-1.29.34-2.44,1.43-3.83,1.19-.71-.12-1.4-.37-2.14-.21-.58.13-1.04.52-1.53.85-.66.45-1.43.83-2.21,1-.74.18-1.41-.05-2.14.03-.61.07-1.08.45-1.58.77-.53.35-1.09.65-1.64.99-.56.35-1.11.71-1.57,1.18-.46.46-.79,1.02-1.14,1.56-.38.58-.89,1.04-1.29,1.61-.39.56-.69,1.2-.99,1.83-.28.61-.49,1.25-.54,1.94-.05.7.08,1.37-.16,2.05-.23.62-.61,1.19-.96,1.75-.2.33-.41.68-.47,1.07Zm.87.17c-.04-.23.28-.77.37-.97.14-.33.33-.63.47-.94.26-.54.44-1.12.48-1.72.02-.35-.05-.69-.06-1.04-.02-.44.08-.87.21-1.29.23-.75.55-1.53.9-2.22.31-.61.78-1.07,1.17-1.61.39-.57.71-1.19,1.17-1.71.87-.98,2.09-1.5,3.19-2.16.61-.36,1.15-.86,1.9-.82.66.04,1.27.14,1.94,0,.68-.14,1.36-.41,1.96-.74.5-.27.92-.67,1.44-.89.78-.35,1.57,0,2.36.11.53.08,1,.04,1.5-.16,1.32-.53,2.46-1.34,3.95-1.19.79.09,1.56.31,2.34.48.68.15,1.34.23,2.02.33.58.1,1.16.25,1.73.45.24.09.51.2.78.25-.03,1.31-.25,2.61-.27,3.92,0,.71.06,1.43.02,2.14-.03.56-.24.99-.59,1.42-.56.7-1.09,1.4-1,2.36.08.94.47,1.85.62,2.79.13.83.36,1.83,1.17,2.25.71.38,1.53.02,2.16-.33.48-.27.91-.56,1.46-.67.54-.12,1.11-.08,1.67-.11,1.04-.05,1.91-.51,2.83-.97.55-.28,1.14-.52,1.77-.5.65.02,1.17.33,1.65.74.42.35.72.72.95,1.2.1.22.2.43.35.59-.4.82-.69,1.69-.79,2.6-.08.84.07,1.61.28,2.41.19.75.5,1.7.16,2.46-.34.74-1.29.6-1.87,1.04-.55.43-.59,1.05-.79,1.66-.27.77-1.03,1.15-1.71,1.5-.69.34-1.7.78-2.25-.03-.29-.42-.38-.93-.83-1.24-.6-.43-1.27-.22-1.92-.04-.94.25-1.52-.18-2.32-.58-.74-.37-1.59-.35-2.34-.69-.67-.29-1.27-.74-1.93-1.06-1.14-.56-2.35-.73-3.22.33-.2.24-.39.53-.67.71-.37.23-.85.26-1.28.3-.7.07-1.4.15-2.06.43-.63.28-1.18.74-1.55,1.3-.29.43-.53.79-.99,1.06-.4.23-.81.42-1.26.53-1.58.38-3.21-.16-4.79.18-.1-.22-.2-.43-.27-.67-.12-.37-.22-.74-.36-1.11-.22-.55-.57-1.17-1.16-1.38-.64-.23-1.34.04-1.99.04-.48,0-.97-.14-1.15-.64-.13-.35-.13-.74-.24-1.1-.22-.63-.74-.96-1.31-1.24-.4-.19-.84-.32-1.21-.57-.43-.28-.75-.72-1.08-1.09-.68-.79-1.19-1.45-1.47-2.47-.11-.4-.19-.81-.38-1.15.12-.1.2-.25.16-.45Z"/><path class="cls-1" d="m798.22,117.57c-.09.2-.41.74-.37.97.04.2-.04.35-.16.45.18.34.27.75.38,1.15.28,1.02.79,1.69,1.47,2.47.33.38.65.81,1.08,1.09.37.25.81.38,1.21.57.58.28,1.09.62,1.31,1.24.12.36.11.75.24,1.1.18.5.67.65,1.15.64.65,0,1.34-.27,1.99-.04.59.21.94.83,1.16,1.38.14.37.24.74.36,1.11.07.23.17.45.27.67,1.59-.33,3.22.21,4.79-.18.45-.11.86-.3,1.26-.53.46-.27.69-.63.99-1.06.38-.57.93-1.03,1.55-1.3.66-.28,1.36-.37,2.06-.43.43-.04.91-.08,1.28-.3.28-.18.47-.47.67-.71.88-1.06,2.09-.89,3.22-.33.66.33,1.26.77,1.93,1.06.75.34,1.6.33,2.34.69.8.4,1.39.84,2.32.58.65-.18,1.32-.38,1.92.04.44.32.53.83.83,1.24.55.81,1.55.38,2.25.03.68-.34,1.45-.73,1.71-1.5.2-.61.24-1.24.79-1.66.58-.44,1.53-.31,1.87-1.04.34-.75.03-1.7-.16-2.46-.21-.8-.36-1.58-.28-2.41.09-.91.38-1.78.79-2.6-.15-.17-.25-.38-.35-.59-.23-.48-.53-.85-.95-1.2-.48-.41-1-.73-1.65-.74-.63-.02-1.22.23-1.77.5-.92.46-1.79.92-2.83.97-.56.03-1.13,0-1.67.11-.55.11-.99.4-1.46.67-.63.35-1.45.71-2.16.33-.81-.42-1.04-1.42-1.17-2.25-.15-.94-.53-1.85-.62-2.79-.09-.95.44-1.65,1-2.36.35-.43.57-.86.59-1.42.04-.71-.03-1.43-.02-2.14.02-1.31.24-2.61.27-3.92-.27-.05-.53-.16-.78-.25-.57-.2-1.14-.35-1.73-.45-.68-.11-1.34-.18-2.02-.33-.78-.18-1.55-.39-2.34-.48-1.5-.16-2.63.65-3.95,1.19-.49.2-.97.23-1.5.16-.79-.12-1.58-.46-2.36-.11-.52.23-.94.63-1.44.89-.6.33-1.29.59-1.96.74-.67.14-1.28.04-1.94,0-.75-.04-1.29.46-1.9.82-1.1.66-2.32,1.19-3.19,2.16-.46.53-.78,1.14-1.17,1.71-.39.54-.86,1-1.17,1.61-.35.69-.67,1.47-.9,2.22-.13.42-.23.84-.21,1.29,0,.35.08.69.06,1.04-.03.6-.22,1.18-.48,1.72-.14.32-.33.62-.47.94Z"/><path class="cls-1" d="m933.93,185.89c-.04.27,0,.52.05.77,0,.03,0,.04.02.06.06.23.14.46.23.68.26.7.42,1.43.59,2.16.35,1.47,1.09,2.67,1.73,4.02.31.63.45,1.34.77,1.97.3.59.73,1.1,1.09,1.65.43.62.85,1.32.82,2.09-.03.68-.34,1.3-.49,1.95-.17.67-.09,1.32-.06,2,.04.74-.12,1.34-.46,1.99-.39.74-.65,1.54-.09,2.26.38.5.95.79,1.51,1.04.64.28,1.16.67,1.68,1.15.46.43.92.9,1.58.99.51.07.98-.13,1.42-.36.95-.5,2.01-1.17,2.64-2.06.39-.56.58-1.26,1.06-1.75.43-.44,1.03-.69,1.5-1.08,1.01-.83,1.77-1.9,2-3.2.23-1.26.08-2.52.7-3.68.29-.55.69-1,1.05-1.5.22-.32.38-.7.26-1.09-.15-.46-.6-.69-.97-.95-.55-.38-.9-.86-1.12-1.49-.26-.74-.3-1.5-.05-2.26.23-.67.56-1.27.73-1.96.31-1.29.23-2.62-.08-3.91-.16-.64-.39-1.26-.55-1.9-.14-.59-.24-1.19-.46-1.77-.42-1.1-1.34-1.87-2.26-2.56-.48-.37-.99-.86-1.55-1.07-.55-.2-1.13-.15-1.7-.18-1.38-.08-2.3-1.15-3.44-1.79-.95-.89-2.41,2.86-2.59,3.35-.13.34-.24.68-.33,1.04-.11.43-.18.88-.37,1.29-.19.39-.5.68-.82.98-.64.58-1.34,1.11-1.88,1.8-.28.35-.46.77-.75,1.09-.24.28-.53.39-.85.49,0-.05,0-.1,0-.15.04-.32-.51-.38-.56-.08Zm.86,1.4c-.05-.13-.1-.28-.15-.43.59-.27,1.04-.57,1.41-1.13.49-.75,1-1.38,1.67-1.98.58-.51,1.24-.99,1.58-1.7.28-.57.34-1.2.52-1.8.14-.48,1.39-3.87,2.03-3.9,0,.02.02.04.03.05,1.06.68,1.91,1.75,3.23,1.95.67.11,1.41-.04,2.04.28.58.31,1.14.84,1.65,1.25.53.42,1.05.89,1.41,1.46.35.56.48,1.22.62,1.85.32,1.41.88,2.74.92,4.21.03.69-.06,1.39-.25,2.06-.18.61-.51,1.17-.68,1.78-.29,1.06-.09,2.3.51,3.22.27.41.62.73,1.03.99.54.35.89.65.46,1.27-.63.89-1.32,1.69-1.53,2.8-.23,1.2-.03,2.45-.55,3.61-.28.63-.77,1.19-1.28,1.67-.45.42-.99.68-1.48,1.06-.89.68-1.09,1.87-1.92,2.61-.45.4-1.01.68-1.54.98-.56.33-1.22.64-1.87.38-.61-.24-1.09-.82-1.6-1.21-.49-.38-1.04-.6-1.58-.92-.41-.24-.98-.62-1-1.16,0-.36.19-.78.33-1.11.23-.57.44-1.07.46-1.69.02-.61-.11-1.21-.07-1.82.07-1.09.75-2.06.55-3.19-.2-1.09-.99-1.94-1.58-2.82-.64-.98-.88-2.14-1.42-3.17-.29-.56-.61-1.11-.87-1.7-.28-.62-.43-1.27-.58-1.93-.14-.63-.28-1.24-.49-1.85Z"/><path class="cls-1" d="m934.64,186.86c.05.15.1.3.15.43.21.61.35,1.22.49,1.85.15.66.31,1.31.58,1.93.26.58.58,1.14.87,1.7.54,1.04.78,2.2,1.42,3.17.59.89,1.38,1.73,1.58,2.82.2,1.13-.48,2.1-.55,3.19-.04.61.08,1.21.07,1.82-.02.62-.23,1.12-.46,1.69-.13.33-.33.75-.33,1.11.03.54.59.92,1,1.16.53.32,1.09.53,1.58.92.51.39.99.97,1.6,1.21.65.26,1.31-.06,1.87-.38.53-.29,1.09-.58,1.54-.98.84-.74,1.04-1.93,1.92-2.61.48-.38,1.03-.64,1.48-1.06.51-.48.99-1.04,1.28-1.67.52-1.16.32-2.41.55-3.61.21-1.11.9-1.91,1.53-2.8.43-.62.08-.92-.46-1.27-.41-.27-.76-.58-1.03-.99-.6-.93-.8-2.16-.51-3.22.17-.61.49-1.17.68-1.78.19-.67.28-1.37.25-2.06-.04-1.47-.6-2.8-.92-4.21-.14-.63-.27-1.29-.62-1.85-.36-.58-.89-1.04-1.41-1.46-.51-.41-1.07-.94-1.65-1.25-.63-.33-1.37-.18-2.04-.28-1.32-.21-2.17-1.27-3.23-1.95-.02,0-.03-.03-.03-.05-.63.03-1.89,3.42-2.03,3.9-.18.6-.24,1.24-.52,1.8-.33.71-1,1.19-1.58,1.7-.67.6-1.18,1.23-1.67,1.98-.37.56-.82.86-1.41,1.13Z"/><path class="cls-1" d="m921.4,159.68c-.22.11-.12.49.13.47.13-.02.24-.02.36-.02,0,.13,0,.26.03.39.08.33.51.21.54-.08.02-.1.02-.2.03-.3.89.07,1.75.31,2.66.28.63-.02,1.26-.1,1.88-.21.58-.11,1.32-.39,1.89-.14.45.21.68.69,1.1.96.38.23.84.31,1.28.37.64.08,1.23.17,1.77.53.43.29.8.66,1.14,1.04.61.66,1.14,1.42,1.85,1.97.69.53,1.5.68,2.26,1.06.9.46,1.35,1.27,1.55,2.23.18.94.42,1.59,1.15,2.23.66.58,1.39,1.14,1.55,2.06.11.55.09,1.11,0,1.66-.03.17-.07.35-.08.53-.03.02-.06.03-.08.06-.29.39.48.52.69.58.9.23,1.68.38,2.61.24.81-.12,1.71-.29,2.45-.68.64-.33.98-.94,1.2-1.6.25-.77.43-1.56.69-2.33.28-.84.66-1.67.92-2.52.51-1.67-.44-3.28-.51-4.94-.04-.78.02-1.57-.18-2.34-.2-.78-.71-1.38-1.11-2.05-.42-.71-.64-1.52-1.12-2.2-.39-.56-.92-.87-1.56-1.07-.74-.22-1.41-.38-2.05-.83-.63-.46-1.22-.94-1.95-1.24-.72-.31-1.46-.51-2.23-.67-.78-.16-1.45-.33-2.04-.9-1.04-1-1.5-2.41-2.47-3.44-1.12-1.19-2.75-1.35-4.11-2.12-.21-.12-.4.04-.43.22-.19.14-.36.31-.56.44-.43.28-.92.29-1.41.23-.48-.07-.94-.2-1.41-.33-.21-.06-.39-.1-.59.02-.25.13-.45.42-.67.59-.33.27-.68.52-1.04.73-.58.33-1.28.38-1.84.74-.91.6-.99,1.69-.87,2.68.09.79.28,1.56.19,2.36-.08.84-.63,1.4-.97,2.14-.28.6-.49,1.3-.42,1.97.04.38.19.72.23,1.09-.16.03-.32.08-.48.15Zm1.04-.24c-.08-.43-.28-.83-.28-1.28,0-.86.48-1.59.92-2.3.78-1.26.48-2.56.33-3.95-.05-.52-.1-1.09.13-1.57.29-.62.91-.74,1.5-.94.62-.2,1.15-.55,1.67-.94.24-.18.51-.54.78-.66.2-.09.48.06.72.13.64.16,1.36.31,2.02.14.55-.14.86-.53,1.28-.84,1.38.74,3,.96,4.03,2.24.89,1.09,1.34,2.49,2.47,3.39,1.07.83,2.43.79,3.68,1.18.75.23,1.41.6,2.03,1.09.43.33.85.66,1.35.86.65.28,1.4.31,2,.69.66.42.96,1.26,1.25,1.95.28.68.71,1.24,1.07,1.88.41.69.47,1.44.48,2.23,0,.75.04,1.46.21,2.2.17.71.39,1.42.44,2.16.06.9-.29,1.66-.6,2.48-.27.72-.53,1.44-.75,2.16-.2.67-.31,1.41-.66,2.03-.37.63-1.04.84-1.7,1.03-.8.22-1.64.43-2.47.35-.38-.03-.74-.14-1.1-.23-.06,0-.28-.03-.4-.07.05-.37.23-.73.28-1.09.06-.58.04-1.24-.14-1.79-.32-.94-1.16-1.47-1.84-2.13-.77-.74-.63-1.86-1.05-2.77-.37-.79-1.01-1.34-1.8-1.67-.9-.37-1.7-.63-2.4-1.35-.74-.77-1.34-1.65-2.2-2.32-.42-.33-.86-.59-1.39-.72-.53-.12-1.08-.11-1.59-.27-.57-.18-.8-.65-1.26-.99-.37-.26-.78-.34-1.21-.3-1.24.11-2.41.52-3.67.41-.69-.06-1.41-.33-2.11-.36,0-.02,0-.04,0-.06Z"/><path class="cls-1" d="m922.16,158.16c0,.45.2.84.28,1.28,0,.02,0,.04,0,.06.7.03,1.42.3,2.11.36,1.25.11,2.43-.3,3.67-.41.43-.04.84.04,1.21.3.46.33.69.8,1.26.99.51.16,1.06.15,1.59.27.53.13.97.38,1.39.72.85.67,1.46,1.55,2.2,2.32.69.73,1.5.99,2.4,1.35.79.33,1.44.89,1.8,1.67.43.91.28,2.04,1.05,2.77.68.66,1.52,1.19,1.84,2.13.18.55.2,1.2.14,1.79-.04.37-.23.73-.28,1.09.12.03.34.06.4.07.37.08.73.19,1.1.23.84.08,1.67-.13,2.47-.35.67-.18,1.34-.39,1.7-1.03.35-.62.46-1.36.66-2.03.23-.73.48-1.45.75-2.16.31-.82.66-1.58.6-2.48-.05-.74-.28-1.45-.44-2.16-.17-.74-.2-1.45-.21-2.2,0-.79-.07-1.54-.48-2.23-.36-.63-.79-1.2-1.07-1.88-.29-.68-.59-1.53-1.25-1.95-.6-.38-1.35-.42-2-.69-.5-.2-.93-.53-1.35-.86-.62-.48-1.28-.85-2.03-1.09-1.25-.39-2.61-.35-3.68-1.18-1.14-.9-1.59-2.3-2.47-3.39-1.03-1.28-2.65-1.5-4.03-2.24-.42.31-.73.69-1.28.84-.66.17-1.38.02-2.02-.14-.23-.07-.52-.22-.72-.13-.27.12-.53.48-.78.66-.52.39-1.05.74-1.67.94-.59.19-1.21.32-1.5.94-.23.48-.18,1.05-.13,1.57.16,1.39.45,2.69-.33,3.95-.43.71-.92,1.44-.92,2.3Z"/><path class="cls-1" d="m876.13,139.67c-.22.03-.34.36-.11.52.37.26.79.42,1.14.71.28.23.48.53.66.84.35.57.65,1.16,1.05,1.7.33.44.74.84,1.26,1.03.75.28,1.54.03,2.31,0,.92-.03,1.6.43,2.43.72.74.26,1.5.21,2.24-.03.46-.15.89-.42,1.38-.49.46-.08.89.06,1.32.19.8.24,1.58,0,2.4.08.87.08,1.59.57,2.41.74.75.16,1.53.13,2.28.04,1.09-.13,2.36-.24,2.6-1.53.22-1.2-.42-2.4-.67-3.53-.2-.92-.32-1.85-.53-2.76-.23-.94-.35-1.82-.33-2.79.02-.68-.04-1.38-.52-1.91s-1.2-.72-1.68-1.24c-1.09-1.2-.83-2.97-1.3-4.43.07-.03.13-.1.09-.19-.31-.78-1.1-1.01-1.88-1.06-.58-.03-1.17-.03-1.75-.05-.57-.03-1.15-.05-1.7.09-.99.25-1.77.97-2.76,1.21-.58.14-1.18.2-1.77.33-.53.12-1.06.27-1.6.41-.74.19-1.59.15-2.29.46-.8.35-.91,1.32-1.08,2.09-.24,1.1-.38,2.24-.66,3.34-.28,1.14-.85,2-1.58,2.9-.38.48-.7,1-.98,1.55-.16.31-.38.71-.38,1.09Zm.64,0c-.08-.14.16-.54.22-.67.15-.31.33-.62.51-.92.38-.61.87-1.14,1.25-1.75,1.04-1.65,1.11-3.63,1.52-5.47.09-.42.17-1.1.44-1.44.2-.24.56-.31.85-.36.76-.13,1.48-.24,2.22-.46.98-.28,2-.38,2.97-.66.84-.25,1.52-.83,2.34-1.12.95-.34,2-.14,2.99-.14.71,0,1.63-.02,2.05.63-.03.03-.06.08-.03.14.53,1.5.2,3.28,1.23,4.61.45.58,1.14.79,1.65,1.29.76.72.44,1.81.49,2.74.05.82.28,1.6.43,2.41.17.85.28,1.73.47,2.57.23.97.97,2.38.43,3.37-.32.57-1.1.58-1.67.64-.75.09-1.53.15-2.27,0s-1.4-.56-2.15-.7c-.78-.15-1.53.06-2.3-.02-.44-.04-.84-.26-1.29-.32-.33-.04-.66-.03-.99.06-.86.23-1.59.74-2.52.65-.79-.08-1.45-.58-2.21-.76-.73-.17-1.45-.03-2.18.04-1.32.13-1.95-.88-2.54-1.9-.26-.45-.52-.91-.84-1.31-.3-.38-.69-.61-1.09-.84.06-.09.08-.21,0-.33Z"/><path class="cls-1" d="m876.99,138.99c-.06.13-.3.53-.22.67.08.12.05.23,0,.33.4.23.79.46,1.09.84.33.4.58.86.84,1.31.58,1.02,1.22,2.02,2.54,1.9.73-.08,1.45-.21,2.18-.04.76.18,1.41.68,2.21.76.94.09,1.66-.42,2.52-.65.33-.08.66-.1.99-.06.44.06.84.28,1.29.32.77.08,1.52-.13,2.3.02.74.14,1.4.55,2.15.7s1.52.09,2.27,0c.57-.07,1.35-.08,1.67-.64.54-.99-.2-2.4-.43-3.37-.19-.84-.3-1.72-.47-2.57-.15-.8-.38-1.59-.43-2.41-.05-.93.27-2.02-.49-2.74-.52-.49-1.2-.7-1.65-1.29-1.03-1.33-.7-3.11-1.23-4.61-.03-.07,0-.11.03-.14-.42-.65-1.34-.64-2.05-.63-.99,0-2.04-.2-2.99.14-.82.29-1.5.87-2.34,1.12-.98.28-2,.38-2.97.66-.74.22-1.46.33-2.22.46-.29.05-.65.12-.85.36-.28.33-.35,1.02-.44,1.44-.41,1.85-.48,3.83-1.52,5.47-.38.61-.88,1.14-1.25,1.75-.18.3-.36.61-.51.92Z"/></svg>