<?xml version="1.0" encoding="UTF-8"?><svg id="Tree_06_-_Leaves_03" xmlns="http://www.w3.org/2000/svg" viewBox="0 0 1160 418.25"><defs><style>.cls-1{fill:#b6d01c;stroke-width:0px;}</style></defs><path class="cls-1" d="m823.69,164.63c-.08.17.13.29.23.14,0,0,0,0,0,0,.07.37.18.74.28,1.07.22.65.37,1.33.6,1.97.43,1.23,1.17,2.2,1.97,3.2.47.58,1,1.16,1.35,1.82.35.68.22,1.41.04,2.12-.15.61-.28,1.22-.4,1.84-.07.34-.23.79-.09,1.14.08.2.32.19.4.06.33.19.67.35,1,.53.48.27.92.57,1.33.93.58.49,1.08,1.16,1.75,1.53.64.35,1.36.3,2.07.26.5-.03.98-.03,1.47.07.23.05.49.17.73.12.27-.05.44-.29.61-.48.29-.31.59-.61.91-.89.5-.45.85-.76,1.12-1.39.14-.33.3-.9.7-1,.33-.08.73.13,1.01.28.63.34,1.09.89,1.69,1.28,1.27.84,2.63,1.65,3.3,3.08,0,.03.03.03.06.05v.02c0,.07.08.11.13.06.02-.02.03-.03.06-.04.04-.02.08-.05.11-.1.65-.51,1.65-.47,2.42-.57.59-.08,1.15-.27,1.72-.47.62-.22,1.24-.4,1.86-.63.99-.35,2.01-.66,2.86-1.31.8-.62,1.48-1.41,2.24-2.08.53-.47,1.05-.79,1.72-1.01.48-.17.92-.33,1.37-.58.47-.24.95-.33,1.44-.53.38-.17.59-.43.79-.79.28-.47.46-.99.82-1.39.42-.47.97-.71,1.59-.78.51-.05,1.03-.03,1.52-.18.39-.13.74-.36,1.09-.55.44-.25.94-.54,1.46-.53.57,0,.9.48,1.06.97.23.73.18,1.6.83,2.11.05.05.11.05.15.04.21.23.43.44.7.59.79.44,1.71.36,2.52.03s1.39-.94,2.11-1.42c.38-.25.79-.39,1.2-.57.47-.2.94-.41,1.44-.54,1.31-.37,2.82-.36,3.79-1.45.54-.62.86-1.39,1.39-2.03s1.13-1.22,1.63-1.88c.53-.72.8-1.35.72-2.26-.04-.46-.08-.9-.08-1.36.08-.02.13-.08.1-.18-.04-.16-.07-.33-.08-.48,0-.17,0-.33-.03-.5,0-.07,0-.13-.02-.19-.04-.43-.11-.87-.14-1.31-.04-.7.12-1.47-.08-2.15-.17-.6-.67-.98-1.09-1.39-.53-.49-1.03-1.09-1.73-1.36-.26-.09-.51-.11-.79-.11-.53,0-.94,0-1.42-.28-.59-.36-1.09-.82-1.8-.95-.75-.15-1.56-.11-2.33-.09-.79,0-1.61-.02-2.38.12-.47.08-.77.32-1.1.64-.52.5-1.11.73-1.8.9-1.26.33-2.81.67-4.11.28-.68-.2-.94-1.03-1.25-1.59-.23-.45-.53-.9-.84-1.29-.3-.38-.68-.63-1.16-.69-.55-.06-.96.18-1.42.43-1.19.65-1.93-.38-2.92-.91-1.09-.59-2.55-.73-3.75-.48-.6.13-1.02.36-1.4.84-.38.49-.76.94-1.34,1.23-.7.35-1.46.17-2.21.28-.72.11-1.41.44-2.08.71-.33.13-.68.3-1.04.33-.43.03-.8-.15-1.18-.33-.53-.27-1.05-.47-1.65-.51-.76-.05-1.53.12-2.25.37-.6.2-1.16.52-1.79.63-1.25.23-2.37.12-3.34,1.09-.56.57-1,.96-1.8,1.19-.68.19-1.4.28-2.09.48-.72.2-1.43.45-2.16.57-.74.11-1.45-.05-2.18-.04-.45,0-.92.06-1.37,0-.33-.03-.64-.14-.96-.22-.43-.1-.94-.18-1.34.04-.38.21-.53.65-.64,1.04-.18.61-.4,1.14-.7,1.69-.31.55-.5,1.09-.63,1.71-.13.67-.23,1.38-.53,2Zm.86.74c-.09-.36-.09-.82-.33-1.12.19-.42.29-.87.39-1.34.16-.75.42-1.37.79-2.04.31-.54.44-1.06.63-1.65.11-.38.26-.68.69-.73.38-.04.78.11,1.14.2.7.18,1.39.12,2.1.11.74,0,1.45.13,2.2.02.8-.13,1.56-.41,2.34-.62.74-.21,1.52-.28,2.25-.54.58-.22,1.01-.53,1.44-.98.48-.49.93-.85,1.62-.99.63-.13,1.28-.11,1.9-.24.63-.14,1.19-.47,1.81-.66.75-.24,1.55-.38,2.35-.22.63.14,1.14.58,1.76.75,1.2.33,2.43-.61,3.55-.91.71-.18,1.45,0,2.16-.19.53-.14,1.01-.48,1.4-.84s.63-.95,1.14-1.2c.63-.32,1.52-.33,2.21-.24.71.08,1.45.27,2.05.66.4.26.76.58,1.19.81.38.2.81.31,1.25.22.5-.1.88-.48,1.36-.61,1.31-.35,1.98,1.63,2.47,2.48.23.38.51.79.93.98.4.18.89.2,1.33.23,1.32.08,2.67-.19,3.92-.63.53-.19.96-.46,1.36-.86.51-.5.96-.55,1.65-.59.74-.05,1.49-.08,2.23-.1.69-.02,1.45-.08,2.1.22.57.26,1.03.74,1.62.93.68.22,1.39-.07,2.03.28.63.34,1.09.92,1.58,1.4.55.55.83,1.04.81,1.85-.02.75,0,1.48.09,2.23.07.48.06.97.18,1.44-.03.59-.04,1.19-.03,1.79.03,1.01-.58,1.73-1.24,2.44-.51.56-1.05,1.09-1.51,1.69-.42.54-.68,1.24-1.21,1.69-1.01.87-2.53.73-3.73,1.11-.73.23-1.53.52-2.19.91-.62.36-1.11.9-1.7,1.29-.68.45-1.59.77-2.38.46-.76-.28-1.1-.97-1.49-1.63-.02-.04-.05-.06-.08-.08-.12-.56-.2-1.13-.58-1.58-.68-.8-1.7-.48-2.51-.06-.46.25-.89.58-1.4.7-.56.14-1.15.07-1.72.19-1.01.23-1.62,1.01-2.09,1.87-.15.28-.29.61-.55.81-.2.17-.45.21-.7.26-.51.12-.94.33-1.41.54-.58.27-1.19.41-1.76.69-.48.23-.89.59-1.29.95-.46.42-.91.84-1.34,1.29-.34.37-.68.74-1.1,1.02-1.08.7-2.45,1.02-3.65,1.44-.58.2-1.16.44-1.76.56-.43.08-.86.08-1.29.16-.43.08-1.12.21-1.48.58-.66-1.5-2.13-2.29-3.45-3.16-.78-.5-2.05-2.04-3.13-1.46-.53.28-.65.97-.9,1.45-.19.38-.56.58-.87.84-.33.28-.63.58-.93.88-.18.18-.32.38-.6.37-.18,0-.4-.1-.58-.13-.38-.07-.77-.07-1.16-.05-.43.02-.87.07-1.3.02-.46-.06-.82-.29-1.16-.58-1.2-1.02-2.31-2.16-3.86-2.64.03-.43.21-.97.28-1.34.13-.61.31-1.21.39-1.83.18-1.33-.54-2.21-1.32-3.21-.92-1.17-1.83-2.26-2.29-3.7-.21-.67-.43-1.37-.61-2.05Z"/><path class="cls-1" d="m824.23,164.25c.23.3.23.76.33,1.12.18.68.4,1.38.61,2.05.46,1.45,1.37,2.53,2.29,3.7.78.99,1.5,1.88,1.32,3.21-.08.62-.27,1.22-.39,1.83-.07.37-.25.9-.28,1.34,1.55.48,2.66,1.62,3.86,2.64.34.29.7.53,1.16.58.43.05.87,0,1.3-.02.39-.02.78-.02,1.16.05.18.03.4.13.58.13.28,0,.42-.18.6-.37.29-.3.6-.6.93-.88.31-.27.68-.47.87-.84.25-.48.38-1.18.9-1.45,1.09-.58,2.36.96,3.13,1.46,1.32.87,2.79,1.65,3.45,3.16.36-.37,1.04-.49,1.48-.58.43-.08.86-.08,1.29-.16.6-.12,1.18-.36,1.76-.56,1.2-.42,2.57-.74,3.65-1.44.42-.28.76-.65,1.1-1.02.43-.45.88-.88,1.34-1.29.4-.36.8-.72,1.29-.95.57-.28,1.19-.43,1.76-.69.47-.22.9-.43,1.41-.54.25-.05.5-.09.7-.26.26-.2.4-.53.55-.81.47-.86,1.08-1.65,2.09-1.87.57-.13,1.16-.05,1.72-.19.52-.13.94-.45,1.4-.7.8-.43,1.82-.74,2.51.06.38.45.47,1.02.58,1.58.03.02.07.03.08.08.38.66.73,1.34,1.49,1.63.79.31,1.7,0,2.38-.46.59-.39,1.09-.94,1.7-1.29.66-.39,1.46-.68,2.19-.91,1.2-.38,2.72-.24,3.73-1.11.53-.45.79-1.14,1.21-1.69.46-.6,1-1.13,1.51-1.69.65-.71,1.27-1.43,1.24-2.44-.02-.6,0-1.19.03-1.79-.13-.47-.12-.96-.18-1.44-.09-.75-.11-1.48-.09-2.23.02-.8-.26-1.29-.81-1.85-.49-.48-.95-1.06-1.58-1.4-.64-.35-1.35-.07-2.03-.28-.59-.19-1.05-.67-1.62-.93-.64-.3-1.4-.23-2.1-.22-.74.03-1.49.05-2.23.1-.69.04-1.14.09-1.65.59-.4.4-.84.67-1.36.86-1.24.44-2.6.71-3.92.63-.43-.03-.93-.04-1.33-.23-.42-.19-.7-.59-.93-.98-.49-.85-1.16-2.83-2.47-2.48-.48.13-.86.51-1.36.61-.44.09-.87-.02-1.25-.22-.43-.23-.79-.55-1.19-.81-.6-.39-1.34-.58-2.05-.66-.68-.08-1.57-.08-2.21.24-.5.25-.74.84-1.14,1.2s-.88.7-1.4.84c-.71.18-1.45,0-2.16.19-1.12.3-2.35,1.24-3.55.91-.62-.18-1.13-.61-1.76-.75-.79-.17-1.6-.03-2.35.22-.62.19-1.19.52-1.81.66-.63.13-1.28.12-1.9.24-.69.13-1.14.49-1.62.99-.43.45-.85.76-1.44.98-.73.26-1.5.33-2.25.54-.78.21-1.54.49-2.34.62-.74.12-1.45-.03-2.2-.02-.71,0-1.4.07-2.1-.11-.36-.09-.75-.24-1.14-.2-.43.04-.58.35-.69.73-.18.59-.32,1.11-.63,1.65-.38.67-.63,1.29-.79,2.04-.1.47-.2.92-.39,1.34Z"/><path class="cls-1" d="m914.36,171.01c-.22.26.16.63.37.38.17.37.33.73.47,1.1.19.52.37,1.04.65,1.51.26.43.58.83.92,1.19.33.35.76.58,1.09.93.79.84.59,2.22,1.27,3.16.36.49.64.94.78,1.55.08.39.05.83.09,1.24v.02c.03.17.05.33.12.48.06.16.26.16.32,0,.03-.05.03-.12.04-.18.23.09.47.19.71.28.32.11.64.2.86.48.45.57.22,1.45.66,2.05.33.45.88.61,1.25.99.43.43.68,1.01,1.11,1.45.7.69,1.66,1.36,2.7,1.23,1.12-.13,1.75-1.35,2.79-1.69,1.21-.39,2.43.47,3.65.47.94,0,1.69-.48,2.26-1.2.35-.45.58-.99.96-1.41.36-.41.78-.79,1.21-1.12.38-.29.82-.55,1.11-.95.33-.44.43-1.04.57-1.55.37-1.36.92-2.66,1.53-3.94.44-.91.84-1.83,1.22-2.76.03,0,.04,0,.06-.03.9-.97.58-2.9,0-3.96-.4-.73-1.23-.99-1.68-1.65-.47-.67-.28-1.69-.57-2.46-.44-1.19-1.45-1.72-2.56-2.16-.8-.33-1.52-.77-2.11-1.42-.53-.58-.99-1.25-1.65-1.71-.62-.43-1.39-.74-2.13-.83-.49-.06-.97.04-1.41-.23-.34-.21-.64-.52-.95-.78-.51-.43-1.05-.8-1.75-.82-.88-.03-1.66.47-2.56.4-1.56-.11-3.03-.94-4.51-.04-1.14.69-1.85,1.89-2.89,2.71-.56.43-1.09.85-1.33,1.54-.3.84-.35,1.75-.53,2.61-.21.97-.46,1.85-.89,2.73-.23.46-.48.92-.69,1.38-.09.19-.17.38-.26.58-.11,0-.22.11-.18.22l.03.05c-.04.07-.08.13-.13.18Zm.63-.05c.09-.18.18-.36.26-.54.21-.47.45-.93.68-1.39.42-.84.72-1.66.89-2.59.18-.9.27-1.83.48-2.72.24-.94.91-1.34,1.6-1.93.95-.82,1.65-2.01,2.81-2.57,1.52-.72,3.17.42,4.74.22.84-.11,1.65-.63,2.51-.24.63.3,1.11.89,1.67,1.3.63.47,1.27.28,2,.44.83.17,1.62.57,2.22,1.18.54.55.98,1.22,1.58,1.72.5.43,1.08.72,1.68.97,1.28.52,2.26,1.13,2.53,2.57.13.61.06,1.3.41,1.85.36.56,1.03.83,1.46,1.31.45.49.63,1.24.73,1.89.07.45.08.94-.03,1.41,0,0,0,0-.02,0-.4.55-.6,1.19-.85,1.81-.29.72-.68,1.39-1.01,2.09-.28.63-.58,1.28-.85,1.92-.29.68-.46,1.39-.67,2.1-.21.69-.46,1.11-1.05,1.55-.37.27-.72.54-1.07.84-.42.38-.78.77-1.08,1.25-.24.39-.48.79-.82,1.11-.95.92-2.1.62-3.25.28-1.07-.32-2.04-.35-2.99.3-.45.29-.82.7-1.27.99-.56.37-1.19.29-1.77,0-.53-.28-1.02-.71-1.4-1.17-.33-.39-.53-.88-.93-1.22-.36-.32-.89-.48-1.17-.89-.33-.49-.24-1.15-.5-1.67-.2-.39-.53-.62-.92-.77-.34-.14-.71-.29-1.09-.38,0-.36-.05-.74-.1-1.06-.1-.57-.29-1.11-.63-1.58-.38-.53-.63-.98-.79-1.63-.12-.52-.23-1.06-.5-1.53-.24-.44-.63-.68-1.02-.99-.46-.38-.87-.88-1.19-1.39-.56-.89-.75-1.98-1.3-2.87Z"/><path class="cls-1" d="m915.26,170.42c-.08.18-.17.37-.26.54.55.89.74,1.98,1.3,2.87.32.51.73,1,1.19,1.39.38.31.78.55,1.02.99.27.47.38,1.01.5,1.53.16.65.42,1.09.79,1.63.33.47.53,1.01.63,1.58.05.32.11.7.1,1.06.38.08.74.23,1.09.38.39.15.72.38.92.77.26.52.18,1.18.5,1.67.28.41.81.57,1.17.89.39.34.59.83.93,1.22.38.46.87.89,1.4,1.17.58.29,1.21.37,1.77,0,.45-.29.82-.7,1.27-.99.95-.65,1.92-.62,2.99-.3,1.14.33,2.3.63,3.25-.28.33-.33.58-.72.82-1.11.3-.48.66-.87,1.08-1.25.35-.3.7-.58,1.07-.84.59-.43.84-.85,1.05-1.55.21-.71.38-1.43.67-2.1.28-.64.57-1.29.85-1.92.33-.7.72-1.37,1.01-2.09.25-.63.45-1.26.85-1.81,0,0,.02,0,.02,0,.1-.47.09-.96.03-1.41-.1-.65-.28-1.39-.73-1.89-.43-.48-1.1-.75-1.46-1.31-.35-.54-.28-1.24-.41-1.85-.28-1.45-1.25-2.05-2.53-2.57-.6-.25-1.18-.54-1.68-.97-.6-.5-1.04-1.17-1.58-1.72-.6-.61-1.39-1.01-2.22-1.18-.73-.16-1.36.03-2-.44-.56-.41-1.04-1-1.67-1.3-.85-.39-1.66.13-2.51.24-1.58.2-3.22-.94-4.74-.22-1.16.56-1.85,1.75-2.81,2.57-.69.59-1.36.99-1.6,1.93-.22.89-.31,1.82-.48,2.72-.18.93-.48,1.75-.89,2.59-.23.46-.48.92-.68,1.39Z"/><path class="cls-1" d="m827.94,90.2c-.23.79-.33,1.58-.26,2.39.06.85.38,1.65.48,2.49.09.77.09,1.55.48,2.25.3.55.79.93,1.34,1.21-.23.3.15.84.53.58.57-.38.89-.97,1.39-1.42.58-.53,1.34-.82,2.14-.87.69-.04,1.39.09,2.09.03.61-.06,1.04-.33,1.53-.69,1.1-.81,2.57-.45,3.87-.44,1.22,0,2.65-.02,3.45,1.06.32.43.6.78,1.03,1.09.5.38.44,1,.62,1.57.24.8.67,1.65,1.49,2,1.14.48,2.05-.28,3.06-.74,1.22-.54,2.71-.43,3.96-.03.68.22,1.34.55,1.85,1.05.44.43.79.93,1.25,1.34,1.07.94,1.81,1.94,2.2,3.32-.08.03-.16.05-.24.08-.16.07-.04.33.13.28,1.66-.49,3.84-.83,5.39.2.55.37,1.01.86,1.59,1.19.62.34,1.2.34,1.89.33.55,0,.94.12,1.41.4.27.17.54.33.84.44.77.31,1.76.49,2.59.41.89-.08,1.69-.36,2.6-.3.32.03.63.06.94.08.18,0,.68-.04.84.08,0,.03-.03.06-.03.08-.08.28.33.39.43.12.44-1.25,2.03-1.74,3.1-2.31,1.45-.78,2.49-2.07,4.21-2.22.87-.08,1.73-.08,2.59-.21,1.03-.17,2.05-.3,3.08-.43.93-.12,1.85-.23,2.77-.28.46-.03.92-.03,1.38-.03.36,0,.75.05,1.12.02.06.05.14.05.2-.03.03,0,.05,0,.07,0,.07-.02.08-.12.03-.15.25-.48.27-1.04.42-1.55.23-.76.61-1.49.79-2.26.38-1.57-.33-2.93-.58-4.44-.11-.58-.09-1.08-.47-1.57-.45-.6-.73-1.04-.59-1.84.18-1.1.92-2.06.3-3.17-.54-.95-1.63-1.74-2.51-2.37-.58-.43-1.23-.69-1.87-1.03-.61-.31-1.09-.77-1.6-1.22-.7-.62-1.26-1.61-2.34-1.19-.58.23-1,.75-1.62.93-.28.08-.57.07-.86,0-.33-.07-.35-.19-.47-.49-.5-1.26-.61-2.68-1.38-3.83-.35-.53-.84-.91-1.4-1.21-.57-.29-1.16-.53-1.59-1.03-.02-.02-.03-.02-.05-.03-.26-.82-1.09-1.43-1.82-1.8-.92-.48-1.93-.73-2.94-.9-.99-.17-1.95-.18-2.88.23-.58.27-1.05.68-1.59,1.03-.55.34-1.2.48-1.85.46-.61-.02-1.16-.18-1.78-.1-.59.08-1.17.27-1.76.37-1.29.23-2.41-.11-3.27-1.12-.71-.81-1.08-1.86-1.96-2.52-.8-.59-1.82-.8-2.76-.43-1.11.45-1.94,1.39-3.22,1.41-.71.02-1.36-.18-2.08-.08-.56.08-1.1.17-1.59.46-.06.03-.08.08-.08.14-.73.29-1.45.6-2.23.69-.84.09-1.69-.07-2.52.08-1.63.28-2.12,1.74-2.44,3.17-.14.61-.19,1.42-.69,1.85-.48.41-1.16.38-1.73.2-.68-.23-1.08-.68-1.39-1.29-.28-.53-.58-.97-1.18-1.19-1.27-.49-2.61-.12-3.48.9-.53.61-.86,1.36-1.29,2.04-.47.74-.95,1.3-1.75,1.7-.61.31-1.26.55-1.82.94-.24.18-.48.38-.65.63-.22.32-.26.68-.39,1.04-.32.86-.96,1.6-1.44,2.37-.4.66-.74,1.37-.97,2.11Zm.28,3.32c-.48-1.9.24-3.83,1.31-5.38.44-.65.94-1.31,1.26-2.04.17-.37.2-.79.43-1.14.19-.29.51-.52.8-.7.56-.35,1.18-.57,1.75-.89.58-.32.99-.79,1.36-1.33.84-1.22,1.44-3.17,3.18-3.29.71-.05,1.52.1,1.94.73.32.49.48,1.04.95,1.41.7.57,1.76.84,2.61.46,1.06-.48,1.09-1.74,1.34-2.71.17-.66.38-1.32.86-1.83.58-.61,1.42-.71,2.21-.72.74,0,1.44.02,2.15-.18.65-.18,1.27-.48,1.89-.74.63,0,1.24-.24,1.88-.25.67-.02,1.3.19,1.97.08.61-.09,1.15-.34,1.66-.68.53-.37,1.08-.82,1.72-.95,1.24-.24,2.23.68,2.83,1.65.5.8,1.04,1.59,1.84,2.11.87.58,1.85.63,2.86.45.63-.11,1.24-.33,1.89-.38.58-.04,1.13.14,1.7.13.49-.02,1.01-.09,1.47-.29.53-.23.94-.63,1.42-.94,1.01-.65,2.08-.69,3.23-.49.89.16,1.78.34,2.6.71.46.21.9.47,1.27.81.25.23.45.49.67.74-.03.06-.06.12,0,.18.36.54.94.81,1.51,1.09.74.38,1.29.84,1.65,1.6.39.79.53,1.64.78,2.47.09.33.23.65.35.97.06.14.1.31.21.43.25.26.76.27,1.09.26.45-.02.85-.2,1.23-.45.56-.38,1.14-1.03,1.84-.51.42.32.74.79,1.14,1.14.48.45.95.88,1.55,1.19.53.27,1.08.48,1.57.81.63.42,1.19.91,1.75,1.42.36.33.75.68.96,1.14.34.72,0,1.33-.23,2.01-.17.51-.31,1.09-.23,1.62.1.58.48.92.79,1.39.3.47.24,1.06.37,1.59.33,1.4.89,2.77.48,4.23-.19.68-.51,1.32-.7,2-.14.5-.15,1.06-.35,1.55-.29-.07-.61-.07-.9-.08-.53-.03-1.05-.03-1.58,0-1.06.05-2.11.18-3.17.32-.99.13-1.99.28-2.98.42-.99.15-1.99.07-2.96.26-1.59.31-2.73,1.69-4.13,2.39-.99.48-2.26.94-2.79,1.97-.29-.16-.8-.13-1.08-.17-.68-.07-1.34-.19-2.02-.12-.87.1-1.6.38-2.49.23-.74-.12-1.42-.28-2.07-.67-.59-.36-1.06-.5-1.76-.48-.68.02-1.24-.02-1.84-.4-.48-.32-.89-.72-1.38-1.03-.53-.33-1.11-.53-1.71-.64-1.13-.22-2.27-.11-3.35.25-.33-1.45-1.15-2.53-2.26-3.5-.58-.51-.99-1.17-1.6-1.65-.51-.39-1.1-.68-1.7-.87-1.2-.38-2.57-.5-3.79-.13-1.15.35-2.46,1.68-3.62.61-.43-.4-.63-.98-.77-1.52-.13-.48-.07-1.02-.37-1.43-.18-.26-.47-.39-.7-.6-.25-.23-.42-.53-.63-.8-.29-.38-.64-.66-1.09-.84-1.09-.46-2.31-.35-3.47-.38-.76-.03-1.6-.15-2.35,0-.55.11-.97.45-1.4.77-.62.46-1.33.42-2.05.35-.6-.05-1.18-.07-1.77.07-.6.14-1.16.43-1.65.81-.43.33-.77.79-1.2,1.13-.33-.25-.7-.48-.99-.79-.33-.37-.5-.85-.6-1.33-.09-.43-.13-.86-.21-1.29-.09-.45-.23-.89-.34-1.33Z"/><path class="cls-1" d="m829.54,88.14c-1.07,1.55-1.79,3.48-1.31,5.38.11.44.25.88.34,1.33.08.43.12.86.21,1.29.1.48.27.96.6,1.33.28.3.65.53.99.79.43-.33.77-.79,1.2-1.13.49-.38,1.05-.67,1.65-.81.59-.13,1.17-.12,1.77-.07.73.07,1.44.11,2.05-.35.43-.32.85-.66,1.4-.77.75-.14,1.59-.03,2.35,0,1.16.03,2.38-.08,3.47.38.45.18.8.46,1.09.84.21.28.38.57.63.8.23.21.52.34.7.6.3.41.24.94.37,1.43.13.54.34,1.12.77,1.52,1.16,1.07,2.46-.26,3.62-.61,1.22-.38,2.59-.26,3.79.13.6.19,1.19.48,1.7.87.6.48,1.02,1.14,1.6,1.65,1.11.97,1.93,2.05,2.26,3.5,1.08-.36,2.22-.47,3.35-.25.6.11,1.19.31,1.71.64.48.31.9.71,1.38,1.03.59.38,1.15.42,1.84.4.7-.02,1.17.13,1.76.48.65.38,1.33.55,2.07.67.89.15,1.62-.13,2.49-.23.68-.08,1.34.05,2.02.12.28.03.79,0,1.08.17.53-1.03,1.8-1.49,2.79-1.97,1.4-.7,2.55-2.08,4.13-2.39.97-.19,1.97-.11,2.96-.26.99-.14,1.99-.28,2.98-.42,1.05-.14,2.1-.27,3.17-.32.53-.03,1.05-.03,1.58,0,.29.02.61.02.9.08.2-.48.21-1.04.35-1.55.19-.68.51-1.33.7-2,.41-1.45-.15-2.82-.48-4.23-.13-.53-.07-1.12-.37-1.59-.31-.48-.68-.82-.79-1.39-.08-.53.06-1.11.23-1.62.22-.68.57-1.29.23-2.01-.21-.45-.6-.8-.96-1.14-.55-.51-1.12-1-1.75-1.42-.49-.33-1.04-.54-1.57-.81-.59-.31-1.06-.74-1.55-1.19-.39-.36-.72-.83-1.14-1.14-.7-.52-1.28.13-1.84.51-.38.25-.78.43-1.23.45-.33,0-.84,0-1.09-.26-.11-.12-.15-.28-.21-.43-.13-.32-.26-.63-.35-.97-.24-.84-.38-1.69-.78-2.47-.37-.75-.92-1.22-1.65-1.6-.57-.28-1.15-.55-1.51-1.09-.05-.07-.03-.13,0-.18-.22-.25-.42-.52-.67-.74-.37-.34-.81-.6-1.27-.81-.82-.37-1.71-.55-2.6-.71-1.15-.2-2.22-.16-3.23.49-.48.31-.89.7-1.42.94-.46.2-.98.28-1.47.29-.58,0-1.13-.18-1.7-.13-.64.04-1.25.27-1.89.38-1,.18-1.99.13-2.86-.45-.8-.53-1.34-1.31-1.84-2.11-.6-.97-1.59-1.89-2.83-1.65-.64.13-1.19.58-1.72.95-.51.34-1.05.59-1.66.68-.67.11-1.3-.1-1.97-.08-.64,0-1.25.24-1.88.25-.62.27-1.24.56-1.89.74-.71.19-1.41.17-2.15.18-.79,0-1.63.11-2.21.72-.48.51-.69,1.17-.86,1.83-.25.98-.28,2.24-1.34,2.71-.84.38-1.9.11-2.61-.46-.48-.38-.63-.92-.95-1.41-.42-.63-1.23-.78-1.94-.73-1.75.12-2.35,2.07-3.18,3.29-.37.54-.78,1.01-1.36,1.33-.57.33-1.19.54-1.75.89-.29.18-.61.41-.8.7-.23.34-.27.77-.43,1.14-.33.73-.82,1.39-1.26,2.04Z"/><path class="cls-1" d="m848.58,129.3c-.1,1.22.2,2.68.86,3.72.54.86,1.45,1.39,2.05,2.2.47.63.63,1.47,1.29,1.95.38.28.85.38,1.29.56.5.19.99.44,1.45.72.94.58,1.84,1.31,2.47,2.22.49.71.78,1.62,1.49,2.16.81.6,1.7.29,2.56,0,.53-.18,1.09-.28,1.59.06.38.27.55.72.7,1.13.27.75.53,1.53,1.2,2.02.68.49,1.53.48,2.33.43,1.05-.06,2.17-.18,3.06-.82.86-.62,1.46-1.52,2.29-2.18.89-.71,1.89-1.22,2.88-1.75.94-.48,1.58-1.04,2.05-1.97.55-1.08.94-2.21,1.39-3.32.44-1.09,1.11-2.12,1.41-3.27.29-1.11.16-2.3.2-3.43.03-.03.06-.08.05-.14-.12-.85-1.56-.68-2.14-.69-.67,0-1.3-.28-1.93-.49-.66-.23-1.37-.42-1.99-.75-.48-.26-.74-.66-.94-1.16-.29-.74-.6-1.47-.82-2.23-.39-1.37-.13-2.81-1-4.03-.17-.23-.51-.1-.53.11-.53-.52-1.25-.86-1.92-1.12-.92-.37-1.86-.51-2.81-.73-1.11-.26-2.18-.67-3.19-1.19-.54-.28-1.06-.59-1.62-.85-.39-.18-.86-.45-1.31-.43-.41-.23-1.22.58-1.45.79-.67.64-1.24,1.42-2.08,1.85-.79.4-1.77.45-2.63.37-.46-.05-.94-.14-1.36-.33-.28-.13-.64-.55-.96-.53-.08,0-.18.06-.2.15-.02.12.02.23.08.32-.4.46-.74.96-1.08,1.46-.38.56-.8,1.07-1.19,1.61-.74,1.04-1.23,2.13-1.22,3.42,0,.68.08,1.37,0,2.05-.08.72-.26,1.41-.32,2.13Zm.87,2.41c-.21-.65-.35-1.34-.34-2.02,0-.59.13-1.18.23-1.76.09-.57.16-1.14.15-1.72-.02-.53-.06-1.06,0-1.6.13-1.18.85-2.15,1.56-3.05.34-.43.68-.88.99-1.34.24-.4.46-.81.72-1.2.46.3,1.17.46,1.5.53.88.15,1.8.14,2.66-.08,1.05-.28,1.8-1.01,2.51-1.8.26-.28.5-.57.78-.83.18-.17.35-.32.56-.43l.2-.1c.38.32.96.46,1.39.68.49.23.95.52,1.43.77.89.45,1.84.8,2.81,1.04.97.23,1.95.28,2.89.6.93.31,1.69.81,2.51,1.29.77,1.2.51,2.72.95,4.05.23.71.51,1.42.79,2.1.18.42.41.8.77,1.08.39.31.87.48,1.33.63.79.27,1.55.56,2.37.72.48.09.93.07,1.41.06.36,0,1.19-.1,1.28.37,0,.03.02.03.03.04-.2,1.22-.03,2.48-.44,3.66-.22.62-.55,1.17-.84,1.76-.27.55-.49,1.12-.73,1.69-.24.61-.48,1.24-.75,1.84-.27.58-.54,1.23-.99,1.7-.75.79-1.94,1.14-2.87,1.69-.89.52-1.71,1.13-2.41,1.87-.76.81-1.42,1.54-2.54,1.79-.87.2-2.04.36-2.91.11-.92-.26-1.24-1.14-1.55-1.95-.23-.64-.53-1.28-1.19-1.59-.85-.41-1.63-.03-2.46.22-1.11.33-1.75-.32-2.29-1.21-.47-.8-.99-1.52-1.7-2.15-.72-.65-1.54-1.19-2.41-1.6-.8-.38-1.75-.52-2.22-1.34-.21-.37-.36-.77-.59-1.12-.24-.37-.55-.68-.87-.98-.76-.72-1.39-1.34-1.71-2.38Z"/><path class="cls-1" d="m849.11,129.69c0,.68.13,1.37.34,2.02.33,1.04.95,1.66,1.71,2.38.32.3.63.61.87.98.23.35.38.75.59,1.12.47.83,1.42.96,2.22,1.34.88.42,1.7.95,2.41,1.6.7.63,1.23,1.34,1.7,2.15.53.89,1.18,1.55,2.29,1.21.83-.24,1.6-.63,2.46-.22.65.31.95.94,1.19,1.59.31.81.63,1.7,1.55,1.95.87.25,2.04.09,2.91-.11,1.12-.25,1.78-.98,2.54-1.79.7-.74,1.53-1.35,2.41-1.87.93-.54,2.11-.89,2.87-1.69.44-.47.72-1.12.99-1.7.28-.6.51-1.23.75-1.84.23-.57.46-1.14.73-1.69.29-.59.63-1.14.84-1.76.41-1.18.24-2.44.44-3.66,0-.02-.03-.02-.03-.04-.08-.47-.92-.38-1.28-.37-.48,0-.94.03-1.41-.06-.82-.16-1.59-.45-2.37-.72-.46-.16-.94-.33-1.33-.63-.36-.28-.58-.66-.77-1.08-.28-.68-.56-1.39-.79-2.1-.44-1.33-.18-2.85-.95-4.05-.83-.48-1.59-.98-2.51-1.29-.94-.32-1.92-.38-2.89-.6-.97-.23-1.91-.58-2.81-1.04-.48-.25-.94-.53-1.43-.77-.43-.22-1.01-.36-1.39-.68l-.2.1c-.21.12-.38.27-.56.43-.28.26-.52.55-.78.83-.71.79-1.45,1.52-2.51,1.8-.86.23-1.78.23-2.66.08-.33-.07-1.04-.23-1.5-.53-.26.39-.48.8-.72,1.2-.3.47-.64.91-.99,1.34-.71.9-1.43,1.87-1.56,3.05-.06.53-.02,1.07,0,1.6,0,.58-.06,1.15-.15,1.72-.1.58-.23,1.17-.23,1.76Z"/><path class="cls-1" d="m766.1,129.21c-1.16.99-1.57,2.51-1.04,3.92.6,1.59,1.89,2.84,3.2,3.85.73.56,1.51,1.06,2.31,1.52.56.33,1.14.58,1.78.57.06.12.21.18.33.14,0,0,.02,0,.03,0,.14-.05.24-.2.19-.35-.26-.91-.13-1.9.34-2.72.33-.59.82-1.08,1.1-1.7.13-.31.2-.6.21-.94,0-.52.06-.86.37-1.29.44-.63,1.02-1.15,1.42-1.82.68-1.11.44-2.52,1.19-3.61.66-.95,2.1-1.16,3.17-1.24.99-.08,2.1-.17,3.04.18.36.13.67.35.89.67.18.25.28.54.48.79.31.36.74.49,1.19.58.8.15,1.7.31,2.16,1.05.26.42.41.89.82,1.19.88.65,2.07.5,3.05.24.53-.14.99-.24,1.53-.08.28.08.53.18.82.25.69.17,1.41.18,2.1.33.71.16,1.43.51,1.92,1.05.51.57.68,1.47.63,2.21,0,.08.04.11.09.13,0,.02.03.03.04.04,1.15.47,1.84,1.81,3.12,2,1.18.18,2.22-.74,3.04-1.47.53-.46,1.04-.89,1.63-1.25.52-.31,1.09-.58,1.54-1,.68-.62,1.01-1.7.44-2.51-.36-.49-.86-.77-.99-1.4-.1-.48-.14-.89-.42-1.3-.42-.61-1.08-.74-1.77-.68-.58.04-1.37.3-1.88-.09-.38-.31-.31-.97-.44-1.4-.27-.88-1.09-1.16-1.88-1.46-1.09-.4-1.95-1.15-2.48-2.19-.26-.48-.4-1.01-.63-1.5-.23-.48-.58-.89-.92-1.29-.77-.93-1.15-2.07-1.88-3.02-.63-.82-1.41-1.58-2.39-1.95-1.09-.42-2.27-.35-3.41-.26-.58.04-1.24.08-1.78.32-.38.16-.65.44-.95.7-.92.79-2.04,1.04-3.18,1.34-.63.17-1.2.53-1.85.68-.52.13-1.04.03-1.57.1-.45.07-.84.23-1.14.57-.21.23-.34.47-.61.63-.26.16-.55.26-.84.32-.65.13-1.29.03-1.9-.21-.48-.19-.95-.38-1.47-.38-.56.02-1.08.23-1.6.43-.5.19-1.02.36-1.5.6-.53.28-.96.67-1.45,1.01-.43.31-.92.5-1.32.84-.07.06-.07.13-.04.21-.54.28-1.01.96-1.29,1.41-.48.79-.65,1.77-.87,2.66-.22.88-.13,1.61.07,2.48.11.48.28,1.03,0,1.46-.18.28-.47.47-.71.68Zm-.85,2.8c-.07-.74.3-1.59.77-2.15.33-.4.81-.65,1.11-1.08.36-.5.25-1.06.13-1.63-.11-.48-.26-.95-.26-1.45,0-.43.1-.86.22-1.28.2-.75.33-1.55.73-2.22.38-.66.96-1.1,1.45-1.67.43-.28.92-.48,1.33-.8.5-.38.99-.74,1.56-.99.56-.25,1.15-.47,1.74-.65.71-.23,1.3-.17,1.99.1.97.37,2,.48,2.97.03.23-.1.47-.24.65-.43.2-.19.32-.47.55-.63.53-.38,1.26-.23,1.87-.29.47-.04.89-.23,1.31-.41.53-.23,1.05-.37,1.62-.52.93-.24,1.83-.58,2.58-1.19.44-.37.78-.72,1.37-.85.6-.13,1.23-.17,1.85-.19,1.17-.06,2.35,0,3.35.68.99.67,1.67,1.65,2.21,2.7.24.47.48.93.79,1.34s.68.78.97,1.2c.55.84.73,1.84,1.34,2.66.51.68,1.19,1.23,1.99,1.55.48.2,1.01.32,1.44.63.43.32.52.79.58,1.29.12.82.6,1.25,1.45,1.26.79,0,1.85-.43,2.47.26.4.46.33,1.02.49,1.56.12.38.36.65.61.94.4.47.63.94.38,1.55-.21.53-.66.84-1.13,1.13-.46.28-.94.53-1.39.84-.4.29-.76.63-1.13.95-.91.8-2.17,1.85-3.43,1.14-.76-.43-1.34-1.09-2.15-1.44.22-1.5-.76-2.76-2.1-3.31-.78-.33-1.64-.33-2.46-.48-.74-.12-1.41-.53-2.17-.39-.85.14-1.6.45-2.46.28-.79-.15-1.2-.54-1.57-1.24-.3-.56-.68-.91-1.28-1.15-.68-.28-1.64-.19-2.17-.73-.42-.42-.55-.99-1.06-1.34-.44-.3-.98-.42-1.5-.48-1.09-.12-2.27-.05-3.34.17-1.09.23-2.09.68-2.56,1.75-.3.68-.35,1.37-.52,2.08-.18.78-.64,1.37-1.15,1.96-.43.49-.99,1.05-1.14,1.71-.08.37,0,.75-.12,1.11-.11.36-.33.68-.54.98-.41.58-.81,1.14-1.02,1.83-.19.64-.2,1.29-.16,1.95-1.68-.36-3.15-1.59-4.43-2.66-1.2-1.03-2.49-2.38-2.65-4.03Z"/><path class="cls-1" d="m766.01,129.86c-.47.56-.84,1.4-.77,2.15.16,1.65,1.45,3.01,2.65,4.03,1.28,1.08,2.75,2.31,4.43,2.66-.04-.66-.03-1.3.16-1.95.21-.69.61-1.24,1.02-1.83.21-.3.43-.62.54-.98.12-.36.04-.74.12-1.11.14-.66.71-1.22,1.14-1.71.51-.59.97-1.19,1.15-1.96.17-.71.22-1.4.52-2.08.48-1.07,1.47-1.52,2.56-1.75,1.07-.22,2.26-.28,3.34-.17.52.06,1.05.18,1.5.48.51.34.64.92,1.06,1.34.53.53,1.5.44,2.17.73.59.24.98.59,1.28,1.15.37.69.78,1.09,1.57,1.24.87.17,1.61-.14,2.46-.28.76-.13,1.44.28,2.17.39.82.14,1.68.15,2.46.48,1.34.55,2.31,1.8,2.1,3.31.81.34,1.39,1.01,2.15,1.44,1.26.71,2.52-.34,3.43-1.14.37-.33.73-.66,1.13-.95.44-.31.93-.56,1.39-.84.47-.28.92-.6,1.13-1.13.24-.61.02-1.09-.38-1.55-.25-.29-.49-.57-.61-.94-.16-.54-.09-1.1-.49-1.56-.62-.69-1.69-.25-2.47-.26-.85,0-1.34-.44-1.45-1.26-.07-.5-.15-.98-.58-1.29-.43-.32-.96-.43-1.44-.63-.79-.33-1.48-.87-1.99-1.55-.61-.82-.79-1.82-1.34-2.66-.28-.43-.66-.79-.97-1.2s-.54-.88-.79-1.34c-.53-1.04-1.22-2.03-2.21-2.7-1-.68-2.18-.74-3.35-.68-.63.03-1.25.06-1.85.19-.59.13-.93.48-1.37.85-.75.61-1.65.94-2.58,1.19-.57.15-1.09.28-1.62.52-.43.18-.84.37-1.31.41-.61.07-1.34-.09-1.87.29-.23.17-.35.44-.55.63-.18.18-.42.33-.65.43-.97.45-2,.33-2.97-.03-.68-.27-1.28-.33-1.99-.1-.58.18-1.18.4-1.74.65-.58.25-1.06.61-1.56.99-.41.32-.89.53-1.33.8-.48.57-1.06,1.01-1.45,1.67-.4.68-.53,1.47-.73,2.22-.12.42-.23.84-.22,1.28,0,.49.15.97.26,1.45.12.57.23,1.13-.13,1.63-.3.43-.79.68-1.11,1.08Z"/><path class="cls-1" d="m774.06,166.44c-.09.49-.09.98.16,1.43.27.48.71.84,1.04,1.28.42.53.59,1.21,1.01,1.74.32.4.79.54,1.14.89.38.36.47.84.95,1.09.18.1.39.17.58.28.38.24.47.63.53,1.05.11.72.19,1.47.19,2.2,0,.64-.1,1.28-.07,1.92.03.75,0,1.86.9,2.08.56.14,1.04,0,1.57.32.35.21.67.48,1.04.66.37.18.76.24,1.15.08.45-.2.75-.63,1.2-.84.71-.34,1.31-.08,1.9.35.33.24.65.43,1.03.49.08.05.16.07.23.03.02,0,.03,0,.05,0,.22,0,.27-.24.18-.38.07-.26.13-.51.23-.78.22-.64.49-1.28.72-1.92.22-.64.33-1.35.68-1.93.33-.56.8-1.04,1.22-1.55.73-.88,1.38-1.76,2.33-2.41.48-.33,1.29-.79,1.18-1.47,0-.05-.04-.08-.08-.1-.27-.74-.33-1.52-.49-2.29-.09-.43-.2-.81-.58-1.06-.33-.21-.74-.27-1.12-.37-.22-.07-.46-.14-.63-.31-.26-.27-.15-.63-.22-.96-.14-.65-.68-1.12-.82-1.78-.14-.74-.02-1.51-.19-2.26-.25-1.04-1.09-1.27-2.05-1.33-.52-.04-1.25,0-1.67-.36-.41-.36-.36-.94-.55-1.41-.23-.58-.77-.99-1.36-1.16-1.12-.32-2.72.03-3,1.32-.13.63.02,1.17-.7,1.45-.18.08-.35.13-.52.25-.26.19-.42.53-.7.68-.57.31-1.38-.1-1.96-.19-.45-.08-.9-.07-1.34.03-1.01.21-1.95.69-2.44,1.63-.28.54-.4,1.12-.43,1.73-.03.66-.18,1.24-.3,1.89Zm1.09,2c-.73-.58-1.06-1.25-.74-2.16.18-.5.37-.94.43-1.48.1-.74.15-1.39.58-2.03.27-.4.68-.7,1.12-.91.59-.27,1.26-.38,1.9-.28.48.08.95.26,1.44.3.42.03.82-.08,1.12-.37.21-.21.34-.46.62-.61.2-.11.43-.15.63-.28.73-.46.33-1.34.69-1.98.68-1.19,2.87-.98,3.47.18.38.72.24,1.6,1.14,1.95.79.31,1.73.04,2.5.4,1.15.54.59,2.41.93,3.4.19.55.68.99.75,1.59.04.4,0,.7.3,1.01.5.5,1.27.36,1.82.74.46.32.45,1.08.53,1.58.09.58.23,1.14.46,1.7-.08.34-.57.62-.83.79-.31.2-.65.38-.94.62-.87.69-1.47,1.73-2.16,2.6-.33.43-.68.85-.91,1.35-.24.52-.36,1.09-.55,1.64-.22.62-.49,1.21-.72,1.82-.1.28-.31.6-.41.91-.5-.17-.89-.61-1.37-.83-.45-.2-.94-.23-1.4-.08-.57.18-.9.59-1.38.89s-.94,0-1.35-.27c-.38-.23-.77-.49-1.22-.58-.28-.05-.57,0-.84-.08-.43-.09-.55-.33-.64-.72-.13-.57-.16-1.16-.13-1.74.03-.72-.03-1.39-.12-2.1-.1-.83.02-2.05-.81-2.53-.23-.13-.48-.2-.68-.35-.29-.22-.35-.48-.53-.77-.19-.34-.48-.53-.79-.76-.55-.42-.71-.99-1.04-1.58-.23-.41-.5-.71-.87-1.01Z"/><path class="cls-1" d="m774.42,166.29c-.33.9,0,1.58.74,2.16.37.3.63.6.87,1.01.33.58.49,1.16,1.04,1.58.31.23.6.42.79.76.18.29.23.55.53.77.21.15.46.23.68.35.83.48.71,1.7.81,2.53.08.71.14,1.38.12,2.1-.03.58,0,1.17.13,1.74.09.38.22.63.64.72.27.07.56.03.84.08.45.08.84.34,1.22.58.42.26.88.57,1.35.27s.81-.71,1.38-.89c.46-.15.95-.12,1.4.08.48.22.87.66,1.37.83.1-.31.31-.63.41-.91.23-.61.5-1.2.72-1.82.19-.54.31-1.12.55-1.64.23-.5.58-.93.91-1.35.68-.87,1.29-1.9,2.16-2.6.29-.23.63-.42.94-.62.26-.17.75-.44.83-.79-.23-.55-.37-1.11-.46-1.7-.08-.5-.07-1.26-.53-1.58-.55-.38-1.32-.24-1.82-.74-.31-.31-.26-.61-.3-1.01-.07-.59-.56-1.04-.75-1.59-.33-.99.23-2.86-.93-3.4-.77-.36-1.7-.09-2.5-.4-.9-.35-.77-1.24-1.14-1.95-.6-1.16-2.78-1.38-3.47-.18-.37.64.03,1.52-.69,1.98-.2.13-.43.17-.63.28-.28.15-.41.4-.62.61-.3.29-.7.39-1.12.37-.48-.04-.95-.23-1.44-.3-.64-.1-1.31.02-1.9.28-.44.21-.85.51-1.12.91-.43.64-.48,1.29-.58,2.03-.07.53-.26.98-.43,1.48Z"/><path class="cls-1" d="m887.83,207.82c-.31.74-.17,1.57.03,2.31.13.55.33,1.09.36,1.66.03.43,0,.88-.04,1.31-.07.81-.03,1.6.34,2.36.77,1.58,2.89,1.65,3.54,3.33.28.73.43,1.51.91,2.14.46.6,1.11.98,1.8,1.24,1.7.66,3.45,1.21,4.69,2.63.62.71.99,1.47,1.18,2.39.16.79.55,1.5,1.16,2.03.5.43,1.15.85,1.84.92.75.08,1.34-.4,1.94-.79.85-.54,1.82-.68,2.65-.03.53.4,1.03.8,1.73.7,1.27-.18,1.72-1.34,2.12-2.4.23-.6.48-1.24,1.04-1.62.77-.53,1.72-.75,2.51-1.27.74-.5,1.39-1.14,2.13-1.63.76-.5,1.6-.69,2.46-.95,1.69-.51,3.06-1.56,3.86-3.14.23-.45.45-.88.74-1.29.23-.3.44-.61.58-.96.32-.77.07-1.55-.13-2.32-.45-1.72-.94-4.28.84-5.45.58-.39,1.35-.53,1.83-1.07.52-.58.54-1.41.76-2.12.24-.8.69-1.64.75-2.49.02-.32-.07-.61-.18-.9-.19-.45-.22-.86-.28-1.34-.29-1.86-2.65-1.22-3.89-1.13-.95.08-1.92-.08-2.88-.06-.87.02-1.79.13-2.63-.15-.94-.3-1.6-1.11-2.21-1.85-.56-.69-1.07-1.42-1.6-2.14.11-.09,0-.31-.14-.26-.02,0-.03,0-.04,0,0,0,0-.02-.02-.03-.11-.15-.33-.03-.28.12-1.62.49-3.41.95-4.74,2.03-.61.5-1.06,1.15-1.65,1.67-.64.58-1.44.98-2.21,1.37-1.55.79-3.3.84-4.99.55-.83-.14-1.69-.3-2.52-.21-.9.11-1.75.39-2.67.28-.84-.1-1.59-.52-2.22-1.06-.45-.38-.88-.82-1.36-1.16.06-.11.12-.22.18-.33.17-.28-.27-.53-.43-.25-.07.11-.12.22-.18.33-.29-.13-.53.32-.24.44h0c-.33.61-.63,1.22-.91,1.85-.36.81-.7,1.62-.98,2.46-.28.84-.53,1.75-1.11,2.46-.48.59-1.13,1.07-1.43,1.8Zm.61,2.64c-.31-.94-.67-1.95-.08-2.85.41-.64,1.05-1.1,1.47-1.75.43-.64.67-1.39.91-2.11.5-1.47,1.19-2.89,1.95-4.25.65.39,1.19.95,1.8,1.41.68.52,1.45.84,2.31.89.95.06,1.83-.28,2.76-.3.93-.02,1.84.23,2.76.36,1.57.21,3.23-.02,4.64-.74.76-.38,1.53-.79,2.18-1.34.63-.53,1.08-1.22,1.7-1.75,1.29-1.09,3.08-1.5,4.64-2.14.43.61.84,1.22,1.3,1.8.51.66,1.06,1.38,1.75,1.88.58.43,1.27.59,1.98.64.84.05,1.67,0,2.51.02.89.03,1.76.17,2.66.05.81-.11,2.03-.36,2.66.36.32.37.23.9.33,1.35.08.38.33.7.38,1.09.05.43-.14.86-.28,1.26-.15.42-.31.83-.45,1.25-.26.78-.27,1.8-1.05,2.28-.58.35-1.26.5-1.79.97-.56.51-.91,1.29-1.04,2.03-.13.78-.07,1.57.07,2.35.14.89.58,1.8.58,2.7.02.89-.74,1.56-1.13,2.31-.43.83-.79,1.6-1.51,2.22-.74.64-1.58,1.04-2.51,1.29-.77.22-1.53.4-2.22.82-.73.44-1.35,1.04-2.05,1.54-.74.53-1.57.83-2.37,1.23-1.15.57-1.44,1.59-1.9,2.69-.22.54-.52,1.1-1.08,1.35-.93.4-1.41-.33-2.12-.75-.59-.35-1.34-.35-2-.16-.7.22-1.22.77-1.9,1.04-.79.31-1.69-.28-2.23-.84-.68-.7-.68-1.5-.94-2.37-.45-1.51-1.76-2.69-3.11-3.42-.71-.39-1.46-.69-2.21-.98-.79-.29-1.62-.53-2.21-1.17-.58-.64-.65-1.5-.97-2.26-.27-.66-.69-1.14-1.28-1.54-.66-.44-1.51-.72-2.02-1.34-.58-.71-.59-1.62-.56-2.49.03-.94-.03-1.75-.33-2.65Z"/><path class="cls-1" d="m888.35,207.61c-.58.9-.23,1.91.08,2.85.29.89.36,1.7.33,2.65-.03.87-.03,1.78.56,2.49.51.63,1.36.9,2.02,1.34.58.39,1.01.88,1.28,1.54.32.77.38,1.62.97,2.26.58.63,1.41.88,2.21,1.17.75.28,1.5.58,2.21.98,1.34.73,2.66,1.9,3.11,3.42.26.87.26,1.67.94,2.37.54.56,1.44,1.14,2.23.84.68-.27,1.19-.82,1.9-1.04.65-.19,1.4-.19,2,.16.71.42,1.19,1.15,2.12.75.56-.25.86-.81,1.08-1.35.47-1.1.75-2.12,1.9-2.69.8-.4,1.64-.69,2.37-1.23.69-.5,1.32-1.09,2.05-1.54.69-.42,1.45-.6,2.22-.82.93-.26,1.77-.65,2.51-1.29.72-.63,1.08-1.39,1.51-2.22.39-.74,1.14-1.41,1.13-2.31,0-.89-.44-1.81-.58-2.7-.13-.78-.2-1.57-.07-2.35.13-.74.48-1.52,1.04-2.03.53-.47,1.2-.62,1.79-.97.79-.48.79-1.5,1.05-2.28.14-.43.3-.84.45-1.25.14-.4.33-.84.28-1.26-.04-.39-.29-.71-.38-1.09-.1-.45-.02-.99-.33-1.35-.63-.72-1.85-.47-2.66-.36-.89.12-1.76-.02-2.66-.05-.84-.03-1.67.03-2.51-.02-.71-.05-1.4-.22-1.98-.64-.68-.5-1.24-1.22-1.75-1.88-.46-.58-.88-1.19-1.3-1.8-1.55.64-3.35,1.04-4.64,2.14-.62.53-1.07,1.23-1.7,1.75-.65.54-1.42.95-2.18,1.34-1.41.72-3.07.94-4.64.74-.92-.13-1.83-.38-2.76-.36-.94.02-1.81.36-2.76.3-.86-.06-1.62-.38-2.31-.89-.61-.46-1.15-1.02-1.8-1.41-.76,1.36-1.45,2.78-1.95,4.25-.24.73-.48,1.47-.91,2.11-.42.64-1.06,1.1-1.47,1.75Z"/></svg>