<?xml version="1.0" encoding="UTF-8"?><svg id="Tree_06_-_Leaves_04" xmlns="http://www.w3.org/2000/svg" viewBox="0 0 1160 418.25"><defs><style>.cls-1{fill:#c6d604;stroke-width:0px;}</style></defs><path class="cls-1" d="m827.53,187.44c-.38.53-.36,1.08-.27,1.71.08.53.18,1.06.19,1.6.02.46-.03.92,0,1.37.05.78.33,1.5.67,2.2.41.82.97,1.54,1.46,2.3.37.57.63,1.24,1.11,1.73,1.14,1.13,2.34-.18,3.51-.52.93-.28,1.87-.38,2.83-.47.92-.09,1.88-.12,2.73.31.84.43,1.5,1.17,2,1.95.38.58.69,1.23,1.19,1.73.42.41.94.71,1.54.58.65-.14,1.26-.61,1.83-.94.38-.21.76-.45,1.19-.53.48-.1.92.12,1.34.33.64.31,1.24.57,1.96.63.61.05,1.29.04,1.85-.2.58-.26,1.08-.84,1.39-1.39.17-.3.28-.63.32-.98.05-.43-.03-.85.08-1.28.02-.08.04-.14.07-.22.13-.33.31-.64.37-1,.06-.37.05-.74.1-1.1.24-1.04.48-2.21-.06-3.11-.38-.63-1.28-.9-1.5-1.6-.13-.4-.14-.83-.27-1.23-.11-.33-.25-.65-.43-.94-.73-1.23-1.93-1.59-3.21-2-1.34-.45-2.71-1.34-3.08-2.79-.18-.72-.17-1.46-.4-2.17-.19-.62-.5-1.2-.95-1.68-.57-.6-1.34-1.01-1.96-1.55-.61-.51-1.12-1.13-1.75-1.6-.51-.38-1.17-.79-1.84-.74-.58.06-1.08.48-1.31,1-.29.66-.13,1.46-.53,2.08-.38.59-1.04.99-1.47,1.55-.49.64-.82,1.4-1.39,1.98-.55.56-1.24.97-1.96,1.29-.71.33-1.46.53-2.16.89-.64.33-1.24.77-1.77,1.25-.51.47-1.02,1-1.43,1.56Zm.14,1.65c-.04-.4-.08-.8.1-1.18.13-.24.33-.44.51-.64,1.04-1.14,2.15-2.1,3.63-2.64,1.23-.46,2.47-.99,3.37-1.97.46-.51.74-1.12,1.09-1.69.4-.63.97-1.02,1.45-1.56.38-.42.48-.89.55-1.43.1-.84.46-1.95,1.55-1.71.76.16,1.41.76,1.95,1.29.55.53,1.09,1.04,1.7,1.5.64.48,1.28.89,1.69,1.6.38.66.57,1.41.64,2.16.13,1.17.53,2.1,1.45,2.85.99.8,2.11,1.06,3.27,1.51.74.28,1.32.72,1.73,1.4.4.69.43,1.41.66,2.15.19.64.8.82,1.23,1.26.52.52.62,1.18.56,1.89-.08.95-.23,1.93-.44,2.89-.07.14-.15.28-.23.44-.16.33-.19.63-.21.99,0,.1,0,.21-.02.31,0,0,0,0,0,.02h0c-.03.33-.13.63-.29.94-.34.62-.9,1.2-1.61,1.34-.63.13-1.39.08-2-.12-.69-.23-1.31-.71-2.05-.79-1.34-.15-2.31,1.22-3.52,1.53-.81.2-1.39-.69-1.78-1.27-.39-.59-.79-1.17-1.27-1.7-1.04-1.14-2.3-1.63-3.83-1.54-1.45.09-3.13.21-4.42.95-.68.39-1.43.91-2.15.25-.49-.45-.74-1.14-1.1-1.7-.98-1.5-2.16-2.79-2.13-4.7.02-.89,0-1.75-.09-2.64Z"/><path class="cls-1" d="m827.78,187.91c-.18.38-.14.78-.1,1.18.08.89.11,1.75.09,2.64-.03,1.91,1.15,3.2,2.13,4.7.36.55.61,1.24,1.1,1.7.72.66,1.46.14,2.15-.25,1.29-.74,2.97-.86,4.42-.95,1.53-.09,2.79.4,3.83,1.54.48.53.88,1.1,1.27,1.7.38.58.97,1.47,1.78,1.27,1.21-.31,2.17-1.68,3.52-1.53.74.08,1.36.56,2.05.79.61.2,1.36.24,2,.12.71-.14,1.27-.73,1.61-1.34.17-.3.26-.6.29-.93h0s0-.02,0-.03c0-.1.02-.21.02-.31.02-.36.05-.67.21-.99.08-.16.16-.3.23-.44.21-.96.36-1.94.44-2.89.06-.71-.04-1.37-.56-1.89-.43-.44-1.04-.62-1.23-1.26-.23-.74-.26-1.45-.66-2.15-.41-.68-.99-1.12-1.73-1.4-1.16-.45-2.28-.71-3.27-1.51-.93-.75-1.33-1.68-1.45-2.85-.08-.75-.26-1.5-.64-2.16-.41-.71-1.04-1.13-1.69-1.6-.61-.46-1.14-.96-1.7-1.5-.54-.53-1.19-1.13-1.95-1.29-1.09-.23-1.45.87-1.55,1.71-.07.53-.18,1.01-.55,1.43-.48.54-1.04.94-1.45,1.56-.36.57-.63,1.18-1.09,1.69-.9.99-2.15,1.51-3.37,1.97-1.48.54-2.59,1.5-3.63,2.64-.18.2-.38.4-.51.64Z"/><path class="cls-1" d="m882.86,189.12c-.15.85.16,1.52.68,2.17.31.38.69.78.72,1.3.03.56-.3,1.13-.52,1.62-.42.94-.63,1.8-.36,2.81.13.49.33.98.43,1.49.07.38.09.76.16,1.14.09.5.26,1,.65,1.29.03.02.04.04.06.07.1.16.16.34.25.51.28.49.74.65,1.29.6.74-.06,1.5-.3,2.15-.67.74-.41,1.39-1.2,2.2-1.45,1.48-.44,2.72,1.2,3.87,1.86,1.39.79,3.04.36,4.56.36,1.73,0,3.4.48,5.12.48.72,0,1.42-.13,2.08-.41.41-.18.8-.36,1.23-.48.39-.12.79-.19,1.18-.35.66-.26,1.24-.68,1.7-1.23.48-.59.79-1.32,1.32-1.87.58-.62,1.39-.73,2.16-.99.73-.25,1.41-.59,2.09-.94.74-.39,1.48-.83,2.28-1.09.68-.23,1.43-.27,2.1-.53.58-.23,1.01-.68,1.34-1.19.18-.29.34-.62.45-.94.13-.36.16-.74.34-1.09.03-.07,0-.13-.05-.17.03-.32.04-.63,0-.9-.19-1.02-1.17-1.7-1.47-2.68-.36-1.14-.05-2.35.18-3.47.22-1.04.33-1.94,0-2.97-.33-1.07-.66-2.15-.91-3.25-.12-.53-.04-1.06-.16-1.58-.09-.43-.36-.79-.67-1.09-.64-.63-1.4-1.08-1.81-1.91-.21-.43-.31-.9-.53-1.34-.19-.39-.43-.75-.71-1.09-.49-.6-1.05-1.29-1.85-1.46-.38-.08-.78-.08-1.17-.06-.2-.03-.4-.07-.61-.08-.29-.02-.59.02-.89.02-.69,0-1.34-.24-1.97-.49-.51-.2-1.04-.51-1.58-.58-.55-.08-1.08.1-1.58.29-1.12.44-2.15.6-3.12-.25-.5-.43-.95-1.09-1.66-1.17-.73-.09-1.38.46-1.91.89-.43.34-.86.69-1.39.86-.55.17-1.13.16-1.7.22-.92.09-1.75.43-2.41,1.09-.67.69-.81,1.61-1.36,2.37-.63.84-1.71,1.29-2.21,2.26-.16.31-.24.65-.24,1,0,.38.04.74-.22.99-.81.48-1.6,1.12-2.29,1.77-.76.73-1.14,1.47-1.45,2.46-.17.53-.39,1.04-.7,1.51-.28.42-.64.76-.89,1.19-.47.83-.58,1.79-1.02,2.63-.42.83-.99,1.63-1.15,2.56Zm.86,1.6c-1.2-1.63.59-3.4,1.03-5,.13-.48.25-.97.48-1.41.22-.42.53-.74.83-1.11.57-.73.84-1.55,1.13-2.41.29-.87.95-1.54,1.63-2.12.48-.41,1.04-.79,1.49-1.26,0,0,0,0,.02,0,.84-.2.59-1.08.68-1.72.17-1.26,1.62-1.79,2.31-2.71.55-.75.74-1.68,1.43-2.35.43-.42.96-.7,1.55-.82.57-.12,1.16-.08,1.74-.17.86-.13,1.49-.63,2.13-1.15.37-.3.8-.68,1.28-.79.47-.1.84.18,1.16.48.6.55,1.13,1.12,1.96,1.29.96.2,1.74-.27,2.63-.53,1.17-.36,2.21.45,3.32.78.48.13.97.22,1.47.16h.03c.02.06.06.12.14.11.82,0,1.81-.24,2.56.17.4.21.75.66,1.04,1,.33.39.63.81.84,1.27.36.77.48,1.54,1.05,2.19.55.63,1.54,1.09,1.8,1.91.16.49.06,1.05.18,1.55.11.47.23.93.36,1.39.14.51.27,1.02.43,1.52.16.49.37.99.4,1.52.07,1.02-.33,2.07-.48,3.07-.13.85-.13,1.76.2,2.57.33.83,1.14,1.44,1.4,2.29.16.53.07,1.14-.08,1.7-.03.1-.06.2-.1.31-.15.42-.38.81-.65,1.16-.58.74-1.24.86-2.1,1.04-1.6.35-2.93,1.24-4.41,1.91-1.22.56-2.66.63-3.52,1.77-.44.58-.76,1.25-1.25,1.79-.57.61-1.29.93-2.09,1.14-.72.19-1.34.54-2.05.79-.75.27-1.55.28-2.33.21-1.6-.15-3.14-.46-4.76-.43-.85.02-1.71.13-2.56.08-.73-.04-1.33-.36-1.9-.78-.94-.68-1.9-1.65-3.15-1.63-1.39.02-2.39,1.39-3.68,1.8-.49.15-1.23.4-1.71.15-.19-.1-.3-.28-.4-.46,0-.04,0-.08-.06-.11l-.02-.02c-.03-.05-.06-.11-.1-.16-.11-.15-.33-.33-.43-.53,0,0,0-.02,0-.03-.03-.07-.05-.13-.03-.2,0-.07-.02-.12-.06-.15-.08-.42-.08-.87-.13-1.24-.17-1.11-.79-2.07-.46-3.22.25-.89.94-1.75.9-2.71-.03-.78-.62-1.29-1.05-1.88Z"/><path class="cls-1" d="m884.75,185.72c-.43,1.6-2.23,3.37-1.03,5,.43.59,1.03,1.1,1.05,1.88.03.97-.65,1.82-.9,2.71-.33,1.15.29,2.11.46,3.22.06.38.06.83.13,1.24.04.03.07.08.06.15-.02.07,0,.13.03.2,0,0,0,.02,0,.03.1.19.33.38.43.53.04.05.08.11.1.16l.02.02c.05.03.06.07.06.11.1.18.21.36.4.46.48.25,1.22,0,1.71-.15,1.29-.4,2.29-1.78,3.68-1.8,1.25-.03,2.21.95,3.15,1.63.58.42,1.18.74,1.9.78.85.05,1.71-.06,2.56-.08,1.62-.03,3.17.28,4.76.43.79.08,1.58.06,2.33-.21.7-.24,1.33-.59,2.05-.79.79-.21,1.52-.53,2.09-1.14.49-.53.81-1.21,1.25-1.79.87-1.14,2.31-1.21,3.52-1.77,1.48-.68,2.81-1.56,4.41-1.91.87-.18,1.53-.31,2.1-1.04.28-.35.5-.74.65-1.16.04-.11.08-.21.1-.31.15-.56.24-1.16.08-1.7-.26-.85-1.07-1.46-1.4-2.29-.33-.81-.33-1.72-.2-2.57.14-.99.54-2.05.48-3.07-.03-.53-.24-1.03-.4-1.52-.17-.5-.29-1.01-.43-1.52-.13-.46-.25-.92-.36-1.39-.12-.5-.02-1.06-.18-1.55-.27-.82-1.25-1.29-1.8-1.91-.58-.65-.69-1.42-1.05-2.19-.22-.46-.51-.88-.84-1.27-.28-.34-.63-.79-1.04-1-.75-.41-1.75-.18-2.56-.17-.08,0-.13-.05-.14-.11h-.03c-.5.06-.99-.03-1.47-.16-1.1-.33-2.15-1.14-3.32-.78-.89.27-1.67.74-2.63.53-.84-.17-1.36-.74-1.96-1.29-.33-.3-.69-.58-1.16-.48-.48.1-.91.48-1.28.79-.64.53-1.27,1.03-2.13,1.15-.58.08-1.17.05-1.74.17-.58.12-1.12.4-1.55.82-.68.67-.88,1.6-1.43,2.35-.68.93-2.14,1.45-2.31,2.71-.09.64.16,1.52-.68,1.72,0,0,0,0-.02,0-.44.47-1,.85-1.49,1.26-.68.58-1.34,1.25-1.63,2.12-.28.86-.56,1.68-1.13,2.41-.29.37-.61.69-.83,1.11-.23.44-.35.93-.48,1.41Z"/><path class="cls-1" d="m871.65,119.93c-.39,1.34.57,2.43.55,3.73,0,.68-.13,1.37.03,2.05.13.6.45,1.18.76,1.7.61,1.04,1.39,1.92,2.53,2.36.67.26,1.38.41,2.1.41s1.5-.27,2.26-.22c.74.04,1.43.16,2.17,0,.77-.18,1.51-.47,2.28-.65.73-.18,1.43-.29,2.13-.58.71-.29,1.42-.58,2.16-.8.39-.13.8-.23,1.19-.38.33-.13.61-.37.95-.43.02,0,.03,0,.06,0,.41.08.82.16,1.23.23.24.08.48.14.71.17.04,0,.08-.02.1-.03.4.07.81.13,1.21.16.57.05,1.14.05,1.71-.03.59-.08,1.18-.33,1.78-.35.55-.02,1.02.2,1.53.38.52.18,1.06.27,1.6.34,1.17.15,2.38.28,3.5.68.94.33,1.58,1.09,2.14,1.89.47.65.99,1.11,1.74,1.44.74.33,1.55.53,2.23.99.8.54.81,1.37,1.14,2.19.25.64.68,1.15,1.34,1.43.94.4,1.96.19,2.95.38.92.19,1.52.91,2.26,1.44.84.61,1.75,1.12,2.6,1.72.84.61,1.71,1.29,1.98,2.35.22.89.25,1.74.86,2.46.58.68,1.4,1.08,2.06,1.66.7.61,1.32,1.34,2.18,1.75,1.58.75,3.44.33,4.81-.68.73-.53,1.28-1.22,1.79-1.95.23-.34.45-.76.68-1.15.03.06.1.1.16.03.79-.94,2-1.9,2.15-3.21.1-.85-.31-1.64-.57-2.43-.34-1.05-.14-2.06-.24-3.14-.14-1.61-1.08-3.02-1.98-4.32-.51-.74-.96-1.5-1.34-2.31-.39-.83-.76-1.7-.79-2.62-.04-.91-.11-1.8-.18-2.71-.07-.92-.03-1.83-.03-2.75,0-1.29-.16-2.76-.61-3.98-.18-.46-.42-.9-.81-1.21-.51-.38-1.14-.39-1.74-.47-.94-.13-1.95-.23-2.7-.86-.56-.48-1.01-1.07-1.61-1.5-1.24-.89-2.75-1.13-4.22-1.29-.94-.11-1.6-.4-2.02-1.29-.33-.7-.63-1.47-.86-2.22,0-.48.05-.96.08-1.47.03-.89.08-1.86-.52-2.58-.53-.63-1.44-.6-1.96-1.22-.48-.57-.82-1.24-1.23-1.85-.65-.99-1.55-2.15-2.85-2.2-.82-.03-1.54.45-2.26.77-.87.38-1.8.51-2.73.69-.98.21-1.95.43-2.94.59-.81.13-1.69.09-2.47.37-.69.25-1.18.76-1.7,1.27-.31.3-.64.56-1.09.61-.48.05-.99-.05-1.46-.14-.89-.18-1.79-.44-2.71-.37-.87.07-1.61.53-2.46.7-1.03.21-2.12-.12-3.17-.06-.81.05-1.63.2-2.42.42s-1.58.51-2.29.93c-.72.42-1.07,1.06-1.63,1.64-.94.98-3.3.53-3.58,2.21,0,.05.02.08.03.13-.53,1.34-.58,2.86-1.38,4.12-.43.68-1.1,1.13-1.6,1.75-.5.65-.73,1.46-1.16,2.15-.72,1.14-2.03,1.83-2.42,3.18Zm.8,2.42c-.24-.6-.49-1.24-.43-1.9.07-.73.51-1.32.99-1.83.45-.48.95-.9,1.33-1.43.43-.58.65-1.25,1-1.87.35-.61.89-1.01,1.37-1.51.42-.44.72-.94.95-1.5.48-1.15.6-2.38.93-3.58,0,0,.02,0,.02-.02.25-.96,1.51-1.05,2.31-1.28.83-.23,1.27-.74,1.8-1.39.6-.76,1.48-1.14,2.38-1.45.89-.31,1.83-.51,2.77-.59.95-.08,1.89.1,2.84.09.85,0,1.57-.38,2.37-.62.94-.28,1.9-.06,2.83.15.74.16,1.63.39,2.38.18.63-.18,1.05-.69,1.5-1.14.6-.58,1.23-.82,2.05-.9,1.85-.18,3.67-.59,5.49-.97.76-.15,1.48-.38,2.18-.74.78-.38,1.55-.7,2.36-.21,1.09.66,1.63,2,2.31,3.02.32.48.65.96,1.19,1.21.31.15.65.22.94.39.43.27.56.78.62,1.25.13,1.13-.11,2.51.39,3.57.16.48.35.97.57,1.42.33.68.84,1.23,1.59,1.44.81.23,1.69.2,2.52.38.85.17,1.69.46,2.41.99.62.45,1.08,1.09,1.69,1.56.6.46,1.29.62,2.03.74.7.12,1.65.03,2.25.46.47.33.68.91.83,1.44.41,1.47.48,2.96.46,4.48-.02.92.06,1.83.15,2.75.08.79.02,1.6.17,2.38.32,1.59,1.26,3.17,2.17,4.48.99,1.42,1.91,2.92,1.9,4.7,0,.86-.06,1.65.21,2.49.23.76.67,1.53.6,2.35-.08.88-.69,1.51-1.24,2.18-.63.27-1.05,1.01-1.45,1.54-.69.94-1.32,1.85-2.34,2.46-.95.56-2.09.86-3.18.62-1.14-.26-1.87-1.11-2.71-1.86-.66-.59-1.5-.99-2.08-1.66-.7-.8-.56-1.85-.95-2.77-.33-.79-1-1.37-1.66-1.86-.79-.59-1.64-1.1-2.47-1.63-.76-.48-1.43-1.14-2.25-1.53-.79-.38-1.65-.31-2.49-.39-1.1-.12-1.87-.58-2.23-1.65-.25-.74-.36-1.41-.96-1.95-1.21-1.09-2.99-1.14-3.98-2.51-.48-.67-.98-1.34-1.67-1.8-.79-.53-1.79-.7-2.7-.85-.99-.18-2.02-.21-2.99-.49-.83-.24-1.5-.58-2.39-.43-.61.11-1.17.3-1.79.33-.52.03-1.04,0-1.55-.06-.64-.08-1.28-.18-1.92-.28-.36-.15-.73-.27-1.14-.22-.05,0-.1.02-.15.03,0,0-.03,0-.03,0-.08,0-.14.03-.18.08-.17.07-.32.16-.48.24-.35.18-.74.28-1.12.41-.8.26-1.58.54-2.35.87-.75.33-1.52.45-2.31.65-.77.19-1.5.49-2.27.67-.74.18-1.4,0-2.13-.03-.74-.03-1.44.23-2.16.23-.75,0-1.55-.2-2.22-.53-1.09-.56-1.86-1.73-2.36-2.81-.58-1.29.03-2.67-.51-3.97Z"/><path class="cls-1" d="m872.02,120.46c-.06.66.19,1.29.43,1.9.53,1.29-.08,2.68.51,3.97.49,1.09,1.26,2.26,2.36,2.81.68.33,1.47.53,2.22.53.73,0,1.43-.25,2.16-.23.73.03,1.39.2,2.13.03.77-.18,1.5-.48,2.27-.67.79-.2,1.55-.33,2.31-.65.77-.33,1.55-.61,2.35-.87.38-.13.77-.23,1.12-.41.17-.08.32-.18.48-.24.04-.06.1-.09.18-.08,0,0,.03,0,.03,0,.05-.02.1-.03.15-.03.41-.05.78.07,1.14.22.64.11,1.28.21,1.92.28.51.06,1.03.08,1.55.06.62-.03,1.18-.23,1.79-.33.89-.15,1.56.19,2.39.43.97.28,2,.32,2.99.49.91.15,1.91.33,2.7.85.69.46,1.19,1.13,1.67,1.8.99,1.37,2.76,1.43,3.98,2.51.6.53.71,1.21.96,1.95.36,1.06,1.13,1.53,2.23,1.65.84.08,1.7.02,2.49.39.82.38,1.49,1.04,2.25,1.53.84.53,1.68,1.04,2.47,1.63.66.49,1.33,1.08,1.66,1.86.39.93.25,1.97.95,2.77.58.67,1.42,1.07,2.08,1.66.84.75,1.56,1.6,2.71,1.86,1.09.24,2.23-.06,3.18-.62,1.02-.61,1.65-1.53,2.34-2.46.39-.53.81-1.27,1.45-1.54.54-.67,1.16-1.3,1.24-2.18.07-.82-.37-1.59-.6-2.35-.27-.84-.22-1.63-.21-2.49.02-1.79-.9-3.28-1.9-4.7-.91-1.31-1.85-2.89-2.17-4.48-.15-.78-.09-1.6-.17-2.38-.09-.92-.17-1.83-.15-2.75.02-1.52-.05-3.01-.46-4.48-.14-.53-.36-1.11-.83-1.44-.59-.43-1.55-.34-2.25-.46-.74-.12-1.43-.28-2.03-.74-.61-.48-1.07-1.11-1.69-1.56-.72-.53-1.55-.82-2.41-.99-.84-.18-1.71-.15-2.52-.38-.74-.21-1.26-.75-1.59-1.44-.22-.45-.41-.94-.57-1.42-.5-1.06-.26-2.44-.39-3.57-.06-.48-.19-.99-.62-1.25-.28-.18-.63-.24-.94-.39-.53-.25-.87-.73-1.19-1.21-.68-1.03-1.23-2.36-2.31-3.02-.81-.49-1.59-.18-2.36.21-.7.35-1.42.58-2.18.74-1.82.38-3.63.79-5.49.97-.82.08-1.45.33-2.05.9-.45.44-.88.95-1.5,1.14-.75.22-1.64-.02-2.38-.18-.94-.21-1.89-.43-2.83-.15-.8.23-1.52.62-2.37.62-.95,0-1.89-.17-2.84-.09-.94.08-1.88.28-2.77.59-.9.32-1.78.69-2.38,1.45-.53.65-.97,1.15-1.8,1.39-.79.23-2.05.32-2.31,1.28,0,0,0,0-.02.02-.33,1.19-.45,2.42-.93,3.58-.23.56-.53,1.06-.95,1.5-.48.5-1.02.9-1.37,1.51-.35.62-.58,1.29-1,1.87-.38.53-.88.95-1.33,1.43-.48.51-.93,1.1-.99,1.83Z"/><path class="cls-1" d="m824.91,111.56c-.25,1.15.64,2.04.78,3.13.11.91.05,1.9.58,2.7.39.59,1.02.82,1.71.79.93-.04,1.68-.43,2.5-.83.56-.28,1.1-.44,1.73-.35.48.08.93.14,1.41.07,1.14-.17,2.08-.64,3.07-1.19.57-.32,1.2-.59,1.75-.05.3.3.48.7.78,1.01.66.68,1.48,1.32,2.41,1.51.89.18,1.55-.28,2.36-.53,1.02-.33,1.53.35,2.24.94.69.56,1.47.57,2.33.61.72.03,1.33.18,1.97.52.43.23.85.48,1.31.67.48.2.97.31,1.49.25.43-.05.84-.2,1.27-.28,1.07-.2,2.16.44,3.19,0,.82-.34,1.23-1.16,1.8-1.79,1.26-1.39,2.94-2.88,3.38-4.79.31-.62.54-1.27.61-1.98.11-1.19-.25-2.16-.89-3.13-.37-.55-.69-1.09-.89-1.73-.19-.58-.3-1.19-.51-1.78-.36-1-1-1.77-1.88-2.37-.42-.29-.86-.56-1.16-.98-.26-.37-.41-.79-.65-1.17-.49-.76-1.1-1.21-2.01-1.35-.57-.09-1.15-.08-1.73-.09-.56,0-1.04-.13-1.59-.23-.98-.18-1.46.46-2.26.88-.49.26-1.2.24-1.62-.18-.29-.31-.32-.81-.38-1.2-.07-.42-.15-.85-.37-1.22-.2-.34-.55-.49-.79-.79-.22-.27-.18-.69-.3-1.01-.11-.27-.26-.51-.45-.71-.44-.47-1.07-.71-1.7-.84-1.51-.31-3.05.03-4.56-.22-.92-.15-1.75-.13-2.46.56-.29.29-.53.65-.85.92-.46.38-1.04.42-1.6.31-.98-.19-1.8-.46-2.74.02-.9.45-1.6,1.24-2.21,2.01s-1.44,1.39-1.96,2.22c-.26.39-.43.84-.49,1.3-.03.13-.04.25-.06.36t0,0c-.15.28-.23.58-.3.87-.03.05-.04.1-.04.14-.06.26-.13.51-.23.76-.2.47-.34.9-.28,1.42.09.71.24,1.35.2,2.07-.03.58-.09,1.23-.28,1.79-.38,1.06-1.34,1.83-1.58,2.96Zm.73,1.56c-.25-.53-.43-1.03-.23-1.6.15-.48.46-.91.74-1.32.53-.79.89-1.53,1.07-2.47.19-.98.18-1.89.02-2.87-.12-.66.14-1.09.36-1.68.08-.22.11-.43.13-.65.19-.29.28-.58.33-.95.08-.55.23-1.04.56-1.5.33-.44.77-.77,1.14-1.17.39-.42.72-.88,1.09-1.31.77-.89,1.76-1.79,3.01-1.57.97.16,1.9.51,2.81-.09.65-.43.97-1.29,1.73-1.56.58-.21,1.24-.03,1.83.06.38.05.74.05,1.11.02,1.29-.09,2.85-.28,4,.41.67.39.79.94.96,1.63.07.27.21.41.43.58.41.32.66.63.78,1.15.14.67.05,1.47.59,1.98.51.48,1.34.58,1.95.29.4-.19.73-.49,1.09-.74.53-.35.99-.25,1.58-.13,1.04.23,2.1-.05,3.14.22,1.09.28,1.39,1.17,1.87,2.07.4.74,1.1,1.11,1.75,1.6.87.68,1.29,1.64,1.55,2.67.26,1,.57,1.9,1.14,2.76.62.94,1.01,1.8.94,2.94-.06,1.09-.53,2.08-1.01,3.04-.03.04-.02.08,0,.12-.33.54-.69,1.06-1.13,1.56-.69.81-1.5,1.51-2.18,2.34-.29.36-.6.77-1.02.99-.63.33-1.34.13-2,.03-.53-.08-1.02-.05-1.54.07-.55.13-1.07.3-1.64.18-1.02-.21-1.85-.94-2.85-1.2-.92-.23-2.08.06-2.91-.45-.58-.36-.97-.98-1.63-1.24-.75-.28-1.45.03-2.14.32-.48.19-.93.3-1.44.15-.49-.15-.94-.44-1.33-.77-.38-.31-.73-.66-1.02-1.05-.21-.28-.4-.58-.69-.76-.78-.51-1.53-.17-2.25.23-.99.55-2.11,1.13-3.28,1.09-.55-.02-1.04-.2-1.6-.13-.37.06-.72.18-1.05.33-.85.39-1.63.89-2.61.87-1.04-.03-1.35-.97-1.46-1.88-.06-.48-.08-.96-.2-1.44-.11-.42-.31-.79-.49-1.17Z"/><path class="cls-1" d="m825.4,111.52c-.19.58-.02,1.08.23,1.6.18.38.38.75.49,1.17.12.48.14.96.2,1.44.11.91.42,1.85,1.46,1.88.98.02,1.75-.48,2.61-.87.33-.15.68-.28,1.05-.33.55-.08,1.04.11,1.6.13,1.17.04,2.29-.53,3.28-1.09.72-.4,1.47-.74,2.25-.23.29.18.48.48.69.76.29.39.64.74,1.02,1.05.38.33.84.62,1.33.77.51.15.96.04,1.44-.15.69-.28,1.39-.6,2.14-.32.66.26,1.04.88,1.63,1.24.83.51,1.99.22,2.91.45,1,.26,1.83.99,2.85,1.2.57.13,1.09-.05,1.64-.18.52-.12,1-.15,1.54-.07.66.1,1.37.31,2-.03.42-.23.73-.63,1.02-.99.68-.83,1.49-1.53,2.18-2.34.43-.5.79-1.02,1.13-1.56-.02-.03-.03-.08,0-.12.48-.96.95-1.95,1.01-3.04.07-1.14-.33-2-.94-2.94-.57-.86-.88-1.75-1.14-2.76-.27-1.04-.68-2-1.55-2.67-.64-.49-1.34-.86-1.75-1.6-.48-.9-.78-1.79-1.87-2.07-1.04-.27-2.1,0-3.14-.22-.58-.13-1.04-.23-1.58.13-.36.24-.68.54-1.09.74-.62.28-1.45.18-1.95-.29-.54-.51-.45-1.31-.59-1.98-.12-.53-.37-.84-.78-1.15-.22-.17-.36-.31-.43-.58-.18-.69-.29-1.24-.96-1.63-1.15-.68-2.71-.5-4-.41-.37.03-.74.03-1.11-.02-.58-.08-1.24-.27-1.83-.06-.76.28-1.08,1.14-1.73,1.56-.9.6-1.84.25-2.81.09-1.24-.22-2.24.68-3.01,1.57-.37.43-.69.89-1.09,1.31-.37.4-.81.73-1.14,1.17-.33.46-.48.94-.56,1.5-.05.38-.14.66-.33.95-.03.22-.06.43-.13.65-.22.59-.48,1.02-.36,1.68.17.98.18,1.89-.02,2.87-.18.94-.53,1.68-1.07,2.47-.28.41-.59.84-.74,1.32Z"/><path class="cls-1" d="m771.44,136.53c-.03.78.06,1.56.04,2.35-.02.69,0,1.41.27,2.06.29.68.87,1.18,1.2,1.83.35.71.35,1.54.7,2.24.3.61.84,1.04,1.43,1.35.66.35,1.35.61,1.99,1.02.62.4,1.18.79,1.89.98,1.33.35,2.76.15,3.92-.58.69-.43,1.33-.94,2.02-1.38.63-.4,1.12-1.09,1.83-1.34.75-.28,1.6-.12,2.31-.56.57-.36.86-.95,1.14-1.55.63-1.33,1.35-2.61,2.83-3.11.79-.26,1.54-.42,2.25-.87.67-.42,1.33-.92,1.91-1.45.5-.45.94-.97,1.37-1.49.09.03.21,0,.22-.12.02-.08.04-.15.07-.22,0,0,0-.02.02-.03.23-.27.43-.53.62-.81.2-.21.38-.42.48-.66.46-1.11-.02-2.56-.91-3.32-.42-.35-.91-.58-1.41-.75-.74-.26-1.46-.26-2.22-.36-.72-.09-1.29-.63-2.02-.62-.61,0-1.17.28-1.75.45-.82.25-1.38.13-1.8-.67-.34-.63-.65-1.18-1.33-1.51-.59-.29-1.25-.24-1.85-.48-.56-.21-.84-.7-1.15-1.17-.7-1.06-1.65-1.46-2.91-1.42-1.32.05-2.69.34-3.98.6-1.14.23-2.2.81-2.54,2-.13.42-.1.84-.15,1.26-.05.48-.27.89-.53,1.28-.44.68-.98,1.29-1.44,1.95-.41.61-.44,1.16-.45,1.87-.02.85-.68,1.04-1.26,1.5-.53.43-.77,1.03-.79,1.7Zm.69,2.26c.03-.76-.08-1.51-.04-2.26.03-.87.52-1.17,1.16-1.61.46-.32.81-.69.87-1.28.08-.69-.04-1.24.38-1.85.43-.61.91-1.18,1.33-1.79.44-.65.69-1.25.74-2.05.04-.73.21-1.4.84-1.85.89-.62,2.21-.68,3.26-.87,1.2-.23,2.92-.64,3.89.34.66.67.95,1.58,1.91,1.9.62.22,1.29.16,1.87.48.72.4.85,1.14,1.34,1.73.77.91,1.83.47,2.78.16.3-.1.63-.21.95-.2.38,0,.7.2,1.03.35.64.29,1.28.27,1.96.34,1.22.13,2.58.74,3.02,1.96.17.47.23.99.13,1.46-.38.63-.96,1.17-1.42,1.73-.99,1.2-2.12,2.25-3.45,3.07-.69.43-1.46.53-2.21.84-.55.23-1.05.57-1.46,1-.41.44-.73.95-1.01,1.49-.29.56-.51,1.2-.89,1.7-.55.7-1.39.62-2.19.78-.63.12-1.12.48-1.6.9-.58.5-1.23.88-1.84,1.33-.6.44-1.21.9-1.94,1.13-1.44.44-2.78.08-3.99-.74-.58-.38-1.16-.67-1.79-.95-.64-.3-1.3-.68-1.62-1.34-.31-.66-.33-1.43-.63-2.1-.27-.61-.73-1.07-1.06-1.63-.4-.66-.38-1.45-.34-2.19Z"/><path class="cls-1" d="m772.1,136.53c-.03.75.07,1.5.04,2.26-.03.74-.06,1.53.34,2.19.33.56.79,1.02,1.06,1.63.31.67.33,1.44.63,2.1.32.67.98,1.04,1.62,1.34.63.28,1.21.58,1.79.95,1.21.81,2.56,1.18,3.99.74.73-.23,1.34-.68,1.94-1.13.61-.45,1.26-.83,1.84-1.33.48-.42.96-.79,1.6-.9.79-.16,1.64-.08,2.19-.78.38-.5.6-1.14.89-1.7.28-.53.6-1.04,1.01-1.49.41-.43.91-.78,1.46-1,.74-.3,1.51-.4,2.21-.84,1.33-.83,2.46-1.87,3.45-3.07.46-.56,1.04-1.1,1.42-1.73.09-.48.03-.99-.13-1.46-.44-1.22-1.8-1.83-3.02-1.96-.68-.08-1.32-.05-1.96-.34-.33-.15-.65-.35-1.03-.35-.33,0-.65.1-.95.2-.95.31-2.01.75-2.78-.16-.48-.58-.62-1.33-1.34-1.73-.58-.33-1.25-.27-1.87-.48-.96-.33-1.25-1.24-1.91-1.9-.98-.99-2.69-.58-3.89-.34-1.04.19-2.36.25-3.26.87-.63.44-.8,1.12-.84,1.85-.05.79-.3,1.39-.74,2.05-.42.61-.9,1.18-1.33,1.79-.43.62-.31,1.16-.38,1.85-.06.58-.41.96-.87,1.28-.64.44-1.13.74-1.16,1.61Z"/><path class="cls-1" d="m776.39,186.21c-.97,1.39-.33,2.72.53,3.95,1.04,1.5,1.89,3.17,2.26,4.97.16.76.27,1.5.91,2.01.58.47,1.34.68,1.98,1.06.72.42,1.43,1.02,2.28,1.14.93.13,1.73-.38,2.63-.43.62-.03.84.33.94.88.1.58.12,1.17.2,1.75.12.74.28,1.5.64,2.16.38.68.96.94,1.5,1.45.51.48.53,1.26.63,1.9.1.64.35,1.1.91,1.45.58.35,1.24.51,1.88.74.78.27,1.29.69,1.71,1.39.53.85,1.25,2.14,2.37,2.25,1.57.16,1.82-1.89,2.63-2.75,1.14-1.23,2.5-2.22,3.72-3.36.53-.49,1.03-1.06,1.32-1.74.28-.67.33-1.41.43-2.13.12-.93.33-1.7.96-2.42.24-.28.5-.53.72-.82.23-.33.38-.68.56-1.02.37-.71.88-1.07,1.68-.94.56.1,1.11.29,1.68.29,1.4,0,1.44-1.37,1.31-2.45-.08-.74-.12-1.44-.4-2.13-.38-.9-.71-1.81-1.06-2.72-.33-.85-.87-1.6-1.15-2.47-.18-.59-.3-1.24-.33-1.86-.02-.48.02-1.13.5-1.38.64-.33,1.27.23,1.92.13.37-.06.58-.34.93-.48.41-.16.85-.16,1.29-.16.67,0,1.4.12,2-.24.61-.36.68-1.04,1.13-1.5.56-.6,1.62-.38,2.31-.15.75.24,1.47.64,2.09,1.13.48.38.94.83,1.53,1.05,1.43.56,2.03-1.07,2.71-1.97.52-.69,1.12-1.33,1.6-2.05.45-.67.68-1.35.78-2.16.12-.92.21-1.8.47-2.7.24-.83.52-1.68.48-2.55,0-.24-.06-.47-.13-.68.06-.08.07-.2-.03-.29-.06-.05-.12-.11-.18-.16-.12-.2-.26-.39-.44-.57-.2-.18-.43-.35-.64-.52-.18-.19-.35-.38-.52-.57-.55-.64-.9-1.39-1.32-2.13-.44-.81-.92-1.65-.99-2.59-.06-.64,0-1.29-.34-1.86-.58-.99-1.81-.94-2.78-.68-.85.23-1.65.73-2.56.63-.37-.04-.68,0-1,.18-.29.17-.53.34-.88.39-.65.11-1.34.18-1.83-.35-.41-.45-.67-1.02-1.19-1.36-1.29-.86-2.96.02-4.05.78-.63.43-1.16.91-1.59,1.55-.32.47-.61,1.4-1.17,1.61-.28.1-.64.05-.94.05-.43,0-.88.03-1.31.08-.92.1-1.81.28-2.72.41-1.74.25-3.84-.16-5.4.83-1.17.73-1.75,2.06-2.82,2.92-1.31,1.04-2.75,1.81-3.74,3.2-.89,1.22-1.67,2.69-1.93,4.18-.25,1.45-.84,2.59-2.17,3.29-.63.33-1.47.74-2.2.78-.68.03-1.17-.68-1.8-.85-1.19-.34-2.72.03-3.67.8-.61.5-.88,1.25-1.25,1.92-.41.72-1.07,1.23-1.55,1.9Zm.23,2.15c-.3-.89.12-1.66.71-2.31.53-.58.99-1.11,1.34-1.81.37-.71.7-1.33,1.44-1.7.62-.32,1.35-.48,2.05-.43.36.03.69.11.99.3.28.18.52.4.82.54.59.26,1.23.08,1.81-.12.63-.22,1.29-.46,1.85-.82,1.09-.68,1.72-1.78,1.97-3.02.14-.73.28-1.41.58-2.1.31-.72.71-1.41,1.16-2.05.97-1.4,2.39-2.19,3.71-3.2.55-.43,1-.9,1.44-1.45.4-.52.81-1.07,1.35-1.44.75-.49,1.7-.57,2.57-.62.94-.06,1.87-.07,2.81-.21.9-.14,1.8-.32,2.7-.4.68-.06,1.43.06,2.09-.12.53-.13.82-.54,1.08-.99.41-.69.78-1.39,1.4-1.91,1.02-.84,2.98-2.17,4.16-.94.41.43.66.98,1.14,1.33.48.35,1.11.33,1.68.27.27-.03.54-.05.79-.13.3-.11.53-.35.83-.45.38-.13.82.03,1.23-.03.42-.08.81-.23,1.21-.38.98-.36,2.65-.89,3.03.5.21.74.08,1.5.33,2.24.24.75.65,1.44,1.03,2.12.38.69.74,1.37,1.25,1.97.48.55,1.03.99,1.58,1.45.19.35.28.74.27,1.23-.05.91-.4,1.78-.63,2.65-.21.83-.21,1.67-.35,2.51-.3,1.71-1.77,2.82-2.66,4.23-.35.55-.75,1.45-1.56,1.21-.59-.18-1.08-.69-1.55-1.06-1.04-.8-2.47-1.51-3.81-1.39-.56.05-1.09.27-1.4.75-.18.26-.28.57-.46.83-.28.39-.68.53-1.14.53-.73.03-1.46-.1-2.17.08-.35.09-.57.27-.87.43-.38.23-.74,0-1.13-.08-2.83-.58-1.94,3.52-1.29,4.89.4.85.79,1.66,1.09,2.56.28.82.77,1.61.95,2.46.15.69.23,1.54.2,2.25-.03.71-.43.92-1.09.84-1.11-.13-2.21-.67-3.1.32-.5.54-.68,1.27-1.16,1.83-.47.54-.97,1.02-1.25,1.7-.6,1.45-.22,3.13-1.29,4.41-.94,1.14-2.26,1.98-3.37,2.96-.63.55-1.33,1.13-1.7,1.89-.28.57-.51,1.57-1.24,1.72-.54.11-1.05-.46-1.37-.83-.38-.45-.68-.95-1.04-1.42-.89-1.14-2.23-1.15-3.42-1.8-.79-.43-.78-1.07-.93-1.85-.09-.53-.23-1.04-.61-1.44-.26-.28-.59-.47-.86-.73s-.47-.58-.63-.9c-.33-.69-.43-1.5-.53-2.25-.09-.82,0-2.09-.89-2.51-.53-.26-1.16-.09-1.69.06-.48.13-1,.31-1.52.26-.48-.05-.93-.32-1.34-.58-.68-.42-1.34-.78-2.05-1.14-.38-.19-.77-.4-.99-.78-.2-.35-.23-.78-.3-1.17-.3-1.71-1.09-3.39-2.05-4.83-.42-.62-.94-1.22-1.19-1.93Z"/><path class="cls-1" d="m777.32,186.04c-.59.65-1.01,1.42-.71,2.31.24.71.77,1.31,1.19,1.93.97,1.44,1.75,3.12,2.05,4.83.07.39.1.82.3,1.17.22.38.61.58.99.78.71.36,1.38.72,2.05,1.14.41.26.85.53,1.34.58.52.05,1.04-.13,1.52-.26.53-.15,1.16-.32,1.69-.06.89.43.79,1.7.89,2.51.09.75.2,1.55.53,2.25.16.33.36.64.63.9s.6.44.86.73c.38.4.52.9.61,1.44.15.79.14,1.43.93,1.85,1.19.64,2.53.65,3.42,1.8.37.47.66.97,1.04,1.42.32.37.83.94,1.37.83.73-.15.96-1.15,1.24-1.72.38-.76,1.08-1.34,1.7-1.89,1.11-.98,2.43-1.82,3.37-2.96,1.08-1.28.69-2.96,1.29-4.41.28-.68.79-1.15,1.25-1.7.48-.56.66-1.29,1.16-1.83.89-.99,1.99-.45,3.1-.32.66.08,1.06-.13,1.09-.84.03-.71-.05-1.55-.2-2.25-.18-.84-.68-1.64-.95-2.46-.3-.89-.69-1.7-1.09-2.56-.64-1.37-1.54-5.46,1.29-4.89.38.08.74.31,1.13.08.3-.17.52-.34.87-.43.71-.18,1.45-.06,2.17-.08.47,0,.87-.14,1.14-.53.18-.26.28-.57.46-.83.32-.48.84-.7,1.4-.75,1.34-.12,2.77.59,3.81,1.39.48.37.96.88,1.55,1.06.81.24,1.21-.66,1.56-1.21.89-1.41,2.36-2.52,2.66-4.23.14-.84.14-1.68.35-2.51.23-.87.58-1.74.63-2.65.02-.48-.08-.88-.27-1.23-.55-.46-1.1-.9-1.58-1.45-.52-.6-.87-1.28-1.25-1.97-.38-.68-.79-1.37-1.03-2.12-.25-.74-.12-1.5-.33-2.24-.38-1.39-2.05-.86-3.03-.5-.4.15-.79.3-1.21.38-.41.07-.85-.1-1.23.03-.3.1-.53.34-.83.45-.25.08-.53.11-.79.13-.57.06-1.19.08-1.68-.27-.48-.35-.73-.9-1.14-1.33-1.18-1.23-3.14.11-4.16.94-.63.52-.99,1.22-1.4,1.91-.26.44-.55.85-1.08.99-.66.18-1.41.06-2.09.12-.9.08-1.8.26-2.7.4-.94.14-1.87.15-2.81.21-.87.05-1.82.13-2.57.62-.54.37-.95.92-1.35,1.44-.43.54-.89,1.02-1.44,1.45-1.32,1.01-2.74,1.8-3.71,3.2-.45.64-.85,1.34-1.16,2.05-.3.68-.43,1.37-.58,2.1-.25,1.24-.89,2.33-1.97,3.02-.57.36-1.22.6-1.85.82-.58.2-1.22.38-1.81.12-.3-.14-.54-.37-.82-.54-.29-.19-.63-.28-.99-.3-.69-.04-1.43.12-2.05.43-.74.38-1.07.99-1.44,1.7-.35.7-.82,1.24-1.34,1.81Z"/></svg>