<?xml version="1.0" encoding="UTF-8"?><svg id="Tree_07_-_Leaves_01" xmlns="http://www.w3.org/2000/svg" viewBox="0 0 1160 418.25"><defs><style>.cls-1{fill:#8fb223;stroke-width:0px;}</style></defs><path class="cls-1" d="m560.48,224.54c.19,1.19-.32,2.42-.86,3.45-.92,1.76-2.45,3.11-4.39,3.57-1.99.48-4.29.18-6.19-.51-.9-.33-2.31-1.34-3.25-.58-.31.26-.46.72-.66,1.06-.25.41-.55.79-.91,1.1-1.7,1.43-4.11,1.57-6.16,2.19-1.28.38-2.48.98-3.76,1.37-1.35.4-2.75.59-4.15.36-1.34-.22-2.58-.83-3.83-1.32-1.26-.49-2.67-1.01-4.04-.74-1.1.22-2.03.91-3,1.43-1.07.56-2.15.87-3.36.89-2.09.04-4.61-.49-5.97-2.22-.66-.84-1.08-1.91-1.48-2.89-.4-1.01-.78-2.08-.84-3.17-.04-.64.16-1.25.14-1.88-.03-.65-.37-1.05-.72-1.56-.58-.83-.61-1.86-.38-2.82.36-1.49,1.39-2.33,2.66-2.8.54-.51,1.17-.87,1.99-1.01,1.04-.18,2.08-.03,3.13-.03,1.22,0,2.37-.27,3.49-.75,1.09-.48,2.14-1.04,3.27-1.4,1.4-.45,2.9-.49,4.36-.52,2.96-.04,5.82.53,8.76.81,1.32.12,2.69.17,3.99-.15,1.19-.28,2.21-.93,3.26-1.53,2.02-1.15,4.46-1.57,6.7-.75,2.12.78,3.5,2.65,5.42,3.75.95.54,2,.9,2.9,1.53,1.06.73,1.7,1.75,2.49,2.73.59.72,1.23,1.44,1.39,2.39Zm-2.15,2.7c.41-.79.96-1.91.57-2.81-.36-.84-1.16-1.53-1.69-2.26-.66-.92-1.42-1.55-2.44-2.06-.97-.48-1.95-.91-2.82-1.56-.84-.62-1.6-1.34-2.43-1.98-1.67-1.27-3.85-1.7-5.86-.99-.98.34-1.82.97-2.73,1.44-1.08.57-2.2.94-3.42,1.09-2.59.3-5.16-.33-7.72-.61-1.41-.15-2.81-.23-4.22-.21-1.33.02-2.68.05-3.95.46-2.21.7-4.08,2.04-6.47,2.19-1.01.06-2.01-.09-3.03-.04-.98.04-1.93.46-2.75.99-.14.09-.3.08-.45.02-.08.07-.17.13-.25.21-.52.5-.81,1.13-.85,1.85-.03.56.05.99.38,1.45.28.38.56.72.73,1.16.42,1.09-.02,2.16.18,3.26.19,1.06.58,2.09,1.03,3.06.38.85.77,1.77,1.55,2.34.8.58,1.82.87,2.8,1,1,.14,2.1.15,3.07-.17,1.01-.34,1.88-1,2.83-1.47,1.04-.5,2.12-.75,3.27-.63,1.28.13,2.48.59,3.66,1.07,1.22.49,2.47,1.07,3.8,1.12,1.32.06,2.6-.31,3.82-.76,1.12-.41,2.2-.9,3.36-1.2,1.01-.26,2.04-.45,3.04-.77.87-.27,1.79-.64,2.33-1.39.51-.7.74-1.53,1.55-1.97,1.05-.58,2.2-.32,3.25.12,1,.43,1.98.75,3.06.94,1.7.3,3.56.25,5.03-.77.77-.53,1.34-1.3,1.77-2.12Z"/><path class="cls-1" d="m558.9,224.43c.39.9-.16,2.02-.57,2.81-.43.82-1,1.59-1.77,2.12-1.47,1.02-3.33,1.07-5.03.77-1.08-.19-2.06-.51-3.06-.94-1.05-.44-2.2-.7-3.25-.12-.81.44-1.04,1.27-1.55,1.97-.54.75-1.46,1.12-2.33,1.39-1,.32-2.03.51-3.04.77-1.16.3-2.24.79-3.36,1.2-1.22.45-2.5.82-3.82.76-1.33-.05-2.58-.63-3.8-1.12-1.18-.48-2.38-.94-3.66-1.07-1.15-.12-2.23.13-3.27.63-.95.47-1.82,1.13-2.83,1.47-.97.32-2.07.31-3.07.17-.98-.13-2-.42-2.8-1-.78-.57-1.17-1.49-1.55-2.34-.45-.97-.84-2-1.03-3.06-.2-1.1.24-2.17-.18-3.26-.17-.44-.45-.78-.73-1.16-.33-.46-.41-.89-.38-1.45.04-.72.33-1.35.85-1.85.08-.08.17-.14.25-.21.15.06.31.07.45-.02.82-.53,1.77-.95,2.75-.99,1.02-.05,2.02.1,3.03.04,2.39-.15,4.26-1.49,6.47-2.19,1.27-.41,2.62-.44,3.95-.46,1.41-.02,2.81.06,4.22.21,2.56.28,5.13.91,7.72.61,1.22-.15,2.34-.52,3.42-1.09.91-.47,1.75-1.1,2.73-1.44,2.01-.71,4.19-.28,5.86.99.83.64,1.59,1.36,2.43,1.98.87.65,1.85,1.08,2.82,1.56,1.02.51,1.78,1.14,2.44,2.06.53.73,1.33,1.42,1.69,2.26Z"/><path class="cls-1" d="m539.72,126.93c.29,1.09.29,2.28-.24,3.3-.57,1.08-1.74,1.72-2.84,2.16-1.25.49-2.59.71-3.92.89-1.4.19-2.8.42-4.22.51-1.69.1-3.38.03-5.07-.06-1.68-.09-3.45-.4-5.12-.14-1.21.2-2.05.99-3.02,1.65-1.22.83-2.58,1.29-4.05,1.4-3.18.25-6.13-1.14-9.21-1.66-1.67-.29-3.42-.45-5.02-1.03-1.45-.52-2.68-1.59-4.15-2.03-1.27-.39-2.63.13-3.94-.03-1.11-.13-2.12-.66-2.68-1.66-.53-.94-.64-2.08-.61-3.15,0-.58.09-1.14.24-1.71.17-.6.15-.82-.25-1.35-.29-.4.29-.95.68-.68.02,0,.04.03.06.04-.08-.21-.17-.42-.27-.6-.24-.46-.55-.89-1.02-1.13-.51-.27-1.1-.39-1.6-.69-1.29-.77-1.28-2.15-1.07-3.46.22-1.45-.27-2.61-.8-3.94-.48-1.22-.86-2.55-.44-3.84.42-1.3,1.41-2.03,2.45-2.81.5-.37.98-.79,1.22-1.37.28-.64.28-1.38.41-2.06.27-1.39,1.17-2.53,2.46-3.1,1.18-.53,2.49-.55,3.77-.51,1.52.05,3-.05,4.52-.21,1.68-.17,3.27-.15,4.91.29,1.61.43,3.19.93,4.82,1.27,1.38.28,2.8.32,4.17.61,2.01.43,3.24,1.68,4.09,3.49.5,1.05.87,2.16,1.99,2.69.94.44,2.06.43,3.07.47,2.09.1,4.6.19,5.45,2.45.33.87.44,1.81.75,2.69.46,1.26,1.26,2.43,2.15,3.43.94,1.04,2.01,1.95,3.08,2.85,1.23,1.03,2.56,1.56,4.05,2.08,1.25.43,2.49.95,3.43,1.9.83.84,1.46,1.92,1.77,3.05Zm-1.57,2.61c1-1.84-.61-4.42-2.21-5.34-1.19-.68-2.56-.98-3.82-1.52-1.38-.59-2.48-1.52-3.6-2.5-1.98-1.7-3.81-3.67-4.71-6.17-.3-.84-.39-1.75-.7-2.59-.31-.82-.98-1.11-1.81-1.27-2.09-.42-4.52.11-6.41-1.1-1.02-.66-1.52-1.63-2-2.71-.36-.83-.78-1.7-1.47-2.31-.61-.54-1.4-.76-2.18-.9-1.36-.25-2.75-.32-4.11-.61-1.55-.34-3.07-.81-4.6-1.23-1.63-.44-3.2-.38-4.87-.2-1.44.16-2.84.21-4.28.17-1.21-.04-2.54-.07-3.58.64-1.32.89-1.13,2.28-1.51,3.64-.35,1.26-1.23,2.02-2.25,2.76-1.03.76-1.82,1.64-1.67,3.01.14,1.27.84,2.41,1.21,3.61.19.64.32,1.32.26,1.99-.05.64-.26,1.27-.23,1.92.06,1.33,1.61,1.34,2.46,2.01.99.77,1.52,2.4,1.33,3.8v.02c.13.48-.02.91-.14,1.38-.23.92-.2,2.1.11,3.01s1.05,1.32,1.98,1.35c1.29.05,2.55-.33,3.83.02,1.41.38,2.58,1.37,3.92,1.94,1.48.63,3.17.8,4.75,1.06,1.6.26,3.12.69,4.68,1.12,2.79.77,5.66,1.04,8.14-.69.92-.64,1.76-1.35,2.88-1.63,1.52-.37,3.17-.18,4.71-.07,1.62.12,3.24.2,4.86.18,1.46-.01,2.89-.2,4.34-.38,1.27-.16,2.53-.32,3.76-.66,1.03-.29,2.38-.75,2.93-1.75Z"/><path class="cls-1" d="m535.94,124.2c1.6.92,3.21,3.5,2.21,5.34-.55,1-1.9,1.46-2.93,1.75-1.23.34-2.49.5-3.76.66-1.45.18-2.88.37-4.34.38-1.62.02-3.24-.06-4.86-.18-1.54-.11-3.19-.3-4.71.07-1.12.28-1.96.99-2.88,1.63-2.48,1.73-5.35,1.46-8.14.69-1.56-.43-3.08-.86-4.68-1.12-1.58-.26-3.27-.43-4.75-1.06-1.34-.57-2.51-1.56-3.92-1.94-1.28-.35-2.54.03-3.83-.02-.93-.03-1.67-.44-1.98-1.35s-.34-2.09-.11-3.01c.12-.47.27-.9.14-1.38v-.02c.19-1.4-.34-3.03-1.33-3.8-.85-.67-2.4-.68-2.46-2.01-.03-.65.18-1.28.23-1.92.06-.67-.07-1.35-.26-1.99-.37-1.2-1.07-2.34-1.21-3.61-.15-1.37.64-2.25,1.67-3.01,1.02-.74,1.9-1.5,2.25-2.76.38-1.36.19-2.75,1.51-3.64,1.04-.71,2.37-.68,3.58-.64,1.44.04,2.84,0,4.28-.17,1.67-.18,3.24-.24,4.87.2,1.53.42,3.05.89,4.6,1.23,1.36.29,2.75.36,4.11.61.78.14,1.57.36,2.18.9.69.61,1.11,1.48,1.47,2.31.48,1.08.98,2.05,2,2.71,1.89,1.21,4.32.68,6.41,1.1.83.16,1.5.45,1.81,1.27.31.84.4,1.75.7,2.59.9,2.5,2.73,4.47,4.71,6.17,1.12.98,2.22,1.91,3.6,2.5,1.26.54,2.63.84,3.82,1.52Z"/><path class="cls-1" d="m522.89,174.81c1.19,1.85-.59,3.52-2.02,4.49-1.46.98-3.08,1.79-4.7,2.47-1.53.64-3.09,1.22-4.57,1.97-1.37.69-2.97,1.53-3.82,2.88-.32.52-.49,1.1-.37,1.71.17.86.9,1.28,1.61,1.67.79.43,1.59.85,2.13,1.59.75,1.02.53,2.17.11,3.27-.22.56-.42,1.14-.5,1.73-.07.44.03.88.09,1.32.14.97.25,1.95.09,2.93-.14.88-.55,1.7-1.23,2.28-.84.73-1.85,1.01-2.87,1.38-.83.3-1.58.71-2.22,1.32-.74.71-1.32,1.6-2.11,2.26-1.93,1.64-4.44.58-5.84-1.2-.76-.97-1.03-2.2-1.92-3.07-.89-.88-1.86-1.83-2.9-2.54-1.01-.68-2.04-.46-3.09.03-.81.38-1.96.77-2.37,1.64-.32.67-.28,1.28-.4,1.97-.14.75-.78.91-1.44,1-.99.13-2,.22-2.94-.18-.8-.33-1.37-.93-1.98-1.5-.6-.56-1.38-1.1-2.24-1.01-.93.11-1.71.86-2.46,1.35-1.86,1.23-4.27,1.1-6.17.01-1.03-.59-1.82-1.49-2.82-2.11-1.1-.68-2.35-.93-3.58-.48-1.24.46-2.1,1.52-3.11,2.33-1,.79-2.29,1.16-3.23,2.02-1.38,1.25-2.18,3.31-4.26,3.49-1.13.1-2.3-.35-3.25-.94-.87-.54-1.63-1.27-2.55-1.74-1.75-.88-3.92-.2-5.63-1.29-1.92-1.24-2.1-3.9-1.74-5.95.38-2.21,1.53-4.18,2.04-6.36.25-1.04.29-2.1-.02-3.14-.34-1.15-.8-2.26-.9-3.46-.19-2.52,1.7-4.49,3.83-5.5,1.05-.5,2.19-.92,3.02-1.76.88-.87,1.41-1.99,2.55-2.58.6-.31,1.26-.5,1.89-.73.6-.21,1.13-.52,1.66-.87,1.19-.81,2.22-1.82,3.23-2.83.88-.88,1.77-1.75,2.64-2.64.84-.86,1.53-1.77,1.4-3.02-.04-.36.14-.58.39-.67.14-.52.35-1.02.67-1.48,1.25-1.78,3.35-2.28,5.41-2.3,1.74-.01,3.88.44,5.28-.88.94-.89,1.35-2.17,1.67-3.39.34-1.34.68-2.62,1.51-3.75,1.47-2.01,3.72-3.26,6.17-3.64,2.45-.37,5.28-.05,6.9,2.03.64.82,1.07,1.82,1.81,2.56.92.9,2.33,1.33,3.58,1.44,2.06.2,4.3-.78,6.28.03,1.01.4,1.67,1.2,2.4,1.97.75.78,1.64,1.29,2.63,1.71,1.14.48,2.31.9,3.34,1.59.97.63,1.81,1.42,2.51,2.34.83,1.08,1.45,2.3,1.89,3.58.47,1.35.72,2.79,1.31,4.1.36.8.75,1.12,1.61.91.91-.21,1.79-.53,2.74-.52,1.67.02,3.9.68,4.86,2.16Zm-1.12,1.37c.06-.72-.73-1.17-1.28-1.43-.7-.35-1.52-.57-2.31-.6-1.6-.08-3.42,1.26-4.87.08-.9-.74-1.24-2.04-1.56-3.11-.41-1.39-.74-2.8-1.41-4.1-1.12-2.16-2.82-3.61-5.04-4.56-.95-.4-1.93-.74-2.81-1.29-.98-.61-1.63-1.49-2.47-2.26-1.53-1.39-3.55-.59-5.37-.51-2.39.11-5.02-.61-6.5-2.59-.61-.82-1.01-1.79-1.74-2.5-.88-.87-2.23-1.16-3.43-1.19-2.53-.08-5.05.86-6.73,2.79-1.76,2.02-1.56,4.91-3.2,7.02-1.18,1.5-2.86,1.86-4.69,1.8-1.96-.05-4.24-.35-5.89.98-.61.5-1.02,1.14-1.27,1.85.12.11.21.26.23.46.09.84-.11,1.57-.46,2.24.05.32.1.64.19.95.1.37-.44.5-.58.15-.03-.1-.06-.2-.1-.31-.66.91-1.56,1.7-2.33,2.48-1.8,1.83-3.68,3.99-6.09,5.04-1.15.51-2.34.68-3.2,1.68-.79.93-1.42,1.83-2.49,2.48-1.92,1.17-4.6,1.7-5.11,4.29-.2,1.06.2,2.14.53,3.13.35,1.06.62,2.09.54,3.22-.14,2.16-1.14,4.09-1.8,6.11-.35,1.03-.61,2.1-.58,3.19.02.95.21,2.13.99,2.77.62.5,1.49.59,2.26.67.99.1,2.03.12,2.97.49,1.81.73,3.38,2.97,5.52,2.74.8-.09,1.33-.77,1.8-1.36.65-.81,1.27-1.62,2.14-2.22,1.04-.72,2.2-1.14,3.17-2,.95-.84,1.85-1.7,3.07-2.15,1.12-.43,2.38-.43,3.51-.03,1.2.43,2.1,1.21,3.07,2,1.58,1.29,3.79,1.97,5.62.82.81-.5,1.53-1.11,2.44-1.42.96-.33,1.97-.15,2.86.29.73.37,1.28.96,1.88,1.51.6.54,1.24.8,2.06.78.41-.01.82-.11,1.23-.13-.02-.71.24-1.49.51-2.11.4-.87,1.12-1.35,1.94-1.78,1.03-.55,2.12-1.13,3.3-1.21,1.21-.08,2.21.53,3.09,1.29.91.78,1.87,1.54,2.68,2.43s1.04,2.11,1.82,3.02c.63.74,1.59,1.48,2.62,1.35,1.07-.13,1.72-1.23,2.38-1.97.57-.63,1.17-1.22,1.9-1.66.91-.55,1.92-.78,2.88-1.18.74-.3,1.41-.78,1.68-1.55.28-.79.19-1.7.09-2.52-.14-1.06-.25-1.9.01-2.95.23-.93,1.14-2.24.48-3.14-.45-.63-1.3-.93-1.95-1.31-1.53-.88-2.47-2.39-1.98-4.19.42-1.51,1.72-2.62,2.98-3.45,2.65-1.75,5.76-2.6,8.58-4.03.92-.47,1.84-.97,2.7-1.56.55-.39,1.45-.98,1.52-1.73Z"/><path class="cls-1" d="m520.49,174.75c.55.26,1.34.71,1.28,1.43-.07.75-.97,1.34-1.52,1.73-.86.59-1.78,1.09-2.7,1.56-2.82,1.43-5.93,2.28-8.58,4.03-1.26.83-2.56,1.94-2.98,3.45-.49,1.8.45,3.31,1.98,4.19.65.38,1.5.68,1.95,1.31.66.9-.25,2.21-.48,3.14-.26,1.05-.15,1.89-.01,2.95.1.82.19,1.73-.09,2.52-.27.77-.94,1.25-1.68,1.55-.96.4-1.97.63-2.88,1.18-.73.44-1.33,1.03-1.9,1.66-.66.74-1.31,1.84-2.38,1.97-1.03.13-1.99-.61-2.62-1.35-.78-.91-1.01-2.13-1.82-3.02s-1.77-1.65-2.68-2.43c-.88-.76-1.88-1.37-3.09-1.29-1.18.08-2.27.66-3.3,1.21-.82.43-1.54.91-1.94,1.78-.27.62-.53,1.4-.51,2.11-.41.02-.82.12-1.23.13-.82.02-1.46-.24-2.06-.78-.6-.55-1.15-1.14-1.88-1.51-.89-.44-1.9-.62-2.86-.29-.91.31-1.63.92-2.44,1.42-1.83,1.15-4.04.47-5.62-.82-.97-.79-1.87-1.57-3.07-2-1.13-.4-2.39-.4-3.51.03-1.22.45-2.12,1.31-3.07,2.15-.97.86-2.13,1.28-3.17,2-.87.6-1.49,1.41-2.14,2.22-.47.59-1,1.27-1.8,1.36-2.14.23-3.71-2.01-5.52-2.74-.94-.37-1.98-.39-2.97-.49-.77-.08-1.64-.17-2.26-.67-.78-.64-.97-1.82-.99-2.77-.03-1.09.23-2.16.58-3.19.66-2.02,1.66-3.95,1.8-6.11.08-1.13-.19-2.16-.54-3.22-.33-.99-.73-2.07-.53-3.13.51-2.59,3.19-3.12,5.11-4.29,1.07-.65,1.7-1.55,2.49-2.48.86-1,2.05-1.17,3.2-1.68,2.41-1.05,4.29-3.21,6.09-5.04.77-.78,1.67-1.57,2.33-2.48.04.11.07.21.1.31.14.35.68.22.58-.15-.09-.31-.14-.63-.19-.95.35-.67.55-1.4.46-2.24-.02-.2-.11-.35-.23-.46.25-.71.66-1.35,1.27-1.85,1.65-1.33,3.93-1.03,5.89-.98,1.83.06,3.51-.3,4.69-1.8,1.64-2.11,1.44-5,3.2-7.02,1.68-1.93,4.2-2.87,6.73-2.79,1.2.03,2.55.32,3.43,1.19.73.71,1.13,1.68,1.74,2.5,1.48,1.98,4.11,2.7,6.5,2.59,1.82-.08,3.84-.88,5.37.51.84.77,1.49,1.65,2.47,2.26.88.55,1.86.89,2.81,1.29,2.22.95,3.92,2.4,5.04,4.56.67,1.3,1,2.71,1.41,4.1.32,1.07.66,2.37,1.56,3.11,1.45,1.18,3.27-.16,4.87-.08.79.03,1.61.25,2.31.6Z"/><path class="cls-1" d="m455.68,97.86c1.22,1.57,1.91,3.72,1.23,5.68-.27.77-.77,1.39-1.34,1.97-.54.54-1.17,1.06-1.41,1.82-.25.78-.15,1.65-.2,2.46-.03.78-.2,1.51-.61,2.19-1.03,1.73-2.7,2.65-4.7,2.63-2.17-.03-4.31-.76-6.47-.64-1.11.06-2.23.45-3.27.84-1.06.4-2.06.9-3.02,1.49-.85.53-1.96,1.1-2.51,1.96-.23.36-.28.8-.42,1.21-.13.4-.31.78-.54,1.13-1.04,1.49-3.08,2.32-3.55,4.18-.19.76-.17,1.56-.21,2.33-.04.8-.52,1.26-1.13,1.72-1.72,1.31-3.2,2.98-3.99,5.02-.27.69-.42,1.4-.57,2.12-.09.48-.21.96-.49,1.37-.86,1.24-2.92,1.23-4.25,1.08-2.02-.23-3.58-1.38-5.28-2.38-1.01-.59-2.12-.9-3.22-1.29-1.09-.39-2.03-.9-2.97-1.56-.73-.49-1.53-1.01-2.44-1.09-1.11-.11-2.15.44-3.2.73-2.15.61-4.4.79-6.44,1.75-1.84.85-3.75,1.59-5.75.76-1.8-.74-2.85-2.31-3.85-3.89-.55-.86-1.39-1.24-2.29-1.64-1.02-.46-1.81-1.11-2.62-1.87-1.48-1.39-2.81-2.93-4-4.58-1.21-1.69-2.3-3.49-3.27-5.33-.36-.66-.72-1.41-.67-2.19.02-.3.11-.59.23-.87-.02-.09-.05-.18-.06-.28-.04-.95.57-1.62,1.11-2.31.33-.42.43-.79.32-1.31-.09-.41-.09-.8-.06-1.22.07-.95.18-1.91.38-2.85.35-1.72,1.02-3.41,2.23-4.71.64-.68,1.4-1.19,2.24-1.59.86-.4,1.5-.97,2.07-1.73.53-.71,1.03-1.47,1.72-2.05.67-.56,1.52-.87,2.38-1.02,1.9-.33,3.77-.09,5.57.56,1.07.38,2.2.88,3.35.81.96-.05,1.78-.57,2.54-1.11.82-.57,1.6-1.18,2.55-1.52.96-.35,1.96-.33,2.95-.38.96-.05,1.86-.24,2.6-.88.65-.56,1.12-1.29,1.59-2,.51-.76,1.03-1.51,1.74-2.1.76-.63,1.62-1.1,2.46-1.61.83-.5,1.5-1.07,2.13-1.81.53-.62,1.07-1.23,1.73-1.73,1.66-1.24,3.75-1.22,5.71-.92,1.14.17,2.26.41,3.41.51.89.07,1.8.13,2.64.46,1.75.69,2.62,2.38,4,3.56,1.69,1.45,3.71.82,5.56.08,1.04-.41,2.08-.73,3.15-1.03,1.12-.32,2.29-.56,3.44-.27,1.91.48,2.92,2.19,4.46,3.24,1.57,1.07,3.49,1.59,4.88,2.94.79.76,1.46,1.69,2.19,2.51.77.86,1.53,1.73,2.24,2.65Zm-.22,5.5c.91-1.92-.26-3.91-1.46-5.35-.72-.88-1.48-1.71-2.23-2.57-.66-.74-1.24-1.6-2.04-2.18-1.49-1.08-3.29-1.6-4.71-2.77-1.46-1.19-2.55-2.88-4.66-2.67-3.81.36-7.82,3.98-11.42,1.06-1.28-1.03-2.12-2.81-3.72-3.41-.81-.3-1.7-.3-2.56-.39-1.12-.11-2.21-.35-3.32-.52-1.88-.28-3.7-.17-5.11,1.22-.59.59-1.08,1.3-1.7,1.87-.66.63-1.45,1.09-2.24,1.55-.8.48-1.61.95-2.24,1.65-.56.63-.98,1.39-1.47,2.07-1.09,1.52-2.36,2.49-4.26,2.69-.92.1-1.86,0-2.76.25-.96.26-1.74.89-2.54,1.45-.73.52-1.5,1-2.38,1.22-.99.25-2.01.12-2.99-.16-1.04-.3-2.03-.77-3.1-1.02-.82-.2-1.68-.24-2.52-.2-.82.04-1.7.17-2.42.6-.71.43-1.19,1.2-1.68,1.85-.51.69-1.04,1.33-1.75,1.82-.76.52-1.64.78-2.34,1.39-1.3,1.12-1.98,2.73-2.35,4.37-.2.88-.32,1.77-.39,2.67-.07.84.2,1.64-.14,2.44-.18.43-.51.75-.82,1.09.14.16.22.39.12.6-.34.71-.68,1.5-.47,2.3.19.74.7,1.42,1.07,2.08,1.95,3.43,4.26,6.83,7.37,9.33.76.62,1.74.86,2.58,1.36.81.48,1.36,1.16,1.84,1.97.87,1.45,2.15,3.04,3.98,3.13,1.95.1,3.59-1.3,5.4-1.78,1.1-.29,2.23-.46,3.34-.71,1.13-.26,2.19-.68,3.3-.96,1.93-.5,3.57.22,5.13,1.32,1.82,1.28,4.04,1.55,5.94,2.67,1.63.96,3.13,2.15,5.11,2.18.65.01,1.47-.01,2.05-.26.17-.08.24-.17.28-.25.08-.13.1-.21.15-.43.15-.56.24-1.13.4-1.69.28-.94.7-1.84,1.21-2.67.55-.9,1.21-1.75,1.94-2.5.38-.4.79-.76,1.22-1.1.31-.25.69-.47.95-.78l.04-.04c.02-.11,0-.23,0-.34.01-.38.05-.76.09-1.13.09-.94.26-1.81.77-2.61.48-.76,1.16-1.34,1.84-1.91.66-.54,1.37-1.11,1.7-1.92.33-.8.41-1.57,1.03-2.24.68-.76,1.61-1.32,2.46-1.85,1.76-1.11,3.72-1.95,5.74-2.43,2.2-.53,4.37.13,6.56.34.86.09,1.76.19,2.6-.03.9-.23,1.62-.87,2.13-1.64.87-1.34.31-2.98.77-4.44.24-.75.71-1.37,1.26-1.92.51-.52,1.11-1,1.42-1.67Z"/><path class="cls-1" d="m454,98.01c1.2,1.44,2.37,3.43,1.46,5.35-.31.67-.91,1.15-1.42,1.67-.55.55-1.02,1.17-1.26,1.92-.46,1.46.1,3.1-.77,4.44-.51.77-1.23,1.41-2.13,1.64-.84.22-1.74.12-2.6.03-2.19-.21-4.36-.87-6.56-.34-2.02.48-3.98,1.32-5.74,2.43-.85.53-1.78,1.09-2.46,1.85-.62.67-.7,1.44-1.03,2.24-.33.81-1.04,1.38-1.7,1.92-.68.57-1.36,1.15-1.84,1.91-.51.8-.68,1.67-.77,2.61-.04.37-.08.75-.09,1.13,0,.11.02.23,0,.34l-.04.04c-.26.31-.64.53-.95.78-.43.34-.84.7-1.22,1.1-.73.75-1.39,1.6-1.94,2.5-.51.83-.93,1.73-1.21,2.67-.16.56-.25,1.13-.4,1.69-.05.22-.07.3-.15.43-.04.08-.11.17-.28.25-.58.25-1.4.27-2.05.26-1.98-.03-3.48-1.22-5.11-2.18-1.9-1.12-4.12-1.39-5.94-2.67-1.56-1.1-3.2-1.82-5.13-1.32-1.11.28-2.17.7-3.3.96-1.11.25-2.24.42-3.34.71-1.81.48-3.45,1.88-5.4,1.78-1.83-.09-3.11-1.68-3.98-3.13-.48-.81-1.03-1.49-1.84-1.97-.84-.5-1.82-.74-2.58-1.36-3.11-2.5-5.42-5.9-7.37-9.33-.37-.66-.88-1.34-1.07-2.08-.21-.8.13-1.59.47-2.3.1-.21.02-.44-.12-.6.31-.34.64-.66.82-1.09.34-.8.07-1.6.14-2.44.07-.9.19-1.79.39-2.67.37-1.64,1.05-3.25,2.35-4.37.7-.61,1.58-.87,2.34-1.39.71-.49,1.24-1.13,1.75-1.82.49-.65.97-1.42,1.68-1.85.72-.43,1.6-.56,2.42-.6.84-.04,1.7,0,2.52.2,1.07.25,2.06.72,3.1,1.02.98.28,2,.41,2.99.16.88-.22,1.65-.7,2.38-1.22.8-.56,1.58-1.19,2.54-1.45.9-.25,1.84-.15,2.76-.25,1.9-.2,3.17-1.17,4.26-2.69.49-.68.91-1.44,1.47-2.07.63-.7,1.44-1.17,2.24-1.65.79-.46,1.58-.92,2.24-1.55.62-.57,1.11-1.28,1.7-1.87,1.41-1.39,3.23-1.5,5.11-1.22,1.11.17,2.2.41,3.32.52.86.09,1.75.09,2.56.39,1.6.6,2.44,2.38,3.72,3.41,3.6,2.92,7.61-.7,11.42-1.06,2.11-.21,3.2,1.48,4.66,2.67,1.42,1.17,3.22,1.69,4.71,2.77.8.58,1.38,1.44,2.04,2.18.75.86,1.51,1.69,2.23,2.57Z"/><path class="cls-1" d="m423.16,191.18c.86.77,1.57,1.63,1.34,2.86-.24,1.23-1.14,2.22-1.45,3.43-.38,1.48.19,2.8.61,4.19.22.74.32,1.49.21,2.26-.11.78-.38,1.52-.36,2.31.02.73.16,1.45.15,2.19-.01.66-.17,1.28-.3,1.93-.18.97-.01,2.19-.51,3.07-.49.85-1.73.98-2.6.95-2.33-.07-4.47-1.03-6.7-1.54-.77-.17-1.57-.21-2.18.37-.42.4-.7.91-1.09,1.33-.88.93-2.17,1.27-3.4,1.45-1.36.19-2.73.18-4.1-.01-1.23-.17-2.53-.46-3.48-1.31-.89-.79-1.49-2.36-2.86-2.29-.86.04-1.62.2-2.48.08-.65-.09-1.26-.26-1.85-.54-1.11-.52-1.99-1.39-2.78-2.31-.8-.93-1.51-1.99-2.6-2.58-1.13-.6-2.46-.87-3.73-.85-1.33.03-2.46.63-3.64,1.2-1.09.53-2.21,1.04-3.45,1.07-1.43.04-2.65-.61-3.85-1.32-1.05-.61-2.22-1.26-2.98-2.22-.99-1.27-.38-2.66.12-3.98.52-1.4.12-2.57-.51-3.85-.53-1.09-1.17-2.25-1-3.51.15-1.08,1.02-2.42,2.12-3.15.3-.26.59-.51.92-.74.63-.45,1.3-.73,2.01-1.03,2.93-1.21,5.61-2.94,8.53-4.18,1.52-.64,3.06-1.03,4.65-1.43,1.68-.42,3.27-1.12,4.91-1.67,2.6-.86,6.23-1.44,8.08,1.16.42.59.67,1.28,1.02,1.91.36.63.84,1.18,1.4,1.64.97.78,2.15,1.13,3.38,1.16,2.6.05,5.1-.94,7.68-1.18,1.27-.11,2.54-.01,3.74.45,1.37.51,2.62,1.26,3.81,2.09,1.13.79,2.2,1.66,3.22,2.59Zm-.04,2.41c.02-.45-.29-.76-.59-1.05-.42-.42-.88-.81-1.34-1.19-1.03-.87-2.11-1.67-3.27-2.37-1.06-.64-2.21-1.25-3.45-1.45-2.38-.39-4.83.53-7.15.93-2.42.41-4.9.37-6.9-1.22-1.17-.93-1.75-2.08-2.43-3.36-.64-1.21-1.7-1.68-3.04-1.77-1.5-.09-2.97.41-4.36.9-1.52.54-3.02,1.16-4.6,1.52-1.5.34-2.94.76-4.36,1.37-1.37.6-2.7,1.3-4.02,2-1.32.69-2.65,1.38-4.02,1.97-.71.3-1.4.56-2.04,1.01-.62.43-1.22.88-1.86,1.27-.17.11-.34.11-.49.05-.54,1.01-.5,2-.02,3.06s1.17,2.02,1.49,3.16c.18.66.22,1.35.11,2.02-.11.69-.42,1.31-.64,1.97-.19.59-.29,1.17.14,1.67.35.41.81.72,1.25,1,1.03.68,2.19,1.48,3.39,1.78,1.13.28,2.21-.07,3.24-.54,1.14-.54,2.29-1.23,3.54-1.48,1.19-.23,2.44-.15,3.62.12,1.14.26,2.28.74,3.18,1.51.89.76,1.55,1.78,2.34,2.64.78.84,1.65,1.52,2.78,1.81.74.18,1.46.17,2.21.06.74-.09,1.45-.11,2.12.25,1.02.56,1.52,1.67,2.37,2.41.86.75,2.28.9,3.37.99,1.24.1,2.52.08,3.73-.21.56-.13,1.16-.3,1.6-.68.45-.38.74-.9,1.12-1.33,1.79-2.04,4.54-.74,6.71-.13,1.01.29,2.05.57,3.11.65.46.03.98.06,1.42-.12.33-.13.26-.15.33-.56.09-.52.12-1.05.18-1.58.07-.56.22-1.09.3-1.64.19-1.35-.23-2.68.02-4.04.14-.77.39-1.5.25-2.29-.13-.67-.4-1.31-.61-1.96-.39-1.25-.51-2.67-.09-3.93.18-.54.44-1.04.7-1.54.25-.5.65-1.11.66-1.68Z"/><path class="cls-1" d="m422.53,192.54c.3.29.61.6.59,1.05-.01.57-.41,1.18-.66,1.68-.26.5-.52,1-.7,1.54-.42,1.26-.3,2.68.09,3.93.21.65.48,1.29.61,1.96.14.79-.11,1.52-.25,2.29-.25,1.36.17,2.69-.02,4.04-.08.55-.23,1.08-.3,1.64-.06.53-.09,1.06-.18,1.58-.07.41,0,.43-.33.56-.44.18-.96.15-1.42.12-1.06-.08-2.1-.36-3.11-.65-2.17-.61-4.92-1.91-6.71.13-.38.43-.67.95-1.12,1.33-.44.38-1.04.55-1.6.68-1.21.29-2.49.31-3.73.21-1.09-.09-2.51-.24-3.37-.99-.85-.74-1.35-1.85-2.37-2.41-.67-.36-1.38-.34-2.12-.25-.75.11-1.47.12-2.21-.06-1.13-.29-2-.97-2.78-1.81-.79-.86-1.45-1.88-2.34-2.64-.9-.77-2.04-1.25-3.18-1.51-1.18-.27-2.43-.35-3.62-.12-1.25.25-2.4.94-3.54,1.48-1.03.47-2.11.82-3.24.54-1.2-.3-2.36-1.1-3.39-1.78-.44-.28-.9-.59-1.25-1-.43-.5-.33-1.08-.14-1.67.22-.66.53-1.28.64-1.97.11-.67.07-1.36-.11-2.02-.32-1.14-1.01-2.1-1.49-3.16s-.52-2.05.02-3.06c.15.06.32.06.49-.05.64-.39,1.24-.84,1.86-1.27.64-.45,1.33-.71,2.04-1.01,1.37-.59,2.7-1.28,4.02-1.97,1.32-.7,2.65-1.4,4.02-2,1.42-.61,2.86-1.03,4.36-1.37,1.58-.36,3.08-.98,4.6-1.52,1.39-.49,2.86-.99,4.36-.9,1.34.09,2.4.56,3.04,1.77.68,1.28,1.26,2.43,2.43,3.36,2,1.59,4.48,1.63,6.9,1.22,2.32-.4,4.77-1.32,7.15-.93,1.24.2,2.39.81,3.45,1.45,1.16.7,2.24,1.5,3.27,2.37.46.38.92.77,1.34,1.19Z"/></svg>