<?xml version="1.0" encoding="UTF-8"?><svg id="Tree_07_-_Leaves_02" xmlns="http://www.w3.org/2000/svg" viewBox="0 0 1160 418.25"><defs><style>.cls-1{fill:#a2c81b;}.cls-1,.cls-2{stroke-width:0px;}.cls-2{fill:#b6d01c;}</style></defs><path class="cls-1" d="m478.61,240.88c-.22-1.06,1.1-.94,1.81-.79.67.14,1.31.43,2,.54.77.12,1.44.26,2.16.54,1.44.57,2.93.97,4.33,1.6,1.27.55,2.47,1.53,3.86,1.77,1.36.24,2.71-.14,4.06-.29.73-.08,1.4-.06,2.05.31.6.33,1.24.74,1.71,1.24.86.92,1.26,2.2,1.9,3.26.37.61.72,1.22,1.02,1.85.33.73.44,1.49.55,2.28.1.67.23,1.31.4,1.96.19.7.49,1.36.72,2.06.26.77.19,1.52-.36,2.16-.42.48-1.01.77-1.46,1.21-.44.41-.73.95-1.17,1.35-.52.48-1.24.62-1.93.67-1.25.1-2.54,0-3.8.06-1.35.06-2.19,1.11-3.47,1.42-.73.17-1.5.14-2.22,0-.79-.15-1.52-.53-2.31-.64-1.22-.16-2.63-.29-3.48-1.24-1-1.13-1.94-2.47-2.59-3.83-.66-1.38-.77-2.88-1.66-4.16-.44-.63-1-1.38-1.13-2.15-.12-.74.1-1.58.19-2.31.09-.89.16-1.78.24-2.67.06-.66.12-1.25-.14-1.87-.27-.63-.81-1.41-1.08-2.19.09-.03.15-.1.12-.21-.12-.4-.09-.79-.13-1.2,0-.04,0-.07-.02-.1.02-.05.02-.1.05-.13.06-.1-.03-.18-.11-.18-.03-.1-.06-.2-.09-.3Z"/><path class="cls-1" d="m498.6,243.99c1.17.44,2.33,1.3,2.97,2.36.4.65.69,1.36,1.06,2.01.36.65.77,1.27,1.1,1.94.72,1.4.74,2.92,1.12,4.42.32,1.32,1.34,2.8.83,4.19-.22.58-.67,1.03-1.16,1.4-.58.46-1.05.87-1.53,1.45-.81,1.01-1.82,1.32-3.08,1.35-.69.02-1.39-.02-2.08,0-.81.02-1.71-.1-2.46.26-.67.31-1.2.8-1.91,1.04-.67.22-1.38.28-2.07.21-.86-.08-1.63-.38-2.44-.61-.39-.11-.79-.13-1.2-.19-.33-.06-.66-.17-.99-.25-.59-.12-1.12-.19-1.62-.58-.52-.4-.94-1-1.33-1.52-.93-1.24-1.82-2.6-2.26-4.11-.23-.8-.39-1.63-.8-2.37-.37-.67-.86-1.27-1.22-1.98-.65-1.3-.17-2.78-.03-4.17.09-.86.25-1.78.24-2.65,0-.74-.43-1.32-.74-1.96-.37-.75-.86-1.81-.56-2.66-.04-.33-.18-.66-.17-1,0-.39.24-.65.59-.77.71-.24,1.54-.04,2.22.17.4.11.79.26,1.2.34.48.1.97.11,1.44.25.88.24,1.74.64,2.6.91s1.72.56,2.55.91c.85.36,1.66.8,2.46,1.24.91.51,1.82.69,2.85.62,1.4-.1,3.03-.76,4.4-.26Zm.28.58c-.66-.37-1.32-.39-2.05-.31-1.35.14-2.7.52-4.06.29-1.39-.24-2.59-1.22-3.86-1.77-1.41-.63-2.9-1.03-4.33-1.6-.72-.29-1.39-.42-2.16-.54-.68-.11-1.32-.4-2-.54-.7-.15-2.02-.28-1.81.79.03.1.06.21.09.3.09,0,.17.08.11.18-.03.04-.03.09-.05.13,0,.04.02.07.02.1.05.41,0,.8.13,1.2.03.1-.04.18-.12.21.28.78.82,1.56,1.08,2.19.27.62.2,1.22.14,1.87-.08.89-.15,1.78-.24,2.67-.09.73-.31,1.57-.19,2.31.13.77.69,1.52,1.13,2.15.89,1.28,1.01,2.78,1.66,4.16.65,1.36,1.59,2.7,2.59,3.83.85.96,2.26,1.08,3.48,1.24.79.1,1.52.48,2.31.64.72.15,1.49.18,2.22,0,1.28-.3,2.12-1.36,3.47-1.42,1.26-.07,2.55.04,3.8-.06.68-.05,1.41-.18,1.93-.67.44-.4.73-.94,1.17-1.35.46-.44,1.05-.72,1.46-1.21.55-.64.62-1.39.36-2.16-.23-.7-.53-1.36-.72-2.06-.17-.65-.3-1.29-.4-1.96-.11-.79-.22-1.55-.55-2.28-.29-.64-.65-1.24-1.02-1.85-.64-1.06-1.05-2.34-1.9-3.26-.48-.5-1.11-.91-1.71-1.24Z"/><path class="cls-1" d="m455.98,71.59c-.48.04-.94-.19-1.4-.29-.48-.12-.99-.11-1.49-.11-.54,0-1.2,0-1.61-.42-.57-.58-.5-1.67-.57-2.41-.08-.94-.21-2.63-1.38-2.86-.65-.48-1.44-.78-1.99-1.39-.86-.94-.4-2.38-.48-3.52-.1-1.35-.86-2.58-1.29-3.82-.48-1.35-.47-2.68-.17-4.06.1-.47.2-.92.36-1.36.1-.23.19-.48.34-.67.29-.37.69-.39,1.14-.45,1.28-.15,2.33-.77,3.29-1.62.67-.58,1.2-.65,2.06-.52.73.1,1.46.14,2.2.32,1.44.36,2.85.76,4.3,1.08,1.27.29,2.74.57,3.44,1.81.27.48.4,1.01.49,1.54.14.79.35,1.59.22,2.39-.09.5-.17.93,0,1.44.13.38.25.63.18,1.05-.05.3-.1.6-.07.91.12,1.15,1.2,1.62,2.14,2.03,1.01.45,3.05.87,3.08,2.25.02,1.24-1.04,2.2-2.01,2.77-.51.3-.99.64-1.47.98-.67.48-1.6,1.15-2.46.95-.48-.1-.88-.48-1.41-.42-.51.07-.87.48-1.16.87-.51.71-.97,1.24-1.69,1.77-.53.37-1.02.78-1.51,1.2-.31.27-.66.51-1.08.55Z"/><path class="cls-1" d="m446.53,59.78c-.48-1.71-1.49-3.19-1.59-5.02-.06-1.21.2-2.59.67-3.72.17-.39.4-.83.8-1.03.66-.34,1.47-.19,2.17-.5.75-.33,1.36-.8,1.98-1.32.39-.32.83-.59,1.34-.63.45-.03.89.1,1.33.14.3.03.6.04.89.09.73.11,1.44.32,2.16.53,1.64.48,3.38.68,4.99,1.27.96.35,1.67.99,2.05,1.93.27.64.35,1.32.48,2,.12.67.17,1.25.06,1.92-.09.53-.06.86.13,1.36.11.28.15.48.11.79-.08.76-.23,1.46.48,1.99,1.19.86,2.78,1.05,3.93,1.94.8.62.85,1.61.46,2.47-.52,1.19-1.48,1.71-2.53,2.37-1.03.64-2.19,1.85-3.52,1.68-.44-.06-.77-.36-1.2-.43-.53-.1-.9.34-1.19.73-.4.54-.73,1.02-1.27,1.43-.6.46-1.22.86-1.78,1.35-.38.34-.79.68-1.3.78-.66.12-1.26-.21-1.89-.31-.51-.09-1.04-.03-1.55-.05-.98-.04-1.71-.39-1.98-1.39-.22-.81-.19-1.65-.31-2.47-.07-.42-.16-.99-.42-1.39-.05,0-.1,0-.14-.04-.11-.14-.26-.26-.4-.37-.02,0-.04-.03-.07-.03-.07-.02-.1-.06-.11-.11-.85-.6-1.92-.94-2.4-1.92-.6-1.23,0-2.74-.38-4.04Zm8.05,11.52c.46.1.92.33,1.4.29.43-.04.77-.29,1.08-.55.49-.42.98-.83,1.51-1.2.72-.52,1.18-1.05,1.69-1.77.29-.39.65-.81,1.16-.87.52-.07.92.31,1.41.42.86.2,1.79-.48,2.46-.95.48-.34.96-.67,1.47-.98.98-.56,2.03-1.52,2.01-2.77-.03-1.38-2.07-1.81-3.08-2.25-.94-.42-2.01-.88-2.14-2.03-.04-.31.02-.61.07-.91.07-.42-.05-.67-.18-1.05-.18-.5-.1-.93,0-1.44.13-.81-.08-1.61-.22-2.39-.1-.53-.23-1.06-.49-1.54-.7-1.24-2.17-1.51-3.44-1.81-1.44-.32-2.86-.72-4.3-1.08-.73-.18-1.46-.22-2.2-.32-.86-.12-1.4-.06-2.06.52-.96.85-2.01,1.46-3.29,1.62-.45.06-.86.08-1.14.45-.15.19-.25.44-.34.67-.16.44-.27.89-.36,1.36-.29,1.38-.31,2.71.17,4.06.44,1.24,1.2,2.47,1.29,3.82.09,1.14-.37,2.58.48,3.52.55.61,1.34.91,1.99,1.39,1.17.23,1.3,1.92,1.38,2.86.07.74,0,1.83.57,2.41.41.41,1.06.41,1.61.42.5,0,1.01,0,1.49.11Z"/><path class="cls-2" d="m407.44,100.84c-.22-.21-.32-.55-.44-.83-.19-.45-.41-.87-.73-1.24-.76-.86-1.62-1.73-2.61-2.34-.38-.33-.77-.67-.93-1.15-.19-.57-.36-1.12-.61-1.68-.29-.65-.56-1.31-.71-2.01-.16-.79-.05-1.49.22-2.23.19-.54.34-1.06.48-1.62.18-.75.7-1.16,1.26-1.63.75-.63,1.56-1.12,1.64-2.19.1-1.24.15-2.65,1.05-3.63.46-.49,1.09-.85,1.63-1.25.54-.41,1.07-.84,1.59-1.27.9-.77,1.72-1.74,2.81-2.26.56-.27,1.22-.43,1.82-.6.53-.14,1.6-.45,2.01.03.32.38.54.9.85,1.31.31.43.66.85,1.05,1.2.86.78,1.99,1.05,2.92,1.71.56.39.67,1,.95,1.58.33.68.84,1.47.69,2.26-.21,1.15-.49,2.6-1.63,3.16-.92.46-1.95.76-2.7,1.51-.63.64-.91,1.65-1.02,2.52-.17,1.43.25,2.82-.1,4.24-.32,1.33-.75,2.61-1.2,3.91-.26.73-.51,1.58-1.23,2-.53.3-1.34.43-1.94.46-.71.04-1.37-.28-2.08-.26-.63.03-1.16.11-1.75.31-.43.15-.89.35-1.28,0Z"/><path class="cls-2" d="m407.82,101.41c-.97-.1-1.11-1.38-1.54-2.03-.4-.61-1.01-1.16-1.52-1.66-.56-.55-1.19-1.05-1.91-1.37-.1-.05-.09-.15-.04-.22-.15-.14-.29-.3-.4-.52-.12-.28-.16-.58-.26-.86-.14-.4-.35-.78-.51-1.17-.31-.75-.61-1.53-.7-2.35-.08-.74.12-1.44.38-2.14.24-.64.31-1.38.6-1.99.29-.57.86-.96,1.33-1.35.67-.55,1.35-.97,1.43-1.91.06-.75.1-1.44.29-2.16.15-.53.37-1.05.72-1.49.4-.48.96-.81,1.46-1.17,1.19-.88,2.27-1.86,3.4-2.82.98-.83,2.03-1.24,3.26-1.58.6-.16,1.32-.31,1.94-.18.31.07.38.27.54.53.67,1.14,1.5,2.31,2.72,2.92.66.32,1.36.58,1.97,1.01.42.29.62.67.81,1.14.29.67.67,1.29.89,1.98.21.62.1,1.07-.06,1.68-.27,1.08-.44,2.2-1.5,2.79-1.05.58-2.43.86-3.08,1.98-.75,1.31-.55,2.78-.51,4.21.05,1.5-.47,2.94-.97,4.32-.26.7-.51,1.41-.79,2.11-.19.48-.43.94-.82,1.28-.71.65-2.13.83-3.04.68-.44-.07-.84-.21-1.27-.2-.36,0-.74.03-1.09.1-.57.11-1.14.49-1.73.43Zm-.82-1.4c.11.28.22.62.44.83.39.36.86.16,1.28,0,.59-.2,1.12-.29,1.75-.31.71-.02,1.37.29,2.08.26.6-.03,1.41-.15,1.94-.46.71-.42.97-1.26,1.23-2,.45-1.29.87-2.58,1.2-3.91.35-1.42-.07-2.81.1-4.24.1-.86.39-1.88,1.02-2.52.75-.75,1.78-1.05,2.7-1.51,1.13-.56,1.42-2.01,1.63-3.16.14-.79-.36-1.58-.69-2.26-.28-.58-.39-1.19-.95-1.58-.93-.67-2.06-.93-2.92-1.71-.39-.35-.73-.77-1.05-1.2-.3-.41-.52-.93-.85-1.31-.41-.48-1.47-.17-2.01-.03-.61.17-1.26.33-1.82.6-1.09.52-1.91,1.49-2.81,2.26-.51.44-1.05.86-1.59,1.27-.53.41-1.17.76-1.63,1.25-.89.98-.94,2.39-1.05,3.63-.09,1.06-.89,1.56-1.64,2.19-.56.48-1.08.88-1.26,1.63-.13.55-.29,1.07-.48,1.62-.27.74-.38,1.44-.22,2.23.15.69.43,1.36.71,2.01.25.56.42,1.11.61,1.68.16.48.55.82.93,1.15,1,.61,1.85,1.48,2.61,2.34.32.36.54.79.73,1.24Z"/><path class="cls-2" d="m390.19,143.11c-.27.11-.54.24-.81.33-.49.16-.91.05-1.35-.21-.37-.22-.54-.56-.86-.83-.23-.18-.5-.3-.78-.42-.66-.27-1.38-.31-2.04-.55-.84-.29-1.67-.42-2.54-.57-.35-.06-.72-.13-1.04-.32s-.54-.5-.74-.83c-.5-1.5-.65-3.08-.72-4.66-.04-.67.09-1.35.05-2.03-.02-.34-.06-.74.05-1.07.15-.45.53-.8.91-1.05.53-.35,1.19-.52,1.78-.79.78-.36,1.58-.46,2.41-.64.69-.14,1.43-.45,2.14-.49.84-.05,1.7.71,2.24,1.26.55.59.79,1.07.66,1.9-.1.65-.39,1.27-.31,1.94.16,1.4,1.64,2.27,2.28,3.43.7,1.25,1.27,2.83.43,4.18-.4.65-1.05,1.13-1.76,1.41Z"/><path class="cls-2" d="m379.32,135.06c.08,1.58.22,3.16.72,4.66.2.32.43.64.74.83s.68.27,1.04.32c.86.15,1.7.28,2.54.57.67.24,1.39.29,2.04.55.28.11.55.24.78.42.31.27.48.61.86.83.44.26.86.37,1.35.21.27-.1.54-.22.81-.33.7-.28,1.36-.76,1.76-1.41.85-1.35.28-2.93-.43-4.18-.64-1.16-2.12-2.03-2.28-3.43-.08-.67.21-1.29.31-1.94.13-.83-.1-1.31-.66-1.9-.54-.55-1.41-1.31-2.24-1.26-.71.05-1.44.35-2.14.49-.84.18-1.63.28-2.41.64-.59.27-1.24.44-1.78.79-.38.25-.76.6-.91,1.05-.1.33-.07.73-.05,1.07.04.68-.09,1.36-.05,2.03Zm6.58-6.27c.72-.2,1.22-.19,1.88.16.69.35,1.31.89,1.8,1.51.4.51.46,1.03.38,1.65-.11.99-.5,1.81.07,2.75.45.75,1.17,1.28,1.64,2.01.43.66.79,1.42.96,2.19.3,1.42,0,2.86-1.17,3.77-.57.45-1.23.68-1.89.94-.67.25-1.28.1-1.88-.27-.3-.19-.45-.48-.7-.71-.3-.29-.75-.45-1.15-.55-.44-.12-.88-.15-1.3-.29-.43-.14-.85-.31-1.28-.43-.76-.19-1.61-.21-2.34-.51-.45-.18-.73-.49-.98-.86-.03,0-.06-.03-.07-.07l-.06-.11c-.09-.16-.18-.32-.27-.49-.04-.06-.02-.11.02-.16-.22-.65-.33-1.31-.4-2-.1-1.1-.2-2.21-.09-3.32.08-.76-.21-1.61.1-2.34.29-.67.99-1.15,1.64-1.42.75-.3,1.52-.71,2.32-.86.92-.18,1.84-.37,2.77-.61Z"/><path class="cls-1" d="m577.73,154.9c1.43,1.83,1.16,4.54.15,6.52-1,1.97-3.02,2.81-5.03,3.41-1.18.35-2.29.62-3.2,1.5-.76.75-1.35,1.62-2.22,2.25-2.32,1.69-5.79,1.55-8.45.98-1.3-.28-2.58-.71-3.64-1.52-.86-.66-1.53-1.5-2.31-2.24-.93-.87-1.9-1.14-3.14-1.23-1.69-.12-3.39-.17-5.04-.57-1.27-.31-2.38-.79-3.28-1.76-.73-.79-1.27-1.73-1.96-2.55-.62-.74-1.42-1.47-2.45-1.31-1.35.2-2.5.83-3.9.68-1.27-.14-2.43-.84-3.61-1.3-1.04-.4-2.13-.79-2.97-1.54-.95-.83-1.34-1.98-1.64-3.17-.31-1.25-.56-2.54-.54-3.83.02-1.6.53-3.13,1.39-4.44-.22-.21-.3-.56-.02-.81.44-.38.85-.87,1.27-1.34,0-.01-.02-.02-.04-.03-.15-.14.05-.36.21-.28.03.02.05.03.08.05.45-.47.94-.88,1.56-1.08.65-.21,1.29.25,1.9-.07.6-.32,1.1-.88,1.66-1.26,1.18-.82,2.47-1.49,3.84-1.96,1.37-.48,2.83-.73,4.29-.78,1.34-.04,2.67.06,3.99-.29,1.17-.32,2.23-.93,3.28-1.55,1.39-.82,2.79-1.41,4.39-1.69,1.52-.26,3.07-.34,4.58-.68,1.34-.3,2.39-1.02,3.5-1.78,1.07-.74,2.2-1.41,3.51-1.6,1.35-.19,2.72.03,3.94.63,2.46,1.2,3.59,3.72,4.03,6.3.46,2.7.38,5.47.23,8.2-.07,1.21-.19,2.43-.16,3.63.03.86.19,1.71.72,2.4,1.34,1.76,3.72,2.35,5.08,4.11Zm-2.72,7.58c1.75-1.04,2.63-3.39,2.25-5.37-.4-2.1-2.75-2.98-4.28-4.12-.73-.56-1.44-1.19-1.86-2.03-.42-.82-.55-1.73-.58-2.64-.06-2.42.28-4.85.27-7.27,0-2.4-.1-5.13-1.28-7.29-1.23-2.25-4.04-3.43-6.47-2.45-1.14.46-2.1,1.29-3.13,1.95-1.16.74-2.38,1.12-3.73,1.34-1.45.23-2.91.31-4.33.64-1.51.35-2.74,1.11-4.07,1.86-.98.54-2,1.03-3.09,1.28-1.28.29-2.56.24-3.87.26-2.82.06-5.49,1.02-7.79,2.66-.56.4-1.03.92-1.66,1.24-.28.14-.58.24-.9.25-.31,0-.61-.13-.91-.14-.6-.02-1.16.71-1.56,1.1-.3.29-.64.56-.99.81-.41.58-.78,1.17-1.06,1.83-.92,2.24-.43,4.63.27,6.85.36,1.12.92,1.94,1.96,2.52.98.55,2.09.87,3.12,1.32,1.21.51,2.25.92,3.58.57,1.12-.3,2.24-.82,3.41-.49,2.03.57,2.89,2.7,4.23,4.12.91.96,2.08,1.29,3.36,1.52,1.61.29,3.25.26,4.87.45,1.11.13,2.08.57,2.93,1.29.77.64,1.38,1.45,2.13,2.11.95.84,2.1,1.24,3.32,1.52,1.43.33,2.92.44,4.38.29,1.23-.13,2.51-.46,3.45-1.3.72-.65,1.26-1.47,2-2.1,1.73-1.47,4.11-1.45,6.03-2.58Z"/><path class="cls-1" d="m577.26,157.11c.38,1.98-.5,4.33-2.25,5.37-1.92,1.13-4.3,1.11-6.03,2.58-.74.63-1.28,1.45-2,2.1-.94.84-2.22,1.17-3.45,1.3-1.46.15-2.95.04-4.38-.29-1.22-.28-2.37-.68-3.32-1.52-.75-.66-1.36-1.47-2.13-2.11-.85-.72-1.82-1.16-2.93-1.29-1.62-.19-3.26-.16-4.87-.45-1.28-.23-2.45-.56-3.36-1.52-1.34-1.42-2.2-3.55-4.23-4.12-1.17-.33-2.29.19-3.41.49-1.33.35-2.37-.06-3.58-.57-1.03-.45-2.14-.77-3.12-1.32-1.04-.58-1.6-1.4-1.96-2.52-.7-2.22-1.19-4.61-.27-6.85.28-.66.65-1.25,1.06-1.83.35-.25.69-.52.99-.81.4-.39.96-1.12,1.56-1.1.3.01.6.14.91.14.32-.01.62-.11.9-.25.63-.32,1.1-.84,1.66-1.24,2.3-1.64,4.97-2.6,7.79-2.66,1.31-.02,2.59.03,3.87-.26,1.09-.25,2.11-.74,3.09-1.28,1.33-.75,2.56-1.51,4.07-1.86,1.42-.33,2.88-.41,4.33-.64,1.35-.22,2.57-.6,3.73-1.34,1.03-.66,1.99-1.49,3.13-1.95,2.43-.98,5.24.2,6.47,2.45,1.18,2.16,1.28,4.89,1.28,7.29.01,2.42-.33,4.85-.27,7.27.03.91.16,1.82.58,2.64.42.84,1.13,1.47,1.86,2.03,1.53,1.14,3.88,2.02,4.28,4.12Z"/><path class="cls-1" d="m566.94,203.21c.52,1.16.72,2.46.26,3.68-.45,1.17-1.35,2.07-2.39,2.75-1.05.69-2.26,1.16-3.48,1.45-.66.16-1.35.22-2.01.39-.81.19-1.58.5-2.31.89-1.42.76-2.69,1.78-4.03,2.68-.61.41-1.39.77-1.75,1.46-.24.46-.22.97-.18,1.48.11,1.23.29,2.43-.44,3.53-.89,1.34-2.34,1.94-3.88,2.12-1.51.17-3.09-.07-4.58.29-.78.19-1.49.62-2.22.95-.75.36-1.52.69-2.3.98-1.6.6-3.28.95-4.98,1.08-1.95.15-3.91-.14-5.8-.54-1.78-.39-3.61-.77-5.29-1.5-1.37-.59-2.65-1.4-4.09-1.83-1.59-.47-3.25-.34-4.8.21-1.41.5-2.66,1.38-3.98,2.08-2.96,1.59-6.48,2.27-9.41.2-1.24-.88-2.36-2.06-3.3-3.26-.93-1.17-1.63-2.5-1.23-4.03.34-1.27,1.4-2.57.6-3.88-.32-.53-.71-.98-.96-1.55-.32-.75-.36-1.54-.22-2.34.1-.55.28-1.07.51-1.58-.07-.11-.11-.25-.08-.4.29-1.3.8-2.45,1.93-3.23.87-.6,1.99-.83,3.09-.93.1-.13.19-.25.28-.4.06-.1.2-.01.16.1-.05.1-.11.18-.17.27.43-.03.85-.04,1.24-.05,1.94-.06,3.88.15,5.8.34,1.99.19,3.98.36,5.97.21,1.65-.13,3.09-.61,4.48-1.5,1.23-.79,2.36-1.73,3.66-2.41,1.52-.8,3.25-1.3,4.98-1.18,1.65.12,3.19.73,4.71,1.35,1.57.63,3.16,1.14,4.82,1.44,1.67.3,3.39.43,5.08.25,1.69-.19,3.33-.81,4.93-1.37,1.64-.57,3.29-1.08,5.02-1.25,1.2-.12,2.41-.1,3.61-.22,4.14-.39,10.6-1.48,12.75,3.27Zm-1.32,3.52c1.06-1.92-.43-4.21-2.21-5.02-2.02-.91-4.47-.71-6.62-.53-1.11.1-2.21.23-3.32.32-1.28.11-2.57.06-3.83.29-3.23.61-6.17,2.29-9.48,2.54-3.13.23-6.41-.41-9.32-1.57-1.46-.58-2.96-1.28-4.54-1.46-1.62-.19-3.23.26-4.64,1.03-1.26.69-2.37,1.61-3.57,2.38-1.24.8-2.58,1.35-4.04,1.55-3.74.51-7.45-.28-11.18-.43-1.4-.06-3.02-.13-4.42.27-.28.27-.56.53-.84.79-1.08,1.03-1.87,2.26-2.13,3.76-.14.81.02,1.5.48,2.18.3.44.65.83.87,1.33.59,1.37,0,2.68-.47,3.98-.26.69-.33,1.32,0,2,.27.58.7,1.1,1.11,1.58.96,1.11,2.05,2.3,3.36,2.99,1.4.73,3.02.79,4.52.39,2.89-.77,5.12-3.01,8.06-3.64,1.54-.33,3.13-.3,4.64.18,1.41.45,2.69,1.22,4.04,1.82,1.55.69,3.28,1.03,4.94,1.4,1.84.4,3.72.68,5.62.54,1.59-.13,3.16-.5,4.66-1.06,1.44-.54,2.78-1.45,4.26-1.85,1.48-.41,3.03-.25,4.54-.34,1.27-.08,2.82-.46,3.37-1.76.41-.98-.05-2.1.01-3.12.07-1.46.95-2.4,2.13-3.16,2.68-1.73,5.06-3.8,8.32-4.29,2.05-.31,4.62-1.15,5.68-3.09Z"/><path class="cls-1" d="m563.41,201.71c1.78.81,3.27,3.1,2.21,5.02-1.06,1.94-3.63,2.78-5.68,3.09-3.26.49-5.64,2.56-8.32,4.29-1.18.76-2.06,1.7-2.13,3.16-.06,1.02.4,2.14-.01,3.12-.55,1.3-2.1,1.68-3.37,1.76-1.51.09-3.06-.07-4.54.34-1.48.4-2.82,1.31-4.26,1.85-1.5.56-3.07.93-4.66,1.06-1.9.14-3.78-.14-5.62-.54-1.66-.37-3.39-.71-4.94-1.4-1.35-.6-2.63-1.37-4.04-1.82-1.51-.48-3.1-.51-4.64-.18-2.94.63-5.17,2.87-8.06,3.64-1.5.4-3.12.34-4.52-.39-1.31-.69-2.4-1.88-3.36-2.99-.41-.48-.84-1-1.11-1.58-.33-.68-.26-1.31,0-2,.48-1.3,1.06-2.61.47-3.98-.22-.5-.57-.89-.87-1.33-.46-.68-.62-1.37-.48-2.18.26-1.5,1.05-2.73,2.13-3.76.28-.26.56-.52.84-.79,1.4-.4,3.02-.33,4.42-.27,3.73.15,7.44.94,11.18.43,1.46-.2,2.8-.75,4.04-1.55,1.2-.77,2.31-1.69,3.57-2.38,1.41-.77,3.02-1.22,4.64-1.03,1.58.18,3.08.88,4.54,1.46,2.91,1.16,6.19,1.8,9.32,1.57,3.31-.25,6.25-1.93,9.48-2.54,1.26-.23,2.55-.18,3.83-.29,1.11-.09,2.21-.22,3.32-.32,2.15-.18,4.6-.38,6.62.53Z"/><path class="cls-1" d="m468.58,142.98c.51.28,1.05.5,1.51.71,1.47.65,3.19,1.31,4.16,2.68.71.99.69,2.17.53,3.33-.16,1.15-.39,2.37.38,3.37.6.77,1.55.83,2.44.7,1.06-.15,2.26-.46,3.18-1.02.88-.54,1.46-1.4,2.12-2.15.85-.96,1.88-1.79,3.12-2.17,1.28-.39,2.63-.24,3.92-.04,1.18.18,2.37.3,3.55.5,3.51.59,8.73,2.71,11.25-1.01.5-.75.61-1.72,1.19-2.41.75-.89,1.9-1.13,3-1.18,1.16-.05,2.21-.39,2.7-1.55.41-.97.5-2.21.63-3.25.16-1.22.03-2.39-.3-3.56-.34-1.21-.8-2.4-1-3.65-.18-1.12-.03-2.3-.31-3.39-.29-1.11-1.24-1.88-2.26-2.32-2.11-.89-4.61-.4-6.77-.01-2.19.4-4.44.93-6.67.6-2.19-.32-4.25-1.21-6.42-1.65-2.05-.42-4.39-.36-5.59,1.64-.59,1.01-1.02,1.97-2.11,2.54-.95.49-2.05.7-3.08.91-2.75.55-5.7.31-8.05,2.08-1.83,1.38-2.17,3.39-2.42,5.52-.09.71-.28,1.56-.05,2.24.25.74,1.07,1.27,1.71,1.69.44.28.16.99-.36.85Zm44.66-8.04c.36,1.21.64,2.44.6,3.71-.05,1.25-.27,2.61-.56,3.83-.28,1.17-.93,2.16-1.99,2.78-.61.36-1.28.47-1.98.51-.6.04-1.19.01-1.73.3-.83.42-.87,1.36-1.27,2.11-.57,1.05-1.47,1.97-2.52,2.53-1.97,1.04-4.26.86-6.38.49-1.13-.2-2.24-.47-3.36-.7-1.16-.24-2.33-.33-3.5-.52-1.35-.22-2.78-.53-4.14-.12-1.29.38-2.18,1.43-3.02,2.43-.76.91-1.57,1.67-2.68,2.13-1.07.45-2.29.77-3.45.86-2.65.19-4.29-2.02-4.03-4.54.12-1.12.61-2.5-.06-3.53-.45-.7-1.26-1.16-1.98-1.54-1.47-.77-3.17-1.32-4.39-2.49-.63-.61-.91-1.32-.95-2.07-.27-.61-.29-1.31-.23-1.97.1-1.14.19-2.32.45-3.44.54-2.34,2.07-4.15,4.23-5.17,2.72-1.3,5.86-1.02,8.73-1.83.58-.16,1.14-.33,1.59-.75.38-.36.58-.84.83-1.29.58-1.09,1.46-1.96,2.6-2.45,2.21-.94,4.72-.32,6.92.31,1.17.34,2.32.72,3.5.99,1.09.24,2.16.26,3.27.15,2.49-.26,4.91-.98,7.42-1.08,2.39-.08,5.19.59,6.49,2.81.62,1.05.64,2.26.69,3.44.06,1.43.49,2.75.9,4.11Z"/><path class="cls-1" d="m511.96,135.93c.33,1.17.46,2.34.3,3.56-.13,1.04-.22,2.28-.63,3.25-.49,1.16-1.54,1.5-2.7,1.55-1.1.05-2.25.29-3,1.18-.58.69-.69,1.66-1.19,2.41-2.52,3.72-7.74,1.6-11.25,1.01-1.18-.2-2.37-.32-3.55-.5-1.29-.2-2.64-.35-3.92.04-1.24.38-2.27,1.21-3.12,2.17-.66.75-1.24,1.61-2.12,2.15-.92.56-2.12.87-3.18,1.02-.89.13-1.84.07-2.44-.7-.77-1-.54-2.22-.38-3.37.16-1.16.18-2.34-.53-3.33-.97-1.37-2.69-2.03-4.16-2.68-.46-.21-1-.43-1.51-.71.52.14.8-.57.36-.85-.64-.42-1.46-.95-1.71-1.69-.23-.68-.04-1.53.05-2.24.25-2.13.59-4.14,2.42-5.52,2.35-1.77,5.3-1.53,8.05-2.08,1.03-.21,2.13-.42,3.08-.91,1.09-.57,1.52-1.53,2.11-2.54,1.2-2,3.54-2.06,5.59-1.64,2.17.44,4.23,1.33,6.42,1.65,2.23.33,4.48-.2,6.67-.6,2.16-.39,4.66-.88,6.77.01,1.02.44,1.97,1.21,2.26,2.32.28,1.09.13,2.27.31,3.39.2,1.25.66,2.44,1,3.65Z"/><path class="cls-1" d="m481.48,68.09c1.1,1.16,2.78,2.47,2.31,4.29-.23.86-.85,1.58-1.38,2.27-.61.78-1.08,1.64-1.55,2.5-.93,1.68-1.96,3.54-3.99,3.99-.91.19-1.85.15-2.78.21-1.06.06-2.12.35-3.1.76-1.76.76-3.16,2.23-5.02,2.76-1.02.29-2.06.24-3.1.11-1.06-.13-2.1-.24-3.1.2-1.38.6-2.23,1.87-3.09,3.04-.9,1.24-1.87,2.42-3.32,3.02-2.05.84-4.33.44-6.4-.1-1.06-.28-2.12-.59-3.2-.79-1.18-.21-2.4-.3-3.6-.32-1.16-.03-2.34.15-3.5-.01-.87-.13-1.67-.48-2.52-.71-.72-.19-1.46-.3-2.19-.37-1.01.08-2.02.13-3.04.22-1.11.11-2.18.51-3.28.66-.97.14-1.85.02-2.74-.37-.95-.41-1.79-1.02-2.61-1.64-.77-.58-1.41-1.18-1.91-2.02-.41-.7-.71-1.5-1.28-2.08-.71-.72-1.69-.67-2.63-.7-3.56-.09-6.63-2.96-6.74-6.58-.03-.88.14-1.77.47-2.59.34-.88.87-1.69,1.12-2.59.52-1.92-1.47-3.22-1.15-5.13.49-2.97,3.48-4.62,6.07-5.5,1.36-.46,2.76-.76,4.18-.96,1.38-.19,2.65-.1,4.02.16,1.48.29,3.03.74,4.54.56,1.65-.19,2.74-1.65,2.3-3.3-.42-1.59-1.67-3.24-.69-4.87.41-.7,1.07-1.25,1.63-1.83.73-.76,1.42-1.57,2.21-2.28,1.65-1.46,3.58-1.88,5.66-2.41,2.18-.56,3.95-1.91,6.04-2.68,2.17-.79,4.56-.95,6.85-1,2.06-.03,4.14-.04,6.17.29,1.86.31,3.64.97,5.22,1.98.86.56,1.69,1.15,2.28,2,.27.39.5.83.88,1.11.36.25.79.38,1.19.54.86.36,1.54.88,1.92,1.75.37.86.34,1.79.31,2.71-.04.84-.08,1.72.42,2.45.32.48.81.79,1.34.98,2.73.97,6.11.03,8.24,2.45,1.3,1.48,1.44,3.34,1.39,5.23-.03.92-.13,1.91.09,2.82.17.71.57,1.25,1.06,1.77Zm.47,4.73c.37-.56.6-1.06.27-1.69-.41-.78-1.18-1.37-1.78-2-1.15-1.23-1.61-2.54-1.61-4.23s.36-3.68-.63-5.2c-.82-1.26-2.19-1.64-3.6-1.82-2.56-.33-6.04-.23-6.96-3.28-.26-.86-.17-1.78-.15-2.66.02-.8.03-1.76-.66-2.3-.69-.55-1.64-.64-2.34-1.21-.69-.57-1-1.46-1.68-2.04-3.04-2.59-6.9-2.94-10.71-2.93-2.19,0-4.41.07-6.54.63-2.11.56-3.84,1.93-5.89,2.65-1.92.67-4.08.74-5.75,1.99-.82.62-1.5,1.41-2.19,2.15-.57.61-1.23,1.17-1.74,1.82-.39.52-.38.99-.2,1.59.29.98.82,1.88.98,2.9.26,1.63-.55,3.4-2.05,4.16-2.65,1.35-5.7-.25-8.43-.38-1.19-.06-2.42.2-3.57.46-1.39.31-2.77.74-4.03,1.4-1.12.59-2.2,1.38-2.79,2.54-.31.61-.47,1.27-.2,1.92.32.78.86,1.45,1.06,2.28.48,1.97-.87,3.47-1.4,5.25-.45,1.53-.14,3.19.79,4.48.98,1.36,2.55,2.22,4.22,2.29.89.03,1.8.02,2.64.38.77.33,1.33.97,1.76,1.67.44.72.74,1.53,1.28,2.18.59.7,1.44,1.24,2.2,1.75.81.54,1.7,1.04,2.71,1.01,1.03-.03,2.04-.38,3.06-.54.07-.01.14-.01.21-.02.05-.21.18-.39.43-.47.76-.24,1.53-.43,2.34-.41.85.01,1.73.17,2.56.32.32.05.63.14.94.22.15-.02.3-.03.44-.07.68-.15,1.37-.26,1.93-.7.24-.19.56.11.34.34-.35.38-.77.66-1.23.87.01.01.03.01.04.02.96.3,1.85.22,2.84.2,2.25-.05,4.54.15,6.72.73,2.03.55,4.21,1.39,6.34.96,1.49-.3,2.47-1.29,3.35-2.47.87-1.18,1.71-2.4,2.94-3.24.7-.47,1.51-.79,2.35-.91,1.03-.14,2.02.07,3.05.16.94.08,1.87,0,2.73-.43.79-.38,1.49-.92,2.22-1.39,1.71-1.1,3.68-1.78,5.72-1.88.87-.05,1.79.02,2.63-.27.9-.31,1.47-1.14,1.94-1.92.51-.81.93-1.66,1.41-2.48.5-.85,1.16-1.57,1.69-2.38Z"/><path class="cls-1" d="m482.22,71.13c.33.63.1,1.13-.27,1.69-.53.81-1.19,1.53-1.69,2.38-.48.82-.9,1.67-1.41,2.48-.47.78-1.04,1.61-1.94,1.92-.84.29-1.76.22-2.63.27-2.04.1-4.01.78-5.72,1.88-.73.47-1.43,1.01-2.22,1.39-.86.43-1.79.51-2.73.43-1.03-.09-2.02-.3-3.05-.16-.84.12-1.65.44-2.35.91-1.23.84-2.07,2.06-2.94,3.24-.88,1.18-1.86,2.17-3.35,2.47-2.13.43-4.31-.41-6.34-.96-2.18-.58-4.47-.78-6.72-.73-.99.02-1.88.1-2.84-.2-.01-.01-.03-.01-.04-.02.46-.21.88-.49,1.23-.87.22-.23-.1-.53-.34-.34-.56.44-1.25.55-1.93.7-.14.04-.29.05-.44.07-.31-.08-.62-.17-.94-.22-.83-.15-1.71-.31-2.56-.32-.81-.02-1.58.17-2.34.41-.25.08-.38.26-.43.47-.07.01-.14.01-.21.02-1.02.16-2.03.51-3.06.54-1.01.03-1.9-.47-2.71-1.01-.76-.51-1.61-1.05-2.2-1.75-.54-.65-.84-1.46-1.28-2.18-.43-.7-.99-1.34-1.76-1.67-.84-.36-1.75-.35-2.64-.38-1.67-.07-3.24-.93-4.22-2.29-.93-1.29-1.24-2.95-.79-4.48.53-1.78,1.88-3.28,1.4-5.25-.2-.83-.74-1.5-1.06-2.28-.27-.65-.11-1.31.2-1.92.59-1.16,1.67-1.95,2.79-2.54,1.26-.66,2.64-1.09,4.03-1.4,1.15-.26,2.38-.52,3.57-.46,2.73.13,5.78,1.73,8.43.38,1.5-.76,2.31-2.53,2.05-4.16-.16-1.02-.69-1.92-.98-2.9-.18-.6-.19-1.07.2-1.59.51-.65,1.17-1.21,1.74-1.82.69-.74,1.37-1.53,2.19-2.15,1.67-1.25,3.83-1.32,5.75-1.99,2.05-.72,3.78-2.09,5.89-2.65,2.13-.56,4.35-.63,6.54-.63,3.81-.01,7.67.34,10.71,2.93.68.58.99,1.47,1.68,2.04.7.57,1.65.66,2.34,1.21.69.54.68,1.5.66,2.3-.02.88-.11,1.8.15,2.66.92,3.05,4.4,2.95,6.96,3.28,1.41.18,2.78.56,3.6,1.82.99,1.52.63,3.49.63,5.2s.46,3,1.61,4.23c.6.63,1.37,1.22,1.78,2Z"/><path class="cls-1" d="m385.25,170c.45,0,.85.58.44,1.01-.58.61-1.17,1.17-1.85,1.68-.45.35-.91.71-1.1,1.27-.2.59-.15,1.25-.02,1.88.19.31.45.62.82.9.21.17-.06.47-.27.36-.09-.05-.16-.1-.24-.15.31,1,.72,1.98.87,3.02.14.99-.06,1.93-.04,2.92.01.95.48,1.79,1.23,2.38.65.51,1.41.86,2.05,1.4.72.6,1.17,1.36,1.53,2.21.62,1.47.91,3.02,2.34,3.95,1.64,1.05,3.36,1.14,5.21.73,1.83-.4,3.6-.85,5.49-.6,1,.14,1.98.54,2.99.59,1.08.05,2.03-.44,2.99-.86,1.74-.76,3.81-1.22,5.52-.1,1.36.89,1.8,2.53,2.93,3.63,1.4,1.36,3.65,1.83,5.53,1.88,3.81.11,7.08-2.29,10.73-2.99,1.41-.27,3.44-.43,4.31-1.76.43-.66.56-1.43.82-2.17.32-.9.81-1.66,1.57-2.24,1.68-1.31,3.82-1.56,5.89-1.56s4.12.07,6.12-.78c2.09-.88,4.08-1.97,6.12-2.96,2-.97,4.05-1.68,6.13-2.45,1.88-.7,3.56-1.77,4.58-3.54.33-.57.55-1.19.16-1.79-.44-.66-1.2-1.11-1.83-1.58-1.18-.86-1.98-2.07-2.75-3.3-.68-1.11-1.4-2.35-2.61-2.93-1.68-.82-3.19.06-4.72.75-1.87.84-3.77.71-5.63-.11-1.88-.84-3.19-2.3-4.23-4.04-.49-.81-.95-1.64-1.62-2.32-.74-.77-1.71-1.35-2.65-1.83-.95-.49-1.99-.84-3.07-.9-1.16-.05-2.32.18-3.48.3-1.11.12-2.18.1-3.26-.2-.94-.26-1.82-.67-2.77-.92-1.61-.42-3.35.06-4.94-.54-1.54-.59-2.68-2.18-1.89-3.8.11-.22.31-.47.32-.73.01-.12-.03-.25-.07-.36-.08-.17.04-.03-.11-.11-.35-.18-.75-.27-1.1-.48-.38-.23-.75-.48-1.14-.69-1.74-.92-3.61-.36-5.43.02-2.18.46-4.37.89-6.55,1.35-1.98.42-4.12.85-5.92,1.81-2.82,1.5-3.57,4.96-6.24,6.65-.79.5-1.68.75-2.55,1.09-.81.32-1.59.76-2.26,1.33-.79.66-1.42,1.48-2.15,2.19-.81.77-1.7,1.43-2.58,2.11-.46.36-1.03.83-1.62,1.38Zm82.5,3.74c1.28.98,2.33,2.19,1.66,3.88-1.69,4.28-6.65,4.9-10.33,6.6-2.14.99-4.2,2.16-6.35,3.15-1.05.48-2.1.98-3.24,1.2-1.05.2-2.12.23-3.19.23-2.14-.01-4.58-.15-6.34,1.29-.72.58-.99,1.36-1.24,2.21-.26.89-.59,1.74-1.22,2.43-1.15,1.26-3.12,1.52-4.7,1.83-1.92.36-3.67,1.11-5.47,1.83-1.88.75-3.82,1.31-5.86,1.22-2.01-.09-4.21-.59-5.83-1.84-.79-.6-1.36-1.37-1.88-2.2-.37-.59-.73-1.26-1.32-1.67-1.83-1.23-3.88.18-5.62.82-1.08.4-2.14.44-3.26.21-1.05-.22-2.04-.53-3.13-.52-1.86.01-3.6.73-5.44.92-1.99.2-4.06-.46-5.56-1.79-1.31-1.17-1.56-2.84-2.28-4.35-.4-.86-.98-1.42-1.77-1.93-.76-.48-1.52-.95-2.08-1.67-.67-.85-.98-1.89-.94-2.97.03-1.05.2-2.02-.07-3.06-.49-1.97-1.69-4.12-.89-6.18.06-.16.14-.31.23-.45.49-1.45,1.61-2.71,2.69-3.75,1.66-1.59,3.59-2.81,5.13-4.54,1.31-1.48,2.83-2.5,4.7-3.16,1.68-.59,2.81-1.62,3.8-3.08.9-1.34,1.74-2.7,3.05-3.69,1.61-1.22,3.74-1.75,5.68-2.23,2.21-.54,4.46-.94,6.68-1.45,2.01-.45,4.27-1.29,6.35-.86.89.19,1.71.66,2.47,1.13.62.39,1.54.54,1.95,1.19.42.69.4,1.5.07,2.22-.31.65-.53.97.04,1.59,1.12,1.23,3.35.67,4.81.87,1.06.14,2.03.57,3.03.9,1.12.37,2.15.44,3.32.33,1.23-.13,2.46-.38,3.7-.3,1.1.07,2.15.38,3.16.83,2.01.9,3.68,2.24,4.84,4.12.52.83.97,1.73,1.61,2.48.71.82,1.6,1.47,2.59,1.9.94.41,2.07.69,3.09.49.92-.18,1.73-.69,2.58-1.06,1.6-.7,3.46-.78,4.98.17,1.26.78,2.05,2.07,2.81,3.3.38.62.74,1.25,1.2,1.81.51.64,1.14,1.1,1.79,1.6Z"/><path class="cls-1" d="m468.1,175.86c.39.6.17,1.22-.16,1.79-1.02,1.77-2.7,2.84-4.58,3.54-2.08.77-4.13,1.48-6.13,2.45-2.04.99-4.03,2.08-6.12,2.96-2,.85-3.99.78-6.12.78s-4.21.25-5.89,1.56c-.76.58-1.25,1.34-1.57,2.24-.26.74-.39,1.51-.82,2.17-.87,1.33-2.9,1.49-4.31,1.76-3.65.7-6.92,3.1-10.73,2.99-1.88-.05-4.13-.52-5.53-1.88-1.13-1.1-1.57-2.74-2.93-3.63-1.71-1.12-3.78-.66-5.52.1-.96.42-1.91.91-2.99.86-1.01-.05-1.99-.45-2.99-.59-1.89-.25-3.66.2-5.49.6-1.85.41-3.57.32-5.21-.73-1.43-.93-1.72-2.48-2.34-3.95-.36-.85-.81-1.61-1.53-2.21-.64-.54-1.4-.89-2.05-1.4-.75-.59-1.22-1.43-1.23-2.38-.02-.99.18-1.93.04-2.92-.15-1.04-.56-2.02-.87-3.02.08.05.15.1.24.15.21.11.48-.19.27-.36-.37-.28-.63-.59-.82-.9-.13-.63-.18-1.29.02-1.88.19-.56.65-.92,1.1-1.27.68-.51,1.27-1.07,1.85-1.68.41-.43.01-1.01-.44-1.01.59-.55,1.16-1.02,1.62-1.38.88-.68,1.77-1.34,2.58-2.11.73-.71,1.36-1.53,2.15-2.19.67-.57,1.45-1.01,2.26-1.33.87-.34,1.76-.59,2.55-1.09,2.67-1.69,3.42-5.15,6.24-6.65,1.8-.96,3.94-1.39,5.92-1.81,2.18-.46,4.37-.89,6.55-1.35,1.82-.38,3.69-.94,5.43-.02.39.21.76.46,1.14.69.35.21.75.3,1.1.48.15.08.03-.06.11.11.04.11.08.24.07.36,0,.26-.21.51-.32.73-.79,1.62.35,3.21,1.89,3.8,1.59.6,3.33.12,4.94.54.95.25,1.83.66,2.77.92,1.08.3,2.15.32,3.26.2,1.16-.12,2.32-.35,3.48-.3,1.08.06,2.12.41,3.07.9.94.48,1.91,1.06,2.65,1.83.67.68,1.13,1.51,1.62,2.32,1.04,1.74,2.35,3.2,4.23,4.04,1.86.82,3.76.95,5.63.11,1.53-.69,3.04-1.57,4.72-.75,1.21.58,1.93,1.82,2.61,2.93.77,1.23,1.57,2.44,2.75,3.3.63.47,1.39.92,1.83,1.58Z"/><path class="cls-1" d="m431.62,223.91c1.83,1.57,3.85,4.07,2.64,6.57-.61,1.24-1.76,2.37-2.92,3.1-.86.55-1.83.77-2.85.65-1.1-.14-2.16-.51-3.26-.64-1.46-.19-2.81.26-4.19.66-1.41.41-2.75.56-4.22.48-1.29-.06-2.55-.28-3.56-1.16-.68-.59-.58-1.41-.77-2.21-.32-1.35-1.16-2.34-1.91-3.46-.41-.6-.77-1.27-.92-1.96-.27.13-.61.08-.66-.29-.18-1.27.15-2.5,1.11-3.39.82-.76,1.88-1.16,2.8-1.77,1.11-.73,2.05-1.69,3.15-2.43,1.17-.79,2.53-1.21,3.95-1.13,1.27.07,2.43.43,3.39,1.28.76.66,1.29,1.55,2.04,2.22.89.78,2.15,1.13,3.2,1.63,1.07.49,2.08,1.08,2.98,1.85Zm.3,7.51c.73-.76,1.56-1.74,1.37-2.87-.19-1.19-1.19-2.25-2.01-3.06-.75-.75-1.61-1.34-2.56-1.82-.99-.5-2.03-.89-3.04-1.36-.85-.4-1.52-1.04-2.12-1.76-.57-.67-1.11-1.4-1.93-1.79-1-.47-2.29-.49-3.33-.17-1.95.59-3.32,2.4-5.03,3.43-.68.41-1.46.72-2.06,1.25-.12.1-.21.23-.31.35-.35.58-.57,1.21-.45,1.88.24,1.3,1.42,2.37,2.15,3.42.72,1.01,1.01,2.04,1.21,3.24.16.91,1.46,1.2,2.25,1.28,1.23.13,2.49.14,3.7-.14,1.19-.29,2.34-.74,3.56-.93,1.19-.19,2.34-.04,3.5.21.82.18,1.68.48,2.53.4,1.04-.1,1.87-.85,2.57-1.56Z"/><path class="cls-1" d="m433.29,228.55c.19,1.13-.64,2.11-1.37,2.87-.7.71-1.53,1.46-2.57,1.56-.85.08-1.71-.22-2.53-.4-1.16-.25-2.31-.4-3.5-.21-1.22.19-2.37.64-3.56.93-1.21.28-2.47.27-3.7.14-.79-.08-2.09-.37-2.25-1.28-.2-1.2-.49-2.23-1.21-3.24-.73-1.05-1.91-2.12-2.15-3.42-.12-.67.1-1.3.45-1.88.1-.12.19-.25.31-.35.6-.53,1.38-.84,2.06-1.25,1.71-1.03,3.08-2.84,5.03-3.43,1.04-.32,2.33-.3,3.33.17.82.39,1.36,1.12,1.93,1.79.6.72,1.27,1.36,2.12,1.76,1.01.47,2.05.86,3.04,1.36.95.48,1.81,1.07,2.56,1.82.82.81,1.82,1.87,2.01,3.06Z"/><path class="cls-1" d="m405,229.94c.39,1.3,1.16,2.64,1.14,4.02-.02,1.39-1.07,2.16-2.15,2.83-.48.3-1.01.58-1.37,1.03-.45.56-.72,1.28-.95,1.95-.37,1.12-.6,2.27-.92,3.41-.27.93-.65,1.89-1.37,2.57-.84.8-2,1.11-3.14,1.13-1.43.04-2.72-.59-3.95-1.26-.6-.33-1.19-.68-1.82-.94-.62-.25-1.28-.38-1.94-.52-1.4-.31-2.76-.66-4.15-.18-1.22.42-2.44,1.05-3.75.66-.89-.27-1.51-.95-2.1-1.62-.35-.4-.72-.77-1.18-.95l-.72-.03c-1-.05-2.06-.17-3.01-.55-1.05-.42-1.75-1.27-2.27-2.26-.51-.98-.88-2.1-1.72-2.87-1.14-1.05-2.65-1.02-4.09-.78-1.32.21-2.64.33-3.96.49-.98.12-2.12.22-3.03-.27-.74-.39-.48-1.13-.51-1.8-.06-1.19-.57-2.32-.64-3.51-.08-1.31.58-2.5,1.48-3.4.89-.88,2.28-1.54,2.12-2.99-.08-.73-.31-1.43-.23-2.17.06-.57.26-1.13.5-1.65.42-.91,1.07-1.72,1.85-2.35,3.44-2.78,8.13-2.66,12.3-2.85,1.15-.05,2.37-.14,3.44.38,1.22.6,1.74,1.79,2.09,3.02.21.73.46,1.19,1.11,1.61.52.35,1.09.62,1.65.93,1.05.58,1.91,1.52,3.04,1.96,1.03.39,2.16,0,3.16-.31.86-.26,1.46-.58,2.27-.07.54.34,1.12.64,1.69.92.46.23.88.18,1.35,0,.89-.35,1.63-1.12,2.38-1.68.83-.63,1.8-1.26,2.88-1.28,1.03-.03,2.15.58,2.58,1.54.48,1.09.43,2.35.81,3.47.29.85.57,1.67.72,2.55.11.62.23,1.23.41,1.82Zm-.5,4.61c.35-.53.13-1.22-.05-1.77-.21-.62-.46-1.22-.66-1.84-.46-1.36-.58-2.79-1.03-4.15-.22-.63-.48-1.25-.6-1.91-.1-.55-.14-1.11-.27-1.65-.2-.89-.92-1.4-1.84-1.13-1.91.56-3.02,2.6-5.03,2.98-1.17.23-2.12-.41-3.11-.95-.19-.1-.45-.22-.61-.37,0,0,0,0,0,0-.34.1-1.13.37-1.2.39-1.05.31-2.16.6-3.26.37-1.06-.22-1.95-.92-2.8-1.55-.98-.74-2.15-1.16-3.12-1.91-.52-.4-.88-.86-1.12-1.47-.23-.58-.31-1.22-.59-1.78-.52-1.06-1.5-1.31-2.6-1.31s-2.21.06-3.32.09c-2,.05-4.01.25-5.94.82-1.78.53-3.62,1.45-4.57,3.12-.25.43-.45.91-.54,1.4-.12.66.11,1.33.19,1.98.17,1.38-.46,2.43-1.48,3.31-.85.74-1.92,1.51-2.09,2.72-.15,1.06.35,2.18.52,3.21.08.48.12.95.09,1.44.44.07.81.17,1.28.14.55-.04,1.1-.13,1.64-.19,1.31-.15,2.61-.36,3.92-.48,1.33-.12,2.67.13,3.77.92.95.69,1.52,1.67,1.99,2.72.43.94.81,1.98,1.72,2.56.71.46,1.64.64,2.48.82.79-.43,1.63-.52,2.39.02.18.13.34.27.48.42.09,0,.17,0,.25,0,.23-.02.27.29.12.4.27.32.54.64.85.91.83.72,1.78.46,2.72.1.67-.25,1.33-.53,2.04-.62.63-.09,1.24-.02,1.85.07,1.29.19,2.68.43,3.9.91,2.15.85,4.44,2.99,6.9,1.84.79-.37,1.19-1.13,1.46-1.93.32-1,.51-2.04.81-3.05.36-1.24.81-2.64,1.76-3.56.78-.77,2.11-1.1,2.71-2.02Z"/><path class="cls-1" d="m404.45,232.78c.18.55.4,1.24.05,1.77-.6.92-1.93,1.25-2.71,2.02-.95.92-1.4,2.32-1.76,3.56-.3,1.01-.49,2.05-.81,3.05-.27.8-.67,1.56-1.46,1.93-2.46,1.15-4.75-.99-6.9-1.84-1.22-.48-2.61-.72-3.9-.91-.61-.09-1.22-.16-1.85-.07-.71.09-1.37.37-2.04.62-.94.36-1.89.62-2.72-.1-.31-.27-.58-.59-.85-.91.15-.11.11-.42-.12-.4-.08,0-.16,0-.25,0-.14-.15-.3-.29-.48-.42-.76-.54-1.6-.45-2.39-.02-.84-.18-1.77-.36-2.48-.82-.91-.58-1.29-1.62-1.72-2.56-.47-1.05-1.04-2.03-1.99-2.72-1.1-.79-2.44-1.04-3.77-.92-1.31.12-2.61.33-3.92.48-.54.06-1.09.15-1.64.19-.47.03-.84-.07-1.28-.14.03-.49-.01-.96-.09-1.44-.17-1.03-.67-2.15-.52-3.21.17-1.21,1.24-1.98,2.09-2.72,1.02-.88,1.65-1.93,1.48-3.31-.08-.65-.31-1.32-.19-1.98.09-.49.29-.97.54-1.4.95-1.67,2.79-2.59,4.57-3.12,1.93-.57,3.94-.77,5.94-.82,1.11-.03,2.22-.09,3.32-.09s2.08.25,2.6,1.31c.28.56.36,1.2.59,1.78.24.61.6,1.07,1.12,1.47.97.75,2.14,1.17,3.12,1.91.85.63,1.74,1.33,2.8,1.55,1.1.23,2.21-.06,3.26-.37.07-.02.86-.29,1.2-.39,0,0,0,0,0,0,.16.15.42.27.61.37.99.54,1.94,1.18,3.11.95,2.01-.38,3.12-2.42,5.03-2.98.92-.27,1.64.24,1.84,1.13.13.54.17,1.1.27,1.65.12.66.38,1.28.6,1.91.45,1.36.57,2.79,1.03,4.15.2.62.45,1.22.66,1.84Z"/><path class="cls-1" d="m398.83,135.6c.75,1.23.79,2.87.23,4.18-.7,1.66-2.19,2.51-3.59,3.52-.43.31-.68.7-.94,1.17-.4.73-.78,1.46-1.28,2.13-.79,1.05-1.78,1.83-3.03,2.25-1.56.53-3.25.35-4.8.82-.91.27-1.73.76-2.6,1.14-.95.41-1.9.62-2.93.61-1-.01-1.96-.07-2.93.17-.92.22-1.78.61-2.63,1.02-1.78.85-3.55,1.69-5.57,1.74-1.89.04-3.68-.59-5.3-1.52-1.59-.9-3.19-1.96-4.62-3.1-1.39-1.12-2.61-2.47-4.22-3.28-1.89-.96-4.02-.61-6.02-.21-.49.1-1.01.2-1.53.28-.34.15-.68.29-1.06.38-.78.18-1.59.32-2.39.32s-1.57-.16-2.23-.61c-.74-.51-1.28-1.23-1.91-1.86-1.2-1.2-3.21-1.24-4.2-2.66-1.02-1.45-.41-2.92.91-3.86,1-.72,2.49-1.22,3.05-2.39.26-.54.39-1.15.58-1.72.29-.82.67-1.62,1.16-2.34.99-1.45,2.43-2.61,4.29-2.14.76.2,1.43.7,2.2.87.59.12,1.23-.06,1.8-.21.76-.2,1.52-.44,2.23-.78.51-.24,1.24-.61,1.41-1.19.17-.54-.22-1.28-.36-1.79-.24-.84-.51-1.67-.78-2.5-.55-1.67-1.13-3.48-.91-5.26.46-3.69,4.63-4.9,7.77-5.31,1.48-.19,3.01-.36,4.5-.2.34.04.69.08,1.03.11.14.01.27.02.41.03.06,0,.14-.01.17-.01.03-.04.08-.09.09-.12s.05-.13.06-.14c.07-.13.1-.28.17-.41.22-.39.57-.68.88-.99,1.16-1.14,2.39-2.25,4.14-2.09,2.04.2,3.45,1.64,5.12,2.66,1.84,1.11,4.06,1.34,6.06,2.02,2.01.68,3.9,1.72,5.98,2.2,2.47.58,5.13-.28,7.56.59,1.07.39,1.94,1.15,2.19,2.3.32,1.47-.22,2.95-.98,4.19-1.32,2.13-4.4,5.02-2.48,7.69,1.36,1.89,4.04,2.26,5.3,4.3Zm-1.45,4.4c.8-1.08.98-2.66.21-3.8-.58-.86-1.55-1.38-2.42-1.9-.97-.57-1.96-1.16-2.66-2.06-.86-1.08-1.14-2.48-.88-3.82.28-1.49,1.2-2.76,2.07-3.96.8-1.1,1.76-2.29,1.94-3.69.14-1.01-.16-1.87-1.15-2.27-1-.41-2.16-.39-3.22-.38-1.2.01-2.38.09-3.57-.09-2.03-.31-3.88-1.25-5.78-1.98-1.96-.76-4.05-1.07-6-1.84-.87-.34-1.65-.79-2.41-1.33-.74-.53-1.47-1.11-2.31-1.48-.74-.32-1.64-.48-2.4-.14-.67.3-1.2.87-1.71,1.38-.27.27-.62.54-.8.88-.16.3-.21.59-.46.84-.47.48-.98.54-1.6.48-.59-.05-1.18-.16-1.76-.19-.72-.04-1.45.03-2.16.07-1.65.12-3.32.37-4.87.98-1.42.55-2.85,1.5-3.1,3.12-.25,1.64.38,3.38.89,4.91.26.77.52,1.54.73,2.32.19.69.49,1.4.47,2.13-.03,1.39-1.35,2.29-2.51,2.79-1.25.54-2.77,1.11-4.16,1.07-1.41-.03-2.86-1.59-4.24-.77-1.34.79-2.02,2.51-2.47,3.92-.38,1.19-.8,2.07-1.82,2.85-.59.44-1.23.8-1.85,1.2-.43.27-1.11.65-1.14,1.22-.05.75.66,1.19,1.24,1.46.71.33,1.49.55,2.14,1,.27.18.51.41.75.65,1.04.56,1.84,1.48,2.91,1.98.15.07.3.12.46.17.69-.01,1.38-.11,2.06-.24.66-.12,1.41-.13,2.04-.38.33-.13.55.1.58.38.17-.04.34-.09.51-.13,1.86-.48,3.71-.91,5.57-.21,1.59.6,2.87,1.7,4.14,2.78,1.33,1.14,2.77,2.1,4.24,3.05,1.52.97,3.16,1.88,4.98,2.03,1.98.17,3.7-.54,5.45-1.38,1.64-.8,3.29-1.54,5.14-1.57.95-.02,1.91.11,2.84-.12.92-.23,1.75-.73,2.61-1.11.89-.4,1.77-.64,2.74-.73.74-.06,1.47-.13,2.2-.28,1.15-.23,2.15-.67,2.95-1.55.95-1.06,1.33-2.49,2.28-3.54.97-1.06,2.43-1.52,3.31-2.72Z"/><path class="cls-1" d="m397.59,136.2c.77,1.14.59,2.72-.21,3.8-.88,1.2-2.34,1.66-3.31,2.72-.95,1.05-1.33,2.48-2.28,3.54-.8.88-1.8,1.32-2.95,1.55-.73.15-1.46.22-2.2.28-.97.09-1.85.33-2.74.73-.86.38-1.69.88-2.61,1.11-.93.23-1.89.1-2.84.12-1.85.03-3.5.77-5.14,1.57-1.75.84-3.47,1.55-5.45,1.38-1.82-.15-3.46-1.06-4.98-2.03-1.47-.95-2.91-1.91-4.24-3.05-1.27-1.08-2.55-2.18-4.14-2.78-1.86-.7-3.71-.27-5.57.21-.17.04-.34.09-.51.13-.03-.28-.25-.51-.58-.38-.63.25-1.38.26-2.04.38-.68.13-1.37.23-2.06.24-.16-.05-.31-.1-.46-.17-1.07-.5-1.87-1.42-2.91-1.98-.24-.24-.48-.47-.75-.65-.65-.45-1.43-.67-2.14-1-.58-.27-1.29-.71-1.24-1.46.03-.57.71-.95,1.14-1.22.62-.4,1.26-.76,1.85-1.2,1.02-.78,1.44-1.66,1.82-2.85.45-1.41,1.13-3.13,2.47-3.92,1.38-.82,2.83.74,4.24.77,1.39.04,2.91-.53,4.16-1.07,1.16-.5,2.48-1.4,2.51-2.79.02-.73-.28-1.44-.47-2.13-.21-.78-.47-1.55-.73-2.32-.51-1.53-1.14-3.27-.89-4.91.25-1.62,1.68-2.57,3.1-3.12,1.55-.61,3.22-.86,4.87-.98.71-.04,1.44-.11,2.16-.07.58.03,1.17.14,1.76.19.62.06,1.13,0,1.6-.48.25-.25.3-.54.46-.84.18-.34.53-.61.8-.88.51-.51,1.04-1.08,1.71-1.38.76-.34,1.66-.18,2.4.14.84.37,1.57.95,2.31,1.48.76.54,1.54.99,2.41,1.33,1.95.77,4.04,1.08,6,1.84,1.9.73,3.75,1.67,5.78,1.98,1.19.18,2.37.1,3.57.09,1.06-.01,2.22-.03,3.22.38.99.4,1.29,1.26,1.15,2.27-.18,1.4-1.14,2.59-1.94,3.69-.87,1.2-1.79,2.47-2.07,3.96-.26,1.34.02,2.74.88,3.82.7.9,1.69,1.49,2.66,2.06.87.52,1.84,1.04,2.42,1.9Z"/></svg>