<?xml version="1.0" encoding="UTF-8"?><svg id="Tree_07_-_Leaves_03" xmlns="http://www.w3.org/2000/svg" viewBox="0 0 1160 418.25"><defs><style>.cls-1{fill:#c6d604;stroke-width:0px;}</style></defs><path class="cls-1" d="m522.05,162.27c.65-.09,1.24-.21,1.91-.12.7.09,1.41.24,2.08.47,1,.35,2.37.98,2.85,1.97.97,1.94,2.18,3.64,3.92,4.96.89.67,1.86,1.07,2.83,1.62.56.31.9.71,1.25,1.24.33.5.77.98.98,1.55.24.65-.02,1.36-.17,2-.16.67-.34,1.34-.48,2.02-.1.43-.14.86,0,1.28.16.51.52.96.77,1.44.44.85.95,1.54,1.8,2.01.78.43,1.66.63,2.53.81.91.18,1.84.32,2.72.67,1.13.46,1.49,1.38,1.9,2.46.18.48.65,1.08.54,1.61-.12.57-.73,1.14-1.2,1.44-.99.6-2.24.57-3.35.48-1.39-.11-2.82.21-4.18-.17-1.16-.31-2.12-.72-3.34-.43-1.2.29-2.25.94-3.34,1.51-.55.29-1.14.62-1.76.75-.76.15-1.52-.05-2.26-.18-1.24-.22-2.5-.1-3.75-.35-1.17-.24-2.33-.76-3.54-.74-1.25.02-2.52.51-3.7.86-1.37.4-2.77.69-4.13,1.09-1.25.37-2.44.97-3.73,1.23-1.38.29-2.78.21-4.15-.05-.6-.1-1.21-.25-1.76-.51-.53-.26-.97-.64-1.43-.99-.5-.39-1.02-.72-1.44-1.22-.5-.58-.78-1.26-1.03-2-.36-1.08-.86-2.01-1.48-2.97-.61-.95-1.25-1.87-2.12-2.6-.56-.48-1.04-.89-1.31-1.44-.2-.61-.3-1.11-.28-1.77.03-.75.08-1.51.02-2.26-.1-1.18-.2-2.47-.54-3.61-.18-.59-.47-1.14-.69-1.71-.2-.53-.56-1.05-.71-1.59-.16-.57.41-1.04.71-1.44.33-.47.59-.94,1.01-1.34.95-.89,2.13-1.58,3.39-1.91,1.23-.31,2.53-.31,3.73-.68,1.05-.32,1.89-1.01,2.78-1.63.95-.67,1.93-1.3,2.98-1.81,1.18-.57,2.39-.89,3.71-.83.65.03,1.28-.06,1.93-.07.72-.02,1.36.13,2.02.38,1.18.45,2.29.79,3.55.85,1.29.06,2.67-.06,3.95-.23Z"/><path class="cls-1" d="m494.91,183.21c-.76-.67-1.14-1.5-1.13-2.51,0-.04.03-.06.04-.09,0-.08,0-.14,0-.23.02-.71.09-1.44.05-2.16-.04-.77-.17-1.53-.27-2.29-.1-.73-.21-1.42-.48-2.1-.25-.58-.46-1.21-.73-1.77-.2-.41-.53-.85-.53-1.32,0-.42.29-.77.54-1.07.32-.42.59-.88.92-1.29.71-.88,1.78-1.61,2.8-2.06,1.24-.55,2.59-.66,3.92-.88,1.32-.22,2.29-.82,3.35-1.6,1.88-1.39,4.12-2.88,6.54-2.97.68-.02,1.37.03,2.05-.02.66-.04,1.29-.04,1.93.12.66.17,1.25.48,1.89.68.67.23,1.39.34,2.1.39.76.05,1.5-.03,2.26-.08.72-.06,1.44-.08,2.16-.19,1.27-.2,2.52-.04,3.74.38.59.2,1.14.47,1.67.8.44.26.93.51,1.25.91.29.37.45.86.67,1.27.26.48.54.95.86,1.4.73,1.05,1.63,1.97,2.66,2.73.48.36,1,.69,1.54.96.5.25,1.03.45,1.49.77.43.29.71.67,1,1.1.32.48.7.91.96,1.44.51,1.05,0,2.28-.26,3.35-.17.69-.5,1.52-.28,2.23.18.58.61,1.15.9,1.68.55,1.01,1.41,1.6,2.48,1.94.95.29,1.94.43,2.91.66.86.2,1.86.47,2.44,1.17.65.77.95,1.89,1.34,2.8.41.95-.11,1.68-.85,2.3-.77.66-1.79.85-2.77.86-.62.02-1.23-.07-1.83-.09-.74,0-1.47.07-2.21.05-.66-.02-1.26-.14-1.89-.35-.69-.22-1.36-.45-2.1-.36-1.42.16-2.66,1-3.88,1.65-.59.31-1.21.67-1.86.79-.53.1-1.06.05-1.6-.04-.72-.12-1.41-.26-2.14-.25-.67,0-1.33-.06-1.99-.17-1.28-.22-2.54-.83-3.85-.83-1.5,0-3.04.63-4.48,1.02-1.44.39-2.91.72-4.32,1.22-1.29.45-2.47.96-3.86,1.06-1.24.1-2.51-.04-3.72-.31-.6-.14-1.19-.34-1.7-.67-.53-.32-.99-.75-1.49-1.1-.96-.67-1.62-1.54-2.02-2.63-.26-.68-.45-1.4-.81-2.04-.28-.5-.6-.98-.91-1.46-.36-.58-.75-1.14-1.21-1.64-.4-.45-.86-.79-1.31-1.18Zm-.44-1.28c.28.55.75.97,1.31,1.44.86.73,1.51,1.65,2.12,2.6.62.97,1.12,1.89,1.48,2.97.25.73.52,1.42,1.03,2,.42.49.93.83,1.44,1.22.46.35.89.73,1.43.99.55.27,1.16.41,1.76.51,1.38.26,2.78.33,4.15.05,1.28-.26,2.47-.86,3.73-1.23,1.37-.4,2.77-.69,4.13-1.09,1.18-.34,2.44-.84,3.7-.86,1.22-.02,2.38.5,3.54.74,1.25.26,2.51.13,3.75.35.74.13,1.5.33,2.26.18.62-.13,1.21-.46,1.76-.75,1.08-.57,2.14-1.22,3.34-1.51,1.22-.29,2.18.11,3.34.43,1.36.38,2.79.06,4.18.17,1.11.09,2.37.11,3.35-.48.47-.29,1.07-.86,1.2-1.44.1-.52-.36-1.12-.54-1.61-.41-1.08-.77-2.01-1.9-2.46-.87-.34-1.81-.48-2.72-.67-.86-.18-1.75-.38-2.53-.81-.85-.47-1.36-1.16-1.8-2.01-.25-.48-.61-.92-.77-1.44-.13-.43-.09-.86,0-1.28.13-.68.31-1.35.48-2.02.15-.64.41-1.35.17-2-.21-.57-.65-1.05-.98-1.55-.35-.52-.69-.92-1.25-1.24-.97-.54-1.94-.94-2.83-1.62-1.74-1.32-2.95-3.02-3.92-4.96-.48-.99-1.85-1.62-2.85-1.97-.67-.23-1.38-.38-2.08-.47-.67-.09-1.26.04-1.91.12-1.28.17-2.66.29-3.95.23-1.26-.06-2.38-.4-3.55-.85-.67-.25-1.3-.4-2.02-.38-.65,0-1.28.1-1.93.07-1.32-.07-2.53.26-3.71.83-1.05.5-2.03,1.14-2.98,1.81-.88.63-1.72,1.31-2.78,1.63-1.21.37-2.51.37-3.73.68-1.26.33-2.44,1.02-3.39,1.91-.42.4-.67.87-1.01,1.34-.3.41-.87.87-.71,1.44.15.54.51,1.05.71,1.59.23.57.51,1.12.69,1.71.34,1.14.45,2.43.54,3.61.06.75,0,1.51-.02,2.26-.03.66.08,1.16.28,1.77Z"/><path class="cls-1" d="m465.16,89.73c.83-.23,1.71-.1,2.57-.09.81.02,1.84.04,2.54.53.55.4.84,1.12,1.34,1.6.5.48.74,1.07,1.15,1.63.39.52.8,1.08,1.32,1.47.75.55,1.65.95,2.45,1.44.75.47,1.5.95,2.23,1.45.83.57,1.59,1.21,2.35,1.87.32.28.65.55.99.81.38.29.76.54.94,1,.04.1.1.11.18.11.23.5.57.92.86,1.43.47.8.84,1.66,1.25,2.48.37.75.8,1.41,1.44,1.95.76.65,1.39,1.25,1.85,2.15.52.98.32,1.93.1,2.97-.08.41-.15.82-.25,1.22-.14.56-.56.58-1.07.62-.91.06-1.82.37-2.74.39-.49,0-1-.19-1.48-.3-.48-.12-.95-.27-1.44-.38-1.82-.43-3.54-.1-5.34.29-1.97.43-3.9.71-5.65-.47-.79-.53-1.52-1.13-2.34-1.62-.73-.44-1.47-.99-2.31-1.21-.43-.11-.88-.11-1.32-.2-.42-.09-.82-.22-1.25-.23-.95-.02-1.87.28-2.83.26-.54-.02-1.08-.09-1.63-.1-.46,0-.91.04-1.37,0-1.18-.09-1.88-1.12-2.56-1.98-.66-.81-1.43-1.49-2.1-2.28-.35-.41-.65-.86-1.03-1.25-.11-.11-.32-.29-.48-.46-.04-.05-.08-.1-.1-.14-.03-.06-.07-.1-.07-.15,0-.09-.07-.12-.13-.12-.2-.3-.38-.62-.45-.98-.14-.7-.15-1.5-.2-2.22-.06-.91.37-1.36,1.13-1.78.6-.33,1.15-.72,1.72-1.1.65-.45,1.31-.86,1.96-1.28.72-.48,1.46-.68,2.26-.99.49-.19.91-.45,1.23-.87.41-.55.68-1.16,1.14-1.68.43-.5.84-.99,1.19-1.55.5-.79,1.07-1.22,1.95-1.57.65-.27,1.32-.47,2-.65Z"/><path class="cls-1" d="m454.12,108.13c-.67-.73-1.34-1.44-1.95-2.22-.2-.26-.67-.62-.9-.98-.4-.42-.71-.9-.82-1.49-.12-.75-.15-1.57-.19-2.33-.04-.68.18-1.22.74-1.63.65-.48,1.4-.86,2.07-1.32.73-.5,1.48-.98,2.22-1.47.67-.43,1.34-.64,2.07-.9.49-.17.9-.38,1.22-.8.22-.29.37-.61.56-.91.42-.67,1.03-1.21,1.47-1.85.37-.53.66-1.13,1.19-1.53.6-.45,1.37-.72,2.08-.94.75-.24,1.52-.53,2.32-.5.86.03,1.74,0,2.59.11.67.09,1.42.25,1.92.74.22.22.39.48.56.73.23.33.49.59.78.86.54.54.86,1.31,1.33,1.91.59.75,1.25,1.17,2.08,1.63,1.6.89,3.16,1.83,4.61,2.97.7.56,1.35,1.19,2.05,1.75.4.32.84.58,1.06,1.01.03,0,.06.03.08.08.17.61.48,1.07.88,1.56.29.36.48.79.71,1.2.53.98.98,2.12,1.74,2.95.35.38.79.67,1.16,1.03.39.37.68.81.95,1.26.48.81.67,1.58.55,2.52-.08.6-.22,1.17-.35,1.75-.07.31-.1.67-.24.95-.27.5-.91.44-1.4.48-.95.09-1.98.49-2.94.39-1.01-.1-2-.58-2.98-.8-2.18-.5-4.29.34-6.42.67-.88.13-1.81.2-2.68,0-.9-.2-1.65-.72-2.39-1.27-.84-.63-1.71-1.2-2.61-1.73-.51-.3-1.03-.58-1.63-.67-.49-.08-.97-.15-1.46-.26-1.03-.22-2.01.14-3.04.2-1.02.05-2.04-.09-3.07-.09-.86,0-1.47-.24-2.09-.85-.67-.67-1.2-1.49-1.85-2.2Zm3.54-12.08c-.8.3-1.54.51-2.26.99-.65.43-1.31.84-1.96,1.28-.57.38-1.12.77-1.72,1.1-.76.42-1.19.86-1.13,1.78.05.72.06,1.52.2,2.22.07.36.25.67.45.98.07,0,.12.04.13.12,0,.05.04.1.07.15.03.05.07.1.1.14.15.17.36.34.48.46.38.39.67.85,1.03,1.25.67.79,1.44,1.47,2.1,2.28.67.86,1.38,1.89,2.56,1.98.46.03.91-.02,1.37,0,.55.02,1.09.09,1.63.1.96.02,1.88-.28,2.83-.26.44,0,.84.14,1.25.23.44.09.89.09,1.32.2.84.22,1.58.77,2.31,1.21.82.48,1.55,1.08,2.34,1.62,1.76,1.18,3.69.89,5.65.47,1.81-.39,3.52-.71,5.34-.29.48.11.96.26,1.44.38.48.11.99.3,1.48.3.91-.02,1.82-.33,2.74-.39.51-.04.93-.06,1.07-.62.1-.4.17-.81.25-1.22.22-1.04.42-1.99-.1-2.97-.47-.89-1.09-1.5-1.85-2.15-.65-.54-1.07-1.2-1.44-1.95-.42-.82-.79-1.68-1.25-2.48-.29-.5-.63-.92-.86-1.43-.08,0-.14-.02-.18-.11-.18-.46-.56-.7-.94-1-.34-.26-.67-.53-.99-.81-.76-.67-1.52-1.3-2.35-1.87-.73-.5-1.48-.99-2.23-1.45-.8-.48-1.7-.88-2.45-1.44-.52-.39-.93-.95-1.32-1.47-.41-.55-.65-1.14-1.15-1.63-.5-.48-.79-1.2-1.34-1.6-.69-.49-1.73-.51-2.54-.53-.86-.02-1.74-.14-2.57.09-.67.18-1.35.38-2,.65-.87.35-1.44.78-1.95,1.57-.35.56-.76,1.05-1.19,1.55-.46.52-.73,1.13-1.14,1.68-.31.43-.73.68-1.23.87Z"/><path class="cls-1" d="m400.54,224.85c-.55-.11-1.33-.4-1.74-.79-.38-.35-.54-.48-1.05-.54-.6-.07-1.22-.42-1.8-.59-.33-.1-.67-.23-.86-.55-.16-.26-.22-.57-.33-.85-.27-.6-.71-1.09-1.16-1.56-.02-.02-.04,0-.06-.02-.12-.15-.26-.31-.39-.46-.45-.48-.95-1-.92-1.68.03-.57.18-1.03.11-1.61-.13-1.26-.48-2.67.23-3.85.24-.41.71-.5,1.11-.69.41-.2.79-.46,1.13-.76.67-.6,1.12-1.36,1.44-2.2.44-1.16,1.29-1.95,2.21-2.73.9-.77,2.19-1.29,3.29-1.7,1.11-.42,2.49-.56,3.65-.25,1.19.32,2.03,1.32,2.77,2.25.36.47.21.98.41,1.49.12.31.34.55.63.72,1.28.72,6.1.67,4.52,3.32-.27.45-.45.91-.69,1.36-.29.53-.72.75-1.18,1.1-.73.57-1.31,1.53-1.66,2.38-.21.52-.4,1.05-.7,1.51-.34.52-.75,1.01-1.13,1.5-.37.49-.69,1-1.21,1.35-.46.32-.94.61-1.44.85-.58.28-1.15.51-1.67.88-.48.35-.91.75-1.34,1.17-.61.61-1.26,1.12-2.18.93Z"/><path class="cls-1" d="m408.18,206.29c-.73-.93-1.58-1.93-2.77-2.25-1.16-.31-2.54-.17-3.65.25-1.1.41-2.39.93-3.29,1.7-.92.78-1.78,1.57-2.21,2.73-.32.84-.77,1.6-1.44,2.2-.34.3-.72.56-1.13.76-.4.19-.87.29-1.11.69-.7,1.18-.36,2.59-.23,3.85.07.58-.09,1.04-.11,1.61-.03.68.48,1.21.92,1.68.13.14.27.3.39.46.02,0,.04,0,.06.02.45.47.89.96,1.16,1.56.11.28.17.59.33.85.19.32.52.45.86.55.58.17,1.2.52,1.8.59.51.06.67.19,1.05.54.41.39,1.19.67,1.74.79.91.19,1.57-.32,2.18-.93.43-.42.86-.82,1.34-1.17.52-.37,1.09-.61,1.67-.88.49-.24.98-.52,1.44-.85.51-.35.84-.86,1.21-1.35.38-.49.79-.98,1.13-1.5.3-.47.49-.99.7-1.51.35-.85.93-1.81,1.66-2.38.46-.35.88-.57,1.18-1.1.25-.45.43-.91.69-1.36,1.58-2.65-3.24-2.59-4.52-3.32-.29-.17-.5-.41-.63-.72-.2-.51-.05-1.03-.41-1.49Zm-4.22,16.88c-.83.67-1.52,1.81-2.62,2.03-.89.18-2.11-.3-2.76-.92-.48-.46-1.18-.48-1.8-.71-.48-.17-1-.24-1.44-.46-.45-.21-.65-.53-.8-.99-.1-.28-.23-.51-.36-.75-.27-.43-.54-.86-.86-1.24-.39-.48-.86-.88-1.16-1.43-.3-.54-.21-.95-.11-1.53.13-.8-.11-1.61-.19-2.39-.08-.92,0-2.47.89-3.02.5-.32,1.08-.48,1.57-.84.56-.42,1.02-.97,1.34-1.59.29-.53.42-1.13.75-1.64.29-.46.67-.88,1.07-1.24.44-.38.86-.8,1.34-1.11.5-.33,1.06-.56,1.61-.82,2.05-.99,4.66-1.58,6.61-.03.49.39.86.92,1.28,1.38.3.32.5.6.55,1.05.09.82.32,1.19,1.12,1.44.61.18,1.24.26,1.86.4.91.21,1.92.54,2.44,1.4.6.98-.2,1.88-.61,2.75-.23.48-.44.93-.86,1.26-.44.35-.88.6-1.25,1.05-.48.59-.82,1.21-1.11,1.91-.2.49-.41.98-.72,1.42-.37.53-.81,1.01-1.21,1.52-.35.44-.65.87-1.12,1.2-1.08.77-2.39,1.07-3.44,1.91Z"/><path class="cls-1" d="m553.46,104.47c2.26,2.14,5.08,5.62,3.55,8.94-1.15,2.5-4.46,2.76-6.85,2.74-1.69-.01-3.38-.15-5.07-.13-2.44.03-4.95.24-7.36-.12-1.81-.26-3.31-1.33-4.88-2.19-1.54-.84-3.06-1.2-4.73-.51-1.66.68-3.12,1.76-4.79,2.43-1.52.61-3.56.86-4.92-.27-1.15-.94-.93-3.15-2.65-3.4-.93-.13-1.89.12-2.83.09-.88-.03-1.82-.21-2.65-.53-1.69-.64-2.8-1.96-3.67-3.51-.83-1.47-1.62-3.05-3.49-3.26-1.03-.12-2.08.04-3.12-.01-1.09-.04-2.1-.37-3.13-.68-1.11-.34-2.16-.47-3.32-.41-.89.05-1.8.1-2.65-.21-1.51-.54-2.96-1.87-3.9-3.14-.74-.99-1.04-2.17-.33-3.18.17.42.45.76.97.97.02,0,.04,0,.06.02-.15.39-.01.84.39,1.37.83,1.14,2.33,2.55,3.77,2.79.87.14,1.78-.05,2.66-.04,1.08.02,2.1.3,3.13.61,1.02.31,1.97.53,3.04.51,1-.02,2.01-.11,3,.07,1.7.29,2.8,1.56,3.62,2.97.81,1.4,1.5,2.85,3,3.62.74.38,1.64.57,2.46.63.91.07,1.82-.15,2.73-.1.86.05,1.69.33,2.29.97.51.56.72,1.25.98,1.93.28.71.68,1.08,1.44,1.24.79.18,1.6.02,2.35-.24,1.62-.56,3.02-1.6,4.57-2.31,1.54-.71,3.12-.94,4.75-.36,1.6.56,2.95,1.64,4.49,2.32,1.92.86,4.24.65,6.29.62,2.02-.04,4.03-.06,6.05.04,1.24.06,2.5.09,3.74-.08,1.09-.15,2.38-.47,3.08-1.4.83-1.1.56-2.71.05-3.88-1.4-3.2-4.63-4.99-6.93-7.44-1.27-1.36-2.1-3.07-1.85-4.97.25-1.85,1.81-3.29,1.88-5.16.04-.97-.38-1.82-.83-2.66-.46-.85-.9-1.69-1.17-2.63-.28-.97-.43-1.99-.73-2.96-.31-.98-.84-1.8-1.54-2.55-1.32-1.43-2.91-2.72-4.46-3.89-1.63-1.23-3.69-2.01-5.73-2.13-2.23-.14-4.45.43-6.67.07-1.66-.27-2.94-1.35-4.36-2.18-1.63-.95-3.48-1.7-5.38-1.89-.94-.1-1.9-.06-2.81.24-.82.26-1.51.76-2.17,1.3-.6.5-1.2.98-1.92,1.29-.91.39-1.89.46-2.86.5-.1,0-.19.01-.29.01.02-.04,0-.09-.05-.1-.84-.14-1.45-.45-2.08-1.02-.09-.08-.17-.16-.26-.25.04-.01.07-.01.11-.01,2.07-.11,4.26.22,5.97-1.16.66-.53,1.29-1.09,2.05-1.49.86-.46,1.8-.7,2.78-.79,2.05-.16,4.12.44,5.98,1.26.88.39,1.71.86,2.52,1.39.68.44,1.37.94,2.14,1.23,2.02.77,4.37.13,6.47.12,2.15-.01,4.33.57,6.2,1.65.91.53,1.69,1.21,2.5,1.87.81.67,1.63,1.33,2.4,2.05.73.68,1.44,1.42,1.99,2.26.57.89.88,1.9,1.11,2.92.24,1.04.43,2.1.89,3.07.43.91.98,1.75,1.32,2.71.71,2.05-.2,3.74-1.1,5.53-.45.9-.7,1.83-.51,2.84.18.93.68,1.73,1.3,2.43,1.2,1.33,2.67,2.39,3.97,3.62Z"/><path class="cls-1" d="m555.58,109.39c.51,1.17.78,2.78-.05,3.88-.7.93-1.99,1.25-3.08,1.4-1.24.17-2.5.14-3.74.08-2.02-.1-4.03-.08-6.05-.04-2.05.03-4.37.24-6.29-.62-1.54-.68-2.89-1.76-4.49-2.32-1.63-.58-3.21-.35-4.75.36-1.55.71-2.95,1.75-4.57,2.31-.75.26-1.56.42-2.35.24-.76-.16-1.16-.53-1.44-1.24-.26-.68-.47-1.37-.98-1.93-.6-.64-1.43-.92-2.29-.97-.91-.05-1.82.17-2.73.1-.82-.06-1.72-.25-2.46-.63-1.5-.77-2.19-2.22-3-3.62-.82-1.41-1.92-2.68-3.62-2.97-.99-.18-2-.09-3-.07-1.07.02-2.02-.2-3.04-.51-1.03-.31-2.05-.59-3.13-.61-.88-.01-1.79.18-2.66.04-1.44-.24-2.94-1.65-3.77-2.79-.4-.53-.54-.98-.39-1.37.71.26,1.47,0,2.21.01.85.01,1.69.07,2.53-.05.8-.11,1.46-.47,1.99-1.09.29-.34-.08-.9-.5-.65-1.45.85-3.07.4-4.64.56-.04,0-.09.01-.13.02.73-.37,1.51-.66,2.24-1.02.91-.45,1.87-1.07,2.22-2.07.39-1.12-.09-2.52-1.19-3.02-1.11-.49-2.87-.06-3.43-1.39-.18-.43-.34-.89-.45-1.36.42.03.86-.43.56-.85-.24-.33-.57-.76-.74-1.21.04-.38.12-.76.27-1.13.14-.36.34-.7.56-1.02.24-.23.48-.45.69-.67.43-.46.86-.97,1.33-1.41.02-.02.04-.04.06-.05.14-.13.29-.26.45-.38.75-.57,1.72-.51,2.61-.6.91-.08,1.78-.3,2.46-.93.59-.55.94-1.3,1.28-2.02.31-.67.62-1.39,1.23-1.84.71-.54,1.61-.8,2.47-1,1.79-.41,3.57-.5,5.39-.58.17.02.35.03.52.04.04,0,.06-.03.07-.06.1,0,.19-.01.29-.01.97-.04,1.95-.11,2.86-.5.72-.31,1.32-.79,1.92-1.29.66-.54,1.35-1.04,2.17-1.3.91-.3,1.87-.34,2.81-.24,1.9.19,3.75.94,5.38,1.89,1.42.83,2.7,1.91,4.36,2.18,2.22.36,4.44-.21,6.67-.07,2.04.12,4.1.9,5.73,2.13,1.55,1.17,3.14,2.46,4.46,3.89.7.75,1.23,1.57,1.54,2.55.3.97.45,1.99.73,2.96.27.94.71,1.78,1.17,2.63.45.84.87,1.69.83,2.66-.07,1.87-1.63,3.31-1.88,5.16-.25,1.9.58,3.61,1.85,4.97,2.3,2.45,5.53,4.24,6.93,7.44Z"/><path class="cls-1" d="m507.71,74.24s.07.06.05.1c-.2,0-.39.02-.59.02-.46-.05-.92-.14-1.35-.31-.58-.24-1.05-.63-1.53-1.01.37-.03.73-.06,1.08-.07.09.09.17.17.26.25.63.57,1.24.88,2.08,1.02Z"/><path class="cls-1" d="m507.76,74.34s-.03.06-.07.06c-.17-.01-.35-.02-.52-.04.2,0,.39-.01.59-.02Z"/><path class="cls-1" d="m505.82,74.05c.43.17.89.26,1.35.31-1.82.08-3.6.17-5.39.58-.86.2-1.76.46-2.47,1-.61.45-.92,1.17-1.23,1.84-.34.72-.69,1.47-1.28,2.02-.68.63-1.55.85-2.46.93-.89.09-1.86.03-2.61.6-.16.12-.31.25-.45.38-.02.01-.04.03-.06.05-.47.44-.9.95-1.33,1.41-.21.22-.45.44-.69.67-.22.32-.42.66-.56,1.02-.15.37-.23.75-.27,1.13.17.45.5.88.74,1.21.3.42-.14.88-.56.85.11.47.27.93.45,1.36.56,1.33,2.32.9,3.43,1.39,1.1.5,1.58,1.9,1.19,3.02-.35,1-1.31,1.62-2.22,2.07-.73.36-1.51.65-2.24,1.02-.31.05-.65.13-.95.06-.41-.11-.48-.44-.54-.78.63-.42,1.36-.71,2.02-1,.84-.37,2.03-.76,2.55-1.58.21-.35.22-.83.03-1.21-.28-.56-1.09-.56-1.63-.64-.74-.11-1.47-.26-2.06-.75-.59-.48-.82-1.17-1.02-1.88-.23-.83-.4-1.68-.38-2.51-.19-.33-.32-.67-.36-1.04-.07-.79.3-1.47.77-2.06.57-.72,1.27-1.36,1.9-2.03.6-.63,1.23-1.34,2.04-1.71.93-.43,1.92-.38,2.91-.5.98-.12,1.53-.56,1.99-1.42.4-.73.68-1.52,1.16-2.2.52-.72,1.25-1.21,2.06-1.56,1.42-.61,3.06-.91,4.64-1.06.48.38.95.77,1.53,1.01Z"/><path class="cls-1" d="m505.37,72.97c-.35.01-.71.04-1.08.07-.52-.41-1.04-.81-1.7-1.02-1.41-.43-2.96-.36-4.42-.52-.68-.08-1.35-.27-2.04-.22-.57.04-1.12.25-1.64.48-1.04.46-2.04.94-3.21.79-.75-.1-1.37-.46-2.07-.71-.34-.12-.83-.31-1.19-.14-.27.13-.44.46-.58.71-.24.4-.46.79-.74,1.15-.72.93-1.91,1.76-3.13,1.62-1.22-.13-2-1.28-3.28-.63-1.14.57-2.02,1.82-2.84,2.76-.98,1.14-1.92,2.34-2.64,3.66-.49.92-1.02,2.17-.46,3.18.42.76,1.38,1.07,2.16,1.33.92.29,1.89.51,2.73,1,1.16.67,1.39,1.75,1.38,3.02-.02,1.42.23,3.01-.46,4.32-.18.34-.56.88-.2,1.15.22.17.65.12.93.09,1.78-.2,4.04-1.47,5.77-.47.54.32.85.84.98,1.45l.03.15c-.29.19-.56.4-.79.66-.08.09-.15.18-.21.27-.11-.25-.18-.53-.25-.83-.12-.5-.43-.72-.92-.77-1.03-.11-2.13.31-3.11.56-.91.22-2.03.52-2.92.1-.41-.19-.71-.53-.87-.97-.26-.72.04-1.34.39-1.97.4-.72.36-1.58.32-2.38-.04-.74.07-1.5-.02-2.24-.14-1.04-1.28-1.32-2.15-1.59-.98-.31-2.04-.56-2.9-1.15-2.41-1.66-1.21-4.65.09-6.63.83-1.25,1.79-2.41,2.79-3.52.94-1.03,1.92-2.31,3.35-2.63.72-.16,1.41-.04,2.07.27.46.22.91.6,1.45.52,1.16-.16,1.8-1.22,2.34-2.13.47-.79,1.08-1.41,2.07-1.36,1.39.08,2.46,1.24,3.89.97,1.17-.22,2.14-.97,3.32-1.16.74-.12,1.41-.01,2.13.12.76.13,1.52.16,2.28.23,1.41.12,3.07.31,4.2,1.25.41.35.77.78,1.15,1.16Z"/><path class="cls-1" d="m502.59,72.02c.66.21,1.18.61,1.7,1.02-1.58.15-3.22.45-4.64,1.06-.81.35-1.54.84-2.06,1.56-.48.68-.76,1.47-1.16,2.2-.46.86-1.01,1.3-1.99,1.42-.99.12-1.98.07-2.91.5-.81.37-1.44,1.08-2.04,1.71-.63.67-1.33,1.31-1.9,2.03-.47.59-.84,1.27-.77,2.06.04.37.17.71.36,1.04-.02.83.15,1.68.38,2.51.2.71.43,1.4,1.02,1.88.59.49,1.32.64,2.06.75.54.08,1.35.08,1.63.64.19.38.18.86-.03,1.21-.52.82-1.71,1.21-2.55,1.58-.66.29-1.39.58-2.02,1l-.03-.15c-.13-.61-.44-1.13-.98-1.45-1.73-1-3.99.27-5.77.47-.28.03-.71.08-.93-.09-.36-.27.02-.81.2-1.15.69-1.31.44-2.9.46-4.32.01-1.27-.22-2.35-1.38-3.02-.84-.49-1.81-.71-2.73-1-.78-.26-1.74-.57-2.16-1.33-.56-1.01-.03-2.26.46-3.18.72-1.32,1.66-2.52,2.64-3.66.82-.94,1.7-2.19,2.84-2.76,1.28-.65,2.06.5,3.28.63,1.22.14,2.41-.69,3.13-1.62.28-.36.5-.75.74-1.15.14-.25.31-.58.58-.71.36-.17.85.02,1.19.14.7.25,1.32.61,2.07.71,1.17.15,2.17-.33,3.21-.79.52-.23,1.07-.44,1.64-.48.69-.05,1.36.14,2.04.22,1.46.16,3.01.09,4.42.52Z"/><path class="cls-1" d="m493.93,96.33c.42-.25.79.31.5.65-.53.62-1.19.98-1.99,1.09-.84.12-1.68.06-2.53.05-.74-.01-1.5.25-2.21-.01.1-.28.34-.53.72-.78.24-.15.49-.29.74-.42.04-.01.09-.02.13-.02,1.57-.16,3.19.29,4.64-.56Z"/><path class="cls-1" d="m489.16,96.91c-.25.13-.5.27-.74.42-.38.25-.62.5-.72.78-.02-.01-.04-.01-.06-.02-.52-.21-.8-.55-.97-.97.06-.09.13-.18.21-.27.23-.26.5-.47.79-.66.06.34.13.67.54.78.3.07.64-.01.95-.06Z"/><path class="cls-1" d="m479.3,125.19c.98,1.43.82,2.96.44,4.56-.42,1.77-1.07,3.44-1.71,5.13-.56,1.5-1.14,3.04-2.28,4.2-2.15,2.18-5.27,3.01-7.5,5.08-1.17,1.08-1.78,2.45-1.92,4.04s.04,3.22-.34,4.78c-.89,3.59-4.76,4.51-7.99,4.6-3.83.12-7.76,0-11.51-.85-1.05-.23-2.09-.51-3.12-.84-.99-.31-1.98-.72-3.02-.84-2.13-.25-3.95,1.33-5.86,2.02-1.95.7-3.94,1.38-6,1.67-2,.28-3.95.03-5.93-.28-.9-.14-1.8-.33-2.64-.68-.79-.32-1.45-.81-2.12-1.33-.6-.47-1.2-.97-1.93-1.22-.8-.28-1.69-.3-2.51-.13-1.52.31-2.81,1.19-4.14,1.94-1.37.77-2.79,1.34-4.38,1.37-2.84.05-6.14-.96-7.84-3.36-.89-1.26-1.24-3.01-.65-4.46.58-1.43,1.85-2.43,2.41-3.87.25-.61.45-1.21.68-1.8-.13-.18-.17-.44.03-.65.66-.69,1.1-1.56,1.77-2.25.63-.63,1.33-1.25,2.12-1.68,1.66-.9,3.59-.51,5.3-1.22,1.67-.7,2.83-2.17,4.41-3.01,1.67-.89,3.51-1.3,5.08-2.4.79-.55,1.54-1.15,2.37-1.64.84-.5,1.76-.87,2.68-1.17,1.9-.62,3.95-.89,5.95-.75,1.98.15,3.75.84,5.63,1.42s3.88.97,5.81.41c.84-.25,2-.69,2.43-1.5.32-.59.25-1.33.38-1.97.33-1.56,1.62-2.38,2.98-3,1.41-.64,2.91-1.2,4.41-1.6,2.07-.55,4.23-.61,6.36-.55,2.21.07,4.41.12,6.62.16,2.21.05,4.36.07,6.52-.49,1.78-.45,3.5-.79,5.31-.3,1.45.39,2.84,1.21,3.7,2.46Zm-.73,3.6c.31-1.48.01-2.74-1.21-3.72-1.11-.89-2.62-1.31-4.03-1.24-1.02.05-2.02.36-3.01.61s-1.97.4-2.99.45c-4.14.22-8.29-.27-12.42-.14-1.9.06-3.66.44-5.45,1.06-1.32.46-2.8.91-3.92,1.79-1.12.87-.67,2.37-1.26,3.52-.8,1.57-2.99,2.28-4.62,2.48-1.84.23-3.71-.15-5.47-.67-1.83-.54-3.53-1.22-5.47-1.31-1.88-.08-3.75.22-5.52.86-1.82.65-3.2,1.84-4.81,2.87-1.51.95-3.28,1.3-4.82,2.19-1.47.85-2.59,2.18-4.16,2.87-.83.36-1.69.56-2.59.66-.82.09-1.65.08-2.42.42-.26.11-.49.25-.73.41.09.03.17.05.25.08.15.07.04.3-.11.26-.19-.04-.37-.05-.54-.05-.37.3-.72.63-1.04.97-.47.47-.98.9-1.48,1.34t-.01,0c-.58,1.2-.65,2.59-1.34,3.73-.76,1.28-2.13,2.39-2.05,4,.16,3.04,3.61,4.49,6.21,4.77,1.42.15,2.75-.02,4.04-.64,1.33-.64,2.54-1.51,3.9-2.09,1.45-.61,3.12-.86,4.65-.38,1.44.46,2.41,1.62,3.7,2.36,1.49.86,3.38.95,5.06,1.18,2.03.27,4.04-.04,6-.61.98-.28,1.94-.62,2.9-.95s1.83-.8,2.74-1.25c.82-.4,1.67-.79,2.58-.91.98-.13,1.96.05,2.9.32,1.96.57,3.88,1.23,5.9,1.62,1.98.37,3.97.52,5.98.53,3.01.02,6.91.61,9.44-1.44,1.24-.99,1.49-2.47,1.54-3.97.05-1.56-.02-3.15.48-4.65.97-2.88,3.7-4.32,6.17-5.73,1.21-.69,2.45-1.4,3.41-2.44,1.06-1.14,1.53-2.77,2.07-4.21.6-1.63,1.19-3.24,1.55-4.96Z"/><path class="cls-1" d="m477.36,125.07c1.22.98,1.52,2.24,1.21,3.72-.36,1.72-.95,3.33-1.55,4.96-.54,1.44-1.01,3.07-2.07,4.21-.96,1.04-2.2,1.75-3.41,2.44-2.47,1.41-5.2,2.85-6.17,5.73-.5,1.5-.43,3.09-.48,4.65-.05,1.5-.3,2.98-1.54,3.97-2.53,2.05-6.43,1.46-9.44,1.44-2.01,0-4-.16-5.98-.53-2.02-.39-3.94-1.05-5.9-1.62-.94-.27-1.92-.45-2.9-.32-.91.12-1.76.51-2.58.91-.91.45-1.78.92-2.74,1.25s-1.92.67-2.9.95c-1.96.57-3.97.88-6,.61-1.68-.23-3.57-.32-5.06-1.18-1.29-.74-2.26-1.9-3.7-2.36-1.53-.48-3.2-.23-4.65.38-1.36.58-2.57,1.45-3.9,2.09-1.29.62-2.62.79-4.04.64-2.6-.28-6.05-1.73-6.21-4.77-.08-1.61,1.29-2.72,2.05-4,.69-1.14.76-2.53,1.34-3.73t.01,0c.5-.44,1.01-.87,1.48-1.34.32-.34.67-.67,1.04-.97.17,0,.35.01.54.05.15.04.26-.19.11-.26-.08-.03-.16-.05-.25-.08.24-.16.47-.3.73-.41.77-.34,1.6-.33,2.42-.42.9-.1,1.76-.3,2.59-.66,1.57-.69,2.69-2.02,4.16-2.87,1.54-.89,3.31-1.24,4.82-2.19,1.61-1.03,2.99-2.22,4.81-2.87,1.77-.64,3.64-.94,5.52-.86,1.94.09,3.64.77,5.47,1.31,1.76.52,3.63.9,5.47.67,1.63-.2,3.82-.91,4.62-2.48.59-1.15.14-2.65,1.26-3.52,1.12-.88,2.6-1.33,3.92-1.79,1.79-.62,3.55-1,5.45-1.06,4.13-.13,8.28.36,12.42.14,1.02-.05,2-.2,2.99-.45s1.99-.56,3.01-.61c1.41-.07,2.92.35,4.03,1.24Z"/><path class="cls-1" d="m395.73,91.62c.33,1.48.57,3.18-.2,4.57-.33.59-.81,1.09-1.18,1.65-.43.64-.68,1.34-.94,2.06-.54,1.5-1.47,2.54-3.04,3.04-1.8.57-3.69.06-5.43-.51-1.72-.56-3.53-.89-5.21-1.56-.85-.33-1.66-.77-2.49-1.15-.36-.16-.92-.44-1.26-.32-.41.13-.78.67-1.07.97-.42.46-.84.87-1.34,1.22-1.09.78-2.38,1.33-3.66,1.71-1.21.35-2.59.59-3.83.23-1.18-.35-1.79-1.25-2.17-2.38-.44-1.32-.61-2.77-.61-4.15s.27-2.56,1.06-3.73c.23-.36.5-.71.79-1.04-.31-.02-.56-.44-.27-.68.26-.22.56-.41.82-.64.27-.24.49-.49.82-.64,2.87-1.31,6.06-1.51,9.15-1.67,1.41-.07,2.47-1.19,3.67-1.81,1.62-.83,3.36-1.26,5.09-1.77,1.69-.51,3.46-1,5.24-.71,1.71.28,3.04,1.42,4.04,2.78.99,1.33,1.65,2.93,2.02,4.53Zm-1.41,3.86c.34-.59.35-1.25.3-1.91-.11-1.45-.52-2.91-1.17-4.2-.66-1.32-1.66-2.75-3.06-3.36-1.46-.63-3.13-.24-4.59.16-1.61.45-3.27.85-4.82,1.49-.73.3-1.44.69-2.11,1.12-.58.38-1.13.79-1.78,1.04-1.12.42-2.4.25-3.57.33-1.4.1-2.79.33-4.16.67-.75.19-1.49.43-2.21.71-.2.08-.4.12-.6.15-.86.85-1.56,1.91-1.9,3.03-.37,1.21-.16,2.59.01,3.83.1.72.25,1.44.47,2.13.15.45.34.98.74,1.28.91.69,2.45.35,3.45.08,1.19-.32,2.36-.83,3.39-1.52.87-.58,1.42-1.51,2.26-2.12.87-.63,1.82-.37,2.73.03,1.51.66,2.9,1.38,4.51,1.78,1.62.4,3.19,1.02,4.82,1.39,1.51.35,3.53.35,4.55-1.04.37-.52.53-1.17.75-1.76.23-.6.5-1.19.86-1.72.36-.54.82-1.02,1.13-1.59Z"/><path class="cls-1" d="m394.62,93.57c.05.66.04,1.32-.3,1.91-.31.57-.77,1.05-1.13,1.59-.36.53-.63,1.12-.86,1.72-.22.59-.38,1.24-.75,1.76-1.02,1.39-3.04,1.39-4.55,1.04-1.63-.37-3.2-.99-4.82-1.39-1.61-.4-3-1.12-4.51-1.78-.91-.4-1.86-.66-2.73-.03-.84.61-1.39,1.54-2.26,2.12-1.03.69-2.2,1.2-3.39,1.52-1,.27-2.54.61-3.45-.08-.4-.3-.59-.83-.74-1.28-.22-.69-.37-1.41-.47-2.13-.17-1.24-.38-2.62-.01-3.83.34-1.12,1.04-2.18,1.9-3.03.2-.03.4-.07.6-.15.72-.28,1.46-.52,2.21-.71,1.37-.34,2.76-.57,4.16-.67,1.17-.08,2.45.09,3.57-.33.65-.25,1.2-.66,1.78-1.04.67-.43,1.38-.82,2.11-1.12,1.55-.64,3.21-1.04,4.82-1.49,1.46-.4,3.13-.79,4.59-.16,1.4.61,2.4,2.04,3.06,3.36.65,1.29,1.06,2.75,1.17,4.2Z"/><path class="cls-1" d="m393.11,185.08c.52,1.33-.04,2.61-1,3.57-1.96,1.93-5.19,1.85-7.75,2.1-1.81.18-3.56.68-5.34,1.08-1.87.41-3.7.59-5.61.44-1.89-.16-3.81-.51-5.71-.24-1.66.23-3.04,1-4.34,2.02-1.19.94-2.32,1.99-3.66,2.72-1.46.79-2.96.98-4.59.71-1.74-.29-3.38-.94-5.15-.95-1.7-.02-3.39-.07-5.07-.33-2.61-.4-5.88-1.07-7.64-3.24-.81-.99-1.1-2.22-.79-3.47.37-1.53,1.46-2.48,2.69-3.35.65-.45,1.32-.92,1.82-1.54.1-.14.22-.29.25-.47,0,0-.03-.13-.07-.24-.39-1.07-.61-2.09-.26-3.22.75-2.46,3.47-4.17,5.9-4.61,1.08-.19,2.28-.19,3.24-.79.77-.48.9-1.29.79-2.14-.19-1.44-.84-2.56-1.85-3.58-1.02-1.02-2.16-1.93-3.03-3.1-.77-1.02-1.49-2.37-1.44-3.68.03-.87.21-1.73.21-2.6-.01-.88-.12-1.75-.09-2.62.1-2.4,2.07-4.48,4.41-4.78.57-.43,1.16-.83,1.91-.97,1.42-.27,2.86.29,4.15.81.71.29,1.41.6,2.14.85.66.22,1.34.29,2,.46,1.47.36,2.83,1.05,4.04,1.95,1.23.91,2.47,1.98,3.41,3.2.77.99,1.22,2.14,1.89,3.19.8,1.23,2.02,1.7,3.4,2.02,1.75.41,3.54.61,5.27,1.09,1.54.43,2.92,1.11,4.18,2.08,1.24.95,2.36,2.05,3.4,3.21.93,1.06,1.94,2.21,2.53,3.51.61,1.37.61,2.85.88,4.3.15.78.39,1.53.86,2.18.41.57.98,1.02,1.5,1.47.97.84,2.03,1.74,2.52,2.96Zm-2.33,3.03c1.04-.77,1.61-1.88.88-3.03-.67-1.07-1.77-1.83-2.69-2.66-1.12-1.03-1.76-2.28-2.02-3.77-.24-1.36-.22-2.82-.85-4.08-.61-1.2-1.56-2.27-2.47-3.26-1-1.1-2.08-2.16-3.28-3.03-1.29-.94-2.74-1.48-4.29-1.83-1.61-.37-3.26-.57-4.86-.98-1.31-.33-2.52-.88-3.38-1.95-.72-.9-1.14-1.99-1.75-2.96-.77-1.24-1.93-2.25-3.05-3.17-1.07-.88-2.28-1.6-3.6-2.01-.74-.22-1.5-.29-2.24-.51-.61-.18-1.19-.43-1.77-.67-1.21-.5-2.64-1.23-3.99-1.11-.43.05-.81.23-1.16.45-.06.17-.12.33-.19.49-.11.23-.38.1-.42-.1-.01.02-.03.03-.04.04-.58.39-1.26.68-1.94.8-.16.03-.3-.03-.4-.12-.2.16-.39.32-.55.52-1.03,1.23-.9,2.63-.79,4.13.07.9.04,1.77-.06,2.66-.06.56-.13,1.11.05,1.65.87,2.72,3.55,4.02,5.14,6.22,1.17,1.62,1.95,4.69.25,6.25-.73.66-1.71.96-2.66,1.13-1.19.22-2.31.32-3.42.86s-2.18,1.33-2.77,2.44c-.53,1-.35,1.92,0,2.93.88,2.46-2.9,3.64-4.11,5.11-.79.97-.97,2.34-.24,3.39.66.95,1.8,1.55,2.85,1.95,2.95,1.13,6.1,1.27,9.22,1.33,1.67.04,3.24.61,4.86.93,1.55.31,2.93.14,4.31-.67,1.27-.76,2.34-1.78,3.51-2.67,1.28-.97,2.66-1.71,4.26-1.99,1.79-.31,3.58-.11,5.37.07,1.78.18,3.51.22,5.27-.12,1.83-.34,3.6-.89,5.44-1.16,1.3-.2,2.61-.25,3.91-.42,1.21-.15,2.65-.34,3.66-1.08Z"/><path class="cls-1" d="m391.66,185.08c.73,1.15.16,2.26-.88,3.03-1.01.74-2.45.93-3.66,1.08-1.3.17-2.61.22-3.91.42-1.84.27-3.61.82-5.44,1.16-1.76.34-3.49.3-5.27.12-1.79-.18-3.58-.38-5.37-.07-1.6.28-2.98,1.02-4.26,1.99-1.17.89-2.24,1.91-3.51,2.67-1.38.81-2.76.98-4.31.67-1.62-.32-3.19-.89-4.86-.93-3.12-.06-6.27-.2-9.22-1.33-1.05-.4-2.19-1-2.85-1.95-.73-1.05-.55-2.42.24-3.39,1.21-1.47,4.99-2.65,4.11-5.11-.36-1.01-.54-1.93,0-2.93.59-1.11,1.66-1.9,2.77-2.44s2.23-.64,3.42-.86c.95-.17,1.93-.47,2.66-1.13,1.7-1.56.92-4.63-.25-6.25-1.59-2.2-4.27-3.5-5.14-6.22-.18-.54-.11-1.09-.05-1.65.1-.89.13-1.76.06-2.66-.11-1.5-.24-2.9.79-4.13.16-.2.35-.36.55-.52.1.09.24.15.4.12.68-.12,1.36-.41,1.94-.8.01-.01.03-.02.04-.04.04.2.31.33.42.1.07-.16.13-.32.19-.49.35-.22.73-.4,1.16-.45,1.35-.12,2.78.61,3.99,1.11.58.24,1.16.49,1.77.67.74.22,1.5.29,2.24.51,1.32.41,2.53,1.13,3.6,2.01,1.12.92,2.28,1.93,3.05,3.17.61.97,1.03,2.06,1.75,2.96.86,1.07,2.07,1.62,3.38,1.95,1.6.41,3.25.61,4.86.98,1.55.35,3,.89,4.29,1.83,1.2.87,2.28,1.93,3.28,3.03.91.99,1.86,2.06,2.47,3.26.63,1.26.61,2.72.85,4.08.26,1.49.9,2.74,2.02,3.77.92.83,2.02,1.59,2.69,2.66Z"/></svg>