<?xml version="1.0" encoding="UTF-8"?><svg id="Tree_08_-_Leaves_01" xmlns="http://www.w3.org/2000/svg" viewBox="0 0 1160 418.25"><defs><style>.cls-1{fill:#8fb223;stroke-width:0px;}</style></defs><path class="cls-1" d="m763.43,160.96c.39.6.27,1.42.2,2.08-.1.99-.14,1.98-.38,2.94s-.59,1.78-.97,2.65c-.47,1.09-.84,2.21-1.14,3.35-.14.52-.25,1.04-.38,1.57,0,.06-.03.12-.05.18.06.04.1.09.12.18.13.68-.33,1.24-.76,1.72-.67.75-1.32,1.55-1.77,2.45-.55,1.09-.18,2.11.06,3.23.12.53.18,1.04.39,1.54.19.43.44.85.65,1.27.34.7.65,1.5.47,2.3-.14.62-.57,1.1-1,1.55-.29.29-.57.57-.78.92-.22.35-.34.75-.51,1.12-.32.69-1.06,1.28-1.76,1.64,0,.04-.02.07-.05.11-.39.4-.58.76-.6,1.32-.02.35,0,.71,0,1.06,0,.61.02,1.27-.26,1.83-.3.59-.88.88-1.51.96-.77.1-1.19-.14-1.68-.7-.3-.35-.72-.76-1.2-.55-.27.11-.47.36-.7.53-.3.22-.63.35-1,.36-.53.02-1.01-.17-1.53.04-.69.28-1.19.89-1.97.97-.9.07-1.62-.54-2.44-.81-.98-.32-2.05-.04-3.02-.45-.88-.38-1.56-1.02-2.49-1.29-.75-.21-1.26-.47-1.68-1.14-.57-.92-.99-1.71-2.02-2.17-.67-.3-1.6-.33-2.17-.84-.39-.34-.36-.82-.28-1.29.07-.43.24-.89-.08-1.27-.27-.31-.7-.44-1.09-.52-1.06-.21-2.16-.18-3.23-.4-1.66-.35-2.75-1.38-3.27-3-.27-.82-.34-1.69-.3-2.55.02-.45.06-.9.14-1.36.06-.34.14-.73.11-1.1-.11-.06-.15-.19-.06-.29,0-.02,0-.03,0-.05-.04-.1.11-.14.17-.06.25-.13.51-.22.76-.36.41-.23.61-.61.83-1.01.38-.68.74-1.37,1.29-1.94,1.05-1.07,2.58-1.71,3.98-2.16,1.53-.49,2.89-.43,4.4.08,1.32.45,3.49,1.03,4.49-.36.35-.49.5-1.13.76-1.66.32-.66.7-1.3,1.01-1.98.55-1.22.96-2.96.64-4.29-.3-1.24-1.6-1.82-2.66-2.29-1.31-.58-2.48-1.25-3.63-2.1-.64-.46-1.28-.91-1.95-1.35-.41-.28-.84-.58-1.11-1.02-.31-.52-.31-1.13-.13-1.69.13-.39.27-.71.31-1.12.03-.3.07-.55.2-.83.06-.14.25-.18.39-.16,1.33.27,2.67.47,4,.11,1.17-.32,2.3-1.05,3.21-1.84.53-.46,1.24-1.12,1.99-.97.55.1.9.63,1.13,1.1.53,1.12.65,2.36,1.16,3.49.46,1.01,1.78,3.53,3.21,2.68.68-.41,1.18-1.04,1.89-1.4.81-.41,1.73-.64,2.64-.6.83.04,1.78.09,2.54.44.68.31.84.97,1.37,1.4.44.35,1.14.18,1.66.16.44-.02.88,0,1.29.18.82.32,1.39.88,2.32.86.67-.02,1.41,0,1.83.62Zm-.47,3.55c.09-.89.33-1.98.16-2.87-.21-1.04-1.32-.67-2.07-.77-.83-.1-1.42-.78-2.22-.96-.85-.19-1.86.25-2.66-.2-.56-.32-.73-1.03-1.27-1.37-.75-.47-1.97-.53-2.83-.51-.96.02-1.97.33-2.72.95-.5.41-1,1.02-1.64,1.21-.53.15-1.12-.13-1.53-.44-1.05-.79-1.73-2.1-2.18-3.31-.39-1.08-.45-2.35-1.13-3.3-.56-.79-1.33-.26-1.91.25-.67.59-1.35,1.15-2.12,1.6-1.72,1.01-3.61,1.01-5.51.67-.08.33-.06.71-.17,1.04-.14.45-.4.87-.27,1.36.2.74,1.06,1.08,1.64,1.45,1.43.91,2.75,1.98,4.31,2.67,1.07.47,2.3.91,3.04,1.86.74.93.63,2.26.46,3.37-.12.75-.27,1.5-.56,2.21-.28.65-.63,1.24-.95,1.86-.51.96-.75,2.25-1.74,2.84-1.25.75-2.78.49-4.09.05-.81-.28-1.59-.55-2.45-.53-.83,0-1.65.23-2.43.52-1.47.53-2.96,1.21-3.85,2.54-.41.61-.66,1.36-1.16,1.91-.36.41-.87.5-1.33.72.21.66-.06,1.52-.1,2.18-.05,1.01.04,2.02.41,2.96.37.93,1.01,1.75,1.96,2.12.48.18.99.29,1.49.35,0-.02,0-.05.04-.05s.04.04.02.06c.65.08,1.3.12,1.94.19.66.07,1.39.17,1.9.65.49.46.49,1.02.37,1.63-.05.26-.18.63-.05.88.17.3.63.37.91.46.79.22,1.57.49,2.21,1.01.66.54.94,1.34,1.43,2.01.49.68,1.5.68,2.2,1.06.42.23.8.53,1.22.77.51.28,1.02.38,1.6.41.51.02,1.03,0,1.53.13.38.09.73.28,1.08.44.47.22.96.48,1.49.36.35-.08.65-.3.95-.48.33-.21.68-.41,1.07-.48.4-.06.78.03,1.18.04.82,0,1.14-.7,1.85-.89.58-.16,1.14.21,1.53.62.19.2.35.46.63.57.35.15.84.06,1.19-.07.61-.25.77-.84.82-1.45.04-.6-.02-1.2.02-1.79.04-.6.23-1.01.59-1.44,0-.08.06-.17.18-.2.03,0,.06-.03.09-.04.05-.02.08,0,.12,0,.31-.32.68-.58,1.01-.9.3-.3.44-.65.6-1.05.26-.64.61-1.14,1.08-1.64.5-.53,1.04-1.05,1.04-1.83,0-.93-.61-1.75-1-2.55-.4-.79-.5-1.64-.72-2.49-.22-.88-.43-1.78-.1-2.66.3-.82.88-1.58,1.42-2.27.27-.35.89-.85,1.15-1.36-.21-.02-.4-.23-.25-.45.24-.35.28-.89.37-1.28.14-.59.29-1.18.46-1.75.33-1.11.78-2.17,1.26-3.22.5-1.08.84-2.18.96-3.37Z"/><path class="cls-1" d="m763.11,161.64c.18.89-.06,1.98-.16,2.87-.12,1.19-.46,2.29-.96,3.37-.48,1.05-.93,2.11-1.26,3.22-.18.57-.32,1.16-.46,1.75-.09.4-.13.93-.37,1.28-.15.22.04.43.25.45-.26.51-.89,1.01-1.15,1.36-.54.69-1.12,1.45-1.42,2.27-.33.88-.12,1.78.1,2.66.22.85.32,1.7.72,2.49.39.8,1,1.62,1,2.55,0,.77-.54,1.29-1.04,1.83-.47.5-.82,1.01-1.08,1.64-.16.4-.3.76-.6,1.05-.33.32-.7.58-1.01.9-.04,0-.07-.02-.12,0-.03,0-.06.03-.09.04-.11.04-.17.12-.18.2-.36.42-.55.84-.59,1.44-.04.59.02,1.19-.02,1.79-.05.61-.21,1.2-.82,1.45-.35.14-.84.22-1.19.07-.28-.11-.43-.37-.63-.57-.39-.41-.95-.77-1.53-.62-.71.19-1.03.9-1.85.89-.4,0-.78-.1-1.18-.04-.39.06-.74.27-1.07.48-.3.18-.6.4-.95.48-.53.12-1.02-.14-1.49-.36-.35-.17-.7-.35-1.08-.44-.5-.13-1.02-.11-1.53-.13-.57-.03-1.09-.13-1.6-.41-.41-.24-.79-.53-1.22-.77-.7-.38-1.72-.38-2.2-1.06-.49-.67-.77-1.47-1.43-2.01-.65-.52-1.42-.78-2.21-1.01-.29-.09-.75-.16-.91-.46-.13-.25,0-.62.05-.88.12-.61.12-1.17-.37-1.63-.51-.48-1.24-.57-1.9-.65-.64-.07-1.29-.11-1.94-.19.02-.03.02-.06-.02-.06s-.05.03-.04.05c-.51-.06-1.01-.17-1.49-.35-.95-.37-1.6-1.19-1.96-2.12-.38-.94-.46-1.95-.41-2.96.04-.65.31-1.51.1-2.18.46-.22.97-.31,1.33-.72.5-.54.76-1.3,1.16-1.91.89-1.33,2.39-2,3.85-2.54.77-.29,1.6-.51,2.43-.52.87-.02,1.64.26,2.45.53,1.3.44,2.83.7,4.09-.05,1-.59,1.24-1.88,1.74-2.84.32-.62.67-1.22.95-1.86.3-.71.44-1.47.56-2.21.17-1.11.28-2.43-.46-3.37-.75-.95-1.97-1.39-3.04-1.86-1.56-.69-2.88-1.76-4.31-2.67-.58-.37-1.44-.71-1.64-1.45-.13-.5.13-.91.27-1.36.1-.33.08-.71.17-1.04,1.89.33,3.79.33,5.51-.67.77-.45,1.45-1.01,2.12-1.6.58-.51,1.35-1.04,1.91-.25.67.95.74,2.22,1.13,3.3.44,1.21,1.13,2.52,2.18,3.31.41.31,1,.59,1.53.44.65-.18,1.14-.79,1.64-1.21.75-.62,1.76-.93,2.72-.95.86-.02,2.08.04,2.83.51.54.34.71,1.05,1.27,1.37.79.45,1.81,0,2.66.2.8.18,1.39.86,2.22.96.76.09,1.86-.28,2.07.77Z"/><path class="cls-1" d="m670.86,96.3c.32,1.7.4,3.58-.3,5.2-.69,1.58-2.23,2.57-2.93,4.14-.38.86-.49,1.8-.63,2.71-.16,1.01-.41,1.95-.79,2.9-.56,1.43-1.45,3.31-1.08,4.88.04.16-.05.31-.19.36-.92.24-1.13,1.57-1.68,2.23-.3.36-.74.54-1.1.85-.47.41-.75.99-1.18,1.43-1.46,1.45-3.58,1.13-5.39,1.72-.51.18-.93.42-1.3.8-.32.32-.63.65-1.03.87-.92.5-2.06.41-3.07.41-1.36,0-2.63.06-3.93.52-1.02.36-2.04.89-3.14.55-.54-.18-.98-.65-1.52-.78s-1.15.27-1.64.48c-.88.37-1.73.88-2.66,1.15.08.06.13.17.1.3-.02.08-.05.18-.07.26-.09.31-.52.3-.61,0-.3-.89-.35-2.32-1.13-2.96-.34-.28-.78-.4-1.17-.56-.42-.18-.8-.42-1.13-.73-.6-.53-1.34-1.44-1.17-2.31.18-.9,1.12-1.7,1.72-2.32.85-.87,1.36-1.77,1.83-2.88.39-.9.87-1.7,1.5-2.45.65-.77,1.37-1.48,2.06-2.22s1.38-1.41,2.23-1.97c.79-.53,1.67-1.03,2.55-1.38.48-.19,1.02-.25,1.47-.51.43-.26.71-.68.93-1.13.37-.74.6-1.48,1.21-2.07.58-.54,1.3-.89,2.02-1.22.76-.33,1.54-.64,2.22-1.13.77-.53,1.26-1.31,1.83-2.04,1.17-1.51,3.03-2.61,4.75-3.39,1.8-.83,3.76-1.24,5.74-1.01,2.16.25,4.23,1.15,6.42,1.06.12,0,.26.09.29.21Zm-1.28,5.85c1.09-1.61,1.12-3.62.76-5.48-2.28.07-4.41-.91-6.67-1.06-2.31-.16-4.49.6-6.46,1.77-.87.52-1.75,1.08-2.47,1.79-.63.61-1.06,1.38-1.65,2.03-1.09,1.22-2.64,1.61-4.03,2.36-.74.4-1.36.91-1.71,1.7-.33.73-.6,1.51-1.24,2.05-.68.58-1.67.66-2.46,1.05-.9.46-1.81.96-2.61,1.6-.76.59-1.36,1.35-2.02,2.04-.7.73-1.43,1.46-2,2.3-.58.84-.88,1.82-1.34,2.72-.46.89-1.13,1.55-1.81,2.28-.33.35-.72.73-.97,1.14-.31.52-.18.91.14,1.39.56.86,1.31,1.24,2.22,1.62,1.29.55,1.53,1.78,1.85,3,1.14-.36,2.19-1.07,3.3-1.54.41-.17.84-.33,1.28-.21.62.16,1.06.66,1.7.81,1.23.28,2.48-.65,3.63-.94,1.21-.3,2.45-.26,3.69-.29.62,0,1.27,0,1.86-.19.5-.18.87-.52,1.23-.89.63-.65,1.4-1,2.28-1.18.98-.21,1.98-.25,2.94-.53.57-.18,1.1-.45,1.53-.88.38-.37.62-.84.98-1.23.33-.35.79-.54,1.14-.87.3-.28.47-.66.65-1.01.3-.57.61-1.15,1.19-1.44-.24-1.36.37-2.94.86-4.19.38-.95.78-1.89.97-2.9.17-.88.23-1.77.46-2.63.47-1.73,1.8-2.76,2.76-4.19Z"/><path class="cls-1" d="m670.34,96.67c.36,1.85.33,3.86-.76,5.48-.96,1.43-2.29,2.45-2.76,4.19-.23.86-.3,1.75-.46,2.63-.18,1.01-.59,1.95-.97,2.9-.49,1.24-1.1,2.82-.86,4.19-.58.29-.89.87-1.19,1.44-.18.35-.36.74-.65,1.01-.35.32-.81.52-1.14.87-.36.39-.6.86-.98,1.23-.43.42-.96.7-1.53.88-.96.28-1.96.31-2.94.53-.88.18-1.65.53-2.28,1.18-.36.38-.73.72-1.23.89-.59.2-1.24.18-1.86.19-1.24.03-2.48-.02-3.69.29-1.15.29-2.41,1.22-3.63.94-.64-.15-1.08-.65-1.7-.81-.44-.12-.88.05-1.28.21-1.11.47-2.16,1.18-3.3,1.54-.32-1.22-.56-2.44-1.85-3-.91-.39-1.66-.77-2.22-1.62-.31-.48-.45-.88-.14-1.39.25-.41.64-.79.97-1.14.67-.73,1.35-1.38,1.81-2.28.46-.9.76-1.88,1.34-2.72.57-.84,1.3-1.57,2-2.3.66-.69,1.26-1.45,2.02-2.04.8-.64,1.71-1.13,2.61-1.6.79-.39,1.78-.47,2.46-1.05.64-.53.9-1.32,1.24-2.05.35-.78.97-1.3,1.71-1.7,1.39-.75,2.94-1.14,4.03-2.36.59-.65,1.02-1.42,1.65-2.03.72-.71,1.6-1.27,2.47-1.79,1.96-1.17,4.14-1.93,6.46-1.77,2.26.15,4.39,1.13,6.67,1.06Z"/></svg>