<?xml version="1.0" encoding="UTF-8"?><svg id="Tree_08_-_Leaves_02" xmlns="http://www.w3.org/2000/svg" viewBox="0 0 1160 418.25"><defs><style>.cls-1{fill:#a2c81b;stroke-width:0px;}</style></defs><path class="cls-1" d="m810.42,119.59c.51.65.97,1.29.89,2.17-.08.83-.61,1.39-1.1,2.02-.59.77-.91,1.7-1.55,2.45-.62.74-1.54,1.28-1.91,2.19-.3.72-.2,1.49-.72,2.14s-1.36.92-2.14,1.1c-.91.19-2.21.19-2.81,1.01-.45.61-1.18.77-1.91.64-.93-.17-1.61-.87-2.19-1.57-.66-.82-1.29-1.62-2.09-2.31-.89-.76-1.86-1.35-2.91-1.84-.95-.45-1.81-.9-2.62-1.57-1.48-1.22-2.91-2.42-3.67-4.22-.38-.88-.53-1.84-.63-2.79-.1-1.09.11-2.13.15-3.21-.18-.09-.12-.41.1-.41.83-.02,1.83.02,2.57.39.75.36,1.33.99,1.91,1.55.65.62,1.37,1.12,2.17,1.51.79.39,1.62.89,2.5,1.03,1.77.27,3.35-.84,4.8-1.68.73-.41,1.68-.78,2.09-1.55.19-.35.26-.76.39-1.13.12-.32.28-.62.43-.92.4-.77.89-1.46,1.35-2.19.31-.5.47-1.1.72-1.64-.25-.42-.5-.86-.86-1.18-.19-.18,0-.51.26-.43.49.14.78.49,1.03.88.07-.02.14-.04.22-.04.29,0,.43.3.31.54-.04.07-.07.14-.11.2.11.18.23.36.37.52.69.77,1.66,1.23,2.24,2.09.64.95.57,1.98.8,3.06.27,1.24,1.18,2.2,1.93,3.19Zm-.18,3.26c.58-.78.65-1.61.08-2.43-.53-.76-1.13-1.47-1.6-2.26-.48-.83-.75-1.69-.9-2.64-.16-.91-.41-1.75-1.13-2.4-.65-.58-1.43-.98-1.99-1.66,0,0,0-.02-.02-.03-.07.14-.15.27-.22.41-.2.43-.43.83-.73,1.21-.62.82-1.26,1.84-1.57,2.82-.21.7-.4,1.27-.98,1.76-.65.53-1.43.89-2.13,1.34-1.38.86-3.01,1.72-4.69,1.48-.85-.13-1.61-.58-2.38-.95-.79-.37-1.54-.81-2.21-1.38-.65-.54-1.18-1.23-1.91-1.67-.72-.45-1.56-.49-2.38-.62.03,1.15-.11,2.25.1,3.41.18,1.07.38,2.08.93,3.04.49.85,1.14,1.58,1.89,2.2.82.7,1.69,1.49,2.64,2.01.88.47,1.81.81,2.66,1.34.76.47,1.46,1.03,2.09,1.64.71.67,1.24,1.49,1.88,2.21.62.69,1.76,1.57,2.72.94.3-.2.41-.58.73-.78.29-.18.62-.29.93-.37.93-.27,1.95-.33,2.83-.77.73-.36,1.01-.99,1.14-1.75.12-.77.48-1.34,1.02-1.87.7-.69,1.38-1.32,1.9-2.18.23-.4.38-.82.63-1.2.19-.31.44-.58.65-.88Z"/><path class="cls-1" d="m810.32,120.43c.57.81.5,1.64-.08,2.43-.21.3-.46.56-.65.88-.25.38-.4.8-.63,1.2-.52.86-1.2,1.48-1.9,2.18-.54.53-.9,1.11-1.02,1.87-.13.77-.41,1.39-1.14,1.75-.88.44-1.9.51-2.83.77-.31.08-.65.18-.93.37-.31.2-.42.58-.73.78-.96.63-2.1-.25-2.72-.94-.65-.72-1.17-1.54-1.88-2.21-.64-.61-1.34-1.17-2.09-1.64-.85-.53-1.78-.87-2.66-1.34-.95-.52-1.82-1.31-2.64-2.01-.75-.63-1.4-1.36-1.89-2.2-.55-.96-.75-1.97-.93-3.04-.21-1.16-.07-2.26-.1-3.41.82.13,1.66.17,2.38.62.73.44,1.26,1.13,1.91,1.67.67.57,1.42,1.01,2.21,1.38.77.37,1.53.82,2.38.95,1.69.24,3.31-.63,4.69-1.48.7-.44,1.48-.8,2.13-1.34.58-.49.77-1.06.98-1.76.3-.99.95-2,1.57-2.82.3-.38.53-.77.73-1.21.07-.15.15-.28.22-.41,0,0,0,.02.02.03.56.68,1.35,1.08,1.99,1.66.72.65.97,1.48,1.13,2.4.16.95.42,1.81.9,2.64.47.79,1.07,1.5,1.6,2.26Z"/><path class="cls-1" d="m776.76,87.84c.16-.03.32.11.22.28-.24.39-.48.78-.63,1.22-.16.43-.26.89-.42,1.33-.33.89-.87,1.51-1.48,2.22-.64.74-1.2,1.36-2.11,1.75-.9.39-1.69.7-1.87,1.76-.14.76-.34,1.43-1.11,1.75-.74.3-1.48.05-2.24-.03-1.89-.18-1.7,1.94-2.49,3.1.24.2.06.68-.32.6-2.07-.45-4.26.33-6.24-.57-.44-.2-.91-.46-1.28-.78-.36-.31-.54-.73-.8-1.12-.65-.98-1.79-1.38-2.92-1.48-.77-.07-1.65-.07-2.31-.53-.55-.39-.76-1.12-1.31-1.48-.81-.53-1.95-.06-2.72.31-.75.37-1.44.86-2.2,1.18-.84.36-1.73.4-2.55.87-.65.38-1.29.72-2.07.64-.94-.11-2-.76-2.62.32-.3.53-.46,1.14-1.06,1.44-.62.31-1.36.14-1.95-.11-.66-.28-1.35-.62-1.9-1.07-.62-.51-.77-1.11-.98-1.85-.15-.53-.43-.89-.96-1.07-.3-.11-.63-.16-.92-.3-1.43-.65-1.05-2.48-.75-3.69.22-.85.43-1.65.39-2.55-.06-1-.34-1.96-.66-2.9-.08-.02-.15-.09-.16-.18v-.14c.02-.11.1-.17.18-.16.24-.34.33-.78.55-1.13.3-.46.74-.86,1.17-1.19.91-.72,1.96-.89,3.07-.54,1.11.35,2.06,1.06,3.21,1.3,1.11.23,2.24,0,3.31.48.83.36,1.89,1.43,2.88.97,1.04-.49,1.02-2.06,1.21-3.02.24-1.21.96-2.43.05-3.52-.55-.66-1.21-1.25-1.4-2.14-.26-1.14-.03-2.43-.08-3.6-.06-1.29-.26-2.56-.29-3.85,0-.37.46-.43.65-.2.47-.08.97-.41,1.39-.58.87-.33,1.79-.42,2.69-.6,1.76-.35,3.57-1.08,5.37-.59,1.43.38,2.69,1.58,4.22,1.32.78-.13,1.55-.41,2.36-.23.65.15,1.15.57,1.69.94.73.5,1.58.91,2.43,1.11.81.19,1.56-.06,2.36.03.67.07,1.19.5,1.74.85.59.39,1.21.72,1.81,1.09.62.38,1.23.78,1.73,1.3.51.51.87,1.13,1.26,1.72.41.65.98,1.15,1.43,1.78.43.62.77,1.33,1.09,2.02.31.67.54,1.38.6,2.14.06.77-.09,1.51.18,2.27.25.68.67,1.31,1.06,1.93.22.36.45.76.52,1.18Zm-.96.18c.05-.25-.3-.85-.41-1.07-.16-.36-.36-.69-.52-1.05-.29-.6-.49-1.23-.53-1.89-.02-.39.06-.77.06-1.15.02-.49-.08-.96-.23-1.42-.26-.83-.61-1.69-1-2.45-.34-.67-.86-1.18-1.29-1.78-.43-.63-.78-1.32-1.29-1.89-.96-1.09-2.31-1.66-3.52-2.39-.67-.4-1.27-.95-2.1-.9-.73.05-1.4.16-2.14,0-.75-.16-1.5-.45-2.17-.81-.55-.3-1.01-.74-1.59-.99-.86-.39-1.73,0-2.6.12-.58.08-1.11.05-1.65-.18-1.46-.59-2.71-1.48-4.36-1.31-.88.1-1.72.34-2.58.53-.75.17-1.48.24-2.23.37-.65.11-1.28.28-1.91.5-.27.1-.56.22-.86.28.03,1.45.28,2.88.3,4.32,0,.78-.06,1.58-.02,2.36.03.62.27,1.09.65,1.56.62.78,1.21,1.56,1.11,2.61-.09,1.04-.52,2.05-.68,3.08-.15.91-.4,2.02-1.29,2.48-.78.41-1.69.02-2.39-.37-.53-.3-1.01-.62-1.61-.74-.6-.13-1.23-.09-1.84-.12-1.15-.06-2.11-.56-3.13-1.07-.61-.3-1.26-.57-1.95-.55-.72.02-1.29.37-1.83.82-.46.39-.79.78-1.05,1.33-.11.24-.22.47-.39.65.44.9.77,1.86.87,2.87.09.92-.07,1.78-.3,2.67-.21.83-.55,1.88-.18,2.71.38.81,1.43.66,2.07,1.15.61.47.65,1.16.88,1.84.3.85,1.13,1.27,1.89,1.65.77.38,1.87.86,2.48-.04.32-.46.42-1.02.91-1.37.66-.47,1.4-.24,2.12-.05,1.03.28,1.68-.2,2.56-.65.81-.41,1.75-.39,2.58-.77.74-.32,1.4-.81,2.13-1.17,1.25-.62,2.59-.8,3.56.37.22.27.43.59.74.78.41.25.94.29,1.41.33.77.07,1.55.16,2.28.48.69.3,1.3.81,1.72,1.44.32.48.58.88,1.09,1.16.44.26.89.47,1.39.59,1.74.42,3.54-.18,5.29.19.11-.24.22-.48.3-.74.13-.41.24-.82.4-1.23.24-.61.63-1.29,1.28-1.52.71-.25,1.48.05,2.19.05.53,0,1.07-.16,1.27-.71.15-.4.14-.82.27-1.22.24-.69.81-1.06,1.45-1.37.44-.21.93-.36,1.34-.63.47-.31.83-.79,1.19-1.21.75-.87,1.32-1.61,1.62-2.73.12-.44.21-.89.41-1.27-.13-.11-.22-.28-.18-.5Z"/><path class="cls-1" d="m775.4,86.96c.1.22.45.82.41,1.07-.05.22.05.39.18.5-.2.38-.3.83-.41,1.27-.3,1.12-.88,1.86-1.62,2.73-.36.41-.72.89-1.19,1.21-.41.27-.89.41-1.34.63-.64.31-1.21.68-1.45,1.37-.13.4-.12.82-.27,1.22-.2.55-.74.72-1.27.71-.72,0-1.48-.3-2.19-.05-.65.23-1.04.91-1.28,1.52-.16.41-.27.82-.4,1.23-.07.26-.18.5-.3.74-1.75-.37-3.55.23-5.29-.19-.5-.12-.95-.33-1.39-.59-.51-.29-.77-.68-1.09-1.16-.41-.63-1.02-1.13-1.72-1.44-.73-.32-1.5-.41-2.28-.48-.47-.05-1.01-.08-1.41-.33-.3-.19-.52-.52-.74-.78-.97-1.17-2.31-.99-3.56-.37-.73.36-1.39.85-2.13,1.17-.83.38-1.77.36-2.58.77-.89.44-1.53.92-2.56.65-.72-.19-1.46-.42-2.12.05-.49.35-.59.91-.91,1.37-.61.89-1.72.41-2.48.04-.76-.38-1.6-.8-1.89-1.65-.22-.67-.27-1.36-.88-1.84-.64-.49-1.69-.34-2.07-1.15-.38-.83-.04-1.88.18-2.71.23-.89.4-1.74.3-2.67-.1-1.01-.42-1.96-.87-2.87.17-.18.28-.41.39-.65.26-.54.59-.94,1.05-1.33.53-.45,1.11-.8,1.83-.82.69-.02,1.35.25,1.95.55,1.01.51,1.97,1.01,3.13,1.07.62.03,1.24,0,1.84.12.61.12,1.09.44,1.61.74.7.39,1.6.78,2.39.37.89-.46,1.14-1.57,1.29-2.48.17-1.03.59-2.04.68-3.08.1-1.05-.49-1.83-1.11-2.61-.39-.47-.63-.94-.65-1.56-.05-.78.03-1.58.02-2.36-.02-1.45-.27-2.88-.3-4.32.3-.06.59-.18.86-.28.63-.22,1.26-.39,1.91-.5.75-.13,1.48-.2,2.23-.37.86-.19,1.71-.43,2.58-.53,1.65-.18,2.9.72,4.36,1.31.54.22,1.07.26,1.65.18.87-.13,1.74-.51,2.6-.12.57.25,1.03.69,1.59.99.66.36,1.42.65,2.17.81.74.16,1.41.05,2.14,0,.83-.05,1.43.51,2.1.9,1.22.73,2.56,1.3,3.52,2.39.51.57.86,1.26,1.29,1.89.43.6.95,1.11,1.29,1.78.39.77.74,1.62,1,2.45.15.46.25.93.23,1.42,0,.39-.08.77-.06,1.15.04.66.24,1.29.53,1.89.16.36.36.69.52,1.05Z"/><path class="cls-1" d="m625.58,162.38c.05.3,0,.57-.06.85,0,.03,0,.05-.02.06-.06.26-.16.51-.25.75-.29.77-.46,1.58-.65,2.38-.39,1.63-1.2,2.96-1.91,4.44-.34.7-.5,1.48-.85,2.18-.33.65-.8,1.22-1.21,1.83-.47.68-.94,1.46-.9,2.31.03.75.38,1.44.54,2.15.18.74.1,1.46.06,2.2-.05.82.13,1.48.51,2.19.43.82.72,1.7.1,2.5-.42.55-1.05.87-1.67,1.14-.71.31-1.28.74-1.85,1.27-.51.48-1.01,1-1.74,1.09-.56.07-1.08-.14-1.57-.4-1.05-.55-2.22-1.3-2.91-2.28-.43-.62-.64-1.39-1.17-1.94-.47-.49-1.13-.77-1.66-1.19-1.12-.91-1.95-2.11-2.21-3.53-.25-1.39-.08-2.78-.77-4.07-.32-.61-.77-1.11-1.16-1.66-.24-.35-.42-.77-.29-1.2.17-.51.66-.77,1.07-1.05.61-.41,1-.96,1.24-1.64.29-.82.33-1.66.06-2.49-.25-.74-.62-1.4-.8-2.17-.34-1.43-.25-2.9.09-4.32.18-.71.43-1.39.61-2.1.16-.65.27-1.32.51-1.95.46-1.22,1.48-2.07,2.49-2.83.53-.41,1.09-.95,1.72-1.18.61-.22,1.24-.17,1.88-.2,1.52-.09,2.54-1.27,3.8-1.97,1.05-.98,2.66,3.15,2.86,3.7.14.38.27.75.36,1.14.12.47.2.97.41,1.42.21.43.55.76.9,1.08.71.65,1.48,1.23,2.07,1.98.3.39.51.85.83,1.21.27.31.58.43.94.54,0-.06,0-.11,0-.17-.05-.35.56-.42.62-.08Zm-.95,1.55c.06-.15.11-.31.17-.48-.65-.3-1.15-.63-1.56-1.24-.54-.83-1.11-1.52-1.84-2.19-.64-.56-1.37-1.09-1.74-1.87-.3-.63-.38-1.33-.57-1.99-.16-.53-1.54-4.27-2.24-4.31,0,.02-.02.04-.04.06-1.17.76-2.11,1.93-3.57,2.16-.74.12-1.56-.05-2.25.31-.64.34-1.25.93-1.82,1.38-.58.46-1.16.98-1.56,1.61-.39.62-.53,1.35-.68,2.05-.35,1.56-.97,3.02-1.01,4.65-.03.77.06,1.53.28,2.28.2.67.56,1.29.75,1.96.32,1.17.1,2.54-.56,3.56-.3.45-.68.8-1.13,1.1-.6.39-.99.72-.51,1.4.69.98,1.46,1.86,1.69,3.09.26,1.33.04,2.7.61,3.97.31.71.85,1.33,1.41,1.85.5.46,1.1.76,1.63,1.17.98.76,1.2,2.07,2.12,2.89.5.44,1.12.76,1.7,1.08.62.36,1.35.71,2.07.42.67-.27,1.21-.9,1.77-1.34.54-.42,1.15-.66,1.74-1.01.45-.27,1.08-.68,1.11-1.28,0-.4-.21-.86-.36-1.23-.25-.63-.49-1.18-.51-1.86-.02-.67.12-1.34.07-2.01-.07-1.21-.83-2.28-.61-3.52.22-1.21,1.09-2.14,1.74-3.12.71-1.08.97-2.36,1.57-3.5.32-.62.67-1.23.96-1.87.3-.68.48-1.4.65-2.13.16-.69.31-1.36.54-2.04Z"/><path class="cls-1" d="m624.79,163.45c-.06.17-.11.33-.17.48-.23.67-.39,1.35-.54,2.04-.17.73-.34,1.45-.65,2.13-.29.65-.64,1.25-.96,1.87-.6,1.14-.86,2.43-1.57,3.5-.65.98-1.52,1.91-1.74,3.12-.22,1.24.53,2.31.61,3.52.05.67-.09,1.34-.07,2.01.02.68.26,1.24.51,1.86.15.37.37.83.36,1.23-.03.6-.65,1.01-1.11,1.28-.59.35-1.2.59-1.74,1.01-.56.43-1.1,1.07-1.77,1.34-.72.29-1.45-.06-2.07-.42-.58-.32-1.2-.64-1.7-1.08-.92-.82-1.14-2.13-2.12-2.89-.53-.41-1.13-.71-1.63-1.17-.56-.53-1.1-1.14-1.41-1.85-.57-1.27-.35-2.65-.61-3.97-.23-1.23-1-2.11-1.69-3.09-.48-.68-.09-1.01.51-1.4.45-.3.84-.65,1.13-1.1.66-1.02.89-2.39.56-3.56-.18-.67-.54-1.29-.75-1.96-.21-.75-.3-1.51-.28-2.28.05-1.62.66-3.09,1.01-4.65.16-.7.3-1.43.68-2.05.4-.64.98-1.15,1.56-1.61.56-.45,1.18-1.04,1.82-1.38.69-.36,1.51-.19,2.25-.31,1.46-.23,2.4-1.4,3.57-2.16.02-.02.03-.04.04-.06.7.04,2.08,3.78,2.24,4.31.19.66.27,1.36.57,1.99.37.78,1.11,1.31,1.74,1.87.74.66,1.3,1.36,1.84,2.19.41.62.9.95,1.56,1.24Z"/><path class="cls-1" d="m639.42,133.44c.24.11.13.54-.14.52-.14-.02-.27-.02-.4-.02,0,.14,0,.29-.03.43-.08.37-.56.23-.6-.08-.02-.11-.02-.22-.03-.33-.98.07-1.94.34-2.94.31-.7-.02-1.39-.11-2.07-.23-.64-.12-1.46-.43-2.08-.16-.5.23-.76.77-1.22,1.06-.42.26-.93.34-1.41.41-.71.09-1.36.18-1.95.59-.47.32-.89.73-1.26,1.14-.67.73-1.25,1.57-2.05,2.18-.77.59-1.66.75-2.49,1.17-1,.51-1.49,1.4-1.71,2.46-.2,1.03-.46,1.75-1.27,2.46-.73.65-1.53,1.25-1.72,2.28-.12.61-.1,1.23,0,1.84.04.18.07.39.08.58.04.02.06.04.08.06.32.43-.53.57-.77.64-1,.25-1.85.41-2.89.27-.89-.13-1.89-.32-2.7-.75-.71-.37-1.08-1.03-1.33-1.77-.28-.85-.47-1.72-.77-2.57-.31-.93-.73-1.84-1.01-2.78-.56-1.84.49-3.62.56-5.46.05-.86-.02-1.73.19-2.58.22-.86.78-1.52,1.23-2.27.46-.78.71-1.68,1.24-2.43.43-.62,1.01-.96,1.72-1.18.81-.24,1.56-.41,2.26-.91.7-.51,1.35-1.03,2.15-1.37.79-.34,1.61-.56,2.46-.74.86-.18,1.6-.37,2.25-1,1.14-1.11,1.65-2.66,2.73-3.8,1.24-1.31,3.04-1.49,4.54-2.34.23-.13.44.05.48.24.21.16.4.34.62.49.48.31,1.01.32,1.56.25.53-.07,1.04-.23,1.56-.36.23-.06.43-.11.65.02.28.15.5.46.74.65.36.29.75.57,1.14.8.64.37,1.41.41,2.03.82,1.01.66,1.09,1.86.96,2.96-.1.87-.3,1.72-.21,2.6.08.92.69,1.55,1.07,2.36.3.66.54,1.44.46,2.18-.05.41-.21.79-.26,1.2.18.04.35.08.53.17Zm-1.14-.27c.08-.48.3-.91.3-1.41,0-.96-.53-1.75-1.01-2.54-.86-1.39-.53-2.83-.36-4.36.06-.57.11-1.21-.14-1.73-.32-.68-1.01-.82-1.66-1.03-.68-.22-1.27-.62-1.84-1.04-.27-.2-.56-.6-.86-.73-.22-.1-.53.06-.79.13-.71.18-1.5.35-2.23.17-.61-.16-.95-.58-1.41-.92-1.52.81-3.31,1.06-4.44,2.47-.98,1.21-1.48,2.75-2.73,3.74-1.18.91-2.68.87-4.07,1.3-.83.26-1.56.66-2.24,1.2-.47.37-.94.72-1.49.95-.72.3-1.55.34-2.21.77-.73.46-1.06,1.39-1.38,2.15-.31.75-.78,1.37-1.18,2.07-.45.77-.52,1.59-.53,2.46,0,.83-.05,1.61-.23,2.43-.18.78-.43,1.57-.49,2.38-.06,1,.32,1.84.66,2.74.3.79.58,1.59.83,2.39.22.74.34,1.56.73,2.24.41.7,1.14.93,1.88,1.13.89.24,1.81.47,2.73.39.41-.04.81-.16,1.22-.25.06,0,.31-.04.44-.07-.06-.41-.26-.8-.3-1.21-.06-.65-.05-1.36.16-1.97.35-1.04,1.28-1.63,2.03-2.35.85-.81.69-2.06,1.16-3.06.41-.87,1.12-1.49,1.99-1.84,1-.41,1.88-.69,2.65-1.49.81-.86,1.48-1.83,2.43-2.56.46-.37.95-.65,1.53-.79.58-.13,1.19-.12,1.75-.3.63-.19.89-.72,1.39-1.08.41-.29.86-.38,1.34-.33,1.36.12,2.67.57,4.05.45.77-.06,1.56-.36,2.33-.4,0-.02,0-.05,0-.06Z"/><path class="cls-1" d="m638.58,131.76c0,.5-.22.93-.3,1.41,0,.02,0,.05,0,.06-.77.04-1.57.33-2.33.4-1.38.12-2.68-.33-4.05-.45-.48-.05-.93.05-1.34.33-.51.36-.77.89-1.39,1.08-.56.18-1.17.18-1.75.3-.58.14-1.07.42-1.53.79-.94.74-1.61,1.71-2.43,2.56-.77.8-1.65,1.09-2.65,1.49-.88.35-1.59.98-1.99,1.84-.47,1.01-.31,2.25-1.16,3.06-.75.72-1.68,1.31-2.03,2.35-.2.61-.22,1.33-.16,1.97.05.41.25.8.3,1.21-.13.04-.38.06-.44.07-.41.09-.8.21-1.22.25-.92.08-1.84-.15-2.73-.39-.74-.2-1.48-.43-1.88-1.13-.39-.68-.51-1.5-.73-2.24-.25-.8-.53-1.6-.83-2.39-.34-.9-.73-1.74-.66-2.74.06-.81.3-1.6.49-2.38.18-.81.22-1.6.23-2.43,0-.88.07-1.7.53-2.46.4-.7.87-1.33,1.18-2.07.32-.76.65-1.69,1.38-2.15.66-.42,1.49-.46,2.21-.77.55-.23,1.02-.58,1.49-.95.68-.53,1.41-.94,2.24-1.2,1.38-.43,2.89-.39,4.07-1.3,1.25-1,1.75-2.54,2.73-3.74,1.13-1.41,2.92-1.66,4.44-2.47.46.34.8.77,1.41.92.73.18,1.52.02,2.23-.17.26-.06.57-.23.79-.13.3.13.59.53.86.73.57.42,1.16.82,1.84,1.04.65.21,1.34.35,1.66,1.03.25.53.19,1.16.14,1.73-.18,1.53-.5,2.97.36,4.36.48.78,1.01,1.58,1.01,2.54Z"/><path class="cls-1" d="m689.39,111.35c.24.03.38.4.12.57-.41.29-.88.46-1.25.78-.3.26-.53.59-.73.92-.39.63-.72,1.28-1.16,1.87-.37.49-.81.92-1.39,1.13-.83.3-1.7.03-2.55,0-1.01-.03-1.76.48-2.68.79-.82.29-1.65.23-2.47-.03-.51-.17-.99-.46-1.52-.54-.51-.09-.98.06-1.46.21-.89.27-1.74,0-2.65.08-.96.08-1.75.63-2.67.82-.83.17-1.69.14-2.52.05-1.2-.14-2.6-.27-2.87-1.69-.24-1.33.46-2.65.74-3.9.22-1.01.35-2.05.59-3.05.25-1.04.39-2.01.37-3.08-.02-.76.05-1.52.57-2.11s1.33-.8,1.85-1.38c1.2-1.32.91-3.27,1.44-4.88-.07-.04-.14-.12-.1-.21.34-.86,1.22-1.12,2.07-1.17.65-.04,1.29-.03,1.94-.06.63-.03,1.27-.06,1.88.1,1.09.28,1.95,1.07,3.04,1.34.65.16,1.3.22,1.95.37.59.13,1.17.3,1.76.45.81.21,1.75.17,2.53.51.89.39,1.01,1.46,1.19,2.31.27,1.22.41,2.47.73,3.69.31,1.25.94,2.2,1.74,3.2.41.53.77,1.11,1.08,1.71.18.34.42.78.41,1.2Zm-.71,0c.09-.16-.18-.6-.24-.74-.17-.34-.36-.68-.56-1.01-.41-.67-.96-1.26-1.38-1.94-1.14-1.82-1.23-4-1.68-6.04-.1-.46-.18-1.22-.49-1.59-.22-.27-.62-.34-.94-.4-.84-.15-1.63-.27-2.45-.51-1.08-.31-2.2-.42-3.28-.73-.93-.28-1.68-.91-2.58-1.24-1.05-.38-2.21-.16-3.3-.16-.78,0-1.8-.02-2.26.7.04.04.06.08.04.16-.58,1.66-.22,3.62-1.36,5.09-.5.65-1.25.88-1.83,1.42-.84.79-.49,2-.54,3.02-.06.9-.31,1.77-.48,2.66-.18.94-.3,1.9-.52,2.84-.25,1.07-1.07,2.63-.47,3.72.35.63,1.22.64,1.84.71.83.1,1.69.17,2.51,0s1.55-.62,2.37-.77c.86-.17,1.69.06,2.54-.02.49-.05.93-.29,1.42-.35.36-.05.73-.03,1.09.06.95.26,1.75.82,2.78.72.88-.08,1.6-.65,2.43-.84.8-.18,1.6-.04,2.41.05,1.46.14,2.16-.97,2.8-2.09.29-.5.57-1.01.93-1.45.33-.41.77-.67,1.21-.92-.06-.1-.09-.23,0-.36Z"/><path class="cls-1" d="m688.44,110.6c.06.14.33.58.24.74-.08.13-.06.26,0,.36-.44.25-.88.51-1.21.92-.36.44-.65.95-.93,1.45-.65,1.13-1.35,2.23-2.8,2.09-.8-.08-1.6-.23-2.41-.05-.84.19-1.56.76-2.43.84-1.03.1-1.84-.46-2.78-.72-.36-.09-.73-.11-1.09-.06-.49.06-.93.3-1.42.35-.85.08-1.68-.15-2.54.02-.82.16-1.55.61-2.37.77s-1.68.1-2.51,0c-.63-.07-1.49-.08-1.84-.71-.6-1.09.22-2.65.47-3.72.21-.94.33-1.9.52-2.84.17-.89.42-1.75.48-2.66.06-1.02-.3-2.23.54-3.02.57-.54,1.33-.77,1.83-1.42,1.13-1.47.77-3.43,1.36-5.09.03-.07,0-.12-.04-.16.46-.72,1.48-.71,2.26-.7,1.09,0,2.25-.22,3.3.16.9.32,1.65.96,2.58,1.24,1.08.3,2.2.41,3.28.73.82.24,1.61.36,2.45.51.32.06.72.13.94.4.3.37.39,1.13.49,1.59.45,2.04.53,4.22,1.68,6.04.42.67.97,1.26,1.38,1.94.2.33.4.67.56,1.01Z"/></svg>