<?xml version="1.0" encoding="UTF-8"?><svg id="Tree_08_-_Leaves_03" xmlns="http://www.w3.org/2000/svg" viewBox="0 0 1160 418.25"><defs><style>.cls-1{fill:#b6d01c;stroke-width:0px;}</style></defs><path class="cls-1" d="m747.28,138.9c.09.18-.15.32-.26.16,0,0,0,0,0,0-.07.41-.19.82-.3,1.18-.24.72-.41,1.46-.66,2.18-.47,1.36-1.29,2.43-2.18,3.53-.52.64-1.11,1.28-1.49,2.01-.39.75-.24,1.56-.05,2.34.17.67.31,1.35.44,2.03.07.38.25.88.1,1.25-.08.22-.35.21-.44.06-.36.21-.74.39-1.11.59-.53.3-1.01.63-1.47,1.02-.65.54-1.19,1.28-1.94,1.69-.71.39-1.5.33-2.29.29-.55-.03-1.08-.04-1.62.07-.26.06-.54.18-.8.13-.3-.06-.49-.33-.67-.53-.32-.34-.65-.67-1.01-.99-.55-.5-.94-.84-1.24-1.53-.16-.37-.33-1-.77-1.11-.37-.09-.8.14-1.12.31-.69.38-1.21.98-1.86,1.41-1.4.92-2.9,1.82-3.64,3.4,0,.04-.04.04-.06.06.02.08-.07.15-.14.08-.02-.02-.04-.03-.06-.05-.05-.02-.09-.06-.12-.11-.72-.56-1.83-.52-2.67-.63-.65-.08-1.27-.3-1.9-.52-.68-.24-1.37-.44-2.06-.69-1.1-.39-2.22-.73-3.15-1.45-.89-.68-1.63-1.56-2.47-2.3-.58-.52-1.16-.87-1.9-1.12-.53-.18-1.01-.37-1.51-.64-.52-.27-1.05-.36-1.59-.58-.42-.18-.65-.47-.88-.87-.3-.52-.51-1.09-.9-1.54-.46-.52-1.07-.78-1.75-.86-.56-.06-1.13-.03-1.68-.19-.43-.14-.81-.4-1.2-.61-.49-.28-1.04-.6-1.61-.59-.63,0-1,.53-1.17,1.07-.25.8-.2,1.76-.91,2.33-.06.06-.12.06-.17.05-.23.26-.48.49-.77.65-.88.49-1.89.4-2.78.03s-1.54-1.04-2.33-1.57c-.41-.28-.88-.43-1.33-.63-.52-.22-1.04-.45-1.59-.6-1.45-.41-3.12-.4-4.19-1.6-.6-.68-.95-1.54-1.54-2.24s-1.24-1.35-1.8-2.07c-.59-.79-.89-1.49-.79-2.49.05-.51.09-1,.08-1.5-.08-.02-.15-.09-.11-.2.05-.18.07-.36.09-.54,0-.18,0-.36.03-.54,0-.07,0-.14.02-.21.05-.49.12-.96.16-1.45.05-.77-.13-1.62.08-2.38.18-.65.74-1.08,1.21-1.52.59-.54,1.13-1.22,1.91-1.5.29-.1.56-.12.87-.12.58,0,1.04,0,1.57-.31.65-.4,1.21-.9,1.98-1.05.83-.17,1.72-.12,2.57-.1.87,0,1.78-.02,2.63.13.52.08.85.35,1.22.71.57.54,1.23.8,1.98,1,1.39.37,3.11.74,4.54.31.76-.22,1.04-1.13,1.38-1.75.26-.5.58-1,.93-1.43.33-.41.76-.7,1.28-.77.61-.06,1.06.19,1.57.47,1.32.72,2.13-.41,3.22-1.01,1.21-.65,2.81-.8,4.14-.53.66.14,1.13.4,1.55.92.42.54.84,1.03,1.48,1.36.77.39,1.61.18,2.43.3.79.12,1.56.49,2.3.78.37.15.75.33,1.14.37.48.04.89-.17,1.3-.37.59-.3,1.16-.52,1.83-.56.84-.06,1.69.13,2.48.41.66.22,1.28.57,1.97.7,1.38.26,2.62.13,3.69,1.2.62.63,1.11,1.06,1.98,1.31.76.22,1.55.32,2.31.54.79.22,1.58.5,2.39.63.81.12,1.6-.06,2.41-.05.5,0,1.01.06,1.51,0,.37-.04.71-.16,1.06-.24.48-.11,1.03-.2,1.48.04.41.24.58.73.71,1.16.19.67.44,1.24.77,1.86.34.61.55,1.21.7,1.89.15.74.26,1.52.58,2.2Zm-.95.81c.1-.39.1-.89.36-1.23-.21-.46-.32-.96-.43-1.48-.18-.83-.46-1.51-.88-2.25-.34-.6-.49-1.17-.69-1.83-.12-.41-.29-.76-.77-.8-.42-.05-.86.12-1.25.22-.77.19-1.54.13-2.32.12-.82,0-1.6.15-2.43.02-.89-.14-1.72-.45-2.58-.68-.82-.23-1.68-.31-2.48-.61-.65-.23-1.12-.57-1.59-1.07-.53-.54-1.02-.94-1.79-1.09-.69-.14-1.41-.12-2.1-.27-.69-.16-1.32-.52-2-.73-.83-.27-1.72-.42-2.59-.24-.7.16-1.26.64-1.95.83-1.33.37-2.68-.67-3.92-1.01-.78-.2-1.6,0-2.39-.21-.58-.16-1.12-.53-1.55-.93s-.7-1.05-1.25-1.33c-.7-.35-1.68-.36-2.43-.27-.78.09-1.6.3-2.26.73-.44.29-.84.65-1.31.89-.42.22-.89.34-1.38.24-.55-.11-.97-.53-1.5-.67-1.45-.4-2.19,1.8-2.73,2.74-.25.42-.56.87-1.02,1.08-.44.2-.99.22-1.47.25-1.46.08-2.95-.21-4.32-.7-.58-.21-1.06-.51-1.5-.95-.56-.55-1.06-.61-1.83-.65-.82-.06-1.64-.08-2.46-.11-.77-.02-1.6-.09-2.31.24-.63.29-1.13.81-1.79,1.02-.75.24-1.53-.07-2.24.31-.69.38-1.2,1.01-1.74,1.55-.61.61-.91,1.15-.89,2.04.02.83,0,1.63-.1,2.46-.07.52-.06,1.07-.2,1.59.04.65.05,1.31.03,1.97-.04,1.12.65,1.91,1.36,2.69.56.62,1.16,1.2,1.67,1.86.46.6.75,1.36,1.34,1.86,1.12.96,2.79.8,4.12,1.23.8.26,1.69.57,2.42,1.01.68.4,1.23,1,1.88,1.43.75.49,1.75.85,2.63.51.84-.31,1.22-1.07,1.64-1.8.02-.05.06-.06.09-.08.13-.62.22-1.24.65-1.74.76-.89,1.88-.53,2.77-.06.51.28.98.64,1.55.77.62.16,1.27.07,1.9.21,1.12.24,1.79,1.12,2.31,2.07.17.3.32.67.61.89.22.18.5.23.77.29.56.13,1.04.36,1.56.6.64.3,1.32.45,1.95.77.53.26.98.65,1.42,1.05.51.46,1.01.93,1.48,1.43.38.41.76.82,1.22,1.13,1.19.77,2.7,1.13,4.03,1.59.65.22,1.28.49,1.95.62.47.09.95.09,1.42.18.48.09,1.24.23,1.63.64.73-1.66,2.35-2.53,3.81-3.49.86-.55,2.26-2.25,3.46-1.61.58.3.72,1.07,1,1.6.21.41.62.64.96.93.36.3.7.64,1.02.97.2.2.35.41.66.41.2,0,.44-.11.65-.15.42-.07.85-.07,1.28-.06.48.02.96.07,1.44.02.51-.06.9-.32,1.28-.65,1.33-1.13,2.55-2.38,4.26-2.91-.03-.48-.23-1.08-.3-1.48-.14-.67-.34-1.34-.43-2.02-.2-1.47.6-2.44,1.46-3.54,1.01-1.29,2.02-2.49,2.53-4.09.23-.74.48-1.51.67-2.27Z"/><path class="cls-1" d="m746.69,138.49c-.26.33-.26.84-.36,1.23-.19.76-.44,1.53-.67,2.27-.51,1.6-1.51,2.79-2.53,4.09-.86,1.1-1.66,2.07-1.46,3.54.09.68.3,1.35.43,2.02.07.4.28,1,.3,1.48-1.71.53-2.93,1.79-4.26,2.91-.38.32-.77.58-1.28.65-.48.06-.96,0-1.44-.02-.43-.02-.86-.02-1.28.06-.2.04-.44.14-.65.15-.31,0-.46-.2-.66-.41-.32-.33-.66-.66-1.02-.97-.34-.3-.75-.52-.96-.93-.28-.53-.41-1.3-1-1.6-1.2-.64-2.6,1.06-3.46,1.61-1.46.96-3.08,1.83-3.81,3.49-.4-.41-1.15-.54-1.63-.64-.47-.08-.95-.08-1.42-.18-.66-.13-1.3-.4-1.95-.62-1.33-.46-2.84-.81-4.03-1.59-.46-.3-.84-.72-1.22-1.13-.47-.5-.97-.97-1.48-1.43-.44-.4-.89-.79-1.42-1.05-.63-.31-1.31-.47-1.95-.77-.52-.24-1-.47-1.56-.6-.28-.06-.55-.1-.77-.29-.29-.22-.44-.59-.61-.89-.52-.95-1.19-1.83-2.31-2.07-.63-.14-1.28-.06-1.9-.21-.57-.14-1.04-.5-1.55-.77-.89-.47-2.01-.82-2.77.06-.42.5-.52,1.13-.65,1.74-.04.02-.07.04-.09.08-.42.73-.8,1.48-1.64,1.8-.88.34-1.88-.02-2.63-.51-.65-.43-1.2-1.03-1.88-1.43-.73-.43-1.61-.75-2.42-1.01-1.33-.42-3.01-.27-4.12-1.23-.59-.5-.88-1.26-1.34-1.86-.51-.66-1.11-1.24-1.67-1.86-.72-.78-1.4-1.58-1.36-2.69.02-.66,0-1.32-.03-1.97.14-.52.13-1.07.2-1.59.1-.83.12-1.63.1-2.46-.02-.89.29-1.43.89-2.04.54-.53,1.05-1.17,1.74-1.55.71-.39,1.49-.07,2.24-.31.65-.21,1.16-.74,1.79-1.02.71-.33,1.55-.26,2.31-.24.82.03,1.64.06,2.46.11.77.05,1.26.1,1.83.65.44.44.92.74,1.5.95,1.37.49,2.87.78,4.32.7.48-.03,1.02-.05,1.47-.25.46-.21.77-.65,1.02-1.08.54-.94,1.28-3.14,2.73-2.74.53.15.95.56,1.5.67.49.1.96-.02,1.38-.24.47-.25.87-.61,1.31-.89.66-.43,1.48-.64,2.26-.73.76-.09,1.73-.08,2.43.27.55.28.82.92,1.25,1.33s.97.77,1.55.93c.78.2,1.6,0,2.39.21,1.24.33,2.59,1.37,3.92,1.01.68-.19,1.24-.67,1.95-.83.88-.18,1.76-.03,2.59.24.68.21,1.31.57,2,.73.69.15,1.41.13,2.1.27.77.15,1.26.54,1.79,1.09.47.5.94.84,1.59,1.07.8.3,1.66.38,2.48.61.86.23,1.7.54,2.58.68.82.13,1.6-.03,2.43-.02.78,0,1.55.07,2.32-.12.4-.1.83-.27,1.25-.22.48.05.65.39.77.8.2.65.35,1.23.69,1.83.41.74.7,1.42.88,2.25.11.52.22,1.01.43,1.48Z"/><path class="cls-1" d="m647.18,145.95c.24.29-.18.69-.41.41-.18.41-.36.8-.52,1.22-.21.57-.41,1.14-.72,1.67-.29.47-.64.91-1.01,1.31-.37.4-.84.65-1.21,1.03-.88.92-.65,2.45-1.4,3.49-.4.53-.71,1.04-.86,1.71-.09.43-.06.91-.1,1.36v.02c-.03.18-.06.37-.13.53-.06.18-.29.18-.35,0-.03-.06-.03-.13-.05-.19-.26.1-.52.21-.78.3-.35.12-.71.22-.95.53-.5.63-.24,1.6-.73,2.26-.36.5-.97.66-1.38,1.1-.47.48-.75,1.12-1.23,1.6-.77.77-1.84,1.51-2.98,1.36-1.24-.15-1.93-1.49-3.08-1.86-1.34-.43-2.68.52-4.03.52-1.03,0-1.86-.53-2.49-1.33-.39-.5-.65-1.09-1.06-1.56-.4-.45-.86-.88-1.34-1.24-.42-.32-.9-.61-1.23-1.05-.36-.49-.47-1.14-.63-1.72-.41-1.5-1.01-2.94-1.69-4.35-.49-1.01-.92-2.02-1.35-3.04-.03,0-.05,0-.06-.03-1-1.07-.65-3.2,0-4.37.44-.8,1.36-1.1,1.85-1.82.52-.74.31-1.86.63-2.71.49-1.31,1.6-1.9,2.83-2.39.89-.36,1.68-.85,2.33-1.57.59-.65,1.09-1.38,1.82-1.89.68-.48,1.53-.81,2.35-.91.54-.06,1.07.05,1.56-.26.38-.23.71-.57,1.05-.86.56-.47,1.16-.89,1.93-.9.97-.03,1.84.51,2.82.44,1.72-.12,3.35-1.04,4.98-.05,1.25.77,2.05,2.08,3.19,2.98.62.49,1.2.95,1.47,1.71.33.92.39,1.94.59,2.88.23,1.07.51,2.04.99,3.02.25.51.53,1.01.77,1.52.1.21.18.42.29.64.12,0,.24.12.19.24l-.03.06c.05.07.08.14.14.2Zm-.7-.06c-.1-.19-.19-.4-.29-.6-.23-.52-.5-1.02-.76-1.53-.46-.93-.79-1.84-.99-2.86-.19-1-.3-2.02-.53-3.01-.27-1.03-1.01-1.48-1.77-2.13-1.05-.9-1.82-2.22-3.1-2.84-1.68-.79-3.49.46-5.24.24-.93-.12-1.83-.7-2.77-.27-.7.33-1.23.99-1.84,1.44-.7.52-1.4.31-2.2.48-.91.19-1.79.64-2.45,1.31-.6.61-1.08,1.35-1.74,1.9-.55.47-1.19.79-1.85,1.07-1.41.57-2.49,1.24-2.79,2.84-.14.67-.06,1.44-.45,2.04-.4.62-1.13.91-1.61,1.45-.5.54-.69,1.36-.8,2.08-.07.5-.08,1.04.03,1.56,0,0,0,0,.02,0,.44.61.66,1.31.94,2,.32.79.76,1.52,1.12,2.31.31.7.64,1.41.94,2.12.32.75.51,1.54.74,2.32.23.77.51,1.23,1.16,1.71.41.3.79.6,1.18.93.46.41.86.85,1.19,1.38.27.43.53.87.9,1.23,1.05,1.01,2.32.68,3.59.31,1.18-.35,2.25-.39,3.3.32.5.33.9.78,1.4,1.11.62.41,1.31.32,1.95,0,.59-.3,1.13-.77,1.55-1.28.37-.43.59-.97,1.02-1.35.4-.35.99-.53,1.29-.98.36-.54.27-1.27.55-1.85.22-.42.58-.67,1.01-.84.38-.16.78-.32,1.2-.42,0-.39.06-.81.11-1.16.11-.63.32-1.23.69-1.74.41-.59.7-1.09.88-1.8.13-.57.26-1.17.55-1.69.27-.49.7-.76,1.13-1.1.51-.42.96-.97,1.31-1.53.62-.99.83-2.19,1.44-3.17Z"/><path class="cls-1" d="m646.19,145.29c.09.2.18.41.29.6-.61.99-.82,2.19-1.44,3.17-.35.56-.8,1.11-1.31,1.53-.42.34-.86.61-1.13,1.1-.3.52-.42,1.12-.55,1.69-.18.71-.46,1.21-.88,1.8-.37.52-.58,1.12-.69,1.74-.06.35-.12.77-.11,1.16-.41.1-.82.27-1.2.42-.43.17-.79.41-1.01.84-.29.58-.19,1.31-.55,1.85-.3.45-.89.63-1.29.98-.43.38-.65.91-1.02,1.35-.42.51-.96.99-1.55,1.28-.65.33-1.34.41-1.95,0-.5-.32-.9-.77-1.4-1.11-1.05-.71-2.12-.67-3.3-.32-1.26.37-2.54.7-3.59-.31-.37-.36-.64-.79-.9-1.23-.33-.53-.73-.97-1.19-1.38-.39-.33-.77-.64-1.18-.93-.65-.48-.93-.94-1.16-1.71-.23-.78-.41-1.58-.74-2.32-.3-.71-.63-1.42-.94-2.12-.36-.78-.79-1.51-1.12-2.31-.28-.69-.5-1.39-.94-2,0,0-.02,0-.02,0-.11-.52-.1-1.06-.03-1.56.11-.72.3-1.54.8-2.08.48-.53,1.22-.83,1.61-1.45.39-.6.31-1.36.45-2.04.3-1.6,1.38-2.27,2.79-2.84.66-.28,1.3-.6,1.85-1.07.66-.55,1.14-1.29,1.74-1.9.66-.67,1.54-1.12,2.45-1.31.8-.17,1.5.04,2.2-.48.62-.45,1.14-1.11,1.84-1.44.94-.43,1.84.15,2.77.27,1.74.22,3.56-1.03,5.24-.24,1.28.62,2.05,1.94,3.1,2.84.77.65,1.5,1.1,1.77,2.13.24.99.34,2.01.53,3.01.19,1.01.53,1.93.99,2.86.26.51.53,1.01.76,1.53Z"/><path class="cls-1" d="m742.59,56.74c.25.87.36,1.74.29,2.64-.06.94-.42,1.82-.53,2.75-.1.85-.1,1.71-.53,2.48-.33.61-.88,1.02-1.48,1.34.25.33-.17.92-.58.64-.63-.42-.98-1.07-1.53-1.57-.65-.58-1.48-.9-2.35-.96-.77-.05-1.54.1-2.31.03-.67-.06-1.14-.37-1.69-.77-1.22-.89-2.84-.5-4.27-.49-1.35,0-2.92-.02-3.81,1.17-.35.47-.66.86-1.13,1.21-.55.42-.49,1.11-.68,1.73-.27.89-.74,1.83-1.64,2.2-1.26.53-2.27-.31-3.38-.81-1.35-.6-3-.47-4.37-.04-.75.24-1.48.61-2.04,1.16-.49.48-.87,1.02-1.38,1.48-1.18,1.03-2,2.14-2.43,3.67.09.03.18.06.27.09.18.07.05.36-.14.3-1.84-.54-4.24-.91-5.95.22-.61.41-1.12.95-1.75,1.31-.68.38-1.33.37-2.08.37-.61,0-1.04.13-1.56.44-.3.18-.6.36-.93.49-.85.34-1.95.54-2.86.45-.98-.09-1.86-.4-2.87-.33-.35.03-.69.06-1.03.08-.2,0-.76-.05-.93.08,0,.04.03.06.04.09.09.31-.37.42-.48.13-.49-1.38-2.24-1.92-3.42-2.55-1.6-.86-2.75-2.29-4.65-2.45-.96-.08-1.91-.08-2.86-.24-1.13-.18-2.27-.32-3.4-.47-1.02-.13-2.04-.26-3.06-.31-.51-.03-1.01-.04-1.52-.03-.4,0-.83.06-1.24.02-.06.06-.16.06-.22-.03-.03,0-.06,0-.07,0-.07-.02-.09-.13-.03-.17-.28-.53-.3-1.15-.46-1.72-.25-.84-.67-1.64-.88-2.5-.41-1.73.36-3.24.65-4.91.12-.64.1-1.19.52-1.73.5-.66.8-1.15.65-2.03-.2-1.22-1.01-2.28-.33-3.49.6-1.05,1.8-1.92,2.77-2.62.65-.47,1.36-.77,2.07-1.13.67-.34,1.21-.85,1.76-1.35.77-.68,1.39-1.78,2.58-1.32.64.25,1.11.83,1.79,1.02.31.08.63.07.95,0,.37-.07.39-.21.52-.54.55-1.39.67-2.96,1.52-4.23.39-.59.92-1.01,1.55-1.34.63-.32,1.28-.59,1.75-1.13.02-.02.04-.02.06-.03.29-.9,1.21-1.58,2.01-1.99,1.01-.53,2.13-.8,3.25-1,1.09-.18,2.16-.2,3.18.26.65.29,1.16.76,1.75,1.13.61.38,1.33.53,2.04.51.67-.02,1.28-.2,1.96-.11.65.08,1.29.3,1.95.41,1.43.25,2.66-.12,3.61-1.24.78-.89,1.19-2.06,2.17-2.78.89-.65,2.01-.89,3.05-.47,1.23.5,2.14,1.54,3.56,1.56.78.02,1.5-.19,2.3-.09.62.08,1.22.18,1.75.51.06.04.09.09.09.15.8.33,1.6.67,2.46.77.92.1,1.86-.07,2.78.09,1.8.31,2.34,1.92,2.69,3.49.16.67.21,1.57.77,2.05.53.45,1.28.42,1.91.22.75-.25,1.19-.75,1.54-1.43.31-.6.65-1.07,1.3-1.31,1.4-.54,2.88-.13,3.85,1,.58.67.95,1.5,1.42,2.25.52.82,1.05,1.44,1.93,1.87.67.34,1.39.61,2.01,1.04.27.19.53.41.72.69.24.36.29.76.43,1.15.35.95,1.06,1.76,1.59,2.62.44.73.82,1.51,1.07,2.33Zm-.31,3.65c.53-2.08-.27-4.22-1.45-5.93-.49-.72-1.03-1.45-1.39-2.25-.18-.41-.22-.88-.48-1.25-.21-.32-.56-.57-.89-.77-.62-.39-1.3-.63-1.93-.99-.65-.35-1.1-.87-1.5-1.47-.92-1.36-1.59-3.51-3.51-3.63-.78-.06-1.68.11-2.14.8-.35.54-.53,1.14-1.05,1.56-.77.63-1.95.93-2.88.51-1.17-.53-1.2-1.92-1.48-3-.18-.73-.42-1.46-.95-2.02-.65-.67-1.57-.78-2.44-.79-.81,0-1.59.02-2.37-.19-.72-.2-1.4-.53-2.08-.82-.69,0-1.36-.27-2.07-.28-.74-.02-1.44.21-2.18.09-.67-.1-1.27-.38-1.84-.76-.58-.41-1.19-.9-1.9-1.05-1.37-.27-2.46.75-3.13,1.82-.55.89-1.14,1.75-2.03,2.33-.96.64-2.05.69-3.15.5-.7-.12-1.37-.37-2.08-.41-.64-.05-1.24.16-1.88.14-.54,0-1.12-.09-1.62-.31-.58-.26-1.04-.69-1.57-1.03-1.12-.72-2.3-.77-3.57-.54-.98.18-1.96.38-2.87.78-.51.23-1,.52-1.4.89-.28.25-.5.54-.74.82.04.06.06.13,0,.2-.4.6-1.04.89-1.67,1.21-.81.41-1.42.93-1.83,1.76-.43.87-.59,1.81-.86,2.73-.1.37-.25.71-.39,1.07-.06.16-.11.34-.23.47-.28.29-.84.3-1.2.29-.5-.02-.94-.22-1.36-.5-.62-.42-1.25-1.13-2.03-.56-.46.34-.82.87-1.25,1.26-.53.5-1.05.97-1.71,1.31-.58.3-1.19.53-1.73.89-.69.46-1.32,1.01-1.93,1.57-.4.36-.83.76-1.06,1.25-.38.79,0,1.47.25,2.22.18.56.34,1.2.25,1.79-.11.64-.53,1.01-.87,1.54-.33.52-.27,1.17-.41,1.75-.37,1.54-.99,3.05-.53,4.67.21.75.56,1.46.77,2.21.16.55.17,1.17.39,1.71.32-.07.67-.07,1-.1.58-.03,1.16-.02,1.74,0,1.17.06,2.33.19,3.49.35,1.1.14,2.19.3,3.29.46,1.09.17,2.19.07,3.26.29,1.75.34,3.02,1.86,4.56,2.64,1.09.53,2.5,1.04,3.08,2.18.32-.18.89-.15,1.19-.18.75-.07,1.48-.21,2.23-.13.96.11,1.76.41,2.75.25.82-.13,1.57-.31,2.29-.74.65-.4,1.17-.55,1.95-.53.76.02,1.37-.02,2.03-.44.53-.35.99-.79,1.52-1.13.58-.37,1.23-.59,1.89-.71,1.24-.24,2.51-.12,3.7.28.37-1.6,1.27-2.79,2.5-3.86.64-.56,1.1-1.29,1.76-1.82.56-.43,1.22-.75,1.88-.96,1.33-.42,2.84-.55,4.19-.14,1.27.39,2.71,1.84,3.99.66.47-.43.7-1.07.85-1.67.14-.53.07-1.13.41-1.58.2-.29.52-.43.77-.66.28-.26.46-.59.69-.89.32-.42.71-.73,1.21-.94,1.21-.5,2.55-.38,3.84-.41.84-.04,1.76-.17,2.59,0,.61.12,1.07.49,1.55.85.68.51,1.47.46,2.27.39.66-.06,1.3-.07,1.95.07.66.16,1.28.47,1.83.89.48.37.85.88,1.33,1.24.37-.28.77-.53,1.09-.87.37-.41.55-.94.66-1.47.1-.47.14-.95.23-1.42.1-.5.26-.98.38-1.48Z"/><path class="cls-1" d="m740.83,54.46c1.18,1.71,1.97,3.85,1.45,5.93-.12.5-.28.98-.38,1.48-.09.47-.13.95-.23,1.42-.11.53-.3,1.06-.66,1.47-.31.33-.72.59-1.09.87-.48-.37-.85-.88-1.33-1.24-.54-.42-1.16-.74-1.83-.89-.65-.15-1.29-.13-1.95-.07-.8.07-1.59.12-2.27-.39-.48-.36-.94-.73-1.55-.85-.83-.16-1.75-.03-2.59,0-1.28.04-2.63-.08-3.84.41-.5.21-.89.52-1.21.94-.23.3-.41.63-.69.89-.26.23-.57.38-.77.66-.33.45-.27,1.04-.41,1.58-.15.6-.38,1.24-.85,1.67-1.28,1.18-2.72-.28-3.99-.66-1.35-.41-2.86-.29-4.19.14-.66.21-1.32.53-1.88.96-.66.53-1.13,1.25-1.76,1.82-1.23,1.07-2.13,2.26-2.5,3.86-1.19-.4-2.45-.52-3.7-.28-.66.12-1.31.34-1.89.71-.53.34-1,.78-1.52,1.13-.65.42-1.27.46-2.03.44-.77-.02-1.29.14-1.95.53-.72.42-1.47.61-2.29.74-.99.17-1.79-.14-2.75-.25-.76-.08-1.48.06-2.23.13-.3.04-.87,0-1.19.18-.58-1.13-1.99-1.64-3.08-2.18-1.55-.77-2.81-2.3-4.56-2.64-1.07-.21-2.18-.12-3.26-.29-1.1-.16-2.19-.32-3.29-.46-1.16-.16-2.32-.3-3.49-.35-.58-.03-1.16-.04-1.74,0-.32.03-.67.03-1,.1-.22-.53-.23-1.15-.39-1.71-.21-.76-.56-1.47-.77-2.21-.45-1.61.17-3.13.53-4.67.14-.58.07-1.24.41-1.75.34-.53.76-.9.87-1.54.09-.59-.06-1.23-.25-1.79-.24-.76-.63-1.43-.25-2.22.23-.5.66-.89,1.06-1.25.61-.56,1.24-1.11,1.93-1.57.54-.36,1.15-.6,1.73-.89.65-.34,1.17-.81,1.71-1.31.43-.4.79-.92,1.25-1.26.77-.57,1.41.14,2.03.56.41.28.86.48,1.36.5.36,0,.92,0,1.2-.29.12-.13.17-.31.23-.47.14-.36.29-.7.39-1.07.27-.92.42-1.86.86-2.73.41-.83,1.01-1.35,1.83-1.76.63-.32,1.27-.61,1.67-1.21.06-.07.03-.14,0-.2.24-.28.46-.57.74-.82.41-.38.89-.66,1.4-.89.9-.41,1.89-.61,2.87-.78,1.27-.22,2.45-.18,3.57.54.53.34.99.77,1.57,1.03.51.22,1.08.3,1.62.31.64.02,1.24-.18,1.88-.14.71.05,1.38.3,2.08.41,1.11.19,2.19.14,3.15-.5.89-.58,1.48-1.45,2.03-2.33.66-1.07,1.75-2.08,3.13-1.82.71.15,1.32.65,1.9,1.05.56.38,1.16.65,1.84.76.74.12,1.44-.11,2.18-.09.71,0,1.38.27,2.07.28.68.3,1.36.62,2.08.82.78.21,1.56.18,2.37.19.88,0,1.8.12,2.44.79.53.56.77,1.29.95,2.02.28,1.08.3,2.47,1.48,3,.93.42,2.1.12,2.88-.51.53-.41.7-1.01,1.05-1.56.46-.69,1.36-.86,2.14-.8,1.93.12,2.59,2.28,3.51,3.63.41.6.86,1.12,1.5,1.47.63.36,1.31.6,1.93.99.32.2.67.45.89.77.26.38.3.85.48,1.25.36.8.9,1.53,1.39,2.25Z"/><path class="cls-1" d="m719.8,99.9c.11,1.35-.22,2.96-.95,4.1-.6.95-1.6,1.53-2.27,2.43-.52.7-.7,1.62-1.43,2.16-.42.31-.94.42-1.42.62-.55.21-1.09.49-1.6.79-1.04.64-2.03,1.45-2.73,2.45-.54.78-.86,1.79-1.64,2.38-.89.66-1.87.32-2.83,0-.58-.19-1.21-.31-1.75.06-.41.29-.61.79-.77,1.24-.3.83-.59,1.69-1.33,2.23-.75.54-1.69.53-2.57.48-1.16-.06-2.4-.19-3.38-.9-.95-.68-1.61-1.68-2.53-2.41-.98-.78-2.08-1.35-3.18-1.93-1.03-.53-1.74-1.14-2.27-2.18-.61-1.19-1.04-2.44-1.54-3.67-.49-1.21-1.23-2.34-1.56-3.61-.32-1.23-.18-2.54-.22-3.79-.04-.04-.06-.09-.06-.16.13-.94,1.72-.75,2.36-.77.74,0,1.44-.3,2.13-.54.73-.26,1.51-.46,2.19-.83.53-.29.82-.73,1.04-1.28.32-.81.66-1.62.9-2.46.43-1.51.14-3.1,1.11-4.44.18-.26.56-.11.59.12.58-.57,1.38-.95,2.12-1.24,1.01-.41,2.06-.56,3.11-.8,1.23-.29,2.41-.74,3.52-1.32.6-.3,1.17-.65,1.79-.94.43-.2.95-.5,1.45-.48.45-.25,1.35.64,1.6.88.74.71,1.36,1.57,2.3,2.05.87.44,1.95.5,2.9.41.51-.06,1.03-.16,1.5-.37.31-.15.71-.61,1.06-.58.09,0,.2.06.22.17.02.13-.02.25-.08.35.44.51.81,1.06,1.19,1.61.41.62.89,1.18,1.32,1.78.82,1.14,1.36,2.35,1.35,3.77,0,.76-.08,1.51,0,2.26.09.79.29,1.56.35,2.35Zm-.96,2.66c.23-.72.39-1.48.38-2.23,0-.65-.14-1.3-.25-1.95-.1-.63-.18-1.25-.17-1.9.02-.58.06-1.17,0-1.76-.15-1.3-.94-2.37-1.72-3.37-.38-.48-.76-.97-1.09-1.49-.27-.43-.51-.89-.79-1.32-.51.33-1.29.51-1.65.58-.97.17-1.98.16-2.93-.09-1.16-.3-1.98-1.12-2.77-1.98-.29-.3-.55-.63-.86-.91-.19-.18-.39-.35-.62-.48l-.22-.11c-.42.35-1.06.51-1.54.75-.54.26-1.05.57-1.58.85-.99.5-2.03.89-3.1,1.14-1.07.25-2.15.31-3.19.66-1.02.34-1.86.89-2.78,1.42-.85,1.33-.56,3.01-1.05,4.47-.26.78-.56,1.57-.88,2.32-.2.45-.45.89-.85,1.19-.43.34-.96.52-1.47.7-.87.3-1.72.62-2.62.79-.53.1-1.02.07-1.56.06-.4,0-1.32-.11-1.41.41,0,.03-.02.03-.03.05.22,1.35.04,2.74.49,4.03.24.68.61,1.3.93,1.95.3.61.54,1.23.8,1.85.27.68.53,1.37.83,2.04.3.64.6,1.36,1.09,1.87.83.88,2.14,1.26,3.16,1.86.98.57,1.89,1.24,2.67,2.07.84.89,1.57,1.7,2.8,1.97.96.22,2.25.4,3.21.12,1.01-.29,1.36-1.26,1.71-2.16.26-.71.59-1.41,1.31-1.75.94-.45,1.8-.03,2.71.24,1.23.37,1.94-.35,2.53-1.34.52-.89,1.1-1.68,1.87-2.37.79-.72,1.7-1.31,2.67-1.77.89-.42,1.94-.57,2.45-1.48.23-.41.4-.85.65-1.24.27-.41.61-.75.96-1.08.84-.79,1.53-1.48,1.89-2.63Z"/><path class="cls-1" d="m719.22,100.33c0,.76-.15,1.51-.38,2.23-.36,1.14-1.05,1.84-1.89,2.63-.35.33-.69.67-.96,1.08-.26.39-.42.83-.65,1.24-.52.91-1.57,1.06-2.45,1.48-.97.46-1.87,1.05-2.67,1.77-.77.69-1.36,1.48-1.87,2.37-.59.99-1.3,1.71-2.53,1.34-.91-.27-1.77-.69-2.71-.24-.72.34-1.05,1.04-1.31,1.75-.34.89-.69,1.87-1.71,2.16-.96.28-2.25.1-3.21-.12-1.24-.28-1.96-1.08-2.8-1.97-.77-.82-1.69-1.49-2.67-2.07-1.02-.6-2.33-.99-3.16-1.86-.49-.52-.79-1.24-1.09-1.87-.3-.66-.56-1.36-.83-2.04-.26-.63-.51-1.24-.8-1.85-.32-.65-.69-1.27-.93-1.95-.45-1.29-.27-2.68-.49-4.03,0-.02.03-.02.03-.05.09-.52,1.01-.41,1.41-.41.53,0,1.03.04,1.56-.06.9-.18,1.75-.5,2.62-.79.51-.18,1.03-.36,1.47-.7.4-.3.65-.74.85-1.19.31-.76.62-1.54.88-2.32.49-1.47.2-3.14,1.05-4.47.91-.53,1.75-1.08,2.78-1.42,1.04-.35,2.12-.41,3.19-.66,1.07-.26,2.11-.65,3.1-1.14.53-.28,1.03-.59,1.58-.85.48-.24,1.12-.4,1.54-.75l.22.11c.23.13.42.3.62.48.3.29.57.61.86.91.78.87,1.6,1.68,2.77,1.98.95.25,1.96.26,2.93.09.36-.07,1.14-.25,1.65-.58.29.43.53.89.79,1.32.33.53.71,1.01,1.09,1.49.78,1,1.58,2.07,1.72,3.37.06.59.02,1.18,0,1.76,0,.65.06,1.27.17,1.9.11.65.25,1.29.25,1.95Z"/><path class="cls-1" d="m810.86,99.8c1.28,1.09,1.73,2.77,1.14,4.32-.66,1.75-2.08,3.14-3.53,4.25-.8.62-1.67,1.17-2.55,1.68-.62.36-1.26.64-1.96.63-.06.12-.23.19-.36.16,0,0-.02,0-.03,0-.16-.06-.27-.22-.21-.39.29-1.01.14-2.09-.38-3.01-.37-.65-.9-1.19-1.22-1.88-.15-.34-.22-.66-.23-1.03,0-.57-.06-.95-.41-1.43-.49-.69-1.13-1.28-1.57-2.01-.75-1.23-.49-2.78-1.31-3.98-.73-1.06-2.32-1.28-3.49-1.36-1.09-.08-2.32-.18-3.36.2-.4.15-.74.39-.98.74-.19.28-.3.6-.53.87-.34.4-.81.54-1.32.64-.89.17-1.87.33-2.39,1.16-.29.46-.45.99-.9,1.32-.97.72-2.29.55-3.37.27-.59-.16-1.09-.27-1.69-.09-.3.08-.59.2-.9.28-.77.18-1.56.19-2.32.36-.78.18-1.58.56-2.12,1.16-.56.63-.76,1.62-.69,2.43,0,.07-.05.12-.1.15,0,.02-.03.04-.05.05-1.27.52-2.03,2-3.44,2.2-1.3.19-2.45-.82-3.36-1.62-.58-.51-1.14-.99-1.8-1.38-.57-.34-1.2-.65-1.7-1.11-.75-.68-1.12-1.88-.49-2.77.4-.54.95-.85,1.09-1.55.11-.53.16-.99.46-1.44.46-.67,1.19-.81,1.95-.76.64.05,1.51.33,2.07-.1.42-.34.34-1.07.49-1.55.3-.97,1.2-1.28,2.07-1.61,1.2-.45,2.15-1.27,2.74-2.42.29-.53.44-1.12.7-1.66.25-.53.64-.98,1.01-1.43.85-1.02,1.27-2.29,2.07-3.34.69-.9,1.56-1.74,2.64-2.16,1.2-.46,2.51-.39,3.76-.29.65.05,1.36.09,1.96.35.41.18.72.49,1.05.77,1.01.87,2.25,1.14,3.51,1.47.7.19,1.33.59,2.04.77.57.14,1.15.04,1.73.11.5.07.92.25,1.26.63.23.25.38.52.67.7.29.18.61.29.93.35.72.15,1.43.04,2.1-.23.53-.21,1.05-.42,1.62-.41.62.02,1.19.25,1.76.47.55.21,1.13.4,1.66.66.59.3,1.06.74,1.6,1.12.47.34,1.01.55,1.46.93.07.06.07.15.05.23.6.3,1.12,1.06,1.42,1.56.53.87.72,1.95.96,2.94.24.96.15,1.78-.07,2.74-.12.53-.31,1.13,0,1.61.2.3.52.52.78.75Zm.94,3.09c.07-.82-.33-1.75-.85-2.38-.36-.43-.89-.71-1.23-1.18-.4-.55-.28-1.17-.15-1.8.12-.53.29-1.05.3-1.6,0-.48-.12-.95-.25-1.41-.22-.83-.36-1.71-.8-2.45-.42-.73-1.06-1.22-1.6-1.84-.48-.3-1.01-.53-1.47-.89-.55-.42-1.09-.82-1.72-1.1-.62-.28-1.27-.52-1.92-.72-.78-.26-1.44-.18-2.19.11-1.07.41-2.21.53-3.28.04-.26-.11-.52-.27-.72-.47-.22-.22-.35-.52-.61-.7-.59-.42-1.39-.25-2.07-.32-.52-.05-.98-.25-1.45-.45-.59-.26-1.16-.41-1.79-.57-1.02-.27-2.02-.64-2.85-1.32-.49-.4-.86-.78-1.51-.93-.66-.15-1.36-.18-2.05-.21-1.29-.06-2.59,0-3.7.76-1.09.73-1.84,1.83-2.43,2.98-.27.52-.53,1.02-.87,1.48-.34.45-.76.86-1.07,1.33-.61.91-.8,2.03-1.48,2.93-.56.76-1.32,1.36-2.19,1.72-.53.22-1.12.35-1.59.7-.48.35-.57.88-.65,1.43-.13.9-.66,1.38-1.6,1.39-.87,0-2.05-.48-2.73.29-.44.51-.37,1.13-.54,1.72-.13.41-.4.72-.67,1.03-.44.53-.69,1.05-.42,1.72.23.58.73.93,1.24,1.24.51.31,1.04.59,1.53.93.44.32.84.69,1.24,1.05,1.01.89,2.4,2.05,3.79,1.26.84-.47,1.48-1.21,2.37-1.59-.24-1.66.84-3.04,2.31-3.65.86-.36,1.81-.37,2.71-.53.81-.13,1.56-.58,2.4-.43.94.16,1.76.5,2.72.31.88-.17,1.33-.6,1.73-1.36.33-.62.76-1.01,1.41-1.28.75-.3,1.81-.2,2.4-.79.46-.46.61-1.1,1.17-1.48.49-.33,1.08-.46,1.65-.53,1.2-.13,2.51-.06,3.69.18,1.21.25,2.31.75,2.83,1.93.33.75.39,1.51.57,2.3.2.86.71,1.51,1.27,2.17.47.54,1.1,1.16,1.25,1.89.08.41,0,.83.13,1.23.12.4.37.75.6,1.08.45.65.89,1.25,1.13,2.02.21.71.22,1.42.18,2.15,1.85-.4,3.48-1.75,4.89-2.94,1.33-1.13,2.75-2.63,2.92-4.45Z"/><path class="cls-1" d="m810.95,100.51c.52.63.92,1.56.85,2.38-.18,1.83-1.6,3.32-2.92,4.45-1.41,1.19-3.03,2.55-4.89,2.94.05-.73.04-1.44-.18-2.15-.23-.77-.67-1.37-1.13-2.02-.23-.33-.48-.68-.6-1.08-.13-.4-.05-.82-.13-1.23-.16-.73-.78-1.35-1.25-1.89-.56-.65-1.07-1.31-1.27-2.17-.18-.78-.24-1.55-.57-2.3-.53-1.18-1.62-1.68-2.83-1.93-1.18-.24-2.49-.31-3.69-.18-.57.06-1.16.19-1.65.53-.56.38-.71,1.01-1.17,1.48-.59.59-1.65.49-2.4.79-.65.28-1.08.66-1.41,1.28-.41.77-.86,1.2-1.73,1.36-.96.18-1.78-.16-2.72-.31-.84-.15-1.59.3-2.4.43-.9.16-1.85.17-2.71.53-1.48.61-2.55,1.99-2.31,3.65-.89.38-1.53,1.12-2.37,1.59-1.39.78-2.78-.38-3.79-1.26-.41-.36-.8-.73-1.24-1.05-.49-.34-1.02-.62-1.53-.93-.52-.31-1.01-.66-1.24-1.24-.27-.67-.02-1.2.42-1.72.28-.31.54-.62.67-1.03.18-.6.1-1.22.54-1.72.68-.77,1.86-.28,2.73-.29.94,0,1.48-.49,1.6-1.39.07-.55.17-1.08.65-1.43.47-.35,1.06-.48,1.59-.7.88-.36,1.63-.96,2.19-1.72.67-.9.87-2.02,1.48-2.93.31-.47.73-.88,1.07-1.33.34-.46.6-.97.87-1.48.59-1.15,1.35-2.25,2.43-2.98,1.11-.76,2.41-.82,3.7-.76.69.03,1.38.06,2.05.21.65.15,1.02.53,1.51.93.83.68,1.83,1.05,2.85,1.32.63.16,1.2.31,1.79.57.47.2.93.41,1.45.45.67.07,1.48-.1,2.07.32.26.18.39.48.61.7.2.2.46.36.72.47,1.07.5,2.21.37,3.28-.04.76-.3,1.41-.37,2.19-.11.65.2,1.3.44,1.92.72.64.28,1.17.67,1.72,1.1.45.35.99.58,1.47.89.53.63,1.17,1.12,1.6,1.84.44.75.58,1.62.8,2.45.13.46.25.93.25,1.41,0,.54-.18,1.07-.3,1.6-.13.63-.25,1.24.15,1.8.33.47.87.75,1.23,1.18Z"/><path class="cls-1" d="m802.07,140.9c.1.54.1,1.08-.18,1.58-.3.53-.78.93-1.15,1.41-.46.58-.65,1.34-1.12,1.92-.35.44-.87.6-1.25.98-.41.4-.52.93-1.05,1.21-.2.11-.43.18-.64.3-.41.27-.52.7-.59,1.16-.12.79-.21,1.62-.21,2.43,0,.71.11,1.41.07,2.12-.04.83,0,2.06-1,2.3-.62.16-1.15,0-1.73.35-.39.23-.74.53-1.15.73-.41.19-.84.27-1.27.08-.5-.22-.83-.69-1.33-.93-.78-.38-1.45-.09-2.1.39-.37.27-.72.48-1.13.54-.08.06-.18.07-.26.03-.02,0-.04,0-.06,0-.24,0-.3-.26-.19-.41-.07-.29-.15-.56-.25-.86-.24-.71-.54-1.41-.79-2.13-.24-.7-.37-1.48-.76-2.13-.37-.61-.89-1.14-1.35-1.7-.8-.97-1.52-1.95-2.57-2.66-.53-.36-1.42-.87-1.3-1.62,0-.06.05-.09.08-.11.3-.82.37-1.68.54-2.53.1-.47.22-.89.65-1.17.37-.23.82-.3,1.24-.41.24-.07.51-.16.69-.34.29-.3.17-.69.24-1.06.16-.72.76-1.24.9-1.96.16-.82.02-1.67.21-2.49.28-1.15,1.21-1.4,2.27-1.47.57-.05,1.38,0,1.84-.4.45-.4.4-1.04.61-1.56.26-.65.85-1.1,1.5-1.28,1.24-.35,3.01.03,3.31,1.46.15.69-.02,1.29.77,1.6.19.08.39.15.57.28.29.21.46.58.77.76.63.34,1.52-.11,2.17-.21.5-.08,1-.08,1.48.03,1.12.23,2.16.77,2.69,1.8.31.6.44,1.24.47,1.91.03.73.2,1.36.33,2.08Zm-1.21,2.21c.8-.64,1.17-1.38.81-2.38-.19-.55-.41-1.04-.48-1.63-.11-.81-.17-1.53-.64-2.24-.3-.44-.75-.77-1.24-1.01-.65-.3-1.39-.42-2.1-.31-.53.08-1.05.29-1.59.33-.46.03-.9-.08-1.24-.41-.23-.23-.38-.51-.68-.67-.22-.12-.48-.17-.7-.3-.8-.51-.36-1.48-.77-2.19-.76-1.32-3.16-1.08-3.83.2-.41.79-.27,1.77-1.26,2.16-.88.34-1.91.04-2.76.44-1.27.6-.65,2.66-1.02,3.75-.21.61-.76,1.1-.83,1.75-.05.44,0,.77-.33,1.12-.55.55-1.4.4-2.01.82-.51.35-.5,1.19-.58,1.74-.1.65-.25,1.26-.51,1.87.08.38.63.68.91.87.34.22.72.41,1.04.68.96.77,1.62,1.91,2.38,2.87.37.47.76.94,1.01,1.49.27.57.4,1.21.61,1.81.24.68.54,1.34.79,2.01.11.3.34.65.45,1.01.55-.18.99-.67,1.51-.91.5-.22,1.04-.26,1.55-.09.63.2,1,.65,1.52.99s1.03,0,1.49-.3c.42-.26.85-.54,1.35-.64.3-.06.63,0,.92-.08.47-.1.61-.37.71-.79.15-.63.18-1.28.15-1.92-.03-.79.04-1.53.13-2.31.11-.91-.02-2.26.89-2.79.25-.14.53-.22.76-.39.32-.24.39-.53.58-.85.21-.38.53-.59.88-.84.61-.47.78-1.1,1.15-1.74.26-.45.55-.78.96-1.12Z"/><path class="cls-1" d="m801.68,140.74c.36,1,0,1.74-.81,2.38-.41.33-.7.66-.96,1.12-.37.65-.54,1.27-1.15,1.74-.34.25-.66.46-.88.84-.19.32-.26.61-.58.85-.23.17-.51.25-.76.39-.91.53-.78,1.88-.89,2.79-.09.78-.16,1.52-.13,2.31.03.64,0,1.29-.15,1.92-.1.42-.24.69-.71.79-.3.07-.62.03-.92.08-.5.09-.92.38-1.35.64-.46.29-.97.63-1.49.3s-.89-.78-1.52-.99c-.51-.17-1.05-.13-1.55.09-.53.24-.96.73-1.51.91-.11-.35-.34-.7-.45-1.01-.25-.67-.55-1.33-.79-2.01-.21-.6-.34-1.24-.61-1.81-.25-.55-.64-1.02-1.01-1.49-.76-.96-1.42-2.1-2.38-2.87-.32-.27-.7-.46-1.04-.68-.29-.18-.83-.49-.91-.87.26-.61.41-1.23.51-1.87.08-.55.07-1.39.58-1.74.61-.42,1.46-.27,2.01-.82.34-.34.29-.67.33-1.12.07-.65.62-1.14.83-1.75.37-1.1-.25-3.15,1.02-3.75.85-.41,1.88-.1,2.76-.44,1-.39.85-1.36,1.26-2.16.66-1.28,3.07-1.52,3.83-.2.41.71-.04,1.68.77,2.19.22.14.48.18.7.3.3.17.45.44.68.67.33.32.77.43,1.24.41.53-.05,1.05-.25,1.59-.33.71-.11,1.45.02,2.1.31.49.23.94.56,1.24,1.01.47.71.53,1.43.64,2.24.07.59.29,1.08.48,1.63Z"/><path class="cls-1" d="m676.48,186.59c.34.82.18,1.73-.03,2.55-.15.61-.36,1.2-.4,1.84-.04.48,0,.97.05,1.45.07.89.03,1.77-.38,2.6-.85,1.74-3.19,1.83-3.91,3.68-.3.8-.48,1.67-1.01,2.36-.51.66-1.23,1.08-1.99,1.37-1.88.73-3.81,1.34-5.18,2.9-.68.78-1.09,1.62-1.3,2.64-.18.87-.61,1.66-1.28,2.24-.55.48-1.27.94-2.03,1.01-.83.08-1.48-.44-2.14-.87-.94-.6-2.01-.76-2.92-.04-.58.44-1.13.89-1.91.77-1.4-.2-1.9-1.48-2.34-2.65-.25-.66-.53-1.37-1.14-1.79-.85-.59-1.9-.83-2.77-1.4-.82-.55-1.53-1.25-2.35-1.8-.84-.55-1.77-.77-2.71-1.05-1.86-.56-3.38-1.72-4.26-3.47-.25-.5-.5-.97-.82-1.42-.25-.33-.49-.67-.65-1.06-.35-.85-.07-1.72.15-2.56.5-1.9,1.04-4.72-.92-6.01-.65-.43-1.49-.58-2.02-1.18-.57-.64-.6-1.56-.84-2.34-.27-.89-.77-1.81-.83-2.75-.02-.35.07-.67.2-1,.21-.51.24-.95.31-1.48.32-2.06,2.92-1.35,4.3-1.24,1.05.08,2.12-.09,3.18-.06.96.02,1.97.14,2.9-.17,1.03-.33,1.76-1.23,2.43-2.05.62-.77,1.18-1.57,1.76-2.36-.12-.1,0-.34.16-.29.02,0,.03,0,.05,0,0,0,0-.02.02-.03.12-.17.37-.04.3.13,1.79.54,3.76,1.05,5.23,2.24.67.54,1.17,1.27,1.82,1.84.71.64,1.59,1.08,2.43,1.51,1.72.88,3.64.92,5.51.61.91-.16,1.86-.33,2.78-.23,1,.12,1.94.43,2.95.3.92-.11,1.75-.57,2.45-1.17.5-.43.97-.9,1.5-1.28-.06-.12-.13-.25-.2-.37-.18-.3.3-.59.48-.28.07.12.13.24.2.36.32-.15.59.35.27.49h0c.36.67.69,1.35,1.01,2.05.4.89.77,1.79,1.08,2.72.31.93.59,1.94,1.23,2.71.53.65,1.24,1.18,1.58,1.98Zm-.67,2.91c.34-1.03.74-2.15.09-3.14-.45-.71-1.16-1.22-1.62-1.93-.47-.71-.74-1.53-1.01-2.33-.55-1.62-1.32-3.19-2.16-4.7-.72.44-1.32,1.06-1.99,1.57-.76.57-1.6.92-2.55.99-1.05.06-2.02-.31-3.05-.33-1.02-.02-2.03.26-3.04.4-1.73.23-3.57-.02-5.13-.81-.84-.42-1.69-.88-2.41-1.48-.69-.58-1.19-1.35-1.87-1.94-1.42-1.21-3.4-1.65-5.12-2.36-.47.67-.93,1.35-1.44,1.99-.56.73-1.17,1.52-1.93,2.07-.64.47-1.4.65-2.19.71-.92.06-1.84-.02-2.77.02-.99.04-1.95.18-2.93.06-.89-.12-2.24-.4-2.93.4-.35.41-.26,1-.37,1.49-.09.42-.37.77-.41,1.21-.06.47.16.95.31,1.39.17.46.34.91.5,1.38.29.86.3,1.99,1.16,2.52.65.39,1.39.55,1.97,1.07.62.56,1.01,1.42,1.15,2.24.15.86.07,1.73-.07,2.59-.16.98-.64,1.99-.65,2.98-.02.99.81,1.72,1.24,2.55.48.91.88,1.76,1.67,2.45.81.71,1.74,1.14,2.77,1.43.85.24,1.69.44,2.45.9.8.48,1.49,1.14,2.26,1.7.81.58,1.73.91,2.62,1.36,1.27.63,1.59,1.75,2.1,2.97.24.6.57,1.22,1.19,1.49,1.02.44,1.56-.37,2.34-.83.65-.39,1.48-.39,2.2-.18.77.24,1.35.85,2.09,1.14.88.34,1.86-.31,2.46-.92.75-.77.75-1.66,1.03-2.62.5-1.67,1.95-2.97,3.43-3.77.78-.43,1.61-.77,2.44-1.08.88-.32,1.79-.59,2.43-1.29.65-.71.72-1.65,1.07-2.5.3-.73.77-1.26,1.41-1.7.73-.49,1.67-.79,2.23-1.48.65-.78.65-1.79.62-2.75-.04-1.04.04-1.94.36-2.92Z"/><path class="cls-1" d="m675.9,186.36c.65,1,.25,2.11-.09,3.14-.32.99-.4,1.88-.36,2.92.04.96.03,1.96-.62,2.75-.56.69-1.5,1-2.23,1.48-.65.43-1.12.97-1.41,1.7-.35.85-.42,1.79-1.07,2.5-.65.7-1.56.97-2.43,1.29-.83.31-1.66.65-2.44,1.08-1.48.8-2.93,2.1-3.43,3.77-.29.96-.29,1.84-1.03,2.62-.6.61-1.59,1.26-2.46.92-.75-.3-1.32-.9-2.09-1.14-.72-.21-1.55-.21-2.2.18-.78.46-1.32,1.27-2.34.83-.62-.28-.95-.89-1.19-1.49-.52-1.22-.83-2.34-2.1-2.97-.89-.44-1.81-.77-2.62-1.36-.77-.55-1.46-1.22-2.26-1.7-.77-.46-1.6-.66-2.45-.9-1.02-.29-1.95-.72-2.77-1.43-.79-.69-1.19-1.54-1.67-2.45-.43-.82-1.26-1.56-1.24-2.55,0-.99.49-2,.65-2.98.15-.86.22-1.73.07-2.59-.15-.82-.53-1.68-1.15-2.24-.58-.52-1.33-.68-1.97-1.07-.87-.53-.88-1.66-1.16-2.52-.16-.47-.33-.92-.5-1.38-.16-.44-.37-.92-.31-1.39.05-.43.32-.78.41-1.21.11-.5.02-1.09.37-1.49.69-.79,2.04-.52,2.93-.4.99.13,1.95-.02,2.93-.06.92-.04,1.84.04,2.77-.02.78-.06,1.55-.24,2.19-.71.76-.55,1.36-1.35,1.93-2.07.51-.65.97-1.32,1.44-1.99,1.72.71,3.7,1.15,5.12,2.36.68.59,1.18,1.36,1.87,1.94.72.6,1.57,1.05,2.41,1.48,1.56.79,3.39,1.04,5.13.81,1.01-.14,2.02-.41,3.04-.4,1.03.02,2,.4,3.05.33.95-.06,1.79-.41,2.55-.99.67-.51,1.27-1.13,1.99-1.57.84,1.51,1.6,3.08,2.16,4.7.27.8.53,1.62,1.01,2.33.46.71,1.17,1.22,1.62,1.93Z"/></svg>