<?xml version="1.0" encoding="UTF-8"?><svg id="Tree_08_-_Leaves_04" xmlns="http://www.w3.org/2000/svg" viewBox="0 0 1160 418.25"><defs><style>.cls-1{fill:#c6d604;stroke-width:0px;}</style></defs><path class="cls-1" d="m743.04,164.08c.42.6.4,1.2.3,1.9-.08.59-.19,1.17-.21,1.76-.02.51.03,1.01,0,1.51-.06.86-.37,1.66-.74,2.43-.45.9-1.07,1.7-1.61,2.54-.41.63-.69,1.37-1.23,1.91-1.26,1.24-2.58-.19-3.87-.57-1.02-.3-2.07-.41-3.13-.52-1.01-.1-2.07-.13-3.02.34-.93.47-1.65,1.29-2.2,2.16-.41.65-.77,1.36-1.32,1.91-.46.45-1.03.78-1.7.64-.72-.16-1.39-.67-2.02-1.04-.41-.23-.84-.5-1.31-.59-.53-.11-1.01.13-1.48.35-.71.35-1.37.64-2.17.7-.67.06-1.42.06-2.05-.21-.65-.29-1.19-.93-1.54-1.53-.18-.33-.31-.69-.35-1.08-.06-.47.04-.94-.08-1.41-.02-.08-.05-.16-.07-.24-.14-.37-.34-.71-.41-1.11-.06-.41-.06-.81-.11-1.22-.27-1.14-.53-2.43.06-3.43.42-.7,1.41-1,1.65-1.76.14-.44.16-.91.3-1.36.12-.36.28-.72.47-1.05.8-1.35,2.13-1.74,3.54-2.2,1.48-.5,3-1.48,3.4-3.08.2-.79.18-1.61.44-2.4.21-.68.55-1.33,1.05-1.85.63-.66,1.48-1.12,2.17-1.71.67-.56,1.24-1.24,1.94-1.77.56-.42,1.29-.88,2.03-.81.65.06,1.19.53,1.45,1.11.32.73.15,1.61.58,2.3.41.65,1.15,1.09,1.62,1.71.54.71.9,1.55,1.53,2.19.61.62,1.37,1.07,2.17,1.42.78.36,1.61.59,2.38.99.71.37,1.36.85,1.95,1.38.56.52,1.13,1.11,1.58,1.72Zm-.16,1.84c.05-.44.09-.89-.11-1.3-.14-.27-.36-.49-.56-.71-1.14-1.27-2.37-2.31-4-2.91-1.36-.51-2.73-1.09-3.73-2.18-.51-.56-.81-1.24-1.21-1.87-.44-.68-1.07-1.12-1.6-1.72-.41-.46-.53-.99-.61-1.59-.11-.92-.51-2.14-1.72-1.88-.84.18-1.56.84-2.16,1.42-.61.58-1.2,1.14-1.87,1.65-.71.53-1.41.99-1.86,1.77-.42.73-.63,1.56-.71,2.39-.14,1.29-.58,2.31-1.6,3.14-1.1.89-2.33,1.17-3.61,1.67-.81.31-1.46.79-1.91,1.55-.44.77-.48,1.55-.73,2.37-.21.71-.89.9-1.36,1.39-.57.57-.68,1.3-.62,2.08.09,1.04.26,2.13.49,3.19.07.16.17.31.25.49.18.36.21.7.23,1.09,0,.12,0,.24.02.35,0,0,0,0,0,.02h0c.04.37.14.7.32,1.03.38.68,1,1.33,1.78,1.48.7.14,1.53.09,2.2-.13.77-.26,1.45-.79,2.27-.88,1.48-.17,2.55,1.35,3.88,1.69.89.22,1.54-.77,1.96-1.4.43-.65.88-1.29,1.4-1.87,1.14-1.25,2.54-1.8,4.22-1.7,1.6.1,3.46.23,4.88,1.05.76.43,1.58,1.01,2.37.28.54-.5.82-1.26,1.22-1.87,1.08-1.66,2.39-3.08,2.35-5.19-.02-.99,0-1.93.1-2.91Z"/><path class="cls-1" d="m742.77,164.61c.2.41.16.86.11,1.3-.09.99-.12,1.93-.1,2.91.04,2.11-1.27,3.53-2.35,5.19-.4.61-.67,1.37-1.22,1.87-.79.73-1.61.16-2.37-.28-1.42-.82-3.27-.95-4.88-1.05-1.69-.1-3.08.44-4.22,1.7-.53.58-.97,1.22-1.4,1.87-.42.64-1.07,1.62-1.96,1.4-1.34-.34-2.4-1.85-3.88-1.69-.82.08-1.5.62-2.27.88-.67.22-1.5.27-2.2.13-.78-.16-1.4-.8-1.78-1.48-.18-.33-.29-.66-.32-1.02h0s0-.03,0-.03c0-.11-.02-.23-.02-.35-.02-.39-.06-.73-.23-1.09-.08-.18-.18-.33-.25-.49-.23-1.06-.4-2.15-.49-3.19-.06-.78.05-1.51.62-2.08.47-.49,1.14-.68,1.36-1.39.25-.82.29-1.6.73-2.37.45-.76,1.1-1.24,1.91-1.55,1.28-.5,2.52-.78,3.61-1.67,1.02-.83,1.47-1.85,1.6-3.14.08-.83.29-1.66.71-2.39.45-.78,1.15-1.24,1.86-1.77.67-.51,1.26-1.07,1.87-1.65.6-.58,1.32-1.24,2.16-1.42,1.21-.26,1.6.96,1.72,1.88.07.6.19,1.13.61,1.59.53.6,1.15,1.03,1.6,1.72.4.64.7,1.31,1.21,1.87,1,1.09,2.37,1.67,3.73,2.18,1.63.6,2.86,1.64,4,2.91.2.22.42.44.56.71Z"/><path class="cls-1" d="m681.96,165.94c.17.94-.18,1.68-.76,2.4-.34.42-.77.86-.79,1.44-.03.62.33,1.24.57,1.79.46,1.03.69,1.98.4,3.1-.14.54-.36,1.08-.47,1.64-.07.41-.1.84-.18,1.25-.1.55-.29,1.11-.72,1.41-.03.03-.05.06-.06.08-.11.18-.18.38-.28.56-.31.54-.81.72-1.42.66-.82-.06-1.65-.33-2.37-.74-.81-.45-1.53-1.33-2.43-1.6-1.63-.49-3.01,1.33-4.27,2.06-1.54.88-3.36.4-5.03.4-1.91,0-3.75.53-5.65.53-.79,0-1.57-.15-2.3-.45-.45-.19-.89-.4-1.36-.53-.43-.13-.88-.21-1.3-.39-.73-.29-1.37-.75-1.87-1.36-.53-.65-.88-1.46-1.46-2.07-.65-.68-1.53-.81-2.38-1.1-.8-.27-1.56-.65-2.31-1.03-.82-.43-1.63-.91-2.52-1.21-.76-.25-1.58-.3-2.31-.59-.64-.25-1.12-.76-1.48-1.32-.2-.33-.38-.68-.5-1.04-.14-.4-.18-.82-.38-1.2-.04-.07,0-.15.06-.18-.04-.35-.05-.7,0-1,.21-1.13,1.29-1.88,1.62-2.96.4-1.25.06-2.59-.19-3.84-.24-1.15-.36-2.14,0-3.28.37-1.18.73-2.37,1.01-3.59.13-.58.05-1.17.18-1.74.1-.47.4-.88.74-1.21.71-.69,1.55-1.19,2-2.11.23-.48.34-1,.58-1.48.21-.43.48-.83.78-1.21.54-.66,1.16-1.43,2.04-1.61.42-.09.86-.09,1.29-.06.22-.04.44-.07.67-.08.32-.02.65.02.98.02.77,0,1.48-.27,2.18-.54.56-.22,1.14-.56,1.75-.65.6-.08,1.18.11,1.73.32,1.24.49,2.37.66,3.45-.29.55-.48,1.05-1.19,1.84-1.28.8-.1,1.52.51,2.11.98.47.38.95.77,1.54.95.61.18,1.24.18,1.87.24,1.01.1,1.94.47,2.66,1.21.74.77.89,1.78,1.5,2.62.69.93,1.89,1.43,2.43,2.49.18.34.27.72.27,1.11,0,.41-.05.81.24,1.09.89.53,1.77,1.24,2.53,1.95.84.8,1.25,1.62,1.6,2.71.18.59.43,1.15.77,1.67.31.46.71.84.98,1.32.52.91.65,1.97,1.13,2.9.46.91,1.09,1.8,1.27,2.82Zm-.95,1.76c1.33-1.8-.65-3.75-1.13-5.51-.15-.53-.28-1.07-.53-1.56-.24-.46-.59-.82-.91-1.23-.63-.8-.93-1.71-1.24-2.66-.32-.96-1.05-1.7-1.8-2.34-.53-.45-1.15-.88-1.64-1.39h-.02c-.93-.22-.65-1.19-.76-1.9-.18-1.39-1.79-1.97-2.55-3-.61-.83-.82-1.85-1.58-2.59-.47-.46-1.06-.77-1.71-.9-.63-.13-1.28-.09-1.92-.18-.95-.14-1.64-.69-2.35-1.27-.41-.33-.89-.76-1.41-.87-.52-.11-.92.19-1.28.53-.66.61-1.24,1.24-2.17,1.42-1.06.22-1.92-.3-2.9-.59-1.29-.4-2.44.5-3.66.86-.53.15-1.07.24-1.62.18h-.03c-.02.06-.06.13-.16.12-.9,0-2-.27-2.83.18-.44.24-.83.74-1.14,1.12-.37.43-.69.89-.93,1.4-.4.85-.53,1.7-1.16,2.42-.61.69-1.7,1.21-1.99,2.11-.18.54-.06,1.15-.19,1.72-.12.52-.26,1.02-.4,1.53-.16.56-.3,1.13-.48,1.68-.18.54-.41,1.1-.44,1.68-.07,1.13.37,2.29.53,3.38.14.94.15,1.95-.22,2.84-.37.91-1.26,1.59-1.55,2.53-.18.59-.07,1.25.09,1.87.03.11.06.22.11.34.17.46.41.89.72,1.28.64.81,1.36.95,2.32,1.15,1.77.39,3.24,1.36,4.87,2.11,1.35.62,2.93.7,3.89,1.95.49.64.84,1.38,1.38,1.97.63.67,1.43,1.02,2.31,1.25.79.21,1.48.6,2.26.87.83.3,1.71.31,2.57.23,1.76-.17,3.47-.52,5.26-.47.94.02,1.89.14,2.83.08.8-.05,1.47-.4,2.1-.86,1.04-.75,2.09-1.83,3.48-1.8,1.53.02,2.64,1.54,4.06,1.98.54.17,1.36.44,1.89.17.21-.11.33-.3.44-.51,0-.05,0-.09.06-.12l.02-.02c.03-.06.06-.12.11-.18.12-.17.37-.37.48-.58,0,0,0-.02,0-.03.04-.07.06-.15.04-.22,0-.07.02-.13.06-.17.08-.46.08-.96.15-1.37.18-1.23.87-2.29.51-3.56-.28-.99-1.03-1.93-1-3,.03-.86.68-1.42,1.16-2.07Z"/><path class="cls-1" d="m679.87,162.19c.48,1.76,2.46,3.72,1.13,5.51-.48.65-1.13,1.22-1.16,2.07-.04,1.07.72,2.01,1,3,.36,1.27-.32,2.33-.51,3.56-.06.41-.06.91-.15,1.37-.05.04-.07.09-.06.17.02.07,0,.15-.04.22,0,0,0,.02,0,.03-.11.21-.36.41-.48.58-.05.06-.08.12-.11.18l-.02.02c-.06.03-.06.07-.06.12-.11.2-.23.4-.44.51-.53.28-1.35,0-1.89-.17-1.42-.44-2.53-1.96-4.06-1.98-1.38-.03-2.43,1.05-3.48,1.8-.64.46-1.3.81-2.1.86-.94.06-1.89-.06-2.83-.08-1.79-.05-3.49.3-5.26.47-.87.08-1.74.06-2.57-.23-.77-.27-1.47-.65-2.26-.87-.88-.23-1.68-.58-2.31-1.25-.54-.59-.89-1.34-1.38-1.97-.96-1.25-2.55-1.34-3.89-1.95-1.63-.75-3.1-1.72-4.87-2.11-.96-.2-1.69-.34-2.32-1.15-.3-.39-.55-.82-.72-1.28-.05-.12-.08-.23-.11-.34-.17-.62-.27-1.28-.09-1.87.29-.94,1.18-1.61,1.55-2.53.37-.89.36-1.9.22-2.84-.16-1.1-.6-2.26-.53-3.38.04-.58.27-1.13.44-1.68.18-.55.32-1.12.48-1.68.14-.51.28-1.01.4-1.53.13-.56.02-1.17.19-1.72.3-.9,1.38-1.42,1.99-2.11.64-.72.77-1.57,1.16-2.42.24-.51.56-.97.93-1.4.31-.38.7-.88,1.14-1.12.83-.44,1.93-.18,2.83-.18.09,0,.14-.06.16-.12h.03c.55.06,1.09-.03,1.62-.18,1.22-.36,2.37-1.25,3.66-.86.99.3,1.84.81,2.9.59.92-.18,1.5-.81,2.17-1.42.36-.33.77-.64,1.28-.53.53.11,1.01.53,1.41.87.71.58,1.4,1.13,2.35,1.27.64.09,1.29.06,1.92.18.65.13,1.24.44,1.71.9.76.74.97,1.76,1.58,2.59.76,1.02,2.36,1.6,2.55,3,.1.71-.18,1.68.76,1.9h.02c.49.52,1.11.94,1.64,1.39.75.65,1.48,1.38,1.8,2.34.31.95.62,1.85,1.24,2.66.32.41.67.77.91,1.23.26.49.39,1.02.53,1.56Z"/><path class="cls-1" d="m694.33,89.56c.43,1.48-.63,2.68-.61,4.12,0,.76.14,1.51-.03,2.26-.14.66-.5,1.3-.84,1.87-.67,1.14-1.54,2.12-2.79,2.6-.74.29-1.52.45-2.32.45s-1.65-.3-2.5-.24c-.82.05-1.58.18-2.39,0-.86-.19-1.68-.52-2.53-.72-.8-.19-1.58-.32-2.35-.64-.78-.32-1.57-.64-2.39-.89-.43-.14-.89-.26-1.31-.41-.36-.14-.67-.41-1.05-.47-.02,0-.04,0-.06,0-.45.08-.9.18-1.36.26-.27.08-.53.16-.78.18-.05,0-.08-.02-.11-.04-.44.07-.89.14-1.34.18-.63.06-1.26.06-1.89-.03-.65-.09-1.3-.37-1.96-.39-.61-.02-1.13.22-1.69.41-.57.2-1.17.3-1.77.38-1.29.17-2.63.3-3.86.75-1.04.37-1.74,1.2-2.36,2.08-.52.72-1.1,1.22-1.92,1.59-.81.35-1.72.58-2.46,1.1-.89.6-.89,1.5-1.25,2.42-.28.71-.76,1.27-1.48,1.58-1.04.44-2.17.21-3.26.42-1.01.21-1.68,1.01-2.49,1.59-.93.67-1.94,1.24-2.87,1.9-.93.67-1.89,1.42-2.19,2.59-.24.98-.28,1.92-.95,2.72-.64.76-1.55,1.19-2.28,1.84-.77.67-1.46,1.48-2.41,1.93-1.74.84-3.8.38-5.31-.74-.8-.59-1.41-1.35-1.97-2.16-.26-.38-.5-.84-.76-1.27-.03.06-.11.11-.18.04-.88-1.04-2.21-2.09-2.37-3.54-.11-.94.34-1.81.63-2.68.38-1.16.16-2.28.27-3.47.16-1.79,1.19-3.34,2.19-4.77.56-.81,1.06-1.66,1.48-2.55.43-.91.84-1.87.88-2.9.05-1.01.12-1.99.2-3,.07-1.01.04-2.02.04-3.03,0-1.42.18-3.04.67-4.39.19-.51.46-1,.89-1.34.56-.42,1.25-.43,1.92-.52,1.04-.14,2.15-.25,2.98-.95.62-.53,1.12-1.18,1.78-1.66,1.36-.99,3.03-1.24,4.66-1.42,1.03-.12,1.77-.44,2.23-1.42.37-.77.7-1.62.95-2.46,0-.52-.06-1.05-.08-1.61-.04-.98-.08-2.06.57-2.85.58-.69,1.59-.66,2.17-1.35.53-.63.9-1.36,1.36-2.05.72-1.1,1.72-2.37,3.14-2.43.9-.03,1.7.5,2.5.85.96.41,1.99.56,3.02.77,1.08.23,2.15.48,3.25.65.89.13,1.86.1,2.73.41.77.28,1.3.84,1.87,1.4.34.33.71.62,1.2.67.53.06,1.1-.06,1.61-.16.99-.2,1.97-.49,2.99-.41.96.07,1.78.59,2.71.77,1.13.23,2.34-.13,3.49-.06.9.06,1.8.22,2.67.46s1.74.56,2.53,1.02c.79.46,1.18,1.17,1.8,1.81,1.03,1.07,3.64.59,3.95,2.44,0,.06-.02.09-.04.14.58,1.48.65,3.15,1.52,4.55.47.76,1.22,1.24,1.76,1.94.55.72.8,1.61,1.28,2.37.79,1.25,2.24,2.02,2.67,3.51Zm-.89,2.67c.27-.66.54-1.36.48-2.09-.07-.8-.56-1.46-1.1-2.02-.5-.53-1.05-1-1.47-1.58-.47-.64-.72-1.38-1.11-2.07-.39-.67-.99-1.12-1.51-1.67-.46-.49-.79-1.04-1.05-1.66-.53-1.27-.66-2.63-1.02-3.95,0,0-.02,0-.02-.02-.28-1.06-1.67-1.16-2.55-1.41-.91-.26-1.4-.81-1.98-1.53-.66-.84-1.63-1.25-2.63-1.6-.99-.34-2.02-.56-3.06-.65-1.05-.09-2.08.11-3.14.1-.94,0-1.73-.43-2.62-.68-1.04-.3-2.09-.06-3.13.16-.82.18-1.8.44-2.63.2-.69-.2-1.16-.77-1.66-1.25-.66-.64-1.36-.9-2.26-1-2.05-.2-4.05-.65-6.06-1.07-.84-.18-1.63-.42-2.41-.81-.86-.42-1.72-.77-2.61-.23-1.2.73-1.8,2.2-2.55,3.34-.35.53-.72,1.06-1.31,1.34-.34.17-.72.24-1.03.43-.47.3-.62.86-.68,1.38-.15,1.24.12,2.77-.43,3.93-.18.54-.39,1.08-.63,1.58-.36.76-.93,1.36-1.75,1.59-.89.25-1.86.22-2.78.41-.94.19-1.86.52-2.66,1.1-.68.5-1.19,1.2-1.86,1.72-.66.52-1.43.69-2.24.82-.77.13-1.83.04-2.48.51-.52.36-.76,1.01-.91,1.59-.45,1.62-.53,3.26-.51,4.94.02,1.01-.06,2.02-.17,3.03-.08.87-.02,1.77-.18,2.63-.35,1.75-1.39,3.49-2.4,4.94-1.1,1.57-2.11,3.22-2.09,5.19,0,.95.06,1.83-.23,2.75-.26.84-.74,1.69-.66,2.59.08.97.77,1.67,1.36,2.41.7.3,1.16,1.12,1.6,1.7.77,1.03,1.46,2.05,2.58,2.71,1.05.63,2.31.96,3.51.69,1.26-.29,2.07-1.23,2.99-2.07.73-.65,1.65-1.09,2.3-1.83.77-.89.62-2.04,1.05-3.06.37-.87,1.11-1.51,1.84-2.07.88-.65,1.81-1.21,2.73-1.79.84-.53,1.58-1.26,2.48-1.69.88-.41,1.82-.34,2.75-.43,1.22-.13,2.07-.65,2.46-1.82.28-.81.4-1.56,1.06-2.15,1.34-1.2,3.3-1.26,4.39-2.78.53-.74,1.08-1.48,1.84-1.98.87-.58,1.97-.77,2.98-.94,1.1-.19,2.23-.23,3.3-.54.91-.27,1.66-.65,2.64-.48.67.12,1.29.33,1.97.37.57.03,1.14,0,1.71-.06.71-.08,1.41-.19,2.12-.31.4-.17.8-.3,1.25-.24.06,0,.11.02.17.04,0,0,.03,0,.04,0,.09,0,.16.03.2.09.18.07.35.18.53.27.39.2.82.31,1.24.45.89.28,1.74.6,2.59.96.83.36,1.68.5,2.55.72.85.21,1.66.54,2.51.74.81.18,1.55,0,2.35-.03.81-.03,1.59.26,2.39.25.83,0,1.71-.22,2.45-.59,1.21-.62,2.06-1.91,2.6-3.11.65-1.42-.03-2.95.56-4.38Z"/><path class="cls-1" d="m693.92,90.14c.06.73-.21,1.43-.48,2.09-.59,1.43.08,2.96-.56,4.38-.54,1.2-1.39,2.49-2.6,3.11-.75.37-1.62.59-2.45.59-.8,0-1.58-.28-2.39-.25-.8.04-1.54.21-2.35.03-.85-.19-1.66-.53-2.51-.74-.87-.22-1.72-.36-2.55-.72-.85-.36-1.71-.68-2.59-.96-.41-.14-.85-.25-1.24-.45-.18-.09-.35-.19-.53-.27-.05-.06-.11-.1-.2-.09,0,0-.03,0-.04,0-.06-.02-.11-.04-.17-.04-.45-.06-.86.07-1.25.24-.71.12-1.41.23-2.12.31-.56.06-1.13.09-1.71.06-.68-.04-1.3-.25-1.97-.37-.98-.17-1.72.21-2.64.48-1.07.31-2.2.35-3.3.54-1.01.17-2.11.36-2.98.94-.77.51-1.31,1.24-1.84,1.98-1.09,1.51-3.05,1.58-4.39,2.78-.66.59-.78,1.34-1.06,2.15-.4,1.17-1.24,1.69-2.46,1.82-.93.09-1.87.02-2.75.43-.9.42-1.64,1.15-2.48,1.69-.92.58-1.85,1.14-2.73,1.79-.73.55-1.47,1.2-1.84,2.07-.43,1.02-.28,2.18-1.05,3.06-.65.74-1.57,1.18-2.3,1.83-.92.84-1.72,1.78-2.99,2.07-1.21.27-2.46-.06-3.51-.69-1.13-.66-1.82-1.68-2.58-2.71-.43-.58-.89-1.4-1.6-1.7-.6-.74-1.28-1.44-1.36-2.41-.07-.9.41-1.75.66-2.59.3-.92.24-1.8.23-2.75-.02-1.97,1-3.62,2.09-5.19,1.01-1.45,2.05-3.19,2.4-4.94.17-.86.1-1.76.18-2.63.1-1.01.18-2.02.17-3.03-.02-1.68.06-3.32.51-4.94.16-.58.4-1.23.91-1.59.65-.47,1.71-.38,2.48-.51.81-.13,1.58-.3,2.24-.82.67-.52,1.18-1.22,1.86-1.72.79-.58,1.72-.9,2.66-1.1.92-.18,1.89-.16,2.78-.41.82-.23,1.39-.83,1.75-1.59.24-.5.45-1.03.63-1.58.55-1.16.29-2.68.43-3.93.06-.53.21-1.09.68-1.38.31-.19.69-.27,1.03-.43.59-.28.96-.8,1.31-1.34.76-1.13,1.36-2.61,2.55-3.34.89-.54,1.75-.19,2.61.23.77.39,1.57.64,2.41.81,2.01.41,4.01.87,6.06,1.07.9.09,1.6.36,2.26,1,.5.49.97,1.05,1.66,1.25.83.24,1.81-.02,2.63-.2,1.03-.22,2.08-.46,3.13-.16.89.25,1.68.68,2.62.68,1.05,0,2.08-.19,3.14-.1,1.04.09,2.07.31,3.06.65,1,.35,1.96.77,2.63,1.6.58.72,1.07,1.27,1.98,1.53.88.25,2.27.35,2.55,1.41,0,0,0,0,.02.02.36,1.32.5,2.67,1.02,3.95.26.62.59,1.17,1.05,1.66.53.55,1.13,1,1.51,1.67.39.68.64,1.43,1.11,2.07.41.58.97,1.05,1.47,1.58.53.56,1.02,1.22,1.1,2.02Z"/><path class="cls-1" d="m745.93,80.32c.28,1.27-.71,2.25-.86,3.46-.12,1.01-.06,2.09-.64,2.98-.43.65-1.13.9-1.89.87-1.02-.05-1.85-.48-2.76-.91-.62-.3-1.22-.49-1.91-.39-.53.08-1.02.16-1.56.07-1.25-.18-2.3-.71-3.39-1.31-.63-.35-1.33-.65-1.93-.06-.33.33-.53.77-.86,1.12-.73.75-1.63,1.46-2.67,1.67-.98.2-1.72-.3-2.6-.58-1.13-.36-1.69.39-2.47,1.03-.77.62-1.62.63-2.57.67-.79.04-1.47.2-2.18.57-.48.25-.94.53-1.45.74-.53.22-1.07.34-1.64.28-.48-.06-.93-.22-1.4-.3-1.18-.22-2.39.49-3.52,0-.9-.38-1.36-1.28-1.98-1.97-1.39-1.54-3.25-3.18-3.73-5.29-.34-.68-.6-1.4-.67-2.19-.12-1.31.28-2.39.99-3.46.41-.61.77-1.21.99-1.91.21-.65.33-1.32.56-1.96.4-1.11,1.11-1.95,2.07-2.62.46-.32.95-.62,1.28-1.08.29-.41.45-.88.72-1.29.54-.84,1.22-1.34,2.22-1.49.63-.1,1.27-.09,1.91-.1.62,0,1.15-.15,1.75-.26,1.08-.19,1.61.51,2.5.97.54.29,1.33.27,1.79-.21.32-.33.35-.89.42-1.32.07-.46.17-.94.41-1.35.22-.38.61-.54.88-.87.24-.3.19-.77.33-1.12.12-.3.29-.56.5-.78.49-.52,1.18-.78,1.87-.93,1.67-.34,3.37.04,5.03-.24,1.01-.17,1.94-.14,2.71.62.32.32.58.72.94,1.01.51.41,1.14.46,1.77.34,1.08-.21,1.98-.51,3.02.02,1,.5,1.77,1.36,2.44,2.22s1.59,1.54,2.17,2.45c.29.43.47.92.54,1.44.03.14.05.28.06.4t0,0c.17.3.26.64.33.96.04.06.05.11.05.16.06.29.14.56.26.84.22.52.38,1,.3,1.57-.1.78-.27,1.49-.22,2.29.04.65.1,1.36.31,1.97.41,1.17,1.48,2.02,1.74,3.26Zm-.8,1.72c.28-.58.47-1.13.26-1.77-.17-.53-.51-1.01-.82-1.46-.59-.88-.98-1.69-1.18-2.73-.21-1.08-.2-2.08-.02-3.16.13-.73-.16-1.2-.4-1.85-.08-.24-.12-.48-.15-.72-.21-.32-.31-.64-.37-1.05-.08-.61-.25-1.14-.62-1.65-.36-.49-.85-.85-1.25-1.29-.43-.46-.79-.98-1.2-1.45-.85-.98-1.95-1.97-3.32-1.73-1.07.18-2.1.56-3.1-.1-.72-.47-1.07-1.42-1.91-1.72-.65-.23-1.37-.03-2.02.06-.41.06-.82.06-1.23.02-1.42-.1-3.14-.3-4.42.45-.74.43-.87,1.03-1.06,1.8-.07.3-.23.45-.47.64-.45.35-.73.69-.86,1.27-.16.74-.06,1.62-.65,2.19-.56.53-1.48.64-2.16.32-.44-.21-.8-.54-1.2-.81-.59-.39-1.1-.28-1.74-.14-1.14.24-2.32-.06-3.47.24-1.21.31-1.54,1.29-2.07,2.29-.44.82-1.22,1.23-1.93,1.77-.96.75-1.42,1.81-1.72,2.95-.29,1.11-.63,2.09-1.25,3.04-.68,1.03-1.12,1.98-1.04,3.25.06,1.21.59,2.3,1.12,3.36.03.05.02.09,0,.13.37.6.77,1.17,1.24,1.72.77.89,1.66,1.67,2.41,2.58.32.4.66.85,1.13,1.1.7.37,1.48.14,2.21.03.59-.09,1.13-.06,1.7.07.61.14,1.18.33,1.81.19,1.13-.23,2.04-1.04,3.14-1.33,1.01-.26,2.3.06,3.21-.5.65-.4,1.07-1.08,1.8-1.36.83-.31,1.6.04,2.36.35.53.21,1.02.33,1.59.17.54-.17,1.04-.49,1.47-.85.41-.34.8-.73,1.13-1.16.23-.3.44-.64.77-.85.86-.55,1.69-.18,2.48.27,1.1.61,2.33,1.24,3.62,1.2.61-.02,1.15-.22,1.76-.14.41.06.79.2,1.16.37.94.43,1.8.98,2.88.96,1.15-.03,1.49-1.07,1.61-2.07.06-.53.09-1.06.22-1.59.12-.46.34-.87.54-1.29Z"/><path class="cls-1" d="m745.39,80.27c.21.64.02,1.19-.26,1.77-.2.42-.42.83-.54,1.29-.13.53-.16,1.06-.22,1.59-.12,1.01-.46,2.05-1.61,2.07-1.08.02-1.94-.53-2.88-.96-.37-.17-.76-.31-1.16-.37-.61-.08-1.15.12-1.76.14-1.29.05-2.53-.59-3.62-1.2-.79-.44-1.62-.82-2.48-.27-.32.21-.53.54-.77.85-.32.43-.71.82-1.13,1.16-.42.36-.92.68-1.47.85-.56.17-1.06.05-1.59-.17-.77-.31-1.53-.66-2.36-.35-.73.29-1.15.97-1.8,1.36-.91.56-2.19.24-3.21.5-1.11.29-2.02,1.1-3.14,1.33-.63.14-1.2-.06-1.81-.19-.57-.14-1.11-.17-1.7-.07-.73.11-1.51.34-2.21-.03-.46-.25-.8-.7-1.13-1.1-.75-.91-1.64-1.69-2.41-2.58-.48-.55-.88-1.13-1.24-1.72.02-.04.03-.08,0-.13-.53-1.06-1.05-2.15-1.12-3.36-.07-1.26.36-2.21,1.04-3.25.63-.95.97-1.94,1.25-3.04.3-1.14.76-2.2,1.72-2.95.71-.54,1.48-.95,1.93-1.77.53-1,.86-1.97,2.07-2.29,1.14-.3,2.32,0,3.47-.24.65-.14,1.15-.25,1.74.14.4.27.76.6,1.2.81.68.31,1.6.2,2.16-.32.6-.56.5-1.45.65-2.19.13-.58.41-.92.86-1.27.24-.18.4-.34.47-.64.19-.77.32-1.36,1.06-1.8,1.27-.76,3-.55,4.42-.45.41.04.81.04,1.23-.02.65-.09,1.37-.3,2.02-.06.84.3,1.19,1.25,1.91,1.72,1,.66,2.03.28,3.1.1,1.37-.24,2.47.76,3.32,1.73.41.47.77.99,1.2,1.45.41.44.89.8,1.25,1.29.37.51.53,1.04.62,1.65.06.41.16.73.37,1.05.03.24.06.48.15.72.24.65.53,1.13.4,1.85-.18,1.08-.19,2.08.02,3.16.2,1.04.59,1.85,1.18,2.73.31.45.65.93.82,1.46Z"/><path class="cls-1" d="m804.96,107.88c.03.86-.06,1.72-.05,2.58.02.77,0,1.57-.3,2.29-.32.75-.96,1.3-1.33,2.02-.39.78-.39,1.7-.77,2.47-.33.67-.93,1.14-1.58,1.49-.73.39-1.49.67-2.19,1.13-.68.43-1.3.87-2.08,1.08-1.47.39-3.04.17-4.32-.64-.77-.47-1.47-1.04-2.23-1.52-.69-.44-1.24-1.2-2.02-1.48-.83-.31-1.76-.13-2.55-.62-.63-.4-.95-1.05-1.25-1.71-.69-1.47-1.49-2.89-3.13-3.43-.87-.29-1.7-.46-2.48-.96-.74-.46-1.47-1.01-2.11-1.6-.55-.5-1.03-1.07-1.51-1.64-.1.03-.23,0-.24-.13-.02-.08-.05-.17-.07-.24,0,0,0-.02-.02-.03-.25-.3-.48-.59-.68-.89-.22-.23-.42-.46-.53-.73-.51-1.23.02-2.83,1.01-3.66.46-.39,1.01-.64,1.56-.83.82-.29,1.61-.3,2.45-.4.79-.1,1.42-.7,2.23-.68.67,0,1.29.31,1.93.5.9.28,1.52.14,1.99-.74.38-.7.72-1.3,1.47-1.67.65-.32,1.38-.28,2.05-.53.62-.23.93-.77,1.27-1.29.77-1.17,1.82-1.61,3.21-1.57,1.46.06,2.97.38,4.4.66,1.25.26,2.43.89,2.8,2.2.14.46.11.93.17,1.39.06.53.3.98.58,1.41.49.75,1.08,1.42,1.59,2.15.45.66.49,1.28.5,2.07.02.94.76,1.14,1.39,1.66.59.47.85,1.13.87,1.88Zm-.77,2.5c-.03-.84.08-1.68.05-2.5-.04-.96-.57-1.29-1.28-1.78-.51-.35-.89-.77-.96-1.41-.08-.77.05-1.36-.42-2.05-.47-.67-1.01-1.3-1.47-1.97-.49-.72-.77-1.38-.82-2.26-.05-.81-.23-1.55-.93-2.04-.99-.68-2.44-.75-3.6-.96-1.33-.26-3.22-.71-4.3.38-.73.74-1.05,1.74-2.11,2.1-.68.24-1.42.18-2.07.53-.79.44-.94,1.25-1.48,1.91-.85,1.01-2.02.52-3.07.18-.33-.11-.69-.23-1.05-.22-.41,0-.77.22-1.13.39-.71.32-1.41.3-2.17.38-1.35.15-2.85.82-3.34,2.17-.18.52-.25,1.09-.15,1.61.41.69,1.06,1.29,1.57,1.91,1.1,1.33,2.34,2.48,3.81,3.39.77.48,1.61.59,2.43.92.61.25,1.16.63,1.61,1.11s.8,1.05,1.12,1.64c.32.62.56,1.33.99,1.88.61.77,1.54.68,2.42.85.7.14,1.24.54,1.76,1.01.64.55,1.36.97,2.03,1.47.66.49,1.34,1,2.14,1.24,1.59.49,3.07.08,4.41-.81.64-.41,1.28-.74,1.97-1.05.71-.33,1.44-.75,1.79-1.48.34-.73.36-1.58.7-2.31.3-.67.8-1.18,1.17-1.8.44-.73.41-1.6.38-2.42Z"/><path class="cls-1" d="m804.24,107.88c.04.82-.07,1.66-.05,2.5.04.81.06,1.69-.38,2.42-.37.62-.88,1.13-1.17,1.8-.34.74-.36,1.59-.7,2.31-.35.74-1.08,1.15-1.79,1.48-.69.31-1.34.64-1.97,1.05-1.34.89-2.82,1.3-4.41.81-.8-.25-1.48-.76-2.14-1.24-.67-.5-1.39-.91-2.03-1.47-.53-.46-1.06-.87-1.76-1.01-.88-.17-1.81-.07-2.42-.85-.42-.55-.66-1.26-.99-1.88-.31-.59-.66-1.16-1.12-1.64s-1.01-.86-1.61-1.11c-.82-.33-1.67-.44-2.43-.92-1.47-.91-2.71-2.07-3.81-3.39-.51-.62-1.15-1.22-1.57-1.91-.1-.53-.04-1.1.15-1.61.49-1.35,1.99-2.02,3.34-2.17.76-.08,1.46-.06,2.17-.38.36-.17.72-.39,1.13-.39.36,0,.72.11,1.05.22,1.05.34,2.22.83,3.07-.18.53-.65.68-1.47,1.48-1.91.65-.36,1.38-.3,2.07-.53,1.06-.36,1.38-1.36,2.11-2.1,1.08-1.09,2.97-.64,4.3-.38,1.15.21,2.61.28,3.6.96.7.49.89,1.23.93,2.04.06.88.33,1.54.82,2.26.46.67,1,1.3,1.47,1.97.47.68.34,1.28.42,2.05.06.65.45,1.06.96,1.41.71.49,1.24.82,1.28,1.78Z"/><path class="cls-1" d="m799.5,162.73c1.07,1.53.37,3.01-.58,4.36-1.15,1.65-2.08,3.49-2.5,5.49-.18.84-.3,1.65-1.01,2.22-.65.52-1.48.76-2.19,1.17-.79.46-1.58,1.13-2.52,1.25-1.02.14-1.91-.41-2.9-.48-.68-.04-.92.36-1.03.97-.11.64-.13,1.29-.22,1.94-.13.82-.3,1.65-.71,2.38-.41.76-1.06,1.04-1.65,1.6-.56.53-.59,1.39-.69,2.1-.11.71-.39,1.22-1.01,1.6-.65.39-1.37.56-2.07.81-.86.3-1.42.77-1.89,1.54-.58.94-1.38,2.35-2.62,2.48-1.73.17-2.01-2.08-2.9-3.03-1.26-1.36-2.76-2.45-4.1-3.71-.59-.54-1.13-1.17-1.46-1.92-.31-.74-.37-1.56-.47-2.35-.13-1.02-.37-1.88-1.06-2.67-.27-.3-.55-.59-.79-.91-.26-.35-.41-.74-.62-1.12-.41-.78-.97-1.18-1.85-1.04-.62.1-1.23.32-1.85.31-1.55,0-1.59-1.5-1.45-2.69.08-.81.13-1.59.44-2.35.42-1,.78-2,1.17-3.01.37-.94.96-1.77,1.27-2.73.2-.65.33-1.37.36-2.06.02-.53-.02-1.24-.55-1.52-.71-.37-1.4.26-2.12.14-.41-.06-.65-.38-1.02-.53-.45-.18-.94-.18-1.43-.18-.74,0-1.55.13-2.21-.27-.67-.4-.75-1.14-1.24-1.66-.62-.66-1.79-.41-2.55-.17-.83.27-1.62.7-2.31,1.24-.53.42-1.04.91-1.69,1.16-1.58.62-2.24-1.18-2.99-2.18-.57-.77-1.24-1.47-1.77-2.26-.5-.74-.75-1.49-.86-2.38-.13-1.01-.23-1.99-.52-2.98-.27-.91-.57-1.85-.53-2.81,0-.27.06-.52.15-.75-.06-.09-.07-.22.04-.32.06-.06.13-.12.19-.18.13-.22.29-.43.49-.63.22-.2.47-.39.71-.57.19-.21.39-.41.57-.63.61-.71,1-1.54,1.46-2.36.49-.89,1.01-1.82,1.1-2.85.06-.71,0-1.42.38-2.06.64-1.09,2-1.03,3.07-.76.94.25,1.83.8,2.82.69.41-.05.75,0,1.11.2.32.18.59.38.97.43.72.12,1.48.19,2.02-.39.45-.5.74-1.13,1.32-1.5,1.42-.95,3.26,0,4.47.86.69.48,1.28,1.01,1.75,1.71.35.52.67,1.55,1.29,1.78.31.11.71.06,1.04.06.48,0,.97.04,1.45.08,1.01.11,2,.3,3.01.45,1.92.28,4.24-.18,5.97.91,1.29.8,1.94,2.28,3.12,3.22,1.45,1.14,3.03,2,4.13,3.53.98,1.35,1.84,2.97,2.13,4.62.28,1.6.92,2.86,2.4,3.63.7.37,1.62.82,2.43.86.75.03,1.29-.75,1.98-.94,1.31-.38,3.01.03,4.05.89.67.55.97,1.38,1.38,2.12.45.79,1.18,1.36,1.71,2.1Zm-.25,2.37c.33-.99-.13-1.84-.78-2.55-.58-.64-1.1-1.23-1.48-2-.41-.78-.77-1.47-1.59-1.88-.68-.35-1.49-.53-2.26-.48-.4.03-.77.11-1.09.33-.3.19-.57.44-.9.6-.65.29-1.36.09-2-.13-.7-.24-1.42-.51-2.05-.9-1.2-.76-1.9-1.96-2.18-3.34-.16-.79-.3-1.55-.64-2.31-.34-.79-.78-1.56-1.28-2.27-1.07-1.55-2.64-2.42-4.09-3.53-.61-.47-1.11-1-1.59-1.6-.44-.56-.89-1.17-1.49-1.58-.83-.54-1.88-.63-2.84-.68-1.03-.06-2.07-.07-3.1-.23-1-.16-1.98-.35-2.98-.44-.75-.06-1.58.06-2.31-.13-.58-.15-.9-.6-1.19-1.09-.45-.77-.86-1.54-1.55-2.11-1.13-.92-3.29-2.4-4.59-1.04-.45.47-.73,1.08-1.25,1.47-.53.39-1.23.36-1.85.3-.3-.03-.6-.06-.88-.15-.33-.12-.58-.39-.91-.5-.41-.15-.9.04-1.36-.04-.46-.08-.89-.25-1.34-.41-1.08-.4-2.92-.99-3.35.55-.23.81-.08,1.65-.36,2.47-.27.83-.72,1.59-1.13,2.34-.42.77-.81,1.51-1.38,2.18-.53.61-1.13,1.1-1.74,1.6-.21.39-.31.82-.3,1.36.06,1.01.44,1.96.69,2.92.23.91.23,1.84.39,2.77.33,1.89,1.95,3.12,2.93,4.68.39.61.83,1.6,1.72,1.34.65-.2,1.19-.77,1.72-1.17,1.14-.89,2.73-1.67,4.2-1.54.62.06,1.2.3,1.55.83.19.29.3.63.51.91.3.43.75.57,1.26.59.8.03,1.61-.11,2.4.09.39.1.63.3.96.48.42.25.82,0,1.24-.09,3.13-.64,2.14,3.88,1.43,5.39-.44.94-.88,1.84-1.21,2.82-.3.9-.85,1.78-1.05,2.71-.17.77-.26,1.7-.22,2.48.03.78.47,1.01,1.2.93,1.23-.15,2.43-.74,3.42.35.55.6.75,1.4,1.28,2.02.52.6,1.07,1.13,1.38,1.87.66,1.6.24,3.46,1.43,4.87,1.04,1.25,2.5,2.19,3.73,3.26.69.61,1.47,1.24,1.88,2.08.3.63.56,1.73,1.36,1.9.6.12,1.16-.51,1.51-.91.42-.5.75-1.05,1.15-1.57.98-1.26,2.46-1.27,3.77-1.98.87-.47.86-1.19,1.02-2.05.1-.59.26-1.14.67-1.59.29-.31.65-.52.95-.8s.52-.64.69-1c.36-.77.48-1.65.58-2.48.1-.9,0-2.31.98-2.78.58-.29,1.28-.1,1.86.06.53.15,1.11.34,1.68.29.53-.06,1.02-.35,1.48-.64.75-.46,1.48-.86,2.27-1.25.41-.21.85-.44,1.09-.86.22-.39.26-.86.33-1.29.33-1.89,1.2-3.74,2.27-5.33.46-.68,1.04-1.35,1.31-2.13Z"/><path class="cls-1" d="m798.47,162.55c.65.72,1.12,1.57.78,2.55-.27.78-.85,1.45-1.31,2.13-1.07,1.59-1.94,3.44-2.27,5.33-.07.43-.11.9-.33,1.29-.24.41-.67.65-1.09.86-.78.4-1.52.79-2.27,1.25-.45.29-.94.58-1.48.64-.57.06-1.14-.14-1.68-.29-.58-.17-1.28-.35-1.86-.06-.98.47-.88,1.87-.98,2.78-.1.83-.22,1.72-.58,2.48-.18.36-.4.71-.69,1s-.66.49-.95.8c-.41.44-.57,1-.67,1.59-.17.86-.16,1.58-1.02,2.05-1.31.71-2.79.72-3.77,1.98-.41.52-.73,1.07-1.15,1.57-.35.41-.91,1.03-1.51.91-.8-.17-1.06-1.27-1.36-1.9-.41-.84-1.19-1.48-1.88-2.08-1.23-1.08-2.68-2.01-3.73-3.26-1.19-1.41-.77-3.26-1.43-4.87-.31-.75-.87-1.27-1.38-1.87-.53-.62-.73-1.42-1.28-2.02-.99-1.09-2.19-.5-3.42-.35-.73.08-1.17-.15-1.2-.93-.04-.78.06-1.72.22-2.48.2-.93.75-1.81,1.05-2.71.33-.99.77-1.88,1.21-2.82.71-1.51,1.7-6.03-1.43-5.39-.42.08-.82.34-1.24.09-.33-.18-.57-.38-.96-.48-.78-.2-1.6-.06-2.4-.09-.52-.02-.96-.16-1.26-.59-.2-.29-.31-.63-.51-.91-.35-.53-.93-.77-1.55-.83-1.48-.13-3.06.65-4.2,1.54-.53.41-1.06.97-1.72,1.17-.89.27-1.34-.73-1.72-1.34-.98-1.56-2.6-2.78-2.93-4.68-.16-.92-.16-1.85-.39-2.77-.25-.96-.64-1.92-.69-2.92-.02-.53.08-.97.3-1.36.61-.51,1.22-1,1.74-1.6.57-.66.96-1.41,1.38-2.18.41-.76.87-1.51,1.13-2.34.28-.82.13-1.66.36-2.47.42-1.54,2.27-.95,3.35-.55.44.17.88.33,1.34.41.45.07.94-.11,1.36.04.33.11.58.38.91.5.28.09.58.12.88.15.63.06,1.32.09,1.85-.3.53-.39.8-1,1.25-1.47,1.3-1.36,3.47.12,4.59,1.04.69.57,1.1,1.35,1.55,2.11.29.49.61.94,1.19,1.09.73.18,1.56.06,2.31.13,1,.09,1.98.29,2.98.44,1.03.16,2.07.17,3.1.23.96.06,2.01.14,2.84.68.6.41,1.05,1.01,1.49,1.58.48.61.98,1.13,1.59,1.6,1.46,1.12,3.02,1.98,4.09,3.53.5.71.94,1.48,1.28,2.27.33.76.48,1.51.64,2.31.28,1.37.98,2.58,2.18,3.34.63.4,1.35.66,2.05.9.65.22,1.35.41,2,.13.33-.16.6-.41.9-.6.32-.22.69-.3,1.09-.33.77-.05,1.58.13,2.26.48.81.41,1.18,1.1,1.59,1.88.39.77.9,1.36,1.48,2Z"/></svg>