<?xml version="1.0" encoding="UTF-8"?><svg id="Tree_09_-_Leaves_01" xmlns="http://www.w3.org/2000/svg" viewBox="0 0 1160 418.25"><defs><style>.cls-1{fill:#8fb223;stroke-width:0px;}</style></defs><path class="cls-1" d="m573.03,94.74c.88,1.55,1.03,3.62.81,5.35-.22,1.82-.88,3.52-1.71,5.14-1.65,3.25-4.03,6.22-4.9,9.8-.4,1.61-1.15,2.8-2.76,3.39-1.45.53-3.06.47-4.57.73-1.83.32-3.51,1.24-4.86,2.5-1.37,1.29-2.4,2.88-3.57,4.34-.64.79-1.29,1.6-2.12,2.21-.7.51-1.52.8-2.37.97-1,.19-1.99.34-2.96.68-1.14.4-2.22.97-3.33,1.47-1.09.5-2.2.94-3.39,1.11-1.16.17-2.31.12-3.46-.06-2.26-.36-4.67-1.19-6.62-2.39-1.67-1.03-3.09-2.62-3.78-4.46-.36-.98-.49-2.04-.93-2.99-.38-.84-1.08-1.49-1.84-1.98-3.19-2.04-7.48-1.97-9.99-5.12-2.54-3.2-.05-6.78.96-10.03.74-2.37.43-4.75,0-7.14-.45-2.39-.76-4.76-.77-7.2,0-2.41.18-4.81.53-7.19.16-1.14.4-2.26.61-3.38.19-1.01.24-2.03.32-3.05.16-2.01.34-4.13,1.35-5.93.39-.7.91-1.28,1.5-1.78,0-.01,0-.03,0-.04.88-1.86,3.54-2.51,5.36-2.89,2.38-.49,4.87-.69,7.3-.57.9.04,1.76.12,2.58.5,1.27.58,2.06,1.67,2.86,2.75.79,1.06,1.65,1.8,3.03,1.8,1.06,0,2.12-.24,3.17-.33,1.05-.1,2.1-.13,3.15,0,2.04.25,4.14,1.19,5.42,2.87,1.18,1.55,1.17,3.46,1.64,5.27.49,1.89,1.7,3.12,3.54,3.75,1.72.59,3.57.77,5.26,1.47,1.66.68,2.67,1.89,3.34,3.51.58,1.4,1.03,2.76,2.58,3.32,2.86,1.03,6.88.56,8.62,3.6Zm-.71,5.64c.27-1.56.22-3.57-.6-4.96-.77-1.28-2.33-1.7-3.69-1.99-1.53-.33-3.15-.46-4.58-1.11-1.45-.67-2.17-1.95-2.73-3.37-.58-1.47-1.22-2.67-2.76-3.3-1.59-.66-3.33-.84-4.96-1.37-1.7-.56-3.22-1.52-4.06-3.15-.85-1.64-.79-3.47-1.34-5.19-.63-1.92-2.53-3.1-4.42-3.53-2.01-.45-4.09-.07-6.11.15-1.45.15-2.85-.17-3.92-1.21-.85-.84-1.38-1.94-2.24-2.76-1.43-1.35-3.46-1.21-5.3-1.18-2.09.03-4.2.23-6.23.73.15.28.12.64-.26.81-1.32.62-2.68,1.38-3.63,2.5.03.12.06.25.11.38.03.1-.11.15-.16.07l-.12-.24c-.2.26-.38.53-.53.82-.88,1.78-.92,3.88-1.07,5.82-.15,2.05-.63,4.04-.91,6.07-.33,2.32-.47,4.68-.44,7.02.04,2.34.38,4.6.81,6.89.42,2.24.69,4.5.17,6.75-.43,1.81-1.33,3.45-1.9,5.21-.49,1.54-.57,3.09.56,4.38,1.21,1.38,2.92,2.04,4.63,2.61,1.68.57,3.45,1.07,4.95,2.07.73.49,1.4,1.09,1.9,1.81.55.8.8,1.77,1.05,2.7.27,1,.6,1.89,1.22,2.73.53.74,1.19,1.4,1.95,1.91,1.77,1.19,4.01,1.96,6.1,2.36,1.14.22,2.35.3,3.51.09,1.13-.2,2.18-.67,3.21-1.15,1.02-.48,2.03-.98,3.1-1.35.93-.33,1.9-.48,2.87-.67.79-.15,1.53-.37,2.15-.88.76-.62,1.38-1.44,1.98-2.21,1.1-1.39,2.1-2.89,3.41-4.1,1.34-1.24,3.02-2.27,4.81-2.7,1.45-.34,2.96-.31,4.42-.63.6-.13,1.21-.33,1.68-.76.55-.51.68-1.2.86-1.89.43-1.71,1.21-3.32,2.06-4.85,1.66-2.99,3.84-5.89,4.45-9.33Z"/><path class="cls-1" d="m571.72,95.42c.82,1.39.87,3.4.6,4.96-.61,3.44-2.79,6.34-4.45,9.33-.85,1.53-1.63,3.14-2.06,4.85-.18.69-.31,1.38-.86,1.89-.47.43-1.08.63-1.68.76-1.46.32-2.97.29-4.42.63-1.79.43-3.47,1.46-4.81,2.7-1.31,1.21-2.31,2.71-3.41,4.1-.6.77-1.22,1.59-1.98,2.21-.62.51-1.36.73-2.15.88-.97.19-1.94.34-2.87.67-1.07.37-2.08.87-3.1,1.35-1.03.48-2.08.95-3.21,1.15-1.16.21-2.37.13-3.51-.09-2.09-.4-4.33-1.17-6.1-2.36-.76-.51-1.42-1.17-1.95-1.91-.62-.84-.95-1.73-1.22-2.73-.25-.93-.5-1.9-1.05-2.7-.5-.72-1.17-1.32-1.9-1.81-1.5-1-3.27-1.5-4.95-2.07-1.71-.57-3.42-1.23-4.63-2.61-1.13-1.29-1.05-2.84-.56-4.38.57-1.76,1.47-3.4,1.9-5.21.52-2.25.25-4.51-.17-6.75-.43-2.29-.77-4.55-.81-6.89-.03-2.34.11-4.7.44-7.02.28-2.03.76-4.02.91-6.07.15-1.94.19-4.04,1.07-5.82.15-.29.33-.56.53-.82l.12.24c.05.08.19.03.16-.07-.05-.13-.08-.26-.11-.38.95-1.12,2.31-1.88,3.63-2.5.38-.17.41-.53.26-.81,2.03-.5,4.14-.7,6.23-.73,1.84-.03,3.87-.17,5.3,1.18.86.82,1.39,1.92,2.24,2.76,1.07,1.04,2.47,1.36,3.92,1.21,2.02-.22,4.1-.6,6.11-.15,1.89.43,3.79,1.61,4.42,3.53.55,1.72.49,3.55,1.34,5.19.84,1.63,2.36,2.59,4.06,3.15,1.63.53,3.37.71,4.96,1.37,1.54.63,2.18,1.83,2.76,3.3.56,1.42,1.28,2.7,2.73,3.37,1.43.65,3.05.78,4.58,1.11,1.36.29,2.92.71,3.69,1.99Z"/><path class="cls-1" d="m531.36,162.65c.67,1.57,1.12,3.01.87,4.71-.25,1.65-.87,3.26-1.61,4.75-.65,1.31-1.47,2.72-2.61,3.67-1.11.94-2.46,1.49-3.61,2.35-1.17.89-1.46,2.11-1.15,3.52.22,1.01.77,1.89,1.26,2.79.52.96.93,1.93,1.12,3.01.37,2.04.22,4.34-.46,6.31-.46,1.36-1.45,1.88-2.8,2.17-1.91.41-3.62.81-5.21,2-1.57,1.18-2.86,2.7-4.25,4.08-1.38,1.37-2.89,2.59-4.67,3.38-1.62.73-3.29,1.36-5.01,1.81-1.6.41-3.41.78-5.05.36-3.46-.89-5.97-4.19-5.72-7.77.08-1.04.36-2.06.55-3.08.22-1.16.4-2.33.48-3.51.15-2.23-.11-4.43-1.08-6.47-.88-1.85-2.08-3.27-3.88-4.28-1.65-.92-3.17-1.74-4.19-3.4-2.47-4-4.6-8.23-6.43-12.56-.85-2.02-1.55-4.3-.66-6.43.37-.87.95-1.59,1.49-2.36.61-.88.94-1.73,1-2.81.07-1.19.09-2.34.28-3.52.17-1.04.06-2.09.11-3.14.03-.53.1-1,.33-1.49.18-.39.46-.75.56-1.18.13-.57.03-1.19.02-1.77-.02-.57,0-1.2-.1-1.75-.08-.5.61-.73.79-.33.14-1.55.54-3.05,1.27-4.46.5-.96,1.14-1.84,1.69-2.78.53-.91.87-1.83,1.06-2.86.18-.97.26-1.96.6-2.9.33-.93.87-1.72,1.6-2.39,1.43-1.31,3.25-2.05,5.21-1.97,1.89.07,3.69.77,5.4,1.56.92.42,1.81.95,2.76,1.31.93.35,1.9.56,2.87.73,1.97.35,3.98.55,5.82,1.37,1.83.82,3.34,2.35,4.66,3.83,1.36,1.51,2.58,3.13,4.02,4.57.67.68,1.37,1.33,2.22,1.78.74.4,1.55.63,2.36.83,1.57.39,3.25.66,4.6,1.62,1.57,1.12,2.61,3.04,3.16,4.86.52,1.7.41,3.45-.01,5.15-.48,1.93-1.52,3.82-1.38,5.84.12,1.73,1.06,3.29,1.72,4.85Zm-.86,5.47c.18-.66.3-1.34.29-2.02,0-.75-.29-1.48-.55-2.17-.61-1.6-1.52-3.1-1.92-4.78-.47-1.97.01-3.71.63-5.59.52-1.6,1.05-3.27.89-4.99-.16-1.73-1.07-3.76-2.33-4.96-1.15-1.09-2.77-1.37-4.25-1.72-1.65-.39-3.19-.94-4.5-2.04-3.03-2.54-4.95-6.2-8.19-8.5-1.59-1.13-3.51-1.46-5.39-1.77-1.94-.32-3.8-.69-5.56-1.58-3.14-1.58-7.07-3.54-10.28-1.06-.82.63-1.47,1.4-1.78,2.39-.28.85-.37,1.75-.55,2.62-.41,2.06-1.58,3.59-2.63,5.34-1.13,1.88-1.61,3.93-1.63,6.11-.01,1,.05,2,.08,3,.03,1.05-.04,2.09-.18,3.14-.03.26-.4.27-.42,0-.07-.84-.17-1.67-.26-2.5-.08.14-.16.28-.22.43-.34.87-.1,2.03-.13,2.94-.03,1.12-.3,2.21-.32,3.33-.02,1.09-.02,2.21-.41,3.24-.33.85-.87,1.56-1.39,2.3-.56.78-1.02,1.58-1.1,2.55-.09,1.11.22,2.19.6,3.22.77,2.08,1.75,4.1,2.74,6.08,1.04,2.07,2.15,4.09,3.32,6.09.5.86.97,1.72,1.74,2.38.63.53,1.4.91,2.12,1.3,1.7.92,3.04,2.04,4.08,3.69,1.08,1.72,1.76,3.67,1.99,5.69.24,2.25-.06,4.52-.48,6.72-.34,1.82-.82,3.51-.18,5.31.56,1.57,1.83,2.76,3.31,3.45,1.47.69,3.04.51,4.58.17,1.69-.38,3.35-.98,4.94-1.67,1.72-.75,3.16-1.79,4.5-3.11,1.32-1.3,2.53-2.72,3.96-3.91,1.45-1.21,3.03-2.05,4.87-2.5,1.03-.24,2.7-.24,3.13-1.28.33-.81.46-1.79.56-2.65.12-1.13.09-2.28-.16-3.4-.45-1.95-1.91-3.47-2.31-5.44-.31-1.52-.17-3.07.88-4.29.87-1.01,2.15-1.59,3.27-2.27,1.17-.73,2-1.62,2.72-2.8.85-1.39,1.52-2.91,1.92-4.49Z"/><path class="cls-1" d="m530.79,166.1c.01.68-.11,1.36-.29,2.02-.4,1.58-1.07,3.1-1.92,4.49-.72,1.18-1.55,2.07-2.72,2.8-1.12.68-2.4,1.26-3.27,2.27-1.05,1.22-1.19,2.77-.88,4.29.4,1.97,1.86,3.49,2.31,5.44.25,1.12.28,2.27.16,3.4-.1.86-.23,1.84-.56,2.65-.43,1.04-2.1,1.04-3.13,1.28-1.84.45-3.42,1.29-4.87,2.5-1.43,1.19-2.64,2.61-3.96,3.91-1.34,1.32-2.78,2.36-4.5,3.11-1.59.69-3.25,1.29-4.94,1.67-1.54.34-3.11.52-4.58-.17-1.48-.69-2.75-1.88-3.31-3.45-.64-1.8-.16-3.49.18-5.31.42-2.2.72-4.47.48-6.72-.23-2.02-.91-3.97-1.99-5.69-1.04-1.65-2.38-2.77-4.08-3.69-.72-.39-1.49-.77-2.12-1.3-.77-.66-1.24-1.52-1.74-2.38-1.17-2-2.28-4.02-3.32-6.09-.99-1.98-1.97-4-2.74-6.08-.38-1.03-.69-2.11-.6-3.22.08-.97.54-1.77,1.1-2.55.52-.74,1.06-1.45,1.39-2.3.39-1.03.39-2.15.41-3.24.02-1.12.29-2.21.32-3.33.03-.91-.21-2.07.13-2.94.06-.15.14-.29.22-.43.09.83.19,1.66.26,2.5.02.27.39.26.42,0,.14-1.05.21-2.09.18-3.14-.03-1-.09-2-.08-3,.02-2.18.5-4.23,1.63-6.11,1.05-1.75,2.22-3.28,2.63-5.34.18-.87.27-1.77.55-2.62.31-.99.96-1.76,1.78-2.39,3.21-2.48,7.14-.52,10.28,1.06,1.76.89,3.62,1.26,5.56,1.58,1.88.31,3.8.64,5.39,1.77,3.24,2.3,5.16,5.96,8.19,8.5,1.31,1.1,2.85,1.65,4.5,2.04,1.48.35,3.1.63,4.25,1.72,1.26,1.2,2.17,3.23,2.33,4.96.16,1.72-.37,3.39-.89,4.99-.62,1.88-1.1,3.62-.63,5.59.4,1.68,1.31,3.18,1.92,4.78.26.69.54,1.42.55,2.17Z"/><path class="cls-1" d="m632.64,136.93c.16.43-.14.59-.35.92-.3.48-.61.91-.98,1.35-3.11,3.78-5.18,8.76-4.3,13.72.47,2.61,1.65,5.01,2.29,7.58.33,1.3.9,2.54.98,3.9.05.7-.03,1.41-.05,2.11,0,.68.07,1.34.19,2.01.05.3-.14.52-.38.57-.23,1.75-1.91,2.58-3.16,3.66-.69.59-1.29,1.29-2.01,1.83-.68.5-1.61.75-2.4,1.04-1,.37-2.06.59-3.09.82-.8.18-1.79.4-2.58.13-.77-.27-1.13-1.06-1.95-1.28-.44-.12-.91-.1-1.35-.18-.21-.05-.55-.17-.81-.19-.06.11-.19.19-.33.17-.8-.13-1.52-.44-2.3-.67-.75-.21-1.5-.37-2.26-.54-.75-.16-1.5-.38-2.26-.47-.79-.09-1.47.06-2.21.32-.64.23-1.28.48-1.96.58-.6.09-1.22.03-1.82.03-1.24,0-2.5-.05-3.58-.74-1.02-.63-1.76-1.62-2.56-2.48-.48-.51-.94-.96-1.56-1.31-.48-.27-.86-.57-1.22-1.01-.8-1-1.29-2.24-2.16-3.16-.84-.91-2.03-1.36-2.8-2.35-.4-.51-.74-1.05-1.2-1.52-.48-.5-1.01-.97-1.48-1.47-.34-.36-.62-.76-.8-1.22-.14-.36-.13-1.13-.45-1.36-.1-.07-.08-.18-.03-.25.02-.06.06-.13.15-.16.72-.24,1.48-.25,2.17-.63.7-.38,1.27-1.02,1.41-1.83.15-.82-.08-1.67-.19-2.49-.1-.72-.02-1.36-.56-1.92-.73-.76-1.98-1.21-2.99-1.38-1.38-.25-2.81-.16-3.89-1.22-.45-.44-.8-1.28-1.45-1.41-.6-.11-1.24.2-1.84.3-1.14.19-2.66-.23-3.54-1-.79-.69-1.24-1.79-2.18-2.3-1.27-.7-3.11.26-4.02,1.19-.81.84-1.04,2.2-1.23,3.31-.1.62-.17,1.3-.54,1.84-.31.44-.79.68-1.21,1,0,.08-.07.15-.16.15v.02c-.05,0-.11,0-.16-.02-.05,0-.08-.03-.1-.06-.22-.05-.4-.29-.53-.46-.48-.6-.89-1.07-1.52-1.53-.76-.56-1.49-.88-2.41-1.09-.65-.14-1.32-.28-1.86-.69-.61-.46-.97-1.14-1.4-1.76-.47-.67-1.11-1.14-1.75-1.64-.39-.31-.97-.61-1.2-1.07-.26-.49-.04-1.03.2-1.49.36-.7.93-1.24,1.33-1.91.3-.51.56-1.07,1.03-1.45,1.21-.91,3.06-.51,4.45-.71,1.59-.22,3.23-.11,4.78-.51.44-.12.75-.26,1.04-.6.16-.2.3-.42.49-.59.45-.4,1.02-.47,1.6-.44.77.05,1.55.07,2.32.13.8.06,1.55.35,2.35.48.89.16,1.83.12,2.7-.15.8-.24,1.48-.75,2.24-1.1.21-.1.43.15.27.33.32.29.46.7.7,1.06.4.63,1.22,1,1.91,1.19,1.46.43,2.91-.39,4.39-.05.75.18,1.34.4,2.11.16.63-.2,1.2-.54,1.77-.85.56-.3,1.18-.57,1.63-1.02.43-.43.44-1.05.65-1.59.95-2.45,3.29-3.8,5.68-4.56,1.29-.41,2.62-.67,3.94-.93.96-.19,1.96-.38,2.89.05,1.1.48,1.18,1.54,1.45,2.57.19.7.19,1.41.33,2.12.06.32.27.65.11.91.31,1.47,3.09,1.18,4.19,1.27,1.03.08,2.25.08,3.18.59,1.34.73,2.53,1.8,4.01,2.27,1.29.4,2.68.29,3.98.04,1.16-.23,1.65-1.09,2.2-2.04.32-.54.7-1.04,1-1.59.23-.42.41-.87.72-1.23.38-.45.89-.69,1.39-.95.48-.26.86-.63,1.33-.88.4-.21.82-.18,1.19.08.45.33.86.72,1.32,1.06,1.01.73,2,1.53,2.88,2.41.67.67,1.79,1.28,2.13,2.2Zm-.94.29s.05-.06.08-.12c-.2-.17-.37-.44-.57-.63-.16-.16-.35-.29-.52-.45-.48-.41-.91-.88-1.37-1.3s-.98-.8-1.46-1.2c-.5-.42-1.06-.76-1.55-1.18-.2-.17-.35-.41-.61-.45-.29-.04-.48.19-.7.36-.5.38-1.1.58-1.61.93-.48.33-.7.85-.97,1.35-.31.59-.71,1.12-1.04,1.68-.24.4-.47.8-.75,1.18-.66.86-1.46,1.14-2.51,1.31-1.23.18-2.5.24-3.7-.13-1.23-.37-2.33-1.17-3.4-1.87-.57-.38-1.06-.72-1.75-.86-.54-.11-1.11-.14-1.66-.2-.7-.08-1.41-.09-2.11-.16-1.06-.11-2.6-.4-2.8-1.59-.19-.06-.31-.31-.2-.49-.04,0-.06-.05-.06-.17-.04-.12-.06-.24-.08-.37-.02-.09-.03-.18-.04-.27-.06-.41-.07-.84-.16-1.25-.06-.33-.17-.65-.26-.98-.09-.35-.11-.74-.27-1.05-.58-1.09-2.13-.78-3.09-.59-2.52.51-5.37,1-7.42,2.7-.94.79-1.6,1.83-1.91,3.01-.28,1.1-1.04,1.63-2,2.13-1.02.53-2.04,1.23-3.21,1.31-.64.04-1.18-.26-1.79-.36-.71-.13-1.42.05-2.11.16-1.14.18-2.2-.05-3.17-.64-.4-.24-.77-.51-1.02-.91-.25-.38-.31-.91-.53-1.28-1.07.95-2.74,1.4-4.13,1.36-.77-.03-1.54-.19-2.29-.34-.91-.18-1.81-.14-2.73-.23-.72-.06-1.4-.16-1.91.46-.29.35-.53.71-.95.91-1.28.6-2.91.53-4.28.6-.79.05-1.56.19-2.36.19-.72,0-1.43,0-2.15.16-.9.19-1.24.7-1.68,1.46-.33.57-.78,1.02-1.13,1.57-.21.31-.48.7-.52,1.07-.05.37.16.56.41.77.49.4,1,.78,1.48,1.19.54.47.92.98,1.31,1.57.43.67.87,1.26,1.65,1.55.6.22,1.23.27,1.85.44.62.18,1.17.52,1.7.9.46.32.91.66,1.24,1.12.1.14.55.88.67.94.25-.27.54-.49.8-.76.34-.34.48-.75.57-1.21.15-.75.21-1.51.41-2.26.18-.66.43-1.33.87-1.87.48-.6,1.23-1.07,1.93-1.39,1.17-.52,2.52-.65,3.53.25.46.39.8.9,1.17,1.36.48.59.98.99,1.72,1.23.89.29,1.64.35,2.53.13.58-.14,1.21-.3,1.77-.05.61.27.93.95,1.38,1.42.66.68,1.52.85,2.43.96,1.32.16,2.59.4,3.74,1.11.47.28.9.64,1.16,1.13.32.57.26,1.22.35,1.84.22,1.47.49,2.85-.53,4.1-.69.82-1.98,1.48-3.1,1.34.11.21.17.45.24.65.19.61.57,1.13,1.02,1.56.56.55,1.16,1.05,1.69,1.63.47.5.8,1.12,1.3,1.6.86.83,2,1.27,2.76,2.23.78,1.01,1.29,2.25,2.2,3.15.43.44,1.05.63,1.54,1,.49.38.93.8,1.34,1.24.8.86,1.64,2.05,2.76,2.48.67.27,1.41.29,2.12.31.7.02,1.45.1,2.15-.03,1.22-.23,2.3-.87,3.57-.83,1.29.03,2.6.38,3.85.64.69.15,1.36.31,2.03.53.59.19,1.19.33,1.75.58.32-.11.75.04,1.05.08.8.13,1.57.06,2.26.57.3.22.54.54.87.73.41.24.93.18,1.39.14,1.01-.1,2.02-.4,2.99-.66.89-.24,1.76-.59,2.62-.91.93-.37,1.51-1.15,2.22-1.81.66-.61,1.33-1.14,2.04-1.67.71-.52,1.23-1.29,1.53-2.12h0c-.17-.15-.16-.35-.08-.51-.11-.59-.2-1.18-.21-1.77-.02-.78.09-1.55.04-2.32-.06-.8-.3-1.58-.49-2.36-.17-.74-.36-1.47-.59-2.2-.9-2.76-1.99-5.56-2.13-8.49-.11-2.39.32-4.77,1.2-6.98.44-1.12.98-2.19,1.62-3.2.65-1.05,1.45-1.97,2.2-2.95.22-.28.38-.61.6-.91Z"/><path class="cls-1" d="m631.78,137.11c-.04.05-.07.1-.08.12-.22.29-.38.62-.6.91-.75.98-1.55,1.89-2.2,2.95-.64,1.02-1.18,2.09-1.62,3.2-.88,2.21-1.31,4.59-1.2,6.98.14,2.93,1.23,5.73,2.13,8.49.24.73.42,1.46.59,2.2.19.78.43,1.55.49,2.36.05.77-.05,1.55-.04,2.32,0,.59.1,1.18.21,1.77-.08.16-.09.37.08.5h0c-.29.84-.81,1.61-1.53,2.13-.71.53-1.38,1.06-2.04,1.67-.71.66-1.29,1.45-2.22,1.81-.86.33-1.73.68-2.62.91-.97.26-1.98.56-2.99.66-.46.05-.98.1-1.39-.14-.33-.19-.57-.51-.87-.73-.69-.5-1.46-.44-2.26-.57-.3-.05-.73-.19-1.05-.08-.56-.25-1.16-.38-1.75-.58-.67-.22-1.34-.38-2.03-.53-1.25-.27-2.56-.61-3.85-.64-1.27-.04-2.35.6-3.57.83-.7.13-1.45.05-2.15.03-.71-.02-1.45-.05-2.12-.31-1.13-.43-1.96-1.62-2.76-2.48-.41-.45-.85-.87-1.34-1.24-.48-.37-1.11-.56-1.54-1-.91-.9-1.43-2.14-2.2-3.15-.76-.96-1.9-1.4-2.76-2.23-.49-.48-.83-1.1-1.3-1.6-.53-.58-1.13-1.08-1.69-1.63-.46-.44-.83-.95-1.02-1.56-.06-.2-.13-.44-.24-.65,1.12.15,2.41-.51,3.1-1.34,1.02-1.24.75-2.63.53-4.1-.09-.62-.03-1.27-.35-1.84-.27-.48-.7-.84-1.16-1.13-1.15-.7-2.42-.95-3.74-1.11-.91-.11-1.77-.28-2.43-.96-.45-.47-.77-1.14-1.38-1.42-.56-.25-1.19-.08-1.77.05-.9.22-1.65.16-2.53-.13-.74-.24-1.23-.63-1.72-1.23-.38-.47-.71-.97-1.17-1.36-1.02-.9-2.36-.77-3.53-.25-.7.32-1.45.79-1.93,1.39-.44.54-.69,1.21-.87,1.87-.2.75-.27,1.51-.41,2.26-.08.46-.23.87-.57,1.21-.27.27-.56.48-.8.76-.12-.06-.57-.8-.67-.94-.33-.46-.79-.8-1.24-1.12-.53-.38-1.08-.71-1.7-.9-.61-.17-1.24-.22-1.85-.44-.78-.28-1.22-.88-1.65-1.55-.38-.59-.77-1.11-1.31-1.57-.48-.41-.99-.79-1.48-1.19-.25-.21-.47-.4-.41-.77.05-.37.31-.76.52-1.07.36-.55.8-1.01,1.13-1.57.44-.76.79-1.27,1.68-1.46.72-.15,1.43-.15,2.15-.16.8,0,1.57-.15,2.36-.19,1.37-.07,3,0,4.28-.6.42-.19.66-.56.95-.91.51-.61,1.19-.52,1.91-.46.92.09,1.82.05,2.73.23.75.15,1.52.31,2.29.34,1.39.04,3.06-.41,4.13-1.36.22.38.28.9.53,1.28.25.39.61.67,1.02.91.98.59,2.03.82,3.17.64.7-.11,1.4-.28,2.11-.16.61.1,1.15.39,1.79.36,1.17-.07,2.2-.78,3.21-1.31.96-.5,1.72-1.03,2-2.13.31-1.18.97-2.22,1.91-3.01,2.05-1.7,4.89-2.19,7.42-2.7.96-.18,2.52-.49,3.09.59.16.31.18.7.27,1.05.08.33.19.65.26.98.08.41.09.84.16,1.25,0,.09.02.18.04.27.02.13.05.25.08.37,0,.13.03.17.06.17-.11.18,0,.43.2.49.2,1.19,1.74,1.48,2.8,1.59.7.07,1.41.08,2.11.16.55.06,1.12.09,1.66.2.69.14,1.18.48,1.75.86,1.07.7,2.17,1.5,3.4,1.87,1.2.37,2.47.31,3.7.13,1.04-.16,1.85-.45,2.51-1.31.28-.38.51-.78.75-1.18.33-.57.73-1.1,1.04-1.68.27-.5.48-1.02.97-1.35.51-.36,1.11-.56,1.61-.93.23-.16.41-.39.7-.36.27.04.41.27.61.45.49.42,1.05.76,1.55,1.18.48.39,1,.78,1.46,1.2s.89.89,1.37,1.3c.17.16.36.29.52.45.2.19.37.46.57.63Z"/><path class="cls-1" d="m672.42,111.83c.09.17.04.34-.09.45h.03c-.93.77-2.19,1.06-2.74,2.25-.25.52-.41,1.04-.76,1.51-.31.42-.7.79-.91,1.27-.23.5-.31,1.07-.39,1.61-.05.3-.05.68-.17.97-.29.7-1.25.59-1.86.51-1.13-.16-2.33-.06-3.45.18-.56.13-1.11.29-1.63.52-.44.18-.85.46-1.3.59-.72.22-1.26-.09-1.79-.55-.81-.7-1.53-1.51-2.38-2.17-.91-.72-2.06-.95-2.99-1.61-.55-.39-.88-.95-1.27-1.46-.08,0-.16-.05-.2-.14-.32-.58-1.15-.85-1.74-1.06-.75-.27-1.54-.45-2.27-.77-.78-.35-1.47-.83-2.21-1.25-.72-.41-1.41-.86-2.11-1.3-.68-.43-1.37-.84-2.13-1.1-.89-.3-1.59-.26-2.52-.13-1.69.22-3.39.03-5.09.16-1.46.1-2.78.73-4.22.93-1.13.16-2.2-.07-3-.92-.79-.84-1.18-1.98-1.98-2.81-.98-1.02-2.35-1.4-3.73-1.34-.76.03-1.51.14-2.26-.02-.72-.16-1.41-.29-2.16-.31-1.51-.04-2.87.19-4.22.89-.57.28-1.11.59-1.69.81-.57.22-1.13.41-1.66.7-.62.34-.98.74-1.33,1.34-.18.31-.4.54-.79.57-.58.04-1.21-.31-1.72-.55-.59-.27-1.17-.56-1.74-.87-1.12-.59-2.04-1.3-2.78-2.33-.85-1.18-1.62-2.54-3.04-3.1-1.33-.53-2.8-.26-4.15-.04-1.34.23-2.63.42-3.98.18-1.62-.29-3.12-1.05-4.77-.54-1.52.47-2.83,1.5-4.2,2.26-1.25.7-2.52,1-3.91,1.17,0,.03,0,.05-.02.08-.05.14-.27.16-.3,0,0-.02,0-.05,0-.06-.16-.04-.2-.27-.06-.37-.05-.46-.02-.95,0-1.4,0-.6.03-1.22.09-1.82.12-1.02.42-1.99.84-2.94.64-1.45,1.66-2.85,3.27-3.26.51-.13,1.07-.04,1.34-.6.18-.39.32-.93.32-1.37,0-.49-.14-.97-.05-1.46.07-.37.27-.71.44-1.03.39-.74.88-1.47,1.59-1.94.84-.54,1.92-.75,2.6-1.52s.42-1.79.33-2.71c-.05-.51-.08-1.03-.05-1.54.03-.36.13-.79,0-1.13-.16-.39.5-.6.65-.23.66-.07,1.33-.07,1.98-.05,1.54.02,3-.14,4.35.74,1.38.89,1.76,2.42,2.31,3.87.62,1.61,1.63,3.07,2.84,4.29.53.53,1.19,1.18,1.98,1.23.8.05,1.62-.3,2.36-.58.78-.29,1.58-.49,2.35-.8.91-.35,1.4-.77,1.87-1.6.93-1.66.31-3.37.14-5.14-.07-.75.06-1.41.61-1.95.49-.49,1.17-.9,1.79-1.2,1.54-.73,3.29-.89,4.91-1.4,1.88-.6,3.66-1.4,5.49-2.12,1.64-.64,3.36-.95,5.11-.79.83.07,1.64.24,2.44.46.44.12.88.29,1.33.38.44.09.9.06,1.34.08.75.03,1.51.19,2.18.56.68.38,1.13,1.02,1.67,1.55,1.29,1.29,2.7,2.41,3.91,3.77,1.13,1.26,2.43,2.38,4,3.04,1.39.58,2.91.76,4.3,1.32.62.25,1.22.56,1.73,1,.63.54,1.14,1.24,1.72,1.84,1.16,1.21,2.55,2.07,3.83,3.12.67.55,1.32,1.11,2.05,1.55.8.48,1.69.79,2.6,1.02.93.25,1.88.42,2.82.65.88.23,1.71.57,2.56.85.9.29,1.84.37,2.75.57.49.11,1,.22,1.48.37.31.08.68.16.92.38.29.26.06.79-.31.77h0c.03.34.03.7.07.97.1.6.27,1.22.64,1.71.4.54.98.84,1.65.91.58.06,1.19-.02,1.76.15,1.35.39.99,2,.73,3.03-.21.85-.27,1.73-.1,2.61.09.48.31,1.08.03,1.54.05.03.1.06.13.12h0Zm-.69-4.45c.15-.58.56-1.75-.07-2.16-.48-.31-1.26-.16-1.79-.21-1.1-.11-1.97-.74-2.4-1.75-.23-.52-.33-1.09-.38-1.66-.03-.27-.07-.66-.05-1.01,0,0,0-.02-.02-.03-.16-.05-.36-.08-.44-.11-.2-.05-.39-.1-.59-.15-.45-.11-.89-.21-1.34-.29-.91-.16-1.8-.3-2.67-.63-.86-.33-1.71-.61-2.61-.82-1.74-.42-3.55-.73-5.09-1.69-1.37-.85-2.56-2-3.88-2.95-1.38-.99-2.41-2.25-3.58-3.45-1.04-1.07-2.62-1.4-4.02-1.77-1.48-.39-2.87-.91-4.12-1.83-1.34-1-2.31-2.31-3.51-3.45-.65-.61-1.34-1.18-2-1.78-.62-.58-1.15-1.34-1.84-1.82s-1.52-.61-2.33-.63c-.89-.02-1.64-.21-2.5-.45-1.74-.48-3.55-.69-5.33-.28-1.82.4-3.51,1.31-5.24,1.96-1.72.65-3.43,1.09-5.2,1.53-.85.2-1.62.49-2.34.98-.7.46-1.34.84-1.3,1.76.06,1.66.79,3.37.18,5-.24.63-.63,1.32-1.08,1.82-.52.58-1.28.85-1.99,1.12-.77.27-1.55.48-2.31.77-.7.26-1.42.5-2.17.5-1.5,0-2.66-1.37-3.52-2.44-1.01-1.27-1.77-2.62-2.33-4.14-.29-.8-.52-1.72-1.09-2.39-.49-.59-1.2-.97-1.93-1.17-.79-.2-1.58-.13-2.38-.16-.77-.02-1.55-.08-2.33,0-.02.23-.06.46-.09.69-.07.58-.02,1.18.04,1.76.1.89.27,1.81-.22,2.63-.48.8-1.38,1.18-2.2,1.56-.98.46-1.58,1.06-2.11,2-.28.5-.5.96-.46,1.55.03.43.1.85.03,1.27-.12.67-.32,1.56-1.01,1.86-.39.17-.86.15-1.28.28-.45.15-.85.39-1.21.71-.65.58-1.1,1.34-1.45,2.13-.47,1.02-.75,2.1-.86,3.23-.05.54-.06,1.08-.08,1.63,0,.32,0,.65-.03.97.7-.13,1.42-.25,2.1-.48.91-.31,1.74-.86,2.56-1.35,1.42-.85,2.91-1.89,4.63-1.89.79,0,1.55.26,2.31.45.9.24,1.8.45,2.74.42,1.59-.05,3.15-.56,4.75-.58,1.28-.02,2.45.35,3.41,1.2,1.01.9,1.55,2.13,2.45,3.1.94,1.01,2.29,1.57,3.5,2.16.43.2.85.4,1.3.53.35.1.48.13.68-.17.28-.46.49-.84.93-1.19.97-.78,2.23-1.01,3.31-1.58,1.17-.62,2.29-1.14,3.63-1.28.76-.07,1.53-.09,2.3-.03.71.06,1.4.31,2.12.35.8.05,1.61-.12,2.42-.05.6.05,1.19.18,1.75.42,1.12.47,1.9,1.3,2.52,2.31.64,1.02,1.23,2.22,2.55,2.37,1.49.16,2.92-.63,4.37-.83,1.45-.2,2.91-.09,4.35-.14.82-.02,1.6-.16,2.41-.25.64-.07,1.3.07,1.9.28,1.37.47,2.51,1.35,3.73,2.09.69.41,1.37.82,2.07,1.23.69.39,1.4.64,2.16.87.92.28,2.27.65,2.76,1.58.59.49,1,1.23,1.7,1.61.5.27,1.06.44,1.58.7.5.24.96.57,1.39.92.8.65,1.49,1.43,2.28,2.09.3.25.58.45.99.34.46-.12.89-.42,1.33-.6.91-.38,1.85-.61,2.83-.73,1.02-.12,1.99-.02,3.01.05.17,0,.56.04.68-.14.06-.09.05-.37.06-.48.05-.38.09-.75.16-1.12.09-.46.23-.92.47-1.33.22-.38.53-.7.79-1.05.57-.76.69-1.71,1.36-2.41.61-.62,1.48-1.15,2.28-1.52-.27-1.45-.48-2.89-.11-4.34Z"/><path class="cls-1" d="m671.66,105.23c.63.41.22,1.58.07,2.16-.37,1.45-.16,2.89.11,4.34-.8.37-1.66.9-2.28,1.52-.68.7-.8,1.65-1.36,2.41-.26.36-.57.67-.79,1.05-.24.4-.38.87-.47,1.33-.07.37-.12.74-.16,1.12-.02.11,0,.38-.06.48-.12.17-.5.15-.68.14-1.02-.06-1.98-.16-3.01-.05-.98.12-1.92.35-2.83.73-.44.18-.87.48-1.33.6-.41.11-.69-.09-.99-.34-.79-.67-1.48-1.45-2.28-2.09-.43-.36-.89-.69-1.39-.92-.52-.26-1.08-.42-1.58-.7-.7-.38-1.11-1.12-1.7-1.61-.49-.93-1.84-1.3-2.76-1.58-.76-.23-1.47-.48-2.16-.87-.7-.4-1.38-.81-2.07-1.23-1.23-.73-2.36-1.62-3.73-2.09-.6-.21-1.26-.36-1.9-.28-.81.08-1.59.23-2.41.25-1.45.05-2.91-.06-4.35.14-1.45.2-2.88,1-4.37.83-1.33-.15-1.91-1.34-2.55-2.37-.62-1.01-1.41-1.84-2.52-2.31-.56-.24-1.14-.37-1.75-.42-.81-.06-1.62.11-2.42.05-.72-.04-1.41-.28-2.12-.35-.77-.06-1.54-.05-2.3.03-1.34.14-2.46.66-3.63,1.28-1.08.58-2.34.8-3.31,1.58-.44.35-.65.73-.93,1.19-.19.3-.33.27-.68.17-.45-.13-.87-.33-1.3-.53-1.22-.59-2.56-1.15-3.5-2.16-.9-.97-1.45-2.2-2.45-3.1-.96-.85-2.13-1.22-3.41-1.2-1.6.02-3.16.53-4.75.58-.94.03-1.85-.18-2.74-.42-.75-.19-1.52-.45-2.31-.45-1.72,0-3.21,1.04-4.63,1.89-.82.49-1.65,1.04-2.56,1.35-.69.23-1.4.35-2.1.48.03-.32.02-.65.03-.97.02-.55.03-1.09.08-1.63.11-1.13.39-2.2.86-3.23.36-.79.8-1.55,1.45-2.13.36-.32.76-.57,1.21-.71.42-.14.89-.11,1.28-.28.69-.29.89-1.19,1.01-1.86.07-.42,0-.84-.03-1.27-.05-.59.17-1.04.46-1.55.53-.94,1.13-1.55,2.11-2,.81-.38,1.71-.76,2.2-1.56.48-.81.32-1.74.22-2.63-.05-.58-.11-1.18-.04-1.76.03-.23.07-.46.09-.69.78-.07,1.56,0,2.33,0,.8.03,1.59-.05,2.38.16.73.2,1.44.59,1.93,1.17.57.67.8,1.59,1.09,2.39.57,1.53,1.33,2.87,2.33,4.14.86,1.07,2.02,2.44,3.52,2.44.75,0,1.47-.25,2.17-.5.77-.28,1.55-.49,2.31-.77.71-.27,1.47-.54,1.99-1.12.45-.5.84-1.19,1.08-1.82.6-1.64-.12-3.35-.18-5-.04-.91.6-1.3,1.3-1.76.72-.48,1.49-.78,2.34-.98,1.77-.44,3.49-.88,5.2-1.53,1.73-.65,3.42-1.55,5.24-1.96,1.78-.4,3.59-.2,5.33.28.86.24,1.61.43,2.5.45.81.02,1.65.15,2.33.63s1.22,1.24,1.84,1.82c.66.6,1.35,1.17,2,1.78,1.2,1.14,2.17,2.45,3.51,3.45,1.24.91,2.63,1.44,4.12,1.83,1.4.37,2.97.7,4.02,1.77,1.16,1.2,2.2,2.46,3.58,3.45,1.32.94,2.51,2.09,3.88,2.95,1.55.96,3.36,1.27,5.09,1.69.9.21,1.75.49,2.61.82.87.33,1.76.47,2.67.63.45.08.89.18,1.34.29.19.05.38.09.59.15.08.03.28.06.44.11,0,0,0,.02.02.03-.02.35.03.73.05,1.01.05.57.16,1.13.38,1.66.43,1.01,1.3,1.64,2.4,1.75.53.05,1.32-.1,1.79.21Z"/></svg>