<?xml version="1.0" encoding="UTF-8"?><svg id="Tree_09_-_Leaves_02" xmlns="http://www.w3.org/2000/svg" viewBox="0 0 1160 418.25"><defs><style>.cls-1{fill:#b6d01c;stroke-width:0px;}</style></defs><path class="cls-1" d="m613.31,42.76c0,.11-.06.17-.15.22-.02.23-.07.46-.13.68-.15.64-.35,1.26-.5,1.89-.35,1.44-.71,2.86-1.15,4.27-.44,1.45-.9,2.9-1.28,4.37-.17.7-.34,1.39-.52,2.09-.16.68-.36,1.36-.32,2.06-.06.55-.57.67-.89.48-.91.69-2.24.97-3.29,1.06-.44.04-.88,0-1.31.08-.42.07-.82.18-1.23.26-.85.13-1.66-.14-2.52-.1-.71.04-1.45.11-2.06-.35-.56-.41-.76-1.11-1.17-1.64-.35-.47-.81-.78-1.04-1.33-.29-.7-.39-1.45-.73-2.15-.21-.44-.51-.85-1.04-.86-.32,0-.63.11-.94.18l-.22.05c-.53.21-1.13.15-1.7.09-1.65-.16-3.39-.02-4.98-.6-.34-.13-.63-.25-1-.16-.38.08-.71.29-1.07.4-.91.3-1.8.37-2.61.94-1.12.8-2.07,2.31-3.49,2.58-1.25.24-2.73-.13-3.91-.57-.81-.3-1.61-.71-2.33-1.21-.7-.48-1.24-1.14-1.98-1.57-.67-.41-1.46-.84-2.26-.84-.91,0-1.41.71-1.93,1.36-.82,1.02-1.76,1.89-3.14,1.98-.87.05-1.79-.15-2.65-.3-.97-.16-1.93-.39-2.89-.59-.82-.18-1.66-.26-2.47-.44-.82-.18-1.53-.53-2.23-.98-.66-.42-1.39-.83-2.2-.8-.91.04-1.65.63-2.51.89-1.47.43-3.19-.02-4.51-.73-1.43-.78-2.29-2.06-3.4-3.18-1.13-1.14-2.78-1.46-4.12-2.31-.48-.3-.89-.68-1.1-1.23-.26-.64-.16-1.41-.51-2.01-.38-.65-1.17-1.04-1.78-1.45-.51-.34-1.02-.7-1.41-1.19-.92-1.16-.94-2.77-.56-4.14.41-1.49,1.29-2.79,2.51-3.74.59-.47,1.24-.84,1.95-1.1.64-.24,1.32-.38,1.93-.71,1.44-.77,1.94-2.41,2.34-3.88.23-.83.37-1.73.72-2.52.25-.57.59-1.1.86-1.66.33-.9.72-1.75,1.4-2.48.91-.99,2.09-1.9,3.45-2.08.71-.1,1.45-.08,2.16-.16.86-.08,1.71-.2,2.57-.27,1.29-.09,2.71-.18,3.81.62.68.5,1.04,1.53,1.85,1.84.62.25,1.37-.09,1.94-.35.58-.26,1.13-.57,1.68-.86,1.23-.63,2.05-1.52,2.85-2.63.56-.76.92-1.65,1.51-2.39.64-.82,1.46-1.03,2.48-.95.7.05,1.4.19,2.1.19s1.42-.12,2.11-.21c1.42-.19,2.84-.41,4.26-.3,1.34.09,2.48.55,3.59,1.29.57.38,1.1.81,1.7,1.13.59.3,1.23.46,1.88.62,1.24.32,2.57.64,3.64,1.4.59.41,1.14.73,1.84.97.51.16,1,.34,1.42.67.5.38.88.88,1.34,1.29.57.5,1.18.64,1.92.66.7,0,1.37,0,2.07.06.69.05,1.38.14,2.07.08.62-.05,1.2-.12,1.8.1.48.17.91.46,1.29.8.44.38.79.84,1.07,1.34.32.54.69.86,1.14,1.27.5.46.92.98,1.32,1.52,1.25.87,1.47,2.76,2.76,3.59.57.37.93.66,1.07,1.35.05.27.05.58.21.8.23.3.68.49.97.72,1.55,1.18,2.01,3.33,2.9,4.98.43.79.97,1.52,1.62,2.14.45.42,1.12.94,1.12,1.62Zm-.9,1.13c.13-.39.19-.79.29-1.19-.23-.61-.9-1.02-1.32-1.49-.57-.61-1.05-1.34-1.44-2.07-.48-.93-.84-1.91-1.32-2.84-.44-.87-.91-1.53-1.71-2.09-.44-.3-.81-.56-.93-1.11-.08-.37-.06-.8-.33-1.09-.21-.23-.54-.36-.78-.55-.7-.55-1.01-1.41-1.37-2.23-.87-1.07-1.61-2.25-2.68-3.16-1-.84-1.45-2.11-2.63-2.79-.72-.42-1.36-.37-2.17-.27-.79.1-1.6,0-2.39-.07-1.23-.1-2.63.18-3.7-.58-.48-.34-.85-.8-1.27-1.22-.52-.49-1.1-.72-1.77-.95-1.19-.4-2.07-1.31-3.26-1.71-1.17-.39-2.42-.6-3.57-1.07-1.18-.48-2.09-1.41-3.23-1.98-2.69-1.35-5.67-.05-8.48,0-1.14.02-2.63-.65-3.7-.08-.85.46-1.17,1.52-1.66,2.28-.59.91-1.29,1.85-2.11,2.55-.87.75-2.03,1.27-3.07,1.74-.8.36-1.81.76-2.63.25-.76-.46-1.08-1.37-1.82-1.86-1.11-.71-2.59-.53-3.83-.42-.71.06-1.43.16-2.14.23-.66.06-1.32.05-1.97.12-1.4.16-2.6,1.13-3.49,2.17-.61.7-.91,1.58-1.34,2.38-.16.39-.35.79-.5,1.2-.99,2.56-.96,5.94-3.9,7.13-.69.28-1.43.43-2.09.77-.73.36-1.39.86-1.96,1.45-1.16,1.23-1.91,3.02-1.7,4.73.2,1.62,1.37,2.31,2.62,3.13.5.35,1.06.72,1.36,1.27.33.59.29,1.26.49,1.89.22.7.87,1.04,1.48,1.35.67.34,1.37.59,2.04.92.69.34,1.32.77,1.83,1.34s1,1.17,1.55,1.7c1.2,1.15,2.84,1.91,4.53,1.88.9,0,1.57-.46,2.39-.77.62-.25,1.3-.34,1.96-.21.71.15,1.36.53,1.96.91.76.49,1.52.8,2.4.98,1.74.37,3.49.75,5.24,1.04.87.15,1.86.37,2.73.12.64-.17,1.14-.59,1.59-1.07.91-.96,1.6-2.2,3.12-2.05,1.48.15,2.68,1.14,3.76,2.08,1.23,1.07,2.86,1.75,4.46,2.03.69.12,1.45.19,2.11,0,.77-.24,1.37-.75,1.98-1.26.54-.45,1.04-.95,1.65-1.31.73-.43,1.56-.52,2.35-.8.58-.21,1.07-.52,1.69-.42.8.12,1.52.41,2.33.48.87.07,1.74.05,2.61.12.72.05,1.59.39,2.29.11.04-.02.07,0,.1,0,.2-.07.4-.14.61-.17.61-.11,1.15.05,1.55.53.82.99.71,2.43,1.64,3.32.5.49.76,1.05,1.15,1.63.52.75,1.31.62,2.1.59.91-.04,1.74.24,2.64.05.77-.16,1.48-.22,2.26-.27,1.13-.08,2.16-.47,3.1-1.04.19-1.34.67-2.62,1.07-3.91.45-1.41.95-2.8,1.42-4.21.46-1.41.87-2.84,1.24-4.27.16-.64.37-1.27.58-1.9Z"/><path class="cls-1" d="m612.71,42.71c-.1.4-.16.8-.29,1.19-.21.63-.41,1.26-.58,1.9-.38,1.44-.79,2.86-1.24,4.27-.47,1.41-.97,2.8-1.42,4.21-.4,1.29-.88,2.57-1.07,3.91-.94.58-1.97.96-3.1,1.04-.78.05-1.49.11-2.26.27-.91.18-1.74-.09-2.64-.05-.8.04-1.58.16-2.1-.59-.39-.58-.65-1.13-1.15-1.63-.92-.89-.81-2.33-1.64-3.32-.4-.48-.94-.64-1.55-.53-.21.04-.41.1-.61.17-.03,0-.06-.03-.1,0-.7.28-1.56-.05-2.29-.11-.87-.06-1.74-.05-2.61-.12-.81-.07-1.54-.37-2.33-.48-.62-.1-1.12.21-1.69.42-.79.28-1.62.38-2.35.8-.6.36-1.11.86-1.65,1.31-.6.51-1.21,1.02-1.98,1.26-.67.2-1.43.13-2.11,0-1.6-.28-3.23-.96-4.46-2.03-1.08-.93-2.28-1.93-3.76-2.08-1.52-.16-2.2,1.09-3.12,2.05-.45.48-.95.9-1.59,1.07-.87.25-1.86.03-2.73-.12-1.75-.29-3.5-.68-5.24-1.04-.88-.18-1.64-.48-2.4-.98-.59-.38-1.24-.77-1.96-.91-.66-.13-1.34-.04-1.96.21-.81.31-1.49.76-2.39.77-1.68.03-3.33-.73-4.53-1.88-.55-.53-1.03-1.13-1.55-1.7s-1.14-1-1.83-1.34c-.67-.33-1.37-.59-2.04-.92-.61-.31-1.26-.66-1.48-1.35-.2-.63-.16-1.31-.49-1.89-.3-.55-.86-.92-1.36-1.27-1.24-.82-2.41-1.51-2.62-3.13-.21-1.71.54-3.5,1.7-4.73.57-.59,1.23-1.1,1.96-1.45.67-.34,1.41-.48,2.09-.77,2.94-1.2,2.91-4.57,3.9-7.13.16-.41.34-.8.5-1.2.44-.8.73-1.67,1.34-2.38.9-1.03,2.09-2.01,3.49-2.17.65-.06,1.31-.05,1.97-.12.71-.07,1.43-.16,2.14-.23,1.24-.11,2.73-.29,3.83.42.74.48,1.06,1.4,1.82,1.86.82.51,1.83.11,2.63-.25,1.04-.47,2.2-.99,3.07-1.74.82-.7,1.53-1.65,2.11-2.55.49-.76.81-1.82,1.66-2.28,1.07-.57,2.56.1,3.7.08,2.81-.05,5.79-1.35,8.48,0,1.13.58,2.05,1.5,3.23,1.98,1.14.47,2.4.68,3.57,1.07,1.19.4,2.07,1.31,3.26,1.71.67.23,1.24.46,1.77.95.42.41.79.88,1.27,1.22,1.07.76,2.48.48,3.7.58.79.06,1.6.17,2.39.07.8-.09,1.45-.15,2.17.27,1.17.68,1.63,1.95,2.63,2.79,1.07.91,1.81,2.09,2.68,3.16.37.82.68,1.68,1.37,2.23.24.19.57.32.78.55.27.29.25.72.33,1.09.12.55.49.8.93,1.11.8.56,1.27,1.22,1.71,2.09.48.92.84,1.9,1.32,2.84.38.73.87,1.45,1.44,2.07.42.47,1.09.88,1.32,1.49Z"/><path class="cls-1" d="m689.4,91.1c0,.71-.05,1.5-.45,2.12-.45.69-1.26,1.08-1.95,1.48-.9.52-1.84.97-2.81,1.31-.91.31-1.91.8-2.88.8-.88,0-1.59-.5-2.33-.91-.92-.5-1.98-.64-3-.81-.95-.16-1.87-.38-2.75-.78-.55-.25-1.03-.6-1.14-1.23-.16-.97.4-1.92.19-2.92-.22-.98-.83-1.81-1.02-2.8-.16-.91-.07-1.78-1.11-2.16-.4-.15-.82-.23-1.21-.44-.39-.21-.74-.51-1.11-.77-.74-.51-1.61-.73-2.38-1.2-.74-.45-1.26-1.21-2.04-1.59-.76-.38-1.63-.5-2.43-.72-.75-.2-1.54-.57-1.71-1.39-.07-.4.02-.8,0-1.2-.03-.44-.21-.82-.44-1.19-.26-.4-.58-.77-.93-1.1-.08-.07-.34-.34-.58-.5-.05.16-.33.16-.37-.02,0,0,0-.03,0-.04-.1.02-.22-.04-.21-.16v-.06c-.02-.11.04-.21.14-.24h.03c-.05-.77.12-1.58.26-2.31.2-1,.48-1.98.67-2.97.2-1.04.36-2.09.59-3.14.19-.9.3-1.83.61-2.71.34-.97.94-1.83,1.51-2.68.54-.81,1.05-1.67,1.66-2.44.51-.64.85-1.17,1.08-1.95.05-.16.1-.38.18-.58-.07-.16-.05-.35.11-.5.45-.4,1.14-.4,1.71-.41.67-.02,1.53.12,2.1-.3.35-.26.56-.65.8-.99.23-.33.48-.65.74-.95.99-1.17,2.45-2.2,4.01-1.51.64.27,1.16.75,1.67,1.2.64.54,1.31.89,2.02,1.33,1.57.96,2.54,2.41,3.7,3.8,1.23,1.46,2.95,2.16,4.43,3.3,1.14.89,1.81,2.2,2,3.63.2,1.48-.07,3.01-.64,4.38-.3.75-.77,1.38-1.13,2.1-.48,1-.04,2.05.36,3.01.41,1.02.6,2.12,1.14,3.08.48.88,1.01,1.73,1.49,2.6.46.83.9,1.68,1.16,2.6.28.99.21,1.94.14,2.95-.08,1.14-.16,2.29-.1,3.43.04.85.19,1.7.21,2.55Zm-.82-5.31c.06-1.06.26-2.13,0-3.17-.45-1.83-1.66-3.49-2.62-5.09-.5-.84-.74-1.74-1.04-2.66-.3-.91-.77-1.76-.87-2.72-.1-.89.25-1.58.7-2.31.39-.64.71-1.3.94-2,.44-1.38.58-2.92.13-4.31-.54-1.71-1.93-2.47-3.36-3.37-.69-.43-1.36-.9-1.96-1.45-.68-.63-1.19-1.38-1.77-2.09-.5-.62-1.04-1.23-1.66-1.74-.67-.54-1.45-.84-2.14-1.34-1.06-.75-2.11-2.23-3.58-1.81-.91.26-1.55,1.01-2.12,1.71-.46.57-.81,1.31-1.42,1.75-.52.38-1.14.44-1.77.48-.48.04-1.39-.03-1.77.32-.05.04-.08.05-.13.07-.12.36-.21.8-.35,1.16-.25.69-.76,1.2-1.2,1.76-.62.79-1.14,1.67-1.7,2.5-.54.81-1.09,1.64-1.39,2.58-.56,1.77-.75,3.68-1.12,5.5-.18.92-.44,1.84-.63,2.76-.16.78-.22,1.56-.35,2.34.38.18.8.56,1.02.75.55.48,1.06,1.07,1.34,1.75.3.73-.11,1.83.65,2.29.69.43,1.64.48,2.41.71.79.24,1.42.58,2.01,1.14.64.6,1.3,1,2.11,1.32.81.31,1.45.83,2.18,1.31.69.45,1.6.44,2.2,1.02.54.5.59,1.22.7,1.9.13.97.65,1.78.96,2.69.33.95.15,1.88,0,2.84-.06.35-.1.66.19.9.26.2.6.32.91.43.94.37,1.96.47,2.95.65.9.16,1.75.41,2.54.87.41.24.81.53,1.28.66.48.15.96.04,1.43-.11,1.92-.61,3.74-1.34,5.46-2.4,1.46-.91.94-2.85.82-4.27-.09-1.11-.05-2.21.02-3.32Z"/><path class="cls-1" d="m688.58,82.62c.26,1.04.06,2.11,0,3.17-.07,1.11-.11,2.21-.02,3.32.12,1.42.64,3.37-.82,4.27-1.72,1.06-3.54,1.78-5.46,2.4-.47.15-.95.26-1.43.11-.47-.13-.87-.42-1.28-.66-.8-.46-1.65-.7-2.54-.87-.99-.18-2-.28-2.95-.65-.3-.11-.65-.23-.91-.43-.29-.24-.26-.55-.19-.9.16-.96.34-1.88,0-2.84-.31-.91-.83-1.72-.96-2.69-.1-.69-.16-1.4-.7-1.9-.6-.59-1.52-.58-2.2-1.02-.72-.48-1.36-1-2.18-1.31-.81-.32-1.47-.71-2.11-1.32-.59-.57-1.23-.91-2.01-1.14-.77-.23-1.72-.28-2.41-.71-.76-.46-.35-1.55-.65-2.29-.27-.68-.79-1.27-1.34-1.75-.22-.19-.64-.57-1.02-.75.13-.78.18-1.56.35-2.34.19-.92.45-1.84.63-2.76.37-1.82.56-3.72,1.12-5.5.3-.94.85-1.77,1.39-2.58.56-.82,1.08-1.71,1.7-2.5.44-.56.95-1.07,1.2-1.76.14-.37.23-.8.35-1.16.05-.02.08-.04.13-.07.38-.35,1.29-.28,1.77-.32.63-.05,1.25-.11,1.77-.48.6-.44.96-1.18,1.42-1.75.57-.7,1.22-1.45,2.12-1.71,1.46-.42,2.52,1.06,3.58,1.81.69.49,1.47.8,2.14,1.34.62.51,1.16,1.12,1.66,1.74.58.71,1.09,1.46,1.77,2.09.59.55,1.27,1.02,1.96,1.45,1.43.9,2.82,1.66,3.36,3.37.45,1.39.31,2.93-.13,4.31-.23.7-.55,1.36-.94,2-.46.72-.8,1.42-.7,2.31.1.96.57,1.81.87,2.72.3.92.54,1.82,1.04,2.66.95,1.6,2.17,3.27,2.62,5.09Z"/><path class="cls-1" d="m706.8,115.7c.34.8.38,1.67.31,2.52-.07,1.01-.15,2.02-.26,3.03-.18,1.72-.56,3.38-1.37,4.91-.39.73-.88,1.45-1.49,2.01-.59.56-1.32.95-1.87,1.55-.53.58-.94,1.25-1.56,1.75-.41.33-.85.5-1.33.59,0,.11,0,.21-.02.32-.08.51-.78.39-.91,0-.27-.76-.43-1.52-.8-2.26-.39-.77-.86-1.5-1.29-2.26-.95-1.68-1.55-3.53-2.35-5.3-.83-1.87-1.94-3.47-3.38-4.92-.72-.73-1.51-1.41-2.27-2.1-.37-.35-.72-.7-1.12-1.01-.17-.13-.34-.26-.48-.39,0,0,0,.02-.02.03-.12.21-.48.06-.39-.16.03-.07.05-.16.08-.23-.07-.12,0-.25.11-.3.25-.69.49-1.37.87-2.01.49-.83,1.15-1.42,1.97-1.92.99-.62,1.9-1.33,2.8-2.07.7-.57,1.36-1.18,2.15-1.62,1.36-.77,3.08-.96,4.56-.38.69.27,1.3.68,1.85,1.16.38.35.74.69,1.15,1,.31.23.63.46.91.73.44.44.67,1.15,1.19,1.49.58.38,1.32.41,1.81.93.57.59.38,1.42.32,2.15-.05.59,0,1.09.26,1.63.18.38.41.74.59,1.13Zm-.46,3.81c.07-.87.21-1.74.11-2.61-.11-.86-.6-1.52-.92-2.3-.33-.83-.17-1.58-.13-2.44.05-1-.57-1.2-1.38-1.52-.46-.17-.8-.41-1.09-.82-.46-.65-.87-1.16-1.52-1.65-1.24-.93-2.2-2.13-3.84-2.36-1.64-.24-3.06.42-4.3,1.43-.66.53-1.29,1.07-1.96,1.58-.7.54-1.44,1.01-2.17,1.5-1.2.81-1.66,2.1-2.28,3.34.7.46,1.33.99,1.97,1.56.8.7,1.61,1.4,2.35,2.15,1.45,1.47,2.56,3.12,3.42,4.99.85,1.87,1.55,3.79,2.64,5.53.45.73.91,1.46,1.31,2.23.16.33.35.68.48,1.04.49-.25.96-.54,1.35-.9.62-.56,1.1-1.2,1.78-1.7.7-.51,1.39-.95,1.93-1.64.55-.7.98-1.52,1.31-2.34.63-1.63.79-3.37.92-5.09Z"/><path class="cls-1" d="m706.45,116.91c.1.87-.04,1.74-.11,2.61-.14,1.72-.29,3.46-.92,5.09-.33.82-.76,1.64-1.31,2.34-.54.69-1.23,1.13-1.93,1.64-.69.5-1.16,1.14-1.78,1.7-.39.36-.86.65-1.35.9-.14-.37-.32-.71-.48-1.04-.4-.77-.86-1.5-1.31-2.23-1.09-1.75-1.79-3.67-2.64-5.53-.86-1.87-1.98-3.51-3.42-4.99-.74-.75-1.55-1.45-2.35-2.15-.64-.58-1.26-1.11-1.97-1.56.61-1.23,1.08-2.52,2.28-3.34.73-.49,1.46-.96,2.17-1.5.67-.51,1.3-1.05,1.96-1.58,1.23-1.01,2.66-1.66,4.3-1.43,1.64.23,2.6,1.43,3.84,2.36.65.48,1.06,1,1.52,1.65.28.41.63.65,1.09.82.81.32,1.44.52,1.38,1.52-.05.86-.2,1.61.13,2.44.32.78.81,1.44.92,2.3Z"/><path class="cls-1" d="m661.87,128.96c.4,1.51,1.29,3.05,1.11,4.66-.17,1.53-1.26,2.73-1.98,4.05-.4.75-.58,2.03-1.25,2.66-.04.06-.08.12-.15.16-.05.03-.12.05-.17.06t-.02,0s-.02,0-.03,0c-.43.16-.9.18-1.34.26-.51.08-1.02.1-1.53.15-1.22.09-2.41.32-3.61.55-1.04.19-2.09.39-3.12.66-1.01.27-1.98.67-2.97.97-1.88.57-3.84.74-5.72.02-1.74-.67-3.11-1.88-4.69-2.84-.79-.47-1.66-.83-2.55-1.03-.84-.18-1.62-.14-2.46-.05.05.05.09.11.15.16.2.16-.07.5-.28.36-.34-.23-.55-.71-.75-1.05-.88-1.47-1.88-2.92-3.06-4.15-1.06-1.09-2.33-1.89-3.12-3.22-.37-.61-.61-1.28-.94-1.91-.31-.59-.7-1.13-.95-1.76-.56-1.41.04-2.69,1.04-3.7.57-.58.95-1.23,1.34-1.94.38-.67.7-1.36.83-2.12.15-.85.1-1.73.11-2.59,0-.96-.03-1.89-.14-2.84-.16-1.34.08-2.94.88-4.05.67-.94,1.72-1.48,2.8-1.78,1.2-.35,2.48-.43,3.72-.41.61,0,1.22.08,1.83.1.91.03,1.77-.21,2.64-.4.77-.17,1.53-.34,2.3-.14.7.17,1.32.57,1.91.94.7.45,1.43.83,2.09,1.34.71.54,1.34.97,2.19,1.26,1.59.56,3.32,1.02,4.77,1.88,1.48.88,2.83,2.03,4.02,3.26,1.15,1.17,2.34,2.5,3.18,3.91.41.69.25,1.43.5,2.14.27.73.9,1.36,1.32,2.01s.97,1.23,1.31,1.93c.38.77.59,1.67.8,2.5Zm.13,5.21c.27-.89.09-1.73-.18-2.59-.26-.77-.59-1.51-.78-2.3-.23-.9-.4-1.9-.8-2.74-.36-.72-.93-1.4-1.39-2.07-.44-.65-1.02-1.23-1.18-2.02-.08-.4-.05-.81-.15-1.21-.1-.4-.35-.72-.58-1.06-.42-.61-.87-1.21-1.35-1.77-1.05-1.25-2.22-2.42-3.51-3.43-.7-.55-1.44-1.08-2.24-1.48-.74-.38-1.55-.62-2.33-.89-.72-.25-1.44-.5-2.14-.77-.65-.25-1.17-.6-1.72-1.03-.69-.53-1.42-.95-2.15-1.42-.59-.38-1.2-.8-1.89-.98-.86-.22-1.77.09-2.62.28-.67.15-1.35.27-2.05.27-2.33-.03-4.88-.4-6.98.92-1.15.73-1.63,2.03-1.74,3.35-.06.8.09,1.58.14,2.39.05.85.02,1.7,0,2.55-.02,1.35-.17,2.54-.8,3.76-.33.64-.68,1.31-1.13,1.88-.45.59-1.1,1.03-1.41,1.73-.67,1.49.48,2.67,1.06,3.94.56,1.22,1.13,2.3,2.16,3.17,1.24,1.08,2.37,2.21,3.31,3.58.45.64.88,1.31,1.26,1.98.11.2.22.47.35.7,1.61-.78,3.86-.06,5.32.73,1.69.91,3.13,2.23,4.97,2.88,2.06.72,4.11.26,6.11-.44,1.03-.36,2.06-.73,3.12-1.02,1.02-.28,2.08-.47,3.11-.69,1.04-.22,2.07-.4,3.13-.48.7-.05,1.58-.37,2.3-.22.31-.36.5-1.05.63-1.4.25-.67.58-1.27.96-1.88.45-.71.93-1.43,1.18-2.25Z"/><path class="cls-1" d="m661.82,131.58c.27.86.45,1.7.18,2.59-.25.82-.73,1.54-1.18,2.25-.38.6-.71,1.21-.96,1.88-.13.35-.32,1.04-.63,1.4-.71-.15-1.6.17-2.3.22-1.06.07-2.09.26-3.13.48-1.03.22-2.09.4-3.11.69-1.06.28-2.09.66-3.12,1.02-2,.7-4.05,1.16-6.11.44-1.84-.65-3.27-1.98-4.97-2.88-1.46-.8-3.71-1.51-5.32-.73-.13-.24-.24-.5-.35-.7-.38-.68-.81-1.34-1.26-1.98-.94-1.36-2.07-2.5-3.31-3.58-1.02-.88-1.6-1.96-2.16-3.17-.59-1.27-1.73-2.45-1.06-3.94.31-.7.96-1.14,1.41-1.73.45-.57.8-1.23,1.13-1.88.62-1.22.78-2.41.8-3.76,0-.85.04-1.7,0-2.55-.05-.8-.2-1.58-.14-2.39.11-1.32.59-2.62,1.74-3.35,2.09-1.33,4.65-.95,6.98-.92.7,0,1.38-.12,2.05-.27.84-.19,1.76-.5,2.62-.28.7.17,1.3.6,1.89.98.73.47,1.46.89,2.15,1.42.55.43,1.07.79,1.72,1.03.7.27,1.42.52,2.14.77.79.27,1.59.51,2.33.89.8.4,1.54.93,2.24,1.48,1.29,1.01,2.46,2.18,3.51,3.43.48.57.93,1.16,1.35,1.77.23.34.48.66.58,1.06.09.39.06.8.15,1.21.16.79.74,1.37,1.18,2.02.46.67,1.03,1.34,1.39,2.07.4.84.58,1.85.8,2.74.19.79.52,1.53.78,2.3Z"/><path class="cls-1" d="m541.77,113.97c.05.39.05.8.03,1.19-.09,1.55-.32,3.15-1.03,4.54-.34.66-.84,1.21-1.16,1.88-.32.66-.56,1.34-.97,1.95-.75,1.1-1.83,1.95-3.19,2.04-.79.05-1.54-.19-2.32-.23-.76-.04-1.67.11-2.32.53-.52.33-.98.71-1.63.64-.65-.06-1.29-.48-1.88-.72-.64-.25-1.23-.65-1.88-.85-.47-.14-.98-.15-1.41-.38-.43-.22-.52-.57-.41-1.02.13-.53.25-1.13.5-1.61.54-.98,1.82-1.88,1.88-3.06.06-1.48-1.96-2.22-3.05-2.66-1.18-.48-2.09-1.26-2.82-2.31-.44-.64-.8-1.33-1.13-2.03-.34-.7-.62-1.39-1.18-1.96-.45-.46-1.08-.82-1.4-1.38-.18-.31-.18-.66-.18-1-.1-.4.13-.91.27-1.25.23-.58.54-1.16,1.03-1.55.68-.52,1.59-.8,2.35-1.18.75-.38,1.49-.65,2.32-.8.82-.14,1.67-.17,2.47.09.75.25,1.43.68,2.17.93,1.8.61,3.66-.39,5.47-.06.66.12,1.24.46,1.79.81.68.44,1.34.84,2.08,1.19.68.32,1.45.6,2.03,1.09.57.46.93,1.06,1.56,1.47,1.02.66,2.09,1.19,1.98,2.59-.04.63-.31,1.27-.25,1.91.04.4.2.8.27,1.21Zm-1.49,4.78c.58-1.34.91-3.02.79-4.46-.06-.74-.37-1.35-.27-2.1.07-.53.26-1.07.23-1.61-.03-.72-.61-1.06-1.17-1.41-.48-.29-.95-.59-1.34-1-.24-.25-.42-.54-.68-.77-.31-.29-.72-.47-1.09-.66-.61-.31-1.23-.62-1.81-.96-.59-.35-1.14-.78-1.75-1.11-.66-.37-1.29-.47-2.04-.4-1.4.11-2.92.52-4.3.1-.59-.18-1.14-.48-1.7-.75-.72-.34-1.4-.49-2.2-.44-1.55.11-2.87.85-4.25,1.48-.75.35-1.2.73-1.59,1.46-.08.15-.25.42-.37.7.08.05.15.15.16.27.03.28-.04.6.04.87.08.34.41.56.66.78.52.46,1.04.92,1.4,1.53.81,1.34,1.23,2.85,2.35,4.02.96,1.02,2.23,1.23,3.38,1.9,1.01.59,2.06,1.54,1.98,2.81-.07,1.07-.85,1.87-1.45,2.68-.2.27-.43.55-.55.87-.08.23-.08.48-.13.7-.05.18-.09.36-.14.53.02,0,.03,0,.05,0,.09,0,.22.06.3.08.45.11.88.17,1.3.36.63.27,1.25.55,1.88.82s1.17.8,1.85.41c.48-.28.88-.59,1.42-.75.67-.2,1.39-.32,2.09-.28.71.04,1.47.27,2.19.11,1.21-.29,2.06-1.23,2.62-2.3.35-.65.63-1.3,1.08-1.88.39-.52.81-1.01,1.08-1.6Z"/><path class="cls-1" d="m541.07,114.29c.12,1.45-.21,3.13-.79,4.46-.27.59-.69,1.08-1.08,1.6-.45.59-.73,1.23-1.08,1.88-.56,1.06-1.41,2-2.62,2.3-.71.16-1.47-.07-2.19-.11-.7-.04-1.42.08-2.09.28-.54.16-.93.47-1.42.75-.68.39-1.23-.14-1.85-.41s-1.24-.55-1.88-.82c-.42-.18-.85-.25-1.3-.36-.08-.02-.21-.08-.3-.08-.03,0-.04,0-.05,0,.05-.17.09-.35.14-.53.05-.23.05-.48.13-.7.12-.32.35-.6.55-.87.6-.81,1.38-1.61,1.45-2.68.08-1.27-.97-2.21-1.98-2.81-1.15-.68-2.42-.89-3.38-1.9-1.12-1.16-1.54-2.67-2.35-4.02-.36-.6-.88-1.07-1.4-1.53-.25-.22-.58-.44-.66-.78-.07-.27,0-.59-.04-.87,0-.12-.07-.21-.16-.27.12-.27.28-.55.37-.7.39-.73.84-1.12,1.59-1.46,1.38-.63,2.7-1.37,4.25-1.48.8-.05,1.47.1,2.2.44.56.27,1.11.57,1.7.75,1.38.42,2.9,0,4.3-.1.75-.06,1.38.04,2.04.4.6.33,1.15.76,1.75,1.11.59.34,1.2.65,1.81.96.37.19.78.37,1.09.66.26.23.44.52.68.77.39.41.87.7,1.34,1,.56.35,1.14.69,1.17,1.41.03.54-.16,1.08-.23,1.61-.1.75.2,1.36.27,2.1Z"/></svg>