<?xml version="1.0" encoding="UTF-8"?><svg id="Tree_09_-_Leaves_03" xmlns="http://www.w3.org/2000/svg" viewBox="0 0 1160 418.25"><defs><style>.cls-1{fill:#a2c81b;stroke-width:0px;}</style></defs><path class="cls-1" d="m627.77,110.04c.2.22,0,.57-.25.54-.18.75-.46,1.47-.54,2.25-.12,1.05,0,2.11.14,3.16.26,1.99.1,3.95-.61,5.85-.31.81-.7,1.61-1.23,2.31-.46.59-1.04,1.17-1.3,1.89-.32.91.22,1.79.64,2.57.2.38.37.82.64,1.14.2.24.47.38.68.59.11.03.19.12.19.25.17.34-.03.63-.32.72-.24.48-.48.96-.72,1.45-.34.69-.75,1.24-1.32,1.77-.48.44-1.05.9-1.28,1.53-.19.53-.07,1.14-.37,1.64-.27.46-.8.67-1.24.9-.53.27-1.08.51-1.65.69-.68.2-1.37.22-2.08.3-.65.07-1.31.16-1.97.05-1.25-.2-2.3-.97-3.32-1.66-.56-.38-1.11-.68-1.78-.79-.62-.1-1.24-.04-1.87-.04-1.3,0-2.45-.58-3.7-.85-.91-.2-1.98-.33-2.63-1.07-.72-.8-.82-2.03-.93-3.06-.07-.7-.17-1.41-.3-2.11-.06-.38-.09-.93-.29-1.3-.15-.04-.25-.22-.16-.36-.09-.1-.13-.25-.05-.4.05-.11.11-.16.21-.23.05-.03.12-.04.18-.02.77-.36,1.47-.81,2.25-1.16.8-.36,1.59-.75,1.8-1.67.19-.85.17-1.78.27-2.65.12-1.04.31-2.07.38-3.11.06-1.07.05-2.15.18-3.22.13-1.01.49-1.97.6-2.97.1-.97-.2-1.58-.83-2.29-.29-.33-.73-1.09-1.19-1.19-.05,0-.07-.03-.09-.06-.02,0-.03,0-.04.02-.1.04-.21-.1-.15-.19.56-.78,1.45-1.52,2.33-1.92.99-.46,1.92-.82,2.81-1.48,1.34-.99,2.7-2.03,4.46-1.92,1.07.07,2.11.35,3.19.38,1.06.04,2.1-.06,3.16-.09,1.68-.05,3.48.44,4.55,1.8.56.7.93,1.51,1.4,2.28.3.48.65.88,1.14,1.15.35.18.7.33.98.61Zm-1.14,1.54c.1-.38.19-.89.47-1.21-.31-.17-.63-.33-.92-.53-.38-.27-.68-.61-.93-1-.55-.82-.91-1.77-1.54-2.54-1.2-1.5-3.23-1.58-4.99-1.48-1,.05-2.01.07-3.01,0-.98-.09-1.94-.41-2.93-.35-1.72.13-2.97,1.49-4.37,2.34-.8.48-1.71.68-2.52,1.12-.55.29-.95.82-1.45,1.2.31.09.58.39.78.61.44.47.94.93,1.24,1.5.79,1.53-.16,3.32-.33,4.88-.12,1.03-.1,2.09-.17,3.13-.05.97-.24,1.93-.35,2.9-.08.8-.12,1.62-.21,2.43-.08.67-.27,1.29-.78,1.76-.56.52-1.27.78-1.94,1.1-.61.28-1.19.8-1.85,1,.22.29.3.67.38,1.02.12.64.24,1.29.33,1.94.15,1.13.09,2.9,1.14,3.62.79.53,1.89.48,2.78.76.63.19,1.25.41,1.89.53.64.11,1.27.05,1.91.05,1.18,0,2.13.33,3.11.96,1.02.67,2.09,1.47,3.36,1.54.7.04,1.39-.11,2.08-.16.7-.06,1.32-.21,1.97-.48.49-.2,1.38-.47,1.69-.91.26-.36.17-.89.28-1.29.28-1.06,1.23-1.64,1.92-2.41.67-.76.93-1.72,1.48-2.53-.21-.27-.48-.5-.69-.79-.25-.34-.4-.73-.59-1.11-.38-.72-.79-1.47-.86-2.3-.11-1.3.84-2.25,1.58-3.2,1-1.27,1.5-2.87,1.77-4.45.31-1.79-.11-3.55-.05-5.34.02-.79.14-1.54.33-2.3Z"/><path class="cls-1" d="m627.09,110.37c-.27.32-.37.82-.47,1.21-.19.76-.31,1.51-.33,2.3-.06,1.79.36,3.55.05,5.34-.27,1.58-.77,3.18-1.77,4.45-.74.95-1.69,1.9-1.58,3.2.07.82.48,1.57.86,2.3.19.38.35.77.59,1.11.21.28.48.51.69.79-.55.81-.81,1.77-1.48,2.53-.69.77-1.64,1.34-1.92,2.41-.11.4-.03.93-.28,1.29-.31.45-1.2.71-1.69.91-.65.27-1.27.41-1.97.48-.69.05-1.38.2-2.08.16-1.26-.06-2.33-.87-3.36-1.54-.98-.63-1.93-.97-3.11-.96-.64,0-1.27.06-1.91-.05-.64-.12-1.26-.34-1.89-.53-.89-.27-1.99-.23-2.78-.76-1.05-.72-1-2.5-1.14-3.62-.09-.65-.21-1.3-.33-1.94-.07-.36-.16-.73-.38-1.02.66-.19,1.23-.71,1.85-1,.67-.32,1.38-.58,1.94-1.1.5-.47.7-1.09.78-1.76.09-.81.13-1.63.21-2.43.11-.97.29-1.93.35-2.9.07-1.04.05-2.09.17-3.13.16-1.56,1.12-3.36.33-4.88-.3-.57-.8-1.03-1.24-1.5-.2-.22-.47-.52-.78-.61.5-.38.91-.91,1.45-1.2.81-.44,1.73-.63,2.52-1.12,1.4-.85,2.65-2.21,4.37-2.34.99-.06,1.95.26,2.93.35,1,.08,2.01.05,3.01,0,1.77-.1,3.8-.02,4.99,1.48.63.78.99,1.72,1.54,2.54.26.38.56.73.93,1,.29.2.61.36.92.53Z"/><path class="cls-1" d="m687.48,158.02c.8,2.28.44,4.53-.06,6.83-.24,1.06-.6,2.08-.89,3.13-.27,1.02-.54,2.37.14,3.28.15.32-.23.66-.51.39,0,0,0-.02-.02-.03-.37.45-1.09.74-1.52.93-.97.45-1.8,1-2.69,1.59-.46.31-.94.59-1.46.77-.59.2-1.15.17-1.77.15-.76-.05-1.51,0-2.21.35-.16.07-.32.2-.49.28-.06.17-.23.32-.46.27-.33-.07-.5-.46-.64-.71-.24-.44-.45-.9-.64-1.35-.45-1.09-.76-2.21-.92-3.38-.16-1.21-.22-2.39-.52-3.58-.29-1.14-.69-2.27-1.09-3.37-.28-.77-.66-1.42-1.33-1.9-.82-.59-1.74-1.04-2.57-1.63-1.62-1.13-2.62-2.57-3.4-4.37-.8-1.81-1.73-3.68-2.05-5.65-.16-1.02-.16-2.05.02-3.07.1-.57.25-1.13.21-1.71-.03-.54-.22-1.08-.41-1.57-.71-1.87-2.09-3.51-2.4-5.52-.16-1,.09-1.97.28-2.95.24-1.18.48-2.37.51-3.58.06-2.19-.79-4.1-2.1-5.81-.5-.66-.82-1.35-.99-2.17-.11-.56-.06-1.18-.16-1.74t-.02,0c-.08-.09-.11-.2-.11-.32,0-.05,0-.08,0-.13v-.04h0s.02-.06.04-.08c.18-.52.85-1.09,1.14-1.27.79-.5,1.76-.7,2.68-.8,1.84-.22,3.8-.16,5.64.03,0,0,.03,0,.05,0h.04s.05,0,.08,0c.27.11.33.53,0,.61-.05,0-.11,0-.17.02-.04.27-.02.7-.02.84-.02.33-.03.65-.07.97-.16,1.28-.89,2.37-1.16,3.61-.27,1.27,0,2.6.41,3.81.38,1.03.84,1.75,1.72,2.41.59.43,1.21.82,1.72,1.34.55.55.8,1.17.93,1.92.15.8.28,1.39,1.03,1.84,1.01.59,2.05,1.1,3.02,1.74.63.41,1.23.85,1.6,1.52.49.91.8,2.03,1.1,3.03.58,1.93.96,3.81,2.37,5.35.74.8,1.63,1.46,2.41,2.21.76.74,1.49,1.52,2.14,2.36.66.84,1.31,1.65,2.01,2.44.71.8,1.2,1.7,1.55,2.71Zm-.83,6.95c.3-1.41.6-2.84.55-4.3-.06-1.36-.5-2.8-1.23-3.95-.57-.91-1.44-1.59-2.07-2.45-.7-.94-1.43-1.84-2.24-2.68-1.45-1.51-3.2-2.71-4.17-4.61-.44-.88-.74-1.81-.98-2.76-.29-1.16-.66-2.31-1.08-3.44-.32-.85-.91-1.31-1.66-1.79-1.01-.66-2.15-1.15-3.13-1.86-.6-.43-.9-.99-1.02-1.7-.16-.83-.27-1.5-.9-2.1-.56-.53-1.23-.93-1.82-1.41-.64-.51-1.08-1.1-1.38-1.86-.4-1.03-.7-2.12-.73-3.24-.04-1.14.32-2.09.74-3.14.39-.94.62-1.84.7-2.85.02-.23,0-.59.07-.91-.15-.02-.29-.04-.42-.05-.41-.03-.82-.05-1.23-.08-.99-.05-1.97-.08-2.95-.02-.92.06-1.89.2-2.73.6-.34.16-.66.37-.91.66-.14.16-.24.45-.37.66.26.54.21,1.24.34,1.8.23,1.05.76,1.73,1.38,2.58,1.31,1.8,1.92,3.96,1.77,6.18-.08,1.09-.27,2.16-.48,3.23-.2,1.13-.39,2.17-.05,3.28.59,1.91,1.93,3.5,2.49,5.44.29,1.02.13,1.91-.04,2.94-.18,1.12-.14,2.25.12,3.36.24,1.05.67,2.02,1.09,3.02.38.86.71,1.74,1.13,2.58.4.83.89,1.64,1.55,2.3.78.78,1.75,1.36,2.69,1.93.68.4,1.4.8,1.91,1.41.49.58.76,1.28,1.02,1.98.37,1,.72,1.99.99,3.02.27,1,.38,1.98.48,2.99.11,1.06.33,2.11.67,3.12.18.54.4,1.06.64,1.58.08.16.16.32.24.48l.14.25s.05.06.05.07c.66-.45,1.38-.73,2.21-.77.62-.04,1.26.09,1.89-.03.54-.11,1.03-.37,1.5-.65.86-.52,1.65-1.13,2.56-1.53.68-.3,1.29-.61,1.82-1.11-.36-.77-.24-1.81-.1-2.6.21-1.22.69-2.37.94-3.58Z"/><path class="cls-1" d="m687.2,160.67c.05,1.45-.25,2.89-.55,4.3-.26,1.21-.73,2.36-.94,3.58-.14.79-.26,1.83.1,2.6-.53.49-1.14.8-1.82,1.11-.91.4-1.7,1.01-2.56,1.53-.47.28-.96.54-1.5.65-.63.12-1.27,0-1.89.03-.83.04-1.55.32-2.21.77,0,0-.03-.03-.05-.07l-.14-.25c-.08-.16-.16-.33-.24-.48-.24-.52-.46-1.04-.64-1.58-.34-1.01-.56-2.06-.67-3.12-.11-1.02-.22-1.99-.48-2.99-.27-1.02-.62-2.02-.99-3.02-.26-.7-.52-1.4-1.02-1.98-.51-.61-1.23-1.01-1.91-1.41-.94-.57-1.91-1.15-2.69-1.93-.66-.66-1.14-1.46-1.55-2.3-.41-.84-.75-1.72-1.13-2.58-.42-1-.85-1.97-1.09-3.02-.26-1.11-.3-2.24-.12-3.36.16-1.02.33-1.92.04-2.94-.56-1.94-1.89-3.53-2.49-5.44-.35-1.12-.16-2.15.05-3.28.2-1.07.39-2.14.48-3.23.16-2.22-.46-4.38-1.77-6.18-.62-.85-1.15-1.53-1.38-2.58-.13-.56-.08-1.26-.34-1.8.13-.21.23-.5.37-.66.25-.29.57-.49.91-.66.83-.4,1.8-.54,2.73-.6.98-.06,1.96-.04,2.95.02.4.03.81.05,1.23.08.13,0,.27.03.42.05-.06.32-.05.69-.07.91-.07,1.02-.3,1.91-.7,2.85-.42,1.04-.78,1.99-.74,3.14.04,1.12.33,2.2.73,3.24.3.76.74,1.34,1.38,1.86.59.48,1.26.88,1.82,1.41.62.6.74,1.27.9,2.1.13.71.42,1.27,1.02,1.7.98.7,2.12,1.2,3.13,1.86.75.48,1.34.94,1.66,1.79.42,1.13.79,2.28,1.08,3.44.24.95.54,1.88.98,2.76.97,1.9,2.73,3.1,4.17,4.61.81.84,1.55,1.74,2.24,2.68.63.86,1.5,1.55,2.07,2.45.73,1.15,1.17,2.59,1.23,3.95Z"/><path class="cls-1" d="m677.23,93.38c.21.28.03.63-.25.78-.07.13-.15.25-.18.34-.25.52-.27,1.04-.33,1.6-.15,1.14-.48,2.23-1.45,2.95-.82.6-1.81.97-2.69,1.49-.92.53-1.85,1.06-2.86,1.4-.81.27-1.74.42-2.57.1-.4-.16-.68-.42-.99-.71-.43-.4-.85-.45-1.43-.46-1.16-.03-2.35.08-3.51-.07-1.13-.15-2.2-.58-3.25-1.02-.59-.26-1.19-.55-1.81-.76-.57-.19-1.17-.27-1.77-.38-1.06-.2-1.92-.61-2.71-1.38-.41-.4-.79-.88-1.27-1.21-.4-.27-.86-.44-1.33-.58-1.01-.29-1.84-.59-2.6-1.35s-1.39-1.67-2.23-2.4c-.86-.73-1.88-1.33-3.01-1.55-.53-.11-1.08-.05-1.61-.16-.46-.09-.8-.35-1.12-.67-.79-.8-1.7-1.47-2.43-2.32-.77-.91-1.5-1.66-2.46-2.36-.9-.66-1.5-1.66-2.43-2.25-.75-.48-1.72-.68-2.23-1.47-.19-.3-.31-.68-.44-1.02-.08-.21-.18-.59-.37-.81,0,0-.02,0-.03.02-.16.06-.29-.14-.23-.27-.06-.15.05-.37.24-.29l.05.03s.05-.04.08-.04c.81-.56,1.84-.9,2.78-1.09,1.18-.26,2.43-.4,3.64-.39,1.23,0,2.39.47,3.63.38,1.26-.08,2.41-.51,3.61-.88,1.04-.32,2.08-.51,3.16-.41,1.06.09,2.09.36,3.09.7,1.02.36,2.03.96,3.08,1.17,1.16.24,2.31-.3,3.25-.94.83-.57,1.54-1.3,2.38-1.86.67-.45,1.56-.94,2.4-.81.76.12,1.23.79,1.62,1.4.49.77.74,1.68,1.29,2.41.67.88,1.8,1.15,2.82,1.42,1.04.27,2.01.7,2.95,1.26.87.52,1.48,1.26,2.22,1.93.7.62,1.61.84,2.31,1.45.8.68.99,1.66,1.19,2.63.23,1.08.6,2.09.75,3.19.12.92.18,1.63,1.01,2.17.38.25.76.42,1.18.56.34.12.61.24.83.53Zm-1.23.86c.03-.05.05-.12.07-.17-.05-.05-.07-.1-.1-.16-.05-.02-.1-.04-.16-.05-.2-.06-.39-.16-.59-.26-.38-.19-.76-.42-1.09-.7-.72-.64-.91-1.45-1.01-2.37-.14-1.25-.58-2.41-.81-3.65-.11-.55-.21-1.14-.59-1.58-.32-.38-.8-.59-1.21-.84-.8-.48-1.45-1.06-2.09-1.73-.73-.75-1.58-1.29-2.53-1.73-1.76-.8-3.81-.84-4.88-2.69-.45-.79-.73-1.66-1.26-2.41-.23-.32-.51-.66-.93-.69-.46-.03-.94.24-1.34.44-1.75.91-2.95,2.65-4.99,3.08-1,.21-1.86-.04-2.78-.43-.98-.4-1.96-.81-2.98-1.1-1.09-.3-2.25-.5-3.38-.34-1.05.16-2.05.55-3.07.84-.96.27-1.97.45-2.96.39-1.08-.05-2.09-.43-3.18-.4-1.13.03-2.28.15-3.38.38-.86.19-1.63.53-2.42.86.31.41.48,1.02.68,1.41.5.99,1.65,1.13,2.47,1.75.45.33.82.76,1.21,1.16.47.48.98.87,1.52,1.28.95.71,1.61,1.63,2.45,2.46.39.38.82.73,1.24,1.1.38.33.7.74,1.11,1.04.49.37,1.13.25,1.72.31.44.05.88.16,1.3.31.96.36,1.84.91,2.63,1.57.77.66,1.34,1.47,2.05,2.2.39.41.85.76,1.39.95.46.16.94.26,1.41.42.95.34,1.57.93,2.28,1.65.38.38.78.74,1.25.99.53.26,1.13.36,1.69.47,1.13.22,2.13.61,3.17,1.07,1.07.47,2.17.93,3.34,1.04,1.15.1,2.32-.02,3.48.02.45.02.91.06,1.29.31.34.22.57.59.91.79.8.47,1.84.18,2.63-.13.88-.34,1.68-.82,2.49-1.29.78-.46,1.65-.79,2.38-1.3,1.02-.7,1.18-1.86,1.3-3.01.05-.46.09-.84.27-1.26Z"/><path class="cls-1" d="m676.08,94.07c-.03.05-.05.12-.07.17-.17.42-.22.8-.27,1.26-.12,1.15-.27,2.31-1.3,3.01-.73.51-1.6.84-2.38,1.3-.8.47-1.61.95-2.49,1.29-.8.31-1.83.59-2.63.13-.35-.2-.58-.57-.91-.79-.38-.25-.84-.29-1.29-.31-1.15-.04-2.32.08-3.48-.02-1.17-.11-2.27-.58-3.34-1.04-1.04-.46-2.05-.85-3.17-1.07-.57-.11-1.16-.21-1.69-.47-.48-.25-.88-.6-1.25-.99-.7-.71-1.33-1.31-2.28-1.65-.47-.16-.95-.26-1.41-.42-.54-.19-1-.54-1.39-.95-.7-.72-1.28-1.54-2.05-2.2-.79-.67-1.66-1.22-2.63-1.57-.42-.16-.86-.26-1.3-.31-.59-.06-1.23.05-1.72-.31-.4-.3-.73-.71-1.11-1.04-.42-.37-.85-.71-1.24-1.1-.84-.83-1.5-1.75-2.45-2.46-.54-.41-1.05-.8-1.52-1.28-.38-.4-.76-.83-1.21-1.16-.82-.62-1.97-.76-2.47-1.75-.2-.39-.37-1-.68-1.41.8-.33,1.56-.67,2.42-.86,1.1-.24,2.25-.36,3.38-.38,1.1-.03,2.1.35,3.18.4,1,.05,2-.12,2.96-.39,1.02-.29,2.02-.69,3.07-.84,1.13-.16,2.29.04,3.38.34,1.02.28,2,.7,2.98,1.1.92.39,1.78.64,2.78.43,2.03-.43,3.24-2.17,4.99-3.08.39-.2.88-.47,1.34-.44.42.03.7.37.93.69.53.75.81,1.62,1.26,2.41,1.06,1.85,3.12,1.89,4.88,2.69.95.44,1.8.98,2.53,1.73.65.67,1.3,1.24,2.09,1.73.41.26.89.47,1.21.84.38.44.48,1.03.59,1.58.24,1.23.68,2.4.81,3.65.09.92.28,1.73,1.01,2.37.33.28.7.51,1.09.7.19.1.38.19.59.26.05.02.11.04.16.05.03.06.05.12.1.16Z"/><path class="cls-1" d="m621.89,78.18c.26-.19.59.18.42.43-.02.04-.05.07-.07.11.03.22-.14.41-.33.42-.05.06-.11.13-.17.19-.29.3-.47.6-.68.96-.28.48-.66.87-1.12,1.18-1.12.76-2.52,1.4-3.89,1.23-.41-.05-.82-.15-1.24-.12-.38.04-.73.17-1.09.32-.78.31-1.55.49-2.38.6-.8.1-1.59.15-2.37.38-.17.05-.36.11-.55.16-.09.34-.66.44-.84.07-.05,0-.12,0-.17-.03h0s-.08.05-.11,0c-.02-.03-.05-.05-.06-.08-.09-.1-.06-.27.08-.3.05-.02.08-.03.13-.05-.3-1.09-.45-2.18-.41-3.33.05-1.2.16-2.5-.4-3.61-.8-1.57-2.54-2.38-3.88-3.42-1.57-1.22-2.69-2.84-3.64-4.56-.52-.94-.95-1.64-2.04-1.95-.94-.27-1.74-.48-2.52-1.09-.77-.59-1.39-1.39-2.21-1.9-.59-.37-1.2-.41-1.88-.42-.47,0-.92-.12-1.38-.12-.04.05-.06.12-.11.17-.05.06-.15.05-.16-.05,0-.05,0-.12,0-.18-.12-.09-.1-.29.05-.37.06-.3.18-.59.27-.87.17-.47.37-.92.61-1.35.51-.93,1.24-1.55,2.1-2.15.87-.6,1.53-1.49,2.49-1.95.5-.24,1.04-.35,1.56-.51.28-.09.85-.5,1.16-.29t-.02,0s.07.05.09.07h0c.05.08.04.19,0,.27-.05.09-.1.14-.17.16.13.22.25.45.39.65.24.32.59.57.9.82.65.54,1.46,1.15,2.35,1.15.78,0,1.56-.33,2.34-.4.8-.08,1.63-.11,2.44-.05.63.04,1.24.15,1.87.25.44.06.9.18,1.2.53.4.48.6,1.13.98,1.65.41.54.87,1.03,1.23,1.61.7,1.12.84,2.31,1.19,3.55.38,1.35.62,2.58.1,3.94-.24.64-.57,1.15-.44,1.86.09.56.27,1.06.74,1.41.59.44,1.34.32,2.02.54.59.19,1.18.53,1.66.93.46.39.71.95,1.14,1.35.5.47,1.24.54,1.88.71.67.19,1.32.48,1.92.83.32.17.7.36.99.62,0,0,0,0,0,0Zm-.8,1c.09-.11.19-.21.3-.33-.25-.16-.54-.3-.77-.44-.33-.2-.67-.39-1.02-.55-.78-.37-1.65-.44-2.44-.76-.56-.22-.93-.6-1.29-1.07-.48-.61-1.11-1.09-1.86-1.34-.65-.22-1.34-.14-1.98-.48-.48-.26-.86-.62-1.1-1.12-.23-.5-.38-1.1-.37-1.65.03-.61.36-1.05.59-1.59.33-.75.45-1.55.3-2.36-.12-.64-.34-1.25-.48-1.88-.17-.73-.26-1.44-.58-2.12-.27-.59-.65-1.13-1.05-1.62-.43-.52-.81-1.04-1.13-1.64-.15-.27-.25-.58-.53-.73-.24-.14-.58-.15-.84-.19-1.45-.23-2.94-.33-4.4-.08-.7.11-1.4.37-2.11.28-.59-.06-1.12-.32-1.6-.65-.56-.38-1.08-.86-1.55-1.34-.34-.35-.46-.72-.6-1.14-.17.07-.34.16-.52.21-.52.16-1.05.26-1.53.5-.85.44-1.43,1.24-2.22,1.77-.87.59-1.62,1.14-2.18,2.06-.27.42-.48.88-.68,1.34-.07.17-.13.37-.19.55.23.02.46.05.69.06.34.03.68,0,1.02.02.55.02,1.07.15,1.55.43.99.58,1.67,1.55,2.63,2.17.87.57,1.87.58,2.77,1.01.9.42,1.3,1.18,1.77,2,1.11,1.89,2.4,3.46,4.21,4.71,1.43,1,3.01,1.99,3.63,3.71.38,1.05.3,2.22.27,3.32-.04,1.15.13,2.13.48,3.18.29-.08.59-.16.88-.26.67-.18,1.35-.23,2.04-.34.72-.11,1.45-.27,2.13-.54.62-.24,1.2-.46,1.88-.41.75.05,1.41.23,2.17.05.69-.16,1.32-.48,1.92-.83.57-.32,1-.68,1.33-1.24.14-.25.27-.47.47-.68Z"/><path class="cls-1" d="m621.4,78.85c-.11.12-.21.22-.3.33-.19.21-.33.43-.47.68-.33.57-.76.92-1.33,1.24-.6.36-1.23.67-1.92.83-.76.18-1.42,0-2.17-.05-.68-.05-1.25.17-1.88.41-.69.27-1.41.43-2.13.54-.69.11-1.37.16-2.04.34-.29.09-.59.17-.88.26-.36-1.05-.52-2.03-.48-3.18.04-1.1.11-2.27-.27-3.32-.62-1.72-2.2-2.72-3.63-3.71-1.81-1.25-3.1-2.82-4.21-4.71-.48-.82-.88-1.58-1.77-2-.91-.43-1.9-.44-2.77-1.01-.96-.62-1.65-1.59-2.63-2.17-.48-.28-1-.41-1.55-.43-.34-.02-.68,0-1.02-.02-.23-.02-.46-.05-.69-.06.06-.18.12-.38.19-.55.19-.46.41-.91.68-1.34.56-.91,1.31-1.47,2.18-2.06.8-.53,1.37-1.34,2.22-1.77.48-.25,1.01-.34,1.53-.5.18-.05.35-.14.52-.21.15.42.27.8.6,1.14.47.48.99.96,1.55,1.34.48.33,1.02.59,1.6.65.71.08,1.42-.17,2.11-.28,1.46-.25,2.95-.15,4.4.08.27.05.6.05.84.19.28.16.38.47.53.73.32.59.7,1.12,1.13,1.64.4.49.78,1.03,1.05,1.62.32.69.4,1.39.58,2.12.15.62.37,1.23.48,1.88.15.8.03,1.61-.3,2.36-.23.54-.56.98-.59,1.59-.02.55.14,1.14.37,1.65.24.49.62.86,1.1,1.12.63.34,1.33.26,1.98.48.75.26,1.37.73,1.86,1.34.36.47.73.85,1.29,1.07.8.32,1.66.39,2.44.76.35.16.69.35,1.02.55.23.14.52.28.77.44Z"/><path class="cls-1" d="m571.08,70.6c.33,2.65,2.43,4.74,2.39,7.5-.04,2.49-1.63,4.95-4.15,5.5-1.22.26-2.47.13-3.67-.2-1.55-.43-3.34-1-4.76.1-1.11.86-1.79,2.14-2.93,2.99-1.21.92-2.62,1.41-4.13,1.56-1.48.14-2.97-.08-4.42-.3-.86-.13-1.69-.27-2.56-.26-.79.01-1.58.1-2.36.22-1.66.24-3.34.55-5.02.31-1.4-.19-2.52-.98-3.74-1.62-.89-.47-1.72-.9-2.14-1.87-.26-.6-.28-1.25-.54-1.84-.2-.48-.53-.87-.88-1.23-.78-.8-1.61-1.52-2.04-2.59-.27-.68-.28-1.4-.37-2.12,0-.03-.01-.07-.01-.11-.08-.64-.13-1.27-.18-1.91-.18-.66-.52-1.25-.97-1.77-.5-.58-1.03-1.14-1.49-1.77-.4-.56-.74-1.15-1.11-1.74-.65-1.07-1.53-1.98-2.27-2.99-.72-.99-1.39-2.11-1.43-3.36-.05-1.28.73-2.5,1.69-3.29.48-.39,1.11-.68,1.74-.58.5.08.91.3,1.43.2.72-.13,1.3-.72,1.84-1.16.51-.41,1-.85,1.51-1.27.97-.8,2.11-1.58,3.43-1.45,1.45.15,2.22,1.26,3.29,2.09,1.17.91,2.52.39,3.81.16,1.28-.22,2.4.09,3.48.79.96.62,1.84,1.47,2.95,1.8,1.16.36,2.73.09,3.77-.52.16-.09.43-.24.53-.41.06-.1.05-.13.05-.28,0-.27.06-.52.21-.74.32-.49.89-.67,1.44-.77,1.03-.2,2.45-.43,3.38.2s1.06,1.93,2.27,2.26c.68.19,1.46.04,2.16,0,.58-.03,1.16-.08,1.75-.11,1.01-.06,2.06-.05,2.98.42,1.24.64,1.72,1.83,2.43,2.94.73,1.14,2.02,1.94,2.51,3.22.49,1.3-.03,2.66.13,4Zm1.04,7.41c.02-1.23-.48-2.37-.99-3.47-.52-1.1-1.06-2.22-1.27-3.43-.11-.66-.11-1.3-.05-1.97.05-.61.17-1.27.02-1.87-.18-.69-.75-1.18-1.22-1.69-.4-.43-.78-.86-1.11-1.34-.64-.95-1-2.2-2.11-2.72-.86-.4-1.91-.26-2.81-.18-1.2.1-2.54.35-3.73.08-1.23-.28-1.82-1.21-2.49-2.16-.53-.74-1.84-.44-2.61-.27-.14.03-.51.08-.56.19-.08.16.01.5-.06.69-.2.55-.79.97-1.27,1.24-1.06.58-2.43.86-3.64.81-1.18-.05-2.22-.59-3.17-1.25-.81-.57-1.65-1.31-2.65-1.5-.71-.13-1.39.11-2.07.27-.64.15-1.27.22-1.93.12-1.17-.16-1.95-.66-2.79-1.46-.94-.89-1.86-1.47-3.1-.76-1.11.65-2.05,1.64-3.05,2.45-1.08.88-2.25,1.42-3.65,1.01-.42-.12-.64-.07-.99.28-.35.34-.71.76-.89,1.21-.42,1.05.23,2.15.8,2.99.7,1.02,1.54,1.92,2.26,2.92.73,1.03,1.29,2.14,2.14,3.09.98,1.09,1.84,2.18,2.04,3.69.09.67-.07,1.49.24,2.11.28.56,1.03.82,1.57,1.04,1.18.45,2.45.91,3.35,1.84.42.42.66.95,1.03,1.4.33.38.86.47,1.33.56,1.38.25,2.92-.04,4.13-.74.09-.05.16.06.1.13-.88,1.1-2.1,1.65-3.48,1.82-1.22.15-2.52-.11-3.27-1.14-.39-.52-.7-1.02-1.26-1.39s-1.21-.61-1.84-.85c-.24-.09-.5-.19-.75-.29.33.35.7.67,1.03,1,.37.39.73.82.98,1.3.29.56.39,1.14.56,1.74.25.88.87,1.13,1.64,1.53,1.12.59,2.14,1.35,3.43,1.46,1.59.14,3.18-.2,4.75-.41,1.53-.2,2.98-.17,4.51.09,2.78.46,5.75.87,8.1-1.06.95-.78,1.57-1.88,2.53-2.66,1.19-.99,2.69-1.21,4.19-.96,1.34.22,2.6.81,3.98.8.99-.01,1.99-.31,2.72-1.01.87-.82,1.36-2.09,1.38-3.28Z"/><path class="cls-1" d="m571.13,74.54c.51,1.1,1.01,2.24.99,3.47-.02,1.19-.51,2.46-1.38,3.28-.73.7-1.73,1-2.72,1.01-1.38.01-2.64-.58-3.98-.8-1.5-.25-3-.03-4.19.96-.96.78-1.58,1.88-2.53,2.66-2.35,1.93-5.32,1.52-8.1,1.06-1.53-.26-2.98-.29-4.51-.09-1.57.21-3.16.55-4.75.41-1.29-.11-2.31-.87-3.43-1.46-.77-.4-1.39-.65-1.64-1.53-.17-.6-.27-1.18-.56-1.74-.25-.48-.61-.91-.98-1.3-.33-.33-.7-.65-1.03-1,.25.1.51.2.75.29.63.24,1.28.48,1.84.85s.87.87,1.26,1.39c.75,1.03,2.05,1.29,3.27,1.14,1.38-.17,2.6-.72,3.48-1.82.06-.07-.01-.18-.1-.13-1.21.7-2.75.99-4.13.74-.47-.09-1-.18-1.33-.56-.37-.45-.61-.98-1.03-1.4-.9-.93-2.17-1.39-3.35-1.84-.54-.22-1.29-.48-1.57-1.04-.31-.62-.15-1.44-.24-2.11-.2-1.51-1.06-2.6-2.04-3.69-.85-.95-1.41-2.06-2.14-3.09-.72-1-1.56-1.9-2.26-2.92-.57-.84-1.22-1.94-.8-2.99.18-.45.54-.87.89-1.21.35-.35.57-.4.99-.28,1.4.41,2.57-.13,3.65-1.01,1-.81,1.94-1.8,3.05-2.45,1.24-.71,2.16-.13,3.1.76.84.8,1.62,1.3,2.79,1.46.66.1,1.29.03,1.93-.12.68-.16,1.36-.4,2.07-.27,1,.19,1.84.93,2.65,1.5.95.66,1.99,1.2,3.17,1.25,1.21.05,2.58-.23,3.64-.81.48-.27,1.07-.69,1.27-1.24.07-.19-.02-.53.06-.69.05-.11.42-.16.56-.19.77-.17,2.08-.47,2.61.27.67.95,1.26,1.88,2.49,2.16,1.19.27,2.53.02,3.73-.08.9-.08,1.95-.22,2.81.18,1.11.52,1.47,1.77,2.11,2.72.33.48.71.91,1.11,1.34.47.51,1.04,1,1.22,1.69.15.6.03,1.26-.02,1.87-.06.67-.06,1.31.05,1.97.21,1.21.75,2.33,1.27,3.43Z"/><path class="cls-1" d="m566.03,168.9c3.01,2.53-1.06,5.94-3.37,6.99-.81.37-1.65.57-2.55.57-1.12-.01-2.22-.29-3.33-.44-1.12-.15-2.27-.14-3.4-.24-1.05-.1-2.1-.23-3.14-.4-1.04-.16-2.07-.38-3.1-.62-1.05-.25-2.1-.58-3.19-.64-.94-.05-1.97.13-2.68.81-.47.46-.6,1.12-.73,1.74-.32,1.52-.84,2.7-2.1,3.67-1.25.96-2.77,1.56-4.27,2.02-1.54.48-3.18.92-4.8.95-1.14.02-2.25-.07-3.34.3-.96.33-1.84.84-2.81,1.13-1.99.6-4.12.18-5.97-.64-.94-.42-1.83-.95-2.67-1.53-.77-.52-1.58-1.06-2.25-1.7-1.18-1.15-.61-2.38-.07-3.7.78-1.9,1.44-3.96,2.54-5.7.4-.65.93-1.2,1.48-1.71.05-.1.1-.2.14-.3.38-.97.57-1.96.23-2.95-.14-.18-.27-.35-.39-.5-.33-.42-.66-.82-.96-1.27-.13-.2-.24-.41-.37-.62-.41-.41-.84-.81-1.21-1.23-1.01-1.16-1.64-2.5-1.46-4.08.1-.91.5-1.76.55-2.67.05-.8-.27-1.57-.42-2.34-.7-3.57,2.89-6.4,6.09-6.91,3.04-.49,6.1.43,9.13,0,1.57-.23,2.95-.93,4.02-2.11.62-.69,1.15-1.46,1.83-2.11.65-.62,1.37-1.18,2.16-1.61,1.66-.89,3.51-1.12,5.34-.69.75.17,1.5.43,2.15.86.63.42,1.15.98,1.72,1.47,1.35,1.17,3.36.98,4.73,2.16.8.7,1.28,1.7,1.62,2.69.79,2.32.87,4.83,1.31,7.23.31,1.71.8,4.25,2.83,4.61,1.22.22,2.54-.09,3.78-.07,1.26.02,2.58.28,3.46,1.26,1.21,1.35,1.27,3.16,1.1,4.86-.09.91.04,1.69.76,2.31.5.43,1.1.73,1.61,1.15Zm-1.07,3.52c.37-.45.75-1.04.62-1.65-.11-.55-.64-.88-1.07-1.18-1.35-.91-2.41-1.93-2.35-3.7.06-1.5.47-3.35-.84-4.49-.84-.72-2.11-.65-3.15-.6-1.18.05-2.46.26-3.62-.1-.94-.3-1.68-.95-2.21-1.78-1.19-1.89-1.37-4.35-1.67-6.51-.16-1.17-.32-2.34-.6-3.49-.23-.92-.53-1.89-1.14-2.63-.96-1.16-2.62-1.18-3.91-1.77-1.36-.62-2.15-2.02-3.59-2.52-1.7-.59-3.48-.56-5.08.31-.74.4-1.4.92-2,1.51-.65.64-1.15,1.39-1.76,2.05-2.19,2.36-5.23,2.69-8.27,2.5-2.82-.18-5.99-.7-8.44,1.1-.68.49-1.31,1.15-1.74,1.87-.48.81-.48,1.6-.27,2.49.18.73.41,1.48.38,2.24-.02.89-.35,1.71-.52,2.57-.53,2.68,2.05,4.13,3.39,6.13.11.12.21.24.31.36.58.69,1.09,1.4,1.43,2.23.27.66.37,1.35.02,2-.36.68-1.07,1.14-1.62,1.66-1.07,1-1.67,2.29-2.23,3.62-.01.04-.02.09-.02.14-.03,1.31.99,2.3,1.98,3.02.09.07.01.21-.09.16-.99-.52-1.93-1.21-2.31-2.29l-1.08,2.64c-.11.29-.23.58-.31.88-.03.15-.05.17.03.27.42.59,1.16,1.02,1.73,1.44.81.57,1.65,1.12,2.53,1.57,1.72.87,3.73,1.32,5.6.68.93-.32,1.78-.8,2.72-1.08,1.01-.3,2.05-.29,3.09-.28,1.62.02,3.18-.36,4.71-.83,1.39-.42,2.85-.94,4.01-1.85.47-.37.88-.82,1.11-1.39.27-.65.34-1.37.52-2.05.42-1.57,1.66-2.63,3.27-2.93,2.05-.38,4.12.43,6.11.85,2,.43,4.03.69,6.07.82,1.11.07,2.18.13,3.27.32,1.03.18,2.12.41,3.16.16,1.43-.34,2.89-1.36,3.83-2.47Z"/><path class="cls-1" d="m565.58,170.77c.13.61-.25,1.2-.62,1.65-.94,1.11-2.4,2.13-3.83,2.47-1.04.25-2.13.02-3.16-.16-1.09-.19-2.16-.25-3.27-.32-2.04-.13-4.07-.39-6.07-.82-1.99-.42-4.06-1.23-6.11-.85-1.61.3-2.85,1.36-3.27,2.93-.18.68-.25,1.4-.52,2.05-.23.57-.64,1.02-1.11,1.39-1.16.91-2.62,1.43-4.01,1.85-1.53.47-3.09.85-4.71.83-1.04,0-2.08-.02-3.09.28-.94.28-1.79.76-2.72,1.08-1.87.64-3.88.19-5.6-.68-.88-.45-1.72-1-2.53-1.57-.57-.42-1.31-.85-1.73-1.44-.08-.1-.06-.12-.03-.27.08-.3.2-.59.31-.88l1.08-2.64c.38,1.08,1.32,1.77,2.31,2.29.1.05.18-.09.09-.16-.99-.72-2.01-1.71-1.98-3.02,0-.05,0-.1.02-.14.56-1.33,1.16-2.62,2.23-3.62.55-.52,1.26-.98,1.62-1.66.35-.65.25-1.34-.02-2-.34-.83-.85-1.54-1.43-2.23-.1-.12-.2-.24-.31-.36-1.34-2-3.92-3.45-3.39-6.13.17-.86.5-1.68.52-2.57.03-.76-.2-1.51-.38-2.24-.21-.89-.21-1.68.27-2.49.43-.72,1.06-1.38,1.74-1.87,2.45-1.8,5.62-1.28,8.44-1.1,3.04.19,6.08-.14,8.27-2.5.61-.66,1.11-1.41,1.76-2.05.6-.59,1.26-1.11,2-1.51,1.6-.87,3.38-.9,5.08-.31,1.44.5,2.23,1.9,3.59,2.52,1.29.59,2.95.61,3.91,1.77.61.74.91,1.71,1.14,2.63.28,1.15.44,2.32.6,3.49.3,2.16.48,4.62,1.67,6.51.53.83,1.27,1.48,2.21,1.78,1.16.36,2.44.15,3.62.1,1.04-.05,2.31-.12,3.15.6,1.31,1.14.9,2.99.84,4.49-.06,1.77,1,2.79,2.35,3.7.43.3.96.63,1.07,1.18Z"/><path class="cls-1" d="m558.91,210.6c.51,1.8-.75,3.54-2.18,4.5-1.8,1.2-4.08,1.71-6.17,2.14-1.07.22-2.15.42-3.23.59-1.04.17-2.07.38-3.12.36-2.79-.03-5.4-1.2-8.16-1.36-1.56-.09-2.91.27-4.33.85-1.04.42-2.09.82-3.22.86-1.33.04-2.55-.46-3.84-.71-1.31-.25-2.66-.1-3.98-.26-2.04-.25-4.89-1.86-4.16-4.33.24-.79.77-1.43,1.08-2.19.38-.93-.03-1.69-.57-2.46-1.05-1.48-2.78-3.01-2.63-4.87-.1-.77.2-1.5.65-2.13.48-.67,1.28-1.39,1.26-2.29-.04-.97-1-1.63-1.56-2.31-1.41-1.73-.99-4.02.84-5.26,1.76-1.19,3.9-1.04,5.82-1.73,1.03-.38,1.9-1.1,2.97-1.38,1.18-.32,2.35-.03,3.46.42,1.2.48,2.35,1.09,3.38,1.88.99.76,1.61,1.7,2.24,2.77.56.94,1.11,1.9,1.94,2.62,1.06.91,2.46,1.44,3.85,1.35,1.29-.1,2.54-.45,3.84-.3,1.19.14,2.36.6,3.21,1.48.43.45.78,1,1,1.59.23.62.19,1.27.29,1.91.2,1.35,1.68,1.96,2.77,2.5,1.61.8,3.31,1.43,4.9,2.26,1.45.76,3.17,1.82,3.65,3.5Zm-1.58,2.36c.37-.63.62-1.36.39-2.08-.22-.68-.76-1.22-1.31-1.64-1.37-1.07-3.05-1.72-4.63-2.4-.74-.32-1.46-.66-2.18-1.02-.97-.48-2.06-1.03-2.71-1.94-.78-1.09-.33-2.5-1.03-3.63-.61-.97-1.66-1.52-2.77-1.66-1.23-.17-2.44.16-3.66.28-1.29.11-2.51-.21-3.64-.82-2.03-1.09-2.91-3.08-4.11-4.92-.63-.95-1.63-1.6-2.61-2.15s-2.12-1.13-3.26-1.26c-1.07-.13-1.93.41-2.84.89-.91.49-1.83.75-2.85.94-1.59.28-3.97.56-4.79,2.2-1.03,2.07,1.39,3.08,1.89,4.82.24.85.02,1.68-.45,2.39-.4.6-1,1.14-1.29,1.81.02.04.02.08.02.12-.07.86.3,1.69.76,2.41.14.14.27.28.4.4.9.83,2.01,1.5,3.22,1.72.1.02.07.17-.02.17-.79,0-1.54-.22-2.25-.53.91,1.12,1.78,2.33,1.5,3.81-.15.79-.61,1.46-.98,2.16-.34.64-.46,1.2.03,1.8,1.66,2.1,4.77,1.18,7.05,1.7,1.15.26,2.24.69,3.43.62,1.08-.06,2.12-.55,3.1-.96,2.56-1.04,5.08-.71,7.68-.06,1.26.32,2.53.67,3.82.81,1.11.12,2.18.02,3.28-.14,2.03-.28,4.07-.56,6.05-1.11,1.71-.48,3.8-1.11,4.76-2.73Z"/><path class="cls-1" d="m557.72,210.88c.23.72-.02,1.45-.39,2.08-.96,1.62-3.05,2.25-4.76,2.73-1.98.55-4.02.83-6.05,1.11-1.1.16-2.17.26-3.28.14-1.29-.14-2.56-.49-3.82-.81-2.6-.65-5.12-.98-7.68.06-.98.41-2.02.9-3.1.96-1.19.07-2.28-.36-3.43-.62-2.28-.52-5.39.4-7.05-1.7-.49-.6-.37-1.16-.03-1.8.37-.7.83-1.37.98-2.16.28-1.48-.59-2.69-1.5-3.81.71.31,1.46.53,2.25.53.09,0,.12-.15.02-.17-1.21-.22-2.32-.89-3.22-1.72-.13-.12-.26-.26-.4-.4-.46-.72-.83-1.55-.76-2.41,0-.04,0-.08-.02-.12.29-.67.89-1.21,1.29-1.81.47-.71.69-1.54.45-2.39-.5-1.74-2.92-2.75-1.89-4.82.82-1.64,3.2-1.92,4.79-2.2,1.02-.19,1.94-.45,2.85-.94.91-.48,1.77-1.02,2.84-.89,1.14.13,2.28.71,3.26,1.26s1.98,1.2,2.61,2.15c1.2,1.84,2.08,3.83,4.11,4.92,1.13.61,2.35.93,3.64.82,1.22-.12,2.43-.45,3.66-.28,1.11.14,2.16.69,2.77,1.66.7,1.13.25,2.54,1.03,3.63.65.91,1.74,1.46,2.71,1.94.72.36,1.44.7,2.18,1.02,1.58.68,3.26,1.33,4.63,2.4.55.42,1.09.96,1.31,1.64Z"/><path class="cls-1" d="m506.28,118.94c.6.9,1.3,1.89,1.27,3.02-.02,1.15-.59,2.35-1.15,3.33-1.1,1.91-3.27,3.99-5.67,3.79-.6-.05-1.18-.27-1.79-.24-.54.02-.98.24-1.41.55-.91.66-1.72,1.24-2.87,1.38-2.45.31-4.46-1.02-6.08-2.7-.63-.65-1.25-1.39-2.07-1.81-1-.5-2.19-.31-3.23-.08-2.7.6-5.44,1.83-8.19.75-2.48-.99-4.12-3.04-5.89-4.94-1-1.07-2.05-2.11-2.97-3.25-.37-.45-.68-.95-.99-1.45-1.34-1-2.67-2.17-3.58-3.58-.04-.03-.08-.06-.12-.1-.75-.67-1.15-1.65-1.41-2.59-.1-.36.29-.6.56-.48.06-1.38.66-2.74,1.55-3.83.81-.98,1.89-1.56,2.86-2.35,1.03-.85,1.97-1.81,3.04-2.63.94-.72,1.86-1.18,3.04-1.33,1.09-.13,2.24-.07,3.31.22,1.1.31,1.98.97,2.67,1.87.39.52.74,1.11.87,1.75.13.69-.04,1.35-.06,2.04-.01.76.52,1.22,1.1,1.75.73.67,1.53,1.26,2.37,1.79.62.38,1.3.83,2.05.84.95.01,1.71-.66,2.37-1.26.75-.68,1.49-1.41,2.42-1.83.9-.41,1.92-.64,2.91-.66.98-.01,1.99.23,2.77.85.41.33.76.76.96,1.25.26.63.06,1.27.22,1.9.29,1.09,1.51,1.2,2.37,1.61,1.25.58,1.98,1.71,3.06,2.51,1.02.75,2.4.7,3.47,1.38.95.6,1.63,1.61,2.24,2.53Zm-.05,3.17c.1-.97-.67-1.9-1.19-2.66-.66-.98-1.34-1.91-2.5-2.28-1.13-.36-2.18-.59-3.1-1.38-.96-.82-1.68-1.8-2.9-2.27-.88-.34-1.68-.57-2.25-1.39-.35-.5-.48-1.04-.5-1.64-.02-.59,0-1.04-.43-1.5-1.21-1.32-3.75-.8-5.07.07-1.52,1-2.6,2.77-4.58,2.9-1.6.11-3.15-1.09-4.35-2.01-1.27-.97-2.81-2.1-2.67-3.87.05-.74.21-1.41-.12-2.1-.25-.52-.61-.98-1.03-1.36-.77-.7-1.79-.92-2.8-.98-.94-.05-1.98,0-2.82.44-1.12.59-2.03,1.53-2.96,2.36-1.74,1.56-4.03,2.61-4.79,4.98-.32.98-.38,1.92.02,2.88.03.05.06.1.08.15.1.08.19.17.3.25.83.64,1.78,1.14,2.47,1.94.78.92,1.29,2.02,2.02,2.97.81,1.04,1.74,1.98,2.65,2.94.87.92,1.68,1.91,2.58,2.81.87.86,1.84,1.66,2.97,2.18,1.19.54,2.47.58,3.74.34,2.35-.43,4.86-1.73,7.29-1.11,1.81.47,2.9,2.16,4.22,3.35.81.73,1.87,1.23,2.96,1.35,1.11.13,2.02-.18,2.91-.84.85-.63,1.64-1.13,2.75-1.1.57,0,1.12.21,1.69.25.54.03,1.09-.15,1.58-.37,1.01-.46,1.86-1.26,2.48-2.17.61-.89,1.24-2.04,1.35-3.13Z"/><path class="cls-1" d="m505.04,119.45c.52.76,1.29,1.69,1.19,2.66-.11,1.09-.74,2.24-1.35,3.13-.62.91-1.47,1.71-2.48,2.17-.49.22-1.04.4-1.58.37-.57-.04-1.12-.24-1.69-.25-1.11-.03-1.9.47-2.75,1.1-.89.66-1.8.97-2.91.84-1.09-.12-2.15-.62-2.96-1.35-1.32-1.19-2.41-2.88-4.22-3.35-2.43-.62-4.94.68-7.29,1.11-1.27.24-2.55.2-3.74-.34-1.13-.52-2.1-1.32-2.97-2.18-.9-.9-1.71-1.89-2.58-2.81-.91-.96-1.84-1.9-2.65-2.94-.73-.95-1.24-2.05-2.02-2.97-.69-.8-1.64-1.3-2.47-1.94-.11-.08-.2-.17-.3-.25-.02-.05-.05-.1-.08-.15-.4-.96-.34-1.9-.02-2.88.76-2.37,3.05-3.42,4.79-4.98.93-.83,1.84-1.77,2.96-2.36.84-.44,1.88-.49,2.82-.44,1.01.06,2.03.28,2.8.98.42.38.78.84,1.03,1.36.33.69.17,1.36.12,2.1-.14,1.77,1.4,2.9,2.67,3.87,1.2.92,2.75,2.12,4.35,2.01,1.98-.13,3.06-1.9,4.58-2.9,1.32-.87,3.86-1.39,5.07-.07.42.46.41.91.43,1.5.02.6.15,1.14.5,1.64.57.82,1.37,1.05,2.25,1.39,1.22.47,1.94,1.45,2.9,2.27.92.79,1.97,1.02,3.1,1.38,1.16.37,1.84,1.3,2.5,2.28Z"/><path class="cls-1" d="m500.99,164.16c.39,1.17.42,2.47-.22,3.57-.62,1.07-1.76,1.38-2.78,1.96-.76.43-1.06.99-1.34,1.81-.22.65-.52,1.2-.99,1.71-.87.92-2.01,1.46-3.28,1.48-1.21,0-2.37-.37-3.55-.58-1.06-.19-2.09-.22-2.92.55-.71.66-1.24,1.45-2.04,2.02-.96.69-2.19,1.02-3.33,1.26-1.22.27-2.5.46-3.75.39-1.32-.07-2.5-.56-3.73-1.02-.61-.24-1.24-.45-1.89-.54-.69-.1-1.37-.04-2.06,0-.93.05-1.92.12-2.82-.19-1.06-.36-1.88-1.13-2.67-1.87-.96-.9-2.03-1.32-3.32-1.51-1.28-.2-2.54-.38-3.8-.72-.88-.25-1.83-.5-2.56-1.08-.62-.5-.97-1.21-1.1-1.99-.11-.64-.1-1.27-.1-1.92-.01-.74-.12-1.48-.24-2.21-.24-1.52-.39-3.05.26-4.5.6-1.35,1.86-2.2,2.58-3.46.66-1.14.15-2.35.3-3.59.15-1.11.45-2.24,1.31-3,.54-.48,1.24-.82,1.96-.85.62-.04,1.25.22,1.87.12,1.26-.2,2.33-1.51,2.95-2.53.28-.48.52-.99.65-1.53-.05-.4-.14-.8-.29-1.18-.18-.46-.39-.65-.84-.87-.44-.22-.84-.45-1.07-.9-.24-.45-.21-.93-.06-1.4.19-.63.34-1.05.03-1.67-.52-1.05-.93-1.91-.55-3.1.3-.94.91-1.63,1.83-2.01.51-.21,1.04-.31,1.56-.5.44-.16.83-.44,1.25-.66.96-.5,1.92-.42,2.95-.17.65.15,1.19.19,1.85.09.55-.08,1.08-.17,1.63-.09,1.03.14,1.94.81,2.73,1.44.78.63,1.21,1.43,1.87,2.16.79.88,1.88.69,2.91.41,1.03-.27,2.02-.47,3.08-.23,1.97.46,3.25,2.05,4.69,3.34,1.58,1.41,3.33,2.72,4.41,4.59.25.43.46.89.58,1.37.12.47.11.84.56,1.11.73.43,1.34.64,1.5,1.56.09.51.1,1.11-.03,1.63.23.41.38.88.4,1.44.05,1.12-.38,2.22-.28,3.33.1,1.02.83,1.68,1.55,2.32.93.83,1.72,1.71,2.43,2.73.76,1.09,1.5,2.21,1.92,3.48Zm-1.44,3.26c1.72-2-.69-5.04-1.88-6.66-1.14-1.58-3.36-2.62-3.73-4.68-.2-1.13.17-2.22.21-3.35.01-.28-.01-.55-.06-.81-.29.06-.6-.01-.86-.26-.31-.31-.2-.68.07-.88-.7-.51-1.63-.85-2.42-1.09-1.43-.42-2.9-.22-4.37-.21-1.37.01-2.72-.2-3.96-.78-1.07-.5-1.97-1.28-2.86-2.03-.91-.78-1.86-1.52-3.01-1.92-1.34-.47-2.59-1.04-3.85-1.7-1.27-.67-2.57-1.36-4.01-1.59-.59-.1-1.36-.18-1.62.36-.22.46-.25,1.15-.44,1.69-.25.73-.71,1.09-1.32,1.41,0,.03,0,.06.01.09.19,2.31-1.33,4.69-3.32,5.8-.54.3-1.13.49-1.76.48-.63-.02-1.25-.25-1.87-.02-1.16.43-1.49,1.67-1.6,2.78-.12,1.13.31,2.16-.13,3.26-.51,1.3-1.6,2.13-2.39,3.23-.96,1.33-.87,2.85-.63,4.4.11.74.24,1.47.27,2.22.03.56-.02,1.12.03,1.68.08.71.3,1.33.92,1.71.79.48,1.79.67,2.68.89,1.14.29,2.31.37,3.46.59,1.17.22,2.22.71,3.12,1.49.76.66,1.46,1.5,2.45,1.84.86.28,1.82.16,2.69.11,1.36-.09,2.59.06,3.87.53,1.14.42,2.26.96,3.48,1.04,1.16.08,2.35-.07,3.49-.31,1.08-.22,2.26-.5,3.15-1.2.68-.54,1.16-1.29,1.82-1.86.78-.68,1.74-.96,2.78-.9,2.16.14,4.67,1.55,6.55-.13.66-.59.87-1.24,1.18-2.03.22-.58.54-1.1,1.03-1.5.83-.68,2.13-.86,2.83-1.69Zm-5.89-17.85c-.02-.1-.04-.2-.08-.27-.14-.22-.68-.34-.93-.5-.42-.26-.74-.67-.89-1.13-.15-.43-.18-.88-.36-1.3-.2-.44-.47-.87-.77-1.26-.68-.9-1.52-1.68-2.37-2.42-.67-.59-1.37-1.16-2.01-1.78s-1.26-1.27-2.01-1.74c-.77-.49-1.66-.76-2.57-.61-.95.15-1.84.54-2.81.56-.96.03-1.91-.35-2.55-1.08-.57-.63-.94-1.38-1.58-1.95-.65-.57-1.54-1.31-2.45-1.35-.58-.02-1.15.14-1.73.18-.47.03-.93-.04-1.4-.15-.54-.12-1.08-.32-1.64-.26-.4.05-.73.25-1.08.45-.8.47-1.65.62-2.51.95-.89.35-1.5,1.31-1.32,2.29.16.87.88,1.5.89,2.44,0,.48-.19.87-.32,1.32-.15.5.07.72.44.99.42.3.76.59.99,1,.13-.72.5-1.23,1.09-1.63.12-.56.24-1.13.62-1.57.59-.67,1.51-.75,2.35-.66,3,.33,5.48,2.38,8.28,3.35,1.22.42,2.25,1.11,3.24,1.93.92.76,1.79,1.59,2.86,2.13,1.41.72,2.95.73,4.49.68,1.55-.06,3,.01,4.46.59.59.23,1.16.49,1.67.8Z"/><path class="cls-1" d="m497.67,160.76c1.19,1.62,3.6,4.66,1.88,6.66-.7.83-2,1.01-2.83,1.69-.49.4-.81.92-1.03,1.5-.31.79-.52,1.44-1.18,2.03-1.88,1.68-4.39.27-6.55.13-1.04-.06-2,.22-2.78.9-.66.57-1.14,1.32-1.82,1.86-.89.7-2.07.98-3.15,1.2-1.14.24-2.33.39-3.49.31-1.22-.08-2.34-.62-3.48-1.04-1.28-.47-2.51-.62-3.87-.53-.87.05-1.83.17-2.69-.11-.99-.34-1.69-1.18-2.45-1.84-.9-.78-1.95-1.27-3.12-1.49-1.15-.22-2.32-.3-3.46-.59-.89-.22-1.89-.41-2.68-.89-.62-.38-.84-1-.92-1.71-.05-.56,0-1.12-.03-1.68-.03-.75-.16-1.48-.27-2.22-.24-1.55-.33-3.07.63-4.4.79-1.1,1.88-1.93,2.39-3.23.44-1.1.01-2.13.13-3.26.11-1.11.44-2.35,1.6-2.78.62-.23,1.24,0,1.87.02.63.01,1.22-.18,1.76-.48,1.99-1.11,3.51-3.49,3.32-5.8-.01-.03-.01-.06-.01-.09.61-.32,1.07-.68,1.32-1.41.19-.54.22-1.23.44-1.69.26-.54,1.03-.46,1.62-.36,1.44.23,2.74.92,4.01,1.59,1.26.66,2.51,1.23,3.85,1.7,1.15.4,2.1,1.14,3.01,1.92.89.75,1.79,1.53,2.86,2.03,1.24.58,2.59.79,3.96.78,1.47-.01,2.94-.21,4.37.21.79.24,1.72.58,2.42,1.09-.27.2-.38.57-.07.88.26.25.57.32.86.26.05.26.07.53.06.81-.04,1.13-.41,2.22-.21,3.35.37,2.06,2.59,3.1,3.73,4.68Z"/><path class="cls-1" d="m493.58,149.3c.04.07.06.17.08.27-.51-.31-1.08-.57-1.67-.8-1.46-.58-2.91-.65-4.46-.59-1.54.05-3.08.04-4.49-.68-1.07-.54-1.94-1.37-2.86-2.13-.99-.82-2.02-1.51-3.24-1.93-2.8-.97-5.28-3.02-8.28-3.35-.84-.09-1.76-.01-2.35.66-.38.44-.5,1.01-.62,1.57-.59.4-.96.91-1.09,1.63-.23-.41-.57-.7-.99-1-.37-.27-.59-.49-.44-.99.13-.45.32-.84.32-1.32-.01-.94-.73-1.57-.89-2.44-.18-.98.43-1.94,1.32-2.29.86-.33,1.71-.48,2.51-.95.35-.2.68-.4,1.08-.45.56-.06,1.1.14,1.64.26.47.11.93.18,1.4.15.58-.04,1.15-.2,1.73-.18.91.04,1.8.78,2.45,1.35.64.57,1.01,1.32,1.58,1.95.64.73,1.59,1.11,2.55,1.08.97-.02,1.86-.41,2.81-.56.91-.15,1.8.12,2.57.61.75.47,1.37,1.12,2.01,1.74s1.34,1.19,2.01,1.78c.85.74,1.69,1.52,2.37,2.42.3.39.57.82.77,1.26.18.42.21.87.36,1.3.15.46.47.87.89,1.13.25.16.79.28.93.5Z"/></svg>