<?xml version="1.0" encoding="UTF-8"?><svg id="Tree_09_-_Leaves_04" xmlns="http://www.w3.org/2000/svg" viewBox="0 0 1160 418.25"><defs><style>.cls-1{fill:#c6d604;stroke-width:0px;}</style></defs><path class="cls-1" d="m661.53,52.37c1.55,1.11,6.25.92,5.32,3.96-.19.6-.49,1.17-.73,1.76-.24.57-.48,1.13-.96,1.54-.55.47-1.24.56-1.89.83-.7.3-1.15.91-1.44,1.6-.27.65-.38,1.35-.59,2.02-.21.7-.52,1.34-.84,1.98-.4.8-.79,1.6-.99,2.48-.17.76-.26,1.55-.31,2.32-.1,1.48-.07,3.02-.62,4.43-.57,1.45-1.72,2.19-2.82,3.2-1.01.92-1.96,1.66-3.41,1.47-1.58-.21-2.89-1.23-4.45-1.56-1.58-.34-3.33-.71-4.94-.39-.88.17-1.63.61-2.44.95-.64.27-1.23.33-1.91.27-.83-.06-1.62-.06-2.46-.03-.75.04-1.38-.16-2.11-.3-1.62-.32-3.49.21-5.03.73-.74.25-1.48.56-2.27.65-.66.07-1.2-.11-1.81-.33-1.43-.5-3.01.02-4.4-.64-.73-.34-1.34-.81-2.11-1.05-.6-.18-1.23-.27-1.81-.5-.49-.19-.88-.48-1.21-.9-.4-.51-.66-1.01-1.31-1.23-.79-.27-1.62-.3-2.37-.68-.5-.26-.94-.63-1.25-1.11-.63-.96-.7-2.22-.58-3.34.07-.67.4-1.17.73-1.74.24-.42.38-.8.27-1.28-.11-.4-.36-.77-.53-1.15-.35-.78-.54-1.59-.7-2.42-.16-.71-.23-1.61-.7-2.2-.73-.92-1.84-1.58-2.31-2.72-.1-.23-.13-.42-.05-.66.03-.08.07-.15.11-.21.02-.16.03-.33.04-.49,0,0-.02-.02-.02-.04-.13-.27-.26-.43-.29-.75-.04-.21-.05-.41-.06-.61,0,0,0-.02,0-.03-.32-.64-.64-1.26-.84-1.95-.38-1.36.24-2.34,1.29-3.18.6-.48,1.1-.94,1.57-1.55.44-.57.93-.99,1.48-1.45.56-.47,1.13-.97,1.5-1.61.37-.63.4-1.31.36-2.02-.05-.57-.13-1.13,0-1.68.13-.53.46-.98.82-1.37,2.02-2.18,5.35-2.41,8.15-2.49.71,0,1.44.04,2.13.23.7.19,1.33.54,1.98.86,1.55.75,3.33,1.33,5.06.93.75-.17,1.48-.44,2.23-.59.79-.16,1.59-.2,2.39-.24,1.77-.08,3.55-.43,5.33-.35,1.66.07,3.37.36,5,.7,1.64.33,3.16,1.04,4.77,1.45,2.47.62,5.3,1.02,7.13,2.97.55.58.74,1.27,1.12,1.95.37.64.89,1.2,1.34,1.78.42.56.8,1.13,1.08,1.77.34.77.69,1.48,1.39,1.98Zm4.45,4.47c.2-.46.48-1.02.33-1.52-.18-.62-.96-.99-1.51-1.19-1.3-.48-2.75-.52-3.86-1.45-1.05-.9-1.34-2.29-2.12-3.38-.45-.63-.98-1.22-1.42-1.86-.38-.57-.53-1.25-.92-1.8-.81-1.13-2.23-1.78-3.51-2.21-1.2-.39-2.43-.64-3.65-.95-1.55-.38-3-1.07-4.56-1.41-1.65-.37-3.38-.64-5.06-.71-1.65-.08-3.27.25-4.91.32-.94.05-1.9.06-2.83.27-.7.16-1.36.39-2.06.56-1.41.32-2.81.07-4.16-.42-1.45-.53-2.71-1.45-4.27-1.56-1.51-.11-3.13.07-4.61.33-1.43.26-2.77.75-3.81,1.8-.53.52-.91,1.09-.9,1.85,0,.53.11,1.05.1,1.58-.03,1.23-.7,2.2-1.6,3-.52.47-1.13.85-1.6,1.37-.47.52-.84,1.11-1.39,1.56-.58.49-1.28.9-1.66,1.58-.33.6-.21,1.23,0,1.84.11.32.25.63.39.93.12,0,.24.04.27.18.07.23.11.46.14.69.05.1.09.2.13.31.09.23.12.45.13.66.02.02.03.04.04.06.05.09.13.16.16.27.2.49-.33.82-.18,1.26.16.52.71,1.02,1.08,1.41.38.42.85.76,1.2,1.22.46.6.56,1.42.71,2.14.15.73.29,1.46.56,2.16.26.67.76,1.32.8,2.06.04.59-.27,1.09-.57,1.56-.66,1.1-.75,2.64-.2,3.82.31.67.87,1.14,1.55,1.4.68.25,1.41.27,2.09.54,1.06.41,1.31,1.65,2.35,2.07.64.26,1.33.34,1.98.56.57.18,1.08.47,1.58.77.74.45,1.43.57,2.29.58.66,0,1.33,0,1.96.15.84.2,1.47.6,2.37.44.72-.13,1.4-.42,2.09-.65,1.37-.44,2.85-.78,4.3-.73.81.03,1.56.39,2.38.4.8,0,1.59-.12,2.4-.05.72.05,1.39.11,2.08-.16.69-.27,1.3-.64,2.01-.83,1.47-.39,2.91-.24,4.39,0,.79.13,1.59.25,2.35.49.61.19,1.16.51,1.75.77.8.37,1.74.67,2.63.48.7-.15,1.23-.64,1.75-1.11,1.12-1.02,2.52-1.79,3.07-3.28.5-1.35.43-2.9.54-4.33.13-1.47.39-2.84,1.02-4.18.37-.8.77-1.57,1.02-2.41.17-.57.28-1.16.47-1.73.37-1.13,1.02-2.11,2.17-2.54.79-.29,1.51-.42,1.97-1.2.32-.55.53-1.18.79-1.76Z"/><path class="cls-1" d="m666.32,55.32c.15.5-.13,1.06-.33,1.52-.26.58-.47,1.21-.79,1.76-.46.78-1.18.91-1.97,1.2-1.15.43-1.8,1.42-2.17,2.54-.18.57-.29,1.16-.47,1.73-.25.84-.65,1.62-1.02,2.41-.63,1.34-.9,2.71-1.02,4.18-.11,1.43-.04,2.97-.54,4.33-.55,1.49-1.96,2.27-3.07,3.28-.51.47-1.04.96-1.75,1.11-.89.19-1.82-.11-2.63-.48-.59-.26-1.13-.58-1.75-.77-.76-.25-1.56-.37-2.35-.49-1.48-.25-2.92-.4-4.39,0-.71.19-1.33.57-2.01.83-.69.27-1.35.22-2.08.16-.8-.06-1.59.06-2.4.05-.81,0-1.56-.38-2.38-.4-1.45-.05-2.93.29-4.3.73-.7.23-1.37.52-2.09.65-.9.16-1.53-.24-2.37-.44-.63-.16-1.3-.14-1.96-.15-.86,0-1.55-.13-2.29-.58-.5-.3-1.02-.59-1.58-.77-.65-.22-1.34-.3-1.98-.56-1.04-.42-1.29-1.66-2.35-2.07-.68-.27-1.41-.29-2.09-.54-.69-.26-1.24-.73-1.55-1.4-.55-1.18-.46-2.73.2-3.82.29-.48.6-.98.57-1.56-.04-.74-.54-1.39-.8-2.06-.27-.7-.41-1.43-.56-2.16-.16-.72-.26-1.54-.71-2.14-.35-.46-.81-.8-1.2-1.22-.37-.39-.91-.89-1.08-1.41-.15-.44.38-.77.18-1.26-.04-.11-.11-.17-.16-.27,0-.03-.02-.05-.04-.06,0-.21-.04-.43-.13-.66-.04-.11-.08-.21-.13-.31-.03-.23-.06-.46-.14-.69-.04-.15-.16-.19-.27-.18-.15-.3-.28-.61-.39-.93-.21-.61-.33-1.23,0-1.84.38-.69,1.08-1.09,1.66-1.58.55-.46.92-1.04,1.39-1.56.48-.52,1.08-.91,1.6-1.37.9-.8,1.57-1.77,1.6-3,0-.53-.09-1.05-.1-1.58,0-.76.37-1.33.9-1.85,1.04-1.05,2.39-1.55,3.81-1.8,1.48-.26,3.1-.44,4.61-.33,1.56.12,2.83,1.03,4.27,1.56,1.35.49,2.75.74,4.16.42.7-.16,1.36-.4,2.06-.56.92-.21,1.88-.23,2.83-.27,1.65-.07,3.27-.4,4.91-.32,1.68.07,3.41.35,5.06.71,1.55.34,3.01,1.02,4.56,1.41,1.22.31,2.45.56,3.65.95,1.28.43,2.7,1.08,3.51,2.21.39.55.55,1.23.92,1.8.44.64.97,1.23,1.42,1.86.79,1.1,1.07,2.49,2.12,3.38,1.11.93,2.56.97,3.86,1.45.55.2,1.33.57,1.51,1.19Z"/><path class="cls-1" d="m609.64,87.44c.12.75.29,1.63-.17,2.3-.16.25-.4.43-.59.66-.36.41-.25.89-.44,1.36-.27.7-1.04,1.21-1.66,1.56-.36.21-.73.37-1.13.42-.43.06-.87,0-1.28.1-.48.14-.88.45-1.3.68-.43.24-.89.41-1.35.55-1.68.5-4.03.31-5.25-1.11-.59-.68-.82-1.56-1.42-2.23-.66-.73-1.42-1.34-2.02-2.1-.62-.79-1.04-1.59-1.23-2.57-.17-.91-.34-2.08-1.25-2.56-.7-.38-1.55.27-2.26.38-.43.05-.85-.02-1.28-.08-.57-.08-1.13-.09-1.68-.07-1.94.04-4.02.17-5.67-1.07-.66-.49-.93-1.12-.81-1.94.04-.29.07-.58.11-.87,0-.19,0-.38.02-.58.05-1.15-.07-2.22-.32-3.34-.2-.94-.39-1.89-.24-2.85.13-.8.49-1.45,1.01-2.06.46-.55,1.03-1.06,1.25-1.77.26-.81-.09-1.68-.23-2.49-.11-.7-.16-1.44.12-2.1.74-1.73,2.97-1.68,4.32-2.68.7-.51,1.29-.93,2.17-1.05.96-.12,1.92-.02,2.87.11.9.13,1.88.21,2.73.51.83.29,1.27.84,1.83,1.47,1.13,1.27,3.12.88,4.33,2.01.63.59,1,1.47,1.38,2.23.43.83.9,1.64,1.45,2.39.59.79,1.29,1.48,2.08,2.08.76.58,1.59,1.06,2.35,1.66,1.3,1.01,2.84,2.44,2.84,4.22,0,.93-.3,1.82-.37,2.74-.08,1.02.35,1.9.63,2.86.31,1.04.33,2.17.5,3.24Zm-.63,1.97c.48-.76,0-2.02-.12-2.84-.15-.96-.21-1.87-.52-2.8-.29-.84-.54-1.62-.47-2.52.07-.86.35-1.7.37-2.57.02-.98-.53-1.79-1.16-2.5-1.19-1.33-2.77-2.15-4.12-3.28-1.31-1.11-2.31-2.5-3.1-4.01-.4-.77-.74-1.61-1.3-2.29-.55-.66-1.47-.83-2.26-1.05-.62-.17-1.25-.34-1.77-.74-.64-.49-.98-1.24-1.72-1.63-.76-.38-1.68-.45-2.52-.58-.97-.16-1.97-.29-2.95-.22-1.01.08-1.62.56-2.4,1.12-.71.51-1.54.7-2.34,1.02-.88.34-1.65.9-1.77,1.88-.11.76.1,1.54.25,2.28.14.66.21,1.28-.05,1.92-.23.55-.62.99-1.01,1.43-.53.6-.98,1.19-1.14,1.98-.22,1.06.07,2.13.29,3.16.08.37.14.72.18,1.08.07,0,.15.06.16.16.08.95.17,1.93,0,2.87-.09.53-.22,1.08.16,1.52.27.31.65.51,1.02.69.92.42,1.94.54,2.95.55.99,0,2.01-.13,2.99.02.45.05.89.2,1.34.2.46,0,.88-.2,1.32-.32.52-.15,1.06-.22,1.55.08.59.35,1.02,1.03,1.23,1.68.31.91.34,1.86.82,2.73.48.86,1.14,1.6,1.84,2.29.62.61,1.11,1.23,1.48,2.02.46.94,1.02,1.52,2.03,1.88,1.04.37,2.14.35,3.19.04.89-.27,1.57-.81,2.41-1.18.78-.34,1.63-.1,2.4-.49.41-.21.8-.49,1.14-.8.42-.36.54-.7.59-1.25.06-.7.62-.99.98-1.53Z"/><path class="cls-1" d="m608.89,86.57c.12.81.6,2.08.12,2.84-.36.54-.91.82-.98,1.53-.05.55-.17.9-.59,1.25-.35.3-.73.59-1.14.8-.77.39-1.62.16-2.4.49-.84.37-1.53.91-2.41,1.18-1.05.31-2.15.33-3.19-.04-1.01-.36-1.57-.93-2.03-1.88-.38-.79-.86-1.41-1.48-2.02-.7-.69-1.36-1.43-1.84-2.29-.48-.88-.51-1.82-.82-2.73-.21-.65-.64-1.34-1.23-1.68-.49-.3-1.03-.23-1.55-.08-.44.12-.86.31-1.32.32-.46,0-.9-.15-1.34-.2-.98-.15-2-.02-2.99-.02-1.01,0-2.02-.13-2.95-.55-.37-.17-.75-.38-1.02-.69-.38-.44-.26-.99-.16-1.52.17-.94.08-1.92,0-2.87,0-.1-.08-.16-.16-.16-.05-.36-.1-.71-.18-1.08-.22-1.03-.51-2.1-.29-3.16.16-.8.61-1.38,1.14-1.98.38-.44.78-.88,1.01-1.43.26-.64.18-1.26.05-1.92-.15-.74-.36-1.52-.25-2.28.13-.98.9-1.54,1.77-1.88.8-.31,1.63-.5,2.34-1.02.78-.56,1.39-1.03,2.4-1.12.98-.07,1.98.06,2.95.22.83.13,1.76.19,2.52.58.74.38,1.08,1.13,1.72,1.63.52.4,1.15.57,1.77.74.79.22,1.71.39,2.26,1.05.56.68.9,1.52,1.3,2.29.8,1.51,1.79,2.9,3.1,4.01,1.34,1.13,2.93,1.96,4.12,3.28.63.7,1.18,1.52,1.16,2.5-.02.87-.29,1.71-.37,2.57-.07.91.17,1.68.47,2.52.31.93.38,1.84.52,2.8Z"/><path class="cls-1" d="m607.35,112.11c-.14,1.29.2,2.56.12,3.86-.09,1.4-.61,2.73-.71,4.13-.09,1.32-.05,2.68,0,4,.03,1.02,0,2.05-.79,2.79-.8.76-1.9,1.12-2.89,1.55-1.17.53-2.28,1-3.55,1.24-2.09.42-4.5.1-6.35,1.35-1.09.73-1.63,2.03-2.24,3.16-.55,1.02-1.17,2.02-1.84,2.95-.6.85-1.34,1.34-2.39,1.47-.73.1-1.46.09-2.19.2-.56.09-1.1.17-1.66.06-.58-.11-1.11-.45-1.69-.5-.67-.05-1.4.21-2.07.3-1.02.14-2.2.14-3.12-.38-.7-.38-1.02-1.07-1.24-1.78-.23-.68-.46-1.32-.8-1.95-.27-.49-.58-.97-.83-1.47-.6-1.16-.75-2.49-1.36-3.63-.48-.87-1.01-2.1-1.88-2.63-.53-.33-1.31-.31-1.91-.43-.64-.13-1.27-.27-1.89-.45-.63-.18-1.2-.3-1.87-.31-.4,0-.84-.02-1.17-.28-.68-.55-.44-1.55-.31-2.31-.07-.63,0-1.3,0-1.93,0-.35,0-.68,0-1.01-.03-.11-.05-.21-.08-.32-.05-.16,0-.27.12-.32.05-.64.16-1.26.41-1.92.48-1.31.9-2.46.77-3.89-.16-1.92-.93-4.66,1.13-5.83.94-.53,2.05-.65,3.09-.82,1.38-.22,2.76-.49,4.13-.83,1.3-.33,2.59-.71,3.87-1.13,1.21-.38,2.4-.82,3.48-1.48,1-.61,1.77-1.55,2.79-2.12.91-.51,2-.55,3.01-.32.67.15,1.31.39,1.97.56.7.17,1.4.25,2.12.25,1.38,0,2.75-.26,4.13-.34,1.2-.06,2.54-.2,3.7.22,1.02.38,1.86,1.33,2.58,2.1.41.44.74.93,1.03,1.45.29.51.51,1.08.93,1.52.68.71,1.77,1.52,2.76,1.71.8.16,1.8.05,2.41.7.65.71.41,1.91.32,2.78Zm-.48,4.84c.28-1.39-.1-2.71-.09-4.1,0-.91.53-2.38-.12-3.15-.56-.67-1.79-.4-2.54-.67-.87-.31-1.72-.91-2.4-1.53-.78-.71-1.1-1.72-1.69-2.57-.38-.54-.86-.99-1.33-1.45-.42-.41-.87-.84-1.41-1.09-1.09-.49-2.51-.31-3.67-.24-1.28.07-2.55.29-3.84.32-1.28.04-2.46-.22-3.69-.59-1.14-.36-2.41-.58-3.5.06-.93.55-1.66,1.41-2.57,1.98-.95.6-1.99,1.04-3.06,1.41-2.39.82-4.85,1.48-7.34,1.95-1.12.21-2.27.3-3.37.61-.55.16-1.12.39-1.53.8-.41.4-.52.93-.56,1.49-.05,1.16.15,2.32.25,3.48.11,1.25-.13,2.33-.59,3.49-.25.61-.48,1.22-.6,1.86-.04.19-.05.38-.06.57.02.02.03.04.04.05.17.48.2.97.2,1.47,0,.47.07.94.04,1.41-.03.31-.16.8-.22,1.26h0c.02.06,0,.1-.02.14-.05.53.04.99.57,1.09.48.07.95,0,1.43.08.61.13,1.21.35,1.81.49.63.16,1.26.29,1.9.4.47.08.91.12,1.31.38.76.49,1.22,1.37,1.66,2.15.58,1,.91,2,1.27,3.1.4,1.19,1.16,2.18,1.7,3.3.38.81.45,1.9,1.08,2.57.73.8,2.13.8,3.12.7.63-.05,1.27-.25,1.91-.27.46,0,.86.16,1.27.32,1.23.48,2.63.09,3.9-.12.59-.1,1.23-.2,1.72-.56.4-.3.69-.71.95-1.13.62-.97,1.27-1.9,1.86-2.89.55-.92,1.11-1.9,1.97-2.58.75-.59,1.63-.92,2.55-1.11.95-.2,1.91-.28,2.87-.4,1.23-.16,2.4-.49,3.55-.96,1.02-.4,2.09-.84,3.05-1.35.48-.27,1.01-.6,1.27-1.1.28-.51.27-1.14.25-1.71-.04-1.2-.05-2.41,0-3.6.05-1.32.45-2.52.71-3.81Z"/><path class="cls-1" d="m606.77,112.85c0,1.39.38,2.71.09,4.1-.27,1.28-.66,2.49-.71,3.81-.05,1.2-.04,2.41,0,3.6.02.57.04,1.2-.25,1.71-.27.49-.79.83-1.27,1.1-.96.51-2.03.95-3.05,1.35-1.15.47-2.31.8-3.55.96-.96.12-1.92.2-2.87.4-.92.18-1.8.52-2.55,1.11-.86.68-1.42,1.66-1.97,2.58-.59.99-1.23,1.92-1.86,2.89-.27.41-.55.82-.95,1.13-.49.36-1.13.46-1.72.56-1.27.21-2.66.6-3.9.12-.41-.16-.81-.33-1.27-.32-.64.02-1.28.21-1.91.27-.99.09-2.39.09-3.12-.7-.63-.67-.7-1.76-1.08-2.57-.54-1.13-1.3-2.11-1.7-3.3-.37-1.1-.7-2.1-1.27-3.1-.44-.78-.9-1.66-1.66-2.15-.4-.27-.84-.3-1.31-.38-.64-.11-1.27-.25-1.9-.4-.6-.15-1.2-.37-1.81-.49-.48-.09-.95,0-1.43-.08-.53-.1-.62-.56-.57-1.09.02-.04.04-.07.02-.13h0c.05-.48.19-.96.22-1.27.04-.47-.03-.94-.04-1.41,0-.5-.03-1-.2-1.47,0-.02-.02-.04-.04-.05.02-.18.03-.38.06-.57.12-.64.36-1.24.6-1.86.47-1.15.7-2.23.59-3.49-.1-1.15-.3-2.31-.25-3.48.04-.56.15-1.09.56-1.49.41-.41.98-.64,1.53-.8,1.1-.31,2.25-.4,3.37-.61,2.49-.47,4.95-1.13,7.34-1.95,1.06-.37,2.1-.8,3.06-1.41.91-.58,1.64-1.44,2.57-1.98,1.09-.64,2.36-.42,3.5-.06,1.23.38,2.41.63,3.69.59,1.29-.03,2.56-.25,3.84-.32,1.16-.07,2.58-.26,3.67.24.54.25.99.68,1.41,1.09.47.46.95.91,1.33,1.45.59.85.91,1.86,1.69,2.57.68.62,1.53,1.22,2.4,1.53.75.27,1.98,0,2.54.67.65.77.13,2.24.12,3.15Z"/><path class="cls-1" d="m677.3,177.35c.2.67.55,1.62.16,2.22-.17.62-.95,1.23-1.38,1.55-1.18.85-2.52,1.13-3.84,1.67-1.72.7-2.39,2.31-2.97,3.94-.29.8-.45,1.67-.85,2.42-.07.15-.17.27-.26.41-.27.59-.75,1.02-1.08,1.57-.31.51-.54,1.08-.94,1.54-.47.54-1.05.7-1.73.79-.88.12-1.77.23-2.64.32-.79.09-1.54.13-2.32.08-.71-.04-1.59-.16-2.24.2s-.8,1.12-1.28,1.63c-.45.48-1.13.65-1.74.85-1.97.64-4.27.38-6.11-.54-2.44-1.23-2.78-3.81-3.02-6.27-.07-.77-.14-1.55-.34-2.3-.19-.74-.55-1.41-.91-2.08-.74-1.37-1.08-2.79-1.47-4.29-.63-2.41-1.99-4.64-4.5-5.39-1.12-.33-2.29-.33-3.39-.69-.53-.16-1.05-.38-1.48-.73-.44-.36-.71-.88-.98-1.37-.33-.62-.62-1.28-1.12-1.8-.41-.46-.94-.74-1.45-1.06-.89-.53-1.45-1.19-1.26-2.28.15-.85.43-1.66.45-2.53.02-.81-.22-1.55-.5-2.31-.55-1.47-1.27-2.86-1.88-4.3-.6-1.46-.99-2.9-1.02-4.49-.02-1.01.1-1.98.2-2.97.02-.79.06-1.56.15-2.35.1-.99.18-1.98.28-2.95.08-.86.15-1.78.41-2.61.24-.75.69-1.4,1.15-2.02.48-.64.89-1.31,1.34-1.97.86-1.24,2.09-2.47,3.54-2.98,1.27-.45,2.24.34,3.18,1.08.65.5,1.37.83,2.09,1.22.82.44,1.62.99,2.46,1.38.8.38,1.8.2,2.63,0,.83-.19,1.64-.5,2.42-.84,1.51-.65,2.97-1.44,4.56-1.86,1.83-.49,3.74-.38,5.61-.51,1.7-.14,3.34-.22,5.03,0,.59.07,1.16.2,1.55.68.42.5.4,1.16.48,1.77.23,1.73,1.45,2.87,2.48,4.17,1.06,1.34.44,2.63-.11,4.04-.36.92-.4,1.77-.1,2.73.26.81.64,1.58.9,2.41.46,1.46.59,3.49,1.77,4.59,1.01.95,2.42,1.34,3.57,2.08.59.38,1.06.88,1.46,1.45.48.68.96,1.34,1.45,1.99.47.64.64,1.27.59,2.07-.05.87-.14,1.7-.06,2.58.16,1.68.28,3.61,1.02,5.16.41.88,1.03,1.66,1.45,2.53.36.74.37,1.56.6,2.34Zm-.41,1.58c-.02-.07,0-.14.05-.18-.04-.38-.2-.81-.26-.99-.2-.67-.23-1.37-.42-2.05-.26-.89-.91-1.68-1.35-2.48-.76-1.37-.93-2.9-1.11-4.43-.1-.8-.19-1.59-.22-2.39-.03-.82.25-1.73.05-2.52-.19-.76-.87-1.33-1.32-1.95-.44-.61-.8-1.28-1.39-1.78-1.01-.86-2.37-1.17-3.48-1.88-1.21-.79-1.73-1.92-2.12-3.28-.22-.77-.39-1.55-.63-2.32-.25-.76-.6-1.47-.84-2.23-.24-.71-.35-1.47-.2-2.22.15-.78.57-1.47.84-2.2.33-.87.3-1.57-.3-2.31-.44-.55-.91-1.06-1.34-1.62-.42-.57-.78-1.18-1-1.85s-.15-1.39-.37-2.04c-.26-.77-1.12-.8-1.79-.86-.7-.05-1.41-.14-2.12-.13-.92.02-1.84.14-2.76.18-.93.05-1.87.05-2.8.11-1.74.11-3.28.61-4.87,1.32-1.42.63-2.84,1.34-4.35,1.7-.7.16-1.45.28-2.18.21-.71-.08-1.32-.51-1.92-.87-1.31-.8-2.7-1.4-3.89-2.37-.5-.4-1.05-.85-1.74-.86-.77,0-1.55.54-2.13,1-1.33,1.02-2.08,2.47-3.06,3.79-.47.63-.95,1.28-1.18,2.05-.26.87-.31,1.8-.39,2.7-.13,1.35-.36,2.7-.49,4.05,0,.47-.02.94-.05,1.43-.05.83-.03,1.66.02,2.49.09,1.85.71,3.49,1.46,5.17.68,1.49,1.49,3,1.9,4.59.2.81.16,1.64.03,2.45-.11.67-.54,1.55-.31,2.22.17.49.73.75,1.14,1,.47.27.93.57,1.32.95.45.46.76,1.01,1.05,1.56.28.53.55,1.19,1.01,1.59.81.71,2.12.89,3.16,1.02,1.06.13,2.09.4,3.02.95,2.04,1.22,3.02,3.43,3.53,5.65.17.78.32,1.55.59,2.31.25.69.59,1.34.89,1.99.55,1.21.83,2.46,1,3.77.18,1.45.27,3,.95,4.33.52,1.01,1.4,1.64,2.44,2.04,1.02.39,2.14.59,3.23.57.54,0,1.06-.07,1.57-.23.56-.17,1.26-.3,1.69-.72s.58-1.04.99-1.47c.38-.38.85-.59,1.37-.67,1.23-.18,2.5.03,3.73-.11.86-.09,1.71-.19,2.55-.3.65-.08,1.16-.15,1.62-.63.42-.44.69-1,1.05-1.47.12-.15.25-.28.38-.42.29-.45.63-.86.86-1.35.36-.77.52-1.62.8-2.41.47-1.31.97-2.67,2.09-3.55,1.19-.93,2.75-1.07,4.04-1.82.44-.26,1.2-.71,1.63-1.26-.12-.18-.09-.48.18-.59.05-.02.09-.05.12-.1,0-.08.02-.16,0-.25Z"/><path class="cls-1" d="m676.95,178.75s-.07.11-.05.18c0,.08,0,.16,0,.25-.03.05-.06.08-.12.1-.27.11-.3.41-.18.59-.43.55-1.19,1.01-1.63,1.26-1.29.75-2.85.89-4.04,1.82-1.13.88-1.63,2.24-2.09,3.55-.28.8-.45,1.65-.8,2.41-.23.49-.57.91-.86,1.35-.13.14-.26.27-.38.42-.37.48-.63,1.03-1.05,1.47-.46.48-.97.55-1.62.63-.84.11-1.69.21-2.55.3-1.23.14-2.5-.07-3.73.11-.52.08-1,.28-1.37.67-.41.43-.56,1.05-.99,1.47s-1.13.55-1.69.72c-.51.16-1.03.22-1.57.23-1.09.02-2.2-.17-3.23-.57-1.04-.4-1.92-1.03-2.44-2.04-.68-1.33-.77-2.87-.95-4.33-.16-1.31-.45-2.56-1-3.77-.3-.66-.64-1.31-.89-1.99-.27-.75-.41-1.53-.59-2.31-.51-2.22-1.49-4.44-3.53-5.65-.92-.55-1.96-.82-3.02-.95-1.04-.14-2.35-.31-3.16-1.02-.46-.4-.72-1.06-1.01-1.59-.29-.56-.6-1.11-1.05-1.56-.38-.38-.85-.68-1.32-.95-.41-.25-.97-.5-1.14-1-.23-.67.2-1.55.31-2.22.14-.81.17-1.64-.03-2.45-.41-1.59-1.23-3.1-1.9-4.59-.75-1.67-1.37-3.32-1.46-5.17-.05-.83-.07-1.66-.02-2.49.04-.48.06-.96.05-1.43.14-1.35.37-2.7.49-4.05.08-.9.14-1.83.39-2.7.23-.77.71-1.42,1.18-2.05.98-1.32,1.73-2.76,3.06-3.79.59-.46,1.36-1,2.13-1,.69,0,1.23.46,1.74.86,1.19.97,2.58,1.57,3.89,2.37.6.36,1.21.79,1.92.87.72.07,1.48-.05,2.18-.21,1.52-.36,2.94-1.07,4.35-1.7,1.58-.7,3.13-1.21,4.87-1.32.93-.06,1.87-.05,2.8-.11.92-.05,1.84-.16,2.76-.18.71,0,1.42.07,2.12.13.68.06,1.54.09,1.79.86.22.65.15,1.37.37,2.04s.58,1.28,1,1.85c.42.56.9,1.07,1.34,1.62.6.74.63,1.45.3,2.31-.27.72-.7,1.42-.84,2.2-.15.75-.04,1.51.2,2.22.24.76.59,1.47.84,2.23.24.77.41,1.55.63,2.32.39,1.36.91,2.5,2.12,3.28,1.11.71,2.47,1.02,3.48,1.88.59.5.95,1.17,1.39,1.78.45.62,1.13,1.19,1.32,1.95.2.8-.07,1.7-.05,2.52.03.8.12,1.59.22,2.39.17,1.53.35,3.06,1.11,4.43.45.8,1.1,1.59,1.35,2.48.19.68.22,1.38.42,2.05.05.17.22.61.26.99Z"/><path class="cls-1" d="m707.16,151.61c.56,1.45.66,3.14.46,4.67-.12.85-.3,1.7-.3,2.56,0,.81.18,1.61.26,2.42.12,1.49-.4,2.63-1.34,3.76-.49.6-1.02,1.17-1.4,1.87-.27.48-.51.97-.89,1.37-.55.59-1.24,1-1.68,1.68-.32.49-.56,1.03-.97,1.47-.98,1.03-2.16.68-3.42.78-.27.03-.55.05-.84.08-.02.06-.08.12-.16.09-.12-.03-.25-.04-.37-.06-.48.02-.94-.02-1.36-.19-.19-.02-.39-.05-.58-.06-.67-.05-1.46-.04-2.05.31-.89.53-1.13,1.7-1.91,2.34-1.34,1.08-3.52.84-4.46-.65-.51-.81-.42-1.85-.62-2.76-.14-.66-.36-1.3-.61-1.93-.13-.31-.24-.59-.15-.93.16-.58.55-1.08.74-1.65.25-.71.35-1.48.4-2.22.09-1.4-.05-2.79-.18-4.18-.12-1.3-.45-2.67-1.22-3.75-.71-1.02-1.77-1.76-2.63-2.63-.98-.99-1.9-2.01-2.8-3.06-.86-.98-1.8-1.98-2.5-3.09-1.26-1.99-.39-4.61-1.79-6.55-1.18-1.64-3.31-2.2-4.88-3.36-.81-.6-1.38-1.33-1.76-2.27-.22-.54-.38-1.12-.67-1.63-.25-.44-.59-.8-.96-1.13-.77-.68-1.56-1.23-1.81-2.29-.12-.48-.1-.98-.14-1.46-.05-.72-.27-1.39-.46-2.09,0,0,0,0,0-.02-.24-.9-.34-1.81-.12-2.73.3-1.26,1.33-2.22,1.49-3.51.07-.61-.02-1.23.12-1.84.15-.6.47-1.13.76-1.66.71-1.28.96-2.66,1.37-4.05.25-.84.7-1.64,1.5-2.04,1.1-.55,2.47-.49,3.65-.35,2.81.36,5.63.1,8.44.48,2.63.34,5.01,1.14,7.26,2.56,1.1.7,2.07,1.52,3.06,2.36.88.73,1.98,1.24,2.72,2.14.68.81.77,1.77.82,2.79.04.66.06,1.36.39,1.96.31.57.88.8,1.33,1.23.79.74,1.14,2.02,1.4,3.04.16.6.29,1.21.58,1.77.27.5.6,1,.91,1.48.71,1.11,2.1,1.54,2.95,2.52.38.43.64.94.93,1.45.31.54.69,1.03,1.06,1.54.4.52.76,1.06,1.15,1.59.38.49.88.91,1.2,1.45.45.76.55,1.86.26,2.68,0,.02-.04.03-.05.05-.05.35-.13.68-.09,1.02.04.47.21.91.27,1.38.13.88.04,1.79-.14,2.66-.15.71-.41,1.39-.54,2.11-.16.89.05,1.66.36,2.49Zm-.39,7.44c-.05-1.51.44-2.97.38-4.49-.04-.82-.08-1.66-.35-2.43-.23-.67-.53-1.28-.59-1.98-.12-1.36.56-2.64.7-3.98.08-.8.06-1.55-.12-2.33-.15-.64-.18-1.16-.07-1.81.12-.73.12-1.45-.06-2.12-.22-.52-.63-.9-1-1.34-.42-.5-.77-1.05-1.15-1.57-.38-.5-.77-.98-1.12-1.5-.39-.59-.68-1.25-1.13-1.79-.46-.53-1.1-.91-1.66-1.33-.49-.37-.96-.7-1.32-1.22-.31-.47-.61-.96-.89-1.45-.56-.98-.67-2.12-1.04-3.17-.2-.56-.42-1.19-.84-1.63-.34-.36-.78-.59-1.1-.98-.68-.81-.74-1.88-.8-2.9-.05-1.17-.34-2.08-1.28-2.84-.46-.37-.97-.64-1.43-1-.46-.35-.9-.73-1.33-1.11-.97-.83-2-1.56-3.12-2.2-2.34-1.33-4.85-1.9-7.52-2.13-1.34-.12-2.67-.12-4.02-.1-1.31.03-2.57-.23-3.87-.3-1.12-.05-2.57,0-3.29.99-.63.88-.71,2.09-1.02,3.1-.34,1.1-.91,2.01-1.37,3.05-.45.97-.16,2.03-.47,3.04-.31,1.05-1.12,1.87-1.38,2.95-.28,1.13-.02,2.31.26,3.42,0,.03,0,.05,0,.07.12.37.22.74.28,1.13.09.54.13,1.12.33,1.63.42,1.11,1.72,1.63,2.41,2.56.68.91.8,2.1,1.45,3.05.66.96,1.78,1.53,2.78,2.07,1.66.9,3.33,1.87,3.99,3.75.38,1.1.35,2.28.51,3.42.09.6.24,1.22.54,1.76.32.57.78,1.06,1.17,1.57,1.65,2.12,3.38,4.12,5.37,5.93.81.74,1.52,1.52,1.96,2.53.48,1.13.67,2.31.78,3.54.13,1.43.25,2.86.08,4.29-.07.65-.17,1.31-.41,1.92-.18.48-.58.97-.66,1.47-.08.46.35,1.08.48,1.51.17.5.3,1.02.38,1.54.16.94.12,1.94.96,2.57.64.47,1.52.59,2.27.34.92-.31,1.27-1.14,1.8-1.88.53-.74,1.21-1.16,2.12-1.23.93-.07,2,.15,2.95.46.14,0,.27-.03.4-.04.53-.05,1.06-.14,1.6-.17.84-.04,1.64.18,2.36-.41.61-.49.85-1.28,1.32-1.89.38-.49.87-.85,1.32-1.26.48-.43.74-.95,1.04-1.51.61-1.11,1.62-1.93,2.22-3.04.8-1.47.22-2.97.17-4.53Z"/><path class="cls-1" d="m707.14,154.56c.06,1.52-.42,2.98-.38,4.49.05,1.55.63,3.06-.17,4.53-.6,1.11-1.61,1.93-2.22,3.04-.3.56-.57,1.08-1.04,1.51-.45.41-.94.77-1.32,1.26-.47.61-.7,1.4-1.32,1.89-.72.59-1.52.38-2.36.41-.54.04-1.07.13-1.6.17-.13,0-.27.03-.4.04-.94-.31-2.01-.53-2.95-.46-.91.07-1.59.49-2.12,1.23-.53.73-.88,1.56-1.8,1.88-.75.26-1.63.13-2.27-.34-.84-.63-.8-1.63-.96-2.57-.08-.52-.21-1.03-.38-1.54-.14-.43-.57-1.05-.48-1.51.08-.5.48-.99.66-1.47.24-.61.34-1.27.41-1.92.16-1.43.05-2.86-.08-4.29-.11-1.23-.29-2.41-.78-3.54-.44-1.02-1.14-1.79-1.96-2.53-1.98-1.81-3.72-3.81-5.37-5.93-.39-.51-.85-1.01-1.17-1.57-.3-.54-.45-1.15-.54-1.76-.16-1.14-.13-2.32-.51-3.42-.66-1.88-2.32-2.85-3.99-3.75-1-.54-2.12-1.11-2.78-2.07-.65-.94-.78-2.13-1.45-3.05-.7-.93-1.99-1.45-2.41-2.56-.2-.51-.24-1.09-.33-1.63-.06-.39-.16-.77-.28-1.13,0-.03.02-.05,0-.07-.27-1.12-.54-2.29-.26-3.42.27-1.09,1.07-1.9,1.38-2.95.3-1.01.02-2.07.47-3.04.47-1.03,1.03-1.95,1.37-3.05.3-1.01.38-2.22,1.02-3.1.72-.99,2.18-1.04,3.29-.99,1.3.07,2.56.33,3.87.3,1.34-.02,2.68-.02,4.02.1,2.67.23,5.18.8,7.52,2.13,1.12.63,2.15,1.36,3.12,2.2.43.38.87.76,1.33,1.11.46.36.97.63,1.43,1,.94.76,1.23,1.66,1.28,2.84.05,1.02.12,2.09.8,2.9.32.38.76.62,1.1.98.42.44.64,1.07.84,1.63.38,1.05.48,2.2,1.04,3.17.27.48.58.98.89,1.45.36.51.82.85,1.32,1.22.57.41,1.21.8,1.66,1.33.46.54.74,1.21,1.13,1.79.35.52.74,1,1.12,1.5.38.52.73,1.07,1.15,1.57.37.44.78.81,1,1.34.18.68.18,1.39.06,2.12-.11.65-.07,1.17.07,1.81.18.78.2,1.54.12,2.33-.15,1.34-.82,2.62-.7,3.98.05.7.36,1.32.59,1.98.27.78.31,1.61.35,2.43Z"/><path class="cls-1" d="m587.12,155.31c.02.59.05,1.28-.31,1.78-.3.42-.85.63-1.34.77-.72.21-1.49.22-2.24.31-.83.1-1.56.37-2.35.62-.47.16-.94.29-1.3.66-.26.25-.43.58-.6.88-.33.57-.66,1.08-1.19,1.47-.61.45-1.34.73-2.1.66-.78-.07-1.34-.18-2.03.24-.95.59-1.8,1.54-3.02,1.45-1.09-.06-1.8-.91-2.2-1.85-.44-1.02-.56-2.1-.82-3.16-.14-.58-.31-1.23-.73-1.66-.54-.57-1.51-.57-2.23-.61-1.36-.08-2.88-.14-3.68-1.45-.28-.47-.27-1.02-.27-1.55-.07-.04-.13-.11-.1-.21.2-.86-.03-1.71.3-2.57.27-.75.81-1.36,1.15-2.08.38-.8.58-1.68.61-2.56.04-.79-.05-1.6.22-2.35.48-1.36,1.84-2.04,3.18-2.2.77-.09,1.52-.16,2.29-.28.58-.09,1.17-.11,1.66.23.56.38.78,1.04,1.11,1.59.38.65,1.07,1.18,1.73,1.53.79.42,1.45.3,2.26.05.5-.16,1.03-.33,1.57-.21.61.14,1.03.58,1.39,1.07.49.68.94,1.09,1.78,1.3.82.21,1.69.1,2.52.3.63.15,1.08.6,1.64.88.65.31,1.41.34,1.98.8.48.38.66.95.81,1.52.42,1.54.25,3.07.29,4.65Zm-.57-2.14c0-.8-.07-1.57-.28-2.35-.21-.79-.5-1.3-1.31-1.56-.65-.22-1.21-.38-1.78-.77-.68-.46-1.27-.54-2.07-.59-1.23-.08-2.46-.32-3.24-1.36-.44-.59-.83-1.26-1.68-1.22-.57.04-1.1.33-1.65.44-1.22.26-2.27-.48-3.14-1.25-.9-.8-1.11-2.55-2.55-2.48-.6.04-1.18.22-1.78.27-.62.05-1.24.06-1.84.25-.72.23-1.42.73-1.77,1.42-.34.65-.29,1.41-.3,2.12-.03,1.27-.3,2.51-.92,3.62-.32.59-.73,1.11-.95,1.74,0,0,0,0,0,.02.27,1.35-.72,3.07.5,4.16,1.34,1.19,3.38.39,4.92,1.1.96.43,1.3,1.6,1.51,2.54.25,1.12.38,2.31.99,3.3.7,1.17,1.84,1.23,2.92.53.87-.58,1.65-1.36,2.75-1.35.5,0,.98.14,1.47,0,.33-.08.65-.23.92-.43.6-.41.89-1.02,1.25-1.62.72-1.2,2-1.55,3.28-1.92.7-.21,1.45-.27,2.18-.35.66-.06,1.36-.09,1.97-.41.69-.38.58-1.18.56-1.86-.02-.67.03-1.34.03-1.99Z"/><path class="cls-1" d="m586.27,150.82c.21.78.29,1.55.28,2.35,0,.66-.05,1.33-.03,1.99.02.68.13,1.48-.56,1.86-.6.32-1.31.35-1.97.41-.73.07-1.47.14-2.18.35-1.28.37-2.56.72-3.28,1.92-.37.6-.65,1.21-1.25,1.62-.27.2-.59.35-.92.43-.49.13-.97,0-1.47,0-1.11,0-1.88.78-2.75,1.35-1.08.7-2.22.64-2.92-.53-.6-1-.74-2.19-.99-3.3-.21-.94-.55-2.11-1.51-2.54-1.55-.7-3.58.09-4.92-1.1-1.23-1.09-.23-2.81-.5-4.16,0,0,0,0,0-.02.22-.63.63-1.15.95-1.74.62-1.12.9-2.35.92-3.62,0-.71-.04-1.47.3-2.12.35-.69,1.04-1.19,1.77-1.42.59-.18,1.22-.2,1.84-.25.6-.05,1.18-.24,1.78-.27,1.45-.07,1.66,1.68,2.55,2.48.87.77,1.92,1.51,3.14,1.25.55-.11,1.08-.4,1.65-.44.85-.05,1.24.62,1.68,1.22.78,1.04,2.01,1.28,3.24,1.36.8.05,1.39.14,2.07.59.58.38,1.13.55,1.78.77.8.27,1.1.78,1.31,1.56Z"/><path class="cls-1" d="m530.37,117.03c-.03.98.22,1.95.05,2.92-.12.7-.29,1.5-.77,2.04-.58.66-1.51.67-2.29.87-2,.51-2.22,3.05-3.72,4.21-.82.62-1.77.82-2.72,1.13-.59.19-1.13.47-1.51.97-.27.37-.48.79-.7,1.18-.45.8-1.09,1.23-1.75,1.83-.63.57-.76,1.41-1.31,2.03-1.32,1.51-3.39.45-4.93,0-.94-.28-1.88-.16-2.83-.35-.96-.18-1.53-.91-2.3-1.43-.9-.61-1.85-.67-2.87-.44-.89.2-1.78.52-2.71.41-.98-.12-1.57-.79-2.32-1.34-.75-.57-1.65-.68-2.46-1.11-.76-.4-1.49-1.07-1.84-1.87-.34-.79-.17-1.63-.24-2.45-.06-.88-.07-1.65.69-2.23.14-.11.28-.18.44-.26.27-.19.56-.35.88-.45.97-.29,2.34-.31,2.99-1.21.47-.64.39-1.64.52-2.4.16-.91.38-1.81.77-2.65.38-.8.94-1.35,1.6-1.94.41-.36.75-.73.87-1.28.09-.4.13-.82.27-1.22.29-.84.91-1.18,1.62-1.64.88-.59,1.47-1.4,2.23-2.12.42-.41.8-.81,1.14-1.29.2-.28.44-.52.71-.74.67-.52,1.51-.84,2.35-.97.8-.12,1.69-.05,2.47.22.45.16.78.47,1.18.69.48.26,1.08.27,1.6.37,1.71.3,3.77,1.06,4.97,2.38.62.69.89,1.5,1.18,2.36.39,1.17,1.32,1.82,2.3,2.49.49.34.98.7,1.55.89.5.17,1.03.25,1.55.3.85.08,2.01,0,2.75.48.55.36.59,1.02.57,1.62Zm-.95,4.28c.4-.7.57-1.66.51-2.44-.04-.48-.13-.97-.13-1.46,0-.35.06-.71,0-1.05-.18-.91-1.75-.8-2.46-.86-.89-.07-1.77-.18-2.58-.59-.83-.41-1.66-1.03-2.36-1.64-.7-.59-1.07-1.25-1.35-2.11-.29-.91-.66-1.7-1.41-2.32-.67-.57-1.49-.93-2.3-1.24-.93-.37-1.87-.55-2.84-.73-.94-.17-1.58-.88-2.52-1.06-.84-.16-1.69-.12-2.51.16-.91.31-1.52.84-2.09,1.6-.54.72-1.27,1.3-1.86,1.98-.55.64-1.21,1.1-1.91,1.54-.91.57-.98,1.31-1.2,2.28-.18.77-.73,1.25-1.3,1.75-1.39,1.2-1.85,2.99-2.03,4.76-.06.64-.09,1.34-.48,1.88-.42.61-1.17.91-1.86,1.1-.14.05-.27.07-.41.1.03.1-.02.23-.16.24-.53.05-1.26.13-1.79.44-.08.06-.17.15-.26.23-.15.16-.27.36-.38.56l-.03.05c-.08.44.09.91.12,1.34.03.41,0,.81.02,1.23.07.95.74,1.71,1.54,2.19.71.44,1.57.52,2.29.96.74.46,1.34,1.28,2.2,1.47.88.2,1.79-.16,2.64-.35.8-.18,1.62-.26,2.41,0s1.4.78,2.02,1.3c.78.66,1.57.59,2.52.71,1.62.2,3.84,1.97,5.42.85.68-.48.77-1.31,1.24-1.94.47-.6,1.17-.95,1.66-1.52.54-.63.8-1.45,1.38-2.05.61-.65,1.48-.91,2.31-1.15.96-.3,1.81-.72,2.44-1.53.54-.7.83-1.55,1.34-2.26.47-.66,1.05-1.17,1.84-1.4.8-.23,1.82-.17,2.3-.99Z"/><path class="cls-1" d="m529.93,118.87c.05.79-.11,1.75-.51,2.44-.48.81-1.49.76-2.3.99-.79.23-1.37.74-1.84,1.4-.51.71-.8,1.56-1.34,2.26-.63.8-1.48,1.23-2.44,1.53-.83.25-1.7.5-2.31,1.15-.58.59-.84,1.42-1.38,2.05-.48.57-1.19.91-1.66,1.52-.48.63-.57,1.45-1.24,1.94-1.57,1.12-3.8-.65-5.42-.85-.95-.13-1.75-.05-2.52-.71-.62-.52-1.23-1.05-2.02-1.3s-1.61-.17-2.41,0c-.85.18-1.77.55-2.64.35-.87-.19-1.46-1.02-2.2-1.47-.71-.44-1.57-.52-2.29-.96-.8-.48-1.46-1.23-1.54-2.19-.03-.41,0-.81-.02-1.23-.03-.43-.2-.9-.12-1.34l.03-.05c.11-.2.23-.39.38-.56.08-.08.17-.16.26-.23.53-.31,1.26-.39,1.79-.44.14,0,.18-.14.16-.24.14-.03.27-.05.41-.1.69-.18,1.44-.48,1.86-1.1.38-.54.41-1.24.48-1.88.18-1.77.64-3.56,2.03-4.76.57-.49,1.12-.98,1.3-1.75.22-.97.28-1.71,1.2-2.28.7-.44,1.36-.9,1.91-1.54.59-.69,1.32-1.26,1.86-1.98.57-.76,1.17-1.29,2.09-1.6.81-.27,1.66-.31,2.51-.16.94.18,1.58.89,2.52,1.06.98.18,1.91.37,2.84.73.8.31,1.63.68,2.3,1.24.75.62,1.12,1.41,1.41,2.32.28.86.66,1.52,1.35,2.11.7.6,1.53,1.23,2.36,1.64.8.4,1.69.51,2.58.59.71.06,2.28-.05,2.46.86.07.34,0,.7,0,1.05,0,.49.09.98.13,1.46Z"/><path class="cls-1" d="m510.66,217.85c.24.84.83,1.77.7,2.66-.08.56-.44,1.01-.73,1.46-.27.41-.48.86-.75,1.26-.5.73-1.24.91-2.09.93-.54,0-1.08-.03-1.62.06s-1.06.27-1.58.44c-.59.21-1.18.44-1.77.65-.44.16-.93.38-1.4.41-.7.05-1.18-.51-1.57-1.02-.63-.83-1.38-1.45-2.44-1.67-1.13-.24-2.31.03-3.44-.26-.92-.24-1.49-.94-2.15-1.58-.47-.45-.75-1.08-.83-1.74-.12-.48-.1-.96.31-1.35.38-.37.86-.44,1.34-.59.63-.2,1.14-.66,1.62-1.12.8-.77,1.54-1.69,2.61-2.11,1.09-.43,2.21-.03,3.32-.29.99-.24,1.72-1.17,2.52-1.75.83-.59,1.79-.94,2.83-.92.98.02,1.87.2,2.49,1,.66.84,1.29,1.66,1.71,2.65.4.93.66,1.9.93,2.87Zm-.27,3.63c.35-.5.61-1.01.46-1.63-.09-.38-.27-.71-.4-1.08-.62-1.74-.85-3.6-1.99-5.11-.29-.39-.59-.81-.91-1.17-.34-.38-.71-.53-1.21-.6-1.1-.17-2.15-.03-3.09.58-.75.48-1.34,1.13-2.09,1.62-.59.38-1.23.48-1.92.46-1.01-.02-1.91-.07-2.8.48-.77.48-1.35,1.2-2.02,1.81-.63.56-1.23.94-2.04,1.16,0,0,0,0,0,0-.45.22-.89.43-.88,1.02,0,.39.16.89.33,1.24.21.42.62.7.94,1.04.39.4.7.75,1.25.91,1.09.31,2.21.09,3.32.26.84.14,1.69.56,2.31,1.14.45.44.72,1.09,1.25,1.44.41.27.86.06,1.28-.08.47-.16.92-.34,1.39-.51.87-.32,1.77-.67,2.7-.8.79-.11,1.64.06,2.41-.17.51-.16.73-.52.99-.96.22-.38.48-.7.72-1.05Z"/><path class="cls-1" d="m510.84,219.85c.16.62-.11,1.13-.46,1.63-.24.35-.5.68-.72,1.05-.26.44-.48.8-.99.96-.77.24-1.62.06-2.41.17-.92.13-1.83.48-2.7.8-.47.17-.92.36-1.39.51-.42.15-.87.35-1.28.08-.53-.35-.8-1-1.25-1.44-.62-.59-1.47-1.01-2.31-1.14-1.11-.16-2.23.05-3.32-.26-.56-.16-.86-.51-1.25-.91-.32-.34-.73-.62-.94-1.04-.17-.36-.33-.85-.33-1.24,0-.59.43-.8.88-1.02,0,0,0,0,0,0,.81-.22,1.41-.6,2.04-1.16.67-.61,1.25-1.33,2.02-1.81.89-.56,1.79-.5,2.8-.48.69.02,1.34-.08,1.92-.46.74-.48,1.34-1.14,2.09-1.62.94-.6,1.99-.75,3.09-.58.49.07.87.22,1.21.6.32.36.61.78.91,1.17,1.14,1.51,1.37,3.38,1.99,5.11.13.37.31.7.4,1.08Z"/><path class="cls-1" d="m491.43,172.5c.08.84-.22,1.7-1.12,1.93-.63.16-1.3.05-1.93.19-.55.13-1.05.37-1.51.7-1.06.77-1.75,1.98-2.95,2.57-1.3.63-2.85,1-4.27,1.21-1.53.23-2.96-.02-4.46-.27s-2.82-.59-4.12-1.4c-1.06-.67-2.31-.85-2.86-2.11-.45-1.02-.48-2.14-.43-3.24.06-1.29.37-2.27,1.34-3.16.17-.16.35-.31.51-.47.42-.56.89-1.09,1.35-1.61.57-.64,1.11-1.3,1.38-2.11.21-.63.35-1.23.7-1.81.63-1.03,1.66-1.87,2.82-2.24,2.03-.66,4.43-.05,5.74,1.66.46.59.98,1.21,1.3,1.89.28.61.44,1.28.68,1.91.27.73.49,1.46,1.34,1.64.65.14,1.32.15,1.98.21,1.34.15,2.48.5,3.32,1.6.63.81,1.08,1.87,1.19,2.9Zm-.79.85c.34-.76-.23-1.93-.58-2.59-.65-1.22-1.6-1.78-2.95-1.95-1.02-.13-2.35.02-3.22-.6-.85-.6-1.13-2.01-1.41-2.95-.23-.74-.6-1.34-1.06-1.95-.33-.46-.65-.91-1.09-1.27-1.61-1.27-4.16-1.32-5.76-.04-.47.37-.86.8-1.15,1.32-.32.54-.43,1.13-.65,1.71-.36.91-1,1.65-1.67,2.34-.44.59-.91,1.15-1.42,1.68-.06.07-.13.15-.2.22-.4.59-.73,1.21-.97,1.86-.1.55-.13,1.11-.12,1.66,0,1.18.29,2.58,1.46,3.16.61.3,1.22.49,1.8.87.66.42,1.32.72,2.08.91,1.31.33,2.73.64,4.07.74,1.49.12,2.94-.2,4.36-.61.64-.18,1.33-.38,1.89-.77.47-.32.85-.74,1.24-1.15.71-.75,1.48-1.45,2.49-1.78.48-.16,1-.23,1.5-.29.48-.06,1.12,0,1.34-.52Z"/><path class="cls-1" d="m490.07,170.77c.35.66.91,1.83.58,2.59-.23.52-.87.46-1.34.52-.5.06-1.02.13-1.5.29-1.01.34-1.77,1.03-2.49,1.78-.39.41-.78.83-1.24,1.15-.57.38-1.25.59-1.89.77-1.43.41-2.87.73-4.36.61-1.34-.1-2.76-.41-4.07-.74-.76-.19-1.42-.49-2.08-.91-.59-.38-1.19-.57-1.8-.87-1.17-.58-1.45-1.98-1.46-3.16,0-.56.02-1.12.12-1.66.24-.65.57-1.27.97-1.86.07-.07.14-.15.2-.22.51-.53.98-1.1,1.42-1.68.68-.7,1.32-1.44,1.67-2.34.22-.58.33-1.17.65-1.71.29-.51.69-.95,1.15-1.32,1.6-1.28,4.15-1.23,5.76.04.44.36.76.81,1.09,1.27.46.61.83,1.21,1.06,1.95.28.93.56,2.34,1.41,2.95.87.62,2.2.48,3.22.6,1.34.16,2.3.73,2.95,1.95Z"/><path class="cls-1" d="m478.14,146.16c.52.29.91.7.73,1.34-.18.59-.74,1.02-1.16,1.45-.57.58-1.12,1.19-1.87,1.54-.7.33-1.46.3-2.2.15-.41-.08-.8-.21-1.22-.28-.45-.08-.86-.05-1.32-.05-1.38,0-2.14-.97-2.84-2.04-.25-.38-.47-.83-.87-1.07-.33-.19-.62-.3-.86-.61-.2-.26-.27-.54-.31-.82-.16-.36-.26-.74-.3-1.17-.05-.59-.05-1.16-.2-1.75-.11-.44-.26-.88-.3-1.34-.05-.63.16-1.24.65-1.67.91-.8,2.34-.83,3.44-.47.52.18,1.02.36,1.56.39.44.04.88.02,1.31.05.69.05,1.28.29,1.83.7,1.13.84,2.09,2.2,2.62,3.49.34.83.48,1.69,1.31,2.16Zm.02,1.34c.23-.44-.1-.59-.43-.78-1.21-.65-1.27-2.14-1.93-3.23-.63-1.06-1.45-2.3-2.63-2.8-.68-.3-1.46-.19-2.19-.29-.74-.09-1.37-.47-2.09-.63-.96-.22-2.48-.02-2.85,1.06-.26.74.16,1.55.3,2.28.11.58.06,1.17.15,1.75.14.33.21.69.35,1.01.11.17.24.34.38.49.27.2.59.28.84.5.29.26.5.62.72.93.36.51.7,1.11,1.23,1.48.62.44,1.28.26,1.99.31,1.45.11,2.74.92,4.11-.05.54-.39.99-.91,1.47-1.38.21-.19.45-.4.59-.66Z"/><path class="cls-1" d="m477.73,146.72c.33.18.66.34.43.78-.14.26-.38.47-.59.66-.48.47-.93.99-1.47,1.38-1.36.97-2.65.16-4.11.05-.71-.05-1.37.13-1.99-.31-.52-.38-.87-.97-1.23-1.48-.22-.31-.43-.68-.72-.93-.25-.22-.58-.3-.84-.5-.14-.16-.27-.32-.38-.49-.14-.32-.21-.68-.35-1.01-.08-.58-.04-1.17-.15-1.75-.14-.72-.56-1.54-.3-2.28.38-1.08,1.89-1.28,2.85-1.06.72.16,1.35.54,2.09.63.72.1,1.51,0,2.19.29,1.17.5,1.99,1.74,2.63,2.8.66,1.09.72,2.58,1.93,3.23Z"/><path class="cls-1" d="m522.8,70.19c1,2.41.35,5.84-2.09,7.14-.77.41-1.37.8-1.65,1.69-.19.6-.13,1.25-.42,1.83-.27.53-.77.93-1.35,1.08-.79.19-1.56-.06-2.36-.07-.9-.02-1.77.27-2.68.27-.81-.02-1.62-.14-2.43-.14-1.73,0-3.38.38-5.03.84-1.45.4-3.47.38-4.35,1.8-.36.58-.59,1.1-1.13,1.52-.11.09-.23.16-.35.23-.48.47-1.02.86-1.58,1.26-.48.34-.56.59-.7,1.13-.09.34-.26.64-.49.9-.48.49-1.13.69-1.75.88-.92.28-1.81.67-2.68,1.07-.78.36-1.55.74-2.24,1.24-.62.45-1.11,1.04-1.72,1.49-1.3.95-2.57-.03-3.71-.75-.66-.42-1.55-1.09-2.01-1.89-.02-.04-.05-.05-.06-.09-.18-.27-.34-.6-.42-.92-.21-.76.17-1.48.3-2.22.16-.91.06-1.86.2-2.77.13-.86.47-1.63.91-2.36.47-.79.86-1.62,1.31-2.41.43-.77.91-1.52,1.22-2.34.71-1.91-.09-4.02.54-5.94,0-.02.03-.03.04-.04,0-.5-.07-1.02,0-1.49.15-.78.33-1.57.62-2.31.48-1.21,1.42-2.31,2.7-2.68,1.2-.34,2.68-.03,3.71.63.63.39,1.2.87,1.88,1.17.71.31,1.53.49,2.29.68.84.2,1.79.33,2.6-.07.74-.37.91-.99,1.02-1.75.16-1.31.42-2.48,1.58-3.22,1.21-.75,2.26-1.65,3.62-2.1,1.54-.52,3.1-1,4.66-1.45,1.23-.36,2.53-.54,3.65.21.47.32.85.74,1.2,1.19.19.26.35.51.5.79.5.55,1.12,1,1.65,1.51.7.67,1.38,1.36,2.03,2.08,1.19,1.31,2.31,2.75,2.99,4.41Zm-.3,3.33c.3-1.65-.2-2.98-1.01-4.41-.84-1.47-1.91-2.73-3.09-3.94-.53-.55-1.06-1.12-1.6-1.66-.05,0-.1,0-.16-.03-.29-.16-.59-.31-.8-.59-.23-.28-.35-.62-.57-.91-.39-.52-.84-1.05-1.42-1.36-1.47-.8-3.42.16-4.88.6-.73.22-1.45.46-2.19.69-.74.22-1.46.42-2.09.89-.54.38-1.04.79-1.62,1.13-.67.39-1.05.89-1.26,1.66-.31,1.16-.03,2.52-1.12,3.33-1.07.8-2.47.64-3.68.33-1.38-.36-2.59-.76-3.76-1.59-1.12-.79-2.76-1.38-4.09-.72-1.19.59-1.81,1.76-2.15,2.98-.18.69-.41,1.42-.45,2.12-.02.48.02.92-.14,1.36-.02.73-.04,1.45-.03,2.19.02.87.05,1.77-.17,2.62-.39,1.53-1.4,2.91-2.11,4.31-.38.77-.91,1.48-1.22,2.29-.34.89-.33,1.8-.38,2.73-.05.82-.27,1.55-.44,2.35-.05.24-.04.46,0,.68.34.87.95,1.65,1.72,2.19.69.49,1.52,1.08,2.33,1.32,1.01.29,1.62-.56,2.28-1.15.69-.62,1.48-1.11,2.31-1.52.85-.42,1.73-.82,2.62-1.15.82-.3,2.09-.42,2.57-1.25.17-.3.17-.67.31-.98.16-.36.45-.59.76-.8.18-.13.36-.27.53-.39.19-.22.38-.44.63-.6.35-.24.71-.41,1.02-.71.5-.48.69-1.19,1.18-1.68,1.15-1.13,3-1.18,4.47-1.6,1.52-.42,3-.75,4.57-.82.81-.05,1.62.05,2.43.08.84.04,1.63-.13,2.46-.23.84-.1,1.66.17,2.5.12.92-.07,1.38-.73,1.48-1.59.08-.62.21-1.23.55-1.76.35-.56.83-.87,1.41-1.16,1.36-.7,1.99-1.85,2.27-3.33Z"/><path class="cls-1" d="m521.49,69.11c.8,1.43,1.31,2.76,1.01,4.41-.27,1.48-.91,2.63-2.27,3.33-.58.29-1.06.6-1.41,1.16-.34.53-.47,1.13-.55,1.76-.1.86-.56,1.52-1.48,1.59-.84.05-1.66-.22-2.5-.12-.83.1-1.62.27-2.46.23-.81-.04-1.62-.13-2.43-.08-1.57.07-3.06.4-4.57.82-1.47.42-3.32.47-4.47,1.6-.49.49-.68,1.2-1.18,1.68-.31.3-.68.48-1.02.71-.25.16-.44.38-.63.6-.17.13-.35.27-.53.39-.31.21-.6.44-.76.8-.14.31-.14.68-.31.98-.48.83-1.75.95-2.57,1.25-.89.33-1.77.73-2.62,1.15-.82.41-1.62.9-2.31,1.52-.66.59-1.27,1.45-2.28,1.15-.81-.24-1.65-.82-2.33-1.32-.77-.54-1.38-1.32-1.72-2.19-.04-.22-.05-.44,0-.68.16-.8.39-1.53.44-2.35.05-.93.04-1.85.38-2.73.31-.8.83-1.52,1.22-2.29.71-1.4,1.72-2.78,2.11-4.31.22-.85.19-1.75.17-2.62,0-.73,0-1.45.03-2.19.16-.44.12-.89.14-1.36.04-.7.27-1.44.45-2.12.34-1.23.96-2.4,2.15-2.98,1.33-.66,2.97-.06,4.09.72,1.17.83,2.38,1.23,3.76,1.59,1.21.31,2.61.48,3.68-.33,1.09-.8.8-2.17,1.12-3.33.21-.77.59-1.26,1.26-1.66.58-.34,1.08-.74,1.62-1.13.63-.47,1.35-.67,2.09-.89.73-.23,1.45-.47,2.19-.69,1.45-.45,3.4-1.4,4.88-.6.58.31,1.02.84,1.42,1.36.22.29.34.63.57.91.22.27.51.42.8.59.05.03.1.03.16.03.54.54,1.07,1.11,1.6,1.66,1.18,1.22,2.25,2.47,3.09,3.94Z"/><path class="cls-1" d="m564.4,70.31c.31,1.16.57,2.3.34,3.49-.2,1.08-.79,1.91-1.71,2.51-1.1.7-2.2,1.15-2.98,2.25-.57.77-1.06,1.66-1.91,2.17-1.04.61-2.39.44-3.48.04-.66-.25-1.31-.57-1.9-.94s-1.06-.81-1.75-1.05c-.77-.26-1.55-.53-2.37-.59-.72-.06-1.45-.08-2.18-.13-.77-.05-1.54-.11-2.31-.14-.53-.03-1.04-.05-1.53-.29-.92-.46-2.12-1.02-2.13-2.2,0-.76-.04-1.44-.27-2.18-.11-.36-.27-.7-.43-1.04,0-.03-.03-.05-.04-.08-.29-.59-.58-1.27-.54-1.94.07-1.2,1.58-2.01,2.63-2.11.82-.08,1.45.26,2.22.43.77.16,1.45-.22,2.16-.48.65-.25,1.34-.46,2.04-.27.59.16,1.02.65,1.41,1.1.46.5.81,1.13,1.5,1.34.66.2,1.34.05,2,0,.74-.05,1.59.16,2.14-.48.38-.44.52-1.11.77-1.63.56-1.2,1.52-2.24,2.43-3.17.77-.8,1.82-.95,2.87-.66,1.04.28,1.76.96,1.93,2.05.11.67.12,1.32.36,1.97.25.69.53,1.34.72,2.05Zm-1.06,5.13c1.09-.74,1.2-1.99.96-3.21-.25-1.27-.69-2.42-1.15-3.62-.22-.54-.33-1.1-.38-1.67-.05-.57-.1-1.16-.54-1.57-.8-.74-2.32-.9-3.14-.15-.47.42-.89.92-1.33,1.37-.46.48-.9.96-1.19,1.55-.42.88-.55,2.03-1.53,2.47-.48.21-.96.18-1.45.2-.61.02-1.21.17-1.81.15-1.16-.07-1.75-.69-2.47-1.52-.42-.48-.85-1.03-1.53-1.08-.59-.04-1.13.22-1.66.39-.51.17-1.04.32-1.58.32-.58,0-1.05-.26-1.59-.4-1.23-.32-3.49.34-3.16,1.98.05.22.12.44.2.65.02.03.04.05.05.09.21.62.66,1.13.84,1.77.18.61.32,1.27.28,1.91-.02.45-.03.76.33,1.09.23.2.51.34.78.48.61.33,1.08.55,1.78.58,1.49.05,2.98.17,4.46.26.72.04,1.39.21,2.08.42.6.18,1.23.34,1.76.69,1.11.73,2.15,1.45,3.48,1.73,1.25.26,2.16-.08,2.95-1.06.59-.73,1.05-1.54,1.8-2.13.85-.66,1.87-1.08,2.75-1.68Z"/><path class="cls-1" d="m564.3,72.23c.24,1.22.13,2.47-.96,3.21-.89.6-1.9,1.02-2.75,1.68-.75.59-1.22,1.4-1.8,2.13-.79.98-1.69,1.32-2.95,1.06-1.33-.27-2.37-1-3.48-1.73-.53-.35-1.15-.5-1.76-.69-.69-.21-1.35-.38-2.08-.42-1.48-.08-2.97-.2-4.46-.26-.7-.03-1.17-.25-1.78-.58-.27-.15-.55-.28-.78-.48-.36-.33-.35-.64-.33-1.09.04-.64-.1-1.3-.28-1.91-.18-.64-.63-1.14-.84-1.77-.02-.04-.04-.06-.05-.09-.08-.21-.16-.43-.2-.65-.33-1.65,1.92-2.31,3.16-1.98.54.15,1.02.39,1.59.4.54,0,1.07-.15,1.58-.32.53-.17,1.08-.43,1.66-.39.68.05,1.11.6,1.53,1.08.72.83,1.31,1.45,2.47,1.52.6.03,1.2-.13,1.81-.15.49-.02.98,0,1.45-.2.98-.44,1.11-1.59,1.53-2.47.29-.59.73-1.07,1.19-1.55.44-.45.86-.95,1.33-1.37.81-.75,2.34-.59,3.14.15.44.41.49,1.01.54,1.57.05.58.16,1.13.38,1.67.47,1.2.91,2.35,1.15,3.62Z"/><path class="cls-1" d="m636.71,265.78c.42,1.2.7,2.37.46,3.63-.18,1.01-.73,2.12-1.86,2.28-.47.06-.88.07-1.31.31-.38.21-.7.51-1.01.8-.53.5-1.04,1-1.7,1.32-1.3.64-2.91,1-4.29.41-.75-.32-1.43-.71-2.24-.91s-1.66-.33-2.44-.65c-1.36-.56-2.3-1.74-3.57-2.44-1.51-.85-3.16-1.45-4.7-2.22-.82-.42-1.65-.81-2.47-1.22-.35-.17-.6-.38-.89-.64-.25-.22-.53-.35-.79-.55-.73-.59-.74-1.54-.58-2.42.06-1.09.56-2.21.87-3.19.29-.91.53-1.83.62-2.79.08-.79.05-1.62.25-2.39.28-1.09,1.3-1.37,2.23-1.74.99-.4,1.76-1.21,2.56-1.88,1.33-1.09,3.53-2.82,5.15-1.25.52.5.7,1.17,1.07,1.77.48.77,1.35,1.34,2.06,1.88.72.55,1.42,1.16,2.29,1.46.8.27,1.8.48,2.64.48.64.02,1.29-.21,1.89.15.59.37.83,1.12,1.02,1.75.24.82.6,1.47,1.26,2.03.58.48,1.21.88,1.66,1.48.47.62.56,1.34.81,2.06.28.83.69,1.63.99,2.47Zm-.58,4.69c.55-.85.61-2.08.38-3.04-.35-1.47-1.13-2.77-1.55-4.21-.25-.81-.45-1.48-1.1-2.08-.48-.44-1.05-.78-1.5-1.25-.47-.49-.78-1.06-.98-1.7-.21-.68-.38-1.67-1.24-1.71-.36-.02-.71.07-1.07.07-.32,0-.63-.06-.94-.11-.72-.13-1.47-.23-2.17-.5-.69-.28-1.23-.77-1.8-1.23-.59-.48-1.21-.94-1.76-1.47-.57-.54-.84-1.07-1.19-1.77-.25-.5-.59-1-1.13-1.22-.85-.34-1.81.19-2.51.64-.89.58-1.66,1.29-2.46,1.95-.71.59-1.41.95-2.27,1.28-.46.17-.93.4-1.14.87-.3.67-.23,1.56-.29,2.29-.15,1.59-.64,3.05-1.12,4.56-.22.72-.5,1.48-.44,2.25.05.52.27.98.58,1.37.09.05.18.1.28.16.33.19.55.48.86.7.73.49,1.66.81,2.44,1.22.76.38,1.5.77,2.28,1.12,1.51.69,2.96,1.29,4.26,2.35.56.46,1.11.91,1.75,1.23.8.39,1.69.51,2.54.72.77.19,1.41.48,2.1.83.64.33,1.27.46,1.98.38.82-.09,1.66-.36,2.37-.77.58-.34,1.02-.84,1.5-1.28.5-.45,1.08-.87,1.76-.98.67-.11,1.17-.05,1.57-.66Z"/><path class="cls-1" d="m636.52,267.43c.23.96.16,2.19-.38,3.04-.4.61-.91.55-1.57.66-.68.11-1.25.53-1.76.98-.48.44-.92.94-1.5,1.28-.7.41-1.55.68-2.37.77-.71.08-1.34-.05-1.98-.38-.7-.35-1.34-.64-2.1-.83-.85-.21-1.75-.33-2.54-.72-.64-.32-1.19-.78-1.75-1.23-1.3-1.06-2.75-1.66-4.26-2.35-.78-.35-1.52-.74-2.28-1.12-.79-.4-1.71-.72-2.44-1.22-.31-.21-.53-.5-.86-.7-.1-.05-.19-.11-.28-.16-.31-.39-.52-.85-.58-1.37-.06-.77.22-1.53.44-2.25.48-1.51.97-2.96,1.12-4.56.06-.72,0-1.62.29-2.29.21-.47.69-.7,1.14-.87.86-.33,1.55-.69,2.27-1.28.8-.66,1.57-1.37,2.46-1.95.7-.45,1.66-.98,2.51-.64.54.22.89.71,1.13,1.22.35.7.62,1.23,1.19,1.77.55.53,1.16.99,1.76,1.47.57.47,1.12.95,1.8,1.23.7.27,1.45.38,2.17.5.31.05.62.1.94.11.36,0,.71-.09,1.07-.07.87.04,1.03,1.03,1.24,1.71.2.64.51,1.21.98,1.7.45.48,1.02.81,1.5,1.25.65.59.85,1.26,1.1,2.08.42,1.44,1.21,2.73,1.55,4.21Z"/><path class="cls-1" d="m582.25,71.58c.75.79,1.11,1.86,1.08,2.94-.04,1.21-.53,2.26-1.07,3.32-.61,1.22-1.16,2.48-2.12,3.47-.85.89-1.77,1.46-2.17,2.68-.66,2.03-1.16,4.07-2.94,5.43-1.08.82-2.44,1.4-3.78,1.63-1.38.24-2.73.08-4.09-.18-2.74-.53-5.75-.94-8.14-2.49-1.21-.78-2.28-1.74-3.45-2.59-1.19-.86-2.43-1.51-3.85-1.89-1.38-.38-2.82-.58-4.18-1.04-1.38-.46-2.59-1.2-3.63-2.21-1-.96-1.81-2.11-2.55-3.27-.76-1.21-1.61-2.43-2.24-3.72-.67-1.4-1.06-2.91-1.5-4.39s-1.06-2.84-1.78-4.2c-.67-1.26-1.33-2.53-1.75-3.9-.29-.96-.41-1.93-.49-2.91-.09-.16-.17-.32-.25-.46-.38-.71-.86-1.66-.83-2.49.03-.95.38-2.06.71-2.95.86-2.28,3.42-3.39,5.53-4.26,1.06-.45,2.26-.86,3.44-.75,1.21.11,1.98.95,3.01,1.48,1.23.62,3.01.3,4.32.08,1.49-.26,2.91-.69,4.36-1.12,2.74-.82,5.6-1.18,8.04.6.97.7,1.79,1.56,2.71,2.31.54.42,1.11.81,1.75,1.05.55.22,1.13.35,1.67.57,2.4.95,4.08,3.64,3.35,6.19-.35,1.21-1.14,2.3-1.35,3.55-.21,1.16.44,2.07,1.42,2.61.93.51,1.98.77,2.93,1.24,1.04.52,1.75,1.28,2.3,2.3.27.52.51,1.12.91,1.56.36.39.9.4,1.4.45,1.23.11,2.36.43,3.23,1.36Zm-.43,3.51c.17-.9.02-1.87-.64-2.55-.86-.88-1.93-.8-3.05-.99-1.18-.19-1.81-.99-2.34-2-.49-.93-.89-1.74-1.84-2.27-1.71-.94-3.96-1.17-4.95-3.08-.55-1.08-.48-2.25-.07-3.36.4-1.12,1.14-2.19,1.29-3.38.15-1.26-.59-2.35-1.45-3.18-.89-.85-2.15-.99-3.23-1.49-2.08-.95-3.34-3.07-5.42-4.01-2.74-1.23-5.74.29-8.42.95-1.29.32-2.62.55-3.95.63-1.28.08-2.49,0-3.59-.71-.93-.6-1.64-1.19-2.8-1.05-1.14.14-2.24.63-3.27,1.13-.99.48-2.06.96-2.86,1.74-.83.8-1.1,1.81-1.4,2.89-.15.54-.23,1.03-.23,1.53.27-.19.76-.1.88.27.33.98.44,1.99.61,2.99.04.05.05.1.03.15.07.43.16.86.29,1.29.79,2.7,2.58,4.97,3.44,7.66.42,1.3.73,2.65,1.24,3.93.52,1.32,1.35,2.49,2.08,3.69,1.37,2.22,2.92,4.5,5.47,5.45,1.29.48,2.65.69,3.98,1.01,1.31.32,2.56.79,3.71,1.5,2.26,1.4,4.06,3.45,6.63,4.33,1.22.42,2.48.68,3.74.93,1.32.27,2.65.62,4,.63,2.2.02,4.69-1.03,5.76-3.04.46-.86.71-1.82,1-2.75.36-1.13.86-2.01,1.75-2.81.44-.39.9-.77,1.27-1.24.36-.46.63-.99.9-1.5.54-1.04,1.21-2.12,1.44-3.29Z"/><path class="cls-1" d="m581.18,72.54c.66.68.81,1.65.64,2.55-.23,1.17-.9,2.25-1.44,3.29-.27.51-.54,1.04-.9,1.5-.37.47-.83.85-1.27,1.24-.89.8-1.39,1.68-1.75,2.81-.29.93-.54,1.89-1,2.75-1.07,2.01-3.56,3.06-5.76,3.04-1.35-.01-2.68-.36-4-.63-1.26-.25-2.52-.51-3.74-.93-2.57-.88-4.37-2.93-6.63-4.33-1.15-.71-2.4-1.18-3.71-1.5-1.33-.32-2.69-.53-3.98-1.01-2.55-.95-4.1-3.23-5.47-5.45-.73-1.2-1.56-2.37-2.08-3.69-.51-1.28-.82-2.63-1.24-3.93-.86-2.69-2.65-4.96-3.44-7.66-.13-.43-.22-.86-.29-1.29.02-.05.01-.1-.03-.15-.17-1-.28-2.01-.61-2.99-.12-.37-.61-.46-.88-.27,0-.5.08-.99.23-1.53.3-1.08.57-2.09,1.4-2.89.8-.78,1.87-1.26,2.86-1.74,1.03-.5,2.13-.99,3.27-1.13,1.16-.14,1.87.45,2.8,1.05,1.1.71,2.31.79,3.59.71,1.33-.08,2.66-.31,3.95-.63,2.68-.66,5.68-2.18,8.42-.95,2.08.94,3.34,3.06,5.42,4.01,1.08.5,2.34.64,3.23,1.49.86.83,1.6,1.92,1.45,3.18-.15,1.19-.89,2.26-1.29,3.38-.41,1.11-.48,2.28.07,3.36.99,1.91,3.24,2.14,4.95,3.08.95.53,1.35,1.34,1.84,2.27.53,1.01,1.16,1.81,2.34,2,1.12.19,2.19.11,3.05.99Z"/><path class="cls-1" d="m572.85,186.37c1.52,5-5.95,6.12-9.35,6.09-2.12-.01-5.18.14-6.3,2.3-.48.92-.36,2-.73,2.95-.39.99-1.28,1.52-2.25,1.85-1.08.35-2.24.43-3.36.57-1.11.12-2.24.49-3.36.37-1.27-.13-2.22-.88-3.37-1.32-1.03-.4-1.94-.11-2.83.46-1.64,1.04-3.22,2.56-5.34,2-1.94-.5-2.03-2.5-2.19-4.15-.08-.87-.33-1.78-.92-2.45-.58-.65-1.42-.95-2.23-1.21-1.55-.49-3.71-.84-4.47-2.49-.41-.89-.27-1.84-.11-2.77.23-1.26-.09-2.54.04-3.81.12-1.19.65-2.14,1.58-2.9.02-.02.06-.04.08-.06.03-.05.06-.09.08-.14,1.13-2.13,2.65-3.67,4.69-4.95,1.17-.74,2.49-1.34,3.46-2.34.88-.9,1.55-1.98,2.53-2.78,1.91-1.56,4.28-1.96,6.68-1.68,1.2.14,2.39.4,3.57.67,1.22.27,2.46.47,3.69.75,1.43.33,2.81.86,4.19,1.36,1.03.37,2.09.67,3.11,1.08.78.32,1.52.73,2.1,1.36.72.78,1,1.71,1.45,2.64.49,1,1.35,1.68,2.3,2.22.98.56,2,1.04,3.08,1.39,1.11.37,2.11.77,2.79,1.78.62.93,1.07,2.14,1.39,3.21Zm-1.46,2.28c.42-.58.29-1.27.1-1.91-.3-.98-.71-2.21-1.37-3.01-.63-.78-1.81-.93-2.7-1.26-.98-.37-1.96-.86-2.86-1.41-.87-.52-1.64-1.18-2.21-2.02-.56-.81-.74-1.81-1.33-2.61-1.01-1.35-2.96-1.66-4.46-2.18-1.28-.45-2.54-.95-3.85-1.3-1.19-.32-2.41-.49-3.61-.75-2.11-.47-4.31-1.09-6.48-.81-1.07.14-2.1.55-2.96,1.21-.92.71-1.57,1.7-2.34,2.56-1.63,1.82-4.07,2.61-5.89,4.22-.35.32-.67.66-.96,1.02.05-.02.11-.05.17-.07.09-.04.18.06.11.14-.33.35-.68.67-1.02,1-.06.1-.14.18-.2.28-.53.97-1.31,2.14-1.42,3.25-.03.4-.42.6-.72.52v.04c.02,1.21.14,2.35-.07,3.55-.11.64-.18,1.4.27,1.93.47.56,1.31.79,1.98,1.01,1.65.52,3.46.89,4.55,2.36.54.72.85,1.62.98,2.51.1.75.09,1.53.27,2.28.49,1.97,2.71,1.01,3.85.22,1.54-1.06,3.1-2.27,5.09-1.62,1.1.36,2.03,1.18,3.19,1.35.99.14,2.03-.22,3.01-.34,1.07-.14,2.15-.21,3.18-.52.97-.29,1.49-.72,1.67-1.72.18-.99.26-1.97.84-2.82.64-.93,1.6-1.58,2.63-2,2.09-.85,4.3-.54,6.49-.74,1.27-.11,2.55-.37,3.73-.86.8-.33,1.81-.78,2.34-1.5Z"/><path class="cls-1" d="m571.49,186.74c.19.64.32,1.33-.1,1.91-.53.72-1.54,1.17-2.34,1.5-1.18.49-2.46.75-3.73.86-2.19.2-4.4-.11-6.49.74-1.03.42-1.99,1.07-2.63,2-.58.85-.66,1.83-.84,2.82-.18,1-.7,1.43-1.67,1.72-1.03.31-2.11.38-3.18.52-.98.12-2.02.48-3.01.34-1.16-.17-2.09-.99-3.19-1.35-1.99-.65-3.55.56-5.09,1.62-1.14.79-3.36,1.75-3.85-.22-.18-.75-.17-1.53-.27-2.28-.13-.89-.44-1.79-.98-2.51-1.09-1.47-2.9-1.84-4.55-2.36-.67-.22-1.51-.45-1.98-1.01-.45-.53-.38-1.29-.27-1.93.21-1.2.09-2.34.07-3.55v-.04c.3.08.69-.12.72-.52.11-1.11.89-2.28,1.42-3.25.06-.1.14-.18.2-.28.34-.33.69-.65,1.02-1,.07-.08-.02-.18-.11-.14-.06.02-.12.05-.17.07.29-.36.61-.7.96-1.02,1.82-1.61,4.26-2.4,5.89-4.22.77-.86,1.42-1.85,2.34-2.56.86-.66,1.89-1.07,2.96-1.21,2.17-.28,4.37.34,6.48.81,1.2.26,2.42.43,3.61.75,1.31.35,2.57.85,3.85,1.3,1.5.52,3.45.83,4.46,2.18.59.8.77,1.8,1.33,2.61.57.84,1.34,1.5,2.21,2.02.9.55,1.88,1.04,2.86,1.41.89.33,2.07.48,2.7,1.26.66.8,1.07,2.03,1.37,3.01Z"/><path class="cls-1" d="m528.26,88.47c.45,1.06.82,2.2.45,3.35-.47,1.48-1.78,2.51-3.01,3.36-2.45,1.7-5.9,3.05-6.54,6.31-.57,2.94.43,6.19-2.19,8.38-2.11,1.77-5.49,2.64-8.13,1.61-1.43-.56-2.47-1.99-3.99-2.32-.94-.2-1.92.06-2.82.33-.78.23-1.58.46-2.33.79-3.16,1.39-5.53,4.32-9.1,4.79-1.71.23-3.38-.19-5.04-.56-1.58-.36-3.15-.4-4.74-.58-3.17-.35-5.92-2.03-6.65-5.31-.16-.75-.28-1.58-.91-2.09-.5-.41-1.07-.66-1.48-1.18-.45-.57-.68-1.3-.61-2.02-.06-.15-.14-.3-.19-.45-.43-1.34-.23-2.82.83-3.81,1.03-.95,2.45-1,3.78-.87,1.41.15,2.72.37,4.14.23,1.54-.16,3.12-.54,4.42-1.39,2.53-1.66,1.89-5.15,1.5-7.71-.16-1.06-.31-2.13.07-3.17.32-.89.94-1.6,1.72-2.12,1.68-1.12,3.92-1.3,5.87-1.29,1.99,0,4.01.26,5.94.73.98.23,2.06.49,2.63-.54.57-1.02.76-2.25,1.19-3.33.48-1.19.93-2.46,1.7-3.5.81-1.1,1.96-1.85,3.18-2.43,3.09-1.47,6.4-1.38,9.46.13,1.51.74,2.88,1.76,4.16,2.85,1.33,1.14,2.72,2.3,3.95,3.55,1.19,1.21,1.66,2.45,1.7,4.12.04,1.52.46,2.76,1.04,4.14Zm-1.12,3.05c.4-1-.17-2.06-.56-2.97-.56-1.31-.9-2.57-.94-4.01-.03-.75,0-1.48-.39-2.16-.35-.63-.92-1.15-1.45-1.63-1.21-1.11-2.45-2.24-3.72-3.29-2.38-1.96-5.31-3.63-8.5-3.26-1.54.17-3.06.8-4.34,1.66-.93.64-1.51,1.52-1.98,2.53-.53,1.15-.97,2.31-1.34,3.51-.29.95-.6,2-1.37,2.67-1.58,1.38-3.94.27-5.74-.01-1.9-.3-3.9-.43-5.81-.15-1.5.22-3.4.76-3.89,2.38-.3.98,0,2.04.13,3.02.18,1.32.33,2.67.22,4.01-.1,1.25-.41,2.5-1.28,3.45-.97,1.07-2.33,1.73-3.7,2.13-1.32.38-2.76.58-4.14.57-1.31-.01-2.59-.42-3.9-.43-1.1,0-2.07.43-2.51,1.32h.23c.37-.31,1.09-.1,1.08.49-.02.68-.25,1.26-.39,1.92-.12.62.23,1.08.72,1.41.57.39,1.13.73,1.52,1.32.4.61.58,1.34.74,2.04.19.88.4,1.6,1.01,2.28.46.52.98.95,1.6,1.27,1.15.59,2.5.68,3.77.77,1.61.12,3.14.39,4.71.75,1.58.36,3.13.56,4.7.03s2.93-1.58,4.28-2.51c1.27-.88,2.58-1.69,4.06-2.19,1.6-.55,3.36-1.19,5.07-.88,1.5.27,2.5,1.35,3.74,2.1,1.12.68,2.51.75,3.77.51,1.29-.24,2.6-.76,3.57-1.67,1.04-.98,1.21-2.3,1.26-3.66.05-1.54-.04-3.15.48-4.63.46-1.33,1.37-2.44,2.45-3.33,1.16-.95,2.45-1.7,3.72-2.5,1.11-.71,2.59-1.57,3.12-2.86Z"/><path class="cls-1" d="m526.58,88.55c.39.91.96,1.97.56,2.97-.53,1.29-2.01,2.15-3.12,2.86-1.27.8-2.56,1.55-3.72,2.5-1.08.89-1.99,2-2.45,3.33-.52,1.48-.43,3.09-.48,4.63-.05,1.36-.22,2.68-1.26,3.66-.97.91-2.28,1.43-3.57,1.67-1.26.24-2.65.17-3.77-.51-1.24-.75-2.24-1.83-3.74-2.1-1.71-.31-3.47.33-5.07.88-1.48.5-2.79,1.31-4.06,2.19-1.35.93-2.71,1.98-4.28,2.51s-3.12.33-4.7-.03c-1.57-.36-3.1-.63-4.71-.75-1.27-.09-2.62-.18-3.77-.77-.62-.32-1.14-.75-1.6-1.27-.61-.68-.82-1.4-1.01-2.28-.16-.7-.34-1.43-.74-2.04-.39-.59-.95-.93-1.52-1.32-.49-.33-.84-.79-.72-1.41.14-.66.37-1.24.39-1.92.01-.59-.71-.8-1.08-.48h-.23c.44-.9,1.41-1.33,2.51-1.33,1.31.01,2.59.42,3.9.43,1.38.01,2.82-.19,4.14-.57,1.37-.4,2.73-1.06,3.7-2.13.87-.95,1.18-2.2,1.28-3.45.11-1.34-.04-2.69-.22-4.01-.13-.98-.43-2.04-.13-3.02.49-1.62,2.39-2.16,3.89-2.38,1.91-.28,3.91-.15,5.81.15,1.8.28,4.16,1.39,5.74.01.77-.67,1.08-1.72,1.37-2.67.37-1.2.81-2.36,1.34-3.51.47-1.01,1.05-1.89,1.98-2.53,1.28-.86,2.8-1.49,4.34-1.66,3.19-.37,6.12,1.3,8.5,3.26,1.27,1.05,2.51,2.18,3.72,3.29.53.48,1.1,1,1.45,1.63.38.68.36,1.41.39,2.16.04,1.44.38,2.7.94,4.01Z"/><path class="cls-1" d="m520.84,208.33c1.55,1.54,1.8,4.34.39,6.04-.87,1.05-2.16,1.35-3.47,1.34-1.84-.03-3.61-.09-5.41.37-1.83.46-3.42,1.47-4.98,2.48-1.47.96-3.01,1.12-4.69.69-.97-.24-1.91-.52-2.89-.71-.9-.16-1.85-.26-2.73-.52-.65-.19-1.2-.58-1.65-1.09-.17-.19-.27-.34-.39-.45-.21-.06-.41-.13-.61-.22-.06-.03-.12-.07-.17-.11-.04-.01-.08-.04-.11-.06-.59-.36-1.07-.86-1.57-1.32-.57-.52-1.3-.79-1.82-1.35-.56-.61-1.05-1.14-1.71-1.64-.65-.49-1.24-1.03-1.59-1.77-.66-1.44-.26-3.08.86-4.16.38-.37,1.05-.63,1.26-1.14s.13-1.09.41-1.58c.37-.66,1.15-1.15,1.8-1.48.76-.38,1.57-.61,2.41-.71,1.57-.18,3.42.11,4.9.68.66.26,1.29.6,1.78,1.13.41.45.7.98,1.03,1.48.82,1.23,2.54.98,3.82.72.67-.14,1.11-.52,1.67-.87.64-.4,1.39-.74,2.15-.7,1.57.07,2.08,1.45,3.03,2.43,1.14,1.18,2.72,1.52,4.3,1.4,1.48-.11,2.87.03,3.98,1.12Zm-.39,4.82c1.03-1.78-.06-4.51-2.23-4.67-.7-.06-1.41.12-2.11.14-.67.02-1.35-.07-1.99-.28-1.48-.47-2.47-1.35-3.37-2.58-.29-.4-.68-.89-1.22-.94-.61-.05-1.21.37-1.68.7-.52.37-1.01.69-1.65.84-.71.16-1.48.23-2.21.24-1.34.01-2.46-.36-3.25-1.48-.31-.44-.54-.94-.9-1.34-.43-.47-1-.73-1.6-.92-1.39-.43-3.03-.71-4.47-.4-.81.17-1.63.52-2.26,1.07-.37.33-.33.62-.42,1.09-.12.62-.37,1.17-.86,1.58-.49.39-1.02.7-1.34,1.26-.34.57-.41,1.27-.14,1.88.3.68.94,1.09,1.51,1.52.59.46,1,.99,1.49,1.55.43.49,1.08.76,1.57,1.2.51.45.94,1,1.49,1.39.46-.07.89.01,1.26.4.13.15.26.31.38.47.21.09.41.19.6.31.14.08.18.22.16.34.01.01.02.01.03.02.81.36,1.84.4,2.71.56.99.18,1.95.44,2.92.7.77.22,1.59.37,2.39.18.89-.22,1.62-.82,2.39-1.3,1.6-.99,3.32-1.83,5.19-2.15,1.62-.27,3.19-.24,4.82-.19,1.1.03,2.19-.15,2.79-1.19Z"/><path class="cls-1" d="m518.22,208.48c2.17.16,3.26,2.89,2.23,4.67-.6,1.04-1.69,1.22-2.79,1.19-1.63-.05-3.2-.08-4.82.19-1.87.32-3.59,1.16-5.19,2.15-.77.48-1.5,1.08-2.39,1.3-.8.19-1.62.04-2.39-.18-.97-.26-1.93-.52-2.92-.7-.87-.16-1.9-.2-2.71-.56-.01,0-.02,0-.03-.02.02-.12-.02-.26-.16-.34-.19-.12-.39-.22-.6-.31-.12-.16-.25-.32-.38-.47-.37-.39-.8-.47-1.26-.4-.55-.39-.98-.94-1.49-1.39-.49-.44-1.14-.71-1.57-1.2-.49-.56-.9-1.09-1.49-1.55-.57-.43-1.21-.84-1.51-1.52-.27-.61-.2-1.31.14-1.88.32-.56.85-.87,1.34-1.26.49-.41.74-.96.86-1.58.09-.47.05-.76.42-1.09.63-.55,1.45-.9,2.26-1.07,1.44-.31,3.08-.03,4.47.4.6.19,1.17.45,1.6.92.36.4.59.9.9,1.34.79,1.12,1.91,1.49,3.25,1.48.73-.01,1.5-.08,2.21-.24.64-.15,1.13-.47,1.65-.84.47-.33,1.07-.75,1.68-.7.54.05.93.54,1.22.94.9,1.23,1.89,2.11,3.37,2.58.64.21,1.32.3,1.99.28.7-.02,1.41-.2,2.11-.14Z"/><path class="cls-1" d="m516.47,172.5c.83,1.25.19,2.84-1.03,3.57-1.74,1.06-3.93.98-5.81,1.66-1.18.43-2.36,1.03-3.35,1.82s-1.68,1.78-2.46,2.75c-.8.98-1.75,1.89-2.31,3.03-.24.48-.4,1.03-.24,1.56.13.43.46.73.71,1.09.61.85.31,1.82-.47,2.48-.79.67-2.04.51-3,.55-1.38.06-2.75.28-4.14.32-1.5.05-3-.02-4.49-.23s-2.94-.58-4.32-1.17c-1.09-.46-1.97-1.12-2.84-1.92-.82-.76-1.67-1.18-2.8-1.27-1.11-.1-2.11.07-3.03.72-.94.67-1.72,1.55-2.64,2.25-.98.74-2.16,1.24-3.39,1.32-1.25.08-2.5-.38-3.36-1.3-.89-.93-1.16-2.16-1.1-3.41.05-1.24.35-2.43.25-3.67-.09-1.16-.45-2.29-.71-3.41-.22-1-.4-2.05-.13-3.05.23-.91.82-1.62,1.57-2.15.54-.62,1.2-1.11,1.92-1.53,1.23-.72,2.53-1.35,3.8-1.99,1.37-.68,2.78-1.27,4.29-1.55,1.43-.26,2.79-.68,4.14-1.22,2.66-1.07,5.19-2.49,7.97-3.24,1.31-.35,2.67-.55,4-.82,1.32-.26,2.68-.51,4.02-.4,1.27.09,2.58.5,3.51,1.4.88.85,1.21,2.06,2,2.96.75.85,2.06.86,3.1,1,.6.08,1.2.18,1.8.29,1.59.3,3.18.66,4.7,1.2,1.36.47,3.01,1.1,3.84,2.36Zm-1,1.47c.09-.32-.03-.64-.33-.96-.44-.47-1.03-.78-1.6-1.05-2.6-1.23-5.57-1.67-8.39-2.08-1.08-.15-2.18-.34-2.97-1.15-.77-.78-1.11-1.83-1.77-2.69-1.63-2.13-4.9-1.38-7.11-.92-1.25.26-2.52.43-3.74.79-1.29.37-2.54.88-3.77,1.43-2.48,1.1-4.94,2.34-7.63,2.86-2.79.54-5.27,1.89-7.75,3.24-.79.43-1.57.91-2.15,1.61-.6.73-1.04,1.65-1.52,2.46-.08.12-.18.19-.29.22.19,1.84,1.21,3.55,1.37,5.4.19,2.15-1.1,5.21,1.51,6.37,2.39,1.06,4.46-1.14,6.08-2.55.71-.61,1.46-1.15,2.38-1.4,1.09-.3,2.36-.24,3.46.05.95.25,1.72.79,2.43,1.45.86.79,1.71,1.38,2.81,1.8,2.64,1.01,5.51,1.22,8.31,1.1,1.28-.05,2.56-.28,3.84-.31.49-.01,1,.02,1.49-.07.28-.04.86-.24.84-.63-.01-.22-.42-.56-.54-.73-.28-.38-.47-.8-.55-1.26-.19-1.11.28-2.17.9-3.07.67-1,1.54-1.84,2.26-2.8s1.46-1.86,2.41-2.6c1.68-1.33,3.66-2.12,5.74-2.56,1.01-.21,2.06-.38,3.02-.76.57-.23,1.09-.59,1.26-1.19Z"/><path class="cls-1" d="m515.14,173.01c.3.32.42.64.33.96-.17.6-.69.96-1.26,1.19-.96.38-2.01.55-3.02.76-2.08.44-4.06,1.23-5.74,2.56-.95.74-1.69,1.64-2.41,2.6s-1.59,1.8-2.26,2.8c-.62.9-1.09,1.96-.9,3.07.08.46.27.88.55,1.26.12.17.53.51.54.73.02.39-.56.59-.84.63-.49.09-1,.06-1.49.07-1.28.03-2.56.26-3.84.31-2.8.12-5.67-.09-8.31-1.1-1.1-.42-1.95-1.01-2.81-1.8-.71-.66-1.48-1.2-2.43-1.45-1.1-.29-2.37-.35-3.46-.05-.92.25-1.67.79-2.38,1.4-1.62,1.41-3.69,3.61-6.08,2.55-2.61-1.16-1.32-4.22-1.51-6.37-.16-1.85-1.18-3.56-1.37-5.4.11-.03.21-.1.29-.22.48-.81.92-1.73,1.52-2.46.58-.7,1.36-1.18,2.15-1.61,2.48-1.35,4.96-2.7,7.75-3.24,2.69-.52,5.15-1.76,7.63-2.86,1.23-.55,2.48-1.06,3.77-1.43,1.22-.36,2.49-.53,3.74-.79,2.21-.46,5.48-1.21,7.11.92.66.86,1,1.91,1.77,2.69.79.81,1.89,1,2.97,1.15,2.82.41,5.79.85,8.39,2.08.57.27,1.16.58,1.6,1.05Z"/></svg>