<?xml version="1.0" encoding="UTF-8"?><svg id="Shrubs_-_Front" xmlns="http://www.w3.org/2000/svg" xmlns:xlink="http://www.w3.org/1999/xlink" viewBox="0 0 1160 418.25"><defs><style>.cls-1{fill:url(#linear-gradient);}.cls-1,.cls-2,.cls-3{stroke-width:0px;}.cls-2{fill:url(#linear-gradient-2);}.cls-3{fill:url(#linear-gradient-3);}</style><linearGradient id="linear-gradient" x1="842.33" y1="370.4" x2="845.53" y2="370.4" gradientUnits="userSpaceOnUse"><stop offset="0" stop-color="#5a5b5e"/><stop offset=".03" stop-color="#575857"/><stop offset=".14" stop-color="#4f5146"/><stop offset=".28" stop-color="#4a4d3a"/><stop offset=".47" stop-color="#474a33"/><stop offset="1" stop-color="#474a32"/></linearGradient><linearGradient id="linear-gradient-2" x1="517.51" y1="357.85" x2="1160" y2="357.85" xlink:href="#linear-gradient"/><linearGradient id="linear-gradient-3" x1="873.41" y1="370.36" x2="874.44" y2="370.36" xlink:href="#linear-gradient"/></defs><path class="cls-1" d="m843.21,374.14s.03-.01.04-.02c.01.01.01.02.01.03,1.09.16,2.1-2.59,2.23-3.36.16-1-.18-1.86-.35-2.76.03-.5.02-.97-.07-1.38-.76,1.3-2.31,2.23-2.65,3.79-.19.86-.08,2.44.38,3.28.12.14.26.28.39.42h.02Z"/><path class="cls-2" d="m1141.58,333.59c4.98-4.25,12.06-5.89,18.42-4.31v-.23c-2.95-3.04-6.74-5.54-10.95-5.67-4.36-.14-8.97,3.09-9.11,7.44-1.03-3.05-1.66-6.32-1.09-9.48.7-3.89,3.57-6.85,4.59-10.46.99-3.54-.9-7.85-3.9-9.81-1.56-1.02-3.38-1.54-5.18-2.04-1.5-.42-3-.85-4.5-1.27-1.16-.32-2.57-.58-3.41.28,1.71,1.75,3.41,3.5,5.11,5.26,3.55,3.65,3.65,7.54,3.42,12.42-.21,4.58.73,9.21,2.73,13.33-2.44-2.91-2.56-7.29-5.1-10.12-2.95-3.28-8.12-3.34-12.36-2.13-6.22,1.76-12.07,6.13-13.94,12.32,2.02-1.45,4.73-1.87,7.09-1.11,1.54.5,2.95,1.48,4.56,1.59,1.14.08,2.26-.29,3.32-.72,2.6-1.06,5.01-2.57,7.11-4.44.6-.54,1.22-1.13,2.01-1.31,1.8-.39,3.22,1.48,4.05,3.12,3.44,6.79,5.54,14.15,7.65,21.46-3.17,1.51-5.95,3.81-7.9,6.74-1.65-3.58.62-7.76.15-11.67-.46-3.94-2.87-5.49-5.91-7.23-1.62-.92-3.01-2.14-4.68-2.99-1.01-.51-4.18-1.09-4.8-1.86,3.05,3.81,1.89,9.48,3.77,13.99.69,1.65,1.79,3.13,3.19,4.26,1.34,1.09,2.84,1.94,3.79,3.44.85,1.36,1.01,2.9,2.36,4.05-4.04-3.43-9.71-4.86-14.89-3.75-3.98.85-7.53,3.05-10.92,5.29,2.69,2.16,6.41,1.75,9.63,2.07,2.29.23,4.2.81,5.93,1.66-4.48,1.36-9.24,2.77-14.2,4.21-3.52-1.21-7.43-1.26-10.87.21,2.9-8.17,10.51-13.58,17.68-18.45-9.44-.63-19.08,3.47-25.17,10.71-1.03-4.34.68-8.81,2.36-12.94,1.45-3.56,2.9-7.12,4.35-10.68-5.89,2.63-10.14,8.32-11.54,14.59-.95.44-1.87.96-2.75,1.54-.75-1.4-1.63-2.71-2.71-3.88-5.7-6.16-15.06-6.82-23.45-7.07,1.74,3.24,4.34,6,7.47,7.91,2.21,1.36,4.66,2.3,6.94,3.54,2.26,1.24,4.33,2.8,6.17,4.6-1.28,1.58-2.36,3.31-3.22,5.14-5.12-.47-10.4.62-14.87,3.18-.93-.29-1.87-.5-2.82-.63,1.31-1.73,3.11-3.06,4.18-4.89,1.35-2.29.84-5.66-.9-7.59-.9-1-2.08-1.71-3.25-2.4-.97-.57-1.94-1.15-2.92-1.72-.74-.45-1.69-.89-2.43-.45.86,1.55,1.73,3.09,2.6,4.64,1.8,3.22,1.15,5.96.08,9.34-.3.95-.53,1.93-.69,2.92-.37.02-.75.06-1.12.11-.11-.42-.26-.83-.46-1.22-1.45-2.85-5.06-3.85-8.25-3.8-4.69.08-9.6,2.04-12.07,6.03,1.68-.64,3.66-.43,5.18.55.98.63,1.79,1.58,2.9,1.96.78.27,1.63.22,2.45.12,2.02-.26,3.99-.87,5.81-1.79.52-.27,1.07-.57,1.65-.54,1.34.06,1.98,1.63,2.26,2.94.34,1.62.59,3.26.77,4.9-1.95.46-3.78,1.25-5.39,2.51,1.17-.78,3.25-1.01,5.55-.94.12,1.3.2,2.61.26,3.92-1.88.7-3.7,1.54-5.38,2.57-.77.47-1.51.98-2.21,1.53-2.41.53-4.82,1.05-7.22,1.56.18-.45.41-.89.7-1.34.92-1.44,2.59-2.19,4.16-2.86,1.42-.61,2.84-1.21,4.26-1.82-5.37-1.9-11.84-.14-15.51,4.22-.89-2.65,1.04-5.43,1.02-8.22-.02-2.82-1.6-4.1-3.61-5.56-1.07-.78-1.96-1.75-3.07-2.48-.67-.44-2.87-1.1-3.25-1.69,1.66,2.61.84,6,1.33,9.06-5.54-.16-11.09,2.32-14.66,6.56-.63-2.65.41-5.38,1.44-7.89.88-2.18,1.77-4.35,2.65-6.52-5.31,2.38-8.43,8.81-7,14.45-.68-2.52-1.6-5.06-3.37-6.98-3.22-3.49-8.36-4.08-13.17-4.27,1.15-1.62,2.5-3.11,4.01-4.41-8.72,2.92-14.76,12.36-13.75,21.5-2.35-2.77-5.07-5.29-8.33-6.9-3.25-1.61-7.09-2.23-10.56-1.17,4.99,1.79,9.69,4.39,13.85,7.67-5.67-.89-12.1-1.6-16.57,2.01,2.38-1.92,10.44-.43,13.1.28-4.26.85-8.8,2.02-12.56,4.33-1.7,1.04-3.24,2.31-4.52,3.89l-8.81.12c-.11-.99-.02-1.98.31-3.06.5-1.64,1.9-2.81,3.23-3.89,1.2-.96,2.4-1.93,3.6-2.9-5.69-.37-11.43,3.08-13.77,8.28-1.58-2.31-.48-5.51-1.26-8.19-.79-2.71-2.65-3.51-4.99-4.37-1.24-.46-2.36-1.15-3.63-1.55-.76-.24-3.05-.27-3.58-.74,2.59,2.31,2.44,6.42,4.28,9.35.68,1.08,1.62,1.99,2.73,2.62,1.07.6,2.22,1.02,3.06,1.96.76.85,1.05,1.92,2.13,2.56-3.23-1.93-7.37-2.27-10.87-.89-.78.31-1.51.68-2.22,1.12l-18.89.27c3.31-2.57,7.9-3.27,12.17-3.81-4.65-1.91-10.32-1.03-14.18,2.18-.22-2.82,2.43-4.92,4.8-6.48-2.78.57-5.31,2.2-6.98,4.49-1.21-6,.08-12.46,3.5-17.52-6.7,4.43-9.68,13.74-6.83,21.25h-.17c-2.56-1.75-5.38-3.22-8.42-3.82-3.03-.6-6.33-.3-8.98,1.26-.86-1.68-2.46-2.77-4.57-1.59h0c-.1-.83-.17-1.66-.22-2.48,1.26.5,2.97.86,3.98.72,1.39-.19,3.78-.43,5.22-1.15.33-.05.61-.14.77-.3-1.9-.05-2.96-1.96-4.97-2.38-.18-.04-.4-.08-.64-.11.77-.82,1.25-1.71,1.77-2.72.38-.76,1.13-1.07,1.54-1.73q.41-.65-.31-.42c-2.3.72-4.77,1.31-6.5,3.01-.37.36-.88,1.15-1.08,1.87-.01-.05-.01-.11-.01-.16h.03c-.21-1.75.21-2.94.99-4.45.07-.14.29-.68.47-1.16,3.14-.26,9.07-6.26,9.34-10.89-.72-.2-1.53.47-2.14.74-.99.44-2.04.79-3.08,1.11-1.87.58-2.95.79-4,1.89-1,1.05-1.88,2.63-1.93,4.07-.02.61.1,1.38.39,1.96.13.27.57.89,1.06,1.07-.05.09-.1.19-.15.29-.45.87-.95,1.86-1.28,2.89-.04-.34-.09-.68-.13-1.02-.34-2.51-.7-5.12-.67-7.61.01-1.14.06-2.29.11-3.4,0-.08,0-.15,0-.23,0,.02,0,.03,0,.04-.03.13-.3-.96-.26-1.08.08-.26.2-.56.34-.84.02-.49.03-.98.03-1.47.16.18.34.3.53.32,0,0,0,.01.01.01.18-.32.38-.66.49-.75l.04.62s-.09.1-.14.19c.2.01.46-.02.66-.1,1.75-.65,2.91-1.67,3.94-3.42,1.01-1.71.91-3.61,1.91-5.31-.12.07-.23.16-.34.24-2.39.57-4.17,1.63-5.74,3.3-.48.52-1.06,1.2-1.48,1.85-.01-.06-.01-.13-.02-.19-.13-1.29-.46-2.65-.77-3.97-.05-.2-.09-.4-.15-.6-.02,0-.03,0-.04-.01-.02-.03-.02-.06-.03-.1-.06-.16-.08-.35-.08-.55.05.22.11.44.15.66.01,0,.03,0,.04.01h.01s.03.01.05.01v.03c1.11.84,3.87-1.53,4.49-2.29.79-.99.94-2.13,1.31-3.22.34-.52.62-1.05.78-1.55-1.64.95-3.9,1.02-5.23,2.51-.74.83-1.59,2.63-1.6,3.82-.29-1.24-.56-2.5-.64-3.67,1.49-2.14,3.54-3.95,1.72-6.52-.69-.97-1.8-1.65-2.57-2.55-.64-.73-1.14-2.71-2.17-3.03.01.04.02.08.04.12-.16,1.13.37,2.35.23,3.55-.12,1.11-.72,2.16-.92,3.29-.42,2.39,1.46,3.75,3.43,5.04,0,1.67.15,3.5.56,5.19.04.16.07.34.11.51-.63-.28-1.12-.62-1.5-1.4.71-.76.03-2.48-.35-3.1-.58-.92-1.49-1.35-2.51-1.9-.91-.49-2.05-1.32-3.1-1.45-1.11-.12-2.15.3-3.17-.38.12.11.23.22.35.33.42.81.7,2.01,1.27,2.75.54.67,1.53,1.13,2.3,1.62,1.04.64,3.44,3.56,5.01,2.32.46,1.1.95,1.55,1.86,1.91.21.91.39,1.82.48,2.69.19,1.91.15,3.79.07,5.73-.45-.88-1.08-1.58-1.96-2.16-.79-.52-1.4-.76-1.79-1.15.01-.01.02-.03.03-.04,1.07-.73.75-2.61.28-3.55-.56-1.1-1.81-2.02-3.07-2.59-1.23-.56-2.56-.97-3.9-1.28-.9-.22-3-1.38-3.84-.95-.59,1.06,1.36,1.97,1.81,2.81.64,1.17.71,2.43,1.64,3.4.83.87,2.08,1.68,3.24,2.17.74.31,2.73.81,3.56.27.48.47,1.46.98,1.96,1.45,1.08,1.03,1.56,1.92,1.96,3.31-.02.64-.05,1.29-.06,1.94-.2-.93-.92-1.6-2.09-1.99-.77-.25-1.58-.37-2.38-.51-.57-.1-1.11-.29-1.64-.51-.52-.22-1.03-.46-1.56-.68,1.16,1.46,2.65,2.63,3.68,4.19.41.62.91,1.38,1.76,1.5.91.13,2.09.18,2.19-.63.01-.04.02-.09.03-.13,0,2.37.34,4.81.66,7.18-.25-.25-.56-.48-.92-.68-.4-.23-1.2-.58-1.98-.94,1.31-2.4-1.31-4.14-3.53-4.87-1.03-.34-2.15-.81-3.26-.79-1.19.02-2.08.34-3.3.11-.4-.07-.76-.21-1.13-.02h-.01s0,.01.01.01c.22.5.74.91,1.09,1.31.41.48.64,1.05.99,1.55.63.9,1.88,1.39,3,1.66,1.13.27,2.4.59,3.55.73.87.11,1.75.68,2.29.6.7.43,1.47.89,1.93,1.14.89.5,1.42,1.18,1.46,1.88h.03c.05.34.09.67.13,1,.09.8.15,1.63.2,2.45-.17.04-.32.09-.45.15-.73.32-.33.81.54,1.26.04.59.08,1.19.14,1.79-.34-.39-.74-.77-1.17-1.15h0s-.01-.01-.02-.02c-1.81-1.58-4.26-3.02-6.39-3.88.13-.79-.5-1.66-1.16-2.07-.94-.58-2.22-.71-3.33-.78-1.35-.1-2.71-.05-4.06-.01-.69.02-1.62.16-2.39.1.89-2.55,1.21-5.89.19-7.98-.58.14-.88.93-1.2,1.35-.52.7-1.11,1.35-1.71,1.99-1.07,1.14-1.75,1.7-2.04,2.88-.29,1.12-.28,2.57.25,3.59.23.44.61.92,1.04,1.22.19.13.75.39,1.16.32,0,.09.01.17.01.26.03.79.06,1.69.25,2.54-.16-.22-.33-.44-.5-.67-1.23-1.62-2.49-3.3-3.46-5.05-.44-.79-.86-1.61-1.26-2.41-.02-.04-.04-.09-.06-.13-.07-.31-.43-1.38-.45-1.7,0,0-.03-.5,0-.79.14-.08.31-.19.42-.33.96-1.15,1.37-2.3,1.4-3.93.03-1.59-.79-2.87-.76-4.45-.05.1-.09.2-.14.3-1.44,1.34-2.26,2.77-2.7,4.56-.13.55-.27,1.27-.3,1.89-.02-.05-.06-.1-.09-.15-.6-.85-1.36-1.67-2.09-2.47-.11-.12-.22-.24-.33-.36-.02,0-.03.02-.05.02-.02-.02-.04-.04-.06-.06-.11-.1-.2-.22-.28-.38-.7-.75-1.38-1.51-1.89-2.29.2-2.08.93-4.14-1.36-5.22-.86-.4-1.9-.44-2.79-.76-.73-.26-1.86-1.44-2.7-1.26.02.02.05.05.08.07.33.85,1.18,1.49,1.55,2.38.35.82.35,1.79.65,2.65.66,1.83,2.5,2.04,4.38,2.17.64,1.16,1.47,2.37,2.41,3.39.1.1.19.2.29.3-.55.06-1.03.02-1.59-.37.2-.81-.97-1.75-1.47-2.02-.76-.42-1.57-.36-2.49-.34-.83.01-1.95-.12-2.73.21-.82.34-1.38,1.05-2.36.97.13.04.25.06.37.09.62.4,1.28,1.14,1.97,1.42.64.26,1.51.19,2.23.22.98.05,3.78,1.13,4.4-.34.76.58,1.28.7,2.05.59.5.56.99,1.12,1.39,1.69.88,1.26,1.59,2.58,2.3,3.97-.66-.44-1.37-.69-2.21-.74-.77-.06-1.28.01-1.7-.11v-.03c.47-.93-.5-2.12-1.19-2.58-.83-.54-2.06-.7-3.15-.6-1.08.09-2.17.33-3.23.64-.71.2-2.63.22-3.05.85,0,.96,1.73.83,2.37,1.24.9.57,1.45,1.42,2.48,1.73.92.27,2.1.35,3.11.23.64-.08,2.23-.51,2.59-1.21.52.14,1.4.11,1.92.24,1.16.29,1.85.73,2.67,1.54.23.45.46.9.71,1.36-.5-.56-1.26-.74-2.23-.55-.63.12-1.25.36-1.86.58-.44.15-.89.23-1.34.28-.45.06-.9.09-1.35.15,1.38.56,2.88.79,4.21,1.47.52.27,1.17.6,1.81.35.69-.26,1.52-.69,1.28-1.3-.01-.04-.02-.07-.04-.1.94,1.64,2.12,3.21,3.28,4.74-.27-.08-.58-.11-.91-.11-.36,0-1.05.07-1.73.13-.02-2.19-2.54-2.38-4.38-2.01-.85.17-1.81.28-2.58.73-.82.48-1.31,1.05-2.25,1.37-.31.11-.62.15-.8.43h0c.36.27.88.35,1.28.49.47.17.85.48,1.3.69.78.38,1.85.23,2.74-.02s1.9-.54,2.76-.89c.65-.27,1.49-.21,1.83-.49.66.03,1.37.05,1.79.05.81,0,1.45.27,1.75.73h.02c.16.21.32.42.48.64.38.52.76,1.08,1.11,1.63-.11.09-.19.18-.26.27-.38.52.1.7.88.66.25.4.52.8.79,1.2-.39-.13-.82-.25-1.27-.33v-.02s-.02,0-.03,0c-1.87-.39-4.14-.43-5.96-.2-.21-.6-.99-.96-1.61-.99-.89-.03-1.83.38-2.64.77-.97.46-1.9,1.03-2.82,1.59-.61.37-1.41,1.02-2.1,1.17-.21.04-.41.09-.6.17.97.25,1.88.06,2.88.11.33.01.63.09.94.19l-8.76.12c-2.96-2.84-7.39-4.11-11.39-3.19.96-2.32,3.9-2.93,6.39-3.22-2.42-.65-5.08-.37-7.32.77,1.44-5.23,5.05-9.84,9.79-12.48-7.13.84-13.25,7.09-13.94,14.24-1.35-2.49-3.03-4.85-5.26-6.6s-5.07-2.84-7.89-2.58c3.53,2.16,6.71,4.9,9.37,8.08-4.19-1.59-9-3.16-12.99-1.11,2.13-1.09,8.05,1.33,9.97,2.3-3.39-.03-7.04.14-10.29,1.31-1.77.63-3.42,1.57-4.84,2.92,2.48-1.07,5.04-2.08,7.72-2.4,2.23-.26,6.8-.15,7.94,2.29l-27.66.4c2.68-1.33,5.61-2.36,8.55-2.97,2.19-.46,4.81-.2,6.82-.78-.5.14-2.81-1.03-3.52-1.13-1.28-.17-2.58-.11-3.85.05-2.54.34-4.97,1.13-7.1,2.51-.54.35-1.96,1.33-3.66,2.35l-6.81.1c2.74-1.72,8.31-3.48,9.55-3.97,1.59-.64,3.12-1.33,4.66-2.15,4.06-2.16,5.98-5.62,9.26-8.55-3.2,2.86-7.1,3.74-11.09,4.73-5.08,1.25-8.13,3.89-12.14,6.84.6-4.27,6.04-8.2,9.03-10.84,1.54-1.37,6.58-6.01,8.78-5.63-2.65-.45-7.02,2.12-9.21,3.42-3.09,1.83-5.73,4.24-8.31,6.7-2.11,2.02-4.95,3.41-6.8,5.6.74-2.2,1.66-4.39,2.78-6.43,1.77-3.22,4.36-5.27,6.54-8.09-2.13,1.49-4.97,2.3-7.18,4.18,2.06-3.33,5.25-5.49,8.33-7.89,2.07-1.62,4.62-3.48,7.16-4.28,1.75-.55,1.59.01,2.53,1.51.76,1.22,1.68,2.34,2.72,3.32.56.52,1.18,1.02,1.91,1.24,1.03.31,2.14.04,3.22.1,1.66.08,3.25.99,4.17,2.38.3-4.32-2.31-8.44-5.77-11.02-2.37-1.77-5.61-2.96-8.23-1.62-2.26,1.17-3.38,3.87-5.6,5.11,2.23-2.1,3.92-4.76,4.88-7.68,1.02-3.1,2.01-5.51,5.1-6.94,1.48-.69,2.96-1.38,4.45-2.07-.32-.74-1.27-.91-2.07-.98-1.03-.1-2.07-.19-3.11-.29-1.24-.11-2.51-.22-3.73.04-2.34.51-4.54,2.76-4.76,5.2-.23,2.5.86,5.03.37,7.63-.4,2.11-1.58,4.01-2.94,5.66.94-2.75-1.17-5.86-3.92-6.82-2.75-.95-5.82-.21-8.45,1.05,2.39-1.15,9.4,3.41,9.29,6.06-.09,2.24-3.06,3.55-4.44,5.06-3.58,3.9-5.88,8.66-6.79,13.72-.31-2.11-.07-4.74.03-6.44.2-3.33.94-6.31,2.39-9.29-2.57,1.26-5.31,5.48-6.44,8.02-1.32,2.96-.86,6.62-1.96,9.36.46-5.08,1.45-16.74-2.98-20.32,2.41,1.95,1.55,15.55-.59,17.83-.74-5.81-.76-11.54-2.9-17.26,1.42,5.3.94,11.66-.08,16.99-1.43-.59-.87-6.23-1.17-7.8-.85-4.49-2.23-9.77-5.28-13.3,2.44,3.89,2.38,8.28,2.73,12.75.31,3.94,1.81,7.4,2.56,11.05-.25-1.2-2.92-3.02-3.73-4.13-1.19-1.64-2.54-3.7-3.25-5.59-.59-1.59-1.09-3.07-1.46-4.74-.87-3.85-.79-7.62-.49-11.57-.91,2.23-1.35,4.66-1.42,7.12-3.54,1.97-6.77,4.66-9.75,7.77-1.43.85-2.79,1.82-4.07,2.89,4.12-7.79,8.61-15.43,14.15-22.13-4.47,3.95-8.26,8.76-11.57,13.96-1.23.84-2.39,1.79-3.48,2.81,3.02-6.45,6.37-12.74,10.47-18.5-6.29,6.45-10.9,14.69-14.65,23.16-1.24,1.61-2.38,3.32-3.45,5.07,1.93-6.13,4.14-12.19,7.41-17.51-4.09,4.51-6.72,10.44-8.68,16.57-.43,1.34-.83,2.7-1.21,4.06.02-1.21.03-2.37.03-3.38h0c1.99-8.45,4.45-16.78,8.68-24.13-3.71,4.09-6.32,9-8.25,14.27.38-4.19,1.03-8.34,2.23-12.35-2.83,5.53-3.83,11.89-4.12,18.19,0,.05,0,.1-.01.15-.23.83-.44,1.66-.65,2.5.03-1.89.05-3.27.08-3.78.51-9.71,1.49-19.49,4.37-28.83-4.46,8.66-6.11,18.48-6.67,28.19-.27,4.54-.3,9.09-.32,13.64,0,.43-.02.87-.04,1.31h-.05c-.31-6.21-.81-12.34-.85-13.56-.3-9.72-.15-19.54,1.94-29.09-3.72,9-4.54,18.92-4.28,28.64.12,4.55.46,9.09.83,13.63.01.14.02.28.02.42h-.45c-.27-1.49-.56-2.94-.81-4.21-.02-.47-.05-.93-.08-1.39-.22-3.36-.68-6.73-1.66-9.92-.39-4.16-.46-8.3.1-12.37-.98,2.67-1.5,5.47-1.67,8.33l-.39-.75c.13.4.25.8.36,1.2-.19,3.46.1,6.99.63,10.5.42,2.72.96,5.42,1.54,8.14,0,.17,0,.33.02.5h-.11c-.29-.97-.59-1.93-.92-2.89-1.68-4.94-3.9-9.72-7.29-13.32,2.74,4.28,4.63,9.17,6.29,14.13.09.27.32,1.05.63,2.1h-.8c-.82-1.94-1.66-3.89-2.54-5.81-1.65-3.58-3.49-7.11-5.62-10.41-.27-1.07-.5-2.14-.69-3.22-.03.72-.03,1.44,0,2.16-1.82-2.71-3.83-5.24-6.11-7.49,2.37,3.2,4.45,6.61,6.34,10.14.21,1.58.55,3.15.99,4.7-3.11-5.01-6.7-9.69-11.03-13.37,4.93,5.74,8.89,12.36,12.55,19.08.19.35.67,1.31,1.33,2.62-4.1-5.31-8.74-10.11-14.21-12.8,5.04,3.92,9.36,9.07,13.46,14.44.01.02.02.03.04.05l-2.57.04c-3.4-2.39-7-4.27-10.72-4.85,1.13-1.18,2.29-2.37,3.63-3.48-3.66,3.03-8.02,3.85-12.49,4.78-3.68.76-6.44,2.2-9.17,3.96l-3.3.05c2.2-3.43,6.53-6.4,9.19-8.59,1.72-1.4,7.24-6.11,9.77-5.9-2.94-.46-7.72,2.13-10.15,3.44-3.5,1.9-6.53,4.46-9.5,7.08-1.71,1.52-3.81,2.68-5.66,4.06l-1.38.02c.76-1.78,1.63-3.53,2.61-5.17,2.11-3.5,5.06-5.66,7.6-8.69-2.84,1.82-6.68,2.57-9.35,5.43-2.33,2.49-3.26,5.43-4.14,8.48l-1.25.02c-.36-2.42.05-5.57.25-7.57.36-3.69,1.31-6.96,3.04-10.2-2.9,1.29-6.12,5.85-7.48,8.62-1.41,2.86-1.29,6.39-2.17,9.24h-.26c.74-6.04,1.89-17.69-2.59-21.6,2.6,2.26,1.06,17.31-1.41,19.75-.57-6.48-.35-12.83-2.48-19.26,1.35,5.94.55,12.97-.81,18.84-1.56-.72-.69-6.95-.96-8.7-.76-5.02-2.07-10.94-5.29-14.98,2.54,4.42,2.28,9.29,2.48,14.25.17,4.2,1.56,7.94,2.27,11.83h-.1c-.71-1.33-3.01-3.09-3.76-4.2-1.25-1.86-2.66-4.21-3.36-6.34-.59-1.78-1.08-3.44-1.43-5.31-.79-4.31-.55-8.49-.05-12.85-1.44,3.16-2.01,6.73-1.93,10.29.13,5.43,1.35,10.65,3.79,15.5-1.28.01-2.5-.86-3.75-1.11-1.37-.28-3.08-.45-4.46-.44-2.43.01-7.18.28-9.12,1.91,2.99-1.22,8.2-.05,11.19.81,1.42.41,3.31.98,4.86,1.85l-22.18.32c2.48-1.56,5.04-2.98,7.7-4.12-3.27.82-6.42,2.33-9.42,4.15l-1.4.02c3.41-2.23,6.9-4.2,10.53-5.35-1.4.11-2.79.4-4.17.86.91-.56,1.84-1.09,2.79-1.58-2.38.8-4.67,1.95-6.85,3.32-1.39.72-2.76,1.56-4.1,2.45-.16.11-.32.22-.48.33h-.66c1.09-.94,1.91-1.68,2.17-1.89.49-.4.98-.79,1.48-1.19.32-.21.64-.41.96-.61-.11.04-.23.09-.34.14,3.08-2.39,6.27-4.54,9.62-5.96-4.22.75-8.25,3.26-11.99,6.28-1.27,1.03-2.53,2.11-3.77,3.22,1.55-2.28,2.79-4.16,3.13-4.63,3.82-5.28,7.87-10.36,12.62-14.24-3.04,1.58-5.79,3.86-8.31,6.53-1.11.65-2.16,1.42-3.15,2.25,3.19-6.13,6.68-12.14,10.98-17.41-3.46,3.1-6.41,6.88-8.98,10.97-.96.67-1.85,1.41-2.7,2.21,2.34-5.08,4.94-10.02,8.12-14.54-4.89,5.08-8.47,11.57-11.39,18.24-.97,1.28-1.86,2.62-2.69,4.01,1.5-4.83,3.23-9.61,5.77-13.81-3.18,3.55-5.22,8.23-6.74,13.05-.34,1.06-.65,2.12-.95,3.2.02-.95.03-1.86.03-2.66v-.02c1.55-6.64,3.45-13.21,6.75-18.99-2.88,3.2-4.91,7.06-6.41,11.19.29-3.28.79-6.54,1.72-9.68-2.2,4.36-2.97,9.37-3.2,14.33v.09c-.18.67-.35,1.34-.51,2.01.02-1.5.04-2.59.06-2.99.4-7.65,1.16-15.35,3.4-22.71-3.47,6.82-4.75,14.56-5.19,22.2-.2,3.58-.23,7.17-.25,10.75,0,.27-.01.54-.02.81h-.06c-.24-4.81-.61-9.51-.64-10.46-.24-7.66-.12-15.39,1.5-22.91-2.89,7.09-3.53,14.9-3.33,22.56.1,3.58.37,7.16.65,10.73,0,.04.01.07.01.11h-.39c-.2-1.11-.41-2.2-.6-3.15-.01-.35-.03-.69-.05-1.04-.17-2.65-.53-5.31-1.29-7.81-.3-3.28-.35-6.54.08-9.74-.76,2.1-1.16,4.3-1.31,6.55-.09-.2-.19-.4-.29-.59.1.31.19.63.28.95-.15,2.72.08,5.51.49,8.27.32,2.14.75,4.26,1.2,6.4,0,.06,0,.12.01.18h-.15c-.2-.68-.42-1.36-.65-2.04-1.31-3.9-3.03-7.66-5.67-10.5,2.13,3.37,3.6,7.23,4.89,11.13.06.2.22.72.43,1.43h-.65c-.6-1.46-1.22-2.91-1.88-4.35-1.29-2.82-2.72-5.61-4.37-8.21-.21-.84-.39-1.68-.54-2.53-.02.57-.02,1.14,0,1.7-1.41-2.13-2.98-4.12-4.75-5.9,1.84,2.52,3.46,5.21,4.93,7.98.16,1.25.43,2.5.77,3.73-2.41-3.96-5.2-7.65-8.57-10.55,3.83,4.52,6.9,9.73,9.75,15.03.15.28.53,1.04,1.05,2.08-3.19-4.19-6.8-7.98-11.06-10.1,3.85,3.05,7.18,7.03,10.32,11.19l-2.14.03c-2.56-1.78-5.26-3.16-8.05-3.61,2.23.9,4.36,2.17,6.44,3.64l-3.74.05c-.77-.18-1.53-.3-2.29-.34.37.11.73.23,1.1.36l-7.07.1c-2.55-3.3-7.41-4.78-11.29-3.12,1.78-5.01,6.44-8.32,10.83-11.3-5.78-.39-11.68,2.13-15.41,6.56-.64-2.66.41-5.4,1.44-7.93l2.67-6.54c-5.34,2.38-8.47,8.85-7.04,14.51-.68-2.53-1.6-5.08-3.38-7-3.49-3.78-9.22-4.19-14.36-4.34,1.07,1.98,2.66,3.68,4.58,4.85,1.35.83,2.85,1.4,4.25,2.17,3.06,1.68,5.59,4.31,7.15,7.44-4.89-2.43-11.08-1.97-15.55,1.16.98-.69,5.2.53,6.37.73.51.09,1,.19,1.48.32,1.15.32,2.19.81,3.15,1.72.18.17.36.43.23.64-.04.07-.12.12-.19.16-2.61,1.63-6,3.14-6.59,6.31l-15.37,5.15v5.37h642.49v-68.7c-1.51.51-3.78,1.27-6.7,2.23,1.86-1.65,4.23-2.73,6.7-3.04v-9.94c-1.11-1.01-2.33-1.88-3.66-2.54-2.39-1.18-5.2-1.64-7.75-.86,3.66,1.31,7.11,3.22,10.16,5.63-4.16-.66-8.87-1.18-12.15,1.47,1.74-1.41,7.65-.32,9.61.21-3.13.61-6.45,1.47-9.21,3.17-.14.09-.28.17-.42.27-1.06.23-2.09.55-3.1.95-1.1-3.52-2.03-7.09-2.8-10.7-.11-.54-.22-1.13-.03-1.66.16-.47.55-.82.93-1.15Zm-267.07,54.38s-.02.03-.02.05v-.07s.01.01.02.02Zm-.01.15l.03.06h-.03v-.06Zm-27.53-8.96c.18.07.36.09.51.03.01.33.03.65.03.65.01.12.01.24.03.37-.19-.35-.37-.7-.57-1.05Zm-307.16,26.24c.93-.42,1.87-.8,2.82-1.15.71-.26,1.45-.51,2.21-.54l-5.03,1.69Zm177.7-9.91c-.33.86-.67,1.71-1,2.57-.02.04-.03.09-.05.13-.24.34-.47.68-.69,1.03h-.02c.09-.31.18-.62.27-.93.55-1.01,1.05-1.97,1.49-2.8Zm20.52-3.07c-.8.17-1.6.39-2.4.65.48-.29.97-.58,1.46-.85.32.06.64.13.94.2Zm-7.68,2.9c-1.76.9-3.49,1.95-5.19,3.07-.35.23-.7.46-1.04.71h-.76c1.56-1.34,2.76-2.4,3.12-2.69.64-.51,1.28-1.02,1.92-1.51.4-.28.81-.53,1.22-.78-.14.05-.28.11-.42.17,1.16-.9,2.34-1.76,3.53-2.57,1.24.01,2.55.17,3.75.39-2.11.89-4.15,1.98-6.13,3.21Zm-11.85,3.17c-.1.23-.22.46-.34.69h-.04c.03-.09.07-.18.11-.27.09-.15.18-.29.27-.42Zm27.04-2.83c-3.7-.28-6.76.99-9.16,3.26l-5.35.08c3.33-2.1,6.77-4.01,10.36-5.53-4.38,1.09-8.6,3.12-12.61,5.56l-1.75.02c3.92-2.55,7.91-4.85,12.03-6.4.01.01.02.01.03.01,2.02.5,5.07,1.32,6.45,3Zm-4.94-20.04c-.02.65,0,1.3.04,1.95.3,4.88,1.57,9.54,3.94,13.82-1.15.06-2.28-.69-3.42-.87-1.24-.2-2.78-.29-4.03-.25-.69.03-1.6.1-2.57.22,2.28-1.47,4.6-2.75,7-3.75-3.71.64-7.3,2.34-10.74,4.56-.74.27-1.38.6-1.83,1.01.22-.1.46-.19.71-.26-1.21.83-2.4,1.72-3.57,2.65-1.64,1.3-3.25,2.69-4.85,4.1,1.99-2.89,3.59-5.29,4.03-5.89,4.66-6.35,9.58-12.48,15.29-17.29Zm-13.53,11.78c-.93,1.14-1.84,2.32-2.73,3.51.15-.31.29-.61.43-.88.74-.9,1.5-1.78,2.3-2.63Zm1.48-8.27c-1.43,2.32-2.78,4.71-4.05,7.12-.69,1.31-1.36,2.64-2.02,3.97-.48.54-.95,1.09-1.4,1.65.97-2.43,1.69-4.27,1.94-4.84.33-.75.66-1.5.99-2.25,1.41-1.99,2.91-3.89,4.54-5.65Zm-28.21,15.47c.18.39.63,1.48,1.26,2.97-1.22-2.46-2.37-4.95-3.38-7.47.73,1.49,1.43,2.99,2.12,4.5Zm-15.02.06c2.99,1.19,5.86,2.91,8.64,4.87l-4.11.06c-1.34-.38-2.7-.63-4.05-.7.73.21,1.45.45,2.17.73l-8.66.12c2.43-1.38,4.19-3.21,6.01-5.08Zm-91.32,5.8c.42-.8.82-1.55,1.15-2.2-.25.67-.51,1.35-.77,2.02-.01.03-.02.06-.03.09-.14.2-.27.4-.4.6h-.1c.05-.17.1-.34.15-.51Zm1.96.09c-.05.13-.11.26-.19.39h-.05s.01-.02.01-.02c.08-.13.16-.26.23-.37Zm6.64-8.68c-.73.9-1.44,1.83-2.13,2.77.11-.24.22-.47.32-.68.59-.71,1.19-1.41,1.81-2.09Zm1.11-6.45c-1.11,1.81-2.14,3.68-3.12,5.56-.54,1.03-1.06,2.07-1.57,3.12-.36.42-.72.84-1.08,1.28.75-1.9,1.3-3.34,1.5-3.79.25-.58.5-1.16.76-1.74,1.08-1.56,2.23-3.05,3.51-4.43Zm-21.9,12.13c.14.31.49,1.17.98,2.35-.92-1.89-1.79-3.79-2.55-5.73.54,1.12,1.06,2.25,1.57,3.38Zm562.24-43.25c.04.14.08.27.12.41,0,.01.01.03.01.04-.12.04-.25.08-.38.12.07-.19.15-.38.25-.57Zm-145.53,32.34c.08.08.17.15.25.23.18.17.36.43.23.64-.05.07-.12.12-.2.17-1.6,1-3.5,1.95-4.86,3.28-.55-.51-1.2-.92-1.91-1.21-2.13-.89-4.49-1.04-6.8-1.18,3.88-2.43,8.66-2.42,13.29-1.93Zm14.27-2.74c.31.09.62.17.94.22-.41.11-.81.24-1.2.41.08-.21.16-.42.26-.63Zm39.78-3.49c0-.09,0-.17.01-.26,1.01-.23,2.13-.42,3.26-.51-1.09.26-2.18.52-3.27.77Zm31.55-29.36c-.35,2.47-.25,4.99.37,7.42-.51-1.89-1.1-3.8-1.88-5.6.47-.63.98-1.24,1.51-1.82Zm-5.25,8.1c1.05,1.38,1.97,2.85,2.74,4.4-1.24-.62-2.53-1.12-3.86-1.5.32-.98.7-1.95,1.12-2.9Zm-12.25,7.5c.83.14,1.64.3,2.41.51.62.17,1.22.37,1.8.62-.29,1.86-.35,3.76-.15,5.64-.03.02-.05.03-.08.05-2.72-3.2-5.88-6.12-9.65-7.98-.06-.03-.12-.06-.19-.09,2.32.4,4.82,1.07,5.86,1.25Zm-8.73,1.78c-2.13.35-4.07,1.65-4.69,3.69-.13-1.95-.03-3.97.61-5.82,1.39.65,2.75,1.36,4.08,2.13Zm-6.23-3.1c-.12,1.72-.02,3.45.31,5.14-.78-1.66-.72-3.59-.96-5.41.22.09.44.18.65.27Zm1.02,10.84c.02-.4.05-.83.29-1.17.14-.21.34-.35.56-.47,2.9.28,5.75.87,7.21,1.26-2.68.53-5.45,1.17-8.12,2.07.01-.57.03-1.13.06-1.69Zm-2.27,4.58c.32-.11.68-.22,1.07-.33v.24c-.74.17-1.49.35-2.24.51.39-.15.78-.29,1.17-.42Zm-27.72-7.04c.05.22.11.44.17.66.36,1.22,1.03,2.35,1.92,3.26.86.87,1.86,1.59,2.41,2.72.5,1.02.49,2.13,1.35,3.04-2.58-2.74-6.47-4.18-10.22-3.81-1.18.12-2.31.4-3.42.78,2.08-2.62,4.96-4.72,7.79-6.65Zm-6.72,14.18c-.55.1-1.09.19-1.64.28-1.4.24-2.81.47-4.22.7-.15-.19-.31-.37-.48-.54,2.09-.37,4.22-.52,6.34-.44Zm-28.05-18.43c1.03,1.59,2.41,2.95,4.02,3.94,1.35.82,2.84,1.39,4.23,2.15,3.05,1.68,5.57,4.3,7.12,7.41-4.86-2.42-11.02-1.96-15.47,1.16.35-.25,1.11-.25,2.01-.14-1.56.18-3.09.6-4.51,1.26.59-3.16,4.12-4.69,7.17-5.7-3.21-.2-6.48.85-8.98,2.87.29-4.6,1.85-9.11,4.41-12.95Zm-26.47,22.37c2.81-.95,8.86-2.04,10.75,1.06-1.27.7-2.6,1.31-3.81,2.13-1.61.22-3.21.43-4.8.64l-9.66.13c2.36-1.6,4.82-3.06,7.52-3.96Zm-70.97,4.88l-10.36.14c-.02-.87-.23-1.8-.62-2.61,3.74.34,7.44,1.17,10.98,2.47Zm-11.3.16l-3.22.04c-.18-.43-.34-.87-.47-1.33.21.19.42.34.61.42,1.02.42,2.1.46,3.08.87Zm-6.56-6.18c-.07.26-.3.44-.56.64-.04.03-.08.06-.12.09h-.01c-.28-.36-.76-.65-1.28-.75.04-.01.08-.01.12-.02.57-.07,1.15-.15,1.8,0,.01.02.03.03.05.04Zm-12.76-3.19c1.11.55,2.41.43,3.65.48,1.15.05,2.26-.11,2.86-1.15.02-.03.03-.07.05-.1,1.84.76,3.94,2.03,5.59,3.43-.47-.02-.9.03-1.3.09-.15.02-.35.05-.57.09-.78-.66-1.44-1.22-2.66-1.48-1.39-.31-2.86-.16-4.29-.44-1.5-.28-2.45-.52-4.01-.06-.37.11-.73.2-1.08.28.05-.49.03-.98.01-1.51-.02-.35.08-.66.19-.96.46.49.9,1.01,1.56,1.33Zm-4.55,4.85s-.01-.02-.01-.03t.01,0v.02Zm-.62-.93h.02c-.83-1.15-1-2.14-1.05-3.5,0-.13-.07-.59-.13-1,.68-.45,1.33-1.45,1.83-2.71.61.36,1.27.64,1.91,1.04.16.1.3.21.44.34-1.02,1.06-2.06,2.14-2.64,3.45-.15.01-.29.02-.44.03.02,0,.03.02.05.02-.12.01-.24.02-.35.03.18.12.37.23.57.32-.04.12-.08.24-.12.36-.12.4-.17,1.14-.02,1.73-.02-.04-.05-.08-.07-.11Zm.68,1.01l.04.02s0,.01-.02.01c-.01-.01-.02-.02-.02-.03Zm.81,1.24c1.07-.15,2.4-.57,3.05-1.06.25-.18.54-.4.86-.65,1.69.75,3.72,1.41,6.03,1.6.09.01.18.01.27.02-.66,1-.96,2.27-1.21,3.49l-4.92.07c.88-.23,1.7-.61,2.67-.43-.97-2.07-3.99-4.06-5.63-1.4-.39-.54-.76-1.09-1.12-1.64Zm-1.3,2.07h-.01c-.34-.14-.79-.15-1.2-.02.03-.02.06-.04.09-.06.37-.28.75-.57,1.26-.71.02,0,.03.01.04.01.06.2-.03.42-.13.66-.02.04-.03.07-.05.11h0Zm-7.22.91c.82-.42,1.53-.97,1.53-1.93,0-.03,0-.06-.01-.09,1.59-.2,3.56-.14,5.26.2-.34.16-.62.37-.88.57-.1.07-.23.18-.37.3-.81-.17-1.47-.3-2.43,0-1.09.33-2.05,1.01-3.15,1.38-.27.09-.52.17-.75.25h-.5c.44-.2.87-.46,1.3-.68Zm-22.61,1c-.86-.32-1.74-.56-2.61-.8,3.39-1.25,7.08-.45,10.58.68l-7.97.12Zm31.26-2.07c-.33-.06-.67-.04-1.01.03.07-.17.13-.36.13-.55.54.15,1.03.33,1.45.55.08.11.17.22.26.33.06.28.31.55.63.77.13.16.27.31.42.46l-1.97.03c.32-.84.42-1.47.09-1.62Zm17.28-3.44c-.32-.27-.7-.46-1.12-.59.18-.15.37-.31.49-.52.49.49.92,1,1.24,1.49.02.17.05.34.07.51-.1.36,0,.81.22,1.25.07.33.14.66.23.98.16.57.35,1.12.56,1.66l-7.37.11c2.75-1.75,6.29-4.03,5.68-4.89Zm284.03-45.55c-1.31.71-2.7,1.31-3.81,2.36-.91.85-1.61,2.01-1.73,3.23-1.83.61-3.88,1.28-6.14,2.01-.24-.58-.46-1.17-.66-1.76,1.16-1.29,2.76-2.22,4.3-3.09,1.89-1.07,3.78-2.13,5.68-3.2-1.67-.39-3.38-.54-5.09-.46,2.19-.66,6.16-1.21,7.45.91Z"/><path class="cls-3" d="m873.67,369.58c-.07.13-.13.27-.19.41-.02.63-.05,1.26-.07,1.88.13-.43.39-1.74.55-2.08,0,0,.28-.57.48-.88-.2,0-.34-.03-.39-.06-.2.37-.38.73-.38.73Z"/></svg>