<?xml version="1.0" encoding="UTF-8"?><svg id="Grass_-_Front" xmlns="http://www.w3.org/2000/svg" xmlns:xlink="http://www.w3.org/1999/xlink" viewBox="0 0 1160 418.25"><defs><style>.cls-1{fill:none;}.cls-1,.cls-2,.cls-3,.cls-4,.cls-5{stroke-width:0px;}.cls-2{fill:url(#linear-gradient);}.cls-3{fill:url(#linear-gradient-2);}.cls-4{fill:#212313;}.cls-5{fill:#323233;}</style><linearGradient id="linear-gradient" x1="584.92" y1="406.48" x2="945.83" y2="406.48" gradientUnits="userSpaceOnUse"><stop offset="0" stop-color="#323233"/><stop offset=".01" stop-color="#313132"/><stop offset=".31" stop-color="#282920"/><stop offset=".62" stop-color="#222416"/><stop offset="1" stop-color="#212313"/></linearGradient><linearGradient id="linear-gradient-2" x1="101.1" y1="406.48" x2="213.67" y2="406.48" gradientUnits="userSpaceOnUse"><stop offset="0" stop-color="#252526"/><stop offset=".75" stop-color="#2d2d2e"/><stop offset="1" stop-color="#323233"/></linearGradient></defs><path class="cls-2" d="m574.94,418.25h377.18s6.32-3.6,9.63-5.48c-3.93.26-7.12,1.09-9.63,2.06.65-3.12.63-5.64,1.54-8.21-2.68,1.46-4.51,3.15-5.79,4.81-.57-2.93-1.22-5.36-1.44-8.02-1.39,2.67-2.01,5.35-2.22,7.76-1.08-2.83-2.89-5.93-5.96-8.62.78,3.51.68,6.89,1.23,11.16-.73-2.06-1.5-3.86-1.9-5.58-.67,1-1.23,1.98-1.7,2.92-.73-2.84-2.12-5.99-4.68-8.91.27,3.16-.11,6.12-.22,9.73-.37-.56-.8-1.13-1.25-1.71.17-1.12.39-2.2.77-3.29-3,1.64-4.95,3.56-6.24,5.41-.62-3.14-2.02-6.79-4.95-10.14.32,3.74-.28,7.21-.25,11.79-.75-2.15-1.57-4.01-1.98-5.79-.84,1.25-1.52,2.48-2.04,3.63-.58-3.09-1.27-5.59-1.51-8.36-.92,1.77-1.5,3.55-1.85,5.25-.08-1.18-.26-2.42-.58-3.68-.76,1.75-1.81,3.49-2.94,5.41-.49-2.81-1.12-5.15-1.16-7.75-1.81,2.31-2.91,4.58-3.56,6.67-.59-2.55-1.58-5.48-3.15-8.66-.06,2.62-.58,5.19-1.05,8.09-1.65-2.81-3.25-6.05-3.98-10.86-1.84,3.24-2.49,6.22-2.47,8.9-1.25-2.59-2.42-4.96-3.2-7.48-.72,3.4-1.01,6.47-1.01,9.16-.38-.4-.79-.79-1.22-1.17-.1-.91-.26-1.85-.5-2.81-.25.57-.53,1.14-.84,1.72-.54-.4-1.1-.79-1.71-1.16.37.84.68,1.67.96,2.52-.61,1.07-1.28,2.19-1.96,3.38-.71-4.07-1.64-7.22-1.96-10.72-2.04,4.08-2.56,8.21-2.49,11.59-.62-4.23-1.64-7.65-1.76-11.16-1.34,2.5-2.29,4.85-2.94,6.99-1.77-2.95-3.57-6.31-4.35-11.48-2.48,4.37-2.81,8.26-2.22,11.58-1.35-2.8-2.62-5.31-3.45-8-.69,3.29-.98,6.27-1.01,8.89-.82-2.15-2.06-4.37-3.91-6.48.32,3.74-.28,7.21-.25,11.79-.75-2.15-1.57-4.01-1.98-5.79-.57.84-1.06,1.68-1.48,2.48-.55-2.8-1.16-5.14-1.38-7.71-.91,1.74-1.48,3.48-1.84,5.15-.24-.91-.55-1.84-.94-2.77-.44,1.66-1.12,3.35-1.85,5.18-.75-3.92-1.63-7.05-2.01-10.49-1.19,2.89-1.72,5.84-1.86,8.54-.63-1.81-1.57-3.7-2.97-5.55.1,2.65-.31,5.1-.56,8.03-.5-2.91-1.57-6.46-3.5-10.36-.05,1.94-.34,3.86-.68,5.89-1.18-2.32-2.23-5.05-2.77-8.66-2.52,4.44-2.82,8.39-2.19,11.74-1.6-3.66-3.18-6.73-4.19-10.05-.6,3.9-.72,7.39-.55,10.36-1.33-1.65-3.06-3.28-5.32-4.63.93,2.08,1.45,4.15,2.13,6.48-.74,1.09-1.23,2.11-1.56,3.06h-.1c-.28-3.45-1.06-5.9-1.06-8.72-.68.9-1.22,1.79-1.68,2.66-.04-1.82-.32-3.76-.99-5.74-.73,2.87-1.93,5.39-3.07,8.66-.5-3.39-1.32-6.03-1.37-9.02-2.46,3.13-3.62,6.2-4.1,8.85-.42-2.63-.94-4.83-1.02-7.27-1.88,2.9-2.74,5.77-3.07,8.26-.6-4.96-1.72-8.86-1.85-12.9-1.34,2.73-2.29,5.29-2.94,7.62-1.77-3.22-3.57-6.88-4.35-12.53-2.48,4.77-2.81,9.01-2.22,12.63-1.35-3.06-2.62-5.79-3.45-8.72-.69,3.59-.98,6.84-1.01,9.7-.82-2.34-2.06-4.77-3.91-7.07.32,4.08-.28,7.86-.25,12.86-.75-2.34-1.57-4.38-1.98-6.32-.57.92-1.06,1.83-1.48,2.71-.55-3.05-1.16-5.61-1.38-8.41-.91,1.89-1.48,3.8-1.84,5.62-.24-.99-.55-2-.94-3.02-.35,1.47-.87,2.96-1.44,4.54-.28-.42-.55-.83-.81-1.24.32-.85.67-1.69,1.09-2.52-.7.37-1.34.76-1.95,1.16-.34-.57-.67-1.15-.95-1.72-.27.95-.46,1.89-.57,2.81-.49.38-.96.77-1.39,1.17-.01-2.69-.34-5.76-1.16-9.16-.97,2.78-2.5,5.37-4.09,8.29-.67-2.8-1.3-5.38-1.55-7.82-.44.59-.82,1.19-1.19,1.79-.65-2.17-1.89-4.43-4.03-6.69.08,5.52-1.47,9.3-3,12.7-.6-4.89-1.41-9.04-1.5-13.29-1.65,4.03-2.74,7.77-3.42,11.09-.87-2.04-2.06-4.18-3.71-6.38.09,2.82-.36,5.36-.75,8.27-.48-.76-.92-1.51-1.29-2.27-.04.15-.08.3-.12.45-.42-1.97-.79-3.83-.97-5.8-2.74,5.48-2.74,11.05-2.25,14.77h-.1c-.59-3.37-1.76-6-1.89-8.71-1.34,1.79-2.29,3.47-2.94,5-1.77-2.11-3.57-4.51-4.35-8.21-2.48,3.13-2.81,5.91-2.22,8.28-1.35-2-2.62-3.8-3.45-5.72-.69,2.35-.98,4.48-1.01,6.36-.82-1.53-2.06-3.13-3.91-4.64.29,2.45-.18,4.75-.23,7.64h-.42c-.63-1.21-1.24-2.3-1.58-3.35-.57.61-1.05,1.21-1.48,1.8-.55-2.01-1.17-3.69-1.39-5.53-.91,1.24-1.48,2.49-1.84,3.68-.24-.65-.55-1.31-.94-1.98-.44,1.19-1.12,2.4-1.85,3.71-.75-2.8-1.62-5.05-2-7.51-1.19,2.07-1.72,4.17-1.86,6.11-.63-1.3-1.57-2.65-2.97-3.97.1,1.89-.3,3.65-.55,5.75-.5-2.08-1.57-4.62-3.5-7.41-.05,1.39-.34,2.76-.68,4.21-1.18-1.66-2.23-3.61-2.77-6.19-.97,1.23-1.61,2.4-2,3.52-1.05-1.03-2.28-2.02-3.73-2.89.93,2.08,1.45,4.15,2.13,6.48-.8,1.17-1.32,2.28-1.64,3.29-.26-3.58-1.09-6.06-1.08-8.95-.68.9-1.22,1.79-1.68,2.66-.04-1.82-.32-3.76-.99-5.74-.73,2.87-1.93,5.39-3.07,8.66-.5-3.39-1.32-6.03-1.37-9.02-2.46,3.13-3.62,6.2-4.1,8.85-.05-.32-.1-.63-.16-.93.17-1.11.39-2.17.77-3.25-.43.23-.83.47-1.21.72-.21-1.27-.38-2.5-.42-3.8-1.39,2.14-2.22,4.27-2.69,6.24-.56.55-1.05,1.1-1.48,1.66-.57-2.93-1.22-5.36-1.44-8.02-1.39,2.67-2.01,5.35-2.22,7.76-1.08-2.83-2.89-5.93-5.96-8.62.78,3.51.68,6.89,1.23,11.16-.73-2.06-1.5-3.86-1.9-5.58-.67,1-1.23,1.98-1.7,2.92-.73-2.84-2.12-5.99-4.68-8.91.27,3.16-.11,6.12-.22,9.73-.37-.56-.8-1.13-1.25-1.71.17-1.12.39-2.2.77-3.29-3,1.64-4.95,3.56-6.24,5.41-.62-3.14-2.02-6.79-4.95-10.14.32,3.74-.28,7.21-.25,11.79-.75-2.15-1.57-4.01-1.98-5.79-.84,1.25-1.52,2.48-2.04,3.63-.58-3.09-1.27-5.59-1.51-8.36-.92,1.77-1.5,3.55-1.85,5.25-.08-1.18-.26-2.42-.58-3.68-.76,1.75-1.81,3.49-2.94,5.41-.49-2.81-1.12-5.15-1.16-7.75-1.81,2.31-2.91,4.58-3.56,6.67-.59-2.55-1.58-5.48-3.15-8.66-.06,2.62-.58,5.19-1.05,8.09-1.65-2.81-3.25-6.05-3.98-10.86-1.84,3.24-2.49,6.22-2.47,8.9-1.25-2.59-2.42-4.96-3.2-7.48-.72,3.4-1,6.47-1.01,9.16-.38-.4-.79-.79-1.22-1.17-.1-.91-.26-1.85-.5-2.81-.25.57-.53,1.14-.84,1.72-.54-.4-1.1-.79-1.71-1.16.37.84.68,1.67.96,2.52-.58,1.02-1.21,2.07-1.86,3.19-.61-3.83-1.4-7.08-1.5-10.42-1.34,2.73-2.29,5.29-2.94,7.62-1.77-3.22-3.57-6.88-4.35-12.53-2.48,4.77-2.81,9.01-2.22,12.63-1.35-3.06-2.62-5.79-3.45-8.72-.69,3.59-.98,6.84-1.01,9.7-.82-2.34-2.06-4.77-3.91-7.07.32,4.03-.26,7.77-.25,12.67h-.07c-.74-2.26-1.51-4.24-1.92-6.13-.57.92-1.06,1.83-1.48,2.71-.55-3.05-1.16-5.61-1.38-8.41-.91,1.89-1.48,3.8-1.84,5.62-.24-.99-.55-2-.94-3.02-.35,1.47-.87,2.96-1.44,4.54-1-1.5-1.93-2.9-2.62-4.32-.15.53-.27,1.05-.37,1.57-.88-2.57-2.27-5.37-4.44-8.25.09,2.82-.36,5.36-.75,8.27-.48-.76-.92-1.51-1.29-2.27-.59,2.06-.78,4.07-.71,5.87-3.53-.38-6.55-.23-9.43-.99,3.66,4.33,9.95,8.22,9.95,8.22Zm43.49-1.56l-1.74-1.85c.09-.33.18-.67.26-1.03.11.34,1.36,2.54,1.48,2.88Zm156.92-1.85l-2.19,2.28c.1-.27,1.86-2.82,1.96-3.08.07.28.15.54.23.8Zm113.17,2.13l-1.77-2.13c.12-.38.23-.79.33-1.23.13.4,1.3,2.94,1.45,3.36Zm23.94.47l-2.8-.62c.04-.15,1.55-2.26,1.59-2.42,0,.15,1.2,2.89,1.21,3.04Z"/><path class="cls-4" d="m1158.31,407.71c-.24-.99-.54-2-.93-3.01-.36,1.47-.87,2.96-1.45,4.54-.28-.42-.55-.83-.81-1.24.32-.85.67-1.69,1.09-2.52-.69.36-1.33.75-1.95,1.15-.34-.57-.67-1.14-.95-1.71-.27.95-.46,1.89-.57,2.8-.49.38-.96.77-1.39,1.17,0-2.69-.34-5.76-1.16-9.16-.97,2.78-2.5,5.37-4.09,8.29-.67-2.8-1.3-5.38-1.55-7.82-.44.59-.83,1.19-1.2,1.79-.64-2.17-1.88-4.43-4.03-6.69.08,5.51-1.47,9.29-2.99,12.7-.61-4.9-1.41-9.04-1.5-13.29-1.65,4.03-2.74,7.77-3.42,11.09-.87-2.04-2.07-4.18-3.72-6.38.09,2.82-.36,5.36-.75,8.26-.48-.76-.92-1.51-1.29-2.27-.04.16-.08.31-.12.46-.41-1.97-.79-3.83-.96-5.8-2.74,5.48-2.74,11.05-2.26,14.76h-.1c-.59-3.36-1.76-5.99-1.89-8.7-1.34,1.79-2.29,3.47-2.94,4.99-1.78-2.11-3.57-4.51-4.35-8.21-2.48,3.13-2.81,5.91-2.22,8.28-1.35-2-2.62-3.8-3.45-5.72-.69,2.35-.98,4.48-1.01,6.36-.82-1.54-2.06-3.13-3.91-4.64.3,2.45-.17,4.75-.23,7.64h-.42c-.62-1.2-1.23-2.3-1.57-3.35-.58.61-1.06,1.21-1.48,1.8-.56-2.01-1.17-3.69-1.39-5.53-.91,1.24-1.48,2.49-1.84,3.68-.24-.65-.54-1.31-.93-1.98-.44,1.19-1.12,2.4-1.85,3.71-.76-2.8-1.63-5.05-2.01-7.51-1.19,2.07-1.71,4.18-1.86,6.11-.63-1.3-1.56-2.65-2.96-3.97.09,1.9-.31,3.65-.56,5.75-.5-2.08-1.57-4.62-3.5-7.41-.04,1.38-.34,2.75-.68,4.21-1.18-1.66-2.23-3.61-2.77-6.2-.97,1.23-1.61,2.41-2,3.52-1.05-1.03-2.28-2.01-3.73-2.88.93,2.07,1.45,4.15,2.13,6.48-.8,1.17-1.32,2.28-1.64,3.28-.26-3.58-1.08-6.06-1.08-8.95-.68.9-1.22,1.79-1.68,2.66-.04-1.82-.32-3.76-.99-5.74-.73,2.88-1.93,5.39-3.07,8.67-.5-3.4-1.32-6.03-1.37-9.02-2.46,3.13-3.62,6.2-4.1,8.85-.05-.32-.11-.63-.16-.93.17-1.11.39-2.18.77-3.25-.43.23-.83.47-1.21.71-.21-1.26-.38-2.5-.42-3.8-1.39,2.14-2.22,4.27-2.69,6.24-.56.55-1.05,1.1-1.47,1.65-.57-2.93-1.22-5.35-1.45-8.01-1.39,2.66-2.01,5.35-2.22,7.76-1.07-2.83-2.89-5.93-5.95-8.62.77,3.52.68,6.89,1.23,11.16-.73-2.05-1.5-3.86-1.91-5.58-.66,1-1.23,1.98-1.7,2.92-.72-2.85-2.11-5.99-4.67-8.92.27,3.16-.11,6.13-.22,9.73-.37-.56-.8-1.13-1.25-1.71.17-1.12.39-2.2.77-3.29-3,1.64-4.95,3.56-6.23,5.41-.63-3.14-2.02-6.79-4.96-10.14.32,3.74-.28,7.21-.25,11.79-.75-2.14-1.56-4.01-1.98-5.79-.84,1.25-1.52,2.48-2.04,3.63-.58-3.08-1.27-5.59-1.5-8.35-.93,1.77-1.51,3.54-1.86,5.24-.08-1.18-.26-2.42-.58-3.68-.76,1.76-1.81,3.49-2.94,5.41-.49-2.8-1.12-5.14-1.16-7.75-1.81,2.31-2.92,4.57-3.57,6.67-.59-2.55-1.58-5.48-3.15-8.66-.06,2.62-.57,5.2-1.05,8.09-1.65-2.81-3.25-6.05-3.97-10.86-1.84,3.24-2.49,6.22-2.47,8.9-1.26-2.6-2.43-4.96-3.2-7.48-.72,3.4-1.01,6.47-1.01,9.16-.38-.4-.79-.79-1.22-1.17-.1-.91-.26-1.85-.5-2.8-.25.57-.54,1.14-.84,1.71-.54-.4-1.1-.79-1.71-1.16.37.84.68,1.68.96,2.53-.58,1.02-1.21,2.07-1.86,3.19-.6-3.83-1.39-7.08-1.5-10.42-1.34,2.73-2.29,5.29-2.94,7.62-1.77-3.22-3.57-6.88-4.35-12.53-2.47,4.77-2.8,9.02-2.22,12.63-1.34-3.05-2.62-5.79-3.44-8.72-.7,3.59-.99,6.83-1.02,9.7-.82-2.34-2.05-4.77-3.9-7.08.31,4.03-.26,7.77-.25,12.67h-.06c-.74-2.26-1.52-4.24-1.92-6.12-.57.92-1.06,1.83-1.48,2.71-.55-3.05-1.17-5.61-1.38-8.41-.91,1.89-1.49,3.8-1.84,5.62-.24-.99-.55-2-.94-3.02-.35,1.47-.87,2.97-1.44,4.54-1-1.5-1.93-2.9-2.62-4.32-.15.53-.27,1.05-.37,1.57-.88-2.57-2.28-5.37-4.44-8.25.08,2.82-.37,5.36-.76,8.27-.47-.77-.92-1.52-1.29-2.27-.59,2.06-.78,4.06-.7,5.86-3.54-.37-6.56-.23-9.43-.98,3.66,4.33,9.94,8.22,9.94,8.22h207.13v-15.84c-.82,1.79-1.35,3.58-1.69,5.3Zm-163.68,7.12c.09-.32.18-.66.26-1.02.11.33,1.35,2.53,1.48,2.88l-1.74-1.86Zm156.47,2.29c.1-.27,1.86-2.82,1.96-3.08.06.28.14.54.22.79l-2.18,2.29Z"/><rect class="cls-1" x="579.74" y="365.57" width="580.05" height="52.68" transform="translate(1739.53 783.82) rotate(-180)"/><path class="cls-5" d="m594.8,410.03c-2.88.75-5.9.61-9.43.99.07-1.8-.11-3.8-.71-5.87-.37.75-.82,1.51-1.29,2.27-.39-2.9-.84-5.44-.75-8.27-2.17,2.88-3.56,5.68-4.44,8.25-.1-.52-.22-1.04-.37-1.57-.7,1.41-1.62,2.82-2.62,4.32-.57-1.58-1.09-3.07-1.44-4.54-.39,1.01-.7,2.03-.94,3.02-.35-1.82-.93-3.73-1.84-5.62-.22,2.8-.83,5.36-1.38,8.41-.42-.88-.92-1.79-1.48-2.71-.4,1.89-1.18,3.87-1.92,6.13h-.07c.01-4.9-.56-8.65-.25-12.67-1.85,2.3-3.09,4.73-3.91,7.07-.03-2.86-.32-6.11-1.01-9.7-.83,2.93-2.1,5.67-3.45,8.72.59-3.61.26-7.86-2.22-12.63-.78,5.64-2.57,9.3-4.35,12.53-.65-2.33-1.6-4.89-2.94-7.62-.11,3.34-.89,6.59-1.5,10.42-.65-1.12-1.27-2.18-1.86-3.19.28-.85.59-1.69.96-2.52-.61.37-1.17.76-1.71,1.16-.3-.57-.59-1.15-.84-1.72-.24.95-.4,1.89-.5,2.81-.43.38-.84.77-1.22,1.17,0-2.69-.3-5.76-1.01-9.16-.77,2.52-1.94,4.88-3.2,7.48.02-2.68-.63-5.65-2.47-8.9-.72,4.81-2.33,8.05-3.98,10.86-.48-2.89-.99-5.47-1.05-8.09-1.57,3.18-2.56,6.11-3.15,8.66-.65-2.1-1.75-4.36-3.56-6.67-.04,2.61-.67,4.95-1.16,7.75-1.13-1.92-2.18-3.66-2.94-5.41-.32,1.26-.5,2.5-.58,3.68-.35-1.7-.93-3.48-1.85-5.25-.23,2.76-.93,5.27-1.51,8.36-.52-1.15-1.2-2.38-2.04-3.63-.42,1.78-1.23,3.65-1.98,5.79.03-4.58-.57-8.05-.25-11.79-2.94,3.35-4.33,7-4.95,10.14-1.28-1.85-3.24-3.77-6.24-5.41.38,1.09.6,2.17.77,3.29-.46.57-.88,1.15-1.25,1.71-.11-3.6-.49-6.57-.22-9.73-2.56,2.92-3.95,6.07-4.68,8.91-.47-.94-1.03-1.92-1.7-2.92-.4,1.72-1.17,3.52-1.9,5.58.55-4.27.46-7.65,1.23-11.16-3.07,2.69-4.88,5.78-5.96,8.62-.21-2.41-.83-5.1-2.22-7.76-.23,2.66-.88,5.08-1.44,8.02-.43-.55-.91-1.11-1.48-1.66-.47-1.97-1.3-4.09-2.69-6.24-.04,1.3-.21,2.54-.42,3.8-.39-.24-.79-.48-1.21-.72.38,1.08.6,2.14.77,3.25-.05.3-.1.61-.16.93-.48-2.65-1.64-5.72-4.1-8.85-.05,2.99-.87,5.62-1.37,9.02-1.14-3.27-2.34-5.79-3.07-8.66-.67,1.98-.95,3.92-.99,5.74-.45-.87-1-1.76-1.68-2.66,0,2.89-.82,5.37-1.08,8.95-.32-1.01-.84-2.12-1.64-3.29.68-2.33,1.2-4.4,2.13-6.48-1.45.87-2.68,1.86-3.73,2.89-.39-1.12-1.02-2.29-2-3.52-.54,2.59-1.59,4.53-2.77,6.19-.34-1.46-.64-2.83-.68-4.21-1.93,2.8-3,5.33-3.5,7.41-.25-2.1-.65-3.85-.55-5.75-1.4,1.32-2.34,2.67-2.97,3.97-.15-1.93-.67-4.04-1.86-6.11-.38,2.46-1.25,4.71-2,7.51-.73-1.31-1.41-2.52-1.85-3.71-.39.67-.7,1.33-.94,1.98-.35-1.2-.93-2.44-1.84-3.68-.22,1.84-.83,3.52-1.39,5.53-.43-.58-.9-1.18-1.48-1.8-.34,1.05-.95,2.14-1.58,3.35h-.42c-.06-2.89-.53-5.19-.23-7.64-1.85,1.51-3.09,3.1-3.91,4.64-.03-1.88-.32-4-1.01-6.36-.83,1.92-2.1,3.71-3.45,5.72.59-2.37.26-5.15-2.22-8.28-.78,3.7-2.57,6.1-4.35,8.21-.65-1.53-1.6-3.21-2.94-5-.13,2.71-1.3,5.34-1.89,8.71h-.1c.49-3.71.49-9.29-2.25-14.77-.18,1.97-.55,3.83-.97,5.8-.04-.15-.07-.3-.12-.45-.37.75-.82,1.51-1.29,2.27-.39-2.9-.84-5.44-.75-8.27-1.65,2.2-2.85,4.34-3.71,6.38-.68-3.31-1.78-7.06-3.42-11.09-.09,4.25-.89,8.39-1.5,13.29-1.52-3.4-3.08-7.18-3-12.7-2.14,2.26-3.38,4.52-4.03,6.69-.37-.6-.76-1.2-1.19-1.79-.25,2.45-.88,5.02-1.55,7.82-1.6-2.92-3.12-5.51-4.09-8.29-.82,3.4-1.15,6.47-1.16,9.16-.43-.4-.9-.79-1.39-1.17-.12-.91-.3-1.85-.57-2.81-.28.57-.61,1.14-.95,1.72-.61-.4-1.25-.79-1.95-1.16.43.84.78,1.67,1.09,2.52-.26.41-.53.82-.81,1.24-.57-1.58-1.09-3.07-1.44-4.54-.39,1.01-.7,2.03-.94,3.02-.35-1.82-.93-3.73-1.84-5.62-.22,2.8-.83,5.36-1.38,8.41-.42-.88-.92-1.79-1.48-2.71-.41,1.94-1.23,3.98-1.98,6.32.03-5-.57-8.78-.25-12.86-1.85,2.3-3.09,4.73-3.91,7.07-.03-2.86-.32-6.11-1.01-9.7-.83,2.93-2.1,5.67-3.45,8.72.59-3.61.26-7.86-2.22-12.63-.78,5.64-2.57,9.3-4.35,12.53-.65-2.33-1.6-4.89-2.94-7.62-.13,4.03-1.25,7.94-1.85,12.9-.33-2.49-1.19-5.36-3.07-8.26-.07,2.44-.59,4.64-1.02,7.27-.48-2.65-1.64-5.72-4.1-8.85-.05,2.99-.87,5.62-1.37,9.02-1.14-3.27-2.34-5.79-3.07-8.66-.67,1.98-.95,3.92-.99,5.74-.45-.87-1-1.76-1.68-2.66,0,2.82-.78,5.27-1.06,8.72h-.1c-.32-.94-.81-1.97-1.56-3.06.68-2.33,1.2-4.4,2.13-6.48-2.26,1.35-3.99,2.98-5.32,4.63.17-2.98.05-6.46-.55-10.36-1.01,3.32-2.59,6.4-4.19,10.05.63-3.35.33-7.3-2.19-11.74-.54,3.62-1.59,6.34-2.77,8.66-.34-2.04-.64-3.95-.68-5.89-1.93,3.91-3,7.45-3.5,10.36-.25-2.94-.65-5.38-.56-8.03-1.4,1.85-2.34,3.74-2.97,5.55-.15-2.7-.67-5.65-1.86-8.54-.38,3.44-1.25,6.57-2.01,10.49-.73-1.83-1.41-3.52-1.85-5.18-.39.93-.7,1.86-.94,2.77-.35-1.67-.93-3.42-1.84-5.15-.22,2.57-.83,4.91-1.38,7.71-.42-.81-.92-1.64-1.48-2.48-.41,1.78-1.23,3.65-1.98,5.79.03-4.58-.57-8.05-.25-11.79-1.85,2.11-3.09,4.34-3.91,6.48-.03-2.62-.32-5.6-1.01-8.89-.83,2.69-2.1,5.19-3.45,8,.59-3.31.26-7.2-2.22-11.58-.78,5.17-2.57,8.53-4.35,11.48-.65-2.13-1.6-4.48-2.94-6.99-.12,3.52-1.14,6.93-1.76,11.16.07-3.38-.45-7.51-2.49-11.59-.32,3.5-1.25,6.65-1.96,10.72-.68-1.19-1.35-2.31-1.96-3.38.28-.85.59-1.69.96-2.52-.61.37-1.17.76-1.71,1.16-.3-.57-.59-1.15-.84-1.72-.24.95-.4,1.89-.5,2.81-.43.38-.84.77-1.22,1.17,0-2.69-.3-5.76-1.01-9.16-.77,2.52-1.94,4.88-3.2,7.48.02-2.68-.63-5.65-2.47-8.9-.72,4.81-2.33,8.05-3.98,10.86-.48-2.89-.99-5.47-1.05-8.09-1.57,3.18-2.56,6.11-3.15,8.66-.65-2.1-1.75-4.36-3.56-6.67-.04,2.61-.67,4.95-1.16,7.75-1.13-1.92-2.18-3.66-2.94-5.41-.32,1.26-.5,2.5-.58,3.68-.35-1.7-.93-3.48-1.85-5.25-.23,2.76-.93,5.27-1.51,8.36-.52-1.15-1.2-2.38-2.04-3.63-.41,1.78-1.23,3.65-1.98,5.79.03-4.58-.57-8.05-.25-11.79-2.94,3.35-4.33,7-4.95,10.14-1.28-1.85-3.24-3.77-6.24-5.41.38,1.09.6,2.17.77,3.29-.46.57-.88,1.15-1.25,1.71-.11-3.6-.49-6.57-.22-9.73-2.56,2.92-3.95,6.07-4.68,8.91-.47-.94-1.03-1.92-1.7-2.92-.4,1.72-1.17,3.52-1.9,5.58.55-4.27.46-7.65,1.23-11.16-3.07,2.69-4.88,5.78-5.96,8.62-.21-2.41-.83-5.1-2.22-7.76-.23,2.66-.88,5.08-1.44,8.02-1.28-1.66-3.12-3.35-5.79-4.81.91,2.57.89,5.09,1.54,8.21-2.51-.97-5.7-1.8-9.63-2.06,3.31,1.88,9.63,5.48,9.63,5.48h377.18s6.28-3.89,9.95-8.22Zm-51.96,3.78c.08.36.17.7.26,1.03l-1.74,1.85c.12-.35,1.37-2.55,1.48-2.88Zm-158.17.23c.1.26,1.86,2.81,1.96,3.08l-2.19-2.28c.08-.26.16-.52.23-.8Zm-111.95-.43c.1.44.21.85.33,1.23l-1.77,2.13c.15-.42,1.32-2.96,1.45-3.36Zm-24.18.78c.04.16,1.55,2.27,1.59,2.42l-2.8.62c.01-.15,1.2-2.89,1.21-3.04Z"/><path class="cls-3" d="m207.44,411.01c.07-1.8-.11-3.8-.71-5.86-.37.75-.81,1.5-1.29,2.27-.39-2.91-.84-5.45-.75-8.27-2.17,2.88-3.56,5.68-4.44,8.25-.1-.52-.22-1.04-.37-1.57-.7,1.42-1.62,2.82-2.62,4.32-.58-1.57-1.09-3.07-1.45-4.54-.39,1.02-.69,2.03-.93,3.02-.36-1.82-.93-3.73-1.84-5.62-.22,2.8-.83,5.36-1.38,8.41-.42-.88-.92-1.79-1.48-2.71-.41,1.88-1.19,3.86-1.92,6.12h-.07c.02-4.9-.56-8.64-.24-12.67-1.85,2.31-3.09,4.74-3.91,7.08-.03-2.87-.32-6.11-1.01-9.7-.83,2.93-2.1,5.67-3.45,8.72.59-3.61.26-7.86-2.22-12.63-.77,5.65-2.57,9.31-4.35,12.53-.65-2.33-1.6-4.89-2.94-7.62-.1,3.34-.89,6.59-1.5,10.42-.64-1.12-1.27-2.17-1.85-3.19.28-.85.58-1.69.95-2.53-.61.37-1.17.76-1.7,1.16-.31-.57-.59-1.14-.84-1.71-.24.95-.4,1.89-.5,2.8-.43.38-.84.77-1.22,1.17,0-2.69-.3-5.76-1.01-9.16-.78,2.52-1.95,4.88-3.2,7.48.02-2.68-.63-5.66-2.47-8.9-.72,4.81-2.33,8.05-3.98,10.86-.47-2.89-.99-5.47-1.05-8.09-1.56,3.18-2.56,6.11-3.15,8.66-.65-2.1-1.75-4.36-3.56-6.67-.04,2.61-.67,4.95-1.16,7.75-1.13-1.92-2.19-3.65-2.95-5.41-.31,1.26-.49,2.5-.57,3.68-.36-1.7-.93-3.47-1.86-5.24-.23,2.76-.93,5.27-1.51,8.35-.52-1.15-1.2-2.38-2.04-3.63-.41,1.78-1.22,3.65-1.98,5.79.03-4.58-.56-8.05-.24-11.79-2.94,3.35-4.34,7-4.96,10.14-1.28-1.85-3.23-3.77-6.23-5.41.38,1.09.6,2.17.77,3.29-.46.58-.88,1.15-1.25,1.71-.11-3.6-.49-6.57-.22-9.73-2.56,2.93-3.95,6.07-4.68,8.92-.47-.94-1.03-1.92-1.7-2.92-.4,1.72-1.17,3.53-1.9,5.58.54-4.27.45-7.64,1.23-11.16-3.07,2.69-4.88,5.79-5.96,8.62-.21-2.41-.82-5.1-2.22-7.76-.22,2.66-.88,5.08-1.44,8.01-.43-.55-.92-1.1-1.48-1.65-.47-1.97-1.29-4.1-2.68-6.24-.04,1.3-.21,2.54-.42,3.8-.39-.24-.79-.48-1.21-.71.38,1.07.59,2.14.76,3.25-.05.3-.1.61-.15.93-.48-2.65-1.65-5.72-4.1-8.85-.05,2.99-.87,5.62-1.37,9.02-1.15-3.28-2.35-5.79-3.07-8.67-.68,1.98-.95,3.92-1,5.74-.45-.87-1-1.76-1.68-2.66.01,2.89-.82,5.37-1.08,8.95-.31-1-.83-2.11-1.63-3.28.67-2.33,1.2-4.41,2.13-6.48-1.46.87-2.68,1.85-3.74,2.88-.38-1.11-1.02-2.29-1.99-3.52-.55,2.59-1.59,4.54-2.78,6.2-.34-1.46-.63-2.83-.68-4.21-1.93,2.79-2.99,5.33-3.49,7.41-.25-2.1-.66-3.85-.56-5.75-1.4,1.32-2.34,2.67-2.97,3.97-.14-1.93-.66-4.04-1.86-6.11-.38,2.46-1.25,4.71-2,7.51-.73-1.31-1.41-2.52-1.85-3.71-.39.67-.7,1.33-.94,1.98-.35-1.19-.93-2.44-1.84-3.68-.21,1.84-.83,3.52-1.38,5.53-.43-.59-.91-1.19-1.48-1.8-.34,1.05-.95,2.15-1.58,3.35h-.41c-.06-2.89-.53-5.19-.24-7.64-1.85,1.51-3.08,3.1-3.9,4.64-.03-1.88-.32-4.01-1.02-6.36-.82,1.92-2.09,3.72-3.44,5.72.58-2.37.25-5.15-2.22-8.28-.78,3.7-2.58,6.1-4.35,8.21-.65-1.52-1.6-3.2-2.94-4.99-.13,2.71-1.31,5.34-1.9,8.7h-.1c.49-3.71.49-9.28-2.25-14.76-.18,1.97-.55,3.83-.97,5.8-.04-.15-.07-.3-.11-.46-.37.76-.82,1.51-1.3,2.27-.38-2.9-.83-5.44-.75-8.26-1.65,2.2-2.84,4.34-3.71,6.38-.68-3.32-1.78-7.06-3.42-11.09-.09,4.25-.89,8.39-1.5,13.29-1.52-3.41-3.08-7.19-3-12.7-2.14,2.26-3.38,4.52-4.03,6.69-.37-.6-.76-1.2-1.19-1.79-.25,2.44-.88,5.02-1.55,7.82-1.6-2.92-3.12-5.51-4.1-8.29-.81,3.4-1.14,6.47-1.15,9.16-.43-.4-.9-.79-1.39-1.17-.12-.91-.3-1.85-.57-2.8-.29.57-.61,1.14-.96,1.71-.61-.4-1.25-.79-1.95-1.15.43.83.78,1.67,1.1,2.52-.27.41-.54.82-.82,1.24-.57-1.58-1.08-3.07-1.44-4.54-.39,1.01-.7,2.02-.94,3.01-.3-1.57-.78-3.2-1.48-4.84v15.38h206.92s6.29-3.89,9.95-8.22c-2.88.75-5.9.61-9.43.98Zm-200.93,3.82c.08-.25.16-.51.23-.79.1.26,1.86,2.81,1.96,3.08l-2.19-2.29Zm156.92,1.86c.12-.35,1.37-2.55,1.48-2.88.08.36.16.7.26,1.02l-1.74,1.86Z"/><rect class="cls-1" x="0" y="365.57" width="580.05" height="52.68"/></svg>