<svg width="48" height="48" viewBox="0 0 48 48" fill="none" xmlns="http://www.w3.org/2000/svg">
<path d="M4 12C5.2 13 6.4 14 9 14C14 14 14 10 19 10C21.6 10 22.8 11 24 12C25.2 13 26.4 14 29 14C34 14 34 10 39 10C41.6 10 42.8 11 44 12M4 36C5.2 37 6.4 38 9 38C14 38 14 34 19 34C21.6 34 22.8 35 24 36C25.2 37 26.4 38 29 38C34 38 34 34 39 34C41.6 34 42.8 35 44 36M4 24C5.2 25 6.4 26 9 26C14 26 14 22 19 22C21.6 22 22.8 23 24 24C25.2 25 26.4 26 29 26C34 26 34 22 39 22C41.6 22 42.8 23 44 24" stroke="#104035" stroke-width="3" stroke-linecap="round" stroke-linejoin="round"/>
</svg>
