<svg width="48" height="48" viewBox="0 0 48 48" fill="none" xmlns="http://www.w3.org/2000/svg">
<path d="M34.5 18.15V15C34.5 9.15 29.85 4.5 24 4.5C18.15 4.5 13.5 9.15 13.5 15V18.15C9.3 18.9 6 22.5 6 27C6 31.95 10.05 36 15 36H22.5V45C22.5 45.9 23.1 46.5 24 46.5C24.9 46.5 25.5 45.9 25.5 45V36H33C37.95 36 42 31.95 42 27C42 22.5 38.7 18.9 34.5 18.15ZM34.2 26.4C32.25 29.4 28.95 31.2 25.35 31.5C25.35 31.65 25.35 31.8 25.35 31.95V34.5C25.35 35.4 24.75 36 23.85 36C22.95 36 22.35 35.4 22.35 34.5V31.95C22.35 30.3 21.6 28.8 20.1 27.9C19.5 27.3 18.6 27 17.55 27H15C14.1 27 13.5 26.4 13.5 25.5C13.5 24.6 14.1 24 15 24H17.55C19.05 24 20.7 24.45 21.9 25.35C22.05 25.5 22.2 25.65 22.5 25.8V13.5C22.5 12.6 23.1 12 24 12C24.9 12 25.5 12.6 25.5 13.5V28.5C28.05 28.2 30.3 26.85 31.8 24.75C32.25 24 33.15 23.85 33.9 24.3C34.5 24.75 34.65 25.65 34.2 26.4Z" fill="#104035"/>
</svg>
