<svg width="48" height="48" viewBox="0 0 48 48" fill="none" xmlns="http://www.w3.org/2000/svg">
<path d="M3.00469 45.9979C3.07978 45.4817 3.15486 44.9843 3.22056 44.4821C3.30034 43.8533 3.37543 43.2245 3.45052 42.5956C3.51622 42.0418 3.56314 41.4881 3.62885 40.9343C3.69455 40.3853 3.77902 39.8362 3.84941 39.2871C3.9198 38.7428 3.98081 38.1984 4.04651 37.6587C4.13098 36.9548 4.22015 36.2555 4.30462 35.5516C4.35155 35.1527 4.40317 34.7538 4.4501 34.3502C4.51111 33.7871 4.56273 33.2239 4.63312 32.6608C4.64251 32.6045 4.74106 32.5247 4.81145 32.5106C4.95223 32.4778 5.10241 32.4684 5.24789 32.4684C8.74877 32.4684 12.245 32.4684 15.7458 32.4684C15.9101 32.4684 15.9946 32.4825 16.018 32.6983C16.1166 33.6838 16.248 34.66 16.3606 35.6455C16.4592 36.5043 16.5483 37.3631 16.6563 38.2172C16.7595 39.0337 16.8956 39.8456 16.9988 40.6621C17.0927 41.3848 17.1537 42.1122 17.2429 42.8349C17.3273 43.5295 17.4353 44.2193 17.5291 44.9092C17.5714 45.233 17.6136 45.5521 17.6324 45.8759C17.6324 45.9182 17.4869 46.0073 17.4071 46.0073C16.3043 46.0167 15.1968 46.0214 14.094 46.0214C10.457 46.0214 6.82 46.0214 3.18771 46.0214C3.12201 46.0214 3.05631 46.0026 3 45.9979H3.00469Z" fill="#104035"/>
<path d="M4.75043 31.877C4.81613 31.3702 4.87713 30.8962 4.93814 30.4223C4.99446 29.9764 5.05077 29.5259 5.10239 29.0801C5.12586 28.8971 5.11178 28.7094 5.17279 28.5404C5.20094 28.4606 5.3605 28.3809 5.46374 28.3762C5.96119 28.3621 6.45863 28.3715 6.96077 28.3715C9.54185 28.3715 12.1229 28.3715 14.6993 28.3762C14.9527 28.3762 15.2015 28.4043 15.469 28.4231C15.6191 29.5682 15.7646 30.7132 15.9148 31.877H4.75043Z" fill="#104035"/>
<path d="M17.5009 12.6317C18.1015 12.5988 18.3784 13.0212 18.416 13.4905C18.4488 13.941 17.9701 14.3915 17.4821 14.3915C17.0269 14.3915 16.5904 13.9504 16.5951 13.4811C16.5951 12.993 16.9799 12.6317 17.5009 12.6317Z" fill="#1C1D1B"/>
<path d="M17.4728 8.58168C17.0505 8.67085 16.6046 8.13117 16.5953 7.76982C16.5859 7.28645 16.9941 6.81716 17.454 6.83124C18.0735 6.85001 18.3738 7.17382 18.402 7.73227C18.4208 8.14525 18.1017 8.60045 17.4728 8.58638V8.58168Z" fill="#104035"/>
<path d="M31.6407 7.00024C32.1569 7.00024 32.5323 7.34752 32.5511 7.84027C32.5652 8.3424 32.1053 8.77884 31.575 8.76007C31.1667 8.74599 30.7397 8.27201 30.7444 7.83088C30.7491 7.34282 31.1245 7.00024 31.6454 7.00024H31.6407Z" fill="#104035"/>
<path d="M32.382 22.6274C32.382 22.1065 32.7621 21.778 33.3534 21.778C33.7664 21.778 34.1841 22.2003 34.1935 22.6133C34.2029 23.106 33.7148 23.5566 33.1892 23.5378C32.7903 23.5237 32.382 23.0591 32.382 22.6227V22.6274Z" fill="#104035"/>
<path d="M17.487 20.4968C17.0365 20.4968 16.5578 20.0369 16.6 19.5958C16.6469 19.0843 16.9708 18.737 17.5104 18.7464C18.0877 18.7558 18.4068 19.0843 18.4021 19.6334C18.4021 20.1636 18.0783 20.4828 17.487 20.4922V20.4968Z" fill="#104035"/>
<path d="M32.4948 19.7648C32.4948 20.2951 32.1569 20.6471 31.6266 20.6659C31.2043 20.6846 30.7397 20.2013 30.735 19.7367C30.7303 19.2956 31.1151 18.9014 31.5515 18.906C32.2038 18.906 32.4948 19.1735 32.4948 19.7648Z" fill="#104035"/>
<path d="M7.8524 19.3847C7.88055 19.9947 7.37372 20.2247 6.98421 20.2482C6.54778 20.2716 6.10195 19.7883 6.09257 19.3237C6.08788 18.967 6.50085 18.4743 6.92321 18.4883C7.56613 18.5118 7.8477 18.7558 7.85709 19.3847H7.8524Z" fill="#104035"/>
<path d="M27.098 16.5032C27.1262 17.0382 26.7038 17.3902 26.2111 17.3855C25.7277 17.3855 25.3429 16.9913 25.3382 16.5032C25.3335 16.0292 25.7324 15.6116 26.2017 15.6163C26.7367 15.6256 27.098 15.9776 27.098 16.4985V16.5032Z" fill="#104035"/>
<path d="M12.9582 22.4867C12.9582 22.9935 12.5968 23.3596 12.09 23.3689C11.6207 23.3736 11.1936 22.956 11.1983 22.4961C11.1983 22.008 11.5925 21.595 12.0618 21.6091C12.6625 21.6232 13.0004 22.0315 12.9535 22.4914L12.9582 22.4867Z" fill="#104035"/>
<path d="M10.471 18.4977C10.9778 18.4977 11.3063 18.798 11.3204 19.2485C11.3439 19.9853 10.9027 20.1965 10.3912 20.2528C10.0205 20.2951 9.55119 19.7554 9.55588 19.333C9.56057 18.8496 9.95008 18.4977 10.471 18.4977Z" fill="#104035"/>
<path d="M27.098 22.6509C27.1167 23.2703 26.6897 23.505 26.1688 23.5284C25.7886 23.5472 25.3757 23.1624 25.3334 22.6603C25.3006 22.2848 25.7464 21.7545 26.15 21.7733C26.7507 21.8015 27.0933 22.0924 27.098 22.6509Z" fill="#104035"/>
<path d="M31.6172 26.5271C31.1761 26.5271 30.7396 26.0672 30.7349 25.5979C30.7349 25.138 31.1432 24.772 31.6594 24.772C32.1381 24.772 32.5745 25.1803 32.537 25.6542C32.4948 26.1704 32.1991 26.4989 31.6172 26.5271Z" fill="#104035"/>
<path d="M36.019 28.4091C36.019 27.9304 36.4038 27.5315 36.8731 27.5315C37.3987 27.5315 37.7882 27.8975 37.7882 28.4044C37.7882 28.9065 37.4128 29.2772 36.859 29.2913C36.4366 29.3007 36.0237 28.8502 36.0237 28.4091H36.019Z" fill="#104035"/>
<path d="M12.076 15.5036C12.5359 15.4098 12.963 15.804 12.9583 16.3061C12.9489 16.9162 12.6439 17.1978 12.0103 17.2118C11.5927 17.2259 11.1985 16.7566 11.2032 16.3577C11.2032 15.8462 11.5598 15.4989 12.076 15.5036Z" fill="#104035"/>
<path d="M26.2203 9.8721C26.7036 9.79701 27.0603 10.1865 27.1119 10.6699C27.1682 11.1908 26.6567 11.6272 26.1311 11.5803C25.7228 11.5428 25.3427 11.1626 25.3427 10.7168C25.3427 10.2194 25.7041 9.8721 26.2203 9.8721Z" fill="#104035"/>
<path d="M33.2222 11.5147C32.8233 11.5147 32.3774 11.0313 32.3774 10.609C32.3774 10.2007 32.828 9.75488 33.2456 9.75488C33.7478 9.75488 34.2264 10.1819 34.1889 10.6418C34.1467 11.1674 33.8228 11.4912 33.2222 11.5194V11.5147Z" fill="#104035"/>
<path d="M43.1756 13.6594C43.1756 14.124 42.772 14.49 42.2652 14.5088C41.885 14.5229 41.397 14.063 41.4111 13.6218C41.4298 13.115 41.8006 12.7302 42.3168 12.7443C42.7814 12.7537 43.185 13.0634 43.1709 13.6594H43.1756Z" fill="#104035"/>
<path d="M11.3157 25.5136C11.311 26.0158 10.9403 26.3443 10.4194 26.3724C9.93129 26.3959 9.54648 25.8562 9.56055 25.4385C9.57463 25.0302 9.98291 24.6079 10.3912 24.6032C10.9356 24.5938 11.3204 24.9739 11.3157 25.5183V25.5136Z" fill="#104035"/>
<path d="M32.4948 13.6171C32.4901 14.1521 32.1146 14.5088 31.5703 14.5041C31.1714 14.5041 30.7349 14.0442 30.7349 13.6265C30.7349 13.1619 31.1667 12.7395 31.6406 12.7489C32.1052 12.7536 32.5464 13.115 32.4948 13.6171Z" fill="#104035"/>
<path d="M35.9581 7.83088C35.9768 8.40811 35.5122 8.72253 35.057 8.75538C34.6581 8.78354 34.1982 8.2767 34.1982 7.84965C34.1982 7.38037 34.5971 7.00024 35.0711 7.00024C35.6249 7.00494 35.9675 7.32405 35.9628 7.83088H35.9581Z" fill="#104035"/>
<path d="M39.534 7.87298C39.5246 8.43143 39.2055 8.713 38.5813 8.69892C38.1496 8.68954 37.7648 8.28126 37.7695 7.83543C37.7741 7.3333 38.1683 6.99072 38.7315 6.99541C39.2055 7.0001 39.5387 7.36615 39.5293 7.86828L39.534 7.87298Z" fill="#104035"/>
<path d="M34.1373 28.3903C34.1373 28.8878 33.7244 29.296 33.2222 29.2913C32.8421 29.2913 32.3447 28.7704 32.3822 28.3715C32.415 27.9914 32.7201 27.5315 33.2316 27.5221C33.7525 27.5127 34.1936 27.9304 34.1373 28.395V28.3903Z" fill="#104035"/>
<path d="M10.4383 14.4477C9.95962 14.4477 9.55603 14.0488 9.55603 13.5701C9.55603 13.143 9.95492 12.7066 10.3538 12.6925C10.8606 12.6737 11.3112 13.082 11.3159 13.5654C11.3159 14.0957 10.9639 14.4523 10.4383 14.4523V14.4477Z" fill="#104035"/>
<path d="M27.9943 18.7886C28.5246 18.7886 28.9423 19.1312 28.9141 19.6004C28.8813 20.0979 28.5903 20.4686 28.0178 20.4921C27.5391 20.5109 27.159 20.1073 27.1543 19.6098C27.1543 19.0842 27.4499 18.7933 27.9943 18.7886Z" fill="#104035"/>
<path d="M26.197 4.00598C26.7179 4.00598 27.098 4.3204 27.098 4.76153C27.098 5.33876 26.7695 5.7048 26.2486 5.70949C25.7418 5.70949 25.3429 5.34814 25.3335 4.87416C25.3241 4.38141 25.6948 4.01067 26.197 4.00598Z" fill="#104035"/>
<path d="M20.1759 10.764C20.2369 11.2474 19.7629 11.5853 19.3124 11.6275C18.9276 11.665 18.4067 11.1348 18.4208 10.7312C18.4301 10.3839 18.7446 9.85829 19.2279 9.86768C19.8521 9.87706 20.1759 10.168 20.1806 10.7593L20.1759 10.764Z" fill="#104035"/>
<path d="M21.8184 13.4624C21.8559 14.063 21.3491 14.3681 20.9361 14.3868C20.5091 14.4056 20.0492 13.8894 20.0586 13.4483C20.0679 12.9978 20.4621 12.6317 20.9361 12.6317C21.4852 12.6317 21.8184 12.9461 21.8184 13.4624Z" fill="#104035"/>
<path d="M28.0177 14.3303C27.5202 14.3303 27.1589 13.9784 27.1589 13.4856C27.1589 12.9976 27.5108 12.6315 27.9895 12.6315C28.6794 12.6268 28.914 13.0163 28.914 13.4903C28.914 14.0347 28.4916 14.3866 28.0224 14.335L28.0177 14.3303Z" fill="#104035"/>
<path d="M15.6755 17.2071C15.1875 17.2071 14.8355 16.827 14.8355 16.3061C14.8355 15.8368 15.1687 15.5318 15.6286 15.4989C16.2387 15.452 16.5813 15.8744 16.586 16.3812C16.5906 16.8129 16.2246 17.2728 15.6755 17.2071Z" fill="#104035"/>
<path d="M25.277 25.6121C25.338 26.0907 24.8734 26.5131 24.3666 26.5272C23.9724 26.5412 23.5125 26.0203 23.5172 25.5886C23.5172 25.1428 23.9114 24.7673 24.3807 24.7673C24.911 24.7673 25.277 25.1099 25.277 25.6074V25.6121Z" fill="#104035"/>
<path d="M41.3549 16.7756C41.3549 17.3106 41.017 17.5921 40.4444 17.625C40.0033 17.6485 39.595 17.1557 39.595 16.7709C39.595 16.25 39.9986 15.9027 40.6087 15.9074C41.017 15.9074 41.3596 16.311 41.3549 16.7756Z" fill="#104035"/>
<path d="M20.176 16.5031C20.176 16.9912 19.7724 17.3807 19.2656 17.3854C18.8714 17.3854 18.4115 16.8973 18.4209 16.4562C18.4255 16.123 18.7634 15.6021 19.2797 15.6209C19.8193 15.6396 20.176 15.9775 20.176 16.5031Z" fill="#104035"/>
<path d="M22.7945 9.87224C23.2263 9.78308 23.6252 10.182 23.6346 10.7123C23.644 11.1956 23.2357 11.6133 22.7288 11.5805C22.2596 11.5476 21.8654 11.1769 21.8747 10.7076C21.8841 10.2336 22.283 9.87224 22.7945 9.87224Z" fill="#104035"/>
<path d="M14.84 10.5528C14.8353 10.1164 15.2107 9.71281 15.6331 9.69873C16.1352 9.67996 16.5904 10.0976 16.5951 10.5763C16.5951 11.0127 16.1634 11.4398 15.727 11.4679C15.2671 11.5008 14.7837 11.0174 14.84 10.5528Z" fill="#104035"/>
<path d="M33.2644 4.00598C33.8041 4.00598 34.1373 4.3251 34.1373 4.86008C34.1373 5.35753 33.7853 5.68603 33.2832 5.71419C32.7341 5.74234 32.3774 5.19328 32.3774 4.81785C32.3774 4.37203 32.781 4.00598 33.2644 4.00598Z" fill="#104035"/>
<path d="M36.019 10.5903C36.0237 10.1351 36.4132 9.73154 36.8684 9.755C37.4362 9.78316 37.7319 10.0835 37.7647 10.642C37.7929 11.1019 37.2955 11.5289 36.798 11.5148C36.4977 11.5101 35.9345 11.0315 36.0143 10.5903H36.019Z" fill="#1D1F1D"/>
<path d="M35.0712 26.4757C34.5926 26.4757 34.1984 26.0956 34.1937 25.6356C34.1937 25.1757 34.5832 24.7815 35.0525 24.7769C35.5781 24.7769 35.9535 25.1241 35.9535 25.6216C35.9535 26.1894 35.6578 26.4757 35.0712 26.4804V26.4757Z" fill="#104035"/>
<path d="M33.2973 15.9166C33.8323 15.9166 34.1326 16.2451 34.142 16.8223C34.1467 17.193 33.7478 17.6342 33.2363 17.6342C32.706 17.6342 32.3915 17.1227 32.3822 16.7331C32.3728 16.3483 32.8374 15.818 33.2973 15.9213V15.9166Z" fill="#104035"/>
<path d="M28.0458 24.6549C28.5103 24.5798 28.8952 24.9693 28.9092 25.4902C28.9233 26.0065 28.5526 26.3303 28.0082 26.3678C27.5905 26.396 27.1259 25.9267 27.1494 25.5043C27.1776 25.0022 27.5155 24.6596 28.0458 24.6549Z" fill="#104035"/>
<path d="M20.9644 18.7886C21.5463 18.7886 21.8232 19.0843 21.8185 19.7037C21.8185 20.1496 21.4243 20.4827 20.9269 20.4968C20.5561 20.5062 20.0821 20.1214 20.0634 19.5817C20.0446 19.1312 20.4482 18.7839 20.9644 18.7886Z" fill="#104035"/>
<path d="M25.2771 13.4857C25.3099 13.9973 24.8688 14.3633 24.3901 14.3868C23.9818 14.4056 23.4938 13.8987 23.5219 13.4811C23.5501 13.0728 23.8645 12.6082 24.3948 12.6223C24.8875 12.6363 25.324 13.0305 25.2771 13.4904V13.4857Z" fill="#104035"/>
<path d="M28.0223 6.88292C28.5761 6.83599 28.8764 7.2865 28.9093 7.76517C28.9375 8.17815 28.4212 8.62866 28.027 8.59112C27.5014 8.54889 27.1495 8.22039 27.1542 7.6807C27.1542 7.21142 27.5202 6.87353 28.0223 6.87822V6.88292Z" fill="#104035"/>
<path d="M39.534 13.6219C39.6326 14.1006 39.0788 14.523 38.6424 14.5089C38.22 14.4948 37.8305 14.0912 37.8258 13.6313C37.8258 13.1292 38.1918 12.735 38.6611 12.7397C39.0741 12.7444 39.5575 13.0447 39.5293 13.6172L39.534 13.6219Z" fill="#1D1F1C"/>
<path d="M30.6787 28.3809C30.674 28.9065 30.2938 29.2866 29.7729 29.2913C29.4116 29.2913 28.8954 28.7657 28.9235 28.3997C28.9611 27.8788 29.4679 27.4846 29.8621 27.5221C30.3502 27.5644 30.688 27.8835 30.6787 28.3809Z" fill="#104035"/>
<path d="M22.7195 21.7827C23.2263 21.7217 23.6205 22.1065 23.6346 22.6321C23.644 23.1202 23.2685 23.4909 22.7758 23.4956C22.2924 23.4956 21.8888 23.1202 21.8748 22.6462C21.8607 22.1863 22.2596 21.7827 22.7195 21.7827Z" fill="#104035"/>
<path d="M13.878 18.493C14.46 18.5306 14.7697 18.8497 14.7791 19.3472C14.7885 19.8821 14.3896 20.2153 13.8827 20.2529C13.4651 20.281 13.0099 19.7977 13.0192 19.3331C13.0286 18.9905 13.329 18.4837 13.878 18.493Z" fill="#104035"/>
<path d="M6.96561 24.6548C7.4959 24.6548 7.85725 24.9645 7.85725 25.4244C7.85725 25.9735 7.51937 26.3583 7.02192 26.363C6.46347 26.363 6.13028 25.9406 6.10212 25.4995C6.06927 25.0396 6.49632 24.6548 6.96561 24.6548Z" fill="#104035"/>
<path d="M24.4323 18.7886C24.9861 18.7886 25.2817 19.0795 25.2817 19.6239C25.2817 20.1307 24.9157 20.4968 24.4041 20.4968C23.9818 20.4968 23.5313 20.0697 23.5219 19.6521C23.5125 19.1734 23.9161 18.7886 24.4323 18.7933V18.7886Z" fill="#104035"/>
<path d="M9.49959 16.3671C9.49959 16.8598 9.1617 17.2071 8.67833 17.2024C8.12458 17.2024 7.79138 16.8739 7.79138 16.3295C7.79138 15.8274 8.11519 15.4989 8.61263 15.4989C9.18517 15.4989 9.49959 15.8039 9.49959 16.3624V16.3671Z" fill="#104035"/>
<path d="M13.9297 12.749C14.4365 12.749 14.7791 13.1057 14.7791 13.6313C14.7791 14.1053 14.399 14.4525 13.8827 14.4525C13.4228 14.4525 13.024 14.0536 13.0193 13.5844C13.0099 13.1338 13.4322 12.749 13.9344 12.749H13.9297Z" fill="#104035"/>
<path d="M42.2512 8.69898C41.796 8.69898 41.4159 8.31886 41.4112 7.85896C41.4112 7.38967 41.8007 6.99547 42.2747 7.00016C42.7815 7.00016 43.171 7.37559 43.1757 7.85427C43.1757 8.28132 42.7956 8.76468 42.2512 8.69898Z" fill="#104035"/>
<path d="M24.4278 6.88281C24.9346 6.88281 25.2537 7.21601 25.2865 7.69468C25.3241 8.2109 24.8079 8.61448 24.4137 8.59571C23.9679 8.57694 23.5173 8.16397 23.5173 7.73692C23.5173 7.27701 23.935 6.88281 24.4231 6.88281H24.4278Z" fill="#104035"/>
<path d="M35.0335 14.5041C34.6299 14.5041 34.1888 14.0489 34.1981 13.6266C34.2122 13.1479 34.5877 12.7537 35.0522 12.7443C35.545 12.7396 35.9814 13.1573 35.958 13.6313C35.9298 14.1615 35.4887 14.4994 35.0288 14.4994L35.0335 14.5041Z" fill="#104035"/>
<path d="M42.2465 26.4756C41.8101 26.4756 41.4112 26.0861 41.4112 25.6637C41.4112 25.1663 41.7866 24.7674 42.2653 24.7768C42.9176 24.7862 43.1616 25.1757 43.1663 25.6637C43.1663 26.1095 42.7909 26.5272 42.2465 26.4803V26.4756Z" fill="#104035"/>
<path d="M29.7821 23.4864C29.3316 23.4864 28.9703 23.1015 28.9703 22.6135C28.9703 22.116 29.3129 21.7828 29.8244 21.7828C30.3828 21.7828 30.6832 22.1066 30.6785 22.7167C30.6785 23.1672 30.3077 23.4864 29.7775 23.4864H29.7821Z" fill="#104035"/>
<path d="M30.6786 10.6372C30.7396 11.13 30.3031 11.482 29.7682 11.5148C29.4021 11.5383 28.8906 10.9845 28.9234 10.5997C28.9657 10.0788 29.4678 9.72682 29.8245 9.74559C30.2985 9.76905 30.7302 10.1492 30.6833 10.6372H30.6786Z" fill="#104035"/>
<path d="M35.0569 20.6094C34.5923 20.6094 34.184 20.2058 34.1981 19.7459C34.2122 19.347 34.5782 18.8777 35.1085 18.9059C35.5919 18.9293 35.9908 19.3001 35.9626 19.7787C35.9392 20.2433 35.5872 20.6516 35.0569 20.6141V20.6094Z" fill="#104035"/>
<path d="M13.8452 26.3629C13.3947 26.4004 13.0099 25.8373 13.0146 25.4665C13.024 24.9832 13.4463 24.6453 14.0235 24.6594C14.4365 24.6687 14.7932 25.0676 14.7838 25.5135C14.7744 26.0062 14.3661 26.3769 13.8452 26.3629Z" fill="#104035"/>
<path d="M22.7241 15.6211C23.2216 15.6211 23.6486 16.0247 23.6392 16.4893C23.6345 16.9633 23.2263 17.3668 22.7335 17.3809C22.3346 17.3903 21.8653 16.9069 21.8747 16.4893C21.8841 16.0575 22.3112 15.6211 22.7241 15.6211Z" fill="#104035"/>
<path d="M19.2937 21.7828C19.8334 21.7828 20.176 22.1113 20.176 22.6276C20.176 23.1391 19.824 23.4535 19.3078 23.4957C18.8057 23.538 18.4115 22.9654 18.4162 22.5994C18.4209 22.1583 18.8245 21.7828 19.2937 21.7828Z" fill="#1C1E1B"/>
<path d="M15.7319 21.6655C16.2246 21.5763 16.6 22.0409 16.586 22.5055C16.5719 23.0593 16.0698 23.3596 15.6755 23.3784C15.2673 23.3972 14.7933 22.8856 14.8261 22.4351C14.859 21.9893 15.2156 21.6608 15.7272 21.6655H15.7319Z" fill="#104035"/>
<path d="M29.7963 4.00613C30.3266 4.00613 30.6785 4.31586 30.6785 4.78515C30.6785 5.35298 30.35 5.70964 29.8103 5.70964C29.3692 5.70964 28.8859 5.28259 28.9187 4.879C28.9562 4.41441 29.327 3.94043 29.7916 4.00613H29.7963Z" fill="#104035"/>
<path d="M20.9737 6.88287C21.4664 6.88287 21.8184 7.20668 21.8184 7.66658C21.8184 8.22034 21.4805 8.58638 20.969 8.58169C20.5044 8.58169 20.0492 8.13586 20.0586 7.69473C20.0679 7.23483 20.4668 6.87817 20.9737 6.87817V6.88287Z" fill="#104035"/>
<path d="M8.62671 21.6655C9.17109 21.6608 9.49489 21.9423 9.49959 22.4351C9.50428 23.0029 9.17109 23.3596 8.6361 23.369C8.18089 23.3784 7.79607 22.9842 7.79138 22.5008C7.79138 21.9752 8.09173 21.6702 8.62671 21.6655Z" fill="#104035"/>
<path d="M30.6785 16.738C30.6832 17.2589 30.336 17.6203 29.8291 17.625C29.3598 17.625 28.975 17.2448 28.9703 16.7709C28.9656 16.2781 29.2894 15.9261 29.7493 15.9214C30.336 15.9167 30.6738 16.2124 30.6785 16.7427V16.738Z" fill="#104035"/>
<path d="M38.6893 26.4755C38.1872 26.4755 37.8305 26.1376 37.8258 25.6589C37.8258 25.1615 38.1872 24.7767 38.6611 24.772C39.1727 24.772 39.534 25.1146 39.534 25.6073C39.534 26.1658 39.2337 26.4755 38.6893 26.4755Z" fill="#104035"/>
<path d="M38.6752 20.6095C38.1918 20.6095 37.8258 20.2622 37.8258 19.793C37.8258 19.2767 38.1778 18.9107 38.6752 18.906C39.2102 18.906 39.5434 19.2721 39.5387 19.8634C39.5387 20.2857 39.1633 20.6095 38.6752 20.6095Z" fill="#104035"/>
<path d="M37.7273 16.705C37.7648 17.1978 37.4457 17.5826 36.9717 17.6202C36.4931 17.653 36.0519 17.301 36.0191 16.8552C35.9862 16.4141 36.3288 15.9542 36.6949 15.9166C37.3706 15.8462 37.7179 16.2123 37.732 16.7097L37.7273 16.705Z" fill="#104035"/>
</svg>
